<?xml version="1.0" encoding="us-ascii" standalone="no"?><svg xmlns="http://www.w3.org/2000/svg" xmlns:xlink="http://www.w3.org/1999/xlink" contentStyleType="text/css" height="864px" preserveAspectRatio="none" style="width:1814px;height:864px;background:#FFFFFF;" version="1.1" viewBox="0 0 1814 864" width="1814px" zoomAndPan="magnify"><defs/><g><!--class PresenceType--><g id="elem_PresenceType"><rect codeLine="4" fill="#F1F1F1" height="190.6719" id="PresenceType" rx="2.5" ry="2.5" style="stroke:#181818;stroke-width:0.5;" width="462" x="7" y="23"/><ellipse cx="183.75" cy="39" fill="#EB937F" rx="11" ry="11" style="stroke:#181818;stroke-width:1.0;"/><path d="M187.8594,45 L180.1406,45 L180.1406,32.6094 L187.8594,32.6094 L187.8594,34.7656 L182.5938,34.7656 L182.5938,37.4375 L187.3594,37.4375 L187.3594,39.5938 L182.5938,39.5938 L182.5938,42.8438 L187.8594,42.8438 L187.8594,45 Z " fill="#000000"/><text fill="#000000" font-family="sans-serif" font-size="14" lengthAdjust="spacing" textLength="100" x="204.25" y="43.8467">PresenceType</text><line style="stroke:#181818;stroke-width:0.5;" x1="8" x2="468" y1="55" y2="55"/><text fill="#000000" font-family="sans-serif" font-size="14" font-weight="bold" lengthAdjust="spacing" textLength="73" x="13" y="71.9951">Summary</text><text fill="#000000" font-family="sans-serif" font-size="14" lengthAdjust="spacing" textLength="248" x="13" y="88.292">Categories of presence or absence.</text><text fill="#000000" font-family="sans-serif" font-size="14" font-weight="bold" lengthAdjust="spacing" textLength="90" x="13" y="104.5889">Description</text><text fill="#000000" font-family="sans-serif" font-size="14" lengthAdjust="spacing" textLength="450" x="13" y="120.8857">This type is used to indicate if a given field is present or absent or</text><text fill="#000000" font-family="sans-serif" font-size="14" lengthAdjust="spacing" textLength="68" x="13" y="137.1826">unknown.</text><text fill="#000000" font-family="sans-serif" font-size="14" font-weight="bold" lengthAdjust="spacing" textLength="20" x="13" y="173.7764">no</text><text fill="#000000" font-family="sans-serif" font-size="14" lengthAdjust="spacing" textLength="215" x="33" y="173.7764">: Indicates absence of the field.</text><text fill="#000000" font-family="sans-serif" font-size="14" font-weight="bold" lengthAdjust="spacing" textLength="96" x="13" y="190.0732">noAssertion</text><text fill="#000000" font-family="sans-serif" font-size="14" lengthAdjust="spacing" textLength="251" x="109" y="190.0732">: Makes no assertion about the field.</text><text fill="#000000" font-family="sans-serif" font-size="14" font-weight="bold" lengthAdjust="spacing" textLength="28" x="13" y="206.3701">yes</text><text fill="#000000" font-family="sans-serif" font-size="14" lengthAdjust="spacing" textLength="221" x="41" y="206.3701">: Indicates presence of the field.</text><line style="stroke:#181818;stroke-width:1.0;stroke-dasharray:1.0,2.0;" x1="8" x2="214" y1="152.6328" y2="152.6328"/><text fill="#000000" font-family="sans-serif" font-size="14" lengthAdjust="spacing" textLength="48" x="214" y="156.9795">entries</text><line style="stroke:#181818;stroke-width:1.0;stroke-dasharray:1.0,2.0;" x1="262" x2="468" y1="152.6328" y2="152.6328"/></g><!--class SafetyRiskAssessmentType--><g id="elem_SafetyRiskAssessmentType"><rect codeLine="15" fill="#F1F1F1" height="223.2656" id="SafetyRiskAssessmentType" rx="2.5" ry="2.5" style="stroke:#181818;stroke-width:0.5;" width="790" x="1017" y="7"/><ellipse cx="1312.25" cy="23" fill="#EB937F" rx="11" ry="11" style="stroke:#181818;stroke-width:1.0;"/><path d="M1316.3594,29 L1308.6406,29 L1308.6406,16.6094 L1316.3594,16.6094 L1316.3594,18.7656 L1311.0938,18.7656 L1311.0938,21.4375 L1315.8594,21.4375 L1315.8594,23.5938 L1311.0938,23.5938 L1311.0938,26.8438 L1316.3594,26.8438 L1316.3594,29 Z " fill="#000000"/><text fill="#000000" font-family="sans-serif" font-size="14" lengthAdjust="spacing" textLength="191" x="1332.75" y="27.8467">SafetyRiskAssessmentType</text><line style="stroke:#181818;stroke-width:0.5;" x1="1018" x2="1806" y1="39" y2="39"/><text fill="#000000" font-family="sans-serif" font-size="14" font-weight="bold" lengthAdjust="spacing" textLength="73" x="1023" y="55.9951">Summary</text><text fill="#000000" font-family="sans-serif" font-size="14" lengthAdjust="spacing" textLength="341" x="1023" y="72.292">Categories of safety risk impact of the application.</text><text fill="#000000" font-family="sans-serif" font-size="14" font-weight="bold" lengthAdjust="spacing" textLength="90" x="1023" y="88.5889">Description</text><text fill="#000000" font-family="sans-serif" font-size="14" lengthAdjust="spacing" textLength="477" x="1023" y="104.8857">Lists the different safety risk type values that can be used to describe</text><text fill="#000000" font-family="sans-serif" font-size="14" lengthAdjust="spacing" textLength="450" x="1023" y="121.1826">the safety risk of AI software according to [Article 20 of Regulation</text><text fill="#000000" font-family="sans-serif" font-size="14" lengthAdjust="spacing" textLength="778" x="1023" y="137.4795">765/2008/EC](https://ec.europa.eu/docsroom/documents/17107/attachments/1/translations/en/renditions/pdf).</text><text fill="#000000" font-family="sans-serif" font-size="14" font-weight="bold" lengthAdjust="spacing" textLength="34" x="1023" y="174.0732">high</text><text fill="#000000" font-family="sans-serif" font-size="14" lengthAdjust="spacing" textLength="401" x="1057" y="174.0732">: The second-highest level of risk posed by an AI software.</text><text fill="#000000" font-family="sans-serif" font-size="14" font-weight="bold" lengthAdjust="spacing" textLength="28" x="1023" y="190.3701">low</text><text fill="#000000" font-family="sans-serif" font-size="14" lengthAdjust="spacing" textLength="280" x="1051" y="190.3701">: Low/no risk is posed by the AI software.</text><text fill="#000000" font-family="sans-serif" font-size="14" font-weight="bold" lengthAdjust="spacing" textLength="62" x="1023" y="206.667">medium</text><text fill="#000000" font-family="sans-serif" font-size="14" lengthAdjust="spacing" textLength="380" x="1085" y="206.667">: The third-highest level of risk posed by an AI software.</text><text fill="#000000" font-family="sans-serif" font-size="14" font-weight="bold" lengthAdjust="spacing" textLength="59" x="1023" y="222.9639">serious</text><text fill="#000000" font-family="sans-serif" font-size="14" lengthAdjust="spacing" textLength="344" x="1082" y="222.9639">: The highest level of risk posed by an AI software.</text><line style="stroke:#181818;stroke-width:1.0;stroke-dasharray:1.0,2.0;" x1="1018" x2="1388" y1="152.9297" y2="152.9297"/><text fill="#000000" font-family="sans-serif" font-size="14" lengthAdjust="spacing" textLength="48" x="1388" y="157.2764">entries</text><line style="stroke:#181818;stroke-width:1.0;stroke-dasharray:1.0,2.0;" x1="1436" x2="1806" y1="152.9297" y2="152.9297"/></g><!--class AIPackage--><g id="elem_AIPackage"><rect codeLine="30" fill="#F1F1F1" height="455.4219" id="AIPackage" rx="2.5" ry="2.5" style="stroke:#181818;stroke-width:0.5;" width="499" x="493.5" y="402"/><ellipse cx="703.25" cy="418" fill="#ADD1B2" rx="11" ry="11" style="stroke:#181818;stroke-width:1.0;"/><path d="M706.2188,423.6406 Q705.6406,423.9375 705,424.0781 Q704.3594,424.2344 703.6563,424.2344 Q701.1563,424.2344 699.8281,422.5938 Q698.5156,420.9375 698.5156,417.8125 Q698.5156,414.6875 699.8281,413.0313 Q701.1563,411.375 703.6563,411.375 Q704.3594,411.375 705,411.5313 Q705.6563,411.6875 706.2188,411.9844 L706.2188,414.7031 Q705.5938,414.125 705,413.8594 Q704.4063,413.5781 703.7813,413.5781 Q702.4375,413.5781 701.75,414.6563 Q701.0625,415.7188 701.0625,417.8125 Q701.0625,419.9063 701.75,420.9844 Q702.4375,422.0469 703.7813,422.0469 Q704.4063,422.0469 705,421.7813 Q705.5938,421.5 706.2188,420.9219 L706.2188,423.6406 Z " fill="#000000"/><text fill="#000000" font-family="sans-serif" font-size="14" lengthAdjust="spacing" textLength="71" x="723.75" y="422.8467">AIPackage</text><line style="stroke:#181818;stroke-width:0.5;" x1="494.5" x2="991.5" y1="434" y2="434"/><text fill="#000000" font-family="sans-serif" font-size="14" font-weight="bold" lengthAdjust="spacing" textLength="73" x="499.5" y="450.9951">Summary</text><text fill="#000000" font-family="sans-serif" font-size="14" lengthAdjust="spacing" textLength="423" x="499.5" y="467.292">Provides information about the fields in the AI package profile.</text><text fill="#000000" font-family="sans-serif" font-size="14" font-weight="bold" lengthAdjust="spacing" textLength="90" x="499.5" y="483.5889">Description</text><text fill="#000000" font-family="sans-serif" font-size="14" lengthAdjust="spacing" textLength="487" x="499.5" y="499.8857">Metadata information that can be added to a package to describe an AI</text><text fill="#000000" font-family="sans-serif" font-size="14" lengthAdjust="spacing" textLength="211" x="499.5" y="516.1826">application or trained AI model.</text><text fill="#000000" font-family="sans-serif" font-size="14" lengthAdjust="spacing" textLength="165" x="499.5" y="552.7764">Instantiability : Concrete</text><text fill="#000000" font-family="sans-serif" font-size="14" lengthAdjust="spacing" textLength="219" x="499.5" y="569.0732">SubclassOf : /Software/Package</text><text fill="#000000" font-family="sans-serif" font-size="14" lengthAdjust="spacing" textLength="123" x="499.5" y="585.3701">name : AIPackage</text><line style="stroke:#181818;stroke-width:1.0;stroke-dasharray:1.0,2.0;" x1="494.5" x2="710.5" y1="531.6328" y2="531.6328"/><text fill="#000000" font-family="sans-serif" font-size="14" lengthAdjust="spacing" textLength="65" x="710.5" y="535.9795">metadata</text><line style="stroke:#181818;stroke-width:1.0;stroke-dasharray:1.0,2.0;" x1="775.5" x2="991.5" y1="531.6328" y2="531.6328"/><text fill="#000000" font-family="sans-serif" font-size="14" font-weight="bold" lengthAdjust="spacing" textLength="117" x="499.5" y="621.9639">autonomyType</text><text fill="#000000" font-family="sans-serif" font-size="14" lengthAdjust="spacing" textLength="149" x="621.5" y="621.9639">: PresenceType [0..1]</text><text fill="#000000" font-family="sans-serif" font-size="14" font-weight="bold" lengthAdjust="spacing" textLength="57" x="499.5" y="638.2607">domain</text><text fill="#000000" font-family="sans-serif" font-size="14" lengthAdjust="spacing" textLength="108" x="561.5" y="638.2607">: xsd:string [0..]</text><text fill="#000000" font-family="sans-serif" font-size="14" font-weight="bold" lengthAdjust="spacing" textLength="160" x="499.5" y="654.5576">energyConsumption</text><text fill="#000000" font-family="sans-serif" font-size="14" lengthAdjust="spacing" textLength="117" x="664.5" y="654.5576">: xsd:string [0..1]</text><text fill="#000000" font-family="sans-serif" font-size="14" font-weight="bold" lengthAdjust="spacing" textLength="128" x="499.5" y="670.8545">hyperparameter</text><text fill="#000000" font-family="sans-serif" font-size="14" lengthAdjust="spacing" textLength="186" x="632.5" y="670.8545">: /Core/DictionaryEntry [0..]</text><text fill="#000000" font-family="sans-serif" font-size="14" font-weight="bold" lengthAdjust="spacing" textLength="224" x="499.5" y="687.1514">informationAboutApplication</text><text fill="#000000" font-family="sans-serif" font-size="14" lengthAdjust="spacing" textLength="117" x="728.5" y="687.1514">: xsd:string [0..1]</text><text fill="#000000" font-family="sans-serif" font-size="14" font-weight="bold" lengthAdjust="spacing" textLength="201" x="499.5" y="703.4482">informationAboutTraining</text><text fill="#000000" font-family="sans-serif" font-size="14" lengthAdjust="spacing" textLength="117" x="705.5" y="703.4482">: xsd:string [0..1]</text><text fill="#000000" font-family="sans-serif" font-size="14" font-weight="bold" lengthAdjust="spacing" textLength="71" x="499.5" y="719.7451">limitation</text><text fill="#000000" font-family="sans-serif" font-size="14" lengthAdjust="spacing" textLength="117" x="575.5" y="719.7451">: xsd:string [0..1]</text><text fill="#000000" font-family="sans-serif" font-size="14" font-weight="bold" lengthAdjust="spacing" textLength="50" x="499.5" y="736.042">metric</text><text fill="#000000" font-family="sans-serif" font-size="14" lengthAdjust="spacing" textLength="186" x="554.5" y="736.042">: /Core/DictionaryEntry [0..]</text><text fill="#000000" font-family="sans-serif" font-size="14" font-weight="bold" lengthAdjust="spacing" textLength="197" x="499.5" y="752.3389">metricDecisionThreshold</text><text fill="#000000" font-family="sans-serif" font-size="14" lengthAdjust="spacing" textLength="186" x="701.5" y="752.3389">: /Core/DictionaryEntry [0..]</text><text fill="#000000" font-family="sans-serif" font-size="14" font-weight="bold" lengthAdjust="spacing" textLength="198" x="499.5" y="768.6357">modelDataPreprocessing</text><text fill="#000000" font-family="sans-serif" font-size="14" lengthAdjust="spacing" textLength="108" x="702.5" y="768.6357">: xsd:string [0..]</text><text fill="#000000" font-family="sans-serif" font-size="14" font-weight="bold" lengthAdjust="spacing" textLength="149" x="499.5" y="784.9326">modelExplainability</text><text fill="#000000" font-family="sans-serif" font-size="14" lengthAdjust="spacing" textLength="108" x="653.5" y="784.9326">: xsd:string [0..]</text><text fill="#000000" font-family="sans-serif" font-size="14" font-weight="bold" lengthAdjust="spacing" textLength="178" x="499.5" y="801.2295">safetyRiskAssessment</text><text fill="#000000" font-family="sans-serif" font-size="14" lengthAdjust="spacing" textLength="240" x="682.5" y="801.2295">: SafetyRiskAssessmentType [0..1]</text><text fill="#000000" font-family="sans-serif" font-size="14" font-weight="bold" lengthAdjust="spacing" textLength="230" x="499.5" y="817.5264">sensitivePersonalInformation</text><text fill="#000000" font-family="sans-serif" font-size="14" lengthAdjust="spacing" textLength="149" x="734.5" y="817.5264">: PresenceType [0..1]</text><text fill="#000000" font-family="sans-serif" font-size="14" font-weight="bold" lengthAdjust="spacing" textLength="161" x="499.5" y="833.8232">standardCompliance</text><text fill="#000000" font-family="sans-serif" font-size="14" lengthAdjust="spacing" textLength="108" x="665.5" y="833.8232">: xsd:string [0..]</text><text fill="#000000" font-family="sans-serif" font-size="14" font-weight="bold" lengthAdjust="spacing" textLength="100" x="499.5" y="850.1201">typeOfModel</text><text fill="#000000" font-family="sans-serif" font-size="14" lengthAdjust="spacing" textLength="108" x="604.5" y="850.1201">: xsd:string [0..]</text><line style="stroke:#181818;stroke-width:1.0;stroke-dasharray:1.0,2.0;" x1="494.5" x2="707.5" y1="600.8203" y2="600.8203"/><text fill="#000000" font-family="sans-serif" font-size="14" lengthAdjust="spacing" textLength="71" x="707.5" y="605.167">properties</text><line style="stroke:#181818;stroke-width:1.0;stroke-dasharray:1.0,2.0;" x1="778.5" x2="991.5" y1="600.8203" y2="600.8203"/></g><!--class /Core/DictionaryEntry--><g id="elem_/Core/DictionaryEntry"><rect fill="#F1F1F1" height="48" id="/Core/DictionaryEntry" rx="2.5" ry="2.5" style="stroke:#181818;stroke-width:0.5;" width="178" x="655" y="94.5"/><ellipse cx="670" cy="110.5" fill="#ADD1B2" rx="11" ry="11" style="stroke:#181818;stroke-width:1.0;"/><path d="M672.9688,116.1406 Q672.3906,116.4375 671.75,116.5781 Q671.1094,116.7344 670.4063,116.7344 Q667.9063,116.7344 666.5781,115.0938 Q665.2656,113.4375 665.2656,110.3125 Q665.2656,107.1875 666.5781,105.5313 Q667.9063,103.875 670.4063,103.875 Q671.1094,103.875 671.75,104.0313 Q672.4063,104.1875 672.9688,104.4844 L672.9688,107.2031 Q672.3438,106.625 671.75,106.3594 Q671.1563,106.0781 670.5313,106.0781 Q669.1875,106.0781 668.5,107.1563 Q667.8125,108.2188 667.8125,110.3125 Q667.8125,112.4063 668.5,113.4844 Q669.1875,114.5469 670.5313,114.5469 Q671.1563,114.5469 671.75,114.2813 Q672.3438,114 672.9688,113.4219 L672.9688,116.1406 Z " fill="#000000"/><text fill="#000000" font-family="sans-serif" font-size="14" lengthAdjust="spacing" textLength="146" x="684" y="115.3467">/Core/DictionaryEntry</text><line style="stroke:#181818;stroke-width:0.5;" x1="656" x2="832" y1="126.5" y2="126.5"/><line style="stroke:#181818;stroke-width:0.5;" x1="656" x2="832" y1="134.5" y2="134.5"/></g><!--class /Software/Package--><g id="elem_/Software/Package"><rect fill="#F1F1F1" height="48" id="/Software/Package" rx="2.5" ry="2.5" style="stroke:#181818;stroke-width:0.5;" width="161" x="1017.5" y="290"/><ellipse cx="1032.5" cy="306" fill="#ADD1B2" rx="11" ry="11" style="stroke:#181818;stroke-width:1.0;"/><path d="M1035.4688,311.6406 Q1034.8906,311.9375 1034.25,312.0781 Q1033.6094,312.2344 1032.9063,312.2344 Q1030.4063,312.2344 1029.0781,310.5938 Q1027.7656,308.9375 1027.7656,305.8125 Q1027.7656,302.6875 1029.0781,301.0313 Q1030.4063,299.375 1032.9063,299.375 Q1033.6094,299.375 1034.25,299.5313 Q1034.9063,299.6875 1035.4688,299.9844 L1035.4688,302.7031 Q1034.8438,302.125 1034.25,301.8594 Q1033.6563,301.5781 1033.0313,301.5781 Q1031.6875,301.5781 1031,302.6563 Q1030.3125,303.7188 1030.3125,305.8125 Q1030.3125,307.9063 1031,308.9844 Q1031.6875,310.0469 1033.0313,310.0469 Q1033.6563,310.0469 1034.25,309.7813 Q1034.8438,309.5 1035.4688,308.9219 L1035.4688,311.6406 Z " fill="#000000"/><text fill="#000000" font-family="sans-serif" font-size="14" lengthAdjust="spacing" textLength="129" x="1046.5" y="310.8467">/Software/Package</text><line style="stroke:#181818;stroke-width:0.5;" x1="1018.5" x2="1177.5" y1="322" y2="322"/><line style="stroke:#181818;stroke-width:0.5;" x1="1018.5" x2="1177.5" y1="330" y2="330"/></g><!--reverse link PresenceType to AIPackage--><g id="link_PresenceType_AIPackage"><path codeLine="57" d="M245.45,220.86 C262.27,366.2 316.81,616.5 493,616.5 " fill="none" id="PresenceType-backto-AIPackage" style="stroke:#181818;stroke-width:4.0;stroke-dasharray:7.0,7.0;"/><polygon fill="#181818" points="244.89,215.95,241.9172,225.3395,245.4469,220.9189,249.8675,224.4485,244.89,215.95" style="stroke:#181818;stroke-width:4.0;"/></g><!--reverse link PresenceType to AIPackage--><g id="link_PresenceType_AIPackage"><path codeLine="62" d="M269.79,220.6 C330.98,412.93 461.85,812.5 493,812.5 " fill="none" id="PresenceType-backto-AIPackage-1" style="stroke:#181818;stroke-width:4.0;stroke-dasharray:7.0,7.0;"/><polygon fill="#181818" points="268.28,215.85,267.1899,225.6383,269.7925,220.6158,274.8151,223.2184,268.28,215.85" style="stroke:#181818;stroke-width:4.0;"/></g><!--reverse link /Core/DictionaryEntry to AIPackage--><g id="link_/Core/DictionaryEntry_AIPackage"><path codeLine="58" d="M738.41,149.15 C731.53,195.42 725.82,284.98 772,338 C838.85,414.75 931.02,317.27 993,398 C1065.4,492.31 1112.89,665.5 994,665.5 " fill="none" id="/Core/DictionaryEntry-backto-AIPackage" style="stroke:#181818;stroke-width:4.0;stroke-dasharray:7.0,7.0;"/><polygon fill="#181818" points="739.15,144.41,733.81,152.6855,738.379,149.3502,741.7143,153.9192,739.15,144.41" style="stroke:#181818;stroke-width:4.0;"/></g><!--reverse link /Core/DictionaryEntry to AIPackage--><g id="link_/Core/DictionaryEntry_AIPackage"><path codeLine="59" d="M781.92,146.79 C840.39,191.5 950.27,286.61 993,398 C1046.08,536.39 1142.22,731.5 994,731.5 " fill="none" id="/Core/DictionaryEntry-backto-AIPackage-1" style="stroke:#181818;stroke-width:4.0;stroke-dasharray:7.0,7.0;"/><polygon fill="#181818" points="777.97,143.8,782.7355,152.4191,781.958,146.816,787.5611,146.0384,777.97,143.8" style="stroke:#181818;stroke-width:4.0;"/></g><!--reverse link /Core/DictionaryEntry to AIPackage--><g id="link_/Core/DictionaryEntry_AIPackage"><path codeLine="60" d="M729.22,148.43 C705.29,193.19 654.48,280.09 593,338 C555.55,373.28 519.31,353.21 494,398 C417.57,533.23 337.67,747.5 493,747.5 " fill="none" id="/Core/DictionaryEntry-backto-AIPackage-2" style="stroke:#181818;stroke-width:4.0;stroke-dasharray:7.0,7.0;"/><polygon fill="#181818" points="731.43,144.26,723.6775,150.3345,729.086,148.6765,730.7439,154.0849,731.43,144.26" style="stroke:#181818;stroke-width:4.0;"/></g><!--reverse link SafetyRiskAssessmentType to AIPackage--><g id="link_SafetyRiskAssessmentType_AIPackage"><path codeLine="61" d="M1394.35,236.4 C1357.75,430.11 1254.15,796.5 994,796.5 " fill="none" id="SafetyRiskAssessmentType-backto-AIPackage" style="stroke:#181818;stroke-width:4.0;stroke-dasharray:7.0,7.0;"/><polygon fill="#181818" points="1395.24,231.64,1389.6613,239.7565,1394.3255,236.5557,1397.5263,241.2198,1395.24,231.64" style="stroke:#181818;stroke-width:4.0;"/></g><!--reverse link /Software/Package to AIPackage--><g id="link_/Software/Package_AIPackage"><path codeLine="64" d="M1055.57,352.47 C1040.02,366.2 1021.1,382.91 1000.32,401.26 " fill="none" id="/Software/Package-backto-AIPackage" style="stroke:#181818;stroke-width:4.0;"/><polygon fill="none" points="1050.85,347.3,1070.47,339.31,1060.12,357.79,1050.85,347.3" style="stroke:#181818;stroke-width:4.0;"/></g><!--SRC=[hLLHRziu37xthn3oiZlWOgV3tJe4tO0WxKE15IkMl1Lza2Kw5c9BXYYd2-xwtu-qdSHPdJQtMr_YIkH7ykD72jV6LjBBKbHIhUKA5c5RWF2WWhIh0YA4813O93WlhBCGlHCRfsHQ5z9l8x1rAUuz85W5osq5uk_eAlsygCkIhg-Iz7Cqbm5MpXj0uJ9HTRQ2u6JQVCRiSGselAc2SRRnMkO6HM10-gqHj0XE6AkD8ZXXCY75ocp0Yin0eTceHGvxOFwAQhksxid6KHmBEcgoYED8q1y5jOvZJSLjXukxb3ZJa4CBtZEV8OBVvJWLTt9DFjO9kJid05U70Tyju8-n3bGS1NjkILt83CBscy4r1qKiAVrp2CR6JtXo5AQajeOTlgogWaDJceEKVp4OiB7K9il0CuLzjAOR6rdKm5Oo22MjI67V7TtWfH0nHD-Huizk1ReiF4bFUIZbl3PsnKuFC-9DaURUJzZk6wn8M9nITFdXh-JzPF8nkPa__fQ7KE4qIK35K7jNIVf9j5FedIlvesP-CBcul9XS9Z84gVBk90bUMcn1CG6RK67QjFzLEllzX3PoiyhRZYsv753EwZ4V0WPHm0OAphUfhtBCGBeLn4Ulq3rKuPvQf2_kAI6rjBt1WnyJDkHOWZPrUSWYvCR_R18aKEDgF83zHvXd6dnLiD0n2cu5bBCdBJP7P7dVxe-NwhptRcD86ZIycVEb79eIljoHq2qYcWwNcM9uETn1a5e6UOJPbwJKkjMatEFr1DhM5lNcWPS6oSHOyg8SIgUXQ7HHxY9rmhYrI9in69cQmf2-fsBkhF8GeBbUr6b3oDUCRf95HrxIaTEOM5a2NUuPuoXKQyNxuqY0iWxEkdBR37tRjgD5-p29uul7dRLs9QNVsNr7FKKID8qOM-sDm89VRIbZhCk6pM7x0sfEWNppG525lhDEvevgkZQA4QZDDpGxs-D0lRxCkDMp7jLlXFpHTSbjORCt_0fJcd1M1Ah56tL-CQtzDIY3PBFCgGcvepVdV02MqpMfYFf7hLQqpKyMTEnqyxqggFoTsbxtm84NetCv-PWSCqFYGjgC6xW7ZrHDSTkRhpSbo9EXfTTpLrAt9RzihoVC3yhNx8uBFMNv78tw4KVYQloW9UQW_w1bgDQMYldqv-DuB4RxYPfE-wCpYaQ3BJeJwdW2_YTOgwHV0l92ZeHwgijd0W_fP_HJ_B-cen7tzCLg9E1_nWz7a3t4qRy0]--></g></svg>