<?xml version="1.0" encoding="us-ascii" standalone="no"?><svg xmlns="http://www.w3.org/2000/svg" xmlns:xlink="http://www.w3.org/1999/xlink" contentStyleType="text/css" height="1328px" preserveAspectRatio="none" style="width:1294px;height:1328px;background:#FFFFFF;" version="1.1" viewBox="0 0 1294 1328" width="1294px" zoomAndPan="magnify"><defs/><g><!--class SensitivePersonalInformationType--><g id="elem_SensitivePersonalInformationType"><rect codeLine="4" fill="#F1F1F1" height="215.6113" id="SensitivePersonalInformationType" rx="2.5" ry="2.5" style="stroke:#181818;stroke-width:0.5;" width="441" x="575.5" y="7"/><ellipse cx="678.75" cy="23" fill="#EB937F" rx="11" ry="11" style="stroke:#181818;stroke-width:1.0;"/><path d="M675.1406,17.1094 L682.8594,17.1094 L682.8594,19.2656 L677.5938,19.2656 L677.5938,21.9375 L682.3594,21.9375 L682.3594,24.0938 L677.5938,24.0938 L677.5938,27.3438 L682.8594,27.3438 L682.8594,29.5 L675.1406,29.5 L675.1406,17.1094 Z " fill="#000000"/><text fill="#000000" font-family="sans-serif" font-size="14" lengthAdjust="spacing" textLength="226" x="699.25" y="28.432">SensitivePersonalInformationType</text><line style="stroke:#181818;stroke-width:0.5;" x1="576.5" x2="1015.5" y1="39" y2="39"/><text fill="#000000" font-family="sans-serif" font-size="14" font-weight="bold" lengthAdjust="spacing" textLength="68" x="581.5" y="57.9659">Summary</text><text fill="#000000" font-family="sans-serif" font-size="14" lengthAdjust="spacing" textLength="228" x="581.5" y="77.0339">Categories of presence or absence</text><text fill="#000000" font-family="sans-serif" font-size="14" font-weight="bold" lengthAdjust="spacing" textLength="83" x="581.5" y="96.1018">Description</text><text fill="#000000" font-family="sans-serif" font-size="14" lengthAdjust="spacing" textLength="429" x="581.5" y="115.1697">This type is used to indicate if a given field is present or absent or</text><text fill="#000000" font-family="sans-serif" font-size="14" lengthAdjust="spacing" textLength="59" x="581.5" y="134.2376">unknown</text><text fill="#000000" font-family="sans-serif" font-size="14" font-weight="bold" lengthAdjust="spacing" textLength="18" x="581.5" y="176.3734">no</text><text fill="#000000" font-family="sans-serif" font-size="14" lengthAdjust="spacing" textLength="200" x="599.5" y="176.3734">: Indicates absence of the field</text><text fill="#000000" font-family="sans-serif" font-size="14" font-weight="bold" lengthAdjust="spacing" textLength="87" x="581.5" y="195.4414">noassertion</text><text fill="#000000" font-family="sans-serif" font-size="14" lengthAdjust="spacing" textLength="331" x="668.5" y="195.4414">: Describes no assertion. In other words, unknown.</text><text fill="#000000" font-family="sans-serif" font-size="14" font-weight="bold" lengthAdjust="spacing" textLength="25" x="581.5" y="214.5093">yes</text><text fill="#000000" font-family="sans-serif" font-size="14" lengthAdjust="spacing" textLength="205" x="606.5" y="214.5093">: Indicates presence of the field</text><line style="stroke:#181818;stroke-width:1.0;stroke-dasharray:1.0,2.0;" x1="576.5" x2="773.5" y1="151.8735" y2="151.8735"/><text fill="#000000" font-family="sans-serif" font-size="14" lengthAdjust="spacing" textLength="45" x="773.5" y="156.8055">entries</text><line style="stroke:#181818;stroke-width:1.0;stroke-dasharray:1.0,2.0;" x1="818.5" x2="1015.5" y1="151.8735" y2="151.8735"/></g><!--class SafetyRiskAssessmentType--><g id="elem_SafetyRiskAssessmentType"><rect codeLine="15" fill="#F1F1F1" height="368.1546" id="SafetyRiskAssessmentType" rx="2.5" ry="2.5" style="stroke:#181818;stroke-width:0.5;" width="742" x="7" y="284"/><ellipse cx="283.75" cy="300" fill="#EB937F" rx="11" ry="11" style="stroke:#181818;stroke-width:1.0;"/><path d="M280.1406,294.1094 L287.8594,294.1094 L287.8594,296.2656 L282.5938,296.2656 L282.5938,298.9375 L287.3594,298.9375 L287.3594,301.0938 L282.5938,301.0938 L282.5938,304.3438 L287.8594,304.3438 L287.8594,306.5 L280.1406,306.5 L280.1406,294.1094 Z " fill="#000000"/><text fill="#000000" font-family="sans-serif" font-size="14" lengthAdjust="spacing" textLength="180" x="304.25" y="305.432">SafetyRiskAssessmentType</text><line style="stroke:#181818;stroke-width:0.5;" x1="8" x2="748" y1="316" y2="316"/><text fill="#000000" font-family="sans-serif" font-size="14" font-weight="bold" lengthAdjust="spacing" textLength="68" x="13" y="334.9659">Summary</text><text fill="#000000" font-family="sans-serif" font-size="14" lengthAdjust="spacing" textLength="410" x="13" y="354.0339">Categories of safety risk impact of application ie. serious, high,</text><text fill="#000000" font-family="sans-serif" font-size="14" lengthAdjust="spacing" textLength="87" x="13" y="373.1018">medium, low.</text><text fill="#000000" font-family="sans-serif" font-size="14" font-weight="bold" lengthAdjust="spacing" textLength="83" x="13" y="392.1697">Description</text><text fill="#000000" font-family="sans-serif" font-size="14" lengthAdjust="spacing" textLength="432" x="13" y="411.2376">Describes the different safety risk type values that can be used to</text><text fill="#000000" font-family="sans-serif" font-size="14" lengthAdjust="spacing" textLength="276" x="13" y="430.3055">describe the safety risk of the AI software</text><text fill="#000000" font-family="sans-serif" font-size="14" font-weight="bold" lengthAdjust="spacing" textLength="31" x="13" y="472.4414">high</text><text fill="#000000" font-family="sans-serif" font-size="14" lengthAdjust="spacing" textLength="458" x="44" y="472.4414">: The second highest level of risk posed by the AI software as given by</text><text fill="#000000" font-family="sans-serif" font-size="14" lengthAdjust="spacing" textLength="202" x="13" y="491.5093">[Article 20 of EC Regulation No</text><text fill="#000000" font-family="sans-serif" font-size="14" lengthAdjust="spacing" textLength="708" x="13" y="510.5772">765/2008](https://ec.europa.eu/docsroom/documents/17107/attachments/1/translations/en/renditions/pdf).</text><text fill="#000000" font-family="sans-serif" font-size="14" font-weight="bold" lengthAdjust="spacing" textLength="25" x="13" y="529.6451">low</text><text fill="#000000" font-family="sans-serif" font-size="14" lengthAdjust="spacing" textLength="291" x="38" y="529.6451">: Low/no risk is contained in the AI software.</text><text fill="#000000" font-family="sans-serif" font-size="14" font-weight="bold" lengthAdjust="spacing" textLength="59" x="13" y="548.713">medium</text><text fill="#000000" font-family="sans-serif" font-size="14" lengthAdjust="spacing" textLength="453" x="72" y="548.713">: The third highest level of risk as given by [Article 20 of EC Regulation</text><text fill="#000000" font-family="sans-serif" font-size="14" lengthAdjust="spacing" textLength="20" x="13" y="567.7809">No</text><text fill="#000000" font-family="sans-serif" font-size="14" lengthAdjust="spacing" textLength="708" x="13" y="586.8489">765/2008](https://ec.europa.eu/docsroom/documents/17107/attachments/1/translations/en/renditions/pdf).</text><text fill="#000000" font-family="sans-serif" font-size="14" font-weight="bold" lengthAdjust="spacing" textLength="53" x="13" y="605.9168">serious</text><text fill="#000000" font-family="sans-serif" font-size="14" lengthAdjust="spacing" textLength="449" x="66" y="605.9168">: The highest level of risk that is contained for a AI software as given</text><text fill="#000000" font-family="sans-serif" font-size="14" lengthAdjust="spacing" textLength="176" x="13" y="624.9847">by [Article 20 of Regulation</text><text fill="#000000" font-family="sans-serif" font-size="14" lengthAdjust="spacing" textLength="730" x="13" y="644.0526">765/2008/EC](https://ec.europa.eu/docsroom/documents/17107/attachments/1/translations/en/renditions/pdf).</text><line style="stroke:#181818;stroke-width:1.0;stroke-dasharray:1.0,2.0;" x1="8" x2="355.5" y1="447.9415" y2="447.9415"/><text fill="#000000" font-family="sans-serif" font-size="14" lengthAdjust="spacing" textLength="45" x="355.5" y="452.8734">entries</text><line style="stroke:#181818;stroke-width:1.0;stroke-dasharray:1.0,2.0;" x1="400.5" x2="748" y1="447.9415" y2="447.9415"/></g><!--class AIPackage--><g id="elem_AIPackage"><rect codeLine="36" fill="#F1F1F1" height="524.6979" id="AIPackage" rx="2.5" ry="2.5" style="stroke:#181818;stroke-width:0.5;" width="485" x="773.5" y="797"/><ellipse cx="977.25" cy="813" fill="#ADD1B2" rx="11" ry="11" style="stroke:#181818;stroke-width:1.0;"/><path d="M977.0469,819.7344 Q974.5625,819.7344 973.2344,818.0938 Q971.9219,816.4219 971.9219,813.3125 Q971.9219,810.1875 973.2344,808.5313 Q974.5625,806.875 977.0469,806.875 Q977.7656,806.875 978.4219,807.0313 Q979.0625,807.1875 979.625,807.4844 L979.625,810.2031 Q979.2656,809.8594 978.9688,809.6719 Q978.6719,809.4688 978.4063,809.3438 Q978.0938,809.2031 977.7813,809.1406 Q977.4844,809.0781 977.1719,809.0781 Q975.8438,809.0781 975.1563,810.1406 Q974.4688,811.2344 974.4688,813.3125 Q974.4688,815.4063 975.1563,816.4688 Q975.8438,817.5469 977.1719,817.5469 Q977.8125,817.5469 978.4063,817.2656 Q978.7031,817.1406 978.9844,816.9531 Q979.2813,816.75 979.625,816.4219 L979.625,819.1406 Q979.0469,819.4375 978.4063,819.5938 Q977.7656,819.7344 977.0469,819.7344 Z " fill="#000000"/><text fill="#000000" font-family="sans-serif" font-size="14" lengthAdjust="spacing" textLength="69" x="997.75" y="818.432">AIPackage</text><line style="stroke:#181818;stroke-width:0.5;" x1="774.5" x2="1257.5" y1="829" y2="829"/><text fill="#000000" font-family="sans-serif" font-size="14" font-weight="bold" lengthAdjust="spacing" textLength="68" x="779.5" y="847.9659">Summary</text><text fill="#000000" font-family="sans-serif" font-size="14" lengthAdjust="spacing" textLength="409" x="779.5" y="867.0339">Provides information about the fields in the AI package profile.</text><text fill="#000000" font-family="sans-serif" font-size="14" font-weight="bold" lengthAdjust="spacing" textLength="83" x="779.5" y="886.1018">Description</text><text fill="#000000" font-family="sans-serif" font-size="14" lengthAdjust="spacing" textLength="473" x="779.5" y="905.1697">Metadata information that can be added to a package to describe an AI</text><text fill="#000000" font-family="sans-serif" font-size="14" lengthAdjust="spacing" textLength="205" x="779.5" y="924.2376">application or trained AI model.</text><text fill="#000000" font-family="sans-serif" font-size="14" lengthAdjust="spacing" textLength="152" x="779.5" y="966.3734">Instatiability : Concrete</text><text fill="#000000" font-family="sans-serif" font-size="14" lengthAdjust="spacing" textLength="201" x="779.5" y="985.4414">SubclassOf : Software:Package</text><text fill="#000000" font-family="sans-serif" font-size="14" lengthAdjust="spacing" textLength="117" x="779.5" y="1004.5093">name : AIPackage</text><line style="stroke:#181818;stroke-width:1.0;stroke-dasharray:1.0,2.0;" x1="774.5" x2="983.5" y1="941.8735" y2="941.8735"/><text fill="#000000" font-family="sans-serif" font-size="14" lengthAdjust="spacing" textLength="65" x="983.5" y="946.8055">metadata</text><line style="stroke:#181818;stroke-width:1.0;stroke-dasharray:1.0,2.0;" x1="1048.5" x2="1257.5" y1="941.8735" y2="941.8735"/><text fill="#000000" font-family="sans-serif" font-size="14" font-weight="bold" lengthAdjust="spacing" textLength="110" x="779.5" y="1046.6451">autonomyType</text><text fill="#000000" font-family="sans-serif" font-size="14" lengthAdjust="spacing" textLength="134" x="893.5" y="1046.6451">: PresenceType [0..1]</text><text fill="#000000" font-family="sans-serif" font-size="14" font-weight="bold" lengthAdjust="spacing" textLength="178" x="779.5" y="1065.713">dataPreprocessingSteps</text><text fill="#000000" font-family="sans-serif" font-size="14" lengthAdjust="spacing" textLength="104" x="961.5" y="1065.713">: xsd:string [0..1]</text><text fill="#000000" font-family="sans-serif" font-size="14" font-weight="bold" lengthAdjust="spacing" textLength="54" x="779.5" y="1084.7809">domain</text><text fill="#000000" font-family="sans-serif" font-size="14" lengthAdjust="spacing" textLength="96" x="837.5" y="1084.7809">: xsd:string [0..]</text><text fill="#000000" font-family="sans-serif" font-size="14" font-weight="bold" lengthAdjust="spacing" textLength="146" x="779.5" y="1103.8489">energyConsumption</text><text fill="#000000" font-family="sans-serif" font-size="14" lengthAdjust="spacing" textLength="104" x="929.5" y="1103.8489">: xsd:string [0..1]</text><text fill="#000000" font-family="sans-serif" font-size="14" font-weight="bold" lengthAdjust="spacing" textLength="127" x="779.5" y="1122.9168">hyperparameters</text><text fill="#000000" font-family="sans-serif" font-size="14" lengthAdjust="spacing" textLength="96" x="910.5" y="1122.9168">: xsd:string [0..]</text><text fill="#000000" font-family="sans-serif" font-size="14" font-weight="bold" lengthAdjust="spacing" textLength="213" x="779.5" y="1141.9847">informationAboutApplication</text><text fill="#000000" font-family="sans-serif" font-size="14" lengthAdjust="spacing" textLength="104" x="996.5" y="1141.9847">: xsd:string [0..1]</text><text fill="#000000" font-family="sans-serif" font-size="14" font-weight="bold" lengthAdjust="spacing" textLength="191" x="779.5" y="1161.0526">informationAboutTraining</text><text fill="#000000" font-family="sans-serif" font-size="14" lengthAdjust="spacing" textLength="104" x="974.5" y="1161.0526">: xsd:string [0..1]</text><text fill="#000000" font-family="sans-serif" font-size="14" font-weight="bold" lengthAdjust="spacing" textLength="79" x="779.5" y="1180.1205">limitations</text><text fill="#000000" font-family="sans-serif" font-size="14" lengthAdjust="spacing" textLength="96" x="862.5" y="1180.1205">: xsd:string [0..]</text><text fill="#000000" font-family="sans-serif" font-size="14" font-weight="bold" lengthAdjust="spacing" textLength="56" x="779.5" y="1199.1884">metrics</text><text fill="#000000" font-family="sans-serif" font-size="14" lengthAdjust="spacing" textLength="96" x="839.5" y="1199.1884">: xsd:string [0..]</text><text fill="#000000" font-family="sans-serif" font-size="14" font-weight="bold" lengthAdjust="spacing" textLength="198" x="779.5" y="1218.2564">metricsDecisionThresholds</text><text fill="#000000" font-family="sans-serif" font-size="14" lengthAdjust="spacing" textLength="96" x="981.5" y="1218.2564">: xsd:string [0..]</text><text fill="#000000" font-family="sans-serif" font-size="14" font-weight="bold" lengthAdjust="spacing" textLength="232" x="779.5" y="1237.3243">modelExplainabilityMechanisms</text><text fill="#000000" font-family="sans-serif" font-size="14" lengthAdjust="spacing" textLength="104" x="1015.5" y="1237.3243">: xsd:string [0..1]</text><text fill="#000000" font-family="sans-serif" font-size="14" font-weight="bold" lengthAdjust="spacing" textLength="168" x="779.5" y="1256.3922">safetyRiskAssessment</text><text fill="#000000" font-family="sans-serif" font-size="14" lengthAdjust="spacing" textLength="222" x="951.5" y="1256.3922">: SafetyRiskAssessmentType [0..1]</text><text fill="#000000" font-family="sans-serif" font-size="14" font-weight="bold" lengthAdjust="spacing" textLength="219" x="779.5" y="1275.4601">sensitivePersonalInformation</text><text fill="#000000" font-family="sans-serif" font-size="14" lengthAdjust="spacing" textLength="134" x="1002.5" y="1275.4601">: PresenceType [0..1]</text><text fill="#000000" font-family="sans-serif" font-size="14" font-weight="bold" lengthAdjust="spacing" textLength="158" x="779.5" y="1294.528">standardsCompliance</text><text fill="#000000" font-family="sans-serif" font-size="14" lengthAdjust="spacing" textLength="96" x="941.5" y="1294.528">: xsd:string [0..]</text><text fill="#000000" font-family="sans-serif" font-size="14" font-weight="bold" lengthAdjust="spacing" textLength="95" x="779.5" y="1313.5959">typeOfModel</text><text fill="#000000" font-family="sans-serif" font-size="14" lengthAdjust="spacing" textLength="96" x="878.5" y="1313.5959">: xsd:string [0..]</text><line style="stroke:#181818;stroke-width:1.0;stroke-dasharray:1.0,2.0;" x1="774.5" x2="982.5" y1="1022.1452" y2="1022.1452"/><text fill="#000000" font-family="sans-serif" font-size="14" lengthAdjust="spacing" textLength="67" x="982.5" y="1027.0772">properties</text><line style="stroke:#181818;stroke-width:1.0;stroke-dasharray:1.0,2.0;" x1="1049.5" x2="1257.5" y1="1022.1452" y2="1022.1452"/></g><!--class PresenceType--><g id="elem_PresenceType"><rect fill="#F1F1F1" height="48" id="PresenceType" rx="2.5" ry="2.5" style="stroke:#181818;stroke-width:0.5;" width="124" x="918" y="444"/><ellipse cx="933" cy="460" fill="#ADD1B2" rx="11" ry="11" style="stroke:#181818;stroke-width:1.0;"/><path d="M932.7969,466.7344 Q930.3125,466.7344 928.9844,465.0938 Q927.6719,463.4219 927.6719,460.3125 Q927.6719,457.1875 928.9844,455.5313 Q930.3125,453.875 932.7969,453.875 Q933.5156,453.875 934.1719,454.0313 Q934.8125,454.1875 935.375,454.4844 L935.375,457.2031 Q935.0156,456.8594 934.7188,456.6719 Q934.4219,456.4688 934.1563,456.3438 Q933.8438,456.2031 933.5313,456.1406 Q933.2344,456.0781 932.9219,456.0781 Q931.5938,456.0781 930.9063,457.1406 Q930.2188,458.2344 930.2188,460.3125 Q930.2188,462.4063 930.9063,463.4688 Q931.5938,464.5469 932.9219,464.5469 Q933.5625,464.5469 934.1563,464.2656 Q934.4531,464.1406 934.7344,463.9531 Q935.0313,463.75 935.375,463.4219 L935.375,466.1406 Q934.7969,466.4375 934.1563,466.5938 Q933.5156,466.7344 932.7969,466.7344 Z " fill="#000000"/><text fill="#000000" font-family="sans-serif" font-size="14" lengthAdjust="spacing" textLength="92" x="947" y="465.432">PresenceType</text><line style="stroke:#181818;stroke-width:0.5;" x1="919" x2="1041" y1="476" y2="476"/><line style="stroke:#181818;stroke-width:0.5;" x1="919" x2="1041" y1="484" y2="484"/></g><!--class Package--><g id="elem_Package"><rect fill="#F1F1F1" height="48" id="Package" rx="2.5" ry="2.5" style="stroke:#181818;stroke-width:0.5;" width="87" x="1051.5" y="91"/><ellipse cx="1066.5" cy="107" fill="#ADD1B2" rx="11" ry="11" style="stroke:#181818;stroke-width:1.0;"/><path d="M1066.2969,113.7344 Q1063.8125,113.7344 1062.4844,112.0938 Q1061.1719,110.4219 1061.1719,107.3125 Q1061.1719,104.1875 1062.4844,102.5313 Q1063.8125,100.875 1066.2969,100.875 Q1067.0156,100.875 1067.6719,101.0313 Q1068.3125,101.1875 1068.875,101.4844 L1068.875,104.2031 Q1068.5156,103.8594 1068.2188,103.6719 Q1067.9219,103.4688 1067.6563,103.3438 Q1067.3438,103.2031 1067.0313,103.1406 Q1066.7344,103.0781 1066.4219,103.0781 Q1065.0938,103.0781 1064.4063,104.1406 Q1063.7188,105.2344 1063.7188,107.3125 Q1063.7188,109.4063 1064.4063,110.4688 Q1065.0938,111.5469 1066.4219,111.5469 Q1067.0625,111.5469 1067.6563,111.2656 Q1067.9531,111.1406 1068.2344,110.9531 Q1068.5313,110.75 1068.875,110.4219 L1068.875,113.1406 Q1068.2969,113.4375 1067.6563,113.5938 Q1067.0156,113.7344 1066.2969,113.7344 Z " fill="#000000"/><text fill="#000000" font-family="sans-serif" font-size="14" lengthAdjust="spacing" textLength="55" x="1080.5" y="112.432">Package</text><line style="stroke:#181818;stroke-width:0.5;" x1="1052.5" x2="1137.5" y1="123" y2="123"/><line style="stroke:#181818;stroke-width:0.5;" x1="1052.5" x2="1137.5" y1="131" y2="131"/></g><!--reverse link PresenceType to AIPackage--><g id="link_PresenceType_AIPackage"><path codeLine="63" d="M979.39,498.69 C979.9,558.67 990.25,694.38 1069,763 C1133.46,819.16 1203.33,728.12 1259,793 C1276.91,813.87 1287.5,1040.5 1260,1040.5 " fill="none" id="PresenceType-backto-AIPackage" style="stroke:#181818;stroke-width:4.0;stroke-dasharray:7.0,7.0;"/><polygon fill="#181818" points="979.37,493.96,975.3957,502.9714,979.3843,498.96,983.3957,502.9485,979.37,493.96" style="stroke:#181818;stroke-width:4.0;"/></g><!--reverse link PresenceType to AIPackage--><g id="link_PresenceType_AIPackage"><path codeLine="65" d="M954.33,496.83 C907.53,549.69 809.83,670.34 774,793 C714.62,996.28 561.22,1269.5 773,1269.5 " fill="none" id="PresenceType-backto-AIPackage-1" style="stroke:#181818;stroke-width:4.0;stroke-dasharray:7.0,7.0;"/><polygon fill="#181818" points="957.42,493.36,948.4424,497.4101,954.0902,497.0899,954.4103,502.7377,957.42,493.36" style="stroke:#181818;stroke-width:4.0;"/></g><!--reverse link SafetyRiskAssessmentType to AIPackage--><g id="link_SafetyRiskAssessmentType_AIPackage"><path codeLine="64" d="M392.26,658.69 C421.19,890 508.67,1250.5 773,1250.5 " fill="none" id="SafetyRiskAssessmentType-backto-AIPackage" style="stroke:#181818;stroke-width:4.0;stroke-dasharray:7.0,7.0;"/><polygon fill="#181818" points="391.65,653.73,388.7872,663.1536,392.2649,658.692,396.7264,662.1698,391.65,653.73" style="stroke:#181818;stroke-width:4.0;"/></g><!--reverse link Package to AIPackage--><g id="link_Package_AIPackage"><path codeLine="67" d="M1095.89,160.81 C1097.46,266.21 1098.45,537.91 1073,763 C1071.87,772.96 1070.59,783.09 1069.19,793.3 " fill="none" id="Package-backto-AIPackage" style="stroke:#181818;stroke-width:4.0;"/><polygon fill="none" points="1088.89,160.94,1095.55,140.82,1102.89,160.7,1088.89,160.94" style="stroke:#181818;stroke-width:4.0;"/><text fill="#000000" font-family="sans-serif" font-size="13" lengthAdjust="spacing" textLength="109" x="1081" y="696.897">Software:Package</text></g><!--SRC=[lLPDR-D63BtFho1yQGiaahDecy985p2yEHXeki4wjo27aKH90qipmd1ahx7DVr_EI9OLhnC71LfVh0_oaO-Fv8ZMIZVIoXeQcQvbWIktgn0ifaxgea91w83GcpXZGHkDuYVOc5GcRINjJg1kQrYX9kNK1k_Haj6oMkhSs5ewPVJ3ha7u9cwIZwkshjdb9au-YeLqM1YhaC3aq5War2a2Xv19kFGEdv1IgngF4fmUIaNWF1x_juGPE0DAPofbD50vI2Wu2GsvmYhpHXsm6t3zbMZrMfkj5b44_2Ja44K2-CSnjV6XPh3iOMcVaC_JbTXX7wmb4TfzXZFeKaxOJHiOtaKC1uQzBMoDpUW2-Xo6i3kauxY7eem3F_SLbpcwtHT5wpa78QgPoNigJS4FB3k2gbbpvv_AfgbyL4uL54Oik5McvJHBLPGNeiPCjVK5L6ORdTBbGDhdcQayH-jhFGuMPDl8gWrMqa4gDIIubr5aFKQ063lsxETB89ExhRHuMZYVQbV21u-0gT5Po1_9GOKRh3nKW6oC3vhiZe5PiBw1afrudBDqAS_2Xwbtl5t05oouvqEH_ZRY-lVVuW_JwHzFFvVEDJIBOqmZRArf9F_5cKd96bFxYzQhG_7LzTNqEfREoRJidyJEIaqTACMeOwvRfhgx9ij_6TXnwJjoVvbjpAtL2KZ0B9rKckaeVKndSExqEnJ7bSg-LfjH2U2j4eZ_lGHzKnved2OGckj5PN8__ITr5Z-I737Squjl5_ynmsVUgMdbrmK9PmeCc-AR28yuyVjkDVyus_VMR1HF3ei_x5lULwPrXur1eyxeTpol5fEh2ayEynqwcKadNs2E9rPcMRTvvO37DyFyij5yASORXSlF5GXIS0wroR2A_0pN-qZz42yrEVQGYQeKJ_yC5aQd5Xs6jwis2VNudFERLQ_ah2zDiD2oHdutrCl7OAQDty4lLeLidT6cteM5sVNJVRzimwF7QHHTFUsjVOhycf5INhHA5ok73VL-NocR4QyYNHnxcPefdxOQZ52ZBNPCazewA70EjUJqR3YlkIoMpi2F59pxffYFH3aJwDZrmGlepSxuLQfMhklqCyan0wlITrfzmbIH_vWeMQVI-Au-u-UxxFPhKt7QVKFTOLfAhQW-gnsTE5nxdrVFtIE4Dpw8pdSSZu7E97ydB4pDYad_4V0sNN-wVixlFEdNB9_5P1no0ZUNZvca4hCBFW_IjMOsV_xwT7a9as62PhFng4p4v3NwxqGxLTZ9lyhhhG9F0jVEak7-kNny2JH6cfnO9jy1]--></g></svg>