<?xml version="1.0" encoding="us-ascii" standalone="no"?><svg xmlns="http://www.w3.org/2000/svg" xmlns:xlink="http://www.w3.org/1999/xlink" contentStyleType="text/css" height="1122px" preserveAspectRatio="none" style="width:1501px;height:1122px;background:#FFFFFF;" version="1.1" viewBox="0 0 1501 1122" width="1501px" zoomAndPan="magnify"><defs/><g><!--class SensitivePersonalInformationType--><g id="elem_SensitivePersonalInformationType"><rect codeLine="2" fill="#F1F1F1" height="215.6113" id="SensitivePersonalInformationType" rx="2.5" ry="2.5" style="stroke:#181818;stroke-width:0.5;" width="441" x="7" y="173"/><ellipse cx="110.25" cy="189" fill="#EB937F" rx="11" ry="11" style="stroke:#181818;stroke-width:1.0;"/><path d="M106.6406,183.1094 L114.3594,183.1094 L114.3594,185.2656 L109.0938,185.2656 L109.0938,187.9375 L113.8594,187.9375 L113.8594,190.0938 L109.0938,190.0938 L109.0938,193.3438 L114.3594,193.3438 L114.3594,195.5 L106.6406,195.5 L106.6406,183.1094 Z " fill="#000000"/><text fill="#000000" font-family="sans-serif" font-size="14" lengthAdjust="spacing" textLength="226" x="130.75" y="194.432">SensitivePersonalInformationType</text><line style="stroke:#181818;stroke-width:0.5;" x1="8" x2="447" y1="205" y2="205"/><text fill="#000000" font-family="sans-serif" font-size="14" font-weight="bold" lengthAdjust="spacing" textLength="68" x="13" y="223.9659">Summary</text><text fill="#000000" font-family="sans-serif" font-size="14" lengthAdjust="spacing" textLength="228" x="13" y="243.0339">Categories of presence or absence</text><text fill="#000000" font-family="sans-serif" font-size="14" font-weight="bold" lengthAdjust="spacing" textLength="83" x="13" y="262.1018">Description</text><text fill="#000000" font-family="sans-serif" font-size="14" lengthAdjust="spacing" textLength="429" x="13" y="281.1697">This type is used to indicate if a given field is present or absent or</text><text fill="#000000" font-family="sans-serif" font-size="14" lengthAdjust="spacing" textLength="59" x="13" y="300.2376">unknown</text><text fill="#000000" font-family="sans-serif" font-size="14" lengthAdjust="spacing" textLength="221" x="13" y="342.3734">no : Indicates absence of the field</text><text fill="#000000" font-family="sans-serif" font-size="14" lengthAdjust="spacing" textLength="413" x="13" y="361.4414">noassertion : Describes no assertion. In other words, unknown.</text><text fill="#000000" font-family="sans-serif" font-size="14" lengthAdjust="spacing" textLength="231" x="13" y="380.5093">yes : Indicates presence of the field</text><line style="stroke:#181818;stroke-width:1.0;stroke-dasharray:1.0,2.0;" x1="8" x2="205" y1="317.8735" y2="317.8735"/><text fill="#000000" font-family="sans-serif" font-size="14" lengthAdjust="spacing" textLength="45" x="205" y="322.8055">entries</text><line style="stroke:#181818;stroke-width:1.0;stroke-dasharray:1.0,2.0;" x1="250" x2="447" y1="317.8735" y2="317.8735"/></g><!--class SafetyRiskAssessmentType--><g id="elem_SafetyRiskAssessmentType"><rect codeLine="13" fill="#F1F1F1" height="330.0188" id="SafetyRiskAssessmentType" rx="2.5" ry="2.5" style="stroke:#181818;stroke-width:0.5;" width="512" x="982.5" y="116"/><ellipse cx="1144.25" cy="132" fill="#EB937F" rx="11" ry="11" style="stroke:#181818;stroke-width:1.0;"/><path d="M1140.6406,126.1094 L1148.3594,126.1094 L1148.3594,128.2656 L1143.0938,128.2656 L1143.0938,130.9375 L1147.8594,130.9375 L1147.8594,133.0938 L1143.0938,133.0938 L1143.0938,136.3438 L1148.3594,136.3438 L1148.3594,138.5 L1140.6406,138.5 L1140.6406,126.1094 Z " fill="#000000"/><text fill="#000000" font-family="sans-serif" font-size="14" lengthAdjust="spacing" textLength="180" x="1164.75" y="137.432">SafetyRiskAssessmentType</text><line style="stroke:#181818;stroke-width:0.5;" x1="983.5" x2="1493.5" y1="148" y2="148"/><text fill="#000000" font-family="sans-serif" font-size="14" font-weight="bold" lengthAdjust="spacing" textLength="68" x="988.5" y="166.9659">Summary</text><text fill="#000000" font-family="sans-serif" font-size="14" lengthAdjust="spacing" textLength="411" x="988.5" y="186.0339">Categories of safety risk impact of application ie. Serious, high,</text><text fill="#000000" font-family="sans-serif" font-size="14" lengthAdjust="spacing" textLength="80" x="988.5" y="205.1018">medium low</text><text fill="#000000" font-family="sans-serif" font-size="14" font-weight="bold" lengthAdjust="spacing" textLength="83" x="988.5" y="224.1697">Description</text><text fill="#000000" font-family="sans-serif" font-size="14" lengthAdjust="spacing" textLength="432" x="988.5" y="243.2376">Describes the different safety risk type values that can be used to</text><text fill="#000000" font-family="sans-serif" font-size="14" lengthAdjust="spacing" textLength="276" x="988.5" y="262.3055">describe the safety risk of the AI software</text><text fill="#000000" font-family="sans-serif" font-size="14" lengthAdjust="spacing" textLength="489" x="988.5" y="304.4414">high : The second highest level of risk posed by the AI software as given by</text><text fill="#000000" font-family="sans-serif" font-size="14" lengthAdjust="spacing" textLength="266" x="988.5" y="323.5093">Article 20 of EC Regulation No 765/2008.</text><text fill="#000000" font-family="sans-serif" font-size="14" lengthAdjust="spacing" textLength="318" x="988.5" y="342.5772">low : Low/no risk is contained in the AI software.</text><text fill="#000000" font-family="sans-serif" font-size="14" lengthAdjust="spacing" textLength="432" x="988.5" y="361.6451">medium : The third highest level of risk as given by Article 20 of EC</text><text fill="#000000" font-family="sans-serif" font-size="14" lengthAdjust="spacing" textLength="70" x="988.5" y="380.713">Regulation</text><text fill="#000000" font-family="sans-serif" font-size="14" lengthAdjust="spacing" textLength="88" x="988.5" y="399.7809">No 765/2008.</text><text fill="#000000" font-family="sans-serif" font-size="14" lengthAdjust="spacing" textLength="500" x="988.5" y="418.8489">serious : The highest level of risk that is contained for a AI software as given</text><text fill="#000000" font-family="sans-serif" font-size="14" lengthAdjust="spacing" textLength="259" x="988.5" y="437.9168">by Article 20 of Regulation 765/2008/EC</text><line style="stroke:#181818;stroke-width:1.0;stroke-dasharray:1.0,2.0;" x1="983.5" x2="1216" y1="279.9415" y2="279.9415"/><text fill="#000000" font-family="sans-serif" font-size="14" lengthAdjust="spacing" textLength="45" x="1216" y="284.8734">entries</text><line style="stroke:#181818;stroke-width:1.0;stroke-dasharray:1.0,2.0;" x1="1261" x2="1493.5" y1="279.9415" y2="279.9415"/></g><!--class AIPackage--><g id="elem_AIPackage"><rect codeLine="32" fill="#F1F1F1" height="524.6979" id="AIPackage" rx="2.5" ry="2.5" style="stroke:#181818;stroke-width:0.5;" width="485" x="473" y="591"/><ellipse cx="676.75" cy="607" fill="#ADD1B2" rx="11" ry="11" style="stroke:#181818;stroke-width:1.0;"/><path d="M676.5469,613.7344 Q674.0625,613.7344 672.7344,612.0938 Q671.4219,610.4219 671.4219,607.3125 Q671.4219,604.1875 672.7344,602.5313 Q674.0625,600.875 676.5469,600.875 Q677.2656,600.875 677.9219,601.0313 Q678.5625,601.1875 679.125,601.4844 L679.125,604.2031 Q678.7656,603.8594 678.4688,603.6719 Q678.1719,603.4688 677.9063,603.3438 Q677.5938,603.2031 677.2813,603.1406 Q676.9844,603.0781 676.6719,603.0781 Q675.3438,603.0781 674.6563,604.1406 Q673.9688,605.2344 673.9688,607.3125 Q673.9688,609.4063 674.6563,610.4688 Q675.3438,611.5469 676.6719,611.5469 Q677.3125,611.5469 677.9063,611.2656 Q678.2031,611.1406 678.4844,610.9531 Q678.7813,610.75 679.125,610.4219 L679.125,613.1406 Q678.5469,613.4375 677.9063,613.5938 Q677.2656,613.7344 676.5469,613.7344 Z " fill="#000000"/><text fill="#000000" font-family="sans-serif" font-size="14" lengthAdjust="spacing" textLength="69" x="697.25" y="612.432">AIPackage</text><line style="stroke:#181818;stroke-width:0.5;" x1="474" x2="957" y1="623" y2="623"/><text fill="#000000" font-family="sans-serif" font-size="14" font-weight="bold" lengthAdjust="spacing" textLength="68" x="479" y="641.9659">Summary</text><text fill="#000000" font-family="sans-serif" font-size="14" lengthAdjust="spacing" textLength="60" x="479" y="661.0339">MISSING</text><text fill="#000000" font-family="sans-serif" font-size="14" font-weight="bold" lengthAdjust="spacing" textLength="83" x="479" y="680.1018">Description</text><text fill="#000000" font-family="sans-serif" font-size="14" lengthAdjust="spacing" textLength="473" x="479" y="699.1697">Metadata information that can be added to a package to describe an AI</text><text fill="#000000" font-family="sans-serif" font-size="14" lengthAdjust="spacing" textLength="205" x="479" y="718.2376">application or trained AI model.</text><text fill="#000000" font-family="sans-serif" font-size="14" lengthAdjust="spacing" textLength="160" x="479" y="760.3734">Instantiability : Concrete</text><text fill="#000000" font-family="sans-serif" font-size="14" lengthAdjust="spacing" textLength="201" x="479" y="779.4414">SubclassOf : Software:Package</text><text fill="#000000" font-family="sans-serif" font-size="14" lengthAdjust="spacing" textLength="117" x="479" y="798.5093">name : AIPackage</text><line style="stroke:#181818;stroke-width:1.0;stroke-dasharray:1.0,2.0;" x1="474" x2="683" y1="735.8735" y2="735.8735"/><text fill="#000000" font-family="sans-serif" font-size="14" lengthAdjust="spacing" textLength="65" x="683" y="740.8055">metadata</text><line style="stroke:#181818;stroke-width:1.0;stroke-dasharray:1.0,2.0;" x1="748" x2="957" y1="735.8735" y2="735.8735"/><text fill="#000000" font-family="sans-serif" font-size="14" lengthAdjust="spacing" textLength="238" x="479" y="840.6451">autonomyType : PresenceType [0..1]</text><text fill="#000000" font-family="sans-serif" font-size="14" lengthAdjust="spacing" textLength="267" x="479" y="859.713">dataPreprocessingSteps : xsd:string [0..1]</text><text fill="#000000" font-family="sans-serif" font-size="14" lengthAdjust="spacing" textLength="149" x="479" y="878.7809">domain : xsd:string [0..]</text><text fill="#000000" font-family="sans-serif" font-size="14" lengthAdjust="spacing" textLength="240" x="479" y="897.8489">energyConsumption : xsd:string [0..1]</text><text fill="#000000" font-family="sans-serif" font-size="14" lengthAdjust="spacing" textLength="212" x="479" y="916.9168">hyperparameters : xsd:string [0..]</text><text fill="#000000" font-family="sans-serif" font-size="14" lengthAdjust="spacing" textLength="297" x="479" y="935.9847">informationAboutApplication : xsd:string [0..1]</text><text fill="#000000" font-family="sans-serif" font-size="14" lengthAdjust="spacing" textLength="277" x="479" y="955.0526">informationAboutTraining : xsd:string [0..1]</text><text fill="#000000" font-family="sans-serif" font-size="14" lengthAdjust="spacing" textLength="169" x="479" y="974.1205">limitations : xsd:string [0..]</text><text fill="#000000" font-family="sans-serif" font-size="14" lengthAdjust="spacing" textLength="149" x="479" y="993.1884">metrics : xsd:string [0..]</text><text fill="#000000" font-family="sans-serif" font-size="14" lengthAdjust="spacing" textLength="277" x="479" y="1012.2564">metricsDecisionThresholds : xsd:string [0..]</text><text fill="#000000" font-family="sans-serif" font-size="14" lengthAdjust="spacing" textLength="314" x="479" y="1031.3243">modelExplainabilityMechanisms : xsd:string [0..1]</text><text fill="#000000" font-family="sans-serif" font-size="14" lengthAdjust="spacing" textLength="373" x="479" y="1050.3922">safetyRiskAssessment : SafetyRiskAssessmentType [0..1]</text><text fill="#000000" font-family="sans-serif" font-size="14" lengthAdjust="spacing" textLength="465" x="479" y="1069.4601">sensitivePersonalInformation : SensitivePersonalInformationType [0..1]</text><text fill="#000000" font-family="sans-serif" font-size="14" lengthAdjust="spacing" textLength="241" x="479" y="1088.528">standardsCompliance : xsd:string [0..]</text><text fill="#000000" font-family="sans-serif" font-size="14" lengthAdjust="spacing" textLength="186" x="479" y="1107.5959">typeOfModel : xsd:string [0..]</text><line style="stroke:#181818;stroke-width:1.0;stroke-dasharray:1.0,2.0;" x1="474" x2="682" y1="816.1452" y2="816.1452"/><text fill="#000000" font-family="sans-serif" font-size="14" lengthAdjust="spacing" textLength="67" x="682" y="821.0772">properties</text><line style="stroke:#181818;stroke-width:1.0;stroke-dasharray:1.0,2.0;" x1="749" x2="957" y1="816.1452" y2="816.1452"/></g><!--class PresenceType--><g id="elem_PresenceType"><rect fill="#F1F1F1" height="48" id="PresenceType" rx="2.5" ry="2.5" style="stroke:#181818;stroke-width:0.5;" width="124" x="580.5" y="257"/><ellipse cx="595.5" cy="273" fill="#ADD1B2" rx="11" ry="11" style="stroke:#181818;stroke-width:1.0;"/><path d="M595.2969,279.7344 Q592.8125,279.7344 591.4844,278.0938 Q590.1719,276.4219 590.1719,273.3125 Q590.1719,270.1875 591.4844,268.5313 Q592.8125,266.875 595.2969,266.875 Q596.0156,266.875 596.6719,267.0313 Q597.3125,267.1875 597.875,267.4844 L597.875,270.2031 Q597.5156,269.8594 597.2188,269.6719 Q596.9219,269.4688 596.6563,269.3438 Q596.3438,269.2031 596.0313,269.1406 Q595.7344,269.0781 595.4219,269.0781 Q594.0938,269.0781 593.4063,270.1406 Q592.7188,271.2344 592.7188,273.3125 Q592.7188,275.4063 593.4063,276.4688 Q594.0938,277.5469 595.4219,277.5469 Q596.0625,277.5469 596.6563,277.2656 Q596.9531,277.1406 597.2344,276.9531 Q597.5313,276.75 597.875,276.4219 L597.875,279.1406 Q597.2969,279.4375 596.6563,279.5938 Q596.0156,279.7344 595.2969,279.7344 Z " fill="#000000"/><text fill="#000000" font-family="sans-serif" font-size="14" lengthAdjust="spacing" textLength="92" x="609.5" y="278.432">PresenceType</text><line style="stroke:#181818;stroke-width:0.5;" x1="581.5" x2="703.5" y1="289" y2="289"/><line style="stroke:#181818;stroke-width:0.5;" x1="581.5" x2="703.5" y1="297" y2="297"/></g><!--class Package--><g id="elem_Package"><rect fill="#F1F1F1" height="48" id="Package" rx="2.5" ry="2.5" style="stroke:#181818;stroke-width:0.5;" width="87" x="714" y="7"/><ellipse cx="729" cy="23" fill="#ADD1B2" rx="11" ry="11" style="stroke:#181818;stroke-width:1.0;"/><path d="M728.7969,29.7344 Q726.3125,29.7344 724.9844,28.0938 Q723.6719,26.4219 723.6719,23.3125 Q723.6719,20.1875 724.9844,18.5313 Q726.3125,16.875 728.7969,16.875 Q729.5156,16.875 730.1719,17.0313 Q730.8125,17.1875 731.375,17.4844 L731.375,20.2031 Q731.0156,19.8594 730.7188,19.6719 Q730.4219,19.4688 730.1563,19.3438 Q729.8438,19.2031 729.5313,19.1406 Q729.2344,19.0781 728.9219,19.0781 Q727.5938,19.0781 726.9063,20.1406 Q726.2188,21.2344 726.2188,23.3125 Q726.2188,25.4063 726.9063,26.4688 Q727.5938,27.5469 728.9219,27.5469 Q729.5625,27.5469 730.1563,27.2656 Q730.4531,27.1406 730.7344,26.9531 Q731.0313,26.75 731.375,26.4219 L731.375,29.1406 Q730.7969,29.4375 730.1563,29.5938 Q729.5156,29.7344 728.7969,29.7344 Z " fill="#000000"/><text fill="#000000" font-family="sans-serif" font-size="14" lengthAdjust="spacing" textLength="55" x="743" y="28.432">Package</text><line style="stroke:#181818;stroke-width:0.5;" x1="715" x2="800" y1="39" y2="39"/><line style="stroke:#181818;stroke-width:0.5;" x1="715" x2="800" y1="47" y2="47"/></g><!--reverse link PresenceType to AIPackage--><g id="link_PresenceType_AIPackage"><path codeLine="59" d="M621.11,310.55 C537.89,423.69 250.96,834.5 472.5,834.5 " fill="none" id="PresenceType-backto-AIPackage" style="stroke:#181818;stroke-width:4.0;stroke-dasharray:7.0,7.0;"/><polygon fill="#181818" points="624.02,306.61,615.4586,311.4786,621.0521,310.6338,621.8968,316.2273,624.02,306.61" style="stroke:#181818;stroke-width:4.0;"/></g><!--reverse link SafetyRiskAssessmentType to AIPackage--><g id="link_SafetyRiskAssessmentType_AIPackage"><path codeLine="60" d="M1246.46,452.32 C1247.16,677.06 1210,1044.5 959.5,1044.5 " fill="none" id="SafetyRiskAssessmentType-backto-AIPackage" style="stroke:#181818;stroke-width:4.0;stroke-dasharray:7.0,7.0;"/><polygon fill="#181818" points="1246.44,447.56,1242.4915,456.5827,1246.4686,452.5599,1250.4914,456.537,1246.44,447.56" style="stroke:#181818;stroke-width:4.0;"/></g><!--reverse link SensitivePersonalInformationType to AIPackage--><g id="link_SensitivePersonalInformationType_AIPackage"><path codeLine="61" d="M215.23,395.78 C198.2,612.58 196,1063.5 472.5,1063.5 " fill="none" id="SensitivePersonalInformationType-backto-AIPackage" style="stroke:#181818;stroke-width:4.0;stroke-dasharray:7.0,7.0;"/><polygon fill="#181818" points="215.62,390.94,210.9111,399.5902,215.219,395.9239,218.8853,400.2318,215.62,390.94" style="stroke:#181818;stroke-width:4.0;"/></g><!--reverse link Package to AIPackage--><g id="link_Package_AIPackage"><path codeLine="63" d="M755.22,76.41 C750.34,171.68 738.53,402.08 729.05,587.08 " fill="none" id="Package-backto-AIPackage" style="stroke:#181818;stroke-width:4.0;"/><polygon fill="none" points="748.22,76.33,756.23,56.72,762.2,77.05,748.22,76.33" style="stroke:#181818;stroke-width:4.0;"/><text fill="#000000" font-family="sans-serif" font-size="13" lengthAdjust="spacing" textLength="109" x="735.5" y="490.897">Software:Package</text></g><!--SRC=[ZLLDJzj04BtlhnZbmWKCHVrIH94YgAf8fKM46-fXxHtRgzYxrkwQD6hvxvrPEy60NSWbYNVUcpSpRyS7S6ypcRQLT5k1fgrXXSRheE_n6fstHbPBarjNow2jkTqs27_4MNg-QkkQ86V7wRcua04BwpHwi3aq3ZsQ3C4wa6dyoO1Bz9dJ3RD4q6sfFGJce-_Meu9WGHkbCs83dOE4WaGOo3LMYeCwuh3dvL-YDMjZDqOa2T2Jg2591D37M9Z3iYVqEociC9JOiVPnqdjqB8m0dSoK08JV7oH419Pm3ZRMANy8VTukrPR2XxaUMp1Czj3tL-OOjZVQhnT4xtrDkj_ILnznu0W8kcva5lYfR9gAix9wZGbDpsdRai1I5-MXg55fobdPpTWC7ejbbKhdEJhkwp1L7D6zhDeO9GDaqa2Akv49rND4YY6mhtsn16_pi94EHuR4Agbrjup5p1eLdw0FKE4zLamIoHhBwTBjSqeQKM-JT2iMDAkiGZWzOTpN2xZ1WemTU_F3mgUF7uvFJqu-Tvcf9PJukzqSqw2xfdeW1K5gGwcqUPwgW_KDxII7KhifnGDXy5oO60W3yKAQxsRO9ncdZwDueZZdUp7Q6_52mY3_BlKnoNeG1v1Lx7elWYqm6lwFY8-8-LfcQrcC6FLgkLejVtmRizWL1gbaaDJG_HPvuYEfL7Vt9JGzF_tPkug25ainT3cL6LnNCXLRMuLLmiwgTvbwQosD3z84BLDTQJBb72wioHm6ZCUhDerr_SpfPDMtRDwNs2q6MIETxUlc98sp3Q-4HmVBDbXZwssymdEuxgz-_7jtaYJlViKmLaPdXC_epcjJh08sFEBVNiqztGbJF0ctDPNuyhWxHOEks58vlgsRVd6DyvGampNIKIc1rlaKuM0uYzIsOJ7eznJrSymj3uLZfW2LhdM8yPCwIANJsMl7bvXfps-ZaffTsafD0zWTNtyt5KdhVN25MIcDzlLqy_t8XcQJJ2tk8VG_Bq-cUEtTEgGYzof9BviBMzCq9BzF9iha7Vqpl-9Ynq8Un6neoncS7TqfwKjKXxJ1ihMXOhwy_tLq1BEzsUVpeR5dOZPL_HlPndhAhAyqvAti_w6PnVgxIABxUtJtb6Z8D1lP1Vy0]--></g></svg>