<?xml version="1.0" encoding="us-ascii" standalone="no"?><svg xmlns="http://www.w3.org/2000/svg" xmlns:xlink="http://www.w3.org/1999/xlink" contentStyleType="text/css" height="1122px" preserveAspectRatio="none" style="width:1521px;height:1122px;background:#FFFFFF;" version="1.1" viewBox="0 0 1521 1122" width="1521px" zoomAndPan="magnify"><defs/><g><!--class SensitivePersonalInformationType--><g id="elem_SensitivePersonalInformationType"><rect codeLine="4" fill="#F1F1F1" height="215.6113" id="SensitivePersonalInformationType" rx="2.5" ry="2.5" style="stroke:#181818;stroke-width:0.5;" width="441" x="7" y="173"/><ellipse cx="110.25" cy="189" fill="#EB937F" rx="11" ry="11" style="stroke:#181818;stroke-width:1.0;"/><path d="M106.6406,183.1094 L114.3594,183.1094 L114.3594,185.2656 L109.0938,185.2656 L109.0938,187.9375 L113.8594,187.9375 L113.8594,190.0938 L109.0938,190.0938 L109.0938,193.3438 L114.3594,193.3438 L114.3594,195.5 L106.6406,195.5 L106.6406,183.1094 Z " fill="#000000"/><text fill="#000000" font-family="sans-serif" font-size="14" lengthAdjust="spacing" textLength="226" x="130.75" y="194.432">SensitivePersonalInformationType</text><line style="stroke:#181818;stroke-width:0.5;" x1="8" x2="447" y1="205" y2="205"/><text fill="#000000" font-family="sans-serif" font-size="14" font-weight="bold" lengthAdjust="spacing" textLength="68" x="13" y="223.9659">Summary</text><text fill="#000000" font-family="sans-serif" font-size="14" lengthAdjust="spacing" textLength="228" x="13" y="243.0339">Categories of presence or absence</text><text fill="#000000" font-family="sans-serif" font-size="14" font-weight="bold" lengthAdjust="spacing" textLength="83" x="13" y="262.1018">Description</text><text fill="#000000" font-family="sans-serif" font-size="14" lengthAdjust="spacing" textLength="429" x="13" y="281.1697">This type is used to indicate if a given field is present or absent or</text><text fill="#000000" font-family="sans-serif" font-size="14" lengthAdjust="spacing" textLength="59" x="13" y="300.2376">unknown</text><text fill="#000000" font-family="sans-serif" font-size="14" font-weight="bold" lengthAdjust="spacing" textLength="18" x="13" y="342.3734">no</text><text fill="#000000" font-family="sans-serif" font-size="14" lengthAdjust="spacing" textLength="200" x="31" y="342.3734">: Indicates absence of the field</text><text fill="#000000" font-family="sans-serif" font-size="14" font-weight="bold" lengthAdjust="spacing" textLength="87" x="13" y="361.4414">noassertion</text><text fill="#000000" font-family="sans-serif" font-size="14" lengthAdjust="spacing" textLength="331" x="100" y="361.4414">: Describes no assertion. In other words, unknown.</text><text fill="#000000" font-family="sans-serif" font-size="14" font-weight="bold" lengthAdjust="spacing" textLength="25" x="13" y="380.5093">yes</text><text fill="#000000" font-family="sans-serif" font-size="14" lengthAdjust="spacing" textLength="205" x="38" y="380.5093">: Indicates presence of the field</text><line style="stroke:#181818;stroke-width:1.0;stroke-dasharray:1.0,2.0;" x1="8" x2="205" y1="317.8735" y2="317.8735"/><text fill="#000000" font-family="sans-serif" font-size="14" lengthAdjust="spacing" textLength="45" x="205" y="322.8055">entries</text><line style="stroke:#181818;stroke-width:1.0;stroke-dasharray:1.0,2.0;" x1="250" x2="447" y1="317.8735" y2="317.8735"/></g><!--class SafetyRiskAssessmentType--><g id="elem_SafetyRiskAssessmentType"><rect codeLine="15" fill="#F1F1F1" height="330.0188" id="SafetyRiskAssessmentType" rx="2.5" ry="2.5" style="stroke:#181818;stroke-width:0.5;" width="514" x="1000.5" y="116"/><ellipse cx="1163.25" cy="132" fill="#EB937F" rx="11" ry="11" style="stroke:#181818;stroke-width:1.0;"/><path d="M1159.6406,126.1094 L1167.3594,126.1094 L1167.3594,128.2656 L1162.0938,128.2656 L1162.0938,130.9375 L1166.8594,130.9375 L1166.8594,133.0938 L1162.0938,133.0938 L1162.0938,136.3438 L1167.3594,136.3438 L1167.3594,138.5 L1159.6406,138.5 L1159.6406,126.1094 Z " fill="#000000"/><text fill="#000000" font-family="sans-serif" font-size="14" lengthAdjust="spacing" textLength="180" x="1183.75" y="137.432">SafetyRiskAssessmentType</text><line style="stroke:#181818;stroke-width:0.5;" x1="1001.5" x2="1513.5" y1="148" y2="148"/><text fill="#000000" font-family="sans-serif" font-size="14" font-weight="bold" lengthAdjust="spacing" textLength="68" x="1006.5" y="166.9659">Summary</text><text fill="#000000" font-family="sans-serif" font-size="14" lengthAdjust="spacing" textLength="411" x="1006.5" y="186.0339">Categories of safety risk impact of application ie. Serious, high,</text><text fill="#000000" font-family="sans-serif" font-size="14" lengthAdjust="spacing" textLength="80" x="1006.5" y="205.1018">medium low</text><text fill="#000000" font-family="sans-serif" font-size="14" font-weight="bold" lengthAdjust="spacing" textLength="83" x="1006.5" y="224.1697">Description</text><text fill="#000000" font-family="sans-serif" font-size="14" lengthAdjust="spacing" textLength="432" x="1006.5" y="243.2376">Describes the different safety risk type values that can be used to</text><text fill="#000000" font-family="sans-serif" font-size="14" lengthAdjust="spacing" textLength="276" x="1006.5" y="262.3055">describe the safety risk of the AI software</text><text fill="#000000" font-family="sans-serif" font-size="14" font-weight="bold" lengthAdjust="spacing" textLength="31" x="1006.5" y="304.4414">high</text><text fill="#000000" font-family="sans-serif" font-size="14" lengthAdjust="spacing" textLength="458" x="1037.5" y="304.4414">: The second highest level of risk posed by the AI software as given by</text><text fill="#000000" font-family="sans-serif" font-size="14" lengthAdjust="spacing" textLength="266" x="1006.5" y="323.5093">Article 20 of EC Regulation No 765/2008.</text><text fill="#000000" font-family="sans-serif" font-size="14" font-weight="bold" lengthAdjust="spacing" textLength="25" x="1006.5" y="342.5772">low</text><text fill="#000000" font-family="sans-serif" font-size="14" lengthAdjust="spacing" textLength="291" x="1031.5" y="342.5772">: Low/no risk is contained in the AI software.</text><text fill="#000000" font-family="sans-serif" font-size="14" font-weight="bold" lengthAdjust="spacing" textLength="59" x="1006.5" y="361.6451">medium</text><text fill="#000000" font-family="sans-serif" font-size="14" lengthAdjust="spacing" textLength="375" x="1065.5" y="361.6451">: The third highest level of risk as given by Article 20 of EC</text><text fill="#000000" font-family="sans-serif" font-size="14" lengthAdjust="spacing" textLength="70" x="1006.5" y="380.713">Regulation</text><text fill="#000000" font-family="sans-serif" font-size="14" lengthAdjust="spacing" textLength="88" x="1006.5" y="399.7809">No 765/2008.</text><text fill="#000000" font-family="sans-serif" font-size="14" font-weight="bold" lengthAdjust="spacing" textLength="53" x="1006.5" y="418.8489">serious</text><text fill="#000000" font-family="sans-serif" font-size="14" lengthAdjust="spacing" textLength="449" x="1059.5" y="418.8489">: The highest level of risk that is contained for a AI software as given</text><text fill="#000000" font-family="sans-serif" font-size="14" lengthAdjust="spacing" textLength="259" x="1006.5" y="437.9168">by Article 20 of Regulation 765/2008/EC</text><line style="stroke:#181818;stroke-width:1.0;stroke-dasharray:1.0,2.0;" x1="1001.5" x2="1235" y1="279.9415" y2="279.9415"/><text fill="#000000" font-family="sans-serif" font-size="14" lengthAdjust="spacing" textLength="45" x="1235" y="284.8734">entries</text><line style="stroke:#181818;stroke-width:1.0;stroke-dasharray:1.0,2.0;" x1="1280" x2="1513.5" y1="279.9415" y2="279.9415"/></g><!--class AIPackage--><g id="elem_AIPackage"><rect codeLine="34" fill="#F1F1F1" height="524.6979" id="AIPackage" rx="2.5" ry="2.5" style="stroke:#181818;stroke-width:0.5;" width="503" x="473" y="591"/><ellipse cx="685.75" cy="607" fill="#ADD1B2" rx="11" ry="11" style="stroke:#181818;stroke-width:1.0;"/><path d="M685.5469,613.7344 Q683.0625,613.7344 681.7344,612.0938 Q680.4219,610.4219 680.4219,607.3125 Q680.4219,604.1875 681.7344,602.5313 Q683.0625,600.875 685.5469,600.875 Q686.2656,600.875 686.9219,601.0313 Q687.5625,601.1875 688.125,601.4844 L688.125,604.2031 Q687.7656,603.8594 687.4688,603.6719 Q687.1719,603.4688 686.9063,603.3438 Q686.5938,603.2031 686.2813,603.1406 Q685.9844,603.0781 685.6719,603.0781 Q684.3438,603.0781 683.6563,604.1406 Q682.9688,605.2344 682.9688,607.3125 Q682.9688,609.4063 683.6563,610.4688 Q684.3438,611.5469 685.6719,611.5469 Q686.3125,611.5469 686.9063,611.2656 Q687.2031,611.1406 687.4844,610.9531 Q687.7813,610.75 688.125,610.4219 L688.125,613.1406 Q687.5469,613.4375 686.9063,613.5938 Q686.2656,613.7344 685.5469,613.7344 Z " fill="#000000"/><text fill="#000000" font-family="sans-serif" font-size="14" lengthAdjust="spacing" textLength="69" x="706.25" y="612.432">AIPackage</text><line style="stroke:#181818;stroke-width:0.5;" x1="474" x2="975" y1="623" y2="623"/><text fill="#000000" font-family="sans-serif" font-size="14" font-weight="bold" lengthAdjust="spacing" textLength="68" x="479" y="641.9659">Summary</text><text fill="#000000" font-family="sans-serif" font-size="14" lengthAdjust="spacing" textLength="60" x="479" y="661.0339">MISSING</text><text fill="#000000" font-family="sans-serif" font-size="14" font-weight="bold" lengthAdjust="spacing" textLength="83" x="479" y="680.1018">Description</text><text fill="#000000" font-family="sans-serif" font-size="14" lengthAdjust="spacing" textLength="473" x="479" y="699.1697">Metadata information that can be added to a package to describe an AI</text><text fill="#000000" font-family="sans-serif" font-size="14" lengthAdjust="spacing" textLength="205" x="479" y="718.2376">application or trained AI model.</text><text fill="#000000" font-family="sans-serif" font-size="14" lengthAdjust="spacing" textLength="160" x="479" y="760.3734">Instantiability : Concrete</text><text fill="#000000" font-family="sans-serif" font-size="14" lengthAdjust="spacing" textLength="201" x="479" y="779.4414">SubclassOf : Software:Package</text><text fill="#000000" font-family="sans-serif" font-size="14" lengthAdjust="spacing" textLength="117" x="479" y="798.5093">name : AIPackage</text><line style="stroke:#181818;stroke-width:1.0;stroke-dasharray:1.0,2.0;" x1="474" x2="692" y1="735.8735" y2="735.8735"/><text fill="#000000" font-family="sans-serif" font-size="14" lengthAdjust="spacing" textLength="65" x="692" y="740.8055">metadata</text><line style="stroke:#181818;stroke-width:1.0;stroke-dasharray:1.0,2.0;" x1="757" x2="975" y1="735.8735" y2="735.8735"/><text fill="#000000" font-family="sans-serif" font-size="14" font-weight="bold" lengthAdjust="spacing" textLength="110" x="479" y="840.6451">autonomyType</text><text fill="#000000" font-family="sans-serif" font-size="14" lengthAdjust="spacing" textLength="134" x="593" y="840.6451">: PresenceType [0..1]</text><text fill="#000000" font-family="sans-serif" font-size="14" font-weight="bold" lengthAdjust="spacing" textLength="178" x="479" y="859.713">dataPreprocessingSteps</text><text fill="#000000" font-family="sans-serif" font-size="14" lengthAdjust="spacing" textLength="104" x="661" y="859.713">: xsd:string [0..1]</text><text fill="#000000" font-family="sans-serif" font-size="14" font-weight="bold" lengthAdjust="spacing" textLength="54" x="479" y="878.7809">domain</text><text fill="#000000" font-family="sans-serif" font-size="14" lengthAdjust="spacing" textLength="96" x="537" y="878.7809">: xsd:string [0..]</text><text fill="#000000" font-family="sans-serif" font-size="14" font-weight="bold" lengthAdjust="spacing" textLength="146" x="479" y="897.8489">energyConsumption</text><text fill="#000000" font-family="sans-serif" font-size="14" lengthAdjust="spacing" textLength="104" x="629" y="897.8489">: xsd:string [0..1]</text><text fill="#000000" font-family="sans-serif" font-size="14" font-weight="bold" lengthAdjust="spacing" textLength="127" x="479" y="916.9168">hyperparameters</text><text fill="#000000" font-family="sans-serif" font-size="14" lengthAdjust="spacing" textLength="96" x="610" y="916.9168">: xsd:string [0..]</text><text fill="#000000" font-family="sans-serif" font-size="14" font-weight="bold" lengthAdjust="spacing" textLength="213" x="479" y="935.9847">informationAboutApplication</text><text fill="#000000" font-family="sans-serif" font-size="14" lengthAdjust="spacing" textLength="104" x="696" y="935.9847">: xsd:string [0..1]</text><text fill="#000000" font-family="sans-serif" font-size="14" font-weight="bold" lengthAdjust="spacing" textLength="191" x="479" y="955.0526">informationAboutTraining</text><text fill="#000000" font-family="sans-serif" font-size="14" lengthAdjust="spacing" textLength="104" x="674" y="955.0526">: xsd:string [0..1]</text><text fill="#000000" font-family="sans-serif" font-size="14" font-weight="bold" lengthAdjust="spacing" textLength="79" x="479" y="974.1205">limitations</text><text fill="#000000" font-family="sans-serif" font-size="14" lengthAdjust="spacing" textLength="96" x="562" y="974.1205">: xsd:string [0..]</text><text fill="#000000" font-family="sans-serif" font-size="14" font-weight="bold" lengthAdjust="spacing" textLength="56" x="479" y="993.1884">metrics</text><text fill="#000000" font-family="sans-serif" font-size="14" lengthAdjust="spacing" textLength="96" x="539" y="993.1884">: xsd:string [0..]</text><text fill="#000000" font-family="sans-serif" font-size="14" font-weight="bold" lengthAdjust="spacing" textLength="198" x="479" y="1012.2564">metricsDecisionThresholds</text><text fill="#000000" font-family="sans-serif" font-size="14" lengthAdjust="spacing" textLength="96" x="681" y="1012.2564">: xsd:string [0..]</text><text fill="#000000" font-family="sans-serif" font-size="14" font-weight="bold" lengthAdjust="spacing" textLength="232" x="479" y="1031.3243">modelExplainabilityMechanisms</text><text fill="#000000" font-family="sans-serif" font-size="14" lengthAdjust="spacing" textLength="104" x="715" y="1031.3243">: xsd:string [0..1]</text><text fill="#000000" font-family="sans-serif" font-size="14" font-weight="bold" lengthAdjust="spacing" textLength="168" x="479" y="1050.3922">safetyRiskAssessment</text><text fill="#000000" font-family="sans-serif" font-size="14" lengthAdjust="spacing" textLength="222" x="651" y="1050.3922">: SafetyRiskAssessmentType [0..1]</text><text fill="#000000" font-family="sans-serif" font-size="14" font-weight="bold" lengthAdjust="spacing" textLength="219" x="479" y="1069.4601">sensitivePersonalInformation</text><text fill="#000000" font-family="sans-serif" font-size="14" lengthAdjust="spacing" textLength="268" x="702" y="1069.4601">: SensitivePersonalInformationType [0..1]</text><text fill="#000000" font-family="sans-serif" font-size="14" font-weight="bold" lengthAdjust="spacing" textLength="158" x="479" y="1088.528">standardsCompliance</text><text fill="#000000" font-family="sans-serif" font-size="14" lengthAdjust="spacing" textLength="96" x="641" y="1088.528">: xsd:string [0..]</text><text fill="#000000" font-family="sans-serif" font-size="14" font-weight="bold" lengthAdjust="spacing" textLength="95" x="479" y="1107.5959">typeOfModel</text><text fill="#000000" font-family="sans-serif" font-size="14" lengthAdjust="spacing" textLength="96" x="578" y="1107.5959">: xsd:string [0..]</text><line style="stroke:#181818;stroke-width:1.0;stroke-dasharray:1.0,2.0;" x1="474" x2="691" y1="816.1452" y2="816.1452"/><text fill="#000000" font-family="sans-serif" font-size="14" lengthAdjust="spacing" textLength="67" x="691" y="821.0772">properties</text><line style="stroke:#181818;stroke-width:1.0;stroke-dasharray:1.0,2.0;" x1="758" x2="975" y1="816.1452" y2="816.1452"/></g><!--class PresenceType--><g id="elem_PresenceType"><rect fill="#F1F1F1" height="48" id="PresenceType" rx="2.5" ry="2.5" style="stroke:#181818;stroke-width:0.5;" width="124" x="589.5" y="257"/><ellipse cx="604.5" cy="273" fill="#ADD1B2" rx="11" ry="11" style="stroke:#181818;stroke-width:1.0;"/><path d="M604.2969,279.7344 Q601.8125,279.7344 600.4844,278.0938 Q599.1719,276.4219 599.1719,273.3125 Q599.1719,270.1875 600.4844,268.5313 Q601.8125,266.875 604.2969,266.875 Q605.0156,266.875 605.6719,267.0313 Q606.3125,267.1875 606.875,267.4844 L606.875,270.2031 Q606.5156,269.8594 606.2188,269.6719 Q605.9219,269.4688 605.6563,269.3438 Q605.3438,269.2031 605.0313,269.1406 Q604.7344,269.0781 604.4219,269.0781 Q603.0938,269.0781 602.4063,270.1406 Q601.7188,271.2344 601.7188,273.3125 Q601.7188,275.4063 602.4063,276.4688 Q603.0938,277.5469 604.4219,277.5469 Q605.0625,277.5469 605.6563,277.2656 Q605.9531,277.1406 606.2344,276.9531 Q606.5313,276.75 606.875,276.4219 L606.875,279.1406 Q606.2969,279.4375 605.6563,279.5938 Q605.0156,279.7344 604.2969,279.7344 Z " fill="#000000"/><text fill="#000000" font-family="sans-serif" font-size="14" lengthAdjust="spacing" textLength="92" x="618.5" y="278.432">PresenceType</text><line style="stroke:#181818;stroke-width:0.5;" x1="590.5" x2="712.5" y1="289" y2="289"/><line style="stroke:#181818;stroke-width:0.5;" x1="590.5" x2="712.5" y1="297" y2="297"/></g><!--class Package--><g id="elem_Package"><rect fill="#F1F1F1" height="48" id="Package" rx="2.5" ry="2.5" style="stroke:#181818;stroke-width:0.5;" width="87" x="723" y="7"/><ellipse cx="738" cy="23" fill="#ADD1B2" rx="11" ry="11" style="stroke:#181818;stroke-width:1.0;"/><path d="M737.7969,29.7344 Q735.3125,29.7344 733.9844,28.0938 Q732.6719,26.4219 732.6719,23.3125 Q732.6719,20.1875 733.9844,18.5313 Q735.3125,16.875 737.7969,16.875 Q738.5156,16.875 739.1719,17.0313 Q739.8125,17.1875 740.375,17.4844 L740.375,20.2031 Q740.0156,19.8594 739.7188,19.6719 Q739.4219,19.4688 739.1563,19.3438 Q738.8438,19.2031 738.5313,19.1406 Q738.2344,19.0781 737.9219,19.0781 Q736.5938,19.0781 735.9063,20.1406 Q735.2188,21.2344 735.2188,23.3125 Q735.2188,25.4063 735.9063,26.4688 Q736.5938,27.5469 737.9219,27.5469 Q738.5625,27.5469 739.1563,27.2656 Q739.4531,27.1406 739.7344,26.9531 Q740.0313,26.75 740.375,26.4219 L740.375,29.1406 Q739.7969,29.4375 739.1563,29.5938 Q738.5156,29.7344 737.7969,29.7344 Z " fill="#000000"/><text fill="#000000" font-family="sans-serif" font-size="14" lengthAdjust="spacing" textLength="55" x="752" y="28.432">Package</text><line style="stroke:#181818;stroke-width:0.5;" x1="724" x2="809" y1="39" y2="39"/><line style="stroke:#181818;stroke-width:0.5;" x1="724" x2="809" y1="47" y2="47"/></g><!--reverse link PresenceType to AIPackage--><g id="link_PresenceType_AIPackage"><path codeLine="61" d="M629.59,310.55 C544.29,423.69 249.92,834.5 472.5,834.5 " fill="none" id="PresenceType-backto-AIPackage" style="stroke:#181818;stroke-width:4.0;stroke-dasharray:7.0,7.0;"/><polygon fill="#181818" points="632.58,306.59,623.9609,311.3555,629.564,310.578,630.3416,316.1811,632.58,306.59" style="stroke:#181818;stroke-width:4.0;"/></g><!--reverse link SafetyRiskAssessmentType to AIPackage--><g id="link_SafetyRiskAssessmentType_AIPackage"><path codeLine="62" d="M1265.27,452.32 C1265.71,677.06 1228.11,1044.5 977.5,1044.5 " fill="none" id="SafetyRiskAssessmentType-backto-AIPackage" style="stroke:#181818;stroke-width:4.0;stroke-dasharray:7.0,7.0;"/><polygon fill="#181818" points="1265.25,447.56,1261.2757,456.5714,1265.2643,452.56,1269.2757,456.5485,1265.25,447.56" style="stroke:#181818;stroke-width:4.0;"/></g><!--reverse link SensitivePersonalInformationType to AIPackage--><g id="link_SensitivePersonalInformationType_AIPackage"><path codeLine="63" d="M215.23,395.78 C198.2,612.58 196,1063.5 472.5,1063.5 " fill="none" id="SensitivePersonalInformationType-backto-AIPackage" style="stroke:#181818;stroke-width:4.0;stroke-dasharray:7.0,7.0;"/><polygon fill="#181818" points="215.62,390.94,210.9111,399.5902,215.219,395.9239,218.8853,400.2318,215.62,390.94" style="stroke:#181818;stroke-width:4.0;"/></g><!--reverse link Package to AIPackage--><g id="link_Package_AIPackage"><path codeLine="65" d="M764.22,76.41 C759.34,171.68 747.53,402.08 738.05,587.08 " fill="none" id="Package-backto-AIPackage" style="stroke:#181818;stroke-width:4.0;"/><polygon fill="none" points="757.22,76.33,765.23,56.72,771.2,77.05,757.22,76.33" style="stroke:#181818;stroke-width:4.0;"/><text fill="#000000" font-family="sans-serif" font-size="13" lengthAdjust="spacing" textLength="109" x="744.5" y="490.897">Software:Package</text></g><!--SRC=[ZLLDRzim3BthLn2vxDAwtR0l1Ds0e1k60EjMDBqLEyWMRGkn94EIcnbR__iesN7SpAsRInARVE-HZwBSLkgQMwwWvjcM5xZnROLWCVDS5nKoXnuSXX1lB6YZaRs2UvFnjAcuRHdgHi46jPDUtkCrMcSqhzOwDrPnBus-RMk4F-mY_RnfbAAKYxFqCxla7WjZ9JemETGM7UeCWIXu6d-6X2_eCYlhW1AJRalfm0Sy-cuS2l06f1Oo8pIGEN0eI8I6N68bGb07x0VSy8irUglDJhCa0NeIDIG90_eGfpQ1QWdh7jRj1GMTliGE-n3DdKExLxY4Jd9AQTh0y2uXE32KRM5dh70dq6iOQ5jqnxo7feo97_gEynnzUoFTTaKapYcgv2MTTZ4FB2M2LEIv3qzvNLU1bQI2n8JyjD8q9BEKHNd250f9d9NPJRboA3ce53BFqOPEZwcYQVUyQc8Kzv1n3IdkJMIYnuWGuyI-zjKQdCdzZbkSjYq8xHfu6n0mCrf4zUWyL7YFLO2AaBK9f6bx34nszUEJjcn5lcLq4DwSXxolbt231GryxD0F0n_UlpjxStx-SU2dtdJqtytkZApl6ko0T7WkDH5AVKmu97VzFSZtfRHFgH-9X6EHR2GIs9HCrnbxe9ecYHOzKf-74pJPBVQVa96AlO0p4lT0YoEhmfbmp9i2ut7um-8ZGhxkzi__0tortcpMFxvDZTuLUYwuvzJSOTyycYykHBSb-7w_XJ_3j57GQit6qqzbUjkLJCKg8x1AmiIfFLC_ScljQ45woLDPIHhM9LmQdLdq65zlcZJMzJEdDvk-PSk-n1YXkK9wDzGTI6fhwh0m7aqsRxpHHhNnT7V6NVUR8JwwEq-Irx_sqK4ZlIQaZBQ2rCN6O-twlDzEB1sT75qSPnb5DKz73K6eqHOjbUaQ5IsOGor9desN2xN5kXduaOMhr3H-DN9bXkWuzJOu6C9cyYgff8zfS-Ae0Ykp5qPzmKowSFELv5DfAZ6R5yRiw- -w8jdzG5rXLd8jdPhrpatS17tEavV44S8pj_SUQUw2FqAaio4uNNINHf6BFDnYpxSWN10_ywlGYASY7zXYFFWBk3Yz4zoLA4veOMPRJHL-Ullhz1GMmwbQBiV7Py4MJxNaXMXJpGweC-rvAVepC8jOVnT9S7zFxnu3ZP4M4qld7m00]--></g></svg>