<?xml version="1.0" encoding="us-ascii" standalone="no"?><svg xmlns="http://www.w3.org/2000/svg" xmlns:xlink="http://www.w3.org/1999/xlink" contentStyleType="text/css" height="1013px" preserveAspectRatio="none" style="width:702px;height:1013px;background:#FFFFFF;" version="1.1" viewBox="0 0 702 1013" width="702px" zoomAndPan="magnify"><defs/><g><!--class BuildTypeVocab--><g id="elem_BuildTypeVocab"><rect codeLine="2" fill="#F1F1F1" height="144.8735" id="BuildTypeVocab" rx="2.5" ry="2.5" style="stroke:#181818;stroke-width:0.5;" width="291" x="7" y="7"/><ellipse cx="96.25" cy="23" fill="#EB937F" rx="11" ry="11" style="stroke:#181818;stroke-width:1.0;"/><path d="M92.6406,17.1094 L100.3594,17.1094 L100.3594,19.2656 L95.0938,19.2656 L95.0938,21.9375 L99.8594,21.9375 L99.8594,24.0938 L95.0938,24.0938 L95.0938,27.3438 L100.3594,27.3438 L100.3594,29.5 L92.6406,29.5 L92.6406,17.1094 Z " fill="#000000"/><text fill="#000000" font-family="sans-serif" font-size="14" lengthAdjust="spacing" textLength="104" x="116.75" y="28.432">BuildTypeVocab</text><line style="stroke:#181818;stroke-width:0.5;" x1="8" x2="297" y1="39" y2="39"/><text fill="#000000" font-family="sans-serif" font-size="14" font-weight="bold" lengthAdjust="spacing" textLength="68" x="13" y="57.9659">Summary</text><text fill="#000000" font-family="sans-serif" font-size="14" lengthAdjust="spacing" textLength="60" x="13" y="77.0339">MISSING</text><text fill="#000000" font-family="sans-serif" font-size="14" font-weight="bold" lengthAdjust="spacing" textLength="83" x="13" y="96.1018">Description</text><text fill="#000000" font-family="sans-serif" font-size="14" lengthAdjust="spacing" textLength="279" x="13" y="115.1697">This is about the vocabulary of build types.</text><line style="stroke:#181818;stroke-width:1.0;stroke-dasharray:1.0,2.0;" x1="8" x2="130" y1="132.8056" y2="132.8056"/><text fill="#000000" font-family="sans-serif" font-size="14" lengthAdjust="spacing" textLength="45" x="130" y="137.7376">entries</text><line style="stroke:#181818;stroke-width:1.0;stroke-dasharray:1.0,2.0;" x1="175" x2="297" y1="132.8056" y2="132.8056"/></g><!--class Build--><g id="elem_Build"><rect codeLine="11" fill="#F1F1F1" height="600.9696" id="Build" rx="2.5" ry="2.5" style="stroke:#181818;stroke-width:0.5;" width="493" x="174" y="406"/><ellipse cx="400.25" cy="422" fill="#ADD1B2" rx="11" ry="11" style="stroke:#181818;stroke-width:1.0;"/><path d="M400.0469,428.7344 Q397.5625,428.7344 396.2344,427.0938 Q394.9219,425.4219 394.9219,422.3125 Q394.9219,419.1875 396.2344,417.5313 Q397.5625,415.875 400.0469,415.875 Q400.7656,415.875 401.4219,416.0313 Q402.0625,416.1875 402.625,416.4844 L402.625,419.2031 Q402.2656,418.8594 401.9688,418.6719 Q401.6719,418.4688 401.4063,418.3438 Q401.0938,418.2031 400.7813,418.1406 Q400.4844,418.0781 400.1719,418.0781 Q398.8438,418.0781 398.1563,419.1406 Q397.4688,420.2344 397.4688,422.3125 Q397.4688,424.4063 398.1563,425.4688 Q398.8438,426.5469 400.1719,426.5469 Q400.8125,426.5469 401.4063,426.2656 Q401.7031,426.1406 401.9844,425.9531 Q402.2813,425.75 402.625,425.4219 L402.625,428.1406 Q402.0469,428.4375 401.4063,428.5938 Q400.7656,428.7344 400.0469,428.7344 Z " fill="#000000"/><text fill="#000000" font-family="sans-serif" font-size="14" lengthAdjust="spacing" textLength="32" x="420.75" y="427.432">Build</text><line style="stroke:#181818;stroke-width:0.5;" x1="175" x2="666" y1="438" y2="438"/><text fill="#000000" font-family="sans-serif" font-size="14" font-weight="bold" lengthAdjust="spacing" textLength="68" x="180" y="456.9659">Summary</text><text fill="#000000" font-family="sans-serif" font-size="14" lengthAdjust="spacing" textLength="380" x="180" y="476.0339">Class that describes a build instance of software/artifacts.</text><text fill="#000000" font-family="sans-serif" font-size="14" font-weight="bold" lengthAdjust="spacing" textLength="83" x="180" y="495.1018">Description</text><text fill="#000000" font-family="sans-serif" font-size="14" lengthAdjust="spacing" textLength="456" x="180" y="514.1697">A build is a representation of the process in which a piece of software</text><text fill="#000000" font-family="sans-serif" font-size="14" lengthAdjust="spacing" textLength="416" x="180" y="533.2376">or artifact is built. It encapsulates information related to a build</text><text fill="#000000" font-family="sans-serif" font-size="14" lengthAdjust="spacing" textLength="481" x="180" y="552.3055">process and provides an element from which relationships can be created</text><text fill="#000000" font-family="sans-serif" font-size="14" lengthAdjust="spacing" textLength="412" x="180" y="571.3734">to describe the build's inputs, outputs, and related entities (e.g.</text><text fill="#000000" font-family="sans-serif" font-size="14" lengthAdjust="spacing" textLength="158" x="180" y="590.4414">builders, identities, etc.).</text><text fill="#000000" font-family="sans-serif" font-size="14" lengthAdjust="spacing" textLength="4" x="180" y="609.5093">&#160;</text><text fill="#000000" font-family="sans-serif" font-size="14" lengthAdjust="spacing" textLength="401" x="180" y="628.5772">Definitions of "BuildType", "ConfigSource", "Parameters" and</text><text fill="#000000" font-family="sans-serif" font-size="14" lengthAdjust="spacing" textLength="289" x="180" y="647.6451">"Environment" follow those defined in [SLSA</text><text fill="#000000" font-family="sans-serif" font-size="14" lengthAdjust="spacing" textLength="304" x="180" y="666.713">provenance](https://slsa.dev/provenance/v0.2).</text><text fill="#000000" font-family="sans-serif" font-size="14" lengthAdjust="spacing" textLength="4" x="180" y="685.7809">&#160;</text><text fill="#000000" font-family="sans-serif" font-size="14" lengthAdjust="spacing" textLength="439" x="180" y="704.8489">ExternalIdentifier of type "urlScheme" may be used to identify build</text><text fill="#000000" font-family="sans-serif" font-size="14" lengthAdjust="spacing" textLength="277" x="180" y="723.9168">logs. Comment should be "LogReference".</text><text fill="#000000" font-family="sans-serif" font-size="14" lengthAdjust="spacing" textLength="160" x="180" y="766.0526">Instantiability : Concrete</text><text fill="#000000" font-family="sans-serif" font-size="14" lengthAdjust="spacing" textLength="171" x="180" y="785.1205">SubclassOf : Core:Element</text><text fill="#000000" font-family="sans-serif" font-size="14" lengthAdjust="spacing" textLength="80" x="180" y="804.1884">name : Build</text><line style="stroke:#181818;stroke-width:1.0;stroke-dasharray:1.0,2.0;" x1="175" x2="388" y1="741.5527" y2="741.5527"/><text fill="#000000" font-family="sans-serif" font-size="14" lengthAdjust="spacing" textLength="65" x="388" y="746.4847">metadata</text><line style="stroke:#181818;stroke-width:1.0;stroke-dasharray:1.0,2.0;" x1="453" x2="666" y1="741.5527" y2="741.5527"/><text fill="#000000" font-family="sans-serif" font-size="14" lengthAdjust="spacing" textLength="151" x="180" y="846.3243">buildId : xsd:string [0..1]</text><text fill="#000000" font-family="sans-serif" font-size="14" lengthAdjust="spacing" textLength="154" x="180" y="865.3922">buildType : anyURI [1..1]</text><text fill="#000000" font-family="sans-serif" font-size="14" lengthAdjust="spacing" textLength="199" x="180" y="884.4601">configSourceDigest : Hash [0..]</text><text fill="#000000" font-family="sans-serif" font-size="14" lengthAdjust="spacing" textLength="253" x="180" y="903.528">configSourceEntrypoint : xsd:string [0..]</text><text fill="#000000" font-family="sans-serif" font-size="14" lengthAdjust="spacing" textLength="186" x="180" y="922.5959">configSourceUri : anyURI [0..]</text><text fill="#000000" font-family="sans-serif" font-size="14" lengthAdjust="spacing" textLength="159" x="180" y="941.6639">endTime : xsd:DateTime</text><text fill="#000000" font-family="sans-serif" font-size="14" lengthAdjust="spacing" textLength="300" x="180" y="960.7318">environment : xsd:map&amp;lt;string&amp;gt;string [0..]</text><text fill="#000000" font-family="sans-serif" font-size="14" lengthAdjust="spacing" textLength="293" x="180" y="979.7997">parameters : xsd:map&amp;lt;string&amp;gt;string [0..]</text><text fill="#000000" font-family="sans-serif" font-size="14" lengthAdjust="spacing" textLength="167" x="180" y="998.8676">startTime : xsd:DateTime</text><line style="stroke:#181818;stroke-width:1.0;stroke-dasharray:1.0,2.0;" x1="175" x2="387" y1="821.8244" y2="821.8244"/><text fill="#000000" font-family="sans-serif" font-size="14" lengthAdjust="spacing" textLength="67" x="387" y="826.7564">properties</text><line style="stroke:#181818;stroke-width:1.0;stroke-dasharray:1.0,2.0;" x1="454" x2="666" y1="821.8244" y2="821.8244"/></g><!--class Hash--><g id="elem_Hash"><rect fill="#F1F1F1" height="48" id="Hash" rx="2.5" ry="2.5" style="stroke:#181818;stroke-width:0.5;" width="65" x="433" y="213"/><ellipse cx="448" cy="229" fill="#ADD1B2" rx="11" ry="11" style="stroke:#181818;stroke-width:1.0;"/><path d="M447.7969,235.7344 Q445.3125,235.7344 443.9844,234.0938 Q442.6719,232.4219 442.6719,229.3125 Q442.6719,226.1875 443.9844,224.5313 Q445.3125,222.875 447.7969,222.875 Q448.5156,222.875 449.1719,223.0313 Q449.8125,223.1875 450.375,223.4844 L450.375,226.2031 Q450.0156,225.8594 449.7188,225.6719 Q449.4219,225.4688 449.1563,225.3438 Q448.8438,225.2031 448.5313,225.1406 Q448.2344,225.0781 447.9219,225.0781 Q446.5938,225.0781 445.9063,226.1406 Q445.2188,227.2344 445.2188,229.3125 Q445.2188,231.4063 445.9063,232.4688 Q446.5938,233.5469 447.9219,233.5469 Q448.5625,233.5469 449.1563,233.2656 Q449.4531,233.1406 449.7344,232.9531 Q450.0313,232.75 450.375,232.4219 L450.375,235.1406 Q449.7969,235.4375 449.1563,235.5938 Q448.5156,235.7344 447.7969,235.7344 Z " fill="#000000"/><text fill="#000000" font-family="sans-serif" font-size="14" lengthAdjust="spacing" textLength="33" x="462" y="234.432">Hash</text><line style="stroke:#181818;stroke-width:0.5;" x1="434" x2="497" y1="245" y2="245"/><line style="stroke:#181818;stroke-width:0.5;" x1="434" x2="497" y1="253" y2="253"/></g><!--class Element--><g id="elem_Element"><rect fill="#F1F1F1" height="48" id="Element" rx="2.5" ry="2.5" style="stroke:#181818;stroke-width:0.5;" width="86" x="333.5" y="55.5"/><ellipse cx="348.5" cy="71.5" fill="#ADD1B2" rx="11" ry="11" style="stroke:#181818;stroke-width:1.0;"/><path d="M348.2969,78.2344 Q345.8125,78.2344 344.4844,76.5938 Q343.1719,74.9219 343.1719,71.8125 Q343.1719,68.6875 344.4844,67.0313 Q345.8125,65.375 348.2969,65.375 Q349.0156,65.375 349.6719,65.5313 Q350.3125,65.6875 350.875,65.9844 L350.875,68.7031 Q350.5156,68.3594 350.2188,68.1719 Q349.9219,67.9688 349.6563,67.8438 Q349.3438,67.7031 349.0313,67.6406 Q348.7344,67.5781 348.4219,67.5781 Q347.0938,67.5781 346.4063,68.6406 Q345.7188,69.7344 345.7188,71.8125 Q345.7188,73.9063 346.4063,74.9688 Q347.0938,76.0469 348.4219,76.0469 Q349.0625,76.0469 349.6563,75.7656 Q349.9531,75.6406 350.2344,75.4531 Q350.5313,75.25 350.875,74.9219 L350.875,77.6406 Q350.2969,77.9375 349.6563,78.0938 Q349.0156,78.2344 348.2969,78.2344 Z " fill="#000000"/><text fill="#000000" font-family="sans-serif" font-size="14" lengthAdjust="spacing" textLength="54" x="362.5" y="76.932">Element</text><line style="stroke:#181818;stroke-width:0.5;" x1="334.5" x2="418.5" y1="87.5" y2="87.5"/><line style="stroke:#181818;stroke-width:0.5;" x1="334.5" x2="418.5" y1="95.5" y2="95.5"/></g><!--reverse link Hash to Build--><g id="link_Hash_Build"><path codeLine="42" d="M504.03,255.9 C552.55,280.84 633.65,331.1 667.5,402 C678.92,425.91 695,879 668.5,879 " fill="none" id="Hash-backto-Build" style="stroke:#181818;stroke-width:4.0;stroke-dasharray:7.0,7.0;"/><polygon fill="#181818" points="499.63,253.67,505.852,261.3046,504.0906,255.9289,509.4663,254.1675,499.63,253.67" style="stroke:#181818;stroke-width:4.0;"/></g><!--reverse link Element to Build--><g id="link_Element_Build"><path codeLine="44" d="M379.63,124.95 C383.8,184.13 391.54,293.99 399.17,402.31 " fill="none" id="Element-backto-Build" style="stroke:#181818;stroke-width:4.0;"/><polygon fill="none" points="372.67,125.79,378.25,105.35,386.64,124.81,372.67,125.79" style="stroke:#181818;stroke-width:4.0;"/><text fill="#000000" font-family="sans-serif" font-size="13" lengthAdjust="spacing" textLength="81" x="393.5" y="305.897">Core:Element</text></g><!--SRC=[ZLDDRzim3BtxLn0-j1sGEEsmKzOLw9fW2z1ze6vt2NgGRTeMPak6HASDklxtaOgJfaiF2tAGHVAzHpxg65OsLrdVABUEqFGjVEvrKzokE_mb0NYAphEBj6zRJZYVP1VHjqMQBhv_aUiP-jpfZhGr8NHRQm_yLvdj2QZ6FN2m9MG23SJOFecI1D2Gq-WXIQBdw1ZoHdcFFY9R8HSxvWvN6qc7Igv2a6f5K0Gb6MEfWKKRJyhaABpUblIW74wK8rsgd9Z-3VcNsr91STWvzAnGILnGf9_EsHoPL1jug7LUSsAdyJLBP1riYGHBG2c11N6_kUeyZuDG84hhsWswGxdZqTYj_cZBf4mXh2jTI7C6iC6MLK7fR3je2DKCuslTUSWvAKF87Gea3tCtdD11G3yM-gudFm9sQdCGegqE9j0apfnWKYLHg477IQnY28q0AK_U9L4qmr8R7GJ86EBT0iKZYA-iANMLsjxbuVkdSgf5Oh1O6ADuRbRQMICznL3Qfh4FhDDwPDcCY-8aBDFhz596ia8ZfjwVr4ITdqucll4gAN0rUGbELgV9Un4sVsGUevf545rgtYYnaPL1tBicpMiUPGojMil0UhynODDYkHvyQ6pb4xYoRPYwhstF6yBfyRMjRh14nwPY7DQP-rA58YNx3FnRX1KahJBTQ5h3b64C-q8OmccVXVN-KOQ8m-byuss86XuJtuTX2ZZtrw6ZuRb8Hj2tA3ZfqHTJpq_9LB0yJPAp-vUu-C0PogplRXQmFDj5yprZPhf2JvpsLVawG1pcpFcjhZkh3HqI7cRVERt7kaj1Kzpgq9SWp7ZNmkSGsot246zLTzJGnmtHKRKzxU5rkstwxnAsnD6R8fwZMFgFuNoyBFY0nOZuVVqs_0m_VRWVZuVLdauFPnTBzM0V0_mPBr-NRclZVwp-2m00]--></g></svg>