<?xml version="1.0" encoding="us-ascii" standalone="no"?><svg xmlns="http://www.w3.org/2000/svg" xmlns:xlink="http://www.w3.org/1999/xlink" contentStyleType="text/css" height="819px" preserveAspectRatio="none" style="width:862px;height:819px;background:#FFFFFF;" version="1.1" viewBox="0 0 862 819" width="862px" zoomAndPan="magnify"><defs/><g><!--class Build--><g id="elem_Build"><rect codeLine="6" fill="#F1F1F1" height="585.7969" id="Build" rx="2.5" ry="2.5" style="stroke:#181818;stroke-width:0.5;" width="522" x="303.87" y="227"/><ellipse cx="543.62" cy="243" fill="#ADD1B2" rx="11" ry="11" style="stroke:#181818;stroke-width:1.0;"/><path d="M546.5888,248.6406 Q546.0106,248.9375 545.37,249.0781 Q544.7294,249.2344 544.0263,249.2344 Q541.5263,249.2344 540.1981,247.5938 Q538.8856,245.9375 538.8856,242.8125 Q538.8856,239.6875 540.1981,238.0313 Q541.5263,236.375 544.0263,236.375 Q544.7294,236.375 545.37,236.5313 Q546.0263,236.6875 546.5888,236.9844 L546.5888,239.7031 Q545.9638,239.125 545.37,238.8594 Q544.7763,238.5781 544.1513,238.5781 Q542.8075,238.5781 542.12,239.6563 Q541.4325,240.7188 541.4325,242.8125 Q541.4325,244.9063 542.12,245.9844 Q542.8075,247.0469 544.1513,247.0469 Q544.7763,247.0469 545.37,246.7813 Q545.9638,246.5 546.5888,245.9219 L546.5888,248.6406 Z " fill="#000000"/><text fill="#000000" font-family="sans-serif" font-size="14" lengthAdjust="spacing" textLength="34" x="564.12" y="247.8467">Build</text><line style="stroke:#181818;stroke-width:0.5;" x1="304.87" x2="824.87" y1="259" y2="259"/><text fill="#000000" font-family="sans-serif" font-size="14" font-weight="bold" lengthAdjust="spacing" textLength="73" x="309.87" y="275.9951">Summary</text><text fill="#000000" font-family="sans-serif" font-size="14" lengthAdjust="spacing" textLength="395" x="309.87" y="292.292">Class that describes a build instance of software/artifacts.</text><text fill="#000000" font-family="sans-serif" font-size="14" font-weight="bold" lengthAdjust="spacing" textLength="90" x="309.87" y="308.5889">Description</text><text fill="#000000" font-family="sans-serif" font-size="14" lengthAdjust="spacing" textLength="477" x="309.87" y="324.8857">A build is a representation of the process in which a piece of software</text><text fill="#000000" font-family="sans-serif" font-size="14" lengthAdjust="spacing" textLength="425" x="309.87" y="341.1826">or artifact is built. It encapsulates information related to a build</text><text fill="#000000" font-family="sans-serif" font-size="14" lengthAdjust="spacing" textLength="510" x="309.87" y="357.4795">process and provides an element from which relationships can be created</text><text fill="#000000" font-family="sans-serif" font-size="14" lengthAdjust="spacing" textLength="438" x="309.87" y="373.7764">to describe the build's inputs, outputs, and related entities (e.g.</text><text fill="#000000" font-family="sans-serif" font-size="14" lengthAdjust="spacing" textLength="169" x="309.87" y="390.0732">builders, identities, etc.).</text><text fill="#000000" font-family="sans-serif" font-size="14" lengthAdjust="spacing" textLength="4" x="309.87" y="406.3701">&#160;</text><text fill="#000000" font-family="sans-serif" font-size="14" lengthAdjust="spacing" textLength="410" x="309.87" y="422.667">Definitions of "BuildType", "ConfigSource", "Parameters" and</text><text fill="#000000" font-family="sans-serif" font-size="14" lengthAdjust="spacing" textLength="299" x="309.87" y="438.9639">"Environment" follow those defined in [SLSA</text><text fill="#000000" font-family="sans-serif" font-size="14" lengthAdjust="spacing" textLength="329" x="309.87" y="455.2607">provenance](https://slsa.dev/provenance/v0.2).</text><text fill="#000000" font-family="sans-serif" font-size="14" lengthAdjust="spacing" textLength="4" x="309.87" y="471.5576">&#160;</text><text fill="#000000" font-family="sans-serif" font-size="14" lengthAdjust="spacing" textLength="454" x="309.87" y="487.8545">ExternalIdentifier of type "urlScheme" may be used to identify build</text><text fill="#000000" font-family="sans-serif" font-size="14" lengthAdjust="spacing" textLength="451" x="309.87" y="504.1514">logs. In this case, the comment of the ExternalIdentifier should be</text><text fill="#000000" font-family="sans-serif" font-size="14" lengthAdjust="spacing" textLength="111" x="309.87" y="520.4482">"LogReference".</text><text fill="#000000" font-family="sans-serif" font-size="14" lengthAdjust="spacing" textLength="4" x="309.87" y="536.7451">&#160;</text><text fill="#000000" font-family="sans-serif" font-size="14" lengthAdjust="spacing" textLength="475" x="309.87" y="553.042">Note that buildStart and buildEnd are optional, and may be omitted to</text><text fill="#000000" font-family="sans-serif" font-size="14" lengthAdjust="spacing" textLength="250" x="309.87" y="569.3389">simplify creating reproducible builds.</text><text fill="#000000" font-family="sans-serif" font-size="14" lengthAdjust="spacing" textLength="165" x="309.87" y="605.9326">Instantiability : Concrete</text><text fill="#000000" font-family="sans-serif" font-size="14" lengthAdjust="spacing" textLength="190" x="309.87" y="622.2295">SubclassOf : /Core/Element</text><text fill="#000000" font-family="sans-serif" font-size="14" lengthAdjust="spacing" textLength="86" x="309.87" y="638.5264">name : Build</text><line style="stroke:#181818;stroke-width:1.0;stroke-dasharray:1.0,2.0;" x1="304.87" x2="532.37" y1="584.7891" y2="584.7891"/><text fill="#000000" font-family="sans-serif" font-size="14" lengthAdjust="spacing" textLength="65" x="532.37" y="589.1357">metadata</text><line style="stroke:#181818;stroke-width:1.0;stroke-dasharray:1.0,2.0;" x1="597.37" x2="824.87" y1="584.7891" y2="584.7891"/><text fill="#000000" font-family="sans-serif" font-size="14" font-weight="bold" lengthAdjust="spacing" textLength="105" x="309.87" y="675.1201">buildEndTime</text><text fill="#000000" font-family="sans-serif" font-size="14" lengthAdjust="spacing" textLength="159" x="419.87" y="675.1201">: /Core/DateTime [0..1]</text><text fill="#000000" font-family="sans-serif" font-size="14" font-weight="bold" lengthAdjust="spacing" textLength="52" x="309.87" y="691.417">buildId</text><text fill="#000000" font-family="sans-serif" font-size="14" lengthAdjust="spacing" textLength="117" x="366.87" y="691.417">: xsd:string [0..1]</text><text fill="#000000" font-family="sans-serif" font-size="14" font-weight="bold" lengthAdjust="spacing" textLength="114" x="309.87" y="707.7139">buildStartTime</text><text fill="#000000" font-family="sans-serif" font-size="14" lengthAdjust="spacing" textLength="159" x="428.87" y="707.7139">: /Core/DateTime [0..1]</text><text fill="#000000" font-family="sans-serif" font-size="14" font-weight="bold" lengthAdjust="spacing" textLength="77" x="309.87" y="724.0107">buildType</text><text fill="#000000" font-family="sans-serif" font-size="14" lengthAdjust="spacing" textLength="125" x="391.87" y="724.0107">: xsd:anyURI [1..1]</text><text fill="#000000" font-family="sans-serif" font-size="14" font-weight="bold" lengthAdjust="spacing" textLength="155" x="309.87" y="740.3076">configSourceDigest</text><text fill="#000000" font-family="sans-serif" font-size="14" lengthAdjust="spacing" textLength="118" x="469.87" y="740.3076">: /Core/Hash [0..]</text><text fill="#000000" font-family="sans-serif" font-size="14" font-weight="bold" lengthAdjust="spacing" textLength="186" x="309.87" y="756.6045">configSourceEntrypoint</text><text fill="#000000" font-family="sans-serif" font-size="14" lengthAdjust="spacing" textLength="108" x="500.87" y="756.6045">: xsd:string [0..]</text><text fill="#000000" font-family="sans-serif" font-size="14" font-weight="bold" lengthAdjust="spacing" textLength="127" x="309.87" y="772.9014">configSourceUri</text><text fill="#000000" font-family="sans-serif" font-size="14" lengthAdjust="spacing" textLength="116" x="441.87" y="772.9014">: xsd:anyURI [0..]</text><text fill="#000000" font-family="sans-serif" font-size="14" font-weight="bold" lengthAdjust="spacing" textLength="100" x="309.87" y="789.1982">environment</text><text fill="#000000" font-family="sans-serif" font-size="14" lengthAdjust="spacing" textLength="186" x="414.87" y="789.1982">: /Core/DictionaryEntry [0..]</text><text fill="#000000" font-family="sans-serif" font-size="14" font-weight="bold" lengthAdjust="spacing" textLength="91" x="309.87" y="805.4951">parameters</text><text fill="#000000" font-family="sans-serif" font-size="14" lengthAdjust="spacing" textLength="186" x="405.87" y="805.4951">: /Core/DictionaryEntry [0..]</text><line style="stroke:#181818;stroke-width:1.0;stroke-dasharray:1.0,2.0;" x1="304.87" x2="529.37" y1="653.9766" y2="653.9766"/><text fill="#000000" font-family="sans-serif" font-size="14" lengthAdjust="spacing" textLength="71" x="529.37" y="658.3232">properties</text><line style="stroke:#181818;stroke-width:1.0;stroke-dasharray:1.0,2.0;" x1="600.37" x2="824.87" y1="653.9766" y2="653.9766"/></g><!--class /Core/DateTime--><g id="elem_/Core/DateTime"><rect fill="#F1F1F1" height="48" id="/Core/DateTime" rx="2.5" ry="2.5" style="stroke:#181818;stroke-width:0.5;" width="142" x="654.87" y="7"/><ellipse cx="669.87" cy="23" fill="#ADD1B2" rx="11" ry="11" style="stroke:#181818;stroke-width:1.0;"/><path d="M672.8388,28.6406 Q672.2606,28.9375 671.62,29.0781 Q670.9794,29.2344 670.2763,29.2344 Q667.7763,29.2344 666.4481,27.5938 Q665.1356,25.9375 665.1356,22.8125 Q665.1356,19.6875 666.4481,18.0313 Q667.7763,16.375 670.2763,16.375 Q670.9794,16.375 671.62,16.5313 Q672.2763,16.6875 672.8388,16.9844 L672.8388,19.7031 Q672.2138,19.125 671.62,18.8594 Q671.0263,18.5781 670.4013,18.5781 Q669.0575,18.5781 668.37,19.6563 Q667.6825,20.7188 667.6825,22.8125 Q667.6825,24.9063 668.37,25.9844 Q669.0575,27.0469 670.4013,27.0469 Q671.0263,27.0469 671.62,26.7813 Q672.2138,26.5 672.8388,25.9219 L672.8388,28.6406 Z " fill="#000000"/><text fill="#000000" font-family="sans-serif" font-size="14" lengthAdjust="spacing" textLength="110" x="683.87" y="27.8467">/Core/DateTime</text><line style="stroke:#181818;stroke-width:0.5;" x1="655.87" x2="795.87" y1="39" y2="39"/><line style="stroke:#181818;stroke-width:0.5;" x1="655.87" x2="795.87" y1="47" y2="47"/></g><!--class /Core/Hash--><g id="elem_/Core/Hash"><rect fill="#F1F1F1" height="48" id="/Core/Hash" rx="2.5" ry="2.5" style="stroke:#181818;stroke-width:0.5;" width="110" x="509.87" y="7"/><ellipse cx="524.87" cy="23" fill="#ADD1B2" rx="11" ry="11" style="stroke:#181818;stroke-width:1.0;"/><path d="M527.8388,28.6406 Q527.2606,28.9375 526.62,29.0781 Q525.9794,29.2344 525.2763,29.2344 Q522.7763,29.2344 521.4481,27.5938 Q520.1356,25.9375 520.1356,22.8125 Q520.1356,19.6875 521.4481,18.0313 Q522.7763,16.375 525.2763,16.375 Q525.9794,16.375 526.62,16.5313 Q527.2763,16.6875 527.8388,16.9844 L527.8388,19.7031 Q527.2138,19.125 526.62,18.8594 Q526.0263,18.5781 525.4013,18.5781 Q524.0575,18.5781 523.37,19.6563 Q522.6825,20.7188 522.6825,22.8125 Q522.6825,24.9063 523.37,25.9844 Q524.0575,27.0469 525.4013,27.0469 Q526.0263,27.0469 526.62,26.7813 Q527.2138,26.5 527.8388,25.9219 L527.8388,28.6406 Z " fill="#000000"/><text fill="#000000" font-family="sans-serif" font-size="14" lengthAdjust="spacing" textLength="78" x="538.87" y="27.8467">/Core/Hash</text><line style="stroke:#181818;stroke-width:0.5;" x1="510.87" x2="618.87" y1="39" y2="39"/><line style="stroke:#181818;stroke-width:0.5;" x1="510.87" x2="618.87" y1="47" y2="47"/></g><!--class /Core/DictionaryEntry--><g id="elem_/Core/DictionaryEntry"><rect fill="#F1F1F1" height="48" id="/Core/DictionaryEntry" rx="2.5" ry="2.5" style="stroke:#181818;stroke-width:0.5;" width="178" x="296.87" y="7"/><ellipse cx="311.87" cy="23" fill="#ADD1B2" rx="11" ry="11" style="stroke:#181818;stroke-width:1.0;"/><path d="M314.8388,28.6406 Q314.2606,28.9375 313.62,29.0781 Q312.9794,29.2344 312.2763,29.2344 Q309.7763,29.2344 308.4481,27.5938 Q307.1356,25.9375 307.1356,22.8125 Q307.1356,19.6875 308.4481,18.0313 Q309.7763,16.375 312.2763,16.375 Q312.9794,16.375 313.62,16.5313 Q314.2763,16.6875 314.8388,16.9844 L314.8388,19.7031 Q314.2138,19.125 313.62,18.8594 Q313.0263,18.5781 312.4013,18.5781 Q311.0575,18.5781 310.37,19.6563 Q309.6825,20.7188 309.6825,22.8125 Q309.6825,24.9063 310.37,25.9844 Q311.0575,27.0469 312.4013,27.0469 Q313.0263,27.0469 313.62,26.7813 Q314.2138,26.5 314.8388,25.9219 L314.8388,28.6406 Z " fill="#000000"/><text fill="#000000" font-family="sans-serif" font-size="14" lengthAdjust="spacing" textLength="146" x="325.87" y="27.8467">/Core/DictionaryEntry</text><line style="stroke:#181818;stroke-width:0.5;" x1="297.87" x2="473.87" y1="39" y2="39"/><line style="stroke:#181818;stroke-width:0.5;" x1="297.87" x2="473.87" y1="47" y2="47"/></g><!--class /Core/Element--><g id="elem_/Core/Element"><rect fill="#F1F1F1" height="48" id="/Core/Element" rx="2.5" ry="2.5" style="stroke:#181818;stroke-width:0.5;" width="132" x="147.87" y="115"/><ellipse cx="162.87" cy="131" fill="#ADD1B2" rx="11" ry="11" style="stroke:#181818;stroke-width:1.0;"/><path d="M165.8388,136.6406 Q165.2606,136.9375 164.62,137.0781 Q163.9794,137.2344 163.2763,137.2344 Q160.7763,137.2344 159.4481,135.5938 Q158.1356,133.9375 158.1356,130.8125 Q158.1356,127.6875 159.4481,126.0313 Q160.7763,124.375 163.2763,124.375 Q163.9794,124.375 164.62,124.5313 Q165.2763,124.6875 165.8388,124.9844 L165.8388,127.7031 Q165.2138,127.125 164.62,126.8594 Q164.0263,126.5781 163.4013,126.5781 Q162.0575,126.5781 161.37,127.6563 Q160.6825,128.7188 160.6825,130.8125 Q160.6825,132.9063 161.37,133.9844 Q162.0575,135.0469 163.4013,135.0469 Q164.0263,135.0469 164.62,134.7813 Q165.2138,134.5 165.8388,133.9219 L165.8388,136.6406 Z " fill="#000000"/><text fill="#000000" font-family="sans-serif" font-size="14" lengthAdjust="spacing" textLength="100" x="176.87" y="135.8467">/Core/Element</text><line style="stroke:#181818;stroke-width:0.5;" x1="148.87" x2="278.87" y1="147" y2="147"/><line style="stroke:#181818;stroke-width:0.5;" x1="148.87" x2="278.87" y1="155" y2="155"/></g><!--reverse link /Core/DateTime to Build--><g id="link_/Core/DateTime_Build"><path codeLine="41" d="M707.36,60.5 C691.7,88.56 674.75,131.65 694.87,163 C729.46,216.89 791.22,169.15 825.87,223 C839.32,243.91 851.73,670.5 826.87,670.5 " fill="none" id="/Core/DateTime-backto-Build" style="stroke:#181818;stroke-width:4.0;stroke-dasharray:7.0,7.0;"/><polygon fill="#181818" points="709.71,56.41,701.7594,62.2227,707.2201,60.7459,708.6969,66.2066,709.71,56.41" style="stroke:#181818;stroke-width:4.0;"/></g><!--reverse link /Core/DateTime to Build--><g id="link_/Core/DateTime_Build"><path codeLine="42" d="M746.3,60.28 C770.8,96.09 810.47,160.66 825.87,223 C832.26,248.86 853.51,702.5 826.87,702.5 " fill="none" id="/Core/DateTime-backto-Build-1" style="stroke:#181818;stroke-width:4.0;stroke-dasharray:7.0,7.0;"/><polygon fill="#181818" points="743.66,56.46,745.4854,66.1382,746.5023,60.5735,752.067,61.5905,743.66,56.46" style="stroke:#181818;stroke-width:4.0;"/></g><!--reverse link /Core/Hash to Build--><g id="link_/Core/Hash_Build"><path codeLine="43" d="M573.58,61.5 C583.82,91.22 603.65,136.4 635.87,163 C704.17,219.37 773.45,151.62 825.87,223 C842.72,245.95 855.34,735.5 826.87,735.5 " fill="none" id="/Core/Hash-backto-Build" style="stroke:#181818;stroke-width:4.0;stroke-dasharray:7.0,7.0;"/><polygon fill="#181818" points="572.02,56.83,571.0802,66.6339,573.6054,61.572,578.6674,64.0972,572.02,56.83" style="stroke:#181818;stroke-width:4.0;"/></g><!--reverse link /Core/DictionaryEntry to Build--><g id="link_/Core/DictionaryEntry_Build"><path codeLine="44" d="M370.35,60.82 C297.6,198.71 6,784.5 302.87,784.5 " fill="none" id="/Core/DictionaryEntry-backto-Build" style="stroke:#181818;stroke-width:4.0;stroke-dasharray:7.0,7.0;"/><polygon fill="#181818" points="372.54,56.68,364.7875,62.7545,370.196,61.0965,371.8539,66.5049,372.54,56.68" style="stroke:#181818;stroke-width:4.0;"/></g><!--reverse link /Core/DictionaryEntry to Build--><g id="link_/Core/DictionaryEntry_Build"><path codeLine="45" d="M376.76,61.04 C367.95,87.96 353.66,128.87 337.87,163 C325,190.82 311.71,193.37 303.87,223 C238.22,471.13 46.2,800.5 302.87,800.5 " fill="none" id="/Core/DictionaryEntry-backto-Build-1" style="stroke:#181818;stroke-width:4.0;stroke-dasharray:7.0,7.0;"/><polygon fill="#181818" points="378.19,56.62,371.5887,63.9291,376.6346,61.3719,379.1918,66.4178,378.19,56.62" style="stroke:#181818;stroke-width:4.0;"/></g><!--reverse link /Core/Element to Build--><g id="link_/Core/Element_Build"><path codeLine="47" d="M249.89,178.84 C262.86,192.82 278.67,209.88 296.24,228.83 " fill="none" id="/Core/Element-backto-Build" style="stroke:#181818;stroke-width:4.0;"/><polygon fill="none" points="245.06,183.93,236.59,164.5,255.32,174.41,245.06,183.93" style="stroke:#181818;stroke-width:4.0;"/></g><!--SRC=[fLHDRzim3BtxLn2-j0CIfnrs2he2NHjW0OfjcDjJq8CiqxPGMp8aEgsnxR-FafqFOpbqMqwsIJu-yZt6FIlT2YiQQ8Ly5YMcrDS85YK9NTOOEIHmw5F8MD16OtG6MoD5rjN2zlmYQ-4SkeXCYLIXXHzH-0IVEbNd_7QLNQTTqt3srIAxZcv3a2f1aAEJLcNeG40MifLst5WYc0ASAUX5M5m8IweGabpYiUv2KKlAw81tiolrA1PRYmur2H_tA4m9MciaSbEbuQLIikB4Lk6qIyJZxHfvB0zA2Qm9K4lHEXwNq4CKnZO3kaN_BGSoE_xHhfFGkU-wLRaVJWFMs30hAAnfHWwXcc5SfLe7afCo16dHG_8ozyi94mJqCz- -xSZDm7GqFFX6EnxSG97YXkUOb4aKQj1o4hCOGpD0aicx98hki51Q1G9-3N5Gww5lCPv1V6jqeShKT5Q6zs_U8aWC5lkEKRpIMsMDzZF5K9YwDY_CqpXaseoBNadOfFVfZL_95hKNzUcy8chTSh5mjHD9Zjl58RZONYJlFR7LA_VHebu7qeLYHtaPcHd4dQrJMV4gOsX4xnVMkK60OSIY7tMeJUbOFCsab5-kmrdOepHDq64qnebUhZ8Tkod3AButvNSiqB81C6PcNmpXODpG92NsIn0WlAxuWNq49bXJr8Cs8qtJA1gi4ZdLjBLd6hHMkWocDNadLLQFIhFJamHuuo8N92198k3VEXm7AP6fMb4FIs2T68KmXDCk2uVtjU38ujRmvQm6suMmPWKv47JswDopHHlyCkBpSUqcUL2SxCzhXtJ73WiVDnT9SlaqoL_dO-ghovUEh9_fH5hOrry1UpiUGGlTFtvVm-RoE54UMVLEbUXe0lzPk2f0donOQR9zQvIcqnESB7gqwWIfusmyNCTqLYM3DsmV6a-BslsDlQ7cLnHFrnV3rNoJyx2OpzZpybdptz373q_p-NZQo-Mnjl6_rkz5t2Fu3R-X-a-T3Xoc8xu1x6Z1_u5os7XyMEXuCbp-SxwP58vryMy0]--></g></svg>