<?xml version="1.0" encoding="us-ascii" standalone="no"?><svg xmlns="http://www.w3.org/2000/svg" xmlns:xlink="http://www.w3.org/1999/xlink" contentStyleType="text/css" height="764px" preserveAspectRatio="none" style="width:875px;height:764px;background:#FFFFFF;" version="1.1" viewBox="0 0 875 764" width="875px" zoomAndPan="magnify"><defs/><g><!--class Dataset--><g id="elem_Dataset"><rect codeLine="6" fill="#F1F1F1" height="448.4263" id="Dataset" rx="2.5" ry="2.5" style="stroke:#181818;stroke-width:0.5;" width="509" x="192.95" y="309"/><ellipse cx="416.2" cy="325" fill="#ADD1B2" rx="11" ry="11" style="stroke:#181818;stroke-width:1.0;"/><path d="M415.9969,331.7344 Q413.5125,331.7344 412.1844,330.0938 Q410.8719,328.4219 410.8719,325.3125 Q410.8719,322.1875 412.1844,320.5313 Q413.5125,318.875 415.9969,318.875 Q416.7156,318.875 417.3719,319.0313 Q418.0125,319.1875 418.575,319.4844 L418.575,322.2031 Q418.2156,321.8594 417.9188,321.6719 Q417.6219,321.4688 417.3563,321.3438 Q417.0438,321.2031 416.7313,321.1406 Q416.4344,321.0781 416.1219,321.0781 Q414.7938,321.0781 414.1063,322.1406 Q413.4188,323.2344 413.4188,325.3125 Q413.4188,327.4063 414.1063,328.4688 Q414.7938,329.5469 416.1219,329.5469 Q416.7625,329.5469 417.3563,329.2656 Q417.6531,329.1406 417.9344,328.9531 Q418.2313,328.75 418.575,328.4219 L418.575,331.1406 Q417.9969,331.4375 417.3563,331.5938 Q416.7156,331.7344 415.9969,331.7344 Z " fill="#000000"/><text fill="#000000" font-family="sans-serif" font-size="14" lengthAdjust="spacing" textLength="54" x="436.7" y="330.432">Dataset</text><line style="stroke:#181818;stroke-width:0.5;" x1="193.95" x2="700.95" y1="341" y2="341"/><text fill="#000000" font-family="sans-serif" font-size="14" font-weight="bold" lengthAdjust="spacing" textLength="68" x="198.95" y="359.9659">Summary</text><text fill="#000000" font-family="sans-serif" font-size="14" lengthAdjust="spacing" textLength="391" x="198.95" y="379.0339">Provides information about the fields in the Dataset profile.</text><text fill="#000000" font-family="sans-serif" font-size="14" font-weight="bold" lengthAdjust="spacing" textLength="83" x="198.95" y="398.1018">Description</text><text fill="#000000" font-family="sans-serif" font-size="14" lengthAdjust="spacing" textLength="497" x="198.95" y="417.1697">Metadata information that can be added to a a dataset that maybe used in</text><text fill="#000000" font-family="sans-serif" font-size="14" lengthAdjust="spacing" textLength="270" x="198.95" y="436.2376">a software or to train/test an AI package</text><text fill="#000000" font-family="sans-serif" font-size="14" lengthAdjust="spacing" textLength="152" x="198.95" y="478.3734">Instatiability : Concrete</text><text fill="#000000" font-family="sans-serif" font-size="14" lengthAdjust="spacing" textLength="201" x="198.95" y="497.4414">SubclassOf : Software:Package</text><text fill="#000000" font-family="sans-serif" font-size="14" lengthAdjust="spacing" textLength="102" x="198.95" y="516.5093">name : Dataset</text><line style="stroke:#181818;stroke-width:1.0;stroke-dasharray:1.0,2.0;" x1="193.95" x2="414.95" y1="453.8735" y2="453.8735"/><text fill="#000000" font-family="sans-serif" font-size="14" lengthAdjust="spacing" textLength="65" x="414.95" y="458.8055">metadata</text><line style="stroke:#181818;stroke-width:1.0;stroke-dasharray:1.0,2.0;" x1="479.95" x2="700.95" y1="453.8735" y2="453.8735"/><text fill="#000000" font-family="sans-serif" font-size="14" font-weight="bold" lengthAdjust="spacing" textLength="200" x="198.95" y="558.6451">anonymizationMethodUsed</text><text fill="#000000" font-family="sans-serif" font-size="14" lengthAdjust="spacing" textLength="96" x="402.95" y="558.6451">: xsd:string [0..]</text><text fill="#000000" font-family="sans-serif" font-size="14" font-weight="bold" lengthAdjust="spacing" textLength="181" x="198.95" y="577.713">confidentialityLevelType</text><text fill="#000000" font-family="sans-serif" font-size="14" lengthAdjust="spacing" textLength="194" x="383.95" y="577.713">: ConfidentialityLevelType [0..]</text><text fill="#000000" font-family="sans-serif" font-size="14" font-weight="bold" lengthAdjust="spacing" textLength="163" x="198.95" y="596.7809">dataCollectionProcess</text><text fill="#000000" font-family="sans-serif" font-size="14" lengthAdjust="spacing" textLength="96" x="365.95" y="596.7809">: xsd:string [0..]</text><text fill="#000000" font-family="sans-serif" font-size="14" font-weight="bold" lengthAdjust="spacing" textLength="178" x="198.95" y="615.8489">dataPreprocessingSteps</text><text fill="#000000" font-family="sans-serif" font-size="14" lengthAdjust="spacing" textLength="104" x="380.95" y="615.8489">: xsd:string [0..1]</text><text fill="#000000" font-family="sans-serif" font-size="14" font-weight="bold" lengthAdjust="spacing" textLength="99" x="198.95" y="634.9168">datasetNoise</text><text fill="#000000" font-family="sans-serif" font-size="14" lengthAdjust="spacing" textLength="104" x="301.95" y="634.9168">: xsd:string [0..1]</text><text fill="#000000" font-family="sans-serif" font-size="14" font-weight="bold" lengthAdjust="spacing" textLength="87" x="198.95" y="653.9847">datasetSize</text><text fill="#000000" font-family="sans-serif" font-size="14" lengthAdjust="spacing" textLength="104" x="289.95" y="653.9847">: xsd:string [0..1]</text><text fill="#000000" font-family="sans-serif" font-size="14" font-weight="bold" lengthAdjust="spacing" textLength="194" x="198.95" y="673.0526">datasetUpdateMechanism</text><text fill="#000000" font-family="sans-serif" font-size="14" lengthAdjust="spacing" textLength="104" x="396.95" y="673.0526">: xsd:string [0..1]</text><text fill="#000000" font-family="sans-serif" font-size="14" font-weight="bold" lengthAdjust="spacing" textLength="92" x="198.95" y="692.1205">intendedUse</text><text fill="#000000" font-family="sans-serif" font-size="14" lengthAdjust="spacing" textLength="104" x="294.95" y="692.1205">: xsd:string [0..1]</text><text fill="#000000" font-family="sans-serif" font-size="14" font-weight="bold" lengthAdjust="spacing" textLength="95" x="198.95" y="711.1884">knownBiases</text><text fill="#000000" font-family="sans-serif" font-size="14" lengthAdjust="spacing" textLength="104" x="297.95" y="711.1884">: xsd:string [0..1]</text><text fill="#000000" font-family="sans-serif" font-size="14" font-weight="bold" lengthAdjust="spacing" textLength="255" x="198.95" y="730.2564">sensitivePersonalInformationType</text><text fill="#000000" font-family="sans-serif" font-size="14" lengthAdjust="spacing" textLength="126" x="457.95" y="730.2564">: PresenceType [0..]</text><text fill="#000000" font-family="sans-serif" font-size="14" font-weight="bold" lengthAdjust="spacing" textLength="57" x="198.95" y="749.3243">sensors</text><text fill="#000000" font-family="sans-serif" font-size="14" lengthAdjust="spacing" textLength="96" x="259.95" y="749.3243">: xsd:string [0..]</text><line style="stroke:#181818;stroke-width:1.0;stroke-dasharray:1.0,2.0;" x1="193.95" x2="413.95" y1="534.1452" y2="534.1452"/><text fill="#000000" font-family="sans-serif" font-size="14" lengthAdjust="spacing" textLength="67" x="413.95" y="539.0772">properties</text><line style="stroke:#181818;stroke-width:1.0;stroke-dasharray:1.0,2.0;" x1="480.95" x2="700.95" y1="534.1452" y2="534.1452"/></g><!--class ConfidentialityLevelType--><g id="elem_ConfidentialityLevelType"><rect fill="#F1F1F1" height="48" id="ConfidentialityLevelType" rx="2.5" ry="2.5" style="stroke:#181818;stroke-width:0.5;" width="192" x="518.45" y="116"/><ellipse cx="533.45" cy="132" fill="#ADD1B2" rx="11" ry="11" style="stroke:#181818;stroke-width:1.0;"/><path d="M533.2469,138.7344 Q530.7625,138.7344 529.4344,137.0938 Q528.1219,135.4219 528.1219,132.3125 Q528.1219,129.1875 529.4344,127.5313 Q530.7625,125.875 533.2469,125.875 Q533.9656,125.875 534.6219,126.0313 Q535.2625,126.1875 535.825,126.4844 L535.825,129.2031 Q535.4656,128.8594 535.1687,128.6719 Q534.8719,128.4688 534.6062,128.3438 Q534.2937,128.2031 533.9812,128.1406 Q533.6844,128.0781 533.3719,128.0781 Q532.0437,128.0781 531.3562,129.1406 Q530.6687,130.2344 530.6687,132.3125 Q530.6687,134.4063 531.3562,135.4688 Q532.0437,136.5469 533.3719,136.5469 Q534.0125,136.5469 534.6062,136.2656 Q534.9031,136.1406 535.1844,135.9531 Q535.4812,135.75 535.825,135.4219 L535.825,138.1406 Q535.2469,138.4375 534.6062,138.5938 Q533.9656,138.7344 533.2469,138.7344 Z " fill="#000000"/><text fill="#000000" font-family="sans-serif" font-size="14" lengthAdjust="spacing" textLength="160" x="547.45" y="137.432">ConfidentialityLevelType</text><line style="stroke:#181818;stroke-width:0.5;" x1="519.45" x2="709.45" y1="148" y2="148"/><line style="stroke:#181818;stroke-width:0.5;" x1="519.45" x2="709.45" y1="156" y2="156"/></g><!--class PresenceType--><g id="elem_PresenceType"><rect fill="#F1F1F1" height="48" id="PresenceType" rx="2.5" ry="2.5" style="stroke:#181818;stroke-width:0.5;" width="124" x="359.45" y="116"/><ellipse cx="374.45" cy="132" fill="#ADD1B2" rx="11" ry="11" style="stroke:#181818;stroke-width:1.0;"/><path d="M374.2469,138.7344 Q371.7625,138.7344 370.4344,137.0938 Q369.1219,135.4219 369.1219,132.3125 Q369.1219,129.1875 370.4344,127.5313 Q371.7625,125.875 374.2469,125.875 Q374.9656,125.875 375.6219,126.0313 Q376.2625,126.1875 376.825,126.4844 L376.825,129.2031 Q376.4656,128.8594 376.1688,128.6719 Q375.8719,128.4688 375.6063,128.3438 Q375.2938,128.2031 374.9813,128.1406 Q374.6844,128.0781 374.3719,128.0781 Q373.0438,128.0781 372.3563,129.1406 Q371.6688,130.2344 371.6688,132.3125 Q371.6688,134.4063 372.3563,135.4688 Q373.0438,136.5469 374.3719,136.5469 Q375.0125,136.5469 375.6063,136.2656 Q375.9031,136.1406 376.1844,135.9531 Q376.4813,135.75 376.825,135.4219 L376.825,138.1406 Q376.2469,138.4375 375.6063,138.5938 Q374.9656,138.7344 374.2469,138.7344 Z " fill="#000000"/><text fill="#000000" font-family="sans-serif" font-size="14" lengthAdjust="spacing" textLength="92" x="388.45" y="137.432">PresenceType</text><line style="stroke:#181818;stroke-width:0.5;" x1="360.45" x2="482.45" y1="148" y2="148"/><line style="stroke:#181818;stroke-width:0.5;" x1="360.45" x2="482.45" y1="156" y2="156"/></g><!--class Package--><g id="elem_Package"><rect fill="#F1F1F1" height="48" id="Package" rx="2.5" ry="2.5" style="stroke:#181818;stroke-width:0.5;" width="87" x="262.95" y="7"/><ellipse cx="277.95" cy="23" fill="#ADD1B2" rx="11" ry="11" style="stroke:#181818;stroke-width:1.0;"/><path d="M277.7469,29.7344 Q275.2625,29.7344 273.9344,28.0938 Q272.6219,26.4219 272.6219,23.3125 Q272.6219,20.1875 273.9344,18.5313 Q275.2625,16.875 277.7469,16.875 Q278.4656,16.875 279.1219,17.0313 Q279.7625,17.1875 280.325,17.4844 L280.325,20.2031 Q279.9656,19.8594 279.6688,19.6719 Q279.3719,19.4688 279.1063,19.3438 Q278.7938,19.2031 278.4813,19.1406 Q278.1844,19.0781 277.8719,19.0781 Q276.5438,19.0781 275.8563,20.1406 Q275.1688,21.2344 275.1688,23.3125 Q275.1688,25.4063 275.8563,26.4688 Q276.5438,27.5469 277.8719,27.5469 Q278.5125,27.5469 279.1063,27.2656 Q279.4031,27.1406 279.6844,26.9531 Q279.9813,26.75 280.325,26.4219 L280.325,29.1406 Q279.7469,29.4375 279.1063,29.5938 Q278.4656,29.7344 277.7469,29.7344 Z " fill="#000000"/><text fill="#000000" font-family="sans-serif" font-size="14" lengthAdjust="spacing" textLength="55" x="291.95" y="28.432">Package</text><line style="stroke:#181818;stroke-width:0.5;" x1="263.95" x2="348.95" y1="39" y2="39"/><line style="stroke:#181818;stroke-width:0.5;" x1="263.95" x2="348.95" y1="47" y2="47"/></g><!--reverse link ConfidentialityLevelType to Dataset--><g id="link_ConfidentialityLevelType_Dataset"><path codeLine="29" d="M632.63,169.71 C692.2,266.15 868.44,572.5 703.45,572.5 " fill="none" id="ConfidentialityLevelType-backto-Dataset" style="stroke:#181818;stroke-width:4.0;stroke-dasharray:7.0,7.0;"/><polygon fill="#181818" points="630.01,165.49,631.3585,175.2461,632.6472,169.738,638.1553,171.0266,630.01,165.49" style="stroke:#181818;stroke-width:4.0;"/></g><!--reverse link PresenceType to Dataset--><g id="link_PresenceType_Dataset"><path codeLine="30" d="M429.86,170.49 C432.12,184.16 432.31,200.17 425.45,213 C402.01,256.8 378.2,255.64 332.45,275 C274.24,299.63 233.2,255.87 193.45,305 C76.17,449.94 6,724.5 192.45,724.5 " fill="none" id="PresenceType-backto-Dataset" style="stroke:#181818;stroke-width:4.0;stroke-dasharray:7.0,7.0;"/><polygon fill="#181818" points="428.98,165.88,426.7475,175.4725,429.9221,170.7904,434.6042,173.9651,428.98,165.88" style="stroke:#181818;stroke-width:4.0;"/></g><!--reverse link Package to Dataset--><g id="link_Package_Dataset"><path codeLine="32" d="M302.26,76.68 C299.8,113.53 298.53,167.04 306.45,213 C311.73,243.69 320.6,274.92 331.39,305.24 " fill="none" id="Package-backto-Dataset" style="stroke:#181818;stroke-width:4.0;"/><polygon fill="none" points="295.27,76.25,303.82,56.87,309.22,77.36,295.27,76.25" style="stroke:#181818;stroke-width:4.0;"/><text fill="#000000" font-family="sans-serif" font-size="13" lengthAdjust="spacing" textLength="109" x="307.45" y="208.897">Software:Package</text></g><!--SRC=[ZLF1ZjD03BtdAwnSkD0iI9oYiX9qBvLOg1HwglRWJ9ncrCGJpRXTiWl_ZYUasgsWjCab4py_-prxmivoZnuxwD7iS4k532s19oF8svQIG0A18aIS1tPCoHiuE8FblaK_wC6q60A5HDoMf24Fpydu2-vGCAO_9_FojjXtdUBdD-LjilBkO2iAOBbslaEnZW5BjnTG0gWjjLKCZgSZI-zTRLlA8jaT1UDj7_D6mdiIh1HtGYWD2XXaA0cmggW2SO3wLXFZ2EXmqFW-QDXoWX1SBO_e2LIjuiMZvHkX8A1CdvP7cv8iW-vODSiIq6V9GRGqbhQrCa0E2yV6az0OBVRbQCktMYF5L2LVJNGHmTYHnYR1iO9gxicBLQkc6YeUTGX3Pvz6bQgySTKwjX-ToE57gF8Wtl8MDk-oxE6OPHpNwZbhVx6xBtIWzllGqvIsE1S-8Obg5wvjTJkqjexHaCxv_uLZpifJ_mUiuKAeFvFq_YHBJVZgRA0hiOLzkXQwxlM3xiaqo3Pqbx8i2x4kqFfoBpjsZ_pPQf6B4WDni68Fj28V76ExV5dULvDHxnHfwEzfH0Bdp_h_AqdFJJM5-MnJOMYeUYkDDJlMqNpyy32RGJgjNvwVsvWqIL_tT1NN9Qrfx7Qw2qhuSxOvfNhXIlznUtu3]--></g></svg>