<?xml version="1.0" encoding="us-ascii" standalone="no"?><svg xmlns="http://www.w3.org/2000/svg" xmlns:xlink="http://www.w3.org/1999/xlink" contentStyleType="text/css" height="962px" preserveAspectRatio="none" style="width:1729px;height:962px;background:#FFFFFF;" version="1.1" viewBox="0 0 1729 962" width="1729px" zoomAndPan="magnify"><defs/><g><!--class ConfidentialityLevelType--><g id="elem_ConfidentialityLevelType"><rect codeLine="4" fill="#F1F1F1" height="239.5625" id="ConfidentialityLevelType" rx="2.5" ry="2.5" style="stroke:#181818;stroke-width:0.5;" width="520" x="7" y="64"/><ellipse cx="180.25" cy="80" fill="#EB937F" rx="11" ry="11" style="stroke:#181818;stroke-width:1.0;"/><path d="M184.3594,86 L176.6406,86 L176.6406,73.6094 L184.3594,73.6094 L184.3594,75.7656 L179.0938,75.7656 L179.0938,78.4375 L183.8594,78.4375 L183.8594,80.5938 L179.0938,80.5938 L179.0938,83.8438 L184.3594,83.8438 L184.3594,86 Z " fill="#000000"/><text fill="#000000" font-family="sans-serif" font-size="14" lengthAdjust="spacing" textLength="165" x="200.75" y="84.8467">ConfidentialityLevelType</text><line style="stroke:#181818;stroke-width:0.5;" x1="8" x2="526" y1="96" y2="96"/><text fill="#000000" font-family="sans-serif" font-size="14" font-weight="bold" lengthAdjust="spacing" textLength="73" x="13" y="112.9951">Summary</text><text fill="#000000" font-family="sans-serif" font-size="14" lengthAdjust="spacing" textLength="229" x="13" y="129.292">Categories of confidentiality level.</text><text fill="#000000" font-family="sans-serif" font-size="14" font-weight="bold" lengthAdjust="spacing" textLength="90" x="13" y="145.5889">Description</text><text fill="#000000" font-family="sans-serif" font-size="14" lengthAdjust="spacing" textLength="457" x="13" y="161.8857">Describes the different confidentiality levels as given by the [Traffic</text><text fill="#000000" font-family="sans-serif" font-size="14" lengthAdjust="spacing" textLength="456" x="13" y="178.1826">Light Protocol](https://en.wikipedia.org/wiki/Traffic_Light_Protocol).</text><text fill="#000000" font-family="sans-serif" font-size="14" font-weight="bold" lengthAdjust="spacing" textLength="52" x="13" y="214.7764">Amber</text><text fill="#000000" font-family="sans-serif" font-size="14" lengthAdjust="spacing" textLength="410" x="65" y="214.7764">: Data points in the dataset can be shared only with specific</text><text fill="#000000" font-family="sans-serif" font-size="14" lengthAdjust="spacing" textLength="384" x="13" y="231.0732">organizations and their clients on a need to know basis.</text><text fill="#000000" font-family="sans-serif" font-size="14" font-weight="bold" lengthAdjust="spacing" textLength="41" x="13" y="247.3701">Clear</text><text fill="#000000" font-family="sans-serif" font-size="14" lengthAdjust="spacing" textLength="372" x="54" y="247.3701">: Dataset may be distributed freely, without restriction.</text><text fill="#000000" font-family="sans-serif" font-size="14" font-weight="bold" lengthAdjust="spacing" textLength="49" x="13" y="263.667">Green</text><text fill="#000000" font-family="sans-serif" font-size="14" lengthAdjust="spacing" textLength="459" x="62" y="263.667">: Dataset can be shared within a community of peers and partners.</text><text fill="#000000" font-family="sans-serif" font-size="14" font-weight="bold" lengthAdjust="spacing" textLength="30" x="13" y="279.9639">Red</text><text fill="#000000" font-family="sans-serif" font-size="14" lengthAdjust="spacing" textLength="453" x="43" y="279.9639">: Data points in the dataset are highly confidential and can only be</text><text fill="#000000" font-family="sans-serif" font-size="14" lengthAdjust="spacing" textLength="208" x="13" y="296.2607">shared with named recipients.</text><line style="stroke:#181818;stroke-width:1.0;stroke-dasharray:1.0,2.0;" x1="8" x2="243" y1="193.6328" y2="193.6328"/><text fill="#000000" font-family="sans-serif" font-size="14" lengthAdjust="spacing" textLength="48" x="243" y="197.9795">entries</text><line style="stroke:#181818;stroke-width:1.0;stroke-dasharray:1.0,2.0;" x1="291" x2="526" y1="193.6328" y2="193.6328"/></g><!--class DatasetAvailabilityType--><g id="elem_DatasetAvailabilityType"><rect codeLine="18" fill="#F1F1F1" height="353.6406" id="DatasetAvailabilityType" rx="2.5" ry="2.5" style="stroke:#181818;stroke-width:0.5;" width="633" x="1089.5" y="7"/><ellipse cx="1323.75" cy="23" fill="#EB937F" rx="11" ry="11" style="stroke:#181818;stroke-width:1.0;"/><path d="M1327.8594,29 L1320.1406,29 L1320.1406,16.6094 L1327.8594,16.6094 L1327.8594,18.7656 L1322.5938,18.7656 L1322.5938,21.4375 L1327.3594,21.4375 L1327.3594,23.5938 L1322.5938,23.5938 L1322.5938,26.8438 L1327.8594,26.8438 L1327.8594,29 Z " fill="#000000"/><text fill="#000000" font-family="sans-serif" font-size="14" lengthAdjust="spacing" textLength="156" x="1344.25" y="27.8467">DatasetAvailabilityType</text><line style="stroke:#181818;stroke-width:0.5;" x1="1090.5" x2="1721.5" y1="39" y2="39"/><text fill="#000000" font-family="sans-serif" font-size="14" font-weight="bold" lengthAdjust="spacing" textLength="73" x="1095.5" y="55.9951">Summary</text><text fill="#000000" font-family="sans-serif" font-size="14" lengthAdjust="spacing" textLength="141" x="1095.5" y="72.292">Availability of dataset</text><text fill="#000000" font-family="sans-serif" font-size="14" font-weight="bold" lengthAdjust="spacing" textLength="90" x="1095.5" y="88.5889">Description</text><text fill="#000000" font-family="sans-serif" font-size="14" lengthAdjust="spacing" textLength="448" x="1095.5" y="104.8857">Describes the possible types of availability of a dataset, indicating</text><text fill="#000000" font-family="sans-serif" font-size="14" lengthAdjust="spacing" textLength="522" x="1095.5" y="121.1826">whether the dataset can be directly downloaded, can be assembled using a</text><text fill="#000000" font-family="sans-serif" font-size="14" lengthAdjust="spacing" textLength="451" x="1095.5" y="137.4795">script for scraping the data, is only available after a clickthrough or</text><text fill="#000000" font-family="sans-serif" font-size="14" lengthAdjust="spacing" textLength="129" x="1095.5" y="153.7764">a registration form.</text><text fill="#000000" font-family="sans-serif" font-size="14" font-weight="bold" lengthAdjust="spacing" textLength="100" x="1095.5" y="190.3701">Clickthrough</text><text fill="#000000" font-family="sans-serif" font-size="14" lengthAdjust="spacing" textLength="466" x="1195.5" y="190.3701">: the dataset is not publicly available and can only be accessed after</text><text fill="#000000" font-family="sans-serif" font-size="14" lengthAdjust="spacing" textLength="390" x="1095.5" y="206.667">affirmatively accepting terms on a clickthrough webpage.</text><text fill="#000000" font-family="sans-serif" font-size="14" font-weight="bold" lengthAdjust="spacing" textLength="131" x="1095.5" y="222.9639">Direct-Download</text><text fill="#000000" font-family="sans-serif" font-size="14" lengthAdjust="spacing" textLength="447" x="1226.5" y="222.9639">: the dataset is publicly available and can be downloaded directly.</text><text fill="#000000" font-family="sans-serif" font-size="14" font-weight="bold" lengthAdjust="spacing" textLength="48" x="1095.5" y="239.2607">Query</text><text fill="#000000" font-family="sans-serif" font-size="14" lengthAdjust="spacing" textLength="469" x="1143.5" y="239.2607">: the dataset is publicly available, but not all at once, and can only be</text><text fill="#000000" font-family="sans-serif" font-size="14" lengthAdjust="spacing" textLength="415" x="1095.5" y="255.5576">accessed through queries which return parts of the dataset.</text><text fill="#000000" font-family="sans-serif" font-size="14" font-weight="bold" lengthAdjust="spacing" textLength="95" x="1095.5" y="271.8545">Registration</text><text fill="#000000" font-family="sans-serif" font-size="14" lengthAdjust="spacing" textLength="435" x="1190.5" y="271.8545">: the dataset is not publicly available and an email registration is</text><text fill="#000000" font-family="sans-serif" font-size="14" lengthAdjust="spacing" textLength="482" x="1095.5" y="288.1514">required before accessing the dataset, although without an affirmative</text><text fill="#000000" font-family="sans-serif" font-size="14" lengthAdjust="spacing" textLength="146" x="1095.5" y="304.4482">acceptance of terms.</text><text fill="#000000" font-family="sans-serif" font-size="14" font-weight="bold" lengthAdjust="spacing" textLength="121" x="1095.5" y="320.7451">Scraping-Script</text><text fill="#000000" font-family="sans-serif" font-size="14" lengthAdjust="spacing" textLength="500" x="1216.5" y="320.7451">: the dataset provider is not making available the underlying data and the</text><text fill="#000000" font-family="sans-serif" font-size="14" lengthAdjust="spacing" textLength="465" x="1095.5" y="337.042">dataset must be reassembled, typically using the provided script for</text><text fill="#000000" font-family="sans-serif" font-size="14" lengthAdjust="spacing" textLength="124" x="1095.5" y="353.3389">scraping the data.</text><line style="stroke:#181818;stroke-width:1.0;stroke-dasharray:1.0,2.0;" x1="1090.5" x2="1382" y1="169.2266" y2="169.2266"/><text fill="#000000" font-family="sans-serif" font-size="14" lengthAdjust="spacing" textLength="48" x="1382" y="173.5732">entries</text><line style="stroke:#181818;stroke-width:1.0;stroke-dasharray:1.0,2.0;" x1="1430" x2="1721.5" y1="169.2266" y2="169.2266"/></g><!--class Dataset--><g id="elem_Dataset"><rect codeLine="41" fill="#F1F1F1" height="422.8281" id="Dataset" rx="2.5" ry="2.5" style="stroke:#181818;stroke-width:0.5;" width="513" x="551.5" y="533"/><ellipse cx="776.75" cy="549" fill="#ADD1B2" rx="11" ry="11" style="stroke:#181818;stroke-width:1.0;"/><path d="M779.7188,554.6406 Q779.1406,554.9375 778.5,555.0781 Q777.8594,555.2344 777.1563,555.2344 Q774.6563,555.2344 773.3281,553.5938 Q772.0156,551.9375 772.0156,548.8125 Q772.0156,545.6875 773.3281,544.0313 Q774.6563,542.375 777.1563,542.375 Q777.8594,542.375 778.5,542.5313 Q779.1563,542.6875 779.7188,542.9844 L779.7188,545.7031 Q779.0938,545.125 778.5,544.8594 Q777.9063,544.5781 777.2813,544.5781 Q775.9375,544.5781 775.25,545.6563 Q774.5625,546.7188 774.5625,548.8125 Q774.5625,550.9063 775.25,551.9844 Q775.9375,553.0469 777.2813,553.0469 Q777.9063,553.0469 778.5,552.7813 Q779.0938,552.5 779.7188,551.9219 L779.7188,554.6406 Z " fill="#000000"/><text fill="#000000" font-family="sans-serif" font-size="14" lengthAdjust="spacing" textLength="54" x="797.25" y="553.8467">Dataset</text><line style="stroke:#181818;stroke-width:0.5;" x1="552.5" x2="1063.5" y1="565" y2="565"/><text fill="#000000" font-family="sans-serif" font-size="14" font-weight="bold" lengthAdjust="spacing" textLength="73" x="557.5" y="581.9951">Summary</text><text fill="#000000" font-family="sans-serif" font-size="14" lengthAdjust="spacing" textLength="402" x="557.5" y="598.292">Provides information about the fields in the Dataset profile.</text><text fill="#000000" font-family="sans-serif" font-size="14" font-weight="bold" lengthAdjust="spacing" textLength="90" x="557.5" y="614.5889">Description</text><text fill="#000000" font-family="sans-serif" font-size="14" lengthAdjust="spacing" textLength="501" x="557.5" y="630.8857">Metadata information that can be added to a dataset that may be used in</text><text fill="#000000" font-family="sans-serif" font-size="14" lengthAdjust="spacing" textLength="277" x="557.5" y="647.1826">a software or to train/test an AI package.</text><text fill="#000000" font-family="sans-serif" font-size="14" lengthAdjust="spacing" textLength="165" x="557.5" y="683.7764">Instantiability : Concrete</text><text fill="#000000" font-family="sans-serif" font-size="14" lengthAdjust="spacing" textLength="219" x="557.5" y="700.0732">SubclassOf : /Software/Package</text><text fill="#000000" font-family="sans-serif" font-size="14" lengthAdjust="spacing" textLength="106" x="557.5" y="716.3701">name : Dataset</text><line style="stroke:#181818;stroke-width:1.0;stroke-dasharray:1.0,2.0;" x1="552.5" x2="775.5" y1="662.6328" y2="662.6328"/><text fill="#000000" font-family="sans-serif" font-size="14" lengthAdjust="spacing" textLength="65" x="775.5" y="666.9795">metadata</text><line style="stroke:#181818;stroke-width:1.0;stroke-dasharray:1.0,2.0;" x1="840.5" x2="1063.5" y1="662.6328" y2="662.6328"/><text fill="#000000" font-family="sans-serif" font-size="14" font-weight="bold" lengthAdjust="spacing" textLength="213" x="557.5" y="752.9639">anonymizationMethodUsed</text><text fill="#000000" font-family="sans-serif" font-size="14" lengthAdjust="spacing" textLength="108" x="775.5" y="752.9639">: xsd:string [0..]</text><text fill="#000000" font-family="sans-serif" font-size="14" font-weight="bold" lengthAdjust="spacing" textLength="153" x="557.5" y="769.2607">confidentialityLevel</text><text fill="#000000" font-family="sans-serif" font-size="14" lengthAdjust="spacing" textLength="214" x="715.5" y="769.2607">: ConfidentialityLevelType [0..1]</text><text fill="#000000" font-family="sans-serif" font-size="14" font-weight="bold" lengthAdjust="spacing" textLength="176" x="557.5" y="785.5576">dataCollectionProcess</text><text fill="#000000" font-family="sans-serif" font-size="14" lengthAdjust="spacing" textLength="117" x="738.5" y="785.5576">: xsd:string [0..1]</text><text fill="#000000" font-family="sans-serif" font-size="14" font-weight="bold" lengthAdjust="spacing" textLength="149" x="557.5" y="801.8545">dataPreprocessing</text><text fill="#000000" font-family="sans-serif" font-size="14" lengthAdjust="spacing" textLength="108" x="711.5" y="801.8545">: xsd:string [0..]</text><text fill="#000000" font-family="sans-serif" font-size="14" font-weight="bold" lengthAdjust="spacing" textLength="142" x="557.5" y="818.1514">datasetAvailability</text><text fill="#000000" font-family="sans-serif" font-size="14" lengthAdjust="spacing" textLength="205" x="704.5" y="818.1514">: DatasetAvailabilityType [0..1]</text><text fill="#000000" font-family="sans-serif" font-size="14" font-weight="bold" lengthAdjust="spacing" textLength="103" x="557.5" y="834.4482">datasetNoise</text><text fill="#000000" font-family="sans-serif" font-size="14" lengthAdjust="spacing" textLength="117" x="665.5" y="834.4482">: xsd:string [0..1]</text><text fill="#000000" font-family="sans-serif" font-size="14" font-weight="bold" lengthAdjust="spacing" textLength="92" x="557.5" y="850.7451">datasetSize</text><text fill="#000000" font-family="sans-serif" font-size="14" lengthAdjust="spacing" textLength="214" x="654.5" y="850.7451">: xsd:nonNegativeInteger [0..1]</text><text fill="#000000" font-family="sans-serif" font-size="14" font-weight="bold" lengthAdjust="spacing" textLength="98" x="557.5" y="867.042">datasetType</text><text fill="#000000" font-family="sans-serif" font-size="14" lengthAdjust="spacing" textLength="117" x="660.5" y="867.042">: xsd:string [1..1]</text><text fill="#000000" font-family="sans-serif" font-size="14" font-weight="bold" lengthAdjust="spacing" textLength="203" x="557.5" y="883.3389">datasetUpdateMechanism</text><text fill="#000000" font-family="sans-serif" font-size="14" lengthAdjust="spacing" textLength="117" x="765.5" y="883.3389">: xsd:string [0..1]</text><text fill="#000000" font-family="sans-serif" font-size="14" font-weight="bold" lengthAdjust="spacing" textLength="100" x="557.5" y="899.6357">intendedUse</text><text fill="#000000" font-family="sans-serif" font-size="14" lengthAdjust="spacing" textLength="117" x="662.5" y="899.6357">: xsd:string [0..1]</text><text fill="#000000" font-family="sans-serif" font-size="14" font-weight="bold" lengthAdjust="spacing" textLength="85" x="557.5" y="915.9326">knownBias</text><text fill="#000000" font-family="sans-serif" font-size="14" lengthAdjust="spacing" textLength="108" x="647.5" y="915.9326">: xsd:string [0..]</text><text fill="#000000" font-family="sans-serif" font-size="14" font-weight="bold" lengthAdjust="spacing" textLength="230" x="557.5" y="932.2295">sensitivePersonalInformation</text><text fill="#000000" font-family="sans-serif" font-size="14" lengthAdjust="spacing" textLength="149" x="792.5" y="932.2295">: PresenceType [0..1]</text><text fill="#000000" font-family="sans-serif" font-size="14" font-weight="bold" lengthAdjust="spacing" textLength="55" x="557.5" y="948.5264">sensor</text><text fill="#000000" font-family="sans-serif" font-size="14" lengthAdjust="spacing" textLength="186" x="617.5" y="948.5264">: /Core/DictionaryEntry [0..]</text><line style="stroke:#181818;stroke-width:1.0;stroke-dasharray:1.0,2.0;" x1="552.5" x2="772.5" y1="731.8203" y2="731.8203"/><text fill="#000000" font-family="sans-serif" font-size="14" lengthAdjust="spacing" textLength="71" x="772.5" y="736.167">properties</text><line style="stroke:#181818;stroke-width:1.0;stroke-dasharray:1.0,2.0;" x1="843.5" x2="1063.5" y1="731.8203" y2="731.8203"/></g><!--class PresenceType--><g id="elem_PresenceType"><rect fill="#F1F1F1" height="48" id="PresenceType" rx="2.5" ry="2.5" style="stroke:#181818;stroke-width:0.5;" width="132" x="833" y="160"/><ellipse cx="848" cy="176" fill="#ADD1B2" rx="11" ry="11" style="stroke:#181818;stroke-width:1.0;"/><path d="M850.9688,181.6406 Q850.3906,181.9375 849.75,182.0781 Q849.1094,182.2344 848.4063,182.2344 Q845.9063,182.2344 844.5781,180.5938 Q843.2656,178.9375 843.2656,175.8125 Q843.2656,172.6875 844.5781,171.0313 Q845.9063,169.375 848.4063,169.375 Q849.1094,169.375 849.75,169.5313 Q850.4063,169.6875 850.9688,169.9844 L850.9688,172.7031 Q850.3438,172.125 849.75,171.8594 Q849.1563,171.5781 848.5313,171.5781 Q847.1875,171.5781 846.5,172.6563 Q845.8125,173.7188 845.8125,175.8125 Q845.8125,177.9063 846.5,178.9844 Q847.1875,180.0469 848.5313,180.0469 Q849.1563,180.0469 849.75,179.7813 Q850.3438,179.5 850.9688,178.9219 L850.9688,181.6406 Z " fill="#000000"/><text fill="#000000" font-family="sans-serif" font-size="14" lengthAdjust="spacing" textLength="100" x="862" y="180.8467">PresenceType</text><line style="stroke:#181818;stroke-width:0.5;" x1="834" x2="964" y1="192" y2="192"/><line style="stroke:#181818;stroke-width:0.5;" x1="834" x2="964" y1="200" y2="200"/></g><!--class /Core/DictionaryEntry--><g id="elem_/Core/DictionaryEntry"><rect fill="#F1F1F1" height="48" id="/Core/DictionaryEntry" rx="2.5" ry="2.5" style="stroke:#181818;stroke-width:0.5;" width="178" x="620" y="160"/><ellipse cx="635" cy="176" fill="#ADD1B2" rx="11" ry="11" style="stroke:#181818;stroke-width:1.0;"/><path d="M637.9688,181.6406 Q637.3906,181.9375 636.75,182.0781 Q636.1094,182.2344 635.4063,182.2344 Q632.9063,182.2344 631.5781,180.5938 Q630.2656,178.9375 630.2656,175.8125 Q630.2656,172.6875 631.5781,171.0313 Q632.9063,169.375 635.4063,169.375 Q636.1094,169.375 636.75,169.5313 Q637.4063,169.6875 637.9688,169.9844 L637.9688,172.7031 Q637.3438,172.125 636.75,171.8594 Q636.1563,171.5781 635.5313,171.5781 Q634.1875,171.5781 633.5,172.6563 Q632.8125,173.7188 632.8125,175.8125 Q632.8125,177.9063 633.5,178.9844 Q634.1875,180.0469 635.5313,180.0469 Q636.1563,180.0469 636.75,179.7813 Q637.3438,179.5 637.9688,178.9219 L637.9688,181.6406 Z " fill="#000000"/><text fill="#000000" font-family="sans-serif" font-size="14" lengthAdjust="spacing" textLength="146" x="649" y="180.8467">/Core/DictionaryEntry</text><line style="stroke:#181818;stroke-width:0.5;" x1="621" x2="797" y1="192" y2="192"/><line style="stroke:#181818;stroke-width:0.5;" x1="621" x2="797" y1="200" y2="200"/></g><!--class /Software/Package--><g id="elem_/Software/Package"><rect fill="#F1F1F1" height="48" id="/Software/Package" rx="2.5" ry="2.5" style="stroke:#181818;stroke-width:0.5;" width="161" x="1089.5" y="421"/><ellipse cx="1104.5" cy="437" fill="#ADD1B2" rx="11" ry="11" style="stroke:#181818;stroke-width:1.0;"/><path d="M1107.4688,442.6406 Q1106.8906,442.9375 1106.25,443.0781 Q1105.6094,443.2344 1104.9063,443.2344 Q1102.4063,443.2344 1101.0781,441.5938 Q1099.7656,439.9375 1099.7656,436.8125 Q1099.7656,433.6875 1101.0781,432.0313 Q1102.4063,430.375 1104.9063,430.375 Q1105.6094,430.375 1106.25,430.5313 Q1106.9063,430.6875 1107.4688,430.9844 L1107.4688,433.7031 Q1106.8438,433.125 1106.25,432.8594 Q1105.6563,432.5781 1105.0313,432.5781 Q1103.6875,432.5781 1103,433.6563 Q1102.3125,434.7188 1102.3125,436.8125 Q1102.3125,438.9063 1103,439.9844 Q1103.6875,441.0469 1105.0313,441.0469 Q1105.6563,441.0469 1106.25,440.7813 Q1106.8438,440.5 1107.4688,439.9219 L1107.4688,442.6406 Z " fill="#000000"/><text fill="#000000" font-family="sans-serif" font-size="14" lengthAdjust="spacing" textLength="129" x="1118.5" y="441.8467">/Software/Package</text><line style="stroke:#181818;stroke-width:0.5;" x1="1090.5" x2="1249.5" y1="453" y2="453"/><line style="stroke:#181818;stroke-width:0.5;" x1="1090.5" x2="1249.5" y1="461" y2="461"/></g><!--reverse link ConfidentialityLevelType to Dataset--><g id="link_ConfidentialityLevelType_Dataset"><path codeLine="66" d="M274.22,310.53 C291.57,480.8 350.55,764 551,764 " fill="none" id="ConfidentialityLevelType-backto-Dataset" style="stroke:#181818;stroke-width:4.0;stroke-dasharray:7.0,7.0;"/><polygon fill="#181818" points="273.75,305.77,270.6707,315.1251,274.2503,310.7449,278.6306,314.3245,273.75,305.77" style="stroke:#181818;stroke-width:4.0;"/></g><!--reverse link DatasetAvailabilityType to Dataset--><g id="link_DatasetAvailabilityType_Dataset"><path codeLine="67" d="M1385.06,367.47 C1352.43,552.89 1270.26,813 1066,813 " fill="none" id="DatasetAvailabilityType-backto-Dataset" style="stroke:#181818;stroke-width:4.0;stroke-dasharray:7.0,7.0;"/><polygon fill="#181818" points="1385.89,362.68,1380.4071,370.8615,1385.0333,367.6061,1388.2888,372.2323,1385.89,362.68" style="stroke:#181818;stroke-width:4.0;"/></g><!--reverse link PresenceType to Dataset--><g id="link_PresenceType_Dataset"><path codeLine="68" d="M918.08,213.86 C1006.98,350.65 1363.92,927 1066,927 " fill="none" id="PresenceType-backto-Dataset" style="stroke:#181818;stroke-width:4.0;stroke-dasharray:7.0,7.0;"/><polygon fill="#181818" points="915.37,209.7,916.9339,219.4239,918.1005,213.8886,923.6357,215.0551,915.37,209.7" style="stroke:#181818;stroke-width:4.0;"/></g><!--reverse link /Core/DictionaryEntry to Dataset--><g id="link_/Core/DictionaryEntry_Dataset"><path codeLine="69" d="M690.62,213.58 C603.3,351.64 247.04,943 551,943 " fill="none" id="/Core/DictionaryEntry-backto-Dataset" style="stroke:#181818;stroke-width:4.0;stroke-dasharray:7.0,7.0;"/><polygon fill="#181818" points="693.28,209.38,685.0782,214.8326,690.5993,213.6007,691.8313,219.1217,693.28,209.38" style="stroke:#181818;stroke-width:4.0;"/></g><!--reverse link /Software/Package to Dataset--><g id="link_/Software/Package_Dataset"><path codeLine="71" d="M1125.03,482.89 C1109.03,496.02 1089.67,511.9 1068.51,529.27 " fill="none" id="/Software/Package-backto-Dataset" style="stroke:#181818;stroke-width:4.0;"/><polygon fill="none" points="1120.52,477.54,1140.42,470.27,1129.4,488.36,1120.52,477.54" style="stroke:#181818;stroke-width:4.0;"/></g><!--SRC=[bLRRZjis47tNLn1-IGkivGReax4DiBMBOe4atTR9qs8HKDB88YoH2acjgrp-lMUeoygnzj9zyeepPyxCd1dI7PIkfPMLg6Lwa7lQ-ROaOIdrKkzBYXnvuOXDlB526qtHAt5lKfaqfRHjHBgfnCReN6MalPAbykrRkgVoGrkJ-1fT9czsJLN1z7ALl8asqjFUM4LEc5oaftwYPCUOVRRaKgjghumEVjt_2TnyGI9JUKuMVlC8JaWdzkgUj4ZQu73xmSeyLsdqLkqBBswiyIOrvTrFXVUrMwzMfEEZEgYQCYLZO_Sh_c_LUtqANfy6hv_ZA8u5OeOquZWI-0FdgoeXospNOYkz5BLHsZkXTCSPdxYOgGGh4gwGbZ9XTDcAe_A5S3MbYYaYkjJgY-JSaOdEs5rPaPQA6Cze8OKcE7iZ3jeSHIATSYEDJKboGeDZLhBbc9bou9mq7hwv9IhRYn3RD1uTvxEKWuv8Vy96doATicTdnNHIKrMDvWQWgpMHxOX3DbxZdn7n7ygUBH2GHO62ep3JxWP03XzAba2P3no4bXL-GhMg3aMAe- -TCdlUL_TIbJ9Hh95vOKujE8cUpVDQh8rpAi7CUE06LSiVeEG0Te5KCvMYiteV7Gk2kvtJHgPu_f1bPewwD3AZx68uayvHXN2PQ1nWX8mwSYB7UEAdhFdh08g8hYjOJmeyPUuHLhAUqeClh6dsXJ0sagZVdXKIbCTurID2tqmyktPEaq14RRoecmHcfv5FEoXacXBIoJfA4S-QhH0T8zo6mzg7PCXMlUnFE1yfgR6nHbhRKBRbjY_QBBCdM77XntgFFHZH_sweayeBC2y4XYnKGPOGhWVv51z_LF2O_v3HPyJWKXyBbHPeXs-i3aCKT3K9EnceXvRztrQ02LNuSDftvI9Bdnl5ivKGL33qQQgh86PPykhWHlGx182J7aPT1oLI3-ovYoFlNQ_KvIwezvnwRSqzHjyEELJo4EG-Pi36ZOP5sV81-mtBCXf0giPvxgkbSMmkU4unWoNAqOmvzT4oyJ1CqTamyL9v1GaobekysNS3_3KAdyOLURPQRZfmNdGyL5sPPS8LO-XSKPcDMt3xa7-kIfgz3D-Hbo7VAQ0lvBX0P9PrryEuUhhZ_XveM7DAO-AToVsH5owM1yoX0QLN7bS1z_BgUdWKX3rG3L7xHN2j7PgBrTnlkZK_0rA8biBnhab2NVxASRBQzO5MDnrYCE6jBSQxXMCWwvgiFrqt4g-EjkflHEHUcEmZPz29vb-NhVdgGgDkVudZky4hdNcJz2wFFbSOuFM8mCbkJ5bIk1NHHPw2-QYdJZUMwiwQpv-ccPrVKEBaoZsxkixZmUgzKOvUmWssE_LbQehglgTz6DbhZTSP93th5eAVHtWzO_gnnWzwHsc1buohdkE5Lm1XahchpvdoUqV_hgHxfgoEj5ESqWsU7qRBydeoAfqhkWIhb6QAojwOYCvkjS4EN6sxjn5c-W_SXsqVxNkqU4nC2t6vlCsaAx1py4fA3nfw-EtNk-LIBFhMhjTp8br4YqTQ_oB86K41SPhiYs2UAY3mPeloOc1Z5rowiwq0W6_BsnFNqNFn7m00]--></g></svg>