<?xml version="1.0" encoding="us-ascii" standalone="no"?><svg xmlns="http://www.w3.org/2000/svg" xmlns:xlink="http://www.w3.org/1999/xlink" contentStyleType="text/css" height="258px" preserveAspectRatio="none" style="width:152px;height:258px;background:#FFFFFF;" version="1.1" viewBox="0 0 152 258" width="152px" zoomAndPan="magnify"><defs/><g><!--class AnnotationType--><g id="elem_AnnotationType"><rect codeLine="1" fill="#F1F1F1" height="86.1358" id="AnnotationType" rx="2.5" ry="2.5" style="stroke:#181818;stroke-width:0.5;" width="138" x="7" y="165"/><ellipse cx="22" cy="181" fill="#EB937F" rx="11" ry="11" style="stroke:#181818;stroke-width:1.0;"/><path d="M18.3906,175.1094 L26.1094,175.1094 L26.1094,177.2656 L20.8438,177.2656 L20.8438,179.9375 L25.6094,179.9375 L25.6094,182.0938 L20.8438,182.0938 L20.8438,185.3438 L26.1094,185.3438 L26.1094,187.5 L18.3906,187.5 L18.3906,175.1094 Z " fill="#000000"/><text fill="#000000" font-family="sans-serif" font-size="14" lengthAdjust="spacing" textLength="106" x="36" y="186.432">AnnotationType</text><line style="stroke:#181818;stroke-width:0.5;" x1="8" x2="144" y1="197" y2="197"/><text fill="#000000" font-family="sans-serif" font-size="14" lengthAdjust="spacing" textLength="36" x="13" y="215.9659">other</text><text fill="#000000" font-family="sans-serif" font-size="14" lengthAdjust="spacing" textLength="42" x="13" y="235.0339">review</text><line style="stroke:#181818;stroke-width:0.5;" x1="8" x2="144" y1="243.1358" y2="243.1358"/></g><g id="elem_GMN3"><path d="M25,6 L25,104.5301 A0,0 0 0 0 25,104.5301 L72,104.5301 L76,164.95 L80,104.5301 L127,104.5301 A0,0 0 0 0 127,104.5301 L127,16 L117,6 L25,6 A0,0 0 0 0 25,6 " fill="#FEFFDD" style="stroke:#181818;stroke-width:0.5;"/><path d="M117,6 L117,16 L127,16 L117,6 " fill="#FEFFDD" style="stroke:#181818;stroke-width:0.5;"/><text fill="#000000" font-family="sans-serif" font-size="13" font-weight="bold" lengthAdjust="spacing" textLength="62" x="31" y="24.897">Summary</text><text fill="#000000" font-family="sans-serif" font-size="13" lengthAdjust="spacing" textLength="38" x="31" y="42.603">TODO</text><text fill="#000000" font-family="sans-serif" font-size="13" font-weight="bold" lengthAdjust="spacing" textLength="81" x="31" y="60.309">Description</text><text fill="#000000" font-family="sans-serif" font-size="13" lengthAdjust="spacing" textLength="38" x="31" y="78.0151">TODO</text><text fill="#000000" font-family="sans-serif" font-size="13" lengthAdjust="spacing" textLength="3" x="31" y="95.7211">&#160;</text></g><!--SRC=[IyqhpLLmpClBBqaioSpF2waiI5Mevb80WloIZDGYCAiejImpjPohbWkeAbMX9Bz08JyDJG-NJP9TS6bkRc9HfOr-aXrNYB-BFqZC9RKukIYp0AGC8SwLcfUY038B0000]--></g></svg>