<?xml version="1.0" encoding="us-ascii" standalone="no"?><svg xmlns="http://www.w3.org/2000/svg" xmlns:xlink="http://www.w3.org/1999/xlink" contentStyleType="text/css" height="258px" preserveAspectRatio="none" style="width:355px;height:258px;background:#FFFFFF;" version="1.1" viewBox="0 0 355 258" width="355px" zoomAndPan="magnify"><defs/><g><!--class AnnotationType--><g id="elem_AnnotationType"><rect codeLine="1" fill="#F1F1F1" height="86.1358" id="AnnotationType" rx="2.5" ry="2.5" style="stroke:#181818;stroke-width:0.5;" width="179" x="7" y="165"/><ellipse cx="40.45" cy="181" fill="#EB937F" rx="11" ry="11" style="stroke:#181818;stroke-width:1.0;"/><path d="M36.8406,175.1094 L44.5594,175.1094 L44.5594,177.2656 L39.2938,177.2656 L39.2938,179.9375 L44.0594,179.9375 L44.0594,182.0938 L39.2938,182.0938 L39.2938,185.3438 L44.5594,185.3438 L44.5594,187.5 L36.8406,187.5 L36.8406,175.1094 Z " fill="#000000"/><text fill="#000000" font-family="sans-serif" font-size="14" lengthAdjust="spacing" textLength="106" x="58.55" y="186.432">AnnotationType</text><line style="stroke:#181818;stroke-width:0.5;" x1="8" x2="185" y1="197" y2="197"/><text fill="#000000" font-family="sans-serif" font-size="14" lengthAdjust="spacing" textLength="161" x="13" y="215.9659">other : TODOdescription</text><text fill="#000000" font-family="sans-serif" font-size="14" lengthAdjust="spacing" textLength="167" x="13" y="235.0339">review : TODOdescription</text><line style="stroke:#181818;stroke-width:0.5;" x1="8" x2="185" y1="243.1358" y2="243.1358"/></g><g id="elem_GMN3"><path d="M45.5,6 L45.5,104.5301 A0,0 0 0 0 45.5,104.5301 L92.5,104.5301 L96.5,164.95 L100.5,104.5301 L147.5,104.5301 A0,0 0 0 0 147.5,104.5301 L147.5,16 L137.5,6 L45.5,6 A0,0 0 0 0 45.5,6 " fill="#FEFFDD" style="stroke:#181818;stroke-width:0.5;"/><path d="M137.5,6 L137.5,16 L147.5,16 L137.5,6 " fill="#FEFFDD" style="stroke:#181818;stroke-width:0.5;"/><text fill="#000000" font-family="sans-serif" font-size="13" font-weight="bold" lengthAdjust="spacing" textLength="62" x="51.5" y="24.897">Summary</text><text fill="#000000" font-family="sans-serif" font-size="13" lengthAdjust="spacing" textLength="38" x="51.5" y="42.603">TODO</text><text fill="#000000" font-family="sans-serif" font-size="13" font-weight="bold" lengthAdjust="spacing" textLength="81" x="51.5" y="60.309">Description</text><text fill="#000000" font-family="sans-serif" font-size="13" lengthAdjust="spacing" textLength="38" x="51.5" y="78.0151">TODO</text><text fill="#000000" font-family="sans-serif" font-size="13" lengthAdjust="spacing" textLength="3" x="51.5" y="95.7211">&#160;</text></g><path d="M221,170.5 L221,180.353 L174,210.534 L221,188.353 L221,198.206 A0,0 0 0 0 221,198.206 L348,198.206 A0,0 0 0 0 348,198.206 L348,180.5 L338,170.5 L221,170.5 A0,0 0 0 0 221,170.5 " fill="#FEFFDD" style="stroke:#181818;stroke-width:0.5;"/><path d="M338,170.5 L338,180.5 L348,180.5 L338,170.5 " fill="#FEFFDD" style="stroke:#181818;stroke-width:0.5;"/><text fill="#000000" font-family="sans-serif" font-size="13" lengthAdjust="spacing" textLength="106" x="227" y="189.397">TODOdescription</text><path d="M221,208.206 L221,218.059 L180,229.6019 L221,226.059 L221,235.912 A0,0 0 0 0 221,235.912 L348,235.912 A0,0 0 0 0 348,235.912 L348,218.206 L338,208.206 L221,208.206 A0,0 0 0 0 221,208.206 " fill="#FEFFDD" style="stroke:#181818;stroke-width:0.5;"/><path d="M338,208.206 L338,218.206 L348,218.206 L338,208.206 " fill="#FEFFDD" style="stroke:#181818;stroke-width:0.5;"/><text fill="#000000" font-family="sans-serif" font-size="13" lengthAdjust="spacing" textLength="106" x="227" y="227.103">TODOdescription</text><!--SRC=[XOmn3eCm40Hxl-BuWEdfaDBJeBJ8iJVX9EVEEkn4-NsWf4cst9sTZYNcbh2eH93t_LLZkBKSZB7reuZMK5bb_XJuqfxPxGt8-B5MqZkTYM7Gki8SxPcdovImHUDop0wIwFZ-4HXUZFTFmnS0]--></g></svg>