<?xml version="1.0" encoding="us-ascii" standalone="no"?><svg xmlns="http://www.w3.org/2000/svg" xmlns:xlink="http://www.w3.org/1999/xlink" contentStyleType="text/css" height="258px" preserveAspectRatio="none" style="width:193px;height:258px;background:#FFFFFF;" version="1.1" viewBox="0 0 193 258" width="193px" zoomAndPan="magnify"><defs/><g><!--class AnnotationType--><g id="elem_AnnotationType"><rect codeLine="1" fill="#F1F1F1" height="86.1358" id="AnnotationType" rx="2.5" ry="2.5" style="stroke:#181818;stroke-width:0.5;" width="179" x="7" y="165"/><ellipse cx="40.45" cy="181" fill="#EB937F" rx="11" ry="11" style="stroke:#181818;stroke-width:1.0;"/><path d="M36.8406,175.1094 L44.5594,175.1094 L44.5594,177.2656 L39.2938,177.2656 L39.2938,179.9375 L44.0594,179.9375 L44.0594,182.0938 L39.2938,182.0938 L39.2938,185.3438 L44.5594,185.3438 L44.5594,187.5 L36.8406,187.5 L36.8406,175.1094 Z " fill="#000000"/><text fill="#000000" font-family="sans-serif" font-size="14" lengthAdjust="spacing" textLength="106" x="58.55" y="186.432">AnnotationType</text><line style="stroke:#181818;stroke-width:0.5;" x1="8" x2="185" y1="197" y2="197"/><text fill="#000000" font-family="sans-serif" font-size="14" lengthAdjust="spacing" textLength="161" x="13" y="215.9659">other : TODOdescription</text><text fill="#000000" font-family="sans-serif" font-size="14" lengthAdjust="spacing" textLength="167" x="13" y="235.0339">review : TODOdescription</text><line style="stroke:#181818;stroke-width:0.5;" x1="8" x2="185" y1="243.1358" y2="243.1358"/></g><g id="elem_GMN3"><path d="M45.5,6 L45.5,104.5301 A0,0 0 0 0 45.5,104.5301 L92.5,104.5301 L96.5,164.95 L100.5,104.5301 L147.5,104.5301 A0,0 0 0 0 147.5,104.5301 L147.5,16 L137.5,6 L45.5,6 A0,0 0 0 0 45.5,6 " fill="#FEFFDD" style="stroke:#181818;stroke-width:0.5;"/><path d="M137.5,6 L137.5,16 L147.5,16 L137.5,6 " fill="#FEFFDD" style="stroke:#181818;stroke-width:0.5;"/><text fill="#000000" font-family="sans-serif" font-size="13" font-weight="bold" lengthAdjust="spacing" textLength="62" x="51.5" y="24.897">Summary</text><text fill="#000000" font-family="sans-serif" font-size="13" lengthAdjust="spacing" textLength="38" x="51.5" y="42.603">TODO</text><text fill="#000000" font-family="sans-serif" font-size="13" font-weight="bold" lengthAdjust="spacing" textLength="81" x="51.5" y="60.309">Description</text><text fill="#000000" font-family="sans-serif" font-size="13" lengthAdjust="spacing" textLength="38" x="51.5" y="78.0151">TODO</text><text fill="#000000" font-family="sans-serif" font-size="13" lengthAdjust="spacing" textLength="3" x="51.5" y="95.7211">&#160;</text></g><!--SRC=[IyqhpLLmpClBBqaioSpF2waiI5Mevb80WloIZDGY1Ik547yN_vJKukIYp0AG2h1SKMfPPcev5ibQBg19gGeb-GKA-MbevdBP9Da5b-Rc9XPLskWdsN61z8B4N13w4U9SgNaf2Y2p0000]--></g></svg>