<?xml version="1.0" encoding="us-ascii" standalone="no"?><svg xmlns="http://www.w3.org/2000/svg" xmlns:xlink="http://www.w3.org/1999/xlink" contentStyleType="text/css" height="391px" preserveAspectRatio="none" style="width:190px;height:391px;background:#FFFFFF;" version="1.1" viewBox="0 0 190 391" width="190px" zoomAndPan="magnify"><defs/><g><!--class ExternalIdentifierType--><g id="elem_ExternalIdentifierType"><rect codeLine="1" fill="#F1F1F1" height="219.6113" id="ExternalIdentifierType" rx="2.5" ry="2.5" style="stroke:#181818;stroke-width:0.5;" width="176" x="7" y="165"/><ellipse cx="22" cy="181" fill="#EB937F" rx="11" ry="11" style="stroke:#181818;stroke-width:1.0;"/><path d="M18.3906,175.1094 L26.1094,175.1094 L26.1094,177.2656 L20.8438,177.2656 L20.8438,179.9375 L25.6094,179.9375 L25.6094,182.0938 L20.8438,182.0938 L20.8438,185.3438 L26.1094,185.3438 L26.1094,187.5 L18.3906,187.5 L18.3906,175.1094 Z " fill="#000000"/><text fill="#000000" font-family="sans-serif" font-size="14" lengthAdjust="spacing" textLength="144" x="36" y="186.432">ExternalIdentifierType</text><line style="stroke:#181818;stroke-width:0.5;" x1="8" x2="182" y1="197" y2="197"/><text fill="#000000" font-family="sans-serif" font-size="14" lengthAdjust="spacing" textLength="39" x="13" y="215.9659">cpe22</text><text fill="#000000" font-family="sans-serif" font-size="14" lengthAdjust="spacing" textLength="39" x="13" y="235.0339">cpe23</text><text fill="#000000" font-family="sans-serif" font-size="14" lengthAdjust="spacing" textLength="35" x="13" y="254.1018">email</text><text fill="#000000" font-family="sans-serif" font-size="14" lengthAdjust="spacing" textLength="37" x="13" y="273.1697">gitoid</text><text fill="#000000" font-family="sans-serif" font-size="14" lengthAdjust="spacing" textLength="36" x="13" y="292.2376">other</text><text fill="#000000" font-family="sans-serif" font-size="14" lengthAdjust="spacing" textLength="40" x="13" y="311.3055">pkgUrl</text><text fill="#000000" font-family="sans-serif" font-size="14" lengthAdjust="spacing" textLength="37" x="13" y="330.3734">swhid</text><text fill="#000000" font-family="sans-serif" font-size="14" lengthAdjust="spacing" textLength="29" x="13" y="349.4414">swid</text><text fill="#000000" font-family="sans-serif" font-size="14" lengthAdjust="spacing" textLength="68" x="13" y="368.5093">urlScheme</text><line style="stroke:#181818;stroke-width:0.5;" x1="8" x2="182" y1="376.6113" y2="376.6113"/></g><g id="elem_GMN3"><path d="M44,6 L44,104.5301 A0,0 0 0 0 44,104.5301 L91,104.5301 L95,164.9 L99,104.5301 L146,104.5301 A0,0 0 0 0 146,104.5301 L146,16 L136,6 L44,6 A0,0 0 0 0 44,6 " fill="#FEFFDD" style="stroke:#181818;stroke-width:0.5;"/><path d="M136,6 L136,16 L146,16 L136,6 " fill="#FEFFDD" style="stroke:#181818;stroke-width:0.5;"/><text fill="#000000" font-family="sans-serif" font-size="13" font-weight="bold" lengthAdjust="spacing" textLength="62" x="50" y="24.897">Summary</text><text fill="#000000" font-family="sans-serif" font-size="13" lengthAdjust="spacing" textLength="38" x="50" y="42.603">TODO</text><text fill="#000000" font-family="sans-serif" font-size="13" font-weight="bold" lengthAdjust="spacing" textLength="81" x="50" y="60.309">Description</text><text fill="#000000" font-family="sans-serif" font-size="13" lengthAdjust="spacing" textLength="38" x="50" y="78.0151">TODO</text><text fill="#000000" font-family="sans-serif" font-size="13" lengthAdjust="spacing" textLength="3" x="50" y="95.7211">&#160;</text></g><!--SRC=[TSuz3e9040NWVa-nDp31bb1XOKK17W2M1qnaVp8C0MAykx8IhPpgotl9oy3DLbzM0RjwlBPmGXs1gor0FvH-dmb8ag_EKR0rZL4zYQSsqii0ZWht_iQVVbg6evwM0pEFfHbWePxAUO4M7xJl_doXqYOhPsjhtj9Jawcgo8izop4PfY3atIzNSAtUDry0]--></g></svg>