<?xml version="1.0" encoding="us-ascii" standalone="no"?><svg xmlns="http://www.w3.org/2000/svg" xmlns:xlink="http://www.w3.org/1999/xlink" contentStyleType="text/css" height="501px" preserveAspectRatio="none" style="width:381px;height:501px;background:#FFFFFF;" version="1.1" viewBox="0 0 381 501" width="381px" zoomAndPan="magnify"><defs/><g><!--class ExternalIdentifierType--><g id="elem_ExternalIdentifierType"><rect codeLine="1" fill="#F1F1F1" height="219.6113" id="ExternalIdentifierType" rx="2.5" ry="2.5" style="stroke:#181818;stroke-width:0.5;" width="205" x="7" y="224.5"/><ellipse cx="35.05" cy="240.5" fill="#EB937F" rx="11" ry="11" style="stroke:#181818;stroke-width:1.0;"/><path d="M31.4406,234.6094 L39.1594,234.6094 L39.1594,236.7656 L33.8938,236.7656 L33.8938,239.4375 L38.6594,239.4375 L38.6594,241.5938 L33.8938,241.5938 L33.8938,244.8438 L39.1594,244.8438 L39.1594,247 L31.4406,247 L31.4406,234.6094 Z " fill="#000000"/><text fill="#000000" font-family="sans-serif" font-size="14" lengthAdjust="spacing" textLength="144" x="51.95" y="245.932">ExternalIdentifierType</text><line style="stroke:#181818;stroke-width:0.5;" x1="8" x2="211" y1="256.5" y2="256.5"/><text fill="#000000" font-family="sans-serif" font-size="14" lengthAdjust="spacing" textLength="164" x="13" y="275.4659">cpe22 : TODOdescription</text><text fill="#000000" font-family="sans-serif" font-size="14" lengthAdjust="spacing" textLength="164" x="13" y="294.5339">cpe23 : TODOdescription</text><text fill="#000000" font-family="sans-serif" font-size="14" lengthAdjust="spacing" textLength="160" x="13" y="313.6018">email : TODOdescription</text><text fill="#000000" font-family="sans-serif" font-size="14" lengthAdjust="spacing" textLength="162" x="13" y="332.6697">gitoid : TODOdescription</text><text fill="#000000" font-family="sans-serif" font-size="14" lengthAdjust="spacing" textLength="161" x="13" y="351.7376">other : TODOdescription</text><text fill="#000000" font-family="sans-serif" font-size="14" lengthAdjust="spacing" textLength="165" x="13" y="370.8055">pkgUrl : TODOdescription</text><text fill="#000000" font-family="sans-serif" font-size="14" lengthAdjust="spacing" textLength="162" x="13" y="389.8734">swhid : TODOdescription</text><text fill="#000000" font-family="sans-serif" font-size="14" lengthAdjust="spacing" textLength="154" x="13" y="408.9414">swid : TODOdescription</text><text fill="#000000" font-family="sans-serif" font-size="14" lengthAdjust="spacing" textLength="193" x="13" y="428.0093">urlScheme : TODOdescription</text><line style="stroke:#181818;stroke-width:0.5;" x1="8" x2="211" y1="436.1113" y2="436.1113"/></g><g id="elem_GMN3"><path d="M58.5,6 L58.5,104.5301 A0,0 0 0 0 58.5,104.5301 L105.5,104.5301 L109.5,224.24 L113.5,104.5301 L160.5,104.5301 A0,0 0 0 0 160.5,104.5301 L160.5,16 L150.5,6 L58.5,6 A0,0 0 0 0 58.5,6 " fill="#FEFFDD" style="stroke:#181818;stroke-width:0.5;"/><path d="M150.5,6 L150.5,16 L160.5,16 L150.5,6 " fill="#FEFFDD" style="stroke:#181818;stroke-width:0.5;"/><text fill="#000000" font-family="sans-serif" font-size="13" font-weight="bold" lengthAdjust="spacing" textLength="62" x="64.5" y="24.897">Summary</text><text fill="#000000" font-family="sans-serif" font-size="13" lengthAdjust="spacing" textLength="38" x="64.5" y="42.603">TODO</text><text fill="#000000" font-family="sans-serif" font-size="13" font-weight="bold" lengthAdjust="spacing" textLength="81" x="64.5" y="60.309">Description</text><text fill="#000000" font-family="sans-serif" font-size="13" lengthAdjust="spacing" textLength="38" x="64.5" y="78.0151">TODO</text><text fill="#000000" font-family="sans-serif" font-size="13" lengthAdjust="spacing" textLength="3" x="64.5" y="95.7211">&#160;</text></g><path d="M247,165 L247,174.853 L177,270.034 L247,182.853 L247,192.706 A0,0 0 0 0 247,192.706 L374,192.706 A0,0 0 0 0 374,192.706 L374,175 L364,165 L247,165 A0,0 0 0 0 247,165 " fill="#FEFFDD" style="stroke:#181818;stroke-width:0.5;"/><path d="M364,165 L364,175 L374,175 L364,165 " fill="#FEFFDD" style="stroke:#181818;stroke-width:0.5;"/><text fill="#000000" font-family="sans-serif" font-size="13" lengthAdjust="spacing" textLength="106" x="253" y="183.897">TODOdescription</text><path d="M247,202.706 L247,212.559 L177,289.1019 L247,220.559 L247,230.412 A0,0 0 0 0 247,230.412 L374,230.412 A0,0 0 0 0 374,230.412 L374,212.706 L364,202.706 L247,202.706 A0,0 0 0 0 247,202.706 " fill="#FEFFDD" style="stroke:#181818;stroke-width:0.5;"/><path d="M364,202.706 L364,212.706 L374,212.706 L364,202.706 " fill="#FEFFDD" style="stroke:#181818;stroke-width:0.5;"/><text fill="#000000" font-family="sans-serif" font-size="13" lengthAdjust="spacing" textLength="106" x="253" y="221.603">TODOdescription</text><path d="M247,240.412 L247,250.265 L173,308.1698 L247,258.265 L247,268.118 A0,0 0 0 0 247,268.118 L374,268.118 A0,0 0 0 0 374,268.118 L374,250.412 L364,240.412 L247,240.412 A0,0 0 0 0 247,240.412 " fill="#FEFFDD" style="stroke:#181818;stroke-width:0.5;"/><path d="M364,240.412 L364,250.412 L374,250.412 L364,240.412 " fill="#FEFFDD" style="stroke:#181818;stroke-width:0.5;"/><text fill="#000000" font-family="sans-serif" font-size="13" lengthAdjust="spacing" textLength="106" x="253" y="259.309">TODOdescription</text><path d="M247,278.118 L247,287.9711 L175,327.2377 L247,295.9711 L247,305.8241 A0,0 0 0 0 247,305.8241 L374,305.8241 A0,0 0 0 0 374,305.8241 L374,288.118 L364,278.118 L247,278.118 A0,0 0 0 0 247,278.118 " fill="#FEFFDD" style="stroke:#181818;stroke-width:0.5;"/><path d="M364,278.118 L364,288.118 L374,288.118 L364,278.118 " fill="#FEFFDD" style="stroke:#181818;stroke-width:0.5;"/><text fill="#000000" font-family="sans-serif" font-size="13" lengthAdjust="spacing" textLength="106" x="253" y="297.0151">TODOdescription</text><path d="M247,315.8241 L247,325.6771 L174,346.3056 L247,333.6771 L247,343.5301 A0,0 0 0 0 247,343.5301 L374,343.5301 A0,0 0 0 0 374,343.5301 L374,325.8241 L364,315.8241 L247,315.8241 A0,0 0 0 0 247,315.8241 " fill="#FEFFDD" style="stroke:#181818;stroke-width:0.5;"/><path d="M364,315.8241 L364,325.8241 L374,325.8241 L364,315.8241 " fill="#FEFFDD" style="stroke:#181818;stroke-width:0.5;"/><text fill="#000000" font-family="sans-serif" font-size="13" lengthAdjust="spacing" textLength="106" x="253" y="334.7211">TODOdescription</text><path d="M247,353.5301 L247,363.3831 L178,365.3735 L247,371.3831 L247,381.2361 A0,0 0 0 0 247,381.2361 L374,381.2361 A0,0 0 0 0 374,381.2361 L374,363.5301 L364,353.5301 L247,353.5301 A0,0 0 0 0 247,353.5301 " fill="#FEFFDD" style="stroke:#181818;stroke-width:0.5;"/><path d="M364,353.5301 L364,363.5301 L374,363.5301 L364,353.5301 " fill="#FEFFDD" style="stroke:#181818;stroke-width:0.5;"/><text fill="#000000" font-family="sans-serif" font-size="13" lengthAdjust="spacing" textLength="106" x="253" y="372.4271">TODOdescription</text><path d="M247,391.2361 L247,401.0891 L175,384.4415 L247,409.0891 L247,418.9421 A0,0 0 0 0 247,418.9421 L374,418.9421 A0,0 0 0 0 374,418.9421 L374,401.2361 L364,391.2361 L247,391.2361 A0,0 0 0 0 247,391.2361 " fill="#FEFFDD" style="stroke:#181818;stroke-width:0.5;"/><path d="M364,391.2361 L364,401.2361 L374,401.2361 L364,391.2361 " fill="#FEFFDD" style="stroke:#181818;stroke-width:0.5;"/><text fill="#000000" font-family="sans-serif" font-size="13" lengthAdjust="spacing" textLength="106" x="253" y="410.1331">TODOdescription</text><path d="M247,428.9421 L247,438.7951 L167,403.5094 L247,446.7951 L247,456.6481 A0,0 0 0 0 247,456.6481 L374,456.6481 A0,0 0 0 0 374,456.6481 L374,438.9421 L364,428.9421 L247,428.9421 A0,0 0 0 0 247,428.9421 " fill="#FEFFDD" style="stroke:#181818;stroke-width:0.5;"/><path d="M364,428.9421 L364,438.9421 L374,438.9421 L364,428.9421 " fill="#FEFFDD" style="stroke:#181818;stroke-width:0.5;"/><text fill="#000000" font-family="sans-serif" font-size="13" lengthAdjust="spacing" textLength="106" x="253" y="447.8391">TODOdescription</text><path d="M247,466.6481 L247,476.5011 L206,422.5773 L247,484.5011 L247,494.3541 A0,0 0 0 0 247,494.3541 L374,494.3541 A0,0 0 0 0 374,494.3541 L374,476.6481 L364,466.6481 L247,466.6481 A0,0 0 0 0 247,466.6481 " fill="#FEFFDD" style="stroke:#181818;stroke-width:0.5;"/><path d="M364,466.6481 L364,476.6481 L374,476.6481 L364,466.6481 " fill="#FEFFDD" style="stroke:#181818;stroke-width:0.5;"/><text fill="#000000" font-family="sans-serif" font-size="13" lengthAdjust="spacing" textLength="106" x="253" y="485.5451">TODOdescription</text><!--SRC=[hS-z2i8m5CNnlKyHNw25kdNMmQc37wl4vBIvcDw4cuJgswkx24BEVFZ1VqDiVB6u1ZPGRTjTWj6tuhKGKhT_P0XhVx3WJ1D1Ji-8DfR5DnmobD3iiWgJ-luS1XFHzurwxpJkHejaX6Acm0tOge_n1xIj0M7Hv6j0C-L0jeOKieFKWE9zFakLkBIwEcrfhUCKyKVZiE0dzW80]--></g></svg>