<?xml version="1.0" encoding="us-ascii" standalone="no"?><svg xmlns="http://www.w3.org/2000/svg" xmlns:xlink="http://www.w3.org/1999/xlink" contentStyleType="text/css" height="334px" preserveAspectRatio="none" style="width:197px;height:334px;background:#FFFFFF;" version="1.1" viewBox="0 0 197 334" width="197px" zoomAndPan="magnify"><defs/><g><!--class ExternalReferenceType--><g id="elem_ExternalReferenceType"><rect codeLine="1" fill="#F1F1F1" height="162.4075" id="ExternalReferenceType" rx="2.5" ry="2.5" style="stroke:#181818;stroke-width:0.5;" width="183" x="7" y="165"/><ellipse cx="22" cy="181" fill="#EB937F" rx="11" ry="11" style="stroke:#181818;stroke-width:1.0;"/><path d="M18.3906,175.1094 L26.1094,175.1094 L26.1094,177.2656 L20.8438,177.2656 L20.8438,179.9375 L25.6094,179.9375 L25.6094,182.0938 L20.8438,182.0938 L20.8438,185.3438 L26.1094,185.3438 L26.1094,187.5 L18.3906,187.5 L18.3906,175.1094 Z " fill="#000000"/><text fill="#000000" font-family="sans-serif" font-size="14" lengthAdjust="spacing" textLength="151" x="36" y="186.432">ExternalReferenceType</text><line style="stroke:#181818;stroke-width:0.5;" x1="8" x2="189" y1="197" y2="197"/><text fill="#000000" font-family="sans-serif" font-size="14" lengthAdjust="spacing" textLength="142" x="13" y="215.9659">altDownloadLocation</text><text fill="#000000" font-family="sans-serif" font-size="14" lengthAdjust="spacing" textLength="79" x="13" y="235.0339">altWebPage</text><text fill="#000000" font-family="sans-serif" font-size="14" lengthAdjust="spacing" textLength="36" x="13" y="254.1018">other</text><text fill="#000000" font-family="sans-serif" font-size="14" lengthAdjust="spacing" textLength="106" x="13" y="273.1697">securityAdvisory</text><text fill="#000000" font-family="sans-serif" font-size="14" lengthAdjust="spacing" textLength="69" x="13" y="292.2376">securityFix</text><text fill="#000000" font-family="sans-serif" font-size="14" lengthAdjust="spacing" textLength="89" x="13" y="311.3055">securityOther</text><line style="stroke:#181818;stroke-width:0.5;" x1="8" x2="189" y1="319.4075" y2="319.4075"/></g><g id="elem_GMN3"><path d="M47.5,6 L47.5,104.5301 A0,0 0 0 0 47.5,104.5301 L94.5,104.5301 L98.5,164.81 L102.5,104.5301 L149.5,104.5301 A0,0 0 0 0 149.5,104.5301 L149.5,16 L139.5,6 L47.5,6 A0,0 0 0 0 47.5,6 " fill="#FEFFDD" style="stroke:#181818;stroke-width:0.5;"/><path d="M139.5,6 L139.5,16 L149.5,16 L139.5,6 " fill="#FEFFDD" style="stroke:#181818;stroke-width:0.5;"/><text fill="#000000" font-family="sans-serif" font-size="13" font-weight="bold" lengthAdjust="spacing" textLength="62" x="53.5" y="24.897">Summary</text><text fill="#000000" font-family="sans-serif" font-size="13" lengthAdjust="spacing" textLength="38" x="53.5" y="42.603">TODO</text><text fill="#000000" font-family="sans-serif" font-size="13" font-weight="bold" lengthAdjust="spacing" textLength="81" x="53.5" y="60.309">Description</text><text fill="#000000" font-family="sans-serif" font-size="13" lengthAdjust="spacing" textLength="38" x="53.5" y="78.0151">TODO</text><text fill="#000000" font-family="sans-serif" font-size="13" lengthAdjust="spacing" textLength="3" x="53.5" y="95.7211">&#160;</text></g><!--SRC=[ROxH2e9054JVzols3_e14GBhAJ1Aw7bTnrhGU-LwBPVetyk52A5vcZammu2ctkvcXP3hJcWX88yg3h1FOpzodHRye8vTSs3lD31z-GNrqLsH8kiDajm8FqdGk6tkOMI9AxWFyogNgVOon0ghF5Xk_xynMPsVfxvt4hDDdPkgBCg55HYzX66vzUC6rDXbyWq0]--></g></svg>