<?xml version="1.0" encoding="us-ascii" standalone="no"?><svg xmlns="http://www.w3.org/2000/svg" xmlns:xlink="http://www.w3.org/1999/xlink" contentStyleType="text/css" height="388px" preserveAspectRatio="none" style="width:455px;height:388px;background:#FFFFFF;" version="1.1" viewBox="0 0 455 388" width="455px" zoomAndPan="magnify"><defs/><g><!--class ExternalReferenceType--><g id="elem_ExternalReferenceType"><rect codeLine="1" fill="#F1F1F1" height="162.4075" id="ExternalReferenceType" rx="2.5" ry="2.5" style="stroke:#181818;stroke-width:0.5;" width="279" x="7" y="197"/><ellipse cx="66.75" cy="213" fill="#EB937F" rx="11" ry="11" style="stroke:#181818;stroke-width:1.0;"/><path d="M63.1406,207.1094 L70.8594,207.1094 L70.8594,209.2656 L65.5938,209.2656 L65.5938,211.9375 L70.3594,211.9375 L70.3594,214.0938 L65.5938,214.0938 L65.5938,217.3438 L70.8594,217.3438 L70.8594,219.5 L63.1406,219.5 L63.1406,207.1094 Z " fill="#000000"/><text fill="#000000" font-family="sans-serif" font-size="14" lengthAdjust="spacing" textLength="151" x="87.25" y="218.432">ExternalReferenceType</text><line style="stroke:#181818;stroke-width:0.5;" x1="8" x2="285" y1="229" y2="229"/><text fill="#000000" font-family="sans-serif" font-size="14" lengthAdjust="spacing" textLength="267" x="13" y="247.9659">altDownloadLocation : TODOdescription</text><text fill="#000000" font-family="sans-serif" font-size="14" lengthAdjust="spacing" textLength="204" x="13" y="267.0339">altWebPage : TODOdescription</text><text fill="#000000" font-family="sans-serif" font-size="14" lengthAdjust="spacing" textLength="161" x="13" y="286.1018">other : TODOdescription</text><text fill="#000000" font-family="sans-serif" font-size="14" lengthAdjust="spacing" textLength="231" x="13" y="305.1697">securityAdvisory : TODOdescription</text><text fill="#000000" font-family="sans-serif" font-size="14" lengthAdjust="spacing" textLength="194" x="13" y="324.2376">securityFix : TODOdescription</text><text fill="#000000" font-family="sans-serif" font-size="14" lengthAdjust="spacing" textLength="214" x="13" y="343.3055">securityOther : TODOdescription</text><line style="stroke:#181818;stroke-width:0.5;" x1="8" x2="285" y1="351.4075" y2="351.4075"/></g><g id="elem_GMN3"><path d="M95.5,6 L95.5,104.5301 A0,0 0 0 0 95.5,104.5301 L142.5,104.5301 L146.5,196.59 L150.5,104.5301 L197.5,104.5301 A0,0 0 0 0 197.5,104.5301 L197.5,16 L187.5,6 L95.5,6 A0,0 0 0 0 95.5,6 " fill="#FEFFDD" style="stroke:#181818;stroke-width:0.5;"/><path d="M187.5,6 L187.5,16 L197.5,16 L187.5,6 " fill="#FEFFDD" style="stroke:#181818;stroke-width:0.5;"/><text fill="#000000" font-family="sans-serif" font-size="13" font-weight="bold" lengthAdjust="spacing" textLength="62" x="101.5" y="24.897">Summary</text><text fill="#000000" font-family="sans-serif" font-size="13" lengthAdjust="spacing" textLength="38" x="101.5" y="42.603">TODO</text><text fill="#000000" font-family="sans-serif" font-size="13" font-weight="bold" lengthAdjust="spacing" textLength="81" x="101.5" y="60.309">Description</text><text fill="#000000" font-family="sans-serif" font-size="13" lengthAdjust="spacing" textLength="38" x="101.5" y="78.0151">TODO</text><text fill="#000000" font-family="sans-serif" font-size="13" lengthAdjust="spacing" textLength="3" x="101.5" y="95.7211">&#160;</text></g><path d="M321,165 L321,174.853 L280,242.534 L321,182.853 L321,192.706 A0,0 0 0 0 321,192.706 L448,192.706 A0,0 0 0 0 448,192.706 L448,175 L438,165 L321,165 A0,0 0 0 0 321,165 " fill="#FEFFDD" style="stroke:#181818;stroke-width:0.5;"/><path d="M438,165 L438,175 L448,175 L438,165 " fill="#FEFFDD" style="stroke:#181818;stroke-width:0.5;"/><text fill="#000000" font-family="sans-serif" font-size="13" lengthAdjust="spacing" textLength="106" x="327" y="183.897">TODOdescription</text><path d="M321,202.706 L321,212.559 L217,261.6019 L321,220.559 L321,230.412 A0,0 0 0 0 321,230.412 L448,230.412 A0,0 0 0 0 448,230.412 L448,212.706 L438,202.706 L321,202.706 A0,0 0 0 0 321,202.706 " fill="#FEFFDD" style="stroke:#181818;stroke-width:0.5;"/><path d="M438,202.706 L438,212.706 L448,212.706 L438,202.706 " fill="#FEFFDD" style="stroke:#181818;stroke-width:0.5;"/><text fill="#000000" font-family="sans-serif" font-size="13" lengthAdjust="spacing" textLength="106" x="327" y="221.603">TODOdescription</text><path d="M321,240.412 L321,250.265 L174,280.6698 L321,258.265 L321,268.118 A0,0 0 0 0 321,268.118 L448,268.118 A0,0 0 0 0 448,268.118 L448,250.412 L438,240.412 L321,240.412 A0,0 0 0 0 321,240.412 " fill="#FEFFDD" style="stroke:#181818;stroke-width:0.5;"/><path d="M438,240.412 L438,250.412 L448,250.412 L438,240.412 " fill="#FEFFDD" style="stroke:#181818;stroke-width:0.5;"/><text fill="#000000" font-family="sans-serif" font-size="13" lengthAdjust="spacing" textLength="106" x="327" y="259.309">TODOdescription</text><path d="M321,278.118 L321,287.9711 L244,299.7377 L321,295.9711 L321,305.8241 A0,0 0 0 0 321,305.8241 L448,305.8241 A0,0 0 0 0 448,305.8241 L448,288.118 L438,278.118 L321,278.118 A0,0 0 0 0 321,278.118 " fill="#FEFFDD" style="stroke:#181818;stroke-width:0.5;"/><path d="M438,278.118 L438,288.118 L448,288.118 L438,278.118 " fill="#FEFFDD" style="stroke:#181818;stroke-width:0.5;"/><text fill="#000000" font-family="sans-serif" font-size="13" lengthAdjust="spacing" textLength="106" x="327" y="297.0151">TODOdescription</text><path d="M321,315.8241 L321,325.6771 L207,318.8056 L321,333.6771 L321,343.5301 A0,0 0 0 0 321,343.5301 L448,343.5301 A0,0 0 0 0 448,343.5301 L448,325.8241 L438,315.8241 L321,315.8241 A0,0 0 0 0 321,315.8241 " fill="#FEFFDD" style="stroke:#181818;stroke-width:0.5;"/><path d="M438,315.8241 L438,325.8241 L448,325.8241 L438,315.8241 " fill="#FEFFDD" style="stroke:#181818;stroke-width:0.5;"/><text fill="#000000" font-family="sans-serif" font-size="13" lengthAdjust="spacing" textLength="106" x="327" y="334.7211">TODOdescription</text><path d="M321,353.5301 L321,363.3831 L227,337.8735 L321,371.3831 L321,381.2361 A0,0 0 0 0 321,381.2361 L448,381.2361 A0,0 0 0 0 448,381.2361 L448,363.5301 L438,353.5301 L321,353.5301 A0,0 0 0 0 321,353.5301 " fill="#FEFFDD" style="stroke:#181818;stroke-width:0.5;"/><path d="M438,353.5301 L438,363.5301 L448,363.5301 L438,353.5301 " fill="#FEFFDD" style="stroke:#181818;stroke-width:0.5;"/><text fill="#000000" font-family="sans-serif" font-size="13" lengthAdjust="spacing" textLength="106" x="327" y="372.4271">TODOdescription</text><!--SRC=[hS-n2i8m60JWlKyHNw3TkmdLIQY8w2XfScr_YFdBdqJRjxSw2phankFuu3RaZKiMD_O6gYoh2nlT9QU54AhT725UknDw2DR5UPbGJkdk2iyHIcWOe-9UVHtMjNQnuQTthErXTIEnBzIQSzkq5i48JPyEtget-BTwHNVK0p9W74T81YV09A6uREs30ikIaTpJd55hVnv-0G00]--></g></svg>