<?xml version="1.0" encoding="us-ascii" standalone="no"?><svg xmlns="http://www.w3.org/2000/svg" xmlns:xlink="http://www.w3.org/1999/xlink" contentStyleType="text/css" height="916px" preserveAspectRatio="none" style="width:414px;height:916px;background:#FFFFFF;" version="1.1" viewBox="0 0 414 916" width="414px" zoomAndPan="magnify"><defs/><g><!--class HashAlgorithm--><g id="elem_HashAlgorithm"><rect codeLine="1" fill="#F1F1F1" height="429.3583" id="HashAlgorithm" rx="2.5" ry="2.5" style="stroke:#181818;stroke-width:0.5;" width="238" x="7" y="327.5"/><ellipse cx="73.25" cy="343.5" fill="#EB937F" rx="11" ry="11" style="stroke:#181818;stroke-width:1.0;"/><path d="M69.6406,337.6094 L77.3594,337.6094 L77.3594,339.7656 L72.0938,339.7656 L72.0938,342.4375 L76.8594,342.4375 L76.8594,344.5938 L72.0938,344.5938 L72.0938,347.8438 L77.3594,347.8438 L77.3594,350 L69.6406,350 L69.6406,337.6094 Z " fill="#000000"/><text fill="#000000" font-family="sans-serif" font-size="14" lengthAdjust="spacing" textLength="97" x="93.75" y="348.932">HashAlgorithm</text><line style="stroke:#181818;stroke-width:0.5;" x1="8" x2="244" y1="359.5" y2="359.5"/><text fill="#000000" font-family="sans-serif" font-size="14" lengthAdjust="spacing" textLength="199" x="13" y="378.4659">blake2b256 : TODOdescription</text><text fill="#000000" font-family="sans-serif" font-size="14" lengthAdjust="spacing" textLength="199" x="13" y="397.5339">blake2b384 : TODOdescription</text><text fill="#000000" font-family="sans-serif" font-size="14" lengthAdjust="spacing" textLength="199" x="13" y="416.6018">blake2b512 : TODOdescription</text><text fill="#000000" font-family="sans-serif" font-size="14" lengthAdjust="spacing" textLength="167" x="13" y="435.6697">blake3 : TODOdescription</text><text fill="#000000" font-family="sans-serif" font-size="14" lengthAdjust="spacing" textLength="154" x="13" y="454.7376">md2 : TODOdescription</text><text fill="#000000" font-family="sans-serif" font-size="14" lengthAdjust="spacing" textLength="154" x="13" y="473.8055">md4 : TODOdescription</text><text fill="#000000" font-family="sans-serif" font-size="14" lengthAdjust="spacing" textLength="154" x="13" y="492.8734">md5 : TODOdescription</text><text fill="#000000" font-family="sans-serif" font-size="14" lengthAdjust="spacing" textLength="154" x="13" y="511.9414">md6 : TODOdescription</text><text fill="#000000" font-family="sans-serif" font-size="14" lengthAdjust="spacing" textLength="161" x="13" y="531.0093">other : TODOdescription</text><text fill="#000000" font-family="sans-serif" font-size="14" lengthAdjust="spacing" textLength="156" x="13" y="550.0772">sha1 : TODOdescription</text><text fill="#000000" font-family="sans-serif" font-size="14" lengthAdjust="spacing" textLength="172" x="13" y="569.1451">sha224 : TODOdescription</text><text fill="#000000" font-family="sans-serif" font-size="14" lengthAdjust="spacing" textLength="172" x="13" y="588.213">sha256 : TODOdescription</text><text fill="#000000" font-family="sans-serif" font-size="14" lengthAdjust="spacing" textLength="172" x="13" y="607.2809">sha384 : TODOdescription</text><text fill="#000000" font-family="sans-serif" font-size="14" lengthAdjust="spacing" textLength="186" x="13" y="626.3489">sha3_224 : TODOdescription</text><text fill="#000000" font-family="sans-serif" font-size="14" lengthAdjust="spacing" textLength="186" x="13" y="645.4168">sha3_256 : TODOdescription</text><text fill="#000000" font-family="sans-serif" font-size="14" lengthAdjust="spacing" textLength="186" x="13" y="664.4847">sha3_384 : TODOdescription</text><text fill="#000000" font-family="sans-serif" font-size="14" lengthAdjust="spacing" textLength="186" x="13" y="683.5526">sha3_512 : TODOdescription</text><text fill="#000000" font-family="sans-serif" font-size="14" lengthAdjust="spacing" textLength="172" x="13" y="702.6205">sha512 : TODOdescription</text><text fill="#000000" font-family="sans-serif" font-size="14" lengthAdjust="spacing" textLength="210" x="13" y="721.6884">spdxPvcSha1 : TODOdescription</text><text fill="#000000" font-family="sans-serif" font-size="14" lengthAdjust="spacing" textLength="226" x="13" y="740.7564">spdxPvcSha256 : TODOdescription</text><line style="stroke:#181818;stroke-width:0.5;" x1="8" x2="244" y1="748.8583" y2="748.8583"/></g><g id="elem_GMN3"><path d="M75,6 L75,104.5301 A0,0 0 0 0 75,104.5301 L122,104.5301 L126,327.24 L130,104.5301 L177,104.5301 A0,0 0 0 0 177,104.5301 L177,16 L167,6 L75,6 A0,0 0 0 0 75,6 " fill="#FEFFDD" style="stroke:#181818;stroke-width:0.5;"/><path d="M167,6 L167,16 L177,16 L167,6 " fill="#FEFFDD" style="stroke:#181818;stroke-width:0.5;"/><text fill="#000000" font-family="sans-serif" font-size="13" font-weight="bold" lengthAdjust="spacing" textLength="62" x="81" y="24.897">Summary</text><text fill="#000000" font-family="sans-serif" font-size="13" lengthAdjust="spacing" textLength="38" x="81" y="42.603">TODO</text><text fill="#000000" font-family="sans-serif" font-size="13" font-weight="bold" lengthAdjust="spacing" textLength="81" x="81" y="60.309">Description</text><text fill="#000000" font-family="sans-serif" font-size="13" lengthAdjust="spacing" textLength="38" x="81" y="78.0151">TODO</text><text fill="#000000" font-family="sans-serif" font-size="13" lengthAdjust="spacing" textLength="3" x="81" y="95.7211">&#160;</text></g><path d="M280.5,165 L280.5,174.853 L212,373.034 L280.5,182.853 L280.5,192.706 A0,0 0 0 0 280.5,192.706 L407.5,192.706 A0,0 0 0 0 407.5,192.706 L407.5,175 L397.5,165 L280.5,165 A0,0 0 0 0 280.5,165 " fill="#FEFFDD" style="stroke:#181818;stroke-width:0.5;"/><path d="M397.5,165 L397.5,175 L407.5,175 L397.5,165 " fill="#FEFFDD" style="stroke:#181818;stroke-width:0.5;"/><text fill="#000000" font-family="sans-serif" font-size="13" lengthAdjust="spacing" textLength="106" x="286.5" y="183.897">TODOdescription</text><path d="M280.5,202.706 L280.5,212.559 L212,392.1019 L280.5,220.559 L280.5,230.412 A0,0 0 0 0 280.5,230.412 L407.5,230.412 A0,0 0 0 0 407.5,230.412 L407.5,212.706 L397.5,202.706 L280.5,202.706 A0,0 0 0 0 280.5,202.706 " fill="#FEFFDD" style="stroke:#181818;stroke-width:0.5;"/><path d="M397.5,202.706 L397.5,212.706 L407.5,212.706 L397.5,202.706 " fill="#FEFFDD" style="stroke:#181818;stroke-width:0.5;"/><text fill="#000000" font-family="sans-serif" font-size="13" lengthAdjust="spacing" textLength="106" x="286.5" y="221.603">TODOdescription</text><path d="M280.5,240.412 L280.5,250.265 L212,411.1698 L280.5,258.265 L280.5,268.118 A0,0 0 0 0 280.5,268.118 L407.5,268.118 A0,0 0 0 0 407.5,268.118 L407.5,250.412 L397.5,240.412 L280.5,240.412 A0,0 0 0 0 280.5,240.412 " fill="#FEFFDD" style="stroke:#181818;stroke-width:0.5;"/><path d="M397.5,240.412 L397.5,250.412 L407.5,250.412 L397.5,240.412 " fill="#FEFFDD" style="stroke:#181818;stroke-width:0.5;"/><text fill="#000000" font-family="sans-serif" font-size="13" lengthAdjust="spacing" textLength="106" x="286.5" y="259.309">TODOdescription</text><path d="M280.5,278.118 L280.5,287.9711 L180,430.2377 L280.5,295.9711 L280.5,305.8241 A0,0 0 0 0 280.5,305.8241 L407.5,305.8241 A0,0 0 0 0 407.5,305.8241 L407.5,288.118 L397.5,278.118 L280.5,278.118 A0,0 0 0 0 280.5,278.118 " fill="#FEFFDD" style="stroke:#181818;stroke-width:0.5;"/><path d="M397.5,278.118 L397.5,288.118 L407.5,288.118 L397.5,278.118 " fill="#FEFFDD" style="stroke:#181818;stroke-width:0.5;"/><text fill="#000000" font-family="sans-serif" font-size="13" lengthAdjust="spacing" textLength="106" x="286.5" y="297.0151">TODOdescription</text><path d="M280.5,315.8241 L280.5,325.6771 L167,449.3056 L280.5,333.6771 L280.5,343.5301 A0,0 0 0 0 280.5,343.5301 L407.5,343.5301 A0,0 0 0 0 407.5,343.5301 L407.5,325.8241 L397.5,315.8241 L280.5,315.8241 A0,0 0 0 0 280.5,315.8241 " fill="#FEFFDD" style="stroke:#181818;stroke-width:0.5;"/><path d="M397.5,315.8241 L397.5,325.8241 L407.5,325.8241 L397.5,315.8241 " fill="#FEFFDD" style="stroke:#181818;stroke-width:0.5;"/><text fill="#000000" font-family="sans-serif" font-size="13" lengthAdjust="spacing" textLength="106" x="286.5" y="334.7211">TODOdescription</text><path d="M280.5,353.5301 L280.5,363.3831 L167,468.3735 L280.5,371.3831 L280.5,381.2361 A0,0 0 0 0 280.5,381.2361 L407.5,381.2361 A0,0 0 0 0 407.5,381.2361 L407.5,363.5301 L397.5,353.5301 L280.5,353.5301 A0,0 0 0 0 280.5,353.5301 " fill="#FEFFDD" style="stroke:#181818;stroke-width:0.5;"/><path d="M397.5,353.5301 L397.5,363.5301 L407.5,363.5301 L397.5,353.5301 " fill="#FEFFDD" style="stroke:#181818;stroke-width:0.5;"/><text fill="#000000" font-family="sans-serif" font-size="13" lengthAdjust="spacing" textLength="106" x="286.5" y="372.4271">TODOdescription</text><path d="M280.5,391.2361 L280.5,401.0891 L167,487.4415 L280.5,409.0891 L280.5,418.9421 A0,0 0 0 0 280.5,418.9421 L407.5,418.9421 A0,0 0 0 0 407.5,418.9421 L407.5,401.2361 L397.5,391.2361 L280.5,391.2361 A0,0 0 0 0 280.5,391.2361 " fill="#FEFFDD" style="stroke:#181818;stroke-width:0.5;"/><path d="M397.5,391.2361 L397.5,401.2361 L407.5,401.2361 L397.5,391.2361 " fill="#FEFFDD" style="stroke:#181818;stroke-width:0.5;"/><text fill="#000000" font-family="sans-serif" font-size="13" lengthAdjust="spacing" textLength="106" x="286.5" y="410.1331">TODOdescription</text><path d="M280.5,428.9421 L280.5,438.7951 L167,506.5094 L280.5,446.7951 L280.5,456.6481 A0,0 0 0 0 280.5,456.6481 L407.5,456.6481 A0,0 0 0 0 407.5,456.6481 L407.5,438.9421 L397.5,428.9421 L280.5,428.9421 A0,0 0 0 0 280.5,428.9421 " fill="#FEFFDD" style="stroke:#181818;stroke-width:0.5;"/><path d="M397.5,428.9421 L397.5,438.9421 L407.5,438.9421 L397.5,428.9421 " fill="#FEFFDD" style="stroke:#181818;stroke-width:0.5;"/><text fill="#000000" font-family="sans-serif" font-size="13" lengthAdjust="spacing" textLength="106" x="286.5" y="447.8391">TODOdescription</text><path d="M280.5,466.6481 L280.5,476.5011 L174,525.5773 L280.5,484.5011 L280.5,494.3541 A0,0 0 0 0 280.5,494.3541 L407.5,494.3541 A0,0 0 0 0 407.5,494.3541 L407.5,476.6481 L397.5,466.6481 L280.5,466.6481 A0,0 0 0 0 280.5,466.6481 " fill="#FEFFDD" style="stroke:#181818;stroke-width:0.5;"/><path d="M397.5,466.6481 L397.5,476.6481 L407.5,476.6481 L397.5,466.6481 " fill="#FEFFDD" style="stroke:#181818;stroke-width:0.5;"/><text fill="#000000" font-family="sans-serif" font-size="13" lengthAdjust="spacing" textLength="106" x="286.5" y="485.5451">TODOdescription</text><path d="M280.5,504.3541 L280.5,514.2072 L169,544.6452 L280.5,522.2072 L280.5,532.0602 A0,0 0 0 0 280.5,532.0602 L407.5,532.0602 A0,0 0 0 0 407.5,532.0602 L407.5,514.3541 L397.5,504.3541 L280.5,504.3541 A0,0 0 0 0 280.5,504.3541 " fill="#FEFFDD" style="stroke:#181818;stroke-width:0.5;"/><path d="M397.5,504.3541 L397.5,514.3541 L407.5,514.3541 L397.5,504.3541 " fill="#FEFFDD" style="stroke:#181818;stroke-width:0.5;"/><text fill="#000000" font-family="sans-serif" font-size="13" lengthAdjust="spacing" textLength="106" x="286.5" y="523.2512">TODOdescription</text><path d="M280.5,542.0602 L280.5,551.9132 L185,563.7131 L280.5,559.9132 L280.5,569.7662 A0,0 0 0 0 280.5,569.7662 L407.5,569.7662 A0,0 0 0 0 407.5,569.7662 L407.5,552.0602 L397.5,542.0602 L280.5,542.0602 A0,0 0 0 0 280.5,542.0602 " fill="#FEFFDD" style="stroke:#181818;stroke-width:0.5;"/><path d="M397.5,542.0602 L397.5,552.0602 L407.5,552.0602 L397.5,542.0602 " fill="#FEFFDD" style="stroke:#181818;stroke-width:0.5;"/><text fill="#000000" font-family="sans-serif" font-size="13" lengthAdjust="spacing" textLength="106" x="286.5" y="560.9572">TODOdescription</text><path d="M280.5,579.7662 L280.5,589.6192 L185,582.781 L280.5,597.6192 L280.5,607.4722 A0,0 0 0 0 280.5,607.4722 L407.5,607.4722 A0,0 0 0 0 407.5,607.4722 L407.5,589.7662 L397.5,579.7662 L280.5,579.7662 A0,0 0 0 0 280.5,579.7662 " fill="#FEFFDD" style="stroke:#181818;stroke-width:0.5;"/><path d="M397.5,579.7662 L397.5,589.7662 L407.5,589.7662 L397.5,579.7662 " fill="#FEFFDD" style="stroke:#181818;stroke-width:0.5;"/><text fill="#000000" font-family="sans-serif" font-size="13" lengthAdjust="spacing" textLength="106" x="286.5" y="598.6632">TODOdescription</text><path d="M280.5,617.4722 L280.5,627.3252 L185,601.849 L280.5,635.3252 L280.5,645.1782 A0,0 0 0 0 280.5,645.1782 L407.5,645.1782 A0,0 0 0 0 407.5,645.1782 L407.5,627.4722 L397.5,617.4722 L280.5,617.4722 A0,0 0 0 0 280.5,617.4722 " fill="#FEFFDD" style="stroke:#181818;stroke-width:0.5;"/><path d="M397.5,617.4722 L397.5,627.4722 L407.5,627.4722 L397.5,617.4722 " fill="#FEFFDD" style="stroke:#181818;stroke-width:0.5;"/><text fill="#000000" font-family="sans-serif" font-size="13" lengthAdjust="spacing" textLength="106" x="286.5" y="636.3692">TODOdescription</text><path d="M280.5,655.1782 L280.5,665.0312 L199,620.9169 L280.5,673.0312 L280.5,682.8842 A0,0 0 0 0 280.5,682.8842 L407.5,682.8842 A0,0 0 0 0 407.5,682.8842 L407.5,665.1782 L397.5,655.1782 L280.5,655.1782 A0,0 0 0 0 280.5,655.1782 " fill="#FEFFDD" style="stroke:#181818;stroke-width:0.5;"/><path d="M397.5,655.1782 L397.5,665.1782 L407.5,665.1782 L397.5,655.1782 " fill="#FEFFDD" style="stroke:#181818;stroke-width:0.5;"/><text fill="#000000" font-family="sans-serif" font-size="13" lengthAdjust="spacing" textLength="106" x="286.5" y="674.0752">TODOdescription</text><path d="M280.5,692.8842 L280.5,702.7372 L199,639.9848 L280.5,710.7372 L280.5,720.5902 A0,0 0 0 0 280.5,720.5902 L407.5,720.5902 A0,0 0 0 0 407.5,720.5902 L407.5,702.8842 L397.5,692.8842 L280.5,692.8842 A0,0 0 0 0 280.5,692.8842 " fill="#FEFFDD" style="stroke:#181818;stroke-width:0.5;"/><path d="M397.5,692.8842 L397.5,702.8842 L407.5,702.8842 L397.5,692.8842 " fill="#FEFFDD" style="stroke:#181818;stroke-width:0.5;"/><text fill="#000000" font-family="sans-serif" font-size="13" lengthAdjust="spacing" textLength="106" x="286.5" y="711.7812">TODOdescription</text><path d="M280.5,730.5902 L280.5,740.4433 L199,659.0527 L280.5,748.4433 L280.5,758.2963 A0,0 0 0 0 280.5,758.2963 L407.5,758.2963 A0,0 0 0 0 407.5,758.2963 L407.5,740.5902 L397.5,730.5902 L280.5,730.5902 A0,0 0 0 0 280.5,730.5902 " fill="#FEFFDD" style="stroke:#181818;stroke-width:0.5;"/><path d="M397.5,730.5902 L397.5,740.5902 L407.5,740.5902 L397.5,730.5902 " fill="#FEFFDD" style="stroke:#181818;stroke-width:0.5;"/><text fill="#000000" font-family="sans-serif" font-size="13" lengthAdjust="spacing" textLength="106" x="286.5" y="749.4873">TODOdescription</text><path d="M280.5,768.2963 L280.5,778.1493 L199,678.1206 L280.5,786.1493 L280.5,796.0023 A0,0 0 0 0 280.5,796.0023 L407.5,796.0023 A0,0 0 0 0 407.5,796.0023 L407.5,778.2963 L397.5,768.2963 L280.5,768.2963 A0,0 0 0 0 280.5,768.2963 " fill="#FEFFDD" style="stroke:#181818;stroke-width:0.5;"/><path d="M397.5,768.2963 L397.5,778.2963 L407.5,778.2963 L397.5,768.2963 " fill="#FEFFDD" style="stroke:#181818;stroke-width:0.5;"/><text fill="#000000" font-family="sans-serif" font-size="13" lengthAdjust="spacing" textLength="106" x="286.5" y="787.1933">TODOdescription</text><path d="M280.5,806.0023 L280.5,815.8553 L185,697.1885 L280.5,823.8553 L280.5,833.7083 A0,0 0 0 0 280.5,833.7083 L407.5,833.7083 A0,0 0 0 0 407.5,833.7083 L407.5,816.0023 L397.5,806.0023 L280.5,806.0023 A0,0 0 0 0 280.5,806.0023 " fill="#FEFFDD" style="stroke:#181818;stroke-width:0.5;"/><path d="M397.5,806.0023 L397.5,816.0023 L407.5,816.0023 L397.5,806.0023 " fill="#FEFFDD" style="stroke:#181818;stroke-width:0.5;"/><text fill="#000000" font-family="sans-serif" font-size="13" lengthAdjust="spacing" textLength="106" x="286.5" y="824.8993">TODOdescription</text><path d="M280.5,843.7083 L280.5,853.5613 L223,716.2565 L280.5,861.5613 L280.5,871.4143 A0,0 0 0 0 280.5,871.4143 L407.5,871.4143 A0,0 0 0 0 407.5,871.4143 L407.5,853.7083 L397.5,843.7083 L280.5,843.7083 A0,0 0 0 0 280.5,843.7083 " fill="#FEFFDD" style="stroke:#181818;stroke-width:0.5;"/><path d="M397.5,843.7083 L397.5,853.7083 L407.5,853.7083 L397.5,843.7083 " fill="#FEFFDD" style="stroke:#181818;stroke-width:0.5;"/><text fill="#000000" font-family="sans-serif" font-size="13" lengthAdjust="spacing" textLength="106" x="286.5" y="862.6053">TODOdescription</text><path d="M280.5,881.4143 L280.5,891.2673 L239,735.3244 L280.5,899.2673 L280.5,909.1203 A0,0 0 0 0 280.5,909.1203 L407.5,909.1203 A0,0 0 0 0 407.5,909.1203 L407.5,891.4143 L397.5,881.4143 L280.5,881.4143 A0,0 0 0 0 280.5,881.4143 " fill="#FEFFDD" style="stroke:#181818;stroke-width:0.5;"/><path d="M397.5,881.4143 L397.5,891.4143 L407.5,891.4143 L397.5,881.4143 " fill="#FEFFDD" style="stroke:#181818;stroke-width:0.5;"/><text fill="#000000" font-family="sans-serif" font-size="13" lengthAdjust="spacing" textLength="106" x="286.5" y="900.3113">TODOdescription</text><!--SRC=[hPEn2i8m54NtVaNyWPQchKWtmS6jWk9QqYGsmJGfIIf-lkaYE2bSCxzpuBxSjz6McqN8tbakIPuNLyVPi1ZcjGp5aGMrDwFpEgefdvV9PDP5IRmULIJkHZu6sdOmx2xfG9jjHjAxT8TEoC2zdgDsDfDMa9N_ILBjQbpIb1ILL81W4XIYQuXk81hvGXULz00V52indD8Q540TJWAilwkWXqCa1HoZ_qCGx0oJ0XJCudbwy3FOghVbsr9V]--></g></svg>