<?xml version="1.0" encoding="us-ascii" standalone="no"?><svg xmlns="http://www.w3.org/2000/svg" xmlns:xlink="http://www.w3.org/1999/xlink" contentStyleType="text/css" height="982px" preserveAspectRatio="none" style="width:1179px;height:982px;background:#FFFFFF;" version="1.1" viewBox="0 0 1179 982" width="1179px" zoomAndPan="magnify"><defs/><g><!--class AnnotationType--><g id="elem_AnnotationType"><rect codeLine="1" fill="#F1F1F1" height="86.1358" id="AnnotationType" rx="2.5" ry="2.5" style="stroke:#181818;stroke-width:0.5;" width="138" x="7" y="527.5"/><ellipse cx="22" cy="543.5" fill="#EB937F" rx="11" ry="11" style="stroke:#181818;stroke-width:1.0;"/><path d="M18.3906,537.6094 L26.1094,537.6094 L26.1094,539.7656 L20.8438,539.7656 L20.8438,542.4375 L25.6094,542.4375 L25.6094,544.5938 L20.8438,544.5938 L20.8438,547.8438 L26.1094,547.8438 L26.1094,550 L18.3906,550 L18.3906,537.6094 Z " fill="#000000"/><text fill="#000000" font-family="sans-serif" font-size="14" lengthAdjust="spacing" textLength="106" x="36" y="548.932">AnnotationType</text><line style="stroke:#181818;stroke-width:0.5;" x1="8" x2="144" y1="559.5" y2="559.5"/><text fill="#000000" font-family="sans-serif" font-size="14" lengthAdjust="spacing" textLength="36" x="13" y="578.4659">other</text><text fill="#000000" font-family="sans-serif" font-size="14" lengthAdjust="spacing" textLength="42" x="13" y="597.5339">review</text><line style="stroke:#181818;stroke-width:0.5;" x1="8" x2="144" y1="605.6358" y2="605.6358"/></g><g id="elem_GMN3"><path d="M25,6 L25,104.5301 A0,0 0 0 0 25,104.5301 L72,104.5301 L76,527.29 L80,104.5301 L127,104.5301 A0,0 0 0 0 127,104.5301 L127,16 L117,6 L25,6 A0,0 0 0 0 25,6 " fill="#FEFFDD" style="stroke:#181818;stroke-width:0.5;"/><path d="M117,6 L117,16 L127,16 L117,6 " fill="#FEFFDD" style="stroke:#181818;stroke-width:0.5;"/><text fill="#000000" font-family="sans-serif" font-size="13" font-weight="bold" lengthAdjust="spacing" textLength="62" x="31" y="24.897">Summary</text><text fill="#000000" font-family="sans-serif" font-size="13" lengthAdjust="spacing" textLength="38" x="31" y="42.603">TODO</text><text fill="#000000" font-family="sans-serif" font-size="13" font-weight="bold" lengthAdjust="spacing" textLength="81" x="31" y="60.309">Description</text><text fill="#000000" font-family="sans-serif" font-size="13" lengthAdjust="spacing" textLength="38" x="31" y="78.0151">TODO</text><text fill="#000000" font-family="sans-serif" font-size="13" lengthAdjust="spacing" textLength="3" x="31" y="95.7211">&#160;</text></g><!--class ExternalIdentifierType--><g id="elem_ExternalIdentifierType"><rect codeLine="1" fill="#F1F1F1" height="219.6113" id="ExternalIdentifierType" rx="2.5" ry="2.5" style="stroke:#181818;stroke-width:0.5;" width="176" x="180" y="460.5"/><ellipse cx="195" cy="476.5" fill="#EB937F" rx="11" ry="11" style="stroke:#181818;stroke-width:1.0;"/><path d="M191.3906,470.6094 L199.1094,470.6094 L199.1094,472.7656 L193.8438,472.7656 L193.8438,475.4375 L198.6094,475.4375 L198.6094,477.5938 L193.8438,477.5938 L193.8438,480.8438 L199.1094,480.8438 L199.1094,483 L191.3906,483 L191.3906,470.6094 Z " fill="#000000"/><text fill="#000000" font-family="sans-serif" font-size="14" lengthAdjust="spacing" textLength="144" x="209" y="481.932">ExternalIdentifierType</text><line style="stroke:#181818;stroke-width:0.5;" x1="181" x2="355" y1="492.5" y2="492.5"/><text fill="#000000" font-family="sans-serif" font-size="14" lengthAdjust="spacing" textLength="39" x="186" y="511.4659">cpe22</text><text fill="#000000" font-family="sans-serif" font-size="14" lengthAdjust="spacing" textLength="39" x="186" y="530.5339">cpe23</text><text fill="#000000" font-family="sans-serif" font-size="14" lengthAdjust="spacing" textLength="35" x="186" y="549.6018">email</text><text fill="#000000" font-family="sans-serif" font-size="14" lengthAdjust="spacing" textLength="37" x="186" y="568.6697">gitoid</text><text fill="#000000" font-family="sans-serif" font-size="14" lengthAdjust="spacing" textLength="36" x="186" y="587.7376">other</text><text fill="#000000" font-family="sans-serif" font-size="14" lengthAdjust="spacing" textLength="40" x="186" y="606.8055">pkgUrl</text><text fill="#000000" font-family="sans-serif" font-size="14" lengthAdjust="spacing" textLength="37" x="186" y="625.8734">swhid</text><text fill="#000000" font-family="sans-serif" font-size="14" lengthAdjust="spacing" textLength="29" x="186" y="644.9414">swid</text><text fill="#000000" font-family="sans-serif" font-size="14" lengthAdjust="spacing" textLength="68" x="186" y="664.0093">urlScheme</text><line style="stroke:#181818;stroke-width:0.5;" x1="181" x2="355" y1="672.1113" y2="672.1113"/></g><g id="elem_GMN7"><path d="M217,6 L217,104.5301 A0,0 0 0 0 217,104.5301 L264,104.5301 L268,460.2 L272,104.5301 L319,104.5301 A0,0 0 0 0 319,104.5301 L319,16 L309,6 L217,6 A0,0 0 0 0 217,6 " fill="#FEFFDD" style="stroke:#181818;stroke-width:0.5;"/><path d="M309,6 L309,16 L319,16 L309,6 " fill="#FEFFDD" style="stroke:#181818;stroke-width:0.5;"/><text fill="#000000" font-family="sans-serif" font-size="13" font-weight="bold" lengthAdjust="spacing" textLength="62" x="223" y="24.897">Summary</text><text fill="#000000" font-family="sans-serif" font-size="13" lengthAdjust="spacing" textLength="38" x="223" y="42.603">TODO</text><text fill="#000000" font-family="sans-serif" font-size="13" font-weight="bold" lengthAdjust="spacing" textLength="81" x="223" y="60.309">Description</text><text fill="#000000" font-family="sans-serif" font-size="13" lengthAdjust="spacing" textLength="38" x="223" y="78.0151">TODO</text><text fill="#000000" font-family="sans-serif" font-size="13" lengthAdjust="spacing" textLength="3" x="223" y="95.7211">&#160;</text></g><!--class ExternalReferenceType--><g id="elem_ExternalReferenceType"><rect codeLine="1" fill="#F1F1F1" height="162.4075" id="ExternalReferenceType" rx="2.5" ry="2.5" style="stroke:#181818;stroke-width:0.5;" width="183" x="391.5" y="489.5"/><ellipse cx="406.5" cy="505.5" fill="#EB937F" rx="11" ry="11" style="stroke:#181818;stroke-width:1.0;"/><path d="M402.8906,499.6094 L410.6094,499.6094 L410.6094,501.7656 L405.3438,501.7656 L405.3438,504.4375 L410.1094,504.4375 L410.1094,506.5938 L405.3438,506.5938 L405.3438,509.8438 L410.6094,509.8438 L410.6094,512 L402.8906,512 L402.8906,499.6094 Z " fill="#000000"/><text fill="#000000" font-family="sans-serif" font-size="14" lengthAdjust="spacing" textLength="151" x="420.5" y="510.932">ExternalReferenceType</text><line style="stroke:#181818;stroke-width:0.5;" x1="392.5" x2="573.5" y1="521.5" y2="521.5"/><text fill="#000000" font-family="sans-serif" font-size="14" lengthAdjust="spacing" textLength="142" x="397.5" y="540.4659">altDownloadLocation</text><text fill="#000000" font-family="sans-serif" font-size="14" lengthAdjust="spacing" textLength="79" x="397.5" y="559.5339">altWebPage</text><text fill="#000000" font-family="sans-serif" font-size="14" lengthAdjust="spacing" textLength="36" x="397.5" y="578.6018">other</text><text fill="#000000" font-family="sans-serif" font-size="14" lengthAdjust="spacing" textLength="106" x="397.5" y="597.6697">securityAdvisory</text><text fill="#000000" font-family="sans-serif" font-size="14" lengthAdjust="spacing" textLength="69" x="397.5" y="616.7376">securityFix</text><text fill="#000000" font-family="sans-serif" font-size="14" lengthAdjust="spacing" textLength="89" x="397.5" y="635.8055">securityOther</text><line style="stroke:#181818;stroke-width:0.5;" x1="392.5" x2="573.5" y1="643.9075" y2="643.9075"/></g><g id="elem_GMN11"><path d="M432,6 L432,104.5301 A0,0 0 0 0 432,104.5301 L479,104.5301 L483,489.44 L487,104.5301 L534,104.5301 A0,0 0 0 0 534,104.5301 L534,16 L524,6 L432,6 A0,0 0 0 0 432,6 " fill="#FEFFDD" style="stroke:#181818;stroke-width:0.5;"/><path d="M524,6 L524,16 L534,16 L524,6 " fill="#FEFFDD" style="stroke:#181818;stroke-width:0.5;"/><text fill="#000000" font-family="sans-serif" font-size="13" font-weight="bold" lengthAdjust="spacing" textLength="62" x="438" y="24.897">Summary</text><text fill="#000000" font-family="sans-serif" font-size="13" lengthAdjust="spacing" textLength="38" x="438" y="42.603">TODO</text><text fill="#000000" font-family="sans-serif" font-size="13" font-weight="bold" lengthAdjust="spacing" textLength="81" x="438" y="60.309">Description</text><text fill="#000000" font-family="sans-serif" font-size="13" lengthAdjust="spacing" textLength="38" x="438" y="78.0151">TODO</text><text fill="#000000" font-family="sans-serif" font-size="13" lengthAdjust="spacing" textLength="3" x="438" y="95.7211">&#160;</text></g><!--class HashAlgorithm--><g id="elem_HashAlgorithm"><rect codeLine="1" fill="#F1F1F1" height="429.3583" id="HashAlgorithm" rx="2.5" ry="2.5" style="stroke:#181818;stroke-width:0.5;" width="129" x="609.5" y="356"/><ellipse cx="624.5" cy="372" fill="#EB937F" rx="11" ry="11" style="stroke:#181818;stroke-width:1.0;"/><path d="M620.8906,366.1094 L628.6094,366.1094 L628.6094,368.2656 L623.3438,368.2656 L623.3438,370.9375 L628.1094,370.9375 L628.1094,373.0938 L623.3438,373.0938 L623.3438,376.3438 L628.6094,376.3438 L628.6094,378.5 L620.8906,378.5 L620.8906,366.1094 Z " fill="#000000"/><text fill="#000000" font-family="sans-serif" font-size="14" lengthAdjust="spacing" textLength="97" x="638.5" y="377.432">HashAlgorithm</text><line style="stroke:#181818;stroke-width:0.5;" x1="610.5" x2="737.5" y1="388" y2="388"/><text fill="#000000" font-family="sans-serif" font-size="14" lengthAdjust="spacing" textLength="74" x="615.5" y="406.9659">blake2b256</text><text fill="#000000" font-family="sans-serif" font-size="14" lengthAdjust="spacing" textLength="74" x="615.5" y="426.0339">blake2b384</text><text fill="#000000" font-family="sans-serif" font-size="14" lengthAdjust="spacing" textLength="74" x="615.5" y="445.1018">blake2b512</text><text fill="#000000" font-family="sans-serif" font-size="14" lengthAdjust="spacing" textLength="42" x="615.5" y="464.1697">blake3</text><text fill="#000000" font-family="sans-serif" font-size="14" lengthAdjust="spacing" textLength="29" x="615.5" y="483.2376">md2</text><text fill="#000000" font-family="sans-serif" font-size="14" lengthAdjust="spacing" textLength="29" x="615.5" y="502.3055">md4</text><text fill="#000000" font-family="sans-serif" font-size="14" lengthAdjust="spacing" textLength="29" x="615.5" y="521.3734">md5</text><text fill="#000000" font-family="sans-serif" font-size="14" lengthAdjust="spacing" textLength="29" x="615.5" y="540.4414">md6</text><text fill="#000000" font-family="sans-serif" font-size="14" lengthAdjust="spacing" textLength="36" x="615.5" y="559.5093">other</text><text fill="#000000" font-family="sans-serif" font-size="14" lengthAdjust="spacing" textLength="31" x="615.5" y="578.5772">sha1</text><text fill="#000000" font-family="sans-serif" font-size="14" lengthAdjust="spacing" textLength="47" x="615.5" y="597.6451">sha224</text><text fill="#000000" font-family="sans-serif" font-size="14" lengthAdjust="spacing" textLength="47" x="615.5" y="616.713">sha256</text><text fill="#000000" font-family="sans-serif" font-size="14" lengthAdjust="spacing" textLength="47" x="615.5" y="635.7809">sha384</text><text fill="#000000" font-family="sans-serif" font-size="14" lengthAdjust="spacing" textLength="61" x="615.5" y="654.8489">sha3_224</text><text fill="#000000" font-family="sans-serif" font-size="14" lengthAdjust="spacing" textLength="61" x="615.5" y="673.9168">sha3_256</text><text fill="#000000" font-family="sans-serif" font-size="14" lengthAdjust="spacing" textLength="61" x="615.5" y="692.9847">sha3_384</text><text fill="#000000" font-family="sans-serif" font-size="14" lengthAdjust="spacing" textLength="61" x="615.5" y="712.0526">sha3_512</text><text fill="#000000" font-family="sans-serif" font-size="14" lengthAdjust="spacing" textLength="47" x="615.5" y="731.1205">sha512</text><text fill="#000000" font-family="sans-serif" font-size="14" lengthAdjust="spacing" textLength="85" x="615.5" y="750.1884">spdxPvcSha1</text><text fill="#000000" font-family="sans-serif" font-size="14" lengthAdjust="spacing" textLength="101" x="615.5" y="769.2564">spdxPvcSha256</text><line style="stroke:#181818;stroke-width:0.5;" x1="610.5" x2="737.5" y1="777.3583" y2="777.3583"/></g><g id="elem_GMN15"><path d="M623,6 L623,104.5301 A0,0 0 0 0 623,104.5301 L670,104.5301 L674,355.67 L678,104.5301 L725,104.5301 A0,0 0 0 0 725,104.5301 L725,16 L715,6 L623,6 A0,0 0 0 0 623,6 " fill="#FEFFDD" style="stroke:#181818;stroke-width:0.5;"/><path d="M715,6 L715,16 L725,16 L715,6 " fill="#FEFFDD" style="stroke:#181818;stroke-width:0.5;"/><text fill="#000000" font-family="sans-serif" font-size="13" font-weight="bold" lengthAdjust="spacing" textLength="62" x="629" y="24.897">Summary</text><text fill="#000000" font-family="sans-serif" font-size="13" lengthAdjust="spacing" textLength="38" x="629" y="42.603">TODO</text><text fill="#000000" font-family="sans-serif" font-size="13" font-weight="bold" lengthAdjust="spacing" textLength="81" x="629" y="60.309">Description</text><text fill="#000000" font-family="sans-serif" font-size="13" lengthAdjust="spacing" textLength="38" x="629" y="78.0151">TODO</text><text fill="#000000" font-family="sans-serif" font-size="13" lengthAdjust="spacing" textLength="3" x="629" y="95.7211">&#160;</text></g><!--class RelationshipCompleteness--><g id="elem_RelationshipCompleteness"><rect codeLine="1" fill="#F1F1F1" height="105.2038" id="RelationshipCompleteness" rx="2.5" ry="2.5" style="stroke:#181818;stroke-width:0.5;" width="206" x="774" y="518"/><ellipse cx="789" cy="534" fill="#EB937F" rx="11" ry="11" style="stroke:#181818;stroke-width:1.0;"/><path d="M785.3906,528.1094 L793.1094,528.1094 L793.1094,530.2656 L787.8438,530.2656 L787.8438,532.9375 L792.6094,532.9375 L792.6094,535.0938 L787.8438,535.0938 L787.8438,538.3438 L793.1094,538.3438 L793.1094,540.5 L785.3906,540.5 L785.3906,528.1094 Z " fill="#000000"/><text fill="#000000" font-family="sans-serif" font-size="14" lengthAdjust="spacing" textLength="174" x="803" y="539.432">RelationshipCompleteness</text><line style="stroke:#181818;stroke-width:0.5;" x1="775" x2="979" y1="550" y2="550"/><text fill="#000000" font-family="sans-serif" font-size="14" lengthAdjust="spacing" textLength="73" x="780" y="568.9659">incomplete</text><text fill="#000000" font-family="sans-serif" font-size="14" lengthAdjust="spacing" textLength="43" x="780" y="588.0339">known</text><text fill="#000000" font-family="sans-serif" font-size="14" lengthAdjust="spacing" textLength="59" x="780" y="607.1018">unknown</text><line style="stroke:#181818;stroke-width:0.5;" x1="775" x2="979" y1="615.2038" y2="615.2038"/></g><g id="elem_GMN19"><path d="M826,6 L826,104.5301 A0,0 0 0 0 826,104.5301 L873,104.5301 L877,517.69 L881,104.5301 L928,104.5301 A0,0 0 0 0 928,104.5301 L928,16 L918,6 L826,6 A0,0 0 0 0 826,6 " fill="#FEFFDD" style="stroke:#181818;stroke-width:0.5;"/><path d="M918,6 L918,16 L928,16 L918,6 " fill="#FEFFDD" style="stroke:#181818;stroke-width:0.5;"/><text fill="#000000" font-family="sans-serif" font-size="13" font-weight="bold" lengthAdjust="spacing" textLength="62" x="832" y="24.897">Summary</text><text fill="#000000" font-family="sans-serif" font-size="13" lengthAdjust="spacing" textLength="38" x="832" y="42.603">TODO</text><text fill="#000000" font-family="sans-serif" font-size="13" font-weight="bold" lengthAdjust="spacing" textLength="81" x="832" y="60.309">Description</text><text fill="#000000" font-family="sans-serif" font-size="13" lengthAdjust="spacing" textLength="38" x="832" y="78.0151">TODO</text><text fill="#000000" font-family="sans-serif" font-size="13" lengthAdjust="spacing" textLength="3" x="832" y="95.7211">&#160;</text></g><!--class RelationshipType--><g id="elem_RelationshipType"><rect codeLine="1" fill="#F1F1F1" height="810.7167" id="RelationshipType" rx="2.5" ry="2.5" style="stroke:#181818;stroke-width:0.5;" width="157" x="1015.5" y="165"/><ellipse cx="1036.35" cy="181" fill="#EB937F" rx="11" ry="11" style="stroke:#181818;stroke-width:1.0;"/><path d="M1032.7406,175.1094 L1040.4594,175.1094 L1040.4594,177.2656 L1035.1938,177.2656 L1035.1938,179.9375 L1039.9594,179.9375 L1039.9594,182.0938 L1035.1938,182.0938 L1035.1938,185.3438 L1040.4594,185.3438 L1040.4594,187.5 L1032.7406,187.5 L1032.7406,175.1094 Z " fill="#000000"/><text fill="#000000" font-family="sans-serif" font-size="14" lengthAdjust="spacing" textLength="112" x="1051.65" y="186.432">RelationshipType</text><line style="stroke:#181818;stroke-width:0.5;" x1="1016.5" x2="1171.5" y1="197" y2="197"/><text fill="#000000" font-family="sans-serif" font-size="14" lengthAdjust="spacing" textLength="52" x="1021.5" y="215.9659">amends</text><text fill="#000000" font-family="sans-serif" font-size="14" lengthAdjust="spacing" textLength="58" x="1021.5" y="235.0339">ancestor</text><text fill="#000000" font-family="sans-serif" font-size="14" lengthAdjust="spacing" textLength="111" x="1021.5" y="254.1018">buildDependency</text><text fill="#000000" font-family="sans-serif" font-size="14" lengthAdjust="spacing" textLength="60" x="1021.5" y="273.1697">buildTool</text><text fill="#000000" font-family="sans-serif" font-size="14" lengthAdjust="spacing" textLength="56" x="1021.5" y="292.2376">contains</text><text fill="#000000" font-family="sans-serif" font-size="14" lengthAdjust="spacing" textLength="31" x="1021.5" y="311.3055">copy</text><text fill="#000000" font-family="sans-serif" font-size="14" lengthAdjust="spacing" textLength="52" x="1021.5" y="330.3734">dataFile</text><text fill="#000000" font-family="sans-serif" font-size="14" lengthAdjust="spacing" textLength="136" x="1021.5" y="349.4414">dependencyManifest</text><text fill="#000000" font-family="sans-serif" font-size="14" lengthAdjust="spacing" textLength="74" x="1021.5" y="368.5093">dependsOn</text><text fill="#000000" font-family="sans-serif" font-size="14" lengthAdjust="spacing" textLength="76" x="1021.5" y="387.5772">descendant</text><text fill="#000000" font-family="sans-serif" font-size="14" lengthAdjust="spacing" textLength="61" x="1021.5" y="406.6451">describes</text><text fill="#000000" font-family="sans-serif" font-size="14" lengthAdjust="spacing" textLength="104" x="1021.5" y="425.713">devDependency</text><text fill="#000000" font-family="sans-serif" font-size="14" lengthAdjust="spacing" textLength="53" x="1021.5" y="444.7809">devTool</text><text fill="#000000" font-family="sans-serif" font-size="14" lengthAdjust="spacing" textLength="123" x="1021.5" y="463.8489">distributionArtifact</text><text fill="#000000" font-family="sans-serif" font-size="14" lengthAdjust="spacing" textLength="101" x="1021.5" y="482.9168">documentation</text><text fill="#000000" font-family="sans-serif" font-size="14" lengthAdjust="spacing" textLength="80" x="1021.5" y="501.9847">dynamicLink</text><text fill="#000000" font-family="sans-serif" font-size="14" lengthAdjust="spacing" textLength="55" x="1021.5" y="521.0526">example</text><text fill="#000000" font-family="sans-serif" font-size="14" lengthAdjust="spacing" textLength="145" x="1021.5" y="540.1205">expandedFromArchive</text><text fill="#000000" font-family="sans-serif" font-size="14" lengthAdjust="spacing" textLength="60" x="1021.5" y="559.1884">fileAdded</text><text fill="#000000" font-family="sans-serif" font-size="14" lengthAdjust="spacing" textLength="71" x="1021.5" y="578.2564">fileDeleted</text><text fill="#000000" font-family="sans-serif" font-size="14" lengthAdjust="spacing" textLength="76" x="1021.5" y="597.3243">fileModified</text><text fill="#000000" font-family="sans-serif" font-size="14" lengthAdjust="spacing" textLength="66" x="1021.5" y="616.3922">generates</text><text fill="#000000" font-family="sans-serif" font-size="14" lengthAdjust="spacing" textLength="54" x="1021.5" y="635.4601">metafile</text><text fill="#000000" font-family="sans-serif" font-size="14" lengthAdjust="spacing" textLength="132" x="1021.5" y="654.528">optionalComponent</text><text fill="#000000" font-family="sans-serif" font-size="14" lengthAdjust="spacing" textLength="135" x="1021.5" y="673.5959">optionalDependency</text><text fill="#000000" font-family="sans-serif" font-size="14" lengthAdjust="spacing" textLength="36" x="1021.5" y="692.6639">other</text><text fill="#000000" font-family="sans-serif" font-size="14" lengthAdjust="spacing" textLength="61" x="1021.5" y="711.7318">packages</text><text fill="#000000" font-family="sans-serif" font-size="14" lengthAdjust="spacing" textLength="37" x="1021.5" y="730.7997">patch</text><text fill="#000000" font-family="sans-serif" font-size="14" lengthAdjust="spacing" textLength="77" x="1021.5" y="749.8676">prerequisite</text><text fill="#000000" font-family="sans-serif" font-size="14" lengthAdjust="spacing" textLength="137" x="1021.5" y="768.9355">providedDependency</text><text fill="#000000" font-family="sans-serif" font-size="14" lengthAdjust="spacing" textLength="102" x="1021.5" y="788.0034">requirementFor</text><text fill="#000000" font-family="sans-serif" font-size="14" lengthAdjust="spacing" textLength="132" x="1021.5" y="807.0714">runtimeDependency</text><text fill="#000000" font-family="sans-serif" font-size="14" lengthAdjust="spacing" textLength="104" x="1021.5" y="826.1393">specificationFor</text><text fill="#000000" font-family="sans-serif" font-size="14" lengthAdjust="spacing" textLength="63" x="1021.5" y="845.2072">staticLink</text><text fill="#000000" font-family="sans-serif" font-size="14" lengthAdjust="spacing" textLength="70" x="1021.5" y="864.2751">suppliedBy</text><text fill="#000000" font-family="sans-serif" font-size="14" lengthAdjust="spacing" textLength="27" x="1021.5" y="883.343">test</text><text fill="#000000" font-family="sans-serif" font-size="14" lengthAdjust="spacing" textLength="59" x="1021.5" y="902.4109">testCase</text><text fill="#000000" font-family="sans-serif" font-size="14" lengthAdjust="spacing" textLength="108" x="1021.5" y="921.4789">testDependency</text><text fill="#000000" font-family="sans-serif" font-size="14" lengthAdjust="spacing" textLength="57" x="1021.5" y="940.5468">testTool</text><text fill="#000000" font-family="sans-serif" font-size="14" lengthAdjust="spacing" textLength="45" x="1021.5" y="959.6147">variant</text><line style="stroke:#181818;stroke-width:0.5;" x1="1016.5" x2="1171.5" y1="967.7167" y2="967.7167"/></g><g id="elem_GMN23"><path d="M1043,6 L1043,104.5301 A0,0 0 0 0 1043,104.5301 L1090,104.5301 L1094,164.72 L1098,104.5301 L1145,104.5301 A0,0 0 0 0 1145,104.5301 L1145,16 L1135,6 L1043,6 A0,0 0 0 0 1043,6 " fill="#FEFFDD" style="stroke:#181818;stroke-width:0.5;"/><path d="M1135,6 L1135,16 L1145,16 L1135,6 " fill="#FEFFDD" style="stroke:#181818;stroke-width:0.5;"/><text fill="#000000" font-family="sans-serif" font-size="13" font-weight="bold" lengthAdjust="spacing" textLength="62" x="1049" y="24.897">Summary</text><text fill="#000000" font-family="sans-serif" font-size="13" lengthAdjust="spacing" textLength="38" x="1049" y="42.603">TODO</text><text fill="#000000" font-family="sans-serif" font-size="13" font-weight="bold" lengthAdjust="spacing" textLength="81" x="1049" y="60.309">Description</text><text fill="#000000" font-family="sans-serif" font-size="13" lengthAdjust="spacing" textLength="38" x="1049" y="78.0151">TODO</text><text fill="#000000" font-family="sans-serif" font-size="13" lengthAdjust="spacing" textLength="3" x="1049" y="95.7211">&#160;</text></g><!--SRC=[bSz12i8m48NXlQUm5qZFKAIWso9k9QQlPc0o4v89wEqjBbnAktyVlByZ2Tnct5K2ZixrDmt-qTWNGkq74JLlf79zPxZS4X-wls9y6OfulimGeuLGzie92mhMnLPuzZKE_DH25jCMC86_JJLIFcdA38EWrhtsT_03]--></g></svg>