<?xml version="1.0" encoding="us-ascii" standalone="no"?><svg xmlns="http://www.w3.org/2000/svg" xmlns:xlink="http://www.w3.org/1999/xlink" contentStyleType="text/css" height="982px" preserveAspectRatio="none" style="width:1582px;height:982px;background:#FFFFFF;" version="1.1" viewBox="0 0 1582 982" width="1582px" zoomAndPan="magnify"><defs/><g><!--class AnnotationType--><g id="elem_AnnotationType"><rect codeLine="1" fill="#F1F1F1" height="86.1358" id="AnnotationType" rx="2.5" ry="2.5" style="stroke:#181818;stroke-width:0.5;" width="179" x="7" y="527.5"/><ellipse cx="40.45" cy="543.5" fill="#EB937F" rx="11" ry="11" style="stroke:#181818;stroke-width:1.0;"/><path d="M36.8406,537.6094 L44.5594,537.6094 L44.5594,539.7656 L39.2938,539.7656 L39.2938,542.4375 L44.0594,542.4375 L44.0594,544.5938 L39.2938,544.5938 L39.2938,547.8438 L44.5594,547.8438 L44.5594,550 L36.8406,550 L36.8406,537.6094 Z " fill="#000000"/><text fill="#000000" font-family="sans-serif" font-size="14" lengthAdjust="spacing" textLength="106" x="58.55" y="548.932">AnnotationType</text><line style="stroke:#181818;stroke-width:0.5;" x1="8" x2="185" y1="559.5" y2="559.5"/><text fill="#000000" font-family="sans-serif" font-size="14" lengthAdjust="spacing" textLength="161" x="13" y="578.4659">other : TODOdescription</text><text fill="#000000" font-family="sans-serif" font-size="14" lengthAdjust="spacing" textLength="167" x="13" y="597.5339">review : TODOdescription</text><line style="stroke:#181818;stroke-width:0.5;" x1="8" x2="185" y1="605.6358" y2="605.6358"/></g><g id="elem_GMN3"><path d="M45.5,6 L45.5,104.5301 A0,0 0 0 0 45.5,104.5301 L92.5,104.5301 L96.5,527.29 L100.5,104.5301 L147.5,104.5301 A0,0 0 0 0 147.5,104.5301 L147.5,16 L137.5,6 L45.5,6 A0,0 0 0 0 45.5,6 " fill="#FEFFDD" style="stroke:#181818;stroke-width:0.5;"/><path d="M137.5,6 L137.5,16 L147.5,16 L137.5,6 " fill="#FEFFDD" style="stroke:#181818;stroke-width:0.5;"/><text fill="#000000" font-family="sans-serif" font-size="13" font-weight="bold" lengthAdjust="spacing" textLength="62" x="51.5" y="24.897">Summary</text><text fill="#000000" font-family="sans-serif" font-size="13" lengthAdjust="spacing" textLength="38" x="51.5" y="42.603">TODO</text><text fill="#000000" font-family="sans-serif" font-size="13" font-weight="bold" lengthAdjust="spacing" textLength="81" x="51.5" y="60.309">Description</text><text fill="#000000" font-family="sans-serif" font-size="13" lengthAdjust="spacing" textLength="38" x="51.5" y="78.0151">TODO</text><text fill="#000000" font-family="sans-serif" font-size="13" lengthAdjust="spacing" textLength="3" x="51.5" y="95.7211">&#160;</text></g><!--class ExternalIdentifierType--><g id="elem_ExternalIdentifierType"><rect codeLine="1" fill="#F1F1F1" height="219.6113" id="ExternalIdentifierType" rx="2.5" ry="2.5" style="stroke:#181818;stroke-width:0.5;" width="205" x="221" y="460.5"/><ellipse cx="249.05" cy="476.5" fill="#EB937F" rx="11" ry="11" style="stroke:#181818;stroke-width:1.0;"/><path d="M245.4406,470.6094 L253.1594,470.6094 L253.1594,472.7656 L247.8938,472.7656 L247.8938,475.4375 L252.6594,475.4375 L252.6594,477.5938 L247.8938,477.5938 L247.8938,480.8438 L253.1594,480.8438 L253.1594,483 L245.4406,483 L245.4406,470.6094 Z " fill="#000000"/><text fill="#000000" font-family="sans-serif" font-size="14" lengthAdjust="spacing" textLength="144" x="265.95" y="481.932">ExternalIdentifierType</text><line style="stroke:#181818;stroke-width:0.5;" x1="222" x2="425" y1="492.5" y2="492.5"/><text fill="#000000" font-family="sans-serif" font-size="14" lengthAdjust="spacing" textLength="164" x="227" y="511.4659">cpe22 : TODOdescription</text><text fill="#000000" font-family="sans-serif" font-size="14" lengthAdjust="spacing" textLength="164" x="227" y="530.5339">cpe23 : TODOdescription</text><text fill="#000000" font-family="sans-serif" font-size="14" lengthAdjust="spacing" textLength="160" x="227" y="549.6018">email : TODOdescription</text><text fill="#000000" font-family="sans-serif" font-size="14" lengthAdjust="spacing" textLength="162" x="227" y="568.6697">gitoid : TODOdescription</text><text fill="#000000" font-family="sans-serif" font-size="14" lengthAdjust="spacing" textLength="161" x="227" y="587.7376">other : TODOdescription</text><text fill="#000000" font-family="sans-serif" font-size="14" lengthAdjust="spacing" textLength="165" x="227" y="606.8055">pkgUrl : TODOdescription</text><text fill="#000000" font-family="sans-serif" font-size="14" lengthAdjust="spacing" textLength="162" x="227" y="625.8734">swhid : TODOdescription</text><text fill="#000000" font-family="sans-serif" font-size="14" lengthAdjust="spacing" textLength="154" x="227" y="644.9414">swid : TODOdescription</text><text fill="#000000" font-family="sans-serif" font-size="14" lengthAdjust="spacing" textLength="193" x="227" y="664.0093">urlScheme : TODOdescription</text><line style="stroke:#181818;stroke-width:0.5;" x1="222" x2="425" y1="672.1113" y2="672.1113"/></g><g id="elem_GMN7"><path d="M272.5,6 L272.5,104.5301 A0,0 0 0 0 272.5,104.5301 L319.5,104.5301 L323.5,460.2 L327.5,104.5301 L374.5,104.5301 A0,0 0 0 0 374.5,104.5301 L374.5,16 L364.5,6 L272.5,6 A0,0 0 0 0 272.5,6 " fill="#FEFFDD" style="stroke:#181818;stroke-width:0.5;"/><path d="M364.5,6 L364.5,16 L374.5,16 L364.5,6 " fill="#FEFFDD" style="stroke:#181818;stroke-width:0.5;"/><text fill="#000000" font-family="sans-serif" font-size="13" font-weight="bold" lengthAdjust="spacing" textLength="62" x="278.5" y="24.897">Summary</text><text fill="#000000" font-family="sans-serif" font-size="13" lengthAdjust="spacing" textLength="38" x="278.5" y="42.603">TODO</text><text fill="#000000" font-family="sans-serif" font-size="13" font-weight="bold" lengthAdjust="spacing" textLength="81" x="278.5" y="60.309">Description</text><text fill="#000000" font-family="sans-serif" font-size="13" lengthAdjust="spacing" textLength="38" x="278.5" y="78.0151">TODO</text><text fill="#000000" font-family="sans-serif" font-size="13" lengthAdjust="spacing" textLength="3" x="278.5" y="95.7211">&#160;</text></g><!--class ExternalReferenceType--><g id="elem_ExternalReferenceType"><rect codeLine="1" fill="#F1F1F1" height="162.4075" id="ExternalReferenceType" rx="2.5" ry="2.5" style="stroke:#181818;stroke-width:0.5;" width="279" x="461" y="489.5"/><ellipse cx="520.75" cy="505.5" fill="#EB937F" rx="11" ry="11" style="stroke:#181818;stroke-width:1.0;"/><path d="M517.1406,499.6094 L524.8594,499.6094 L524.8594,501.7656 L519.5938,501.7656 L519.5938,504.4375 L524.3594,504.4375 L524.3594,506.5938 L519.5938,506.5938 L519.5938,509.8438 L524.8594,509.8438 L524.8594,512 L517.1406,512 L517.1406,499.6094 Z " fill="#000000"/><text fill="#000000" font-family="sans-serif" font-size="14" lengthAdjust="spacing" textLength="151" x="541.25" y="510.932">ExternalReferenceType</text><line style="stroke:#181818;stroke-width:0.5;" x1="462" x2="739" y1="521.5" y2="521.5"/><text fill="#000000" font-family="sans-serif" font-size="14" lengthAdjust="spacing" textLength="267" x="467" y="540.4659">altDownloadLocation : TODOdescription</text><text fill="#000000" font-family="sans-serif" font-size="14" lengthAdjust="spacing" textLength="204" x="467" y="559.5339">altWebPage : TODOdescription</text><text fill="#000000" font-family="sans-serif" font-size="14" lengthAdjust="spacing" textLength="161" x="467" y="578.6018">other : TODOdescription</text><text fill="#000000" font-family="sans-serif" font-size="14" lengthAdjust="spacing" textLength="231" x="467" y="597.6697">securityAdvisory : TODOdescription</text><text fill="#000000" font-family="sans-serif" font-size="14" lengthAdjust="spacing" textLength="194" x="467" y="616.7376">securityFix : TODOdescription</text><text fill="#000000" font-family="sans-serif" font-size="14" lengthAdjust="spacing" textLength="214" x="467" y="635.8055">securityOther : TODOdescription</text><line style="stroke:#181818;stroke-width:0.5;" x1="462" x2="739" y1="643.9075" y2="643.9075"/></g><g id="elem_GMN11"><path d="M549.5,6 L549.5,104.5301 A0,0 0 0 0 549.5,104.5301 L596.5,104.5301 L600.5,489.44 L604.5,104.5301 L651.5,104.5301 A0,0 0 0 0 651.5,104.5301 L651.5,16 L641.5,6 L549.5,6 A0,0 0 0 0 549.5,6 " fill="#FEFFDD" style="stroke:#181818;stroke-width:0.5;"/><path d="M641.5,6 L641.5,16 L651.5,16 L641.5,6 " fill="#FEFFDD" style="stroke:#181818;stroke-width:0.5;"/><text fill="#000000" font-family="sans-serif" font-size="13" font-weight="bold" lengthAdjust="spacing" textLength="62" x="555.5" y="24.897">Summary</text><text fill="#000000" font-family="sans-serif" font-size="13" lengthAdjust="spacing" textLength="38" x="555.5" y="42.603">TODO</text><text fill="#000000" font-family="sans-serif" font-size="13" font-weight="bold" lengthAdjust="spacing" textLength="81" x="555.5" y="60.309">Description</text><text fill="#000000" font-family="sans-serif" font-size="13" lengthAdjust="spacing" textLength="38" x="555.5" y="78.0151">TODO</text><text fill="#000000" font-family="sans-serif" font-size="13" lengthAdjust="spacing" textLength="3" x="555.5" y="95.7211">&#160;</text></g><!--class HashAlgorithm--><g id="elem_HashAlgorithm"><rect codeLine="1" fill="#F1F1F1" height="429.3583" id="HashAlgorithm" rx="2.5" ry="2.5" style="stroke:#181818;stroke-width:0.5;" width="238" x="775.5" y="356"/><ellipse cx="841.75" cy="372" fill="#EB937F" rx="11" ry="11" style="stroke:#181818;stroke-width:1.0;"/><path d="M838.1406,366.1094 L845.8594,366.1094 L845.8594,368.2656 L840.5938,368.2656 L840.5938,370.9375 L845.3594,370.9375 L845.3594,373.0938 L840.5938,373.0938 L840.5938,376.3438 L845.8594,376.3438 L845.8594,378.5 L838.1406,378.5 L838.1406,366.1094 Z " fill="#000000"/><text fill="#000000" font-family="sans-serif" font-size="14" lengthAdjust="spacing" textLength="97" x="862.25" y="377.432">HashAlgorithm</text><line style="stroke:#181818;stroke-width:0.5;" x1="776.5" x2="1012.5" y1="388" y2="388"/><text fill="#000000" font-family="sans-serif" font-size="14" lengthAdjust="spacing" textLength="199" x="781.5" y="406.9659">blake2b256 : TODOdescription</text><text fill="#000000" font-family="sans-serif" font-size="14" lengthAdjust="spacing" textLength="199" x="781.5" y="426.0339">blake2b384 : TODOdescription</text><text fill="#000000" font-family="sans-serif" font-size="14" lengthAdjust="spacing" textLength="199" x="781.5" y="445.1018">blake2b512 : TODOdescription</text><text fill="#000000" font-family="sans-serif" font-size="14" lengthAdjust="spacing" textLength="167" x="781.5" y="464.1697">blake3 : TODOdescription</text><text fill="#000000" font-family="sans-serif" font-size="14" lengthAdjust="spacing" textLength="154" x="781.5" y="483.2376">md2 : TODOdescription</text><text fill="#000000" font-family="sans-serif" font-size="14" lengthAdjust="spacing" textLength="154" x="781.5" y="502.3055">md4 : TODOdescription</text><text fill="#000000" font-family="sans-serif" font-size="14" lengthAdjust="spacing" textLength="154" x="781.5" y="521.3734">md5 : TODOdescription</text><text fill="#000000" font-family="sans-serif" font-size="14" lengthAdjust="spacing" textLength="154" x="781.5" y="540.4414">md6 : TODOdescription</text><text fill="#000000" font-family="sans-serif" font-size="14" lengthAdjust="spacing" textLength="161" x="781.5" y="559.5093">other : TODOdescription</text><text fill="#000000" font-family="sans-serif" font-size="14" lengthAdjust="spacing" textLength="156" x="781.5" y="578.5772">sha1 : TODOdescription</text><text fill="#000000" font-family="sans-serif" font-size="14" lengthAdjust="spacing" textLength="172" x="781.5" y="597.6451">sha224 : TODOdescription</text><text fill="#000000" font-family="sans-serif" font-size="14" lengthAdjust="spacing" textLength="172" x="781.5" y="616.713">sha256 : TODOdescription</text><text fill="#000000" font-family="sans-serif" font-size="14" lengthAdjust="spacing" textLength="172" x="781.5" y="635.7809">sha384 : TODOdescription</text><text fill="#000000" font-family="sans-serif" font-size="14" lengthAdjust="spacing" textLength="186" x="781.5" y="654.8489">sha3_224 : TODOdescription</text><text fill="#000000" font-family="sans-serif" font-size="14" lengthAdjust="spacing" textLength="186" x="781.5" y="673.9168">sha3_256 : TODOdescription</text><text fill="#000000" font-family="sans-serif" font-size="14" lengthAdjust="spacing" textLength="186" x="781.5" y="692.9847">sha3_384 : TODOdescription</text><text fill="#000000" font-family="sans-serif" font-size="14" lengthAdjust="spacing" textLength="186" x="781.5" y="712.0526">sha3_512 : TODOdescription</text><text fill="#000000" font-family="sans-serif" font-size="14" lengthAdjust="spacing" textLength="172" x="781.5" y="731.1205">sha512 : TODOdescription</text><text fill="#000000" font-family="sans-serif" font-size="14" lengthAdjust="spacing" textLength="210" x="781.5" y="750.1884">spdxPvcSha1 : TODOdescription</text><text fill="#000000" font-family="sans-serif" font-size="14" lengthAdjust="spacing" textLength="226" x="781.5" y="769.2564">spdxPvcSha256 : TODOdescription</text><line style="stroke:#181818;stroke-width:0.5;" x1="776.5" x2="1012.5" y1="777.3583" y2="777.3583"/></g><g id="elem_GMN15"><path d="M843.5,6 L843.5,104.5301 A0,0 0 0 0 843.5,104.5301 L890.5,104.5301 L894.5,355.67 L898.5,104.5301 L945.5,104.5301 A0,0 0 0 0 945.5,104.5301 L945.5,16 L935.5,6 L843.5,6 A0,0 0 0 0 843.5,6 " fill="#FEFFDD" style="stroke:#181818;stroke-width:0.5;"/><path d="M935.5,6 L935.5,16 L945.5,16 L935.5,6 " fill="#FEFFDD" style="stroke:#181818;stroke-width:0.5;"/><text fill="#000000" font-family="sans-serif" font-size="13" font-weight="bold" lengthAdjust="spacing" textLength="62" x="849.5" y="24.897">Summary</text><text fill="#000000" font-family="sans-serif" font-size="13" lengthAdjust="spacing" textLength="38" x="849.5" y="42.603">TODO</text><text fill="#000000" font-family="sans-serif" font-size="13" font-weight="bold" lengthAdjust="spacing" textLength="81" x="849.5" y="60.309">Description</text><text fill="#000000" font-family="sans-serif" font-size="13" lengthAdjust="spacing" textLength="38" x="849.5" y="78.0151">TODO</text><text fill="#000000" font-family="sans-serif" font-size="13" lengthAdjust="spacing" textLength="3" x="849.5" y="95.7211">&#160;</text></g><!--class RelationshipCompleteness--><g id="elem_RelationshipCompleteness"><rect codeLine="1" fill="#F1F1F1" height="105.2038" id="RelationshipCompleteness" rx="2.5" ry="2.5" style="stroke:#181818;stroke-width:0.5;" width="210" x="1048.5" y="518"/><ellipse cx="1065.3" cy="534" fill="#EB937F" rx="11" ry="11" style="stroke:#181818;stroke-width:1.0;"/><path d="M1061.6906,528.1094 L1069.4094,528.1094 L1069.4094,530.2656 L1064.1438,530.2656 L1064.1438,532.9375 L1068.9094,532.9375 L1068.9094,535.0938 L1064.1438,535.0938 L1064.1438,538.3438 L1069.4094,538.3438 L1069.4094,540.5 L1061.6906,540.5 L1061.6906,528.1094 Z " fill="#000000"/><text fill="#000000" font-family="sans-serif" font-size="14" lengthAdjust="spacing" textLength="174" x="1079.7" y="539.432">RelationshipCompleteness</text><line style="stroke:#181818;stroke-width:0.5;" x1="1049.5" x2="1257.5" y1="550" y2="550"/><text fill="#000000" font-family="sans-serif" font-size="14" lengthAdjust="spacing" textLength="198" x="1054.5" y="568.9659">incomplete : TODOdescription</text><text fill="#000000" font-family="sans-serif" font-size="14" lengthAdjust="spacing" textLength="168" x="1054.5" y="588.0339">known : TODOdescription</text><text fill="#000000" font-family="sans-serif" font-size="14" lengthAdjust="spacing" textLength="184" x="1054.5" y="607.1018">unknown : TODOdescription</text><line style="stroke:#181818;stroke-width:0.5;" x1="1049.5" x2="1257.5" y1="615.2038" y2="615.2038"/></g><g id="elem_GMN19"><path d="M1102.5,6 L1102.5,104.5301 A0,0 0 0 0 1102.5,104.5301 L1149.5,104.5301 L1153.5,517.69 L1157.5,104.5301 L1204.5,104.5301 A0,0 0 0 0 1204.5,104.5301 L1204.5,16 L1194.5,6 L1102.5,6 A0,0 0 0 0 1102.5,6 " fill="#FEFFDD" style="stroke:#181818;stroke-width:0.5;"/><path d="M1194.5,6 L1194.5,16 L1204.5,16 L1194.5,6 " fill="#FEFFDD" style="stroke:#181818;stroke-width:0.5;"/><text fill="#000000" font-family="sans-serif" font-size="13" font-weight="bold" lengthAdjust="spacing" textLength="62" x="1108.5" y="24.897">Summary</text><text fill="#000000" font-family="sans-serif" font-size="13" lengthAdjust="spacing" textLength="38" x="1108.5" y="42.603">TODO</text><text fill="#000000" font-family="sans-serif" font-size="13" font-weight="bold" lengthAdjust="spacing" textLength="81" x="1108.5" y="60.309">Description</text><text fill="#000000" font-family="sans-serif" font-size="13" lengthAdjust="spacing" textLength="38" x="1108.5" y="78.0151">TODO</text><text fill="#000000" font-family="sans-serif" font-size="13" lengthAdjust="spacing" textLength="3" x="1108.5" y="95.7211">&#160;</text></g><!--class RelationshipType--><g id="elem_RelationshipType"><rect codeLine="1" fill="#F1F1F1" height="810.7167" id="RelationshipType" rx="2.5" ry="2.5" style="stroke:#181818;stroke-width:0.5;" width="282" x="1293.5" y="165"/><ellipse cx="1374.25" cy="181" fill="#EB937F" rx="11" ry="11" style="stroke:#181818;stroke-width:1.0;"/><path d="M1370.6406,175.1094 L1378.3594,175.1094 L1378.3594,177.2656 L1373.0938,177.2656 L1373.0938,179.9375 L1377.8594,179.9375 L1377.8594,182.0938 L1373.0938,182.0938 L1373.0938,185.3438 L1378.3594,185.3438 L1378.3594,187.5 L1370.6406,187.5 L1370.6406,175.1094 Z " fill="#000000"/><text fill="#000000" font-family="sans-serif" font-size="14" lengthAdjust="spacing" textLength="112" x="1394.75" y="186.432">RelationshipType</text><line style="stroke:#181818;stroke-width:0.5;" x1="1294.5" x2="1574.5" y1="197" y2="197"/><text fill="#000000" font-family="sans-serif" font-size="14" lengthAdjust="spacing" textLength="177" x="1299.5" y="215.9659">amends : TODOdescription</text><text fill="#000000" font-family="sans-serif" font-size="14" lengthAdjust="spacing" textLength="183" x="1299.5" y="235.0339">ancestor : TODOdescription</text><text fill="#000000" font-family="sans-serif" font-size="14" lengthAdjust="spacing" textLength="236" x="1299.5" y="254.1018">buildDependency : TODOdescription</text><text fill="#000000" font-family="sans-serif" font-size="14" lengthAdjust="spacing" textLength="185" x="1299.5" y="273.1697">buildTool : TODOdescription</text><text fill="#000000" font-family="sans-serif" font-size="14" lengthAdjust="spacing" textLength="181" x="1299.5" y="292.2376">contains : TODOdescription</text><text fill="#000000" font-family="sans-serif" font-size="14" lengthAdjust="spacing" textLength="156" x="1299.5" y="311.3055">copy : TODOdescription</text><text fill="#000000" font-family="sans-serif" font-size="14" lengthAdjust="spacing" textLength="177" x="1299.5" y="330.3734">dataFile : TODOdescription</text><text fill="#000000" font-family="sans-serif" font-size="14" lengthAdjust="spacing" textLength="261" x="1299.5" y="349.4414">dependencyManifest : TODOdescription</text><text fill="#000000" font-family="sans-serif" font-size="14" lengthAdjust="spacing" textLength="199" x="1299.5" y="368.5093">dependsOn : TODOdescription</text><text fill="#000000" font-family="sans-serif" font-size="14" lengthAdjust="spacing" textLength="201" x="1299.5" y="387.5772">descendant : TODOdescription</text><text fill="#000000" font-family="sans-serif" font-size="14" lengthAdjust="spacing" textLength="186" x="1299.5" y="406.6451">describes : TODOdescription</text><text fill="#000000" font-family="sans-serif" font-size="14" lengthAdjust="spacing" textLength="229" x="1299.5" y="425.713">devDependency : TODOdescription</text><text fill="#000000" font-family="sans-serif" font-size="14" lengthAdjust="spacing" textLength="178" x="1299.5" y="444.7809">devTool : TODOdescription</text><text fill="#000000" font-family="sans-serif" font-size="14" lengthAdjust="spacing" textLength="248" x="1299.5" y="463.8489">distributionArtifact : TODOdescription</text><text fill="#000000" font-family="sans-serif" font-size="14" lengthAdjust="spacing" textLength="226" x="1299.5" y="482.9168">documentation : TODOdescription</text><text fill="#000000" font-family="sans-serif" font-size="14" lengthAdjust="spacing" textLength="205" x="1299.5" y="501.9847">dynamicLink : TODOdescription</text><text fill="#000000" font-family="sans-serif" font-size="14" lengthAdjust="spacing" textLength="180" x="1299.5" y="521.0526">example : TODOdescription</text><text fill="#000000" font-family="sans-serif" font-size="14" lengthAdjust="spacing" textLength="270" x="1299.5" y="540.1205">expandedFromArchive : TODOdescription</text><text fill="#000000" font-family="sans-serif" font-size="14" lengthAdjust="spacing" textLength="185" x="1299.5" y="559.1884">fileAdded : TODOdescription</text><text fill="#000000" font-family="sans-serif" font-size="14" lengthAdjust="spacing" textLength="196" x="1299.5" y="578.2564">fileDeleted : TODOdescription</text><text fill="#000000" font-family="sans-serif" font-size="14" lengthAdjust="spacing" textLength="201" x="1299.5" y="597.3243">fileModified : TODOdescription</text><text fill="#000000" font-family="sans-serif" font-size="14" lengthAdjust="spacing" textLength="191" x="1299.5" y="616.3922">generates : TODOdescription</text><text fill="#000000" font-family="sans-serif" font-size="14" lengthAdjust="spacing" textLength="179" x="1299.5" y="635.4601">metafile : TODOdescription</text><text fill="#000000" font-family="sans-serif" font-size="14" lengthAdjust="spacing" textLength="257" x="1299.5" y="654.528">optionalComponent : TODOdescription</text><text fill="#000000" font-family="sans-serif" font-size="14" lengthAdjust="spacing" textLength="260" x="1299.5" y="673.5959">optionalDependency : TODOdescription</text><text fill="#000000" font-family="sans-serif" font-size="14" lengthAdjust="spacing" textLength="161" x="1299.5" y="692.6639">other : TODOdescription</text><text fill="#000000" font-family="sans-serif" font-size="14" lengthAdjust="spacing" textLength="186" x="1299.5" y="711.7318">packages : TODOdescription</text><text fill="#000000" font-family="sans-serif" font-size="14" lengthAdjust="spacing" textLength="162" x="1299.5" y="730.7997">patch : TODOdescription</text><text fill="#000000" font-family="sans-serif" font-size="14" lengthAdjust="spacing" textLength="202" x="1299.5" y="749.8676">prerequisite : TODOdescription</text><text fill="#000000" font-family="sans-serif" font-size="14" lengthAdjust="spacing" textLength="262" x="1299.5" y="768.9355">providedDependency : TODOdescription</text><text fill="#000000" font-family="sans-serif" font-size="14" lengthAdjust="spacing" textLength="227" x="1299.5" y="788.0034">requirementFor : TODOdescription</text><text fill="#000000" font-family="sans-serif" font-size="14" lengthAdjust="spacing" textLength="257" x="1299.5" y="807.0714">runtimeDependency : TODOdescription</text><text fill="#000000" font-family="sans-serif" font-size="14" lengthAdjust="spacing" textLength="229" x="1299.5" y="826.1393">specificationFor : TODOdescription</text><text fill="#000000" font-family="sans-serif" font-size="14" lengthAdjust="spacing" textLength="188" x="1299.5" y="845.2072">staticLink : TODOdescription</text><text fill="#000000" font-family="sans-serif" font-size="14" lengthAdjust="spacing" textLength="195" x="1299.5" y="864.2751">suppliedBy : TODOdescription</text><text fill="#000000" font-family="sans-serif" font-size="14" lengthAdjust="spacing" textLength="152" x="1299.5" y="883.343">test : TODOdescription</text><text fill="#000000" font-family="sans-serif" font-size="14" lengthAdjust="spacing" textLength="184" x="1299.5" y="902.4109">testCase : TODOdescription</text><text fill="#000000" font-family="sans-serif" font-size="14" lengthAdjust="spacing" textLength="233" x="1299.5" y="921.4789">testDependency : TODOdescription</text><text fill="#000000" font-family="sans-serif" font-size="14" lengthAdjust="spacing" textLength="182" x="1299.5" y="940.5468">testTool : TODOdescription</text><text fill="#000000" font-family="sans-serif" font-size="14" lengthAdjust="spacing" textLength="170" x="1299.5" y="959.6147">variant : TODOdescription</text><line style="stroke:#181818;stroke-width:0.5;" x1="1294.5" x2="1574.5" y1="967.7167" y2="967.7167"/></g><g id="elem_GMN23"><path d="M1383.5,6 L1383.5,104.5301 A0,0 0 0 0 1383.5,104.5301 L1430.5,104.5301 L1434.5,164.72 L1438.5,104.5301 L1485.5,104.5301 A0,0 0 0 0 1485.5,104.5301 L1485.5,16 L1475.5,6 L1383.5,6 A0,0 0 0 0 1383.5,6 " fill="#FEFFDD" style="stroke:#181818;stroke-width:0.5;"/><path d="M1475.5,6 L1475.5,16 L1485.5,16 L1475.5,6 " fill="#FEFFDD" style="stroke:#181818;stroke-width:0.5;"/><text fill="#000000" font-family="sans-serif" font-size="13" font-weight="bold" lengthAdjust="spacing" textLength="62" x="1389.5" y="24.897">Summary</text><text fill="#000000" font-family="sans-serif" font-size="13" lengthAdjust="spacing" textLength="38" x="1389.5" y="42.603">TODO</text><text fill="#000000" font-family="sans-serif" font-size="13" font-weight="bold" lengthAdjust="spacing" textLength="81" x="1389.5" y="60.309">Description</text><text fill="#000000" font-family="sans-serif" font-size="13" lengthAdjust="spacing" textLength="38" x="1389.5" y="78.0151">TODO</text><text fill="#000000" font-family="sans-serif" font-size="13" lengthAdjust="spacing" textLength="3" x="1389.5" y="95.7211">&#160;</text></g><!--SRC=[bSz12i8m48NXlQUm5qZFKAIWso9k9QQlPc0o4v89wEqjBbnAktyVlByZ2Tnct5K2ZixrDmt-qTWNGkq74JLlf79zPxZS4X-wls9y6OfulimGeuLGzie92mhMnLPuzZKE_DH25jCMC86_JJLIFcdA38EWrhtsT_03]--></g></svg>