<?xml version="1.0" encoding="us-ascii" standalone="no"?><svg xmlns="http://www.w3.org/2000/svg" xmlns:xlink="http://www.w3.org/1999/xlink" contentStyleType="text/css" height="1670px" preserveAspectRatio="none" style="width:2557px;height:1670px;background:#FFFFFF;" version="1.1" viewBox="0 0 2557 1670" width="2557px" zoomAndPan="magnify"><defs/><g><!--class AnnotationType--><g id="elem_AnnotationType"><rect codeLine="1" fill="#F1F1F1" height="86.1358" id="AnnotationType" rx="2.5" ry="2.5" style="stroke:#181818;stroke-width:0.5;" width="179" x="7" y="876"/><ellipse cx="40.45" cy="892" fill="#EB937F" rx="11" ry="11" style="stroke:#181818;stroke-width:1.0;"/><path d="M36.8406,886.1094 L44.5594,886.1094 L44.5594,888.2656 L39.2938,888.2656 L39.2938,890.9375 L44.0594,890.9375 L44.0594,893.0938 L39.2938,893.0938 L39.2938,896.3438 L44.5594,896.3438 L44.5594,898.5 L36.8406,898.5 L36.8406,886.1094 Z " fill="#000000"/><text fill="#000000" font-family="sans-serif" font-size="14" lengthAdjust="spacing" textLength="106" x="58.55" y="897.432">AnnotationType</text><line style="stroke:#181818;stroke-width:0.5;" x1="8" x2="185" y1="908" y2="908"/><text fill="#000000" font-family="sans-serif" font-size="14" lengthAdjust="spacing" textLength="161" x="13" y="926.9659">other : TODOdescription</text><text fill="#000000" font-family="sans-serif" font-size="14" lengthAdjust="spacing" textLength="167" x="13" y="946.0339">review : TODOdescription</text><line style="stroke:#181818;stroke-width:0.5;" x1="8" x2="185" y1="954.1358" y2="954.1358"/></g><g id="elem_GMN3"><path d="M45.5,6 L45.5,104.5301 A0,0 0 0 0 45.5,104.5301 L92.5,104.5301 L96.5,875.69 L100.5,104.5301 L147.5,104.5301 A0,0 0 0 0 147.5,104.5301 L147.5,16 L137.5,6 L45.5,6 A0,0 0 0 0 45.5,6 " fill="#FEFFDD" style="stroke:#181818;stroke-width:0.5;"/><path d="M137.5,6 L137.5,16 L147.5,16 L137.5,6 " fill="#FEFFDD" style="stroke:#181818;stroke-width:0.5;"/><text fill="#000000" font-family="sans-serif" font-size="13" font-weight="bold" lengthAdjust="spacing" textLength="62" x="51.5" y="24.897">Summary</text><text fill="#000000" font-family="sans-serif" font-size="13" lengthAdjust="spacing" textLength="38" x="51.5" y="42.603">TODO</text><text fill="#000000" font-family="sans-serif" font-size="13" font-weight="bold" lengthAdjust="spacing" textLength="81" x="51.5" y="60.309">Description</text><text fill="#000000" font-family="sans-serif" font-size="13" lengthAdjust="spacing" textLength="38" x="51.5" y="78.0151">TODO</text><text fill="#000000" font-family="sans-serif" font-size="13" lengthAdjust="spacing" textLength="3" x="51.5" y="95.7211">&#160;</text></g><path d="M221,881.5 L221,891.353 L174,921.534 L221,899.353 L221,909.206 A0,0 0 0 0 221,909.206 L348,909.206 A0,0 0 0 0 348,909.206 L348,891.5 L338,881.5 L221,881.5 A0,0 0 0 0 221,881.5 " fill="#FEFFDD" style="stroke:#181818;stroke-width:0.5;"/><path d="M338,881.5 L338,891.5 L348,891.5 L338,881.5 " fill="#FEFFDD" style="stroke:#181818;stroke-width:0.5;"/><text fill="#000000" font-family="sans-serif" font-size="13" lengthAdjust="spacing" textLength="106" x="227" y="900.397">TODOdescription</text><path d="M221,919.206 L221,929.059 L180,940.6019 L221,937.059 L221,946.912 A0,0 0 0 0 221,946.912 L348,946.912 A0,0 0 0 0 348,946.912 L348,929.206 L338,919.206 L221,919.206 A0,0 0 0 0 221,919.206 " fill="#FEFFDD" style="stroke:#181818;stroke-width:0.5;"/><path d="M338,919.206 L338,929.206 L348,929.206 L338,919.206 " fill="#FEFFDD" style="stroke:#181818;stroke-width:0.5;"/><text fill="#000000" font-family="sans-serif" font-size="13" lengthAdjust="spacing" textLength="106" x="227" y="938.103">TODOdescription</text><!--class ExternalIdentifierType--><g id="elem_ExternalIdentifierType"><rect codeLine="1" fill="#F1F1F1" height="219.6113" id="ExternalIdentifierType" rx="2.5" ry="2.5" style="stroke:#181818;stroke-width:0.5;" width="205" x="383" y="809"/><ellipse cx="411.05" cy="825" fill="#EB937F" rx="11" ry="11" style="stroke:#181818;stroke-width:1.0;"/><path d="M407.4406,819.1094 L415.1594,819.1094 L415.1594,821.2656 L409.8938,821.2656 L409.8938,823.9375 L414.6594,823.9375 L414.6594,826.0938 L409.8938,826.0938 L409.8938,829.3438 L415.1594,829.3438 L415.1594,831.5 L407.4406,831.5 L407.4406,819.1094 Z " fill="#000000"/><text fill="#000000" font-family="sans-serif" font-size="14" lengthAdjust="spacing" textLength="144" x="427.95" y="830.432">ExternalIdentifierType</text><line style="stroke:#181818;stroke-width:0.5;" x1="384" x2="587" y1="841" y2="841"/><text fill="#000000" font-family="sans-serif" font-size="14" lengthAdjust="spacing" textLength="164" x="389" y="859.9659">cpe22 : TODOdescription</text><text fill="#000000" font-family="sans-serif" font-size="14" lengthAdjust="spacing" textLength="164" x="389" y="879.0339">cpe23 : TODOdescription</text><text fill="#000000" font-family="sans-serif" font-size="14" lengthAdjust="spacing" textLength="160" x="389" y="898.1018">email : TODOdescription</text><text fill="#000000" font-family="sans-serif" font-size="14" lengthAdjust="spacing" textLength="162" x="389" y="917.1697">gitoid : TODOdescription</text><text fill="#000000" font-family="sans-serif" font-size="14" lengthAdjust="spacing" textLength="161" x="389" y="936.2376">other : TODOdescription</text><text fill="#000000" font-family="sans-serif" font-size="14" lengthAdjust="spacing" textLength="165" x="389" y="955.3055">pkgUrl : TODOdescription</text><text fill="#000000" font-family="sans-serif" font-size="14" lengthAdjust="spacing" textLength="162" x="389" y="974.3734">swhid : TODOdescription</text><text fill="#000000" font-family="sans-serif" font-size="14" lengthAdjust="spacing" textLength="154" x="389" y="993.4414">swid : TODOdescription</text><text fill="#000000" font-family="sans-serif" font-size="14" lengthAdjust="spacing" textLength="193" x="389" y="1012.5093">urlScheme : TODOdescription</text><line style="stroke:#181818;stroke-width:0.5;" x1="384" x2="587" y1="1020.6113" y2="1020.6113"/></g><g id="elem_GMN9"><path d="M434.5,6 L434.5,104.5301 A0,0 0 0 0 434.5,104.5301 L481.5,104.5301 L485.5,808.53 L489.5,104.5301 L536.5,104.5301 A0,0 0 0 0 536.5,104.5301 L536.5,16 L526.5,6 L434.5,6 A0,0 0 0 0 434.5,6 " fill="#FEFFDD" style="stroke:#181818;stroke-width:0.5;"/><path d="M526.5,6 L526.5,16 L536.5,16 L526.5,6 " fill="#FEFFDD" style="stroke:#181818;stroke-width:0.5;"/><text fill="#000000" font-family="sans-serif" font-size="13" font-weight="bold" lengthAdjust="spacing" textLength="62" x="440.5" y="24.897">Summary</text><text fill="#000000" font-family="sans-serif" font-size="13" lengthAdjust="spacing" textLength="38" x="440.5" y="42.603">TODO</text><text fill="#000000" font-family="sans-serif" font-size="13" font-weight="bold" lengthAdjust="spacing" textLength="81" x="440.5" y="60.309">Description</text><text fill="#000000" font-family="sans-serif" font-size="13" lengthAdjust="spacing" textLength="38" x="440.5" y="78.0151">TODO</text><text fill="#000000" font-family="sans-serif" font-size="13" lengthAdjust="spacing" textLength="3" x="440.5" y="95.7211">&#160;</text></g><path d="M623,749.5 L623,759.353 L553,854.534 L623,767.353 L623,777.206 A0,0 0 0 0 623,777.206 L750,777.206 A0,0 0 0 0 750,777.206 L750,759.5 L740,749.5 L623,749.5 A0,0 0 0 0 623,749.5 " fill="#FEFFDD" style="stroke:#181818;stroke-width:0.5;"/><path d="M740,749.5 L740,759.5 L750,759.5 L740,749.5 " fill="#FEFFDD" style="stroke:#181818;stroke-width:0.5;"/><text fill="#000000" font-family="sans-serif" font-size="13" lengthAdjust="spacing" textLength="106" x="629" y="768.397">TODOdescription</text><path d="M623,787.206 L623,797.059 L553,873.6019 L623,805.059 L623,814.912 A0,0 0 0 0 623,814.912 L750,814.912 A0,0 0 0 0 750,814.912 L750,797.206 L740,787.206 L623,787.206 A0,0 0 0 0 623,787.206 " fill="#FEFFDD" style="stroke:#181818;stroke-width:0.5;"/><path d="M740,787.206 L740,797.206 L750,797.206 L740,787.206 " fill="#FEFFDD" style="stroke:#181818;stroke-width:0.5;"/><text fill="#000000" font-family="sans-serif" font-size="13" lengthAdjust="spacing" textLength="106" x="629" y="806.103">TODOdescription</text><path d="M623,824.912 L623,834.765 L549,892.6698 L623,842.765 L623,852.618 A0,0 0 0 0 623,852.618 L750,852.618 A0,0 0 0 0 750,852.618 L750,834.912 L740,824.912 L623,824.912 A0,0 0 0 0 623,824.912 " fill="#FEFFDD" style="stroke:#181818;stroke-width:0.5;"/><path d="M740,824.912 L740,834.912 L750,834.912 L740,824.912 " fill="#FEFFDD" style="stroke:#181818;stroke-width:0.5;"/><text fill="#000000" font-family="sans-serif" font-size="13" lengthAdjust="spacing" textLength="106" x="629" y="843.809">TODOdescription</text><path d="M623,862.618 L623,872.4711 L551,911.7377 L623,880.4711 L623,890.3241 A0,0 0 0 0 623,890.3241 L750,890.3241 A0,0 0 0 0 750,890.3241 L750,872.618 L740,862.618 L623,862.618 A0,0 0 0 0 623,862.618 " fill="#FEFFDD" style="stroke:#181818;stroke-width:0.5;"/><path d="M740,862.618 L740,872.618 L750,872.618 L740,862.618 " fill="#FEFFDD" style="stroke:#181818;stroke-width:0.5;"/><text fill="#000000" font-family="sans-serif" font-size="13" lengthAdjust="spacing" textLength="106" x="629" y="881.5151">TODOdescription</text><path d="M623,900.3241 L623,910.1771 L550,930.8056 L623,918.1771 L623,928.0301 A0,0 0 0 0 623,928.0301 L750,928.0301 A0,0 0 0 0 750,928.0301 L750,910.3241 L740,900.3241 L623,900.3241 A0,0 0 0 0 623,900.3241 " fill="#FEFFDD" style="stroke:#181818;stroke-width:0.5;"/><path d="M740,900.3241 L740,910.3241 L750,910.3241 L740,900.3241 " fill="#FEFFDD" style="stroke:#181818;stroke-width:0.5;"/><text fill="#000000" font-family="sans-serif" font-size="13" lengthAdjust="spacing" textLength="106" x="629" y="919.2211">TODOdescription</text><path d="M623,938.0301 L623,947.8831 L554,949.8735 L623,955.8831 L623,965.7361 A0,0 0 0 0 623,965.7361 L750,965.7361 A0,0 0 0 0 750,965.7361 L750,948.0301 L740,938.0301 L623,938.0301 A0,0 0 0 0 623,938.0301 " fill="#FEFFDD" style="stroke:#181818;stroke-width:0.5;"/><path d="M740,938.0301 L740,948.0301 L750,948.0301 L740,938.0301 " fill="#FEFFDD" style="stroke:#181818;stroke-width:0.5;"/><text fill="#000000" font-family="sans-serif" font-size="13" lengthAdjust="spacing" textLength="106" x="629" y="956.9271">TODOdescription</text><path d="M623,975.7361 L623,985.5891 L551,968.9415 L623,993.5891 L623,1003.4421 A0,0 0 0 0 623,1003.4421 L750,1003.4421 A0,0 0 0 0 750,1003.4421 L750,985.7361 L740,975.7361 L623,975.7361 A0,0 0 0 0 623,975.7361 " fill="#FEFFDD" style="stroke:#181818;stroke-width:0.5;"/><path d="M740,975.7361 L740,985.7361 L750,985.7361 L740,975.7361 " fill="#FEFFDD" style="stroke:#181818;stroke-width:0.5;"/><text fill="#000000" font-family="sans-serif" font-size="13" lengthAdjust="spacing" textLength="106" x="629" y="994.6331">TODOdescription</text><path d="M623,1013.4421 L623,1023.2951 L543,988.0094 L623,1031.2951 L623,1041.1481 A0,0 0 0 0 623,1041.1481 L750,1041.1481 A0,0 0 0 0 750,1041.1481 L750,1023.4421 L740,1013.4421 L623,1013.4421 A0,0 0 0 0 623,1013.4421 " fill="#FEFFDD" style="stroke:#181818;stroke-width:0.5;"/><path d="M740,1013.4421 L740,1023.4421 L750,1023.4421 L740,1013.4421 " fill="#FEFFDD" style="stroke:#181818;stroke-width:0.5;"/><text fill="#000000" font-family="sans-serif" font-size="13" lengthAdjust="spacing" textLength="106" x="629" y="1032.3391">TODOdescription</text><path d="M623,1051.1481 L623,1061.0011 L582,1007.0773 L623,1069.0011 L623,1078.8541 A0,0 0 0 0 623,1078.8541 L750,1078.8541 A0,0 0 0 0 750,1078.8541 L750,1061.1481 L740,1051.1481 L623,1051.1481 A0,0 0 0 0 623,1051.1481 " fill="#FEFFDD" style="stroke:#181818;stroke-width:0.5;"/><path d="M740,1051.1481 L740,1061.1481 L750,1061.1481 L740,1051.1481 " fill="#FEFFDD" style="stroke:#181818;stroke-width:0.5;"/><text fill="#000000" font-family="sans-serif" font-size="13" lengthAdjust="spacing" textLength="106" x="629" y="1070.0451">TODOdescription</text><!--class ExternalReferenceType--><g id="elem_ExternalReferenceType"><rect codeLine="1" fill="#F1F1F1" height="162.4075" id="ExternalReferenceType" rx="2.5" ry="2.5" style="stroke:#181818;stroke-width:0.5;" width="279" x="785" y="838"/><ellipse cx="844.75" cy="854" fill="#EB937F" rx="11" ry="11" style="stroke:#181818;stroke-width:1.0;"/><path d="M841.1406,848.1094 L848.8594,848.1094 L848.8594,850.2656 L843.5938,850.2656 L843.5938,852.9375 L848.3594,852.9375 L848.3594,855.0938 L843.5938,855.0938 L843.5938,858.3438 L848.8594,858.3438 L848.8594,860.5 L841.1406,860.5 L841.1406,848.1094 Z " fill="#000000"/><text fill="#000000" font-family="sans-serif" font-size="14" lengthAdjust="spacing" textLength="151" x="865.25" y="859.432">ExternalReferenceType</text><line style="stroke:#181818;stroke-width:0.5;" x1="786" x2="1063" y1="870" y2="870"/><text fill="#000000" font-family="sans-serif" font-size="14" lengthAdjust="spacing" textLength="267" x="791" y="888.9659">altDownloadLocation : TODOdescription</text><text fill="#000000" font-family="sans-serif" font-size="14" lengthAdjust="spacing" textLength="204" x="791" y="908.0339">altWebPage : TODOdescription</text><text fill="#000000" font-family="sans-serif" font-size="14" lengthAdjust="spacing" textLength="161" x="791" y="927.1018">other : TODOdescription</text><text fill="#000000" font-family="sans-serif" font-size="14" lengthAdjust="spacing" textLength="231" x="791" y="946.1697">securityAdvisory : TODOdescription</text><text fill="#000000" font-family="sans-serif" font-size="14" lengthAdjust="spacing" textLength="194" x="791" y="965.2376">securityFix : TODOdescription</text><text fill="#000000" font-family="sans-serif" font-size="14" lengthAdjust="spacing" textLength="214" x="791" y="984.3055">securityOther : TODOdescription</text><line style="stroke:#181818;stroke-width:0.5;" x1="786" x2="1063" y1="992.4075" y2="992.4075"/></g><g id="elem_GMN15"><path d="M873.5,6 L873.5,104.5301 A0,0 0 0 0 873.5,104.5301 L920.5,104.5301 L924.5,837.8 L928.5,104.5301 L975.5,104.5301 A0,0 0 0 0 975.5,104.5301 L975.5,16 L965.5,6 L873.5,6 A0,0 0 0 0 873.5,6 " fill="#FEFFDD" style="stroke:#181818;stroke-width:0.5;"/><path d="M965.5,6 L965.5,16 L975.5,16 L965.5,6 " fill="#FEFFDD" style="stroke:#181818;stroke-width:0.5;"/><text fill="#000000" font-family="sans-serif" font-size="13" font-weight="bold" lengthAdjust="spacing" textLength="62" x="879.5" y="24.897">Summary</text><text fill="#000000" font-family="sans-serif" font-size="13" lengthAdjust="spacing" textLength="38" x="879.5" y="42.603">TODO</text><text fill="#000000" font-family="sans-serif" font-size="13" font-weight="bold" lengthAdjust="spacing" textLength="81" x="879.5" y="60.309">Description</text><text fill="#000000" font-family="sans-serif" font-size="13" lengthAdjust="spacing" textLength="38" x="879.5" y="78.0151">TODO</text><text fill="#000000" font-family="sans-serif" font-size="13" lengthAdjust="spacing" textLength="3" x="879.5" y="95.7211">&#160;</text></g><path d="M1099,806 L1099,815.853 L1058,883.534 L1099,823.853 L1099,833.706 A0,0 0 0 0 1099,833.706 L1226,833.706 A0,0 0 0 0 1226,833.706 L1226,816 L1216,806 L1099,806 A0,0 0 0 0 1099,806 " fill="#FEFFDD" style="stroke:#181818;stroke-width:0.5;"/><path d="M1216,806 L1216,816 L1226,816 L1216,806 " fill="#FEFFDD" style="stroke:#181818;stroke-width:0.5;"/><text fill="#000000" font-family="sans-serif" font-size="13" lengthAdjust="spacing" textLength="106" x="1105" y="824.897">TODOdescription</text><path d="M1099,843.706 L1099,853.559 L995,902.6019 L1099,861.559 L1099,871.412 A0,0 0 0 0 1099,871.412 L1226,871.412 A0,0 0 0 0 1226,871.412 L1226,853.706 L1216,843.706 L1099,843.706 A0,0 0 0 0 1099,843.706 " fill="#FEFFDD" style="stroke:#181818;stroke-width:0.5;"/><path d="M1216,843.706 L1216,853.706 L1226,853.706 L1216,843.706 " fill="#FEFFDD" style="stroke:#181818;stroke-width:0.5;"/><text fill="#000000" font-family="sans-serif" font-size="13" lengthAdjust="spacing" textLength="106" x="1105" y="862.603">TODOdescription</text><path d="M1099,881.412 L1099,891.265 L952,921.6698 L1099,899.265 L1099,909.118 A0,0 0 0 0 1099,909.118 L1226,909.118 A0,0 0 0 0 1226,909.118 L1226,891.412 L1216,881.412 L1099,881.412 A0,0 0 0 0 1099,881.412 " fill="#FEFFDD" style="stroke:#181818;stroke-width:0.5;"/><path d="M1216,881.412 L1216,891.412 L1226,891.412 L1216,881.412 " fill="#FEFFDD" style="stroke:#181818;stroke-width:0.5;"/><text fill="#000000" font-family="sans-serif" font-size="13" lengthAdjust="spacing" textLength="106" x="1105" y="900.309">TODOdescription</text><path d="M1099,919.118 L1099,928.9711 L1022,940.7377 L1099,936.9711 L1099,946.8241 A0,0 0 0 0 1099,946.8241 L1226,946.8241 A0,0 0 0 0 1226,946.8241 L1226,929.118 L1216,919.118 L1099,919.118 A0,0 0 0 0 1099,919.118 " fill="#FEFFDD" style="stroke:#181818;stroke-width:0.5;"/><path d="M1216,919.118 L1216,929.118 L1226,929.118 L1216,919.118 " fill="#FEFFDD" style="stroke:#181818;stroke-width:0.5;"/><text fill="#000000" font-family="sans-serif" font-size="13" lengthAdjust="spacing" textLength="106" x="1105" y="938.0151">TODOdescription</text><path d="M1099,956.8241 L1099,966.6771 L985,959.8056 L1099,974.6771 L1099,984.5301 A0,0 0 0 0 1099,984.5301 L1226,984.5301 A0,0 0 0 0 1226,984.5301 L1226,966.8241 L1216,956.8241 L1099,956.8241 A0,0 0 0 0 1099,956.8241 " fill="#FEFFDD" style="stroke:#181818;stroke-width:0.5;"/><path d="M1216,956.8241 L1216,966.8241 L1226,966.8241 L1216,956.8241 " fill="#FEFFDD" style="stroke:#181818;stroke-width:0.5;"/><text fill="#000000" font-family="sans-serif" font-size="13" lengthAdjust="spacing" textLength="106" x="1105" y="975.7211">TODOdescription</text><path d="M1099,994.5301 L1099,1004.3831 L1005,978.8735 L1099,1012.3831 L1099,1022.2361 A0,0 0 0 0 1099,1022.2361 L1226,1022.2361 A0,0 0 0 0 1226,1022.2361 L1226,1004.5301 L1216,994.5301 L1099,994.5301 A0,0 0 0 0 1099,994.5301 " fill="#FEFFDD" style="stroke:#181818;stroke-width:0.5;"/><path d="M1216,994.5301 L1216,1004.5301 L1226,1004.5301 L1216,994.5301 " fill="#FEFFDD" style="stroke:#181818;stroke-width:0.5;"/><text fill="#000000" font-family="sans-serif" font-size="13" lengthAdjust="spacing" textLength="106" x="1105" y="1013.4271">TODOdescription</text><!--class HashAlgorithm--><g id="elem_HashAlgorithm"><rect codeLine="1" fill="#F1F1F1" height="429.3583" id="HashAlgorithm" rx="2.5" ry="2.5" style="stroke:#181818;stroke-width:0.5;" width="238" x="1261.5" y="704.5"/><ellipse cx="1327.75" cy="720.5" fill="#EB937F" rx="11" ry="11" style="stroke:#181818;stroke-width:1.0;"/><path d="M1324.1406,714.6094 L1331.8594,714.6094 L1331.8594,716.7656 L1326.5938,716.7656 L1326.5938,719.4375 L1331.3594,719.4375 L1331.3594,721.5938 L1326.5938,721.5938 L1326.5938,724.8438 L1331.8594,724.8438 L1331.8594,727 L1324.1406,727 L1324.1406,714.6094 Z " fill="#000000"/><text fill="#000000" font-family="sans-serif" font-size="14" lengthAdjust="spacing" textLength="97" x="1348.25" y="725.932">HashAlgorithm</text><line style="stroke:#181818;stroke-width:0.5;" x1="1262.5" x2="1498.5" y1="736.5" y2="736.5"/><text fill="#000000" font-family="sans-serif" font-size="14" lengthAdjust="spacing" textLength="199" x="1267.5" y="755.4659">blake2b256 : TODOdescription</text><text fill="#000000" font-family="sans-serif" font-size="14" lengthAdjust="spacing" textLength="199" x="1267.5" y="774.5339">blake2b384 : TODOdescription</text><text fill="#000000" font-family="sans-serif" font-size="14" lengthAdjust="spacing" textLength="199" x="1267.5" y="793.6018">blake2b512 : TODOdescription</text><text fill="#000000" font-family="sans-serif" font-size="14" lengthAdjust="spacing" textLength="167" x="1267.5" y="812.6697">blake3 : TODOdescription</text><text fill="#000000" font-family="sans-serif" font-size="14" lengthAdjust="spacing" textLength="154" x="1267.5" y="831.7376">md2 : TODOdescription</text><text fill="#000000" font-family="sans-serif" font-size="14" lengthAdjust="spacing" textLength="154" x="1267.5" y="850.8055">md4 : TODOdescription</text><text fill="#000000" font-family="sans-serif" font-size="14" lengthAdjust="spacing" textLength="154" x="1267.5" y="869.8734">md5 : TODOdescription</text><text fill="#000000" font-family="sans-serif" font-size="14" lengthAdjust="spacing" textLength="154" x="1267.5" y="888.9414">md6 : TODOdescription</text><text fill="#000000" font-family="sans-serif" font-size="14" lengthAdjust="spacing" textLength="161" x="1267.5" y="908.0093">other : TODOdescription</text><text fill="#000000" font-family="sans-serif" font-size="14" lengthAdjust="spacing" textLength="156" x="1267.5" y="927.0772">sha1 : TODOdescription</text><text fill="#000000" font-family="sans-serif" font-size="14" lengthAdjust="spacing" textLength="172" x="1267.5" y="946.1451">sha224 : TODOdescription</text><text fill="#000000" font-family="sans-serif" font-size="14" lengthAdjust="spacing" textLength="172" x="1267.5" y="965.213">sha256 : TODOdescription</text><text fill="#000000" font-family="sans-serif" font-size="14" lengthAdjust="spacing" textLength="172" x="1267.5" y="984.2809">sha384 : TODOdescription</text><text fill="#000000" font-family="sans-serif" font-size="14" lengthAdjust="spacing" textLength="186" x="1267.5" y="1003.3489">sha3_224 : TODOdescription</text><text fill="#000000" font-family="sans-serif" font-size="14" lengthAdjust="spacing" textLength="186" x="1267.5" y="1022.4168">sha3_256 : TODOdescription</text><text fill="#000000" font-family="sans-serif" font-size="14" lengthAdjust="spacing" textLength="186" x="1267.5" y="1041.4847">sha3_384 : TODOdescription</text><text fill="#000000" font-family="sans-serif" font-size="14" lengthAdjust="spacing" textLength="186" x="1267.5" y="1060.5526">sha3_512 : TODOdescription</text><text fill="#000000" font-family="sans-serif" font-size="14" lengthAdjust="spacing" textLength="172" x="1267.5" y="1079.6205">sha512 : TODOdescription</text><text fill="#000000" font-family="sans-serif" font-size="14" lengthAdjust="spacing" textLength="210" x="1267.5" y="1098.6884">spdxPvcSha1 : TODOdescription</text><text fill="#000000" font-family="sans-serif" font-size="14" lengthAdjust="spacing" textLength="226" x="1267.5" y="1117.7564">spdxPvcSha256 : TODOdescription</text><line style="stroke:#181818;stroke-width:0.5;" x1="1262.5" x2="1498.5" y1="1125.8583" y2="1125.8583"/></g><g id="elem_GMN21"><path d="M1329.5,6 L1329.5,104.5301 A0,0 0 0 0 1329.5,104.5301 L1376.5,104.5301 L1380.5,704.18 L1384.5,104.5301 L1431.5,104.5301 A0,0 0 0 0 1431.5,104.5301 L1431.5,16 L1421.5,6 L1329.5,6 A0,0 0 0 0 1329.5,6 " fill="#FEFFDD" style="stroke:#181818;stroke-width:0.5;"/><path d="M1421.5,6 L1421.5,16 L1431.5,16 L1421.5,6 " fill="#FEFFDD" style="stroke:#181818;stroke-width:0.5;"/><text fill="#000000" font-family="sans-serif" font-size="13" font-weight="bold" lengthAdjust="spacing" textLength="62" x="1335.5" y="24.897">Summary</text><text fill="#000000" font-family="sans-serif" font-size="13" lengthAdjust="spacing" textLength="38" x="1335.5" y="42.603">TODO</text><text fill="#000000" font-family="sans-serif" font-size="13" font-weight="bold" lengthAdjust="spacing" textLength="81" x="1335.5" y="60.309">Description</text><text fill="#000000" font-family="sans-serif" font-size="13" lengthAdjust="spacing" textLength="38" x="1335.5" y="78.0151">TODO</text><text fill="#000000" font-family="sans-serif" font-size="13" lengthAdjust="spacing" textLength="3" x="1335.5" y="95.7211">&#160;</text></g><path d="M1535,542 L1535,551.853 L1466.5,750.034 L1535,559.853 L1535,569.706 A0,0 0 0 0 1535,569.706 L1662,569.706 A0,0 0 0 0 1662,569.706 L1662,552 L1652,542 L1535,542 A0,0 0 0 0 1535,542 " fill="#FEFFDD" style="stroke:#181818;stroke-width:0.5;"/><path d="M1652,542 L1652,552 L1662,552 L1652,542 " fill="#FEFFDD" style="stroke:#181818;stroke-width:0.5;"/><text fill="#000000" font-family="sans-serif" font-size="13" lengthAdjust="spacing" textLength="106" x="1541" y="560.897">TODOdescription</text><path d="M1535,579.706 L1535,589.559 L1466.5,769.1019 L1535,597.559 L1535,607.412 A0,0 0 0 0 1535,607.412 L1662,607.412 A0,0 0 0 0 1662,607.412 L1662,589.706 L1652,579.706 L1535,579.706 A0,0 0 0 0 1535,579.706 " fill="#FEFFDD" style="stroke:#181818;stroke-width:0.5;"/><path d="M1652,579.706 L1652,589.706 L1662,589.706 L1652,579.706 " fill="#FEFFDD" style="stroke:#181818;stroke-width:0.5;"/><text fill="#000000" font-family="sans-serif" font-size="13" lengthAdjust="spacing" textLength="106" x="1541" y="598.603">TODOdescription</text><path d="M1535,617.412 L1535,627.265 L1466.5,788.1698 L1535,635.265 L1535,645.118 A0,0 0 0 0 1535,645.118 L1662,645.118 A0,0 0 0 0 1662,645.118 L1662,627.412 L1652,617.412 L1535,617.412 A0,0 0 0 0 1535,617.412 " fill="#FEFFDD" style="stroke:#181818;stroke-width:0.5;"/><path d="M1652,617.412 L1652,627.412 L1662,627.412 L1652,617.412 " fill="#FEFFDD" style="stroke:#181818;stroke-width:0.5;"/><text fill="#000000" font-family="sans-serif" font-size="13" lengthAdjust="spacing" textLength="106" x="1541" y="636.309">TODOdescription</text><path d="M1535,655.118 L1535,664.9711 L1434.5,807.2377 L1535,672.9711 L1535,682.8241 A0,0 0 0 0 1535,682.8241 L1662,682.8241 A0,0 0 0 0 1662,682.8241 L1662,665.118 L1652,655.118 L1535,655.118 A0,0 0 0 0 1535,655.118 " fill="#FEFFDD" style="stroke:#181818;stroke-width:0.5;"/><path d="M1652,655.118 L1652,665.118 L1662,665.118 L1652,655.118 " fill="#FEFFDD" style="stroke:#181818;stroke-width:0.5;"/><text fill="#000000" font-family="sans-serif" font-size="13" lengthAdjust="spacing" textLength="106" x="1541" y="674.0151">TODOdescription</text><path d="M1535,692.8241 L1535,702.6771 L1421.5,826.3056 L1535,710.6771 L1535,720.5301 A0,0 0 0 0 1535,720.5301 L1662,720.5301 A0,0 0 0 0 1662,720.5301 L1662,702.8241 L1652,692.8241 L1535,692.8241 A0,0 0 0 0 1535,692.8241 " fill="#FEFFDD" style="stroke:#181818;stroke-width:0.5;"/><path d="M1652,692.8241 L1652,702.8241 L1662,702.8241 L1652,692.8241 " fill="#FEFFDD" style="stroke:#181818;stroke-width:0.5;"/><text fill="#000000" font-family="sans-serif" font-size="13" lengthAdjust="spacing" textLength="106" x="1541" y="711.7211">TODOdescription</text><path d="M1535,730.5301 L1535,740.3831 L1421.5,845.3735 L1535,748.3831 L1535,758.2361 A0,0 0 0 0 1535,758.2361 L1662,758.2361 A0,0 0 0 0 1662,758.2361 L1662,740.5301 L1652,730.5301 L1535,730.5301 A0,0 0 0 0 1535,730.5301 " fill="#FEFFDD" style="stroke:#181818;stroke-width:0.5;"/><path d="M1652,730.5301 L1652,740.5301 L1662,740.5301 L1652,730.5301 " fill="#FEFFDD" style="stroke:#181818;stroke-width:0.5;"/><text fill="#000000" font-family="sans-serif" font-size="13" lengthAdjust="spacing" textLength="106" x="1541" y="749.4271">TODOdescription</text><path d="M1535,768.2361 L1535,778.0891 L1421.5,864.4415 L1535,786.0891 L1535,795.9421 A0,0 0 0 0 1535,795.9421 L1662,795.9421 A0,0 0 0 0 1662,795.9421 L1662,778.2361 L1652,768.2361 L1535,768.2361 A0,0 0 0 0 1535,768.2361 " fill="#FEFFDD" style="stroke:#181818;stroke-width:0.5;"/><path d="M1652,768.2361 L1652,778.2361 L1662,778.2361 L1652,768.2361 " fill="#FEFFDD" style="stroke:#181818;stroke-width:0.5;"/><text fill="#000000" font-family="sans-serif" font-size="13" lengthAdjust="spacing" textLength="106" x="1541" y="787.1331">TODOdescription</text><path d="M1535,805.9421 L1535,815.7951 L1421.5,883.5094 L1535,823.7951 L1535,833.6481 A0,0 0 0 0 1535,833.6481 L1662,833.6481 A0,0 0 0 0 1662,833.6481 L1662,815.9421 L1652,805.9421 L1535,805.9421 A0,0 0 0 0 1535,805.9421 " fill="#FEFFDD" style="stroke:#181818;stroke-width:0.5;"/><path d="M1652,805.9421 L1652,815.9421 L1662,815.9421 L1652,805.9421 " fill="#FEFFDD" style="stroke:#181818;stroke-width:0.5;"/><text fill="#000000" font-family="sans-serif" font-size="13" lengthAdjust="spacing" textLength="106" x="1541" y="824.8391">TODOdescription</text><path d="M1535,843.6481 L1535,853.5011 L1428.5,902.5773 L1535,861.5011 L1535,871.3541 A0,0 0 0 0 1535,871.3541 L1662,871.3541 A0,0 0 0 0 1662,871.3541 L1662,853.6481 L1652,843.6481 L1535,843.6481 A0,0 0 0 0 1535,843.6481 " fill="#FEFFDD" style="stroke:#181818;stroke-width:0.5;"/><path d="M1652,843.6481 L1652,853.6481 L1662,853.6481 L1652,843.6481 " fill="#FEFFDD" style="stroke:#181818;stroke-width:0.5;"/><text fill="#000000" font-family="sans-serif" font-size="13" lengthAdjust="spacing" textLength="106" x="1541" y="862.5451">TODOdescription</text><path d="M1535,881.3541 L1535,891.2072 L1423.5,921.6452 L1535,899.2072 L1535,909.0602 A0,0 0 0 0 1535,909.0602 L1662,909.0602 A0,0 0 0 0 1662,909.0602 L1662,891.3541 L1652,881.3541 L1535,881.3541 A0,0 0 0 0 1535,881.3541 " fill="#FEFFDD" style="stroke:#181818;stroke-width:0.5;"/><path d="M1652,881.3541 L1652,891.3541 L1662,891.3541 L1652,881.3541 " fill="#FEFFDD" style="stroke:#181818;stroke-width:0.5;"/><text fill="#000000" font-family="sans-serif" font-size="13" lengthAdjust="spacing" textLength="106" x="1541" y="900.2512">TODOdescription</text><path d="M1535,919.0602 L1535,928.9132 L1439.5,940.7131 L1535,936.9132 L1535,946.7662 A0,0 0 0 0 1535,946.7662 L1662,946.7662 A0,0 0 0 0 1662,946.7662 L1662,929.0602 L1652,919.0602 L1535,919.0602 A0,0 0 0 0 1535,919.0602 " fill="#FEFFDD" style="stroke:#181818;stroke-width:0.5;"/><path d="M1652,919.0602 L1652,929.0602 L1662,929.0602 L1652,919.0602 " fill="#FEFFDD" style="stroke:#181818;stroke-width:0.5;"/><text fill="#000000" font-family="sans-serif" font-size="13" lengthAdjust="spacing" textLength="106" x="1541" y="937.9572">TODOdescription</text><path d="M1535,956.7662 L1535,966.6192 L1439.5,959.781 L1535,974.6192 L1535,984.4722 A0,0 0 0 0 1535,984.4722 L1662,984.4722 A0,0 0 0 0 1662,984.4722 L1662,966.7662 L1652,956.7662 L1535,956.7662 A0,0 0 0 0 1535,956.7662 " fill="#FEFFDD" style="stroke:#181818;stroke-width:0.5;"/><path d="M1652,956.7662 L1652,966.7662 L1662,966.7662 L1652,956.7662 " fill="#FEFFDD" style="stroke:#181818;stroke-width:0.5;"/><text fill="#000000" font-family="sans-serif" font-size="13" lengthAdjust="spacing" textLength="106" x="1541" y="975.6632">TODOdescription</text><path d="M1535,994.4722 L1535,1004.3252 L1439.5,978.849 L1535,1012.3252 L1535,1022.1782 A0,0 0 0 0 1535,1022.1782 L1662,1022.1782 A0,0 0 0 0 1662,1022.1782 L1662,1004.4722 L1652,994.4722 L1535,994.4722 A0,0 0 0 0 1535,994.4722 " fill="#FEFFDD" style="stroke:#181818;stroke-width:0.5;"/><path d="M1652,994.4722 L1652,1004.4722 L1662,1004.4722 L1652,994.4722 " fill="#FEFFDD" style="stroke:#181818;stroke-width:0.5;"/><text fill="#000000" font-family="sans-serif" font-size="13" lengthAdjust="spacing" textLength="106" x="1541" y="1013.3692">TODOdescription</text><path d="M1535,1032.1782 L1535,1042.0312 L1453.5,997.9169 L1535,1050.0312 L1535,1059.8842 A0,0 0 0 0 1535,1059.8842 L1662,1059.8842 A0,0 0 0 0 1662,1059.8842 L1662,1042.1782 L1652,1032.1782 L1535,1032.1782 A0,0 0 0 0 1535,1032.1782 " fill="#FEFFDD" style="stroke:#181818;stroke-width:0.5;"/><path d="M1652,1032.1782 L1652,1042.1782 L1662,1042.1782 L1652,1032.1782 " fill="#FEFFDD" style="stroke:#181818;stroke-width:0.5;"/><text fill="#000000" font-family="sans-serif" font-size="13" lengthAdjust="spacing" textLength="106" x="1541" y="1051.0752">TODOdescription</text><path d="M1535,1069.8842 L1535,1079.7372 L1453.5,1016.9848 L1535,1087.7372 L1535,1097.5902 A0,0 0 0 0 1535,1097.5902 L1662,1097.5902 A0,0 0 0 0 1662,1097.5902 L1662,1079.8842 L1652,1069.8842 L1535,1069.8842 A0,0 0 0 0 1535,1069.8842 " fill="#FEFFDD" style="stroke:#181818;stroke-width:0.5;"/><path d="M1652,1069.8842 L1652,1079.8842 L1662,1079.8842 L1652,1069.8842 " fill="#FEFFDD" style="stroke:#181818;stroke-width:0.5;"/><text fill="#000000" font-family="sans-serif" font-size="13" lengthAdjust="spacing" textLength="106" x="1541" y="1088.7812">TODOdescription</text><path d="M1535,1107.5902 L1535,1117.4433 L1453.5,1036.0527 L1535,1125.4433 L1535,1135.2963 A0,0 0 0 0 1535,1135.2963 L1662,1135.2963 A0,0 0 0 0 1662,1135.2963 L1662,1117.5902 L1652,1107.5902 L1535,1107.5902 A0,0 0 0 0 1535,1107.5902 " fill="#FEFFDD" style="stroke:#181818;stroke-width:0.5;"/><path d="M1652,1107.5902 L1652,1117.5902 L1662,1117.5902 L1652,1107.5902 " fill="#FEFFDD" style="stroke:#181818;stroke-width:0.5;"/><text fill="#000000" font-family="sans-serif" font-size="13" lengthAdjust="spacing" textLength="106" x="1541" y="1126.4873">TODOdescription</text><path d="M1535,1145.2963 L1535,1155.1493 L1453.5,1055.1206 L1535,1163.1493 L1535,1173.0023 A0,0 0 0 0 1535,1173.0023 L1662,1173.0023 A0,0 0 0 0 1662,1173.0023 L1662,1155.2963 L1652,1145.2963 L1535,1145.2963 A0,0 0 0 0 1535,1145.2963 " fill="#FEFFDD" style="stroke:#181818;stroke-width:0.5;"/><path d="M1652,1145.2963 L1652,1155.2963 L1662,1155.2963 L1652,1145.2963 " fill="#FEFFDD" style="stroke:#181818;stroke-width:0.5;"/><text fill="#000000" font-family="sans-serif" font-size="13" lengthAdjust="spacing" textLength="106" x="1541" y="1164.1933">TODOdescription</text><path d="M1535,1183.0023 L1535,1192.8553 L1439.5,1074.1885 L1535,1200.8553 L1535,1210.7083 A0,0 0 0 0 1535,1210.7083 L1662,1210.7083 A0,0 0 0 0 1662,1210.7083 L1662,1193.0023 L1652,1183.0023 L1535,1183.0023 A0,0 0 0 0 1535,1183.0023 " fill="#FEFFDD" style="stroke:#181818;stroke-width:0.5;"/><path d="M1652,1183.0023 L1652,1193.0023 L1662,1193.0023 L1652,1183.0023 " fill="#FEFFDD" style="stroke:#181818;stroke-width:0.5;"/><text fill="#000000" font-family="sans-serif" font-size="13" lengthAdjust="spacing" textLength="106" x="1541" y="1201.8993">TODOdescription</text><path d="M1535,1220.7083 L1535,1230.5613 L1477.5,1093.2565 L1535,1238.5613 L1535,1248.4143 A0,0 0 0 0 1535,1248.4143 L1662,1248.4143 A0,0 0 0 0 1662,1248.4143 L1662,1230.7083 L1652,1220.7083 L1535,1220.7083 A0,0 0 0 0 1535,1220.7083 " fill="#FEFFDD" style="stroke:#181818;stroke-width:0.5;"/><path d="M1652,1220.7083 L1652,1230.7083 L1662,1230.7083 L1652,1220.7083 " fill="#FEFFDD" style="stroke:#181818;stroke-width:0.5;"/><text fill="#000000" font-family="sans-serif" font-size="13" lengthAdjust="spacing" textLength="106" x="1541" y="1239.6053">TODOdescription</text><path d="M1535,1258.4143 L1535,1268.2673 L1493.5,1112.3244 L1535,1276.2673 L1535,1286.1203 A0,0 0 0 0 1535,1286.1203 L1662,1286.1203 A0,0 0 0 0 1662,1286.1203 L1662,1268.4143 L1652,1258.4143 L1535,1258.4143 A0,0 0 0 0 1535,1258.4143 " fill="#FEFFDD" style="stroke:#181818;stroke-width:0.5;"/><path d="M1652,1258.4143 L1652,1268.4143 L1662,1268.4143 L1652,1258.4143 " fill="#FEFFDD" style="stroke:#181818;stroke-width:0.5;"/><text fill="#000000" font-family="sans-serif" font-size="13" lengthAdjust="spacing" textLength="106" x="1541" y="1277.3113">TODOdescription</text><!--class RelationshipCompleteness--><g id="elem_RelationshipCompleteness"><rect codeLine="1" fill="#F1F1F1" height="105.2038" id="RelationshipCompleteness" rx="2.5" ry="2.5" style="stroke:#181818;stroke-width:0.5;" width="210" x="1697.5" y="866.5"/><ellipse cx="1714.3" cy="882.5" fill="#EB937F" rx="11" ry="11" style="stroke:#181818;stroke-width:1.0;"/><path d="M1710.6906,876.6094 L1718.4094,876.6094 L1718.4094,878.7656 L1713.1438,878.7656 L1713.1438,881.4375 L1717.9094,881.4375 L1717.9094,883.5938 L1713.1438,883.5938 L1713.1438,886.8438 L1718.4094,886.8438 L1718.4094,889 L1710.6906,889 L1710.6906,876.6094 Z " fill="#000000"/><text fill="#000000" font-family="sans-serif" font-size="14" lengthAdjust="spacing" textLength="174" x="1728.7" y="887.932">RelationshipCompleteness</text><line style="stroke:#181818;stroke-width:0.5;" x1="1698.5" x2="1906.5" y1="898.5" y2="898.5"/><text fill="#000000" font-family="sans-serif" font-size="14" lengthAdjust="spacing" textLength="198" x="1703.5" y="917.4659">incomplete : TODOdescription</text><text fill="#000000" font-family="sans-serif" font-size="14" lengthAdjust="spacing" textLength="168" x="1703.5" y="936.5339">known : TODOdescription</text><text fill="#000000" font-family="sans-serif" font-size="14" lengthAdjust="spacing" textLength="184" x="1703.5" y="955.6018">unknown : TODOdescription</text><line style="stroke:#181818;stroke-width:0.5;" x1="1698.5" x2="1906.5" y1="963.7038" y2="963.7038"/></g><g id="elem_GMN27"><path d="M1751.5,6 L1751.5,104.5301 A0,0 0 0 0 1751.5,104.5301 L1798.5,104.5301 L1802.5,866.24 L1806.5,104.5301 L1853.5,104.5301 A0,0 0 0 0 1853.5,104.5301 L1853.5,16 L1843.5,6 L1751.5,6 A0,0 0 0 0 1751.5,6 " fill="#FEFFDD" style="stroke:#181818;stroke-width:0.5;"/><path d="M1843.5,6 L1843.5,16 L1853.5,16 L1843.5,6 " fill="#FEFFDD" style="stroke:#181818;stroke-width:0.5;"/><text fill="#000000" font-family="sans-serif" font-size="13" font-weight="bold" lengthAdjust="spacing" textLength="62" x="1757.5" y="24.897">Summary</text><text fill="#000000" font-family="sans-serif" font-size="13" lengthAdjust="spacing" textLength="38" x="1757.5" y="42.603">TODO</text><text fill="#000000" font-family="sans-serif" font-size="13" font-weight="bold" lengthAdjust="spacing" textLength="81" x="1757.5" y="60.309">Description</text><text fill="#000000" font-family="sans-serif" font-size="13" lengthAdjust="spacing" textLength="38" x="1757.5" y="78.0151">TODO</text><text fill="#000000" font-family="sans-serif" font-size="13" lengthAdjust="spacing" textLength="3" x="1757.5" y="95.7211">&#160;</text></g><path d="M1943,862.5 L1943,872.353 L1901.5,912.034 L1943,880.353 L1943,890.206 A0,0 0 0 0 1943,890.206 L2070,890.206 A0,0 0 0 0 2070,890.206 L2070,872.5 L2060,862.5 L1943,862.5 A0,0 0 0 0 1943,862.5 " fill="#FEFFDD" style="stroke:#181818;stroke-width:0.5;"/><path d="M2060,862.5 L2060,872.5 L2070,872.5 L2060,862.5 " fill="#FEFFDD" style="stroke:#181818;stroke-width:0.5;"/><text fill="#000000" font-family="sans-serif" font-size="13" lengthAdjust="spacing" textLength="106" x="1949" y="881.397">TODOdescription</text><path d="M1943,900.206 L1943,910.059 L1871.5,931.1019 L1943,918.059 L1943,927.912 A0,0 0 0 0 1943,927.912 L2070,927.912 A0,0 0 0 0 2070,927.912 L2070,910.206 L2060,900.206 L1943,900.206 A0,0 0 0 0 1943,900.206 " fill="#FEFFDD" style="stroke:#181818;stroke-width:0.5;"/><path d="M2060,900.206 L2060,910.206 L2070,910.206 L2060,900.206 " fill="#FEFFDD" style="stroke:#181818;stroke-width:0.5;"/><text fill="#000000" font-family="sans-serif" font-size="13" lengthAdjust="spacing" textLength="106" x="1949" y="919.103">TODOdescription</text><path d="M1943,937.912 L1943,947.765 L1887.5,950.1698 L1943,955.765 L1943,965.618 A0,0 0 0 0 1943,965.618 L2070,965.618 A0,0 0 0 0 2070,965.618 L2070,947.912 L2060,937.912 L1943,937.912 A0,0 0 0 0 1943,937.912 " fill="#FEFFDD" style="stroke:#181818;stroke-width:0.5;"/><path d="M2060,937.912 L2060,947.912 L2070,947.912 L2060,937.912 " fill="#FEFFDD" style="stroke:#181818;stroke-width:0.5;"/><text fill="#000000" font-family="sans-serif" font-size="13" lengthAdjust="spacing" textLength="106" x="1949" y="956.809">TODOdescription</text><!--class RelationshipType--><g id="elem_RelationshipType"><rect codeLine="1" fill="#F1F1F1" height="810.7167" id="RelationshipType" rx="2.5" ry="2.5" style="stroke:#181818;stroke-width:0.5;" width="282" x="2105.5" y="513.5"/><ellipse cx="2186.25" cy="529.5" fill="#EB937F" rx="11" ry="11" style="stroke:#181818;stroke-width:1.0;"/><path d="M2182.6406,523.6094 L2190.3594,523.6094 L2190.3594,525.7656 L2185.0938,525.7656 L2185.0938,528.4375 L2189.8594,528.4375 L2189.8594,530.5938 L2185.0938,530.5938 L2185.0938,533.8438 L2190.3594,533.8438 L2190.3594,536 L2182.6406,536 L2182.6406,523.6094 Z " fill="#000000"/><text fill="#000000" font-family="sans-serif" font-size="14" lengthAdjust="spacing" textLength="112" x="2206.75" y="534.932">RelationshipType</text><line style="stroke:#181818;stroke-width:0.5;" x1="2106.5" x2="2386.5" y1="545.5" y2="545.5"/><text fill="#000000" font-family="sans-serif" font-size="14" lengthAdjust="spacing" textLength="177" x="2111.5" y="564.4659">amends : TODOdescription</text><text fill="#000000" font-family="sans-serif" font-size="14" lengthAdjust="spacing" textLength="183" x="2111.5" y="583.5339">ancestor : TODOdescription</text><text fill="#000000" font-family="sans-serif" font-size="14" lengthAdjust="spacing" textLength="236" x="2111.5" y="602.6018">buildDependency : TODOdescription</text><text fill="#000000" font-family="sans-serif" font-size="14" lengthAdjust="spacing" textLength="185" x="2111.5" y="621.6697">buildTool : TODOdescription</text><text fill="#000000" font-family="sans-serif" font-size="14" lengthAdjust="spacing" textLength="181" x="2111.5" y="640.7376">contains : TODOdescription</text><text fill="#000000" font-family="sans-serif" font-size="14" lengthAdjust="spacing" textLength="156" x="2111.5" y="659.8055">copy : TODOdescription</text><text fill="#000000" font-family="sans-serif" font-size="14" lengthAdjust="spacing" textLength="177" x="2111.5" y="678.8734">dataFile : TODOdescription</text><text fill="#000000" font-family="sans-serif" font-size="14" lengthAdjust="spacing" textLength="261" x="2111.5" y="697.9414">dependencyManifest : TODOdescription</text><text fill="#000000" font-family="sans-serif" font-size="14" lengthAdjust="spacing" textLength="199" x="2111.5" y="717.0093">dependsOn : TODOdescription</text><text fill="#000000" font-family="sans-serif" font-size="14" lengthAdjust="spacing" textLength="201" x="2111.5" y="736.0772">descendant : TODOdescription</text><text fill="#000000" font-family="sans-serif" font-size="14" lengthAdjust="spacing" textLength="186" x="2111.5" y="755.1451">describes : TODOdescription</text><text fill="#000000" font-family="sans-serif" font-size="14" lengthAdjust="spacing" textLength="229" x="2111.5" y="774.213">devDependency : TODOdescription</text><text fill="#000000" font-family="sans-serif" font-size="14" lengthAdjust="spacing" textLength="178" x="2111.5" y="793.2809">devTool : TODOdescription</text><text fill="#000000" font-family="sans-serif" font-size="14" lengthAdjust="spacing" textLength="248" x="2111.5" y="812.3489">distributionArtifact : TODOdescription</text><text fill="#000000" font-family="sans-serif" font-size="14" lengthAdjust="spacing" textLength="226" x="2111.5" y="831.4168">documentation : TODOdescription</text><text fill="#000000" font-family="sans-serif" font-size="14" lengthAdjust="spacing" textLength="205" x="2111.5" y="850.4847">dynamicLink : TODOdescription</text><text fill="#000000" font-family="sans-serif" font-size="14" lengthAdjust="spacing" textLength="180" x="2111.5" y="869.5526">example : TODOdescription</text><text fill="#000000" font-family="sans-serif" font-size="14" lengthAdjust="spacing" textLength="270" x="2111.5" y="888.6205">expandedFromArchive : TODOdescription</text><text fill="#000000" font-family="sans-serif" font-size="14" lengthAdjust="spacing" textLength="185" x="2111.5" y="907.6884">fileAdded : TODOdescription</text><text fill="#000000" font-family="sans-serif" font-size="14" lengthAdjust="spacing" textLength="196" x="2111.5" y="926.7564">fileDeleted : TODOdescription</text><text fill="#000000" font-family="sans-serif" font-size="14" lengthAdjust="spacing" textLength="201" x="2111.5" y="945.8243">fileModified : TODOdescription</text><text fill="#000000" font-family="sans-serif" font-size="14" lengthAdjust="spacing" textLength="191" x="2111.5" y="964.8922">generates : TODOdescription</text><text fill="#000000" font-family="sans-serif" font-size="14" lengthAdjust="spacing" textLength="179" x="2111.5" y="983.9601">metafile : TODOdescription</text><text fill="#000000" font-family="sans-serif" font-size="14" lengthAdjust="spacing" textLength="257" x="2111.5" y="1003.028">optionalComponent : TODOdescription</text><text fill="#000000" font-family="sans-serif" font-size="14" lengthAdjust="spacing" textLength="260" x="2111.5" y="1022.0959">optionalDependency : TODOdescription</text><text fill="#000000" font-family="sans-serif" font-size="14" lengthAdjust="spacing" textLength="161" x="2111.5" y="1041.1639">other : TODOdescription</text><text fill="#000000" font-family="sans-serif" font-size="14" lengthAdjust="spacing" textLength="186" x="2111.5" y="1060.2318">packages : TODOdescription</text><text fill="#000000" font-family="sans-serif" font-size="14" lengthAdjust="spacing" textLength="162" x="2111.5" y="1079.2997">patch : TODOdescription</text><text fill="#000000" font-family="sans-serif" font-size="14" lengthAdjust="spacing" textLength="202" x="2111.5" y="1098.3676">prerequisite : TODOdescription</text><text fill="#000000" font-family="sans-serif" font-size="14" lengthAdjust="spacing" textLength="262" x="2111.5" y="1117.4355">providedDependency : TODOdescription</text><text fill="#000000" font-family="sans-serif" font-size="14" lengthAdjust="spacing" textLength="227" x="2111.5" y="1136.5034">requirementFor : TODOdescription</text><text fill="#000000" font-family="sans-serif" font-size="14" lengthAdjust="spacing" textLength="257" x="2111.5" y="1155.5714">runtimeDependency : TODOdescription</text><text fill="#000000" font-family="sans-serif" font-size="14" lengthAdjust="spacing" textLength="229" x="2111.5" y="1174.6393">specificationFor : TODOdescription</text><text fill="#000000" font-family="sans-serif" font-size="14" lengthAdjust="spacing" textLength="188" x="2111.5" y="1193.7072">staticLink : TODOdescription</text><text fill="#000000" font-family="sans-serif" font-size="14" lengthAdjust="spacing" textLength="195" x="2111.5" y="1212.7751">suppliedBy : TODOdescription</text><text fill="#000000" font-family="sans-serif" font-size="14" lengthAdjust="spacing" textLength="152" x="2111.5" y="1231.843">test : TODOdescription</text><text fill="#000000" font-family="sans-serif" font-size="14" lengthAdjust="spacing" textLength="184" x="2111.5" y="1250.9109">testCase : TODOdescription</text><text fill="#000000" font-family="sans-serif" font-size="14" lengthAdjust="spacing" textLength="233" x="2111.5" y="1269.9789">testDependency : TODOdescription</text><text fill="#000000" font-family="sans-serif" font-size="14" lengthAdjust="spacing" textLength="182" x="2111.5" y="1289.0468">testTool : TODOdescription</text><text fill="#000000" font-family="sans-serif" font-size="14" lengthAdjust="spacing" textLength="170" x="2111.5" y="1308.1147">variant : TODOdescription</text><line style="stroke:#181818;stroke-width:0.5;" x1="2106.5" x2="2386.5" y1="1316.2167" y2="1316.2167"/></g><g id="elem_GMN33"><path d="M2195.5,6 L2195.5,104.5301 A0,0 0 0 0 2195.5,104.5301 L2242.5,104.5301 L2246.5,513.15 L2250.5,104.5301 L2297.5,104.5301 A0,0 0 0 0 2297.5,104.5301 L2297.5,16 L2287.5,6 L2195.5,6 A0,0 0 0 0 2195.5,6 " fill="#FEFFDD" style="stroke:#181818;stroke-width:0.5;"/><path d="M2287.5,6 L2287.5,16 L2297.5,16 L2287.5,6 " fill="#FEFFDD" style="stroke:#181818;stroke-width:0.5;"/><text fill="#000000" font-family="sans-serif" font-size="13" font-weight="bold" lengthAdjust="spacing" textLength="62" x="2201.5" y="24.897">Summary</text><text fill="#000000" font-family="sans-serif" font-size="13" lengthAdjust="spacing" textLength="38" x="2201.5" y="42.603">TODO</text><text fill="#000000" font-family="sans-serif" font-size="13" font-weight="bold" lengthAdjust="spacing" textLength="81" x="2201.5" y="60.309">Description</text><text fill="#000000" font-family="sans-serif" font-size="13" lengthAdjust="spacing" textLength="38" x="2201.5" y="78.0151">TODO</text><text fill="#000000" font-family="sans-serif" font-size="13" lengthAdjust="spacing" textLength="3" x="2201.5" y="95.7211">&#160;</text></g><path d="M2423,165 L2423,174.853 L2288.5,559.034 L2423,182.853 L2423,192.706 A0,0 0 0 0 2423,192.706 L2550,192.706 A0,0 0 0 0 2550,192.706 L2550,175 L2540,165 L2423,165 A0,0 0 0 0 2423,165 " fill="#FEFFDD" style="stroke:#181818;stroke-width:0.5;"/><path d="M2540,165 L2540,175 L2550,175 L2540,165 " fill="#FEFFDD" style="stroke:#181818;stroke-width:0.5;"/><text fill="#000000" font-family="sans-serif" font-size="13" lengthAdjust="spacing" textLength="106" x="2429" y="183.897">TODOdescription</text><path d="M2423,202.706 L2423,212.559 L2294.5,578.1019 L2423,220.559 L2423,230.412 A0,0 0 0 0 2423,230.412 L2550,230.412 A0,0 0 0 0 2550,230.412 L2550,212.706 L2540,202.706 L2423,202.706 A0,0 0 0 0 2423,202.706 " fill="#FEFFDD" style="stroke:#181818;stroke-width:0.5;"/><path d="M2540,202.706 L2540,212.706 L2550,212.706 L2540,202.706 " fill="#FEFFDD" style="stroke:#181818;stroke-width:0.5;"/><text fill="#000000" font-family="sans-serif" font-size="13" lengthAdjust="spacing" textLength="106" x="2429" y="221.603">TODOdescription</text><path d="M2423,240.412 L2423,250.265 L2347.5,597.1698 L2423,258.265 L2423,268.118 A0,0 0 0 0 2423,268.118 L2550,268.118 A0,0 0 0 0 2550,268.118 L2550,250.412 L2540,240.412 L2423,240.412 A0,0 0 0 0 2423,240.412 " fill="#FEFFDD" style="stroke:#181818;stroke-width:0.5;"/><path d="M2540,240.412 L2540,250.412 L2550,250.412 L2540,240.412 " fill="#FEFFDD" style="stroke:#181818;stroke-width:0.5;"/><text fill="#000000" font-family="sans-serif" font-size="13" lengthAdjust="spacing" textLength="106" x="2429" y="259.309">TODOdescription</text><path d="M2423,278.118 L2423,287.9711 L2296.5,616.2377 L2423,295.9711 L2423,305.8241 A0,0 0 0 0 2423,305.8241 L2550,305.8241 A0,0 0 0 0 2550,305.8241 L2550,288.118 L2540,278.118 L2423,278.118 A0,0 0 0 0 2423,278.118 " fill="#FEFFDD" style="stroke:#181818;stroke-width:0.5;"/><path d="M2540,278.118 L2540,288.118 L2550,288.118 L2540,278.118 " fill="#FEFFDD" style="stroke:#181818;stroke-width:0.5;"/><text fill="#000000" font-family="sans-serif" font-size="13" lengthAdjust="spacing" textLength="106" x="2429" y="297.0151">TODOdescription</text><path d="M2423,315.8241 L2423,325.6771 L2292.5,635.3056 L2423,333.6771 L2423,343.5301 A0,0 0 0 0 2423,343.5301 L2550,343.5301 A0,0 0 0 0 2550,343.5301 L2550,325.8241 L2540,315.8241 L2423,315.8241 A0,0 0 0 0 2423,315.8241 " fill="#FEFFDD" style="stroke:#181818;stroke-width:0.5;"/><path d="M2540,315.8241 L2540,325.8241 L2550,325.8241 L2540,315.8241 " fill="#FEFFDD" style="stroke:#181818;stroke-width:0.5;"/><text fill="#000000" font-family="sans-serif" font-size="13" lengthAdjust="spacing" textLength="106" x="2429" y="334.7211">TODOdescription</text><path d="M2423,353.5301 L2423,363.3831 L2267.5,654.3735 L2423,371.3831 L2423,381.2361 A0,0 0 0 0 2423,381.2361 L2550,381.2361 A0,0 0 0 0 2550,381.2361 L2550,363.5301 L2540,353.5301 L2423,353.5301 A0,0 0 0 0 2423,353.5301 " fill="#FEFFDD" style="stroke:#181818;stroke-width:0.5;"/><path d="M2540,353.5301 L2540,363.5301 L2550,363.5301 L2540,353.5301 " fill="#FEFFDD" style="stroke:#181818;stroke-width:0.5;"/><text fill="#000000" font-family="sans-serif" font-size="13" lengthAdjust="spacing" textLength="106" x="2429" y="372.4271">TODOdescription</text><path d="M2423,391.2361 L2423,401.0891 L2288.5,673.4415 L2423,409.0891 L2423,418.9421 A0,0 0 0 0 2423,418.9421 L2550,418.9421 A0,0 0 0 0 2550,418.9421 L2550,401.2361 L2540,391.2361 L2423,391.2361 A0,0 0 0 0 2423,391.2361 " fill="#FEFFDD" style="stroke:#181818;stroke-width:0.5;"/><path d="M2540,391.2361 L2540,401.2361 L2550,401.2361 L2540,391.2361 " fill="#FEFFDD" style="stroke:#181818;stroke-width:0.5;"/><text fill="#000000" font-family="sans-serif" font-size="13" lengthAdjust="spacing" textLength="106" x="2429" y="410.1331">TODOdescription</text><path d="M2423,428.9421 L2423,438.7951 L2372.5,692.5094 L2423,446.7951 L2423,456.6481 A0,0 0 0 0 2423,456.6481 L2550,456.6481 A0,0 0 0 0 2550,456.6481 L2550,438.9421 L2540,428.9421 L2423,428.9421 A0,0 0 0 0 2423,428.9421 " fill="#FEFFDD" style="stroke:#181818;stroke-width:0.5;"/><path d="M2540,428.9421 L2540,438.9421 L2550,438.9421 L2540,428.9421 " fill="#FEFFDD" style="stroke:#181818;stroke-width:0.5;"/><text fill="#000000" font-family="sans-serif" font-size="13" lengthAdjust="spacing" textLength="106" x="2429" y="447.8391">TODOdescription</text><path d="M2423,466.6481 L2423,476.5011 L2310.5,711.5773 L2423,484.5011 L2423,494.3541 A0,0 0 0 0 2423,494.3541 L2550,494.3541 A0,0 0 0 0 2550,494.3541 L2550,476.6481 L2540,466.6481 L2423,466.6481 A0,0 0 0 0 2423,466.6481 " fill="#FEFFDD" style="stroke:#181818;stroke-width:0.5;"/><path d="M2540,466.6481 L2540,476.6481 L2550,476.6481 L2540,466.6481 " fill="#FEFFDD" style="stroke:#181818;stroke-width:0.5;"/><text fill="#000000" font-family="sans-serif" font-size="13" lengthAdjust="spacing" textLength="106" x="2429" y="485.5451">TODOdescription</text><path d="M2423,504.3541 L2423,514.2072 L2312.5,730.6452 L2423,522.2072 L2423,532.0602 A0,0 0 0 0 2423,532.0602 L2550,532.0602 A0,0 0 0 0 2550,532.0602 L2550,514.3541 L2540,504.3541 L2423,504.3541 A0,0 0 0 0 2423,504.3541 " fill="#FEFFDD" style="stroke:#181818;stroke-width:0.5;"/><path d="M2540,504.3541 L2540,514.3541 L2550,514.3541 L2540,504.3541 " fill="#FEFFDD" style="stroke:#181818;stroke-width:0.5;"/><text fill="#000000" font-family="sans-serif" font-size="13" lengthAdjust="spacing" textLength="106" x="2429" y="523.2512">TODOdescription</text><path d="M2423,542.0602 L2423,551.9132 L2297.5,749.7131 L2423,559.9132 L2423,569.7662 A0,0 0 0 0 2423,569.7662 L2550,569.7662 A0,0 0 0 0 2550,569.7662 L2550,552.0602 L2540,542.0602 L2423,542.0602 A0,0 0 0 0 2423,542.0602 " fill="#FEFFDD" style="stroke:#181818;stroke-width:0.5;"/><path d="M2540,542.0602 L2540,552.0602 L2550,552.0602 L2540,542.0602 " fill="#FEFFDD" style="stroke:#181818;stroke-width:0.5;"/><text fill="#000000" font-family="sans-serif" font-size="13" lengthAdjust="spacing" textLength="106" x="2429" y="560.9572">TODOdescription</text><path d="M2423,579.7662 L2423,589.6192 L2340.5,768.781 L2423,597.6192 L2423,607.4722 A0,0 0 0 0 2423,607.4722 L2550,607.4722 A0,0 0 0 0 2550,607.4722 L2550,589.7662 L2540,579.7662 L2423,579.7662 A0,0 0 0 0 2423,579.7662 " fill="#FEFFDD" style="stroke:#181818;stroke-width:0.5;"/><path d="M2540,579.7662 L2540,589.7662 L2550,589.7662 L2540,579.7662 " fill="#FEFFDD" style="stroke:#181818;stroke-width:0.5;"/><text fill="#000000" font-family="sans-serif" font-size="13" lengthAdjust="spacing" textLength="106" x="2429" y="598.6632">TODOdescription</text><path d="M2423,617.4722 L2423,627.3252 L2289.5,787.849 L2423,635.3252 L2423,645.1782 A0,0 0 0 0 2423,645.1782 L2550,645.1782 A0,0 0 0 0 2550,645.1782 L2550,627.4722 L2540,617.4722 L2423,617.4722 A0,0 0 0 0 2423,617.4722 " fill="#FEFFDD" style="stroke:#181818;stroke-width:0.5;"/><path d="M2540,617.4722 L2540,627.4722 L2550,627.4722 L2540,617.4722 " fill="#FEFFDD" style="stroke:#181818;stroke-width:0.5;"/><text fill="#000000" font-family="sans-serif" font-size="13" lengthAdjust="spacing" textLength="106" x="2429" y="636.3692">TODOdescription</text><path d="M2423,655.1782 L2423,665.0312 L2359.5,806.9169 L2423,673.0312 L2423,682.8842 A0,0 0 0 0 2423,682.8842 L2550,682.8842 A0,0 0 0 0 2550,682.8842 L2550,665.1782 L2540,655.1782 L2423,655.1782 A0,0 0 0 0 2423,655.1782 " fill="#FEFFDD" style="stroke:#181818;stroke-width:0.5;"/><path d="M2540,655.1782 L2540,665.1782 L2550,665.1782 L2540,655.1782 " fill="#FEFFDD" style="stroke:#181818;stroke-width:0.5;"/><text fill="#000000" font-family="sans-serif" font-size="13" lengthAdjust="spacing" textLength="106" x="2429" y="674.0752">TODOdescription</text><path d="M2423,692.8842 L2423,702.7372 L2337.5,825.9848 L2423,710.7372 L2423,720.5902 A0,0 0 0 0 2423,720.5902 L2550,720.5902 A0,0 0 0 0 2550,720.5902 L2550,702.8842 L2540,692.8842 L2423,692.8842 A0,0 0 0 0 2423,692.8842 " fill="#FEFFDD" style="stroke:#181818;stroke-width:0.5;"/><path d="M2540,692.8842 L2540,702.8842 L2550,702.8842 L2540,692.8842 " fill="#FEFFDD" style="stroke:#181818;stroke-width:0.5;"/><text fill="#000000" font-family="sans-serif" font-size="13" lengthAdjust="spacing" textLength="106" x="2429" y="711.7812">TODOdescription</text><path d="M2423,730.5902 L2423,740.4433 L2316.5,845.0527 L2423,748.4433 L2423,758.2963 A0,0 0 0 0 2423,758.2963 L2550,758.2963 A0,0 0 0 0 2550,758.2963 L2550,740.5902 L2540,730.5902 L2423,730.5902 A0,0 0 0 0 2423,730.5902 " fill="#FEFFDD" style="stroke:#181818;stroke-width:0.5;"/><path d="M2540,730.5902 L2540,740.5902 L2550,740.5902 L2540,730.5902 " fill="#FEFFDD" style="stroke:#181818;stroke-width:0.5;"/><text fill="#000000" font-family="sans-serif" font-size="13" lengthAdjust="spacing" textLength="106" x="2429" y="749.4873">TODOdescription</text><path d="M2423,768.2963 L2423,778.1493 L2291.5,864.1206 L2423,786.1493 L2423,796.0023 A0,0 0 0 0 2423,796.0023 L2550,796.0023 A0,0 0 0 0 2550,796.0023 L2550,778.2963 L2540,768.2963 L2423,768.2963 A0,0 0 0 0 2423,768.2963 " fill="#FEFFDD" style="stroke:#181818;stroke-width:0.5;"/><path d="M2540,768.2963 L2540,778.2963 L2550,778.2963 L2540,768.2963 " fill="#FEFFDD" style="stroke:#181818;stroke-width:0.5;"/><text fill="#000000" font-family="sans-serif" font-size="13" lengthAdjust="spacing" textLength="106" x="2429" y="787.1933">TODOdescription</text><path d="M2423,806.0023 L2423,815.8553 L2381.5,883.1885 L2423,823.8553 L2423,833.7083 A0,0 0 0 0 2423,833.7083 L2550,833.7083 A0,0 0 0 0 2550,833.7083 L2550,816.0023 L2540,806.0023 L2423,806.0023 A0,0 0 0 0 2423,806.0023 " fill="#FEFFDD" style="stroke:#181818;stroke-width:0.5;"/><path d="M2540,806.0023 L2540,816.0023 L2550,816.0023 L2540,806.0023 " fill="#FEFFDD" style="stroke:#181818;stroke-width:0.5;"/><text fill="#000000" font-family="sans-serif" font-size="13" lengthAdjust="spacing" textLength="106" x="2429" y="824.8993">TODOdescription</text><path d="M2423,843.7083 L2423,853.5613 L2296.5,902.2565 L2423,861.5613 L2423,871.4143 A0,0 0 0 0 2423,871.4143 L2550,871.4143 A0,0 0 0 0 2550,871.4143 L2550,853.7083 L2540,843.7083 L2423,843.7083 A0,0 0 0 0 2423,843.7083 " fill="#FEFFDD" style="stroke:#181818;stroke-width:0.5;"/><path d="M2540,843.7083 L2540,853.7083 L2550,853.7083 L2540,843.7083 " fill="#FEFFDD" style="stroke:#181818;stroke-width:0.5;"/><text fill="#000000" font-family="sans-serif" font-size="13" lengthAdjust="spacing" textLength="106" x="2429" y="862.6053">TODOdescription</text><path d="M2423,881.4143 L2423,891.2673 L2307.5,921.3244 L2423,899.2673 L2423,909.1203 A0,0 0 0 0 2423,909.1203 L2550,909.1203 A0,0 0 0 0 2550,909.1203 L2550,891.4143 L2540,881.4143 L2423,881.4143 A0,0 0 0 0 2423,881.4143 " fill="#FEFFDD" style="stroke:#181818;stroke-width:0.5;"/><path d="M2540,881.4143 L2540,891.4143 L2550,891.4143 L2540,881.4143 " fill="#FEFFDD" style="stroke:#181818;stroke-width:0.5;"/><text fill="#000000" font-family="sans-serif" font-size="13" lengthAdjust="spacing" textLength="106" x="2429" y="900.3113">TODOdescription</text><path d="M2423,919.1203 L2423,928.9733 L2312.5,940.3923 L2423,936.9733 L2423,946.8263 A0,0 0 0 0 2423,946.8263 L2550,946.8263 A0,0 0 0 0 2550,946.8263 L2550,929.1203 L2540,919.1203 L2423,919.1203 A0,0 0 0 0 2423,919.1203 " fill="#FEFFDD" style="stroke:#181818;stroke-width:0.5;"/><path d="M2540,919.1203 L2540,929.1203 L2550,929.1203 L2540,919.1203 " fill="#FEFFDD" style="stroke:#181818;stroke-width:0.5;"/><text fill="#000000" font-family="sans-serif" font-size="13" lengthAdjust="spacing" textLength="106" x="2429" y="938.0173">TODOdescription</text><path d="M2423,956.8263 L2423,966.6794 L2302.5,959.4602 L2423,974.6794 L2423,984.5324 A0,0 0 0 0 2423,984.5324 L2550,984.5324 A0,0 0 0 0 2550,984.5324 L2550,966.8263 L2540,956.8263 L2423,956.8263 A0,0 0 0 0 2423,956.8263 " fill="#FEFFDD" style="stroke:#181818;stroke-width:0.5;"/><path d="M2540,956.8263 L2540,966.8263 L2550,966.8263 L2540,956.8263 " fill="#FEFFDD" style="stroke:#181818;stroke-width:0.5;"/><text fill="#000000" font-family="sans-serif" font-size="13" lengthAdjust="spacing" textLength="106" x="2429" y="975.7234">TODOdescription</text><path d="M2423,994.5324 L2423,1004.3854 L2290.5,978.5281 L2423,1012.3854 L2423,1022.2384 A0,0 0 0 0 2423,1022.2384 L2550,1022.2384 A0,0 0 0 0 2550,1022.2384 L2550,1004.5324 L2540,994.5324 L2423,994.5324 A0,0 0 0 0 2423,994.5324 " fill="#FEFFDD" style="stroke:#181818;stroke-width:0.5;"/><path d="M2540,994.5324 L2540,1004.5324 L2550,1004.5324 L2540,994.5324 " fill="#FEFFDD" style="stroke:#181818;stroke-width:0.5;"/><text fill="#000000" font-family="sans-serif" font-size="13" lengthAdjust="spacing" textLength="106" x="2429" y="1013.4294">TODOdescription</text><path d="M2423,1032.2384 L2423,1042.0914 L2368.5,997.596 L2423,1050.0914 L2423,1059.9444 A0,0 0 0 0 2423,1059.9444 L2550,1059.9444 A0,0 0 0 0 2550,1059.9444 L2550,1042.2384 L2540,1032.2384 L2423,1032.2384 A0,0 0 0 0 2423,1032.2384 " fill="#FEFFDD" style="stroke:#181818;stroke-width:0.5;"/><path d="M2540,1032.2384 L2540,1042.2384 L2550,1042.2384 L2540,1032.2384 " fill="#FEFFDD" style="stroke:#181818;stroke-width:0.5;"/><text fill="#000000" font-family="sans-serif" font-size="13" lengthAdjust="spacing" textLength="106" x="2429" y="1051.1354">TODOdescription</text><path d="M2423,1069.9444 L2423,1079.7974 L2371.5,1016.664 L2423,1087.7974 L2423,1097.6504 A0,0 0 0 0 2423,1097.6504 L2550,1097.6504 A0,0 0 0 0 2550,1097.6504 L2550,1079.9444 L2540,1069.9444 L2423,1069.9444 A0,0 0 0 0 2423,1069.9444 " fill="#FEFFDD" style="stroke:#181818;stroke-width:0.5;"/><path d="M2540,1069.9444 L2540,1079.9444 L2550,1079.9444 L2540,1069.9444 " fill="#FEFFDD" style="stroke:#181818;stroke-width:0.5;"/><text fill="#000000" font-family="sans-serif" font-size="13" lengthAdjust="spacing" textLength="106" x="2429" y="1088.8414">TODOdescription</text><path d="M2423,1107.6504 L2423,1117.5034 L2272.5,1035.7319 L2423,1125.5034 L2423,1135.3564 A0,0 0 0 0 2423,1135.3564 L2550,1135.3564 A0,0 0 0 0 2550,1135.3564 L2550,1117.6504 L2540,1107.6504 L2423,1107.6504 A0,0 0 0 0 2423,1107.6504 " fill="#FEFFDD" style="stroke:#181818;stroke-width:0.5;"/><path d="M2540,1107.6504 L2540,1117.6504 L2550,1117.6504 L2540,1107.6504 " fill="#FEFFDD" style="stroke:#181818;stroke-width:0.5;"/><text fill="#000000" font-family="sans-serif" font-size="13" lengthAdjust="spacing" textLength="106" x="2429" y="1126.5474">TODOdescription</text><path d="M2423,1145.3564 L2423,1155.2094 L2297.5,1054.7998 L2423,1163.2094 L2423,1173.0624 A0,0 0 0 0 2423,1173.0624 L2550,1173.0624 A0,0 0 0 0 2550,1173.0624 L2550,1155.3564 L2540,1145.3564 L2423,1145.3564 A0,0 0 0 0 2423,1145.3564 " fill="#FEFFDD" style="stroke:#181818;stroke-width:0.5;"/><path d="M2540,1145.3564 L2540,1155.3564 L2550,1155.3564 L2540,1145.3564 " fill="#FEFFDD" style="stroke:#181818;stroke-width:0.5;"/><text fill="#000000" font-family="sans-serif" font-size="13" lengthAdjust="spacing" textLength="106" x="2429" y="1164.2534">TODOdescription</text><path d="M2423,1183.0624 L2423,1192.9155 L2273.5,1073.8677 L2423,1200.9155 L2423,1210.7685 A0,0 0 0 0 2423,1210.7685 L2550,1210.7685 A0,0 0 0 0 2550,1210.7685 L2550,1193.0624 L2540,1183.0624 L2423,1183.0624 A0,0 0 0 0 2423,1183.0624 " fill="#FEFFDD" style="stroke:#181818;stroke-width:0.5;"/><path d="M2540,1183.0624 L2540,1193.0624 L2550,1193.0624 L2540,1183.0624 " fill="#FEFFDD" style="stroke:#181818;stroke-width:0.5;"/><text fill="#000000" font-family="sans-serif" font-size="13" lengthAdjust="spacing" textLength="106" x="2429" y="1201.9595">TODOdescription</text><path d="M2423,1220.7685 L2423,1230.6215 L2313.5,1092.9356 L2423,1238.6215 L2423,1248.4745 A0,0 0 0 0 2423,1248.4745 L2550,1248.4745 A0,0 0 0 0 2550,1248.4745 L2550,1230.7685 L2540,1220.7685 L2423,1220.7685 A0,0 0 0 0 2423,1220.7685 " fill="#FEFFDD" style="stroke:#181818;stroke-width:0.5;"/><path d="M2540,1220.7685 L2540,1230.7685 L2550,1230.7685 L2540,1220.7685 " fill="#FEFFDD" style="stroke:#181818;stroke-width:0.5;"/><text fill="#000000" font-family="sans-serif" font-size="13" lengthAdjust="spacing" textLength="106" x="2429" y="1239.6655">TODOdescription</text><path d="M2423,1258.4745 L2423,1268.3275 L2373.5,1112.0035 L2423,1276.3275 L2423,1286.1805 A0,0 0 0 0 2423,1286.1805 L2550,1286.1805 A0,0 0 0 0 2550,1286.1805 L2550,1268.4745 L2540,1258.4745 L2423,1258.4745 A0,0 0 0 0 2423,1258.4745 " fill="#FEFFDD" style="stroke:#181818;stroke-width:0.5;"/><path d="M2540,1258.4745 L2540,1268.4745 L2550,1268.4745 L2540,1258.4745 " fill="#FEFFDD" style="stroke:#181818;stroke-width:0.5;"/><text fill="#000000" font-family="sans-serif" font-size="13" lengthAdjust="spacing" textLength="106" x="2429" y="1277.3715">TODOdescription</text><path d="M2423,1296.1805 L2423,1306.0335 L2338.5,1131.0715 L2423,1314.0335 L2423,1323.8865 A0,0 0 0 0 2423,1323.8865 L2550,1323.8865 A0,0 0 0 0 2550,1323.8865 L2550,1306.1805 L2540,1296.1805 L2423,1296.1805 A0,0 0 0 0 2423,1296.1805 " fill="#FEFFDD" style="stroke:#181818;stroke-width:0.5;"/><path d="M2540,1296.1805 L2540,1306.1805 L2550,1306.1805 L2540,1296.1805 " fill="#FEFFDD" style="stroke:#181818;stroke-width:0.5;"/><text fill="#000000" font-family="sans-serif" font-size="13" lengthAdjust="spacing" textLength="106" x="2429" y="1315.0775">TODOdescription</text><path d="M2423,1333.8865 L2423,1343.7395 L2368.5,1150.1394 L2423,1351.7395 L2423,1361.5925 A0,0 0 0 0 2423,1361.5925 L2550,1361.5925 A0,0 0 0 0 2550,1361.5925 L2550,1343.8865 L2540,1333.8865 L2423,1333.8865 A0,0 0 0 0 2423,1333.8865 " fill="#FEFFDD" style="stroke:#181818;stroke-width:0.5;"/><path d="M2540,1333.8865 L2540,1343.8865 L2550,1343.8865 L2540,1333.8865 " fill="#FEFFDD" style="stroke:#181818;stroke-width:0.5;"/><text fill="#000000" font-family="sans-serif" font-size="13" lengthAdjust="spacing" textLength="106" x="2429" y="1352.7835">TODOdescription</text><path d="M2423,1371.5925 L2423,1381.4455 L2340.5,1169.2073 L2423,1389.4455 L2423,1399.2985 A0,0 0 0 0 2423,1399.2985 L2550,1399.2985 A0,0 0 0 0 2550,1399.2985 L2550,1381.5925 L2540,1371.5925 L2423,1371.5925 A0,0 0 0 0 2423,1371.5925 " fill="#FEFFDD" style="stroke:#181818;stroke-width:0.5;"/><path d="M2540,1371.5925 L2540,1381.5925 L2550,1381.5925 L2540,1371.5925 " fill="#FEFFDD" style="stroke:#181818;stroke-width:0.5;"/><text fill="#000000" font-family="sans-serif" font-size="13" lengthAdjust="spacing" textLength="106" x="2429" y="1390.4895">TODOdescription</text><path d="M2423,1409.2985 L2423,1419.1516 L2299.5,1188.2752 L2423,1427.1516 L2423,1437.0046 A0,0 0 0 0 2423,1437.0046 L2550,1437.0046 A0,0 0 0 0 2550,1437.0046 L2550,1419.2985 L2540,1409.2985 L2423,1409.2985 A0,0 0 0 0 2423,1409.2985 " fill="#FEFFDD" style="stroke:#181818;stroke-width:0.5;"/><path d="M2540,1409.2985 L2540,1419.2985 L2550,1419.2985 L2540,1409.2985 " fill="#FEFFDD" style="stroke:#181818;stroke-width:0.5;"/><text fill="#000000" font-family="sans-serif" font-size="13" lengthAdjust="spacing" textLength="106" x="2429" y="1428.1956">TODOdescription</text><path d="M2423,1447.0046 L2423,1456.8576 L2306.5,1207.3431 L2423,1464.8576 L2423,1474.7106 A0,0 0 0 0 2423,1474.7106 L2550,1474.7106 A0,0 0 0 0 2550,1474.7106 L2550,1457.0046 L2540,1447.0046 L2423,1447.0046 A0,0 0 0 0 2423,1447.0046 " fill="#FEFFDD" style="stroke:#181818;stroke-width:0.5;"/><path d="M2540,1447.0046 L2540,1457.0046 L2550,1457.0046 L2540,1447.0046 " fill="#FEFFDD" style="stroke:#181818;stroke-width:0.5;"/><text fill="#000000" font-family="sans-serif" font-size="13" lengthAdjust="spacing" textLength="106" x="2429" y="1465.9016">TODOdescription</text><path d="M2423,1484.7106 L2423,1494.5636 L2263.5,1226.411 L2423,1502.5636 L2423,1512.4166 A0,0 0 0 0 2423,1512.4166 L2550,1512.4166 A0,0 0 0 0 2550,1512.4166 L2550,1494.7106 L2540,1484.7106 L2423,1484.7106 A0,0 0 0 0 2423,1484.7106 " fill="#FEFFDD" style="stroke:#181818;stroke-width:0.5;"/><path d="M2540,1484.7106 L2540,1494.7106 L2550,1494.7106 L2540,1484.7106 " fill="#FEFFDD" style="stroke:#181818;stroke-width:0.5;"/><text fill="#000000" font-family="sans-serif" font-size="13" lengthAdjust="spacing" textLength="106" x="2429" y="1503.6076">TODOdescription</text><path d="M2423,1522.4166 L2423,1532.2696 L2295.5,1245.479 L2423,1540.2696 L2423,1550.1226 A0,0 0 0 0 2423,1550.1226 L2550,1550.1226 A0,0 0 0 0 2550,1550.1226 L2550,1532.4166 L2540,1522.4166 L2423,1522.4166 A0,0 0 0 0 2423,1522.4166 " fill="#FEFFDD" style="stroke:#181818;stroke-width:0.5;"/><path d="M2540,1522.4166 L2540,1532.4166 L2550,1532.4166 L2540,1522.4166 " fill="#FEFFDD" style="stroke:#181818;stroke-width:0.5;"/><text fill="#000000" font-family="sans-serif" font-size="13" lengthAdjust="spacing" textLength="106" x="2429" y="1541.3136">TODOdescription</text><path d="M2423,1560.1226 L2423,1569.9756 L2344.5,1264.5469 L2423,1577.9756 L2423,1587.8286 A0,0 0 0 0 2423,1587.8286 L2550,1587.8286 A0,0 0 0 0 2550,1587.8286 L2550,1570.1226 L2540,1560.1226 L2423,1560.1226 A0,0 0 0 0 2423,1560.1226 " fill="#FEFFDD" style="stroke:#181818;stroke-width:0.5;"/><path d="M2540,1560.1226 L2540,1570.1226 L2550,1570.1226 L2540,1560.1226 " fill="#FEFFDD" style="stroke:#181818;stroke-width:0.5;"/><text fill="#000000" font-family="sans-serif" font-size="13" lengthAdjust="spacing" textLength="106" x="2429" y="1579.0196">TODOdescription</text><path d="M2423,1597.8286 L2423,1607.6816 L2293.5,1283.6148 L2423,1615.6816 L2423,1625.5346 A0,0 0 0 0 2423,1625.5346 L2550,1625.5346 A0,0 0 0 0 2550,1625.5346 L2550,1607.8286 L2540,1597.8286 L2423,1597.8286 A0,0 0 0 0 2423,1597.8286 " fill="#FEFFDD" style="stroke:#181818;stroke-width:0.5;"/><path d="M2540,1597.8286 L2540,1607.8286 L2550,1607.8286 L2540,1597.8286 " fill="#FEFFDD" style="stroke:#181818;stroke-width:0.5;"/><text fill="#000000" font-family="sans-serif" font-size="13" lengthAdjust="spacing" textLength="106" x="2429" y="1616.7256">TODOdescription</text><path d="M2423,1635.5346 L2423,1645.3877 L2281.5,1302.6827 L2423,1653.3877 L2423,1663.2407 A0,0 0 0 0 2423,1663.2407 L2550,1663.2407 A0,0 0 0 0 2550,1663.2407 L2550,1645.5346 L2540,1635.5346 L2423,1635.5346 A0,0 0 0 0 2423,1635.5346 " fill="#FEFFDD" style="stroke:#181818;stroke-width:0.5;"/><path d="M2540,1635.5346 L2540,1645.5346 L2550,1645.5346 L2540,1635.5346 " fill="#FEFFDD" style="stroke:#181818;stroke-width:0.5;"/><text fill="#000000" font-family="sans-serif" font-size="13" lengthAdjust="spacing" textLength="106" x="2429" y="1654.4317">TODOdescription</text><!--SRC=[dOz12i8m44Ntdi9U83r34K6tHTnAJ7xDm6Gc95EejxUu5g7T__TuloC9F4SyL0AEplLt3Vuviw-4rWyYQjv8vVOkS45pXXYYAtFcG_UNFI-6AfwlSKLe8jJzZX4JAjR5TiN5jpJmIojPojlG4VpztXALa-R2C0XQss_vaVy1]--></g></svg>