<?xml version="1.0" encoding="us-ascii" standalone="no"?><svg xmlns="http://www.w3.org/2000/svg" xmlns:xlink="http://www.w3.org/1999/xlink" contentStyleType="text/css" height="1670px" preserveAspectRatio="none" style="width:458px;height:1670px;background:#FFFFFF;" version="1.1" viewBox="0 0 458 1670" width="458px" zoomAndPan="magnify"><defs/><g><!--class RelationshipType--><g id="elem_RelationshipType"><rect codeLine="1" fill="#F1F1F1" height="810.7167" id="RelationshipType" rx="2.5" ry="2.5" style="stroke:#181818;stroke-width:0.5;" width="282" x="7" y="513.5"/><ellipse cx="87.75" cy="529.5" fill="#EB937F" rx="11" ry="11" style="stroke:#181818;stroke-width:1.0;"/><path d="M84.1406,523.6094 L91.8594,523.6094 L91.8594,525.7656 L86.5938,525.7656 L86.5938,528.4375 L91.3594,528.4375 L91.3594,530.5938 L86.5938,530.5938 L86.5938,533.8438 L91.8594,533.8438 L91.8594,536 L84.1406,536 L84.1406,523.6094 Z " fill="#000000"/><text fill="#000000" font-family="sans-serif" font-size="14" lengthAdjust="spacing" textLength="112" x="108.25" y="534.932">RelationshipType</text><line style="stroke:#181818;stroke-width:0.5;" x1="8" x2="288" y1="545.5" y2="545.5"/><text fill="#000000" font-family="sans-serif" font-size="14" lengthAdjust="spacing" textLength="177" x="13" y="564.4659">amends : TODOdescription</text><text fill="#000000" font-family="sans-serif" font-size="14" lengthAdjust="spacing" textLength="183" x="13" y="583.5339">ancestor : TODOdescription</text><text fill="#000000" font-family="sans-serif" font-size="14" lengthAdjust="spacing" textLength="236" x="13" y="602.6018">buildDependency : TODOdescription</text><text fill="#000000" font-family="sans-serif" font-size="14" lengthAdjust="spacing" textLength="185" x="13" y="621.6697">buildTool : TODOdescription</text><text fill="#000000" font-family="sans-serif" font-size="14" lengthAdjust="spacing" textLength="181" x="13" y="640.7376">contains : TODOdescription</text><text fill="#000000" font-family="sans-serif" font-size="14" lengthAdjust="spacing" textLength="156" x="13" y="659.8055">copy : TODOdescription</text><text fill="#000000" font-family="sans-serif" font-size="14" lengthAdjust="spacing" textLength="177" x="13" y="678.8734">dataFile : TODOdescription</text><text fill="#000000" font-family="sans-serif" font-size="14" lengthAdjust="spacing" textLength="261" x="13" y="697.9414">dependencyManifest : TODOdescription</text><text fill="#000000" font-family="sans-serif" font-size="14" lengthAdjust="spacing" textLength="199" x="13" y="717.0093">dependsOn : TODOdescription</text><text fill="#000000" font-family="sans-serif" font-size="14" lengthAdjust="spacing" textLength="201" x="13" y="736.0772">descendant : TODOdescription</text><text fill="#000000" font-family="sans-serif" font-size="14" lengthAdjust="spacing" textLength="186" x="13" y="755.1451">describes : TODOdescription</text><text fill="#000000" font-family="sans-serif" font-size="14" lengthAdjust="spacing" textLength="229" x="13" y="774.213">devDependency : TODOdescription</text><text fill="#000000" font-family="sans-serif" font-size="14" lengthAdjust="spacing" textLength="178" x="13" y="793.2809">devTool : TODOdescription</text><text fill="#000000" font-family="sans-serif" font-size="14" lengthAdjust="spacing" textLength="248" x="13" y="812.3489">distributionArtifact : TODOdescription</text><text fill="#000000" font-family="sans-serif" font-size="14" lengthAdjust="spacing" textLength="226" x="13" y="831.4168">documentation : TODOdescription</text><text fill="#000000" font-family="sans-serif" font-size="14" lengthAdjust="spacing" textLength="205" x="13" y="850.4847">dynamicLink : TODOdescription</text><text fill="#000000" font-family="sans-serif" font-size="14" lengthAdjust="spacing" textLength="180" x="13" y="869.5526">example : TODOdescription</text><text fill="#000000" font-family="sans-serif" font-size="14" lengthAdjust="spacing" textLength="270" x="13" y="888.6205">expandedFromArchive : TODOdescription</text><text fill="#000000" font-family="sans-serif" font-size="14" lengthAdjust="spacing" textLength="185" x="13" y="907.6884">fileAdded : TODOdescription</text><text fill="#000000" font-family="sans-serif" font-size="14" lengthAdjust="spacing" textLength="196" x="13" y="926.7564">fileDeleted : TODOdescription</text><text fill="#000000" font-family="sans-serif" font-size="14" lengthAdjust="spacing" textLength="201" x="13" y="945.8243">fileModified : TODOdescription</text><text fill="#000000" font-family="sans-serif" font-size="14" lengthAdjust="spacing" textLength="191" x="13" y="964.8922">generates : TODOdescription</text><text fill="#000000" font-family="sans-serif" font-size="14" lengthAdjust="spacing" textLength="179" x="13" y="983.9601">metafile : TODOdescription</text><text fill="#000000" font-family="sans-serif" font-size="14" lengthAdjust="spacing" textLength="257" x="13" y="1003.028">optionalComponent : TODOdescription</text><text fill="#000000" font-family="sans-serif" font-size="14" lengthAdjust="spacing" textLength="260" x="13" y="1022.0959">optionalDependency : TODOdescription</text><text fill="#000000" font-family="sans-serif" font-size="14" lengthAdjust="spacing" textLength="161" x="13" y="1041.1639">other : TODOdescription</text><text fill="#000000" font-family="sans-serif" font-size="14" lengthAdjust="spacing" textLength="186" x="13" y="1060.2318">packages : TODOdescription</text><text fill="#000000" font-family="sans-serif" font-size="14" lengthAdjust="spacing" textLength="162" x="13" y="1079.2997">patch : TODOdescription</text><text fill="#000000" font-family="sans-serif" font-size="14" lengthAdjust="spacing" textLength="202" x="13" y="1098.3676">prerequisite : TODOdescription</text><text fill="#000000" font-family="sans-serif" font-size="14" lengthAdjust="spacing" textLength="262" x="13" y="1117.4355">providedDependency : TODOdescription</text><text fill="#000000" font-family="sans-serif" font-size="14" lengthAdjust="spacing" textLength="227" x="13" y="1136.5034">requirementFor : TODOdescription</text><text fill="#000000" font-family="sans-serif" font-size="14" lengthAdjust="spacing" textLength="257" x="13" y="1155.5714">runtimeDependency : TODOdescription</text><text fill="#000000" font-family="sans-serif" font-size="14" lengthAdjust="spacing" textLength="229" x="13" y="1174.6393">specificationFor : TODOdescription</text><text fill="#000000" font-family="sans-serif" font-size="14" lengthAdjust="spacing" textLength="188" x="13" y="1193.7072">staticLink : TODOdescription</text><text fill="#000000" font-family="sans-serif" font-size="14" lengthAdjust="spacing" textLength="195" x="13" y="1212.7751">suppliedBy : TODOdescription</text><text fill="#000000" font-family="sans-serif" font-size="14" lengthAdjust="spacing" textLength="152" x="13" y="1231.843">test : TODOdescription</text><text fill="#000000" font-family="sans-serif" font-size="14" lengthAdjust="spacing" textLength="184" x="13" y="1250.9109">testCase : TODOdescription</text><text fill="#000000" font-family="sans-serif" font-size="14" lengthAdjust="spacing" textLength="233" x="13" y="1269.9789">testDependency : TODOdescription</text><text fill="#000000" font-family="sans-serif" font-size="14" lengthAdjust="spacing" textLength="182" x="13" y="1289.0468">testTool : TODOdescription</text><text fill="#000000" font-family="sans-serif" font-size="14" lengthAdjust="spacing" textLength="170" x="13" y="1308.1147">variant : TODOdescription</text><line style="stroke:#181818;stroke-width:0.5;" x1="8" x2="288" y1="1316.2167" y2="1316.2167"/></g><g id="elem_GMN3"><path d="M97,6 L97,104.5301 A0,0 0 0 0 97,104.5301 L144,104.5301 L148,513.15 L152,104.5301 L199,104.5301 A0,0 0 0 0 199,104.5301 L199,16 L189,6 L97,6 A0,0 0 0 0 97,6 " fill="#FEFFDD" style="stroke:#181818;stroke-width:0.5;"/><path d="M189,6 L189,16 L199,16 L189,6 " fill="#FEFFDD" style="stroke:#181818;stroke-width:0.5;"/><text fill="#000000" font-family="sans-serif" font-size="13" font-weight="bold" lengthAdjust="spacing" textLength="62" x="103" y="24.897">Summary</text><text fill="#000000" font-family="sans-serif" font-size="13" lengthAdjust="spacing" textLength="38" x="103" y="42.603">TODO</text><text fill="#000000" font-family="sans-serif" font-size="13" font-weight="bold" lengthAdjust="spacing" textLength="81" x="103" y="60.309">Description</text><text fill="#000000" font-family="sans-serif" font-size="13" lengthAdjust="spacing" textLength="38" x="103" y="78.0151">TODO</text><text fill="#000000" font-family="sans-serif" font-size="13" lengthAdjust="spacing" textLength="3" x="103" y="95.7211">&#160;</text></g><path d="M324.5,165 L324.5,174.853 L190,559.034 L324.5,182.853 L324.5,192.706 A0,0 0 0 0 324.5,192.706 L451.5,192.706 A0,0 0 0 0 451.5,192.706 L451.5,175 L441.5,165 L324.5,165 A0,0 0 0 0 324.5,165 " fill="#FEFFDD" style="stroke:#181818;stroke-width:0.5;"/><path d="M441.5,165 L441.5,175 L451.5,175 L441.5,165 " fill="#FEFFDD" style="stroke:#181818;stroke-width:0.5;"/><text fill="#000000" font-family="sans-serif" font-size="13" lengthAdjust="spacing" textLength="106" x="330.5" y="183.897">TODOdescription</text><path d="M324.5,202.706 L324.5,212.559 L196,578.1019 L324.5,220.559 L324.5,230.412 A0,0 0 0 0 324.5,230.412 L451.5,230.412 A0,0 0 0 0 451.5,230.412 L451.5,212.706 L441.5,202.706 L324.5,202.706 A0,0 0 0 0 324.5,202.706 " fill="#FEFFDD" style="stroke:#181818;stroke-width:0.5;"/><path d="M441.5,202.706 L441.5,212.706 L451.5,212.706 L441.5,202.706 " fill="#FEFFDD" style="stroke:#181818;stroke-width:0.5;"/><text fill="#000000" font-family="sans-serif" font-size="13" lengthAdjust="spacing" textLength="106" x="330.5" y="221.603">TODOdescription</text><path d="M324.5,240.412 L324.5,250.265 L249,597.1698 L324.5,258.265 L324.5,268.118 A0,0 0 0 0 324.5,268.118 L451.5,268.118 A0,0 0 0 0 451.5,268.118 L451.5,250.412 L441.5,240.412 L324.5,240.412 A0,0 0 0 0 324.5,240.412 " fill="#FEFFDD" style="stroke:#181818;stroke-width:0.5;"/><path d="M441.5,240.412 L441.5,250.412 L451.5,250.412 L441.5,240.412 " fill="#FEFFDD" style="stroke:#181818;stroke-width:0.5;"/><text fill="#000000" font-family="sans-serif" font-size="13" lengthAdjust="spacing" textLength="106" x="330.5" y="259.309">TODOdescription</text><path d="M324.5,278.118 L324.5,287.9711 L198,616.2377 L324.5,295.9711 L324.5,305.8241 A0,0 0 0 0 324.5,305.8241 L451.5,305.8241 A0,0 0 0 0 451.5,305.8241 L451.5,288.118 L441.5,278.118 L324.5,278.118 A0,0 0 0 0 324.5,278.118 " fill="#FEFFDD" style="stroke:#181818;stroke-width:0.5;"/><path d="M441.5,278.118 L441.5,288.118 L451.5,288.118 L441.5,278.118 " fill="#FEFFDD" style="stroke:#181818;stroke-width:0.5;"/><text fill="#000000" font-family="sans-serif" font-size="13" lengthAdjust="spacing" textLength="106" x="330.5" y="297.0151">TODOdescription</text><path d="M324.5,315.8241 L324.5,325.6771 L194,635.3056 L324.5,333.6771 L324.5,343.5301 A0,0 0 0 0 324.5,343.5301 L451.5,343.5301 A0,0 0 0 0 451.5,343.5301 L451.5,325.8241 L441.5,315.8241 L324.5,315.8241 A0,0 0 0 0 324.5,315.8241 " fill="#FEFFDD" style="stroke:#181818;stroke-width:0.5;"/><path d="M441.5,315.8241 L441.5,325.8241 L451.5,325.8241 L441.5,315.8241 " fill="#FEFFDD" style="stroke:#181818;stroke-width:0.5;"/><text fill="#000000" font-family="sans-serif" font-size="13" lengthAdjust="spacing" textLength="106" x="330.5" y="334.7211">TODOdescription</text><path d="M324.5,353.5301 L324.5,363.3831 L169,654.3735 L324.5,371.3831 L324.5,381.2361 A0,0 0 0 0 324.5,381.2361 L451.5,381.2361 A0,0 0 0 0 451.5,381.2361 L451.5,363.5301 L441.5,353.5301 L324.5,353.5301 A0,0 0 0 0 324.5,353.5301 " fill="#FEFFDD" style="stroke:#181818;stroke-width:0.5;"/><path d="M441.5,353.5301 L441.5,363.5301 L451.5,363.5301 L441.5,353.5301 " fill="#FEFFDD" style="stroke:#181818;stroke-width:0.5;"/><text fill="#000000" font-family="sans-serif" font-size="13" lengthAdjust="spacing" textLength="106" x="330.5" y="372.4271">TODOdescription</text><path d="M324.5,391.2361 L324.5,401.0891 L190,673.4415 L324.5,409.0891 L324.5,418.9421 A0,0 0 0 0 324.5,418.9421 L451.5,418.9421 A0,0 0 0 0 451.5,418.9421 L451.5,401.2361 L441.5,391.2361 L324.5,391.2361 A0,0 0 0 0 324.5,391.2361 " fill="#FEFFDD" style="stroke:#181818;stroke-width:0.5;"/><path d="M441.5,391.2361 L441.5,401.2361 L451.5,401.2361 L441.5,391.2361 " fill="#FEFFDD" style="stroke:#181818;stroke-width:0.5;"/><text fill="#000000" font-family="sans-serif" font-size="13" lengthAdjust="spacing" textLength="106" x="330.5" y="410.1331">TODOdescription</text><path d="M324.5,428.9421 L324.5,438.7951 L274,692.5094 L324.5,446.7951 L324.5,456.6481 A0,0 0 0 0 324.5,456.6481 L451.5,456.6481 A0,0 0 0 0 451.5,456.6481 L451.5,438.9421 L441.5,428.9421 L324.5,428.9421 A0,0 0 0 0 324.5,428.9421 " fill="#FEFFDD" style="stroke:#181818;stroke-width:0.5;"/><path d="M441.5,428.9421 L441.5,438.9421 L451.5,438.9421 L441.5,428.9421 " fill="#FEFFDD" style="stroke:#181818;stroke-width:0.5;"/><text fill="#000000" font-family="sans-serif" font-size="13" lengthAdjust="spacing" textLength="106" x="330.5" y="447.8391">TODOdescription</text><path d="M324.5,466.6481 L324.5,476.5011 L212,711.5773 L324.5,484.5011 L324.5,494.3541 A0,0 0 0 0 324.5,494.3541 L451.5,494.3541 A0,0 0 0 0 451.5,494.3541 L451.5,476.6481 L441.5,466.6481 L324.5,466.6481 A0,0 0 0 0 324.5,466.6481 " fill="#FEFFDD" style="stroke:#181818;stroke-width:0.5;"/><path d="M441.5,466.6481 L441.5,476.6481 L451.5,476.6481 L441.5,466.6481 " fill="#FEFFDD" style="stroke:#181818;stroke-width:0.5;"/><text fill="#000000" font-family="sans-serif" font-size="13" lengthAdjust="spacing" textLength="106" x="330.5" y="485.5451">TODOdescription</text><path d="M324.5,504.3541 L324.5,514.2072 L214,730.6452 L324.5,522.2072 L324.5,532.0602 A0,0 0 0 0 324.5,532.0602 L451.5,532.0602 A0,0 0 0 0 451.5,532.0602 L451.5,514.3541 L441.5,504.3541 L324.5,504.3541 A0,0 0 0 0 324.5,504.3541 " fill="#FEFFDD" style="stroke:#181818;stroke-width:0.5;"/><path d="M441.5,504.3541 L441.5,514.3541 L451.5,514.3541 L441.5,504.3541 " fill="#FEFFDD" style="stroke:#181818;stroke-width:0.5;"/><text fill="#000000" font-family="sans-serif" font-size="13" lengthAdjust="spacing" textLength="106" x="330.5" y="523.2512">TODOdescription</text><path d="M324.5,542.0602 L324.5,551.9132 L199,749.7131 L324.5,559.9132 L324.5,569.7662 A0,0 0 0 0 324.5,569.7662 L451.5,569.7662 A0,0 0 0 0 451.5,569.7662 L451.5,552.0602 L441.5,542.0602 L324.5,542.0602 A0,0 0 0 0 324.5,542.0602 " fill="#FEFFDD" style="stroke:#181818;stroke-width:0.5;"/><path d="M441.5,542.0602 L441.5,552.0602 L451.5,552.0602 L441.5,542.0602 " fill="#FEFFDD" style="stroke:#181818;stroke-width:0.5;"/><text fill="#000000" font-family="sans-serif" font-size="13" lengthAdjust="spacing" textLength="106" x="330.5" y="560.9572">TODOdescription</text><path d="M324.5,579.7662 L324.5,589.6192 L242,768.781 L324.5,597.6192 L324.5,607.4722 A0,0 0 0 0 324.5,607.4722 L451.5,607.4722 A0,0 0 0 0 451.5,607.4722 L451.5,589.7662 L441.5,579.7662 L324.5,579.7662 A0,0 0 0 0 324.5,579.7662 " fill="#FEFFDD" style="stroke:#181818;stroke-width:0.5;"/><path d="M441.5,579.7662 L441.5,589.7662 L451.5,589.7662 L441.5,579.7662 " fill="#FEFFDD" style="stroke:#181818;stroke-width:0.5;"/><text fill="#000000" font-family="sans-serif" font-size="13" lengthAdjust="spacing" textLength="106" x="330.5" y="598.6632">TODOdescription</text><path d="M324.5,617.4722 L324.5,627.3252 L191,787.849 L324.5,635.3252 L324.5,645.1782 A0,0 0 0 0 324.5,645.1782 L451.5,645.1782 A0,0 0 0 0 451.5,645.1782 L451.5,627.4722 L441.5,617.4722 L324.5,617.4722 A0,0 0 0 0 324.5,617.4722 " fill="#FEFFDD" style="stroke:#181818;stroke-width:0.5;"/><path d="M441.5,617.4722 L441.5,627.4722 L451.5,627.4722 L441.5,617.4722 " fill="#FEFFDD" style="stroke:#181818;stroke-width:0.5;"/><text fill="#000000" font-family="sans-serif" font-size="13" lengthAdjust="spacing" textLength="106" x="330.5" y="636.3692">TODOdescription</text><path d="M324.5,655.1782 L324.5,665.0312 L261,806.9169 L324.5,673.0312 L324.5,682.8842 A0,0 0 0 0 324.5,682.8842 L451.5,682.8842 A0,0 0 0 0 451.5,682.8842 L451.5,665.1782 L441.5,655.1782 L324.5,655.1782 A0,0 0 0 0 324.5,655.1782 " fill="#FEFFDD" style="stroke:#181818;stroke-width:0.5;"/><path d="M441.5,655.1782 L441.5,665.1782 L451.5,665.1782 L441.5,655.1782 " fill="#FEFFDD" style="stroke:#181818;stroke-width:0.5;"/><text fill="#000000" font-family="sans-serif" font-size="13" lengthAdjust="spacing" textLength="106" x="330.5" y="674.0752">TODOdescription</text><path d="M324.5,692.8842 L324.5,702.7372 L239,825.9848 L324.5,710.7372 L324.5,720.5902 A0,0 0 0 0 324.5,720.5902 L451.5,720.5902 A0,0 0 0 0 451.5,720.5902 L451.5,702.8842 L441.5,692.8842 L324.5,692.8842 A0,0 0 0 0 324.5,692.8842 " fill="#FEFFDD" style="stroke:#181818;stroke-width:0.5;"/><path d="M441.5,692.8842 L441.5,702.8842 L451.5,702.8842 L441.5,692.8842 " fill="#FEFFDD" style="stroke:#181818;stroke-width:0.5;"/><text fill="#000000" font-family="sans-serif" font-size="13" lengthAdjust="spacing" textLength="106" x="330.5" y="711.7812">TODOdescription</text><path d="M324.5,730.5902 L324.5,740.4433 L218,845.0527 L324.5,748.4433 L324.5,758.2963 A0,0 0 0 0 324.5,758.2963 L451.5,758.2963 A0,0 0 0 0 451.5,758.2963 L451.5,740.5902 L441.5,730.5902 L324.5,730.5902 A0,0 0 0 0 324.5,730.5902 " fill="#FEFFDD" style="stroke:#181818;stroke-width:0.5;"/><path d="M441.5,730.5902 L441.5,740.5902 L451.5,740.5902 L441.5,730.5902 " fill="#FEFFDD" style="stroke:#181818;stroke-width:0.5;"/><text fill="#000000" font-family="sans-serif" font-size="13" lengthAdjust="spacing" textLength="106" x="330.5" y="749.4873">TODOdescription</text><path d="M324.5,768.2963 L324.5,778.1493 L193,864.1206 L324.5,786.1493 L324.5,796.0023 A0,0 0 0 0 324.5,796.0023 L451.5,796.0023 A0,0 0 0 0 451.5,796.0023 L451.5,778.2963 L441.5,768.2963 L324.5,768.2963 A0,0 0 0 0 324.5,768.2963 " fill="#FEFFDD" style="stroke:#181818;stroke-width:0.5;"/><path d="M441.5,768.2963 L441.5,778.2963 L451.5,778.2963 L441.5,768.2963 " fill="#FEFFDD" style="stroke:#181818;stroke-width:0.5;"/><text fill="#000000" font-family="sans-serif" font-size="13" lengthAdjust="spacing" textLength="106" x="330.5" y="787.1933">TODOdescription</text><path d="M324.5,806.0023 L324.5,815.8553 L283,883.1885 L324.5,823.8553 L324.5,833.7083 A0,0 0 0 0 324.5,833.7083 L451.5,833.7083 A0,0 0 0 0 451.5,833.7083 L451.5,816.0023 L441.5,806.0023 L324.5,806.0023 A0,0 0 0 0 324.5,806.0023 " fill="#FEFFDD" style="stroke:#181818;stroke-width:0.5;"/><path d="M441.5,806.0023 L441.5,816.0023 L451.5,816.0023 L441.5,806.0023 " fill="#FEFFDD" style="stroke:#181818;stroke-width:0.5;"/><text fill="#000000" font-family="sans-serif" font-size="13" lengthAdjust="spacing" textLength="106" x="330.5" y="824.8993">TODOdescription</text><path d="M324.5,843.7083 L324.5,853.5613 L198,902.2565 L324.5,861.5613 L324.5,871.4143 A0,0 0 0 0 324.5,871.4143 L451.5,871.4143 A0,0 0 0 0 451.5,871.4143 L451.5,853.7083 L441.5,843.7083 L324.5,843.7083 A0,0 0 0 0 324.5,843.7083 " fill="#FEFFDD" style="stroke:#181818;stroke-width:0.5;"/><path d="M441.5,843.7083 L441.5,853.7083 L451.5,853.7083 L441.5,843.7083 " fill="#FEFFDD" style="stroke:#181818;stroke-width:0.5;"/><text fill="#000000" font-family="sans-serif" font-size="13" lengthAdjust="spacing" textLength="106" x="330.5" y="862.6053">TODOdescription</text><path d="M324.5,881.4143 L324.5,891.2673 L209,921.3244 L324.5,899.2673 L324.5,909.1203 A0,0 0 0 0 324.5,909.1203 L451.5,909.1203 A0,0 0 0 0 451.5,909.1203 L451.5,891.4143 L441.5,881.4143 L324.5,881.4143 A0,0 0 0 0 324.5,881.4143 " fill="#FEFFDD" style="stroke:#181818;stroke-width:0.5;"/><path d="M441.5,881.4143 L441.5,891.4143 L451.5,891.4143 L441.5,881.4143 " fill="#FEFFDD" style="stroke:#181818;stroke-width:0.5;"/><text fill="#000000" font-family="sans-serif" font-size="13" lengthAdjust="spacing" textLength="106" x="330.5" y="900.3113">TODOdescription</text><path d="M324.5,919.1203 L324.5,928.9733 L214,940.3923 L324.5,936.9733 L324.5,946.8263 A0,0 0 0 0 324.5,946.8263 L451.5,946.8263 A0,0 0 0 0 451.5,946.8263 L451.5,929.1203 L441.5,919.1203 L324.5,919.1203 A0,0 0 0 0 324.5,919.1203 " fill="#FEFFDD" style="stroke:#181818;stroke-width:0.5;"/><path d="M441.5,919.1203 L441.5,929.1203 L451.5,929.1203 L441.5,919.1203 " fill="#FEFFDD" style="stroke:#181818;stroke-width:0.5;"/><text fill="#000000" font-family="sans-serif" font-size="13" lengthAdjust="spacing" textLength="106" x="330.5" y="938.0173">TODOdescription</text><path d="M324.5,956.8263 L324.5,966.6794 L204,959.4602 L324.5,974.6794 L324.5,984.5324 A0,0 0 0 0 324.5,984.5324 L451.5,984.5324 A0,0 0 0 0 451.5,984.5324 L451.5,966.8263 L441.5,956.8263 L324.5,956.8263 A0,0 0 0 0 324.5,956.8263 " fill="#FEFFDD" style="stroke:#181818;stroke-width:0.5;"/><path d="M441.5,956.8263 L441.5,966.8263 L451.5,966.8263 L441.5,956.8263 " fill="#FEFFDD" style="stroke:#181818;stroke-width:0.5;"/><text fill="#000000" font-family="sans-serif" font-size="13" lengthAdjust="spacing" textLength="106" x="330.5" y="975.7234">TODOdescription</text><path d="M324.5,994.5324 L324.5,1004.3854 L192,978.5281 L324.5,1012.3854 L324.5,1022.2384 A0,0 0 0 0 324.5,1022.2384 L451.5,1022.2384 A0,0 0 0 0 451.5,1022.2384 L451.5,1004.5324 L441.5,994.5324 L324.5,994.5324 A0,0 0 0 0 324.5,994.5324 " fill="#FEFFDD" style="stroke:#181818;stroke-width:0.5;"/><path d="M441.5,994.5324 L441.5,1004.5324 L451.5,1004.5324 L441.5,994.5324 " fill="#FEFFDD" style="stroke:#181818;stroke-width:0.5;"/><text fill="#000000" font-family="sans-serif" font-size="13" lengthAdjust="spacing" textLength="106" x="330.5" y="1013.4294">TODOdescription</text><path d="M324.5,1032.2384 L324.5,1042.0914 L270,997.596 L324.5,1050.0914 L324.5,1059.9444 A0,0 0 0 0 324.5,1059.9444 L451.5,1059.9444 A0,0 0 0 0 451.5,1059.9444 L451.5,1042.2384 L441.5,1032.2384 L324.5,1032.2384 A0,0 0 0 0 324.5,1032.2384 " fill="#FEFFDD" style="stroke:#181818;stroke-width:0.5;"/><path d="M441.5,1032.2384 L441.5,1042.2384 L451.5,1042.2384 L441.5,1032.2384 " fill="#FEFFDD" style="stroke:#181818;stroke-width:0.5;"/><text fill="#000000" font-family="sans-serif" font-size="13" lengthAdjust="spacing" textLength="106" x="330.5" y="1051.1354">TODOdescription</text><path d="M324.5,1069.9444 L324.5,1079.7974 L273,1016.664 L324.5,1087.7974 L324.5,1097.6504 A0,0 0 0 0 324.5,1097.6504 L451.5,1097.6504 A0,0 0 0 0 451.5,1097.6504 L451.5,1079.9444 L441.5,1069.9444 L324.5,1069.9444 A0,0 0 0 0 324.5,1069.9444 " fill="#FEFFDD" style="stroke:#181818;stroke-width:0.5;"/><path d="M441.5,1069.9444 L441.5,1079.9444 L451.5,1079.9444 L441.5,1069.9444 " fill="#FEFFDD" style="stroke:#181818;stroke-width:0.5;"/><text fill="#000000" font-family="sans-serif" font-size="13" lengthAdjust="spacing" textLength="106" x="330.5" y="1088.8414">TODOdescription</text><path d="M324.5,1107.6504 L324.5,1117.5034 L174,1035.7319 L324.5,1125.5034 L324.5,1135.3564 A0,0 0 0 0 324.5,1135.3564 L451.5,1135.3564 A0,0 0 0 0 451.5,1135.3564 L451.5,1117.6504 L441.5,1107.6504 L324.5,1107.6504 A0,0 0 0 0 324.5,1107.6504 " fill="#FEFFDD" style="stroke:#181818;stroke-width:0.5;"/><path d="M441.5,1107.6504 L441.5,1117.6504 L451.5,1117.6504 L441.5,1107.6504 " fill="#FEFFDD" style="stroke:#181818;stroke-width:0.5;"/><text fill="#000000" font-family="sans-serif" font-size="13" lengthAdjust="spacing" textLength="106" x="330.5" y="1126.5474">TODOdescription</text><path d="M324.5,1145.3564 L324.5,1155.2094 L199,1054.7998 L324.5,1163.2094 L324.5,1173.0624 A0,0 0 0 0 324.5,1173.0624 L451.5,1173.0624 A0,0 0 0 0 451.5,1173.0624 L451.5,1155.3564 L441.5,1145.3564 L324.5,1145.3564 A0,0 0 0 0 324.5,1145.3564 " fill="#FEFFDD" style="stroke:#181818;stroke-width:0.5;"/><path d="M441.5,1145.3564 L441.5,1155.3564 L451.5,1155.3564 L441.5,1145.3564 " fill="#FEFFDD" style="stroke:#181818;stroke-width:0.5;"/><text fill="#000000" font-family="sans-serif" font-size="13" lengthAdjust="spacing" textLength="106" x="330.5" y="1164.2534">TODOdescription</text><path d="M324.5,1183.0624 L324.5,1192.9155 L175,1073.8677 L324.5,1200.9155 L324.5,1210.7685 A0,0 0 0 0 324.5,1210.7685 L451.5,1210.7685 A0,0 0 0 0 451.5,1210.7685 L451.5,1193.0624 L441.5,1183.0624 L324.5,1183.0624 A0,0 0 0 0 324.5,1183.0624 " fill="#FEFFDD" style="stroke:#181818;stroke-width:0.5;"/><path d="M441.5,1183.0624 L441.5,1193.0624 L451.5,1193.0624 L441.5,1183.0624 " fill="#FEFFDD" style="stroke:#181818;stroke-width:0.5;"/><text fill="#000000" font-family="sans-serif" font-size="13" lengthAdjust="spacing" textLength="106" x="330.5" y="1201.9595">TODOdescription</text><path d="M324.5,1220.7685 L324.5,1230.6215 L215,1092.9356 L324.5,1238.6215 L324.5,1248.4745 A0,0 0 0 0 324.5,1248.4745 L451.5,1248.4745 A0,0 0 0 0 451.5,1248.4745 L451.5,1230.7685 L441.5,1220.7685 L324.5,1220.7685 A0,0 0 0 0 324.5,1220.7685 " fill="#FEFFDD" style="stroke:#181818;stroke-width:0.5;"/><path d="M441.5,1220.7685 L441.5,1230.7685 L451.5,1230.7685 L441.5,1220.7685 " fill="#FEFFDD" style="stroke:#181818;stroke-width:0.5;"/><text fill="#000000" font-family="sans-serif" font-size="13" lengthAdjust="spacing" textLength="106" x="330.5" y="1239.6655">TODOdescription</text><path d="M324.5,1258.4745 L324.5,1268.3275 L275,1112.0035 L324.5,1276.3275 L324.5,1286.1805 A0,0 0 0 0 324.5,1286.1805 L451.5,1286.1805 A0,0 0 0 0 451.5,1286.1805 L451.5,1268.4745 L441.5,1258.4745 L324.5,1258.4745 A0,0 0 0 0 324.5,1258.4745 " fill="#FEFFDD" style="stroke:#181818;stroke-width:0.5;"/><path d="M441.5,1258.4745 L441.5,1268.4745 L451.5,1268.4745 L441.5,1258.4745 " fill="#FEFFDD" style="stroke:#181818;stroke-width:0.5;"/><text fill="#000000" font-family="sans-serif" font-size="13" lengthAdjust="spacing" textLength="106" x="330.5" y="1277.3715">TODOdescription</text><path d="M324.5,1296.1805 L324.5,1306.0335 L240,1131.0715 L324.5,1314.0335 L324.5,1323.8865 A0,0 0 0 0 324.5,1323.8865 L451.5,1323.8865 A0,0 0 0 0 451.5,1323.8865 L451.5,1306.1805 L441.5,1296.1805 L324.5,1296.1805 A0,0 0 0 0 324.5,1296.1805 " fill="#FEFFDD" style="stroke:#181818;stroke-width:0.5;"/><path d="M441.5,1296.1805 L441.5,1306.1805 L451.5,1306.1805 L441.5,1296.1805 " fill="#FEFFDD" style="stroke:#181818;stroke-width:0.5;"/><text fill="#000000" font-family="sans-serif" font-size="13" lengthAdjust="spacing" textLength="106" x="330.5" y="1315.0775">TODOdescription</text><path d="M324.5,1333.8865 L324.5,1343.7395 L270,1150.1394 L324.5,1351.7395 L324.5,1361.5925 A0,0 0 0 0 324.5,1361.5925 L451.5,1361.5925 A0,0 0 0 0 451.5,1361.5925 L451.5,1343.8865 L441.5,1333.8865 L324.5,1333.8865 A0,0 0 0 0 324.5,1333.8865 " fill="#FEFFDD" style="stroke:#181818;stroke-width:0.5;"/><path d="M441.5,1333.8865 L441.5,1343.8865 L451.5,1343.8865 L441.5,1333.8865 " fill="#FEFFDD" style="stroke:#181818;stroke-width:0.5;"/><text fill="#000000" font-family="sans-serif" font-size="13" lengthAdjust="spacing" textLength="106" x="330.5" y="1352.7835">TODOdescription</text><path d="M324.5,1371.5925 L324.5,1381.4455 L242,1169.2073 L324.5,1389.4455 L324.5,1399.2985 A0,0 0 0 0 324.5,1399.2985 L451.5,1399.2985 A0,0 0 0 0 451.5,1399.2985 L451.5,1381.5925 L441.5,1371.5925 L324.5,1371.5925 A0,0 0 0 0 324.5,1371.5925 " fill="#FEFFDD" style="stroke:#181818;stroke-width:0.5;"/><path d="M441.5,1371.5925 L441.5,1381.5925 L451.5,1381.5925 L441.5,1371.5925 " fill="#FEFFDD" style="stroke:#181818;stroke-width:0.5;"/><text fill="#000000" font-family="sans-serif" font-size="13" lengthAdjust="spacing" textLength="106" x="330.5" y="1390.4895">TODOdescription</text><path d="M324.5,1409.2985 L324.5,1419.1516 L201,1188.2752 L324.5,1427.1516 L324.5,1437.0046 A0,0 0 0 0 324.5,1437.0046 L451.5,1437.0046 A0,0 0 0 0 451.5,1437.0046 L451.5,1419.2985 L441.5,1409.2985 L324.5,1409.2985 A0,0 0 0 0 324.5,1409.2985 " fill="#FEFFDD" style="stroke:#181818;stroke-width:0.5;"/><path d="M441.5,1409.2985 L441.5,1419.2985 L451.5,1419.2985 L441.5,1409.2985 " fill="#FEFFDD" style="stroke:#181818;stroke-width:0.5;"/><text fill="#000000" font-family="sans-serif" font-size="13" lengthAdjust="spacing" textLength="106" x="330.5" y="1428.1956">TODOdescription</text><path d="M324.5,1447.0046 L324.5,1456.8576 L208,1207.3431 L324.5,1464.8576 L324.5,1474.7106 A0,0 0 0 0 324.5,1474.7106 L451.5,1474.7106 A0,0 0 0 0 451.5,1474.7106 L451.5,1457.0046 L441.5,1447.0046 L324.5,1447.0046 A0,0 0 0 0 324.5,1447.0046 " fill="#FEFFDD" style="stroke:#181818;stroke-width:0.5;"/><path d="M441.5,1447.0046 L441.5,1457.0046 L451.5,1457.0046 L441.5,1447.0046 " fill="#FEFFDD" style="stroke:#181818;stroke-width:0.5;"/><text fill="#000000" font-family="sans-serif" font-size="13" lengthAdjust="spacing" textLength="106" x="330.5" y="1465.9016">TODOdescription</text><path d="M324.5,1484.7106 L324.5,1494.5636 L165,1226.411 L324.5,1502.5636 L324.5,1512.4166 A0,0 0 0 0 324.5,1512.4166 L451.5,1512.4166 A0,0 0 0 0 451.5,1512.4166 L451.5,1494.7106 L441.5,1484.7106 L324.5,1484.7106 A0,0 0 0 0 324.5,1484.7106 " fill="#FEFFDD" style="stroke:#181818;stroke-width:0.5;"/><path d="M441.5,1484.7106 L441.5,1494.7106 L451.5,1494.7106 L441.5,1484.7106 " fill="#FEFFDD" style="stroke:#181818;stroke-width:0.5;"/><text fill="#000000" font-family="sans-serif" font-size="13" lengthAdjust="spacing" textLength="106" x="330.5" y="1503.6076">TODOdescription</text><path d="M324.5,1522.4166 L324.5,1532.2696 L197,1245.479 L324.5,1540.2696 L324.5,1550.1226 A0,0 0 0 0 324.5,1550.1226 L451.5,1550.1226 A0,0 0 0 0 451.5,1550.1226 L451.5,1532.4166 L441.5,1522.4166 L324.5,1522.4166 A0,0 0 0 0 324.5,1522.4166 " fill="#FEFFDD" style="stroke:#181818;stroke-width:0.5;"/><path d="M441.5,1522.4166 L441.5,1532.4166 L451.5,1532.4166 L441.5,1522.4166 " fill="#FEFFDD" style="stroke:#181818;stroke-width:0.5;"/><text fill="#000000" font-family="sans-serif" font-size="13" lengthAdjust="spacing" textLength="106" x="330.5" y="1541.3136">TODOdescription</text><path d="M324.5,1560.1226 L324.5,1569.9756 L246,1264.5469 L324.5,1577.9756 L324.5,1587.8286 A0,0 0 0 0 324.5,1587.8286 L451.5,1587.8286 A0,0 0 0 0 451.5,1587.8286 L451.5,1570.1226 L441.5,1560.1226 L324.5,1560.1226 A0,0 0 0 0 324.5,1560.1226 " fill="#FEFFDD" style="stroke:#181818;stroke-width:0.5;"/><path d="M441.5,1560.1226 L441.5,1570.1226 L451.5,1570.1226 L441.5,1560.1226 " fill="#FEFFDD" style="stroke:#181818;stroke-width:0.5;"/><text fill="#000000" font-family="sans-serif" font-size="13" lengthAdjust="spacing" textLength="106" x="330.5" y="1579.0196">TODOdescription</text><path d="M324.5,1597.8286 L324.5,1607.6816 L195,1283.6148 L324.5,1615.6816 L324.5,1625.5346 A0,0 0 0 0 324.5,1625.5346 L451.5,1625.5346 A0,0 0 0 0 451.5,1625.5346 L451.5,1607.8286 L441.5,1597.8286 L324.5,1597.8286 A0,0 0 0 0 324.5,1597.8286 " fill="#FEFFDD" style="stroke:#181818;stroke-width:0.5;"/><path d="M441.5,1597.8286 L441.5,1607.8286 L451.5,1607.8286 L441.5,1597.8286 " fill="#FEFFDD" style="stroke:#181818;stroke-width:0.5;"/><text fill="#000000" font-family="sans-serif" font-size="13" lengthAdjust="spacing" textLength="106" x="330.5" y="1616.7256">TODOdescription</text><path d="M324.5,1635.5346 L324.5,1645.3877 L183,1302.6827 L324.5,1653.3877 L324.5,1663.2407 A0,0 0 0 0 324.5,1663.2407 L451.5,1663.2407 A0,0 0 0 0 451.5,1663.2407 L451.5,1645.5346 L441.5,1635.5346 L324.5,1635.5346 A0,0 0 0 0 324.5,1635.5346 " fill="#FEFFDD" style="stroke:#181818;stroke-width:0.5;"/><path d="M441.5,1635.5346 L441.5,1645.5346 L451.5,1645.5346 L441.5,1635.5346 " fill="#FEFFDD" style="stroke:#181818;stroke-width:0.5;"/><text fill="#000000" font-family="sans-serif" font-size="13" lengthAdjust="spacing" textLength="106" x="330.5" y="1654.4317">TODOdescription</text><!--SRC=[hPQzRW8n3CTtdkBw0h2pKH1J4LA5kbOcyN5MSt6QE2Tu-_fEQeSk3CwDEUSdV_qTlr1qeNhyvEYmMwyt7-pWMWDamh9vnm127Cj0wV98k4vr3Al8Wbscso0Tzzr_c-qMHeo-h3hzBkV3sMDncT9iiz8VtNpzEKFTASBPHhbM2lw0IIzWT8y6i0jpi64SHm6AnKf9nd0y21mfe97obzmJHEgrPYruvHojcEBK6ABOEPckMAoOgLKNAihUWvwAQ5XrFjrbeHwSDL7igifUbcCZwX5X9FT6ySi6mZkCoThWU4-WTVF7pECkku4c8x1NpUsy4ksO0mQK5g0JU-h9IhfXn0nY5Sk80hrvCF5Y3s7FO-A8ra7mYsibOvO1ZOzR0lS5Dsks4uWRZ8YC6Ryh5HAqadWYbKQhB2zkPPm7qz6wI-GQXKPivLf9w5HpRZasErVcmTjWP9QQKj11y6gCJioBm4pOGq4xfLN5PfRzwPrqitwsblm0]--></g></svg>