<?xml version="1.0" encoding="us-ascii" standalone="no"?><svg xmlns="http://www.w3.org/2000/svg" xmlns:xlink="http://www.w3.org/1999/xlink" contentStyleType="text/css" height="277px" preserveAspectRatio="none" style="width:220px;height:277px;background:#FFFFFF;" version="1.1" viewBox="0 0 220 277" width="220px" zoomAndPan="magnify"><defs/><g><!--class RelationshipCompleteness--><g id="elem_RelationshipCompleteness"><rect codeLine="1" fill="#F1F1F1" height="105.2038" id="RelationshipCompleteness" rx="2.5" ry="2.5" style="stroke:#181818;stroke-width:0.5;" width="206" x="7" y="165"/><ellipse cx="22" cy="181" fill="#EB937F" rx="11" ry="11" style="stroke:#181818;stroke-width:1.0;"/><path d="M18.3906,175.1094 L26.1094,175.1094 L26.1094,177.2656 L20.8438,177.2656 L20.8438,179.9375 L25.6094,179.9375 L25.6094,182.0938 L20.8438,182.0938 L20.8438,185.3438 L26.1094,185.3438 L26.1094,187.5 L18.3906,187.5 L18.3906,175.1094 Z " fill="#000000"/><text fill="#000000" font-family="sans-serif" font-size="14" lengthAdjust="spacing" textLength="174" x="36" y="186.432">RelationshipCompleteness</text><line style="stroke:#181818;stroke-width:0.5;" x1="8" x2="212" y1="197" y2="197"/><text fill="#000000" font-family="sans-serif" font-size="14" lengthAdjust="spacing" textLength="73" x="13" y="215.9659">incomplete</text><text fill="#000000" font-family="sans-serif" font-size="14" lengthAdjust="spacing" textLength="43" x="13" y="235.0339">known</text><text fill="#000000" font-family="sans-serif" font-size="14" lengthAdjust="spacing" textLength="59" x="13" y="254.1018">unknown</text><line style="stroke:#181818;stroke-width:0.5;" x1="8" x2="212" y1="262.2038" y2="262.2038"/></g><g id="elem_GMN3"><path d="M59,6 L59,104.5301 A0,0 0 0 0 59,104.5301 L106,104.5301 L110,164.59 L114,104.5301 L161,104.5301 A0,0 0 0 0 161,104.5301 L161,16 L151,6 L59,6 A0,0 0 0 0 59,6 " fill="#FEFFDD" style="stroke:#181818;stroke-width:0.5;"/><path d="M151,6 L151,16 L161,16 L151,6 " fill="#FEFFDD" style="stroke:#181818;stroke-width:0.5;"/><text fill="#000000" font-family="sans-serif" font-size="13" font-weight="bold" lengthAdjust="spacing" textLength="62" x="65" y="24.897">Summary</text><text fill="#000000" font-family="sans-serif" font-size="13" lengthAdjust="spacing" textLength="38" x="65" y="42.603">TODO</text><text fill="#000000" font-family="sans-serif" font-size="13" font-weight="bold" lengthAdjust="spacing" textLength="81" x="65" y="60.309">Description</text><text fill="#000000" font-family="sans-serif" font-size="13" lengthAdjust="spacing" textLength="38" x="65" y="78.0151">TODO</text><text fill="#000000" font-family="sans-serif" font-size="13" lengthAdjust="spacing" textLength="3" x="65" y="95.7211">&#160;</text></g><!--SRC=[IyqhpLK8Iir9BCdCpolEo2nmpiyjo4ajISrBBIvMgEPI08BCl6Ie89YRdPTVdWTcbUP1sBLSUVabgGeb-GKA-MauJUEoIR8BBitDJIogjD5FikCAyNVn1ucvf1Od5sKMWBGWnBbIyr8KGAO20000]--></g></svg>