<?xml version="1.0" encoding="us-ascii" standalone="no"?><svg xmlns="http://www.w3.org/2000/svg" xmlns:xlink="http://www.w3.org/1999/xlink" contentStyleType="text/css" height="281px" preserveAspectRatio="none" style="width:386px;height:281px;background:#FFFFFF;" version="1.1" viewBox="0 0 386 281" width="386px" zoomAndPan="magnify"><defs/><g><!--class RelationshipCompleteness--><g id="elem_RelationshipCompleteness"><rect codeLine="1" fill="#F1F1F1" height="105.2038" id="RelationshipCompleteness" rx="2.5" ry="2.5" style="stroke:#181818;stroke-width:0.5;" width="210" x="7" y="169"/><ellipse cx="23.8" cy="185" fill="#EB937F" rx="11" ry="11" style="stroke:#181818;stroke-width:1.0;"/><path d="M20.1906,179.1094 L27.9094,179.1094 L27.9094,181.2656 L22.6438,181.2656 L22.6438,183.9375 L27.4094,183.9375 L27.4094,186.0938 L22.6438,186.0938 L22.6438,189.3438 L27.9094,189.3438 L27.9094,191.5 L20.1906,191.5 L20.1906,179.1094 Z " fill="#000000"/><text fill="#000000" font-family="sans-serif" font-size="14" lengthAdjust="spacing" textLength="174" x="38.2" y="190.432">RelationshipCompleteness</text><line style="stroke:#181818;stroke-width:0.5;" x1="8" x2="216" y1="201" y2="201"/><text fill="#000000" font-family="sans-serif" font-size="14" lengthAdjust="spacing" textLength="198" x="13" y="219.9659">incomplete : TODOdescription</text><text fill="#000000" font-family="sans-serif" font-size="14" lengthAdjust="spacing" textLength="168" x="13" y="239.0339">known : TODOdescription</text><text fill="#000000" font-family="sans-serif" font-size="14" lengthAdjust="spacing" textLength="184" x="13" y="258.1018">unknown : TODOdescription</text><line style="stroke:#181818;stroke-width:0.5;" x1="8" x2="216" y1="266.2038" y2="266.2038"/></g><g id="elem_GMN3"><path d="M61,6 L61,104.5301 A0,0 0 0 0 61,104.5301 L108,104.5301 L112,168.5 L116,104.5301 L163,104.5301 A0,0 0 0 0 163,104.5301 L163,16 L153,6 L61,6 A0,0 0 0 0 61,6 " fill="#FEFFDD" style="stroke:#181818;stroke-width:0.5;"/><path d="M153,6 L153,16 L163,16 L153,6 " fill="#FEFFDD" style="stroke:#181818;stroke-width:0.5;"/><text fill="#000000" font-family="sans-serif" font-size="13" font-weight="bold" lengthAdjust="spacing" textLength="62" x="67" y="24.897">Summary</text><text fill="#000000" font-family="sans-serif" font-size="13" lengthAdjust="spacing" textLength="38" x="67" y="42.603">TODO</text><text fill="#000000" font-family="sans-serif" font-size="13" font-weight="bold" lengthAdjust="spacing" textLength="81" x="67" y="60.309">Description</text><text fill="#000000" font-family="sans-serif" font-size="13" lengthAdjust="spacing" textLength="38" x="67" y="78.0151">TODO</text><text fill="#000000" font-family="sans-serif" font-size="13" lengthAdjust="spacing" textLength="3" x="67" y="95.7211">&#160;</text></g><path d="M252.5,165 L252.5,174.853 L211,214.534 L252.5,182.853 L252.5,192.706 A0,0 0 0 0 252.5,192.706 L379.5,192.706 A0,0 0 0 0 379.5,192.706 L379.5,175 L369.5,165 L252.5,165 A0,0 0 0 0 252.5,165 " fill="#FEFFDD" style="stroke:#181818;stroke-width:0.5;"/><path d="M369.5,165 L369.5,175 L379.5,175 L369.5,165 " fill="#FEFFDD" style="stroke:#181818;stroke-width:0.5;"/><text fill="#000000" font-family="sans-serif" font-size="13" lengthAdjust="spacing" textLength="106" x="258.5" y="183.897">TODOdescription</text><path d="M252.5,202.706 L252.5,212.559 L181,233.6019 L252.5,220.559 L252.5,230.412 A0,0 0 0 0 252.5,230.412 L379.5,230.412 A0,0 0 0 0 379.5,230.412 L379.5,212.706 L369.5,202.706 L252.5,202.706 A0,0 0 0 0 252.5,202.706 " fill="#FEFFDD" style="stroke:#181818;stroke-width:0.5;"/><path d="M369.5,202.706 L369.5,212.706 L379.5,212.706 L369.5,202.706 " fill="#FEFFDD" style="stroke:#181818;stroke-width:0.5;"/><text fill="#000000" font-family="sans-serif" font-size="13" lengthAdjust="spacing" textLength="106" x="258.5" y="221.603">TODOdescription</text><path d="M252.5,240.412 L252.5,250.265 L197,252.6698 L252.5,258.265 L252.5,268.118 A0,0 0 0 0 252.5,268.118 L379.5,268.118 A0,0 0 0 0 379.5,268.118 L379.5,250.412 L369.5,240.412 L252.5,240.412 A0,0 0 0 0 252.5,240.412 " fill="#FEFFDD" style="stroke:#181818;stroke-width:0.5;"/><path d="M369.5,240.412 L369.5,250.412 L379.5,250.412 L369.5,240.412 " fill="#FEFFDD" style="stroke:#181818;stroke-width:0.5;"/><text fill="#000000" font-family="sans-serif" font-size="13" lengthAdjust="spacing" textLength="106" x="258.5" y="259.309">TODOdescription</text><!--SRC=[hSsn2W8n40JGFb-n_a2klrRx0n5RYSdeBUPsGpR1t_SER4KBfniOtknOOku95vK8yduuQmpNdaDbs7143erLREQorwLaD0ZCVEbBTg8DLFa-Dz8RVTgEuthnxexMdAR3b62nSjds3f9eetxs7g9F-G_LvJls0W00]--></g></svg>