<?xml version="1.0" encoding="us-ascii" standalone="no"?><svg xmlns="http://www.w3.org/2000/svg" xmlns:xlink="http://www.w3.org/1999/xlink" contentStyleType="text/css" height="277px" preserveAspectRatio="none" style="width:224px;height:277px;background:#FFFFFF;" version="1.1" viewBox="0 0 224 277" width="224px" zoomAndPan="magnify"><defs/><g><!--class RelationshipCompleteness--><g id="elem_RelationshipCompleteness"><rect codeLine="1" fill="#F1F1F1" height="105.2038" id="RelationshipCompleteness" rx="2.5" ry="2.5" style="stroke:#181818;stroke-width:0.5;" width="210" x="7" y="165"/><ellipse cx="23.8" cy="181" fill="#EB937F" rx="11" ry="11" style="stroke:#181818;stroke-width:1.0;"/><path d="M20.1906,175.1094 L27.9094,175.1094 L27.9094,177.2656 L22.6438,177.2656 L22.6438,179.9375 L27.4094,179.9375 L27.4094,182.0938 L22.6438,182.0938 L22.6438,185.3438 L27.9094,185.3438 L27.9094,187.5 L20.1906,187.5 L20.1906,175.1094 Z " fill="#000000"/><text fill="#000000" font-family="sans-serif" font-size="14" lengthAdjust="spacing" textLength="174" x="38.2" y="186.432">RelationshipCompleteness</text><line style="stroke:#181818;stroke-width:0.5;" x1="8" x2="216" y1="197" y2="197"/><text fill="#000000" font-family="sans-serif" font-size="14" lengthAdjust="spacing" textLength="198" x="13" y="215.9659">incomplete : TODOdescription</text><text fill="#000000" font-family="sans-serif" font-size="14" lengthAdjust="spacing" textLength="168" x="13" y="235.0339">known : TODOdescription</text><text fill="#000000" font-family="sans-serif" font-size="14" lengthAdjust="spacing" textLength="184" x="13" y="254.1018">unknown : TODOdescription</text><line style="stroke:#181818;stroke-width:0.5;" x1="8" x2="216" y1="262.2038" y2="262.2038"/></g><g id="elem_GMN3"><path d="M61,6 L61,104.5301 A0,0 0 0 0 61,104.5301 L108,104.5301 L112,164.59 L116,104.5301 L163,104.5301 A0,0 0 0 0 163,104.5301 L163,16 L153,6 L61,6 A0,0 0 0 0 61,6 " fill="#FEFFDD" style="stroke:#181818;stroke-width:0.5;"/><path d="M153,6 L153,16 L163,16 L153,6 " fill="#FEFFDD" style="stroke:#181818;stroke-width:0.5;"/><text fill="#000000" font-family="sans-serif" font-size="13" font-weight="bold" lengthAdjust="spacing" textLength="62" x="67" y="24.897">Summary</text><text fill="#000000" font-family="sans-serif" font-size="13" lengthAdjust="spacing" textLength="38" x="67" y="42.603">TODO</text><text fill="#000000" font-family="sans-serif" font-size="13" font-weight="bold" lengthAdjust="spacing" textLength="81" x="67" y="60.309">Description</text><text fill="#000000" font-family="sans-serif" font-size="13" lengthAdjust="spacing" textLength="38" x="67" y="78.0151">TODO</text><text fill="#000000" font-family="sans-serif" font-size="13" lengthAdjust="spacing" textLength="3" x="67" y="95.7211">&#160;</text></g><!--SRC=[IyqhpLK8Iir9BCdCpolEo2nmpiyjo4ajISrBBIvMgEPI08BCl6Iee8ALGeY_YtzAQd5oKMO1I0jOGNPUVdaU3hdIF5oojLnv-K0ZI_8B5FBJSBg1ooR9BhWqDpUngD96FycE2sGAICm5OH92d2irBqK1P2e0]--></g></svg>