<?xml version="1.0" encoding="us-ascii" standalone="no"?><svg xmlns="http://www.w3.org/2000/svg" xmlns:xlink="http://www.w3.org/1999/xlink" contentStyleType="text/css" height="504px" preserveAspectRatio="none" style="width:883px;height:504px;background:#FFFFFF;" version="1.1" viewBox="0 0 883 504" width="883px" zoomAndPan="magnify"><defs/><g><!--class Annotation--><g id="elem_Annotation"><rect codeLine="1" fill="#F1F1F1" height="219.6113" id="Annotation" rx="2.5" ry="2.5" style="stroke:#181818;stroke-width:0.5;" width="269" x="448" y="278"/><ellipse cx="541.25" cy="294" fill="#ADD1B2" rx="11" ry="11" style="stroke:#181818;stroke-width:1.0;"/><path d="M541.0469,300.7344 Q538.5625,300.7344 537.2344,299.0938 Q535.9219,297.4219 535.9219,294.3125 Q535.9219,291.1875 537.2344,289.5313 Q538.5625,287.875 541.0469,287.875 Q541.7656,287.875 542.4219,288.0313 Q543.0625,288.1875 543.625,288.4844 L543.625,291.2031 Q543.2656,290.8594 542.9688,290.6719 Q542.6719,290.4688 542.4063,290.3438 Q542.0938,290.2031 541.7813,290.1406 Q541.4844,290.0781 541.1719,290.0781 Q539.8438,290.0781 539.1563,291.1406 Q538.4688,292.2344 538.4688,294.3125 Q538.4688,296.4063 539.1563,297.4688 Q539.8438,298.5469 541.1719,298.5469 Q541.8125,298.5469 542.4063,298.2656 Q542.7031,298.1406 542.9844,297.9531 Q543.2813,297.75 543.625,297.4219 L543.625,300.1406 Q543.0469,300.4375 542.4063,300.5938 Q541.7656,300.7344 541.0469,300.7344 Z " fill="#000000"/><text fill="#000000" font-family="sans-serif" font-size="14" lengthAdjust="spacing" textLength="74" x="561.75" y="299.432">Annotation</text><line style="stroke:#181818;stroke-width:0.5;" x1="449" x2="716" y1="310" y2="310"/><text fill="#000000" font-family="sans-serif" font-size="14" lengthAdjust="spacing" textLength="160" x="454" y="352.0339">Instantiability : Concrete</text><text fill="#000000" font-family="sans-serif" font-size="14" lengthAdjust="spacing" textLength="137" x="454" y="371.1018">SubclassOf : Element</text><text fill="#000000" font-family="sans-serif" font-size="14" lengthAdjust="spacing" textLength="122" x="454" y="390.1697">name : Annotation</text><line style="stroke:#181818;stroke-width:1.0;stroke-dasharray:1.0,2.0;" x1="449" x2="550" y1="327.534" y2="327.534"/><text fill="#000000" font-family="sans-serif" font-size="14" lengthAdjust="spacing" textLength="65" x="550" y="332.4659">metadata</text><line style="stroke:#181818;stroke-width:1.0;stroke-dasharray:1.0,2.0;" x1="615" x2="716" y1="327.534" y2="327.534"/><text fill="#000000" font-family="sans-serif" font-size="14" lengthAdjust="spacing" textLength="257" x="454" y="432.3055">annotationType : AnnotationType [1..1]</text><text fill="#000000" font-family="sans-serif" font-size="14" lengthAdjust="spacing" textLength="186" x="454" y="451.3734">contentType : MediaType [..]</text><text fill="#000000" font-family="sans-serif" font-size="14" lengthAdjust="spacing" textLength="178" x="454" y="470.4414">statement : xsd:string [0..1]</text><text fill="#000000" font-family="sans-serif" font-size="14" lengthAdjust="spacing" textLength="148" x="454" y="489.5093">subject : Element [1..1]</text><line style="stroke:#181818;stroke-width:1.0;stroke-dasharray:1.0,2.0;" x1="449" x2="549" y1="407.8056" y2="407.8056"/><text fill="#000000" font-family="sans-serif" font-size="14" lengthAdjust="spacing" textLength="67" x="549" y="412.7376">properties</text><line style="stroke:#181818;stroke-width:1.0;stroke-dasharray:1.0,2.0;" x1="616" x2="716" y1="407.8056" y2="407.8056"/></g><g id="elem_GMN3"><path d="M6,115 L6,213.5301 A0,0 0 0 0 6,213.5301 L305.74,213.5301 L440.29,296.7 L313.74,213.5301 L459,213.5301 A0,0 0 0 0 459,213.5301 L459,125 L449,115 L6,115 A0,0 0 0 0 6,115 " fill="#FEFFDD" style="stroke:#181818;stroke-width:0.5;"/><path d="M449,115 L449,125 L459,125 L449,115 " fill="#FEFFDD" style="stroke:#181818;stroke-width:0.5;"/><text fill="#000000" font-family="sans-serif" font-size="13" font-weight="bold" lengthAdjust="spacing" textLength="62" x="12" y="133.897">Summary</text><text fill="#000000" font-family="sans-serif" font-size="13" lengthAdjust="spacing" textLength="332" x="12" y="151.603">An assertion made in relation to one or more elements.</text><text fill="#000000" font-family="sans-serif" font-size="13" font-weight="bold" lengthAdjust="spacing" textLength="81" x="12" y="169.309">Description</text><text fill="#000000" font-family="sans-serif" font-size="13" lengthAdjust="spacing" textLength="432" x="12" y="187.0151">An Annotation is an assertion made in relation to one or more elements.</text><text fill="#000000" font-family="sans-serif" font-size="13" lengthAdjust="spacing" textLength="3" x="12" y="204.7211">&#160;</text></g><!--class Element--><g id="elem_Element"><rect fill="#F1F1F1" height="48" id="Element" rx="2.5" ry="2.5" style="stroke:#181818;stroke-width:0.5;" width="86" x="466.5" y="7"/><ellipse cx="481.5" cy="23" fill="#ADD1B2" rx="11" ry="11" style="stroke:#181818;stroke-width:1.0;"/><path d="M481.2969,29.7344 Q478.8125,29.7344 477.4844,28.0938 Q476.1719,26.4219 476.1719,23.3125 Q476.1719,20.1875 477.4844,18.5313 Q478.8125,16.875 481.2969,16.875 Q482.0156,16.875 482.6719,17.0313 Q483.3125,17.1875 483.875,17.4844 L483.875,20.2031 Q483.5156,19.8594 483.2188,19.6719 Q482.9219,19.4688 482.6563,19.3438 Q482.3438,19.2031 482.0313,19.1406 Q481.7344,19.0781 481.4219,19.0781 Q480.0938,19.0781 479.4063,20.1406 Q478.7188,21.2344 478.7188,23.3125 Q478.7188,25.4063 479.4063,26.4688 Q480.0938,27.5469 481.4219,27.5469 Q482.0625,27.5469 482.6563,27.2656 Q482.9531,27.1406 483.2344,26.9531 Q483.5313,26.75 483.875,26.4219 L483.875,29.1406 Q483.2969,29.4375 482.6563,29.5938 Q482.0156,29.7344 481.2969,29.7344 Z " fill="#000000"/><text fill="#000000" font-family="sans-serif" font-size="14" lengthAdjust="spacing" textLength="54" x="495.5" y="28.432">Element</text><line style="stroke:#181818;stroke-width:0.5;" x1="467.5" x2="551.5" y1="39" y2="39"/><line style="stroke:#181818;stroke-width:0.5;" x1="467.5" x2="551.5" y1="47" y2="47"/></g><!--class AnnotationType--><g id="elem_AnnotationType"><rect fill="#F1F1F1" height="48" id="AnnotationType" rx="2.5" ry="2.5" style="stroke:#181818;stroke-width:0.5;" width="138" x="587.5" y="7"/><ellipse cx="602.5" cy="23" fill="#ADD1B2" rx="11" ry="11" style="stroke:#181818;stroke-width:1.0;"/><path d="M602.2969,29.7344 Q599.8125,29.7344 598.4844,28.0938 Q597.1719,26.4219 597.1719,23.3125 Q597.1719,20.1875 598.4844,18.5313 Q599.8125,16.875 602.2969,16.875 Q603.0156,16.875 603.6719,17.0313 Q604.3125,17.1875 604.875,17.4844 L604.875,20.2031 Q604.5156,19.8594 604.2188,19.6719 Q603.9219,19.4688 603.6563,19.3438 Q603.3438,19.2031 603.0313,19.1406 Q602.7344,19.0781 602.4219,19.0781 Q601.0938,19.0781 600.4063,20.1406 Q599.7188,21.2344 599.7188,23.3125 Q599.7188,25.4063 600.4063,26.4688 Q601.0938,27.5469 602.4219,27.5469 Q603.0625,27.5469 603.6563,27.2656 Q603.9531,27.1406 604.2344,26.9531 Q604.5313,26.75 604.875,26.4219 L604.875,29.1406 Q604.2969,29.4375 603.6563,29.5938 Q603.0156,29.7344 602.2969,29.7344 Z " fill="#000000"/><text fill="#000000" font-family="sans-serif" font-size="14" lengthAdjust="spacing" textLength="106" x="616.5" y="28.432">AnnotationType</text><line style="stroke:#181818;stroke-width:0.5;" x1="588.5" x2="724.5" y1="39" y2="39"/><line style="stroke:#181818;stroke-width:0.5;" x1="588.5" x2="724.5" y1="47" y2="47"/></g><!--class MediaType--><g id="elem_MediaType"><rect fill="#F1F1F1" height="48" id="MediaType" rx="2.5" ry="2.5" style="stroke:#181818;stroke-width:0.5;" width="104" x="760.5" y="7"/><ellipse cx="775.5" cy="23" fill="#ADD1B2" rx="11" ry="11" style="stroke:#181818;stroke-width:1.0;"/><path d="M775.2969,29.7344 Q772.8125,29.7344 771.4844,28.0938 Q770.1719,26.4219 770.1719,23.3125 Q770.1719,20.1875 771.4844,18.5313 Q772.8125,16.875 775.2969,16.875 Q776.0156,16.875 776.6719,17.0313 Q777.3125,17.1875 777.875,17.4844 L777.875,20.2031 Q777.5156,19.8594 777.2188,19.6719 Q776.9219,19.4688 776.6563,19.3438 Q776.3438,19.2031 776.0313,19.1406 Q775.7344,19.0781 775.4219,19.0781 Q774.0938,19.0781 773.4063,20.1406 Q772.7188,21.2344 772.7188,23.3125 Q772.7188,25.4063 773.4063,26.4688 Q774.0938,27.5469 775.4219,27.5469 Q776.0625,27.5469 776.6563,27.2656 Q776.9531,27.1406 777.2344,26.9531 Q777.5313,26.75 777.875,26.4219 L777.875,29.1406 Q777.2969,29.4375 776.6563,29.5938 Q776.0156,29.7344 775.2969,29.7344 Z " fill="#000000"/><text fill="#000000" font-family="sans-serif" font-size="14" lengthAdjust="spacing" textLength="72" x="789.5" y="28.432">MediaType</text><line style="stroke:#181818;stroke-width:0.5;" x1="761.5" x2="863.5" y1="39" y2="39"/><line style="stroke:#181818;stroke-width:0.5;" x1="761.5" x2="863.5" y1="47" y2="47"/></g><!--reverse link Element to Annotation--><g id="link_Element_Annotation"><path codeLine="19" d="M518.57,76.05 C528.72,125.35 545.56,207.13 559.41,274.38 " fill="none" id="Element-backto-Annotation" style="stroke:#181818;stroke-width:4.0;"/><polygon fill="none" points="511.77,77.74,514.6,56.74,525.49,74.92,511.77,77.74" style="stroke:#181818;stroke-width:4.0;"/></g><!--reverse link Element to Annotation--><g id="link_Element_Annotation"><path codeLine="22" d="M527.81,60.82 C558.45,108.85 617.98,201.27 630.5,214 C663.43,247.49 695.56,232.47 717.5,274 C761.19,356.73 812.06,484.5 718.5,484.5 " fill="none" id="Element-backto-Annotation-1" style="stroke:#181818;stroke-width:1.0;"/><polygon fill="#181818" points="525.21,56.75,526.6736,66.4895,527.8972,60.9665,533.4201,62.1901,525.21,56.75" style="stroke:#181818;stroke-width:1.0;"/></g><!--reverse link AnnotationType to Annotation--><g id="link_AnnotationType_Annotation"><path codeLine="20" d="M673.13,60.73 C724.28,151.71 867.08,427.5 718.5,427.5 " fill="none" id="AnnotationType-backto-Annotation" style="stroke:#181818;stroke-width:1.0;"/><polygon fill="#181818" points="670.79,56.58,671.7511,66.3819,673.2569,60.9291,678.7096,62.4349,670.79,56.58" style="stroke:#181818;stroke-width:1.0;"/></g><!--reverse link MediaType to Annotation--><g id="link_MediaType_Annotation"><path codeLine="21" d="M818.47,61.7 C835.97,156.63 876.47,446.5 718.5,446.5 " fill="none" id="MediaType-backto-Annotation" style="stroke:#181818;stroke-width:1.0;"/><polygon fill="#181818" points="817.58,56.96,815.3206,66.5462,818.5083,61.8731,823.1815,65.0608,817.58,56.96" style="stroke:#181818;stroke-width:1.0;"/></g><!--SRC=[dP4_JyCm4CLtVugJznWgCKMbKWKC38YXR5K7nxbIGtoEx8j41NntdAJv9vZmwFVyktVFfj8nmfR8isRh2Jw5Kk2GTQbPWr82qdcao9hOwi9Mbi-Gmvqd4v2natTDOLhEyp4f3nKw9Eu4qWxJrOHluNNmDGQs60Uy7lMNSxryq5tiLqgj3ftLUE94l_YUiBIwjoZL6r9GxW8a-IEMUUHWwHNsroCYDiKR6fwY3lnlaQOYiA_17-UXryLcrpYdmtbzLMp4bY0jswwG-dAwHB040Qk-GFRW2S47S3uWO3yZgfPoZz44MxU-WJIhtiRKnB_G0gc4DhoGbvqahB-oFP-iUIUCyVRca86SPaaXbnqdVvOjB7c-_9RqPApxB_ViP-GynY_ZfN_v0m00]--></g></svg>