<?xml version="1.0" encoding="us-ascii" standalone="no"?><svg xmlns="http://www.w3.org/2000/svg" xmlns:xlink="http://www.w3.org/1999/xlink" contentStyleType="text/css" height="345px" preserveAspectRatio="none" style="width:787px;height:345px;background:#FFFFFF;" version="1.1" viewBox="0 0 787 345" width="787px" zoomAndPan="magnify"><defs/><g><!--class Annotation--><g id="elem_Annotation"><rect codeLine="1" fill="#F1F1F1" height="219.6113" id="Annotation" rx="2.5" ry="2.5" style="stroke:#181818;stroke-width:0.5;" width="172" x="112.4" y="119"/><ellipse cx="157.15" cy="135" fill="#ADD1B2" rx="11" ry="11" style="stroke:#181818;stroke-width:1.0;"/><path d="M156.9469,141.7344 Q154.4625,141.7344 153.1344,140.0938 Q151.8219,138.4219 151.8219,135.3125 Q151.8219,132.1875 153.1344,130.5313 Q154.4625,128.875 156.9469,128.875 Q157.6656,128.875 158.3219,129.0313 Q158.9625,129.1875 159.525,129.4844 L159.525,132.2031 Q159.1656,131.8594 158.8688,131.6719 Q158.5719,131.4688 158.3063,131.3438 Q157.9938,131.2031 157.6813,131.1406 Q157.3844,131.0781 157.0719,131.0781 Q155.7438,131.0781 155.0563,132.1406 Q154.3688,133.2344 154.3688,135.3125 Q154.3688,137.4063 155.0563,138.4688 Q155.7438,139.5469 157.0719,139.5469 Q157.7125,139.5469 158.3063,139.2656 Q158.6031,139.1406 158.8844,138.9531 Q159.1813,138.75 159.525,138.4219 L159.525,141.1406 Q158.9469,141.4375 158.3063,141.5938 Q157.6656,141.7344 156.9469,141.7344 Z " fill="#000000"/><text fill="#000000" font-family="sans-serif" font-size="14" lengthAdjust="spacing" textLength="74" x="177.65" y="140.432">Annotation</text><line style="stroke:#181818;stroke-width:0.5;" x1="113.4" x2="283.4" y1="151" y2="151"/><text fill="#000000" font-family="sans-serif" font-size="14" lengthAdjust="spacing" textLength="160" x="118.4" y="193.0339">Instantiability : Concrete</text><text fill="#000000" font-family="sans-serif" font-size="14" lengthAdjust="spacing" textLength="137" x="118.4" y="212.1018">SubclassOf : Element</text><text fill="#000000" font-family="sans-serif" font-size="14" lengthAdjust="spacing" textLength="122" x="118.4" y="231.1697">name : Annotation</text><line style="stroke:#181818;stroke-width:1.0;stroke-dasharray:1.0,2.0;" x1="113.4" x2="165.9" y1="168.534" y2="168.534"/><text fill="#000000" font-family="sans-serif" font-size="14" lengthAdjust="spacing" textLength="65" x="165.9" y="173.4659">metadata</text><line style="stroke:#181818;stroke-width:1.0;stroke-dasharray:1.0,2.0;" x1="230.9" x2="283.4" y1="168.534" y2="168.534"/><text fill="#000000" font-family="sans-serif" font-size="14" lengthAdjust="spacing" textLength="105" x="118.4" y="273.3055">annotationType</text><text fill="#000000" font-family="sans-serif" font-size="14" lengthAdjust="spacing" textLength="84" x="118.4" y="292.3734">contentType</text><text fill="#000000" font-family="sans-serif" font-size="14" lengthAdjust="spacing" textLength="143" x="118.4" y="311.4414">statement : xsd:string</text><text fill="#000000" font-family="sans-serif" font-size="14" lengthAdjust="spacing" textLength="48" x="118.4" y="330.5093">subject</text><line style="stroke:#181818;stroke-width:1.0;stroke-dasharray:1.0,2.0;" x1="113.4" x2="164.9" y1="248.8056" y2="248.8056"/><text fill="#000000" font-family="sans-serif" font-size="14" lengthAdjust="spacing" textLength="67" x="164.9" y="253.7376">properties</text><line style="stroke:#181818;stroke-width:1.0;stroke-dasharray:1.0,2.0;" x1="231.9" x2="283.4" y1="248.8056" y2="248.8056"/></g><g id="elem_GMN3"><path d="M327.9,179 L327.9,224.5 L292.27,228.5 L327.9,232.5 L327.9,277.5301 A0,0 0 0 0 327.9,277.5301 L780.9,277.5301 A0,0 0 0 0 780.9,277.5301 L780.9,189 L770.9,179 L327.9,179 A0,0 0 0 0 327.9,179 " fill="#FEFFDD" style="stroke:#181818;stroke-width:0.5;"/><path d="M770.9,179 L770.9,189 L780.9,189 L770.9,179 " fill="#FEFFDD" style="stroke:#181818;stroke-width:0.5;"/><text fill="#000000" font-family="sans-serif" font-size="13" font-weight="bold" lengthAdjust="spacing" textLength="62" x="333.9" y="197.897">Summary</text><text fill="#000000" font-family="sans-serif" font-size="13" lengthAdjust="spacing" textLength="332" x="333.9" y="215.603">An assertion made in relation to one or more elements.</text><text fill="#000000" font-family="sans-serif" font-size="13" font-weight="bold" lengthAdjust="spacing" textLength="81" x="333.9" y="233.309">Description</text><text fill="#000000" font-family="sans-serif" font-size="13" lengthAdjust="spacing" textLength="432" x="333.9" y="251.0151">An Annotation is an assertion made in relation to one or more elements.</text><text fill="#000000" font-family="sans-serif" font-size="13" lengthAdjust="spacing" textLength="3" x="333.9" y="268.7211">&#160;</text></g><!--class Element--><g id="elem_Element"><rect fill="#F1F1F1" height="48" id="Element" rx="2.5" ry="2.5" style="stroke:#181818;stroke-width:0.5;" width="86" x="82.4" y="7"/><ellipse cx="97.4" cy="23" fill="#ADD1B2" rx="11" ry="11" style="stroke:#181818;stroke-width:1.0;"/><path d="M97.1969,29.7344 Q94.7125,29.7344 93.3844,28.0938 Q92.0719,26.4219 92.0719,23.3125 Q92.0719,20.1875 93.3844,18.5313 Q94.7125,16.875 97.1969,16.875 Q97.9156,16.875 98.5719,17.0313 Q99.2125,17.1875 99.775,17.4844 L99.775,20.2031 Q99.4156,19.8594 99.1188,19.6719 Q98.8219,19.4688 98.5563,19.3438 Q98.2438,19.2031 97.9313,19.1406 Q97.6344,19.0781 97.3219,19.0781 Q95.9938,19.0781 95.3063,20.1406 Q94.6188,21.2344 94.6188,23.3125 Q94.6188,25.4063 95.3063,26.4688 Q95.9938,27.5469 97.3219,27.5469 Q97.9625,27.5469 98.5563,27.2656 Q98.8531,27.1406 99.1344,26.9531 Q99.4313,26.75 99.775,26.4219 L99.775,29.1406 Q99.1969,29.4375 98.5563,29.5938 Q97.9156,29.7344 97.1969,29.7344 Z " fill="#000000"/><text fill="#000000" font-family="sans-serif" font-size="14" lengthAdjust="spacing" textLength="54" x="111.4" y="28.432">Element</text><line style="stroke:#181818;stroke-width:0.5;" x1="83.4" x2="167.4" y1="39" y2="39"/><line style="stroke:#181818;stroke-width:0.5;" x1="83.4" x2="167.4" y1="47" y2="47"/></g><!--class AnnotationType--><g id="elem_AnnotationType"><rect fill="#F1F1F1" height="48" id="AnnotationType" rx="2.5" ry="2.5" style="stroke:#181818;stroke-width:0.5;" width="138" x="203.4" y="7"/><ellipse cx="218.4" cy="23" fill="#ADD1B2" rx="11" ry="11" style="stroke:#181818;stroke-width:1.0;"/><path d="M218.1969,29.7344 Q215.7125,29.7344 214.3844,28.0938 Q213.0719,26.4219 213.0719,23.3125 Q213.0719,20.1875 214.3844,18.5313 Q215.7125,16.875 218.1969,16.875 Q218.9156,16.875 219.5719,17.0313 Q220.2125,17.1875 220.775,17.4844 L220.775,20.2031 Q220.4156,19.8594 220.1188,19.6719 Q219.8219,19.4688 219.5563,19.3438 Q219.2438,19.2031 218.9313,19.1406 Q218.6344,19.0781 218.3219,19.0781 Q216.9938,19.0781 216.3063,20.1406 Q215.6188,21.2344 215.6188,23.3125 Q215.6188,25.4063 216.3063,26.4688 Q216.9938,27.5469 218.3219,27.5469 Q218.9625,27.5469 219.5563,27.2656 Q219.8531,27.1406 220.1344,26.9531 Q220.4313,26.75 220.775,26.4219 L220.775,29.1406 Q220.1969,29.4375 219.5563,29.5938 Q218.9156,29.7344 218.1969,29.7344 Z " fill="#000000"/><text fill="#000000" font-family="sans-serif" font-size="14" lengthAdjust="spacing" textLength="106" x="232.4" y="28.432">AnnotationType</text><line style="stroke:#181818;stroke-width:0.5;" x1="204.4" x2="340.4" y1="39" y2="39"/><line style="stroke:#181818;stroke-width:0.5;" x1="204.4" x2="340.4" y1="47" y2="47"/></g><!--class MediaType--><g id="elem_MediaType"><rect fill="#F1F1F1" height="48" id="MediaType" rx="2.5" ry="2.5" style="stroke:#181818;stroke-width:0.5;" width="104" x="376.4" y="7"/><ellipse cx="391.4" cy="23" fill="#ADD1B2" rx="11" ry="11" style="stroke:#181818;stroke-width:1.0;"/><path d="M391.1969,29.7344 Q388.7125,29.7344 387.3844,28.0938 Q386.0719,26.4219 386.0719,23.3125 Q386.0719,20.1875 387.3844,18.5313 Q388.7125,16.875 391.1969,16.875 Q391.9156,16.875 392.5719,17.0313 Q393.2125,17.1875 393.775,17.4844 L393.775,20.2031 Q393.4156,19.8594 393.1188,19.6719 Q392.8219,19.4688 392.5563,19.3438 Q392.2438,19.2031 391.9313,19.1406 Q391.6344,19.0781 391.3219,19.0781 Q389.9938,19.0781 389.3063,20.1406 Q388.6188,21.2344 388.6188,23.3125 Q388.6188,25.4063 389.3063,26.4688 Q389.9938,27.5469 391.3219,27.5469 Q391.9625,27.5469 392.5563,27.2656 Q392.8531,27.1406 393.1344,26.9531 Q393.4313,26.75 393.775,26.4219 L393.775,29.1406 Q393.1969,29.4375 392.5563,29.5938 Q391.9156,29.7344 391.1969,29.7344 Z " fill="#000000"/><text fill="#000000" font-family="sans-serif" font-size="14" lengthAdjust="spacing" textLength="72" x="405.4" y="28.432">MediaType</text><line style="stroke:#181818;stroke-width:0.5;" x1="377.4" x2="479.4" y1="39" y2="39"/><line style="stroke:#181818;stroke-width:0.5;" x1="377.4" x2="479.4" y1="47" y2="47"/></g><!--link Element to Annotation--><g id="link_Element_Annotation"><path codeLine="19" d="M134.06,55.19 C138.15,66.15 143.39,80.17 149.1,95.48 " fill="none" id="Element-to-Annotation" style="stroke:#181818;stroke-width:1.0;"/><polygon fill="none" points="155.58,92.82,156.02,114.01,142.47,97.72,155.58,92.82" style="stroke:#181818;stroke-width:1.0;"/></g><!--reverse link Element to Annotation--><g id="link_Element_Annotation"><path codeLine="22" d="M112.27,60.55 C79.86,134.31 6,325.5 111.4,325.5 " fill="none" id="Element-backto-Annotation" style="stroke:#181818;stroke-width:1.0;"/><polygon fill="#181818" points="114.1,56.41,106.8106,63.0331,112.0839,60.9855,114.1315,66.2588,114.1,56.41" style="stroke:#181818;stroke-width:1.0;"/></g><!--reverse link AnnotationType to Annotation--><g id="link_AnnotationType_Annotation"><path codeLine="20" d="M279.98,61.34 C295.57,124.67 326.45,268.5 285.4,268.5 " fill="none" id="AnnotationType-backto-Annotation" style="stroke:#181818;stroke-width:1.0;"/><polygon fill="#181818" points="278.8,56.58,277.0754,66.2767,279.9992,61.4341,284.8419,64.3579,278.8,56.58" style="stroke:#181818;stroke-width:1.0;"/></g><!--reverse link MediaType to Annotation--><g id="link_MediaType_Annotation"><path codeLine="21" d="M372.34,58.55 C349.51,72.22 325.09,91.09 310.4,115 C290.13,148 324.13,287.5 285.4,287.5 " fill="none" id="MediaType-backto-Annotation" style="stroke:#181818;stroke-width:1.0;"/><polygon fill="#181818" points="376.49,56.12,366.7027,57.2199,372.1763,58.6482,370.7479,64.1218,376.49,56.12" style="stroke:#181818;stroke-width:1.0;"/></g><!--SRC=[dP1DJiGm38NtEOMLVSk-gYgDW0KBD8lX0cxg6O8QfqfSYGguEqaxFq683Tavx_cp_So8CSAEsGkAzGmVggx1aU20Wb3N2j9xuYZ8Oh6tevK56hZtR089hV9Xxatcx8z9UHp94SigC3fANpTyXa_1JnJ4KhpWyQg_BDE6D9ubKQvrcYyhD-7Uuz142PPFcpJtRsH4VQb48GZsz2hWZ-NKjkyEitCOblQkxzIE8MsRTqW7Enm8B4EWSKj0F7Wcy06S3mIqtHFhJ7cWQ8ATikz2AhApCPtoBxGY7Y2lh_GvFmrLzTc1lk6rAeeSZ8Qsgaf7q_nCCdKyqs3n3tEHiIxc_lAT0zRV]--></g></svg>