<?xml version="1.0" encoding="us-ascii" standalone="no"?><svg xmlns="http://www.w3.org/2000/svg" xmlns:xlink="http://www.w3.org/1999/xlink" contentStyleType="text/css" height="395px" preserveAspectRatio="none" style="width:899px;height:395px;background:#FFFFFF;" version="1.1" viewBox="0 0 899 395" width="899px" zoomAndPan="magnify"><defs/><g><!--class Annotation--><g id="elem_Annotation"><rect codeLine="1" fill="#F1F1F1" height="219.6113" id="Annotation" rx="2.5" ry="2.5" style="stroke:#181818;stroke-width:0.5;" width="172" x="451.5" y="169"/><ellipse cx="496.25" cy="185" fill="#ADD1B2" rx="11" ry="11" style="stroke:#181818;stroke-width:1.0;"/><path d="M496.0469,191.7344 Q493.5625,191.7344 492.2344,190.0938 Q490.9219,188.4219 490.9219,185.3125 Q490.9219,182.1875 492.2344,180.5313 Q493.5625,178.875 496.0469,178.875 Q496.7656,178.875 497.4219,179.0313 Q498.0625,179.1875 498.625,179.4844 L498.625,182.2031 Q498.2656,181.8594 497.9688,181.6719 Q497.6719,181.4688 497.4063,181.3438 Q497.0938,181.2031 496.7813,181.1406 Q496.4844,181.0781 496.1719,181.0781 Q494.8438,181.0781 494.1563,182.1406 Q493.4688,183.2344 493.4688,185.3125 Q493.4688,187.4063 494.1563,188.4688 Q494.8438,189.5469 496.1719,189.5469 Q496.8125,189.5469 497.4063,189.2656 Q497.7031,189.1406 497.9844,188.9531 Q498.2813,188.75 498.625,188.4219 L498.625,191.1406 Q498.0469,191.4375 497.4063,191.5938 Q496.7656,191.7344 496.0469,191.7344 Z " fill="#000000"/><text fill="#000000" font-family="sans-serif" font-size="14" lengthAdjust="spacing" textLength="74" x="516.75" y="190.432">Annotation</text><line style="stroke:#181818;stroke-width:0.5;" x1="452.5" x2="622.5" y1="201" y2="201"/><text fill="#000000" font-family="sans-serif" font-size="14" lengthAdjust="spacing" textLength="160" x="457.5" y="243.0339">Instantiability : Concrete</text><text fill="#000000" font-family="sans-serif" font-size="14" lengthAdjust="spacing" textLength="137" x="457.5" y="262.1018">SubclassOf : Element</text><text fill="#000000" font-family="sans-serif" font-size="14" lengthAdjust="spacing" textLength="122" x="457.5" y="281.1697">name : Annotation</text><line style="stroke:#181818;stroke-width:1.0;stroke-dasharray:1.0,2.0;" x1="452.5" x2="505" y1="218.534" y2="218.534"/><text fill="#000000" font-family="sans-serif" font-size="14" lengthAdjust="spacing" textLength="65" x="505" y="223.4659">metadata</text><line style="stroke:#181818;stroke-width:1.0;stroke-dasharray:1.0,2.0;" x1="570" x2="622.5" y1="218.534" y2="218.534"/><text fill="#000000" font-family="sans-serif" font-size="14" lengthAdjust="spacing" textLength="105" x="457.5" y="323.3055">annotationType</text><text fill="#000000" font-family="sans-serif" font-size="14" lengthAdjust="spacing" textLength="84" x="457.5" y="342.3734">contentType</text><text fill="#000000" font-family="sans-serif" font-size="14" lengthAdjust="spacing" textLength="143" x="457.5" y="361.4414">statement : xsd:string</text><text fill="#000000" font-family="sans-serif" font-size="14" lengthAdjust="spacing" textLength="48" x="457.5" y="380.5093">subject</text><line style="stroke:#181818;stroke-width:1.0;stroke-dasharray:1.0,2.0;" x1="452.5" x2="504" y1="298.8056" y2="298.8056"/><text fill="#000000" font-family="sans-serif" font-size="14" lengthAdjust="spacing" textLength="67" x="504" y="303.7376">properties</text><line style="stroke:#181818;stroke-width:1.0;stroke-dasharray:1.0,2.0;" x1="571" x2="622.5" y1="298.8056" y2="298.8056"/></g><g id="elem_GMN3"><path d="M6,6 L6,104.5301 A0,0 0 0 0 6,104.5301 L295.81,104.5301 L443.76,209.57 L303.81,104.5301 L459,104.5301 A0,0 0 0 0 459,104.5301 L459,16 L449,6 L6,6 A0,0 0 0 0 6,6 " fill="#FEFFDD" style="stroke:#181818;stroke-width:0.5;"/><path d="M449,6 L449,16 L459,16 L449,6 " fill="#FEFFDD" style="stroke:#181818;stroke-width:0.5;"/><text fill="#000000" font-family="sans-serif" font-size="13" font-weight="bold" lengthAdjust="spacing" textLength="62" x="12" y="24.897">Summary</text><text fill="#000000" font-family="sans-serif" font-size="13" lengthAdjust="spacing" textLength="332" x="12" y="42.603">An assertion made in relation to one or more elements.</text><text fill="#000000" font-family="sans-serif" font-size="13" font-weight="bold" lengthAdjust="spacing" textLength="81" x="12" y="60.309">Description</text><text fill="#000000" font-family="sans-serif" font-size="13" lengthAdjust="spacing" textLength="432" x="12" y="78.0151">An Annotation is an assertion made in relation to one or more elements.</text><text fill="#000000" font-family="sans-serif" font-size="13" lengthAdjust="spacing" textLength="3" x="12" y="95.7211">&#160;</text></g><!--class Element--><g id="elem_Element"><rect fill="#F1F1F1" height="48" id="Element" rx="2.5" ry="2.5" style="stroke:#181818;stroke-width:0.5;" width="86" x="494.5" y="31.5"/><ellipse cx="509.5" cy="47.5" fill="#ADD1B2" rx="11" ry="11" style="stroke:#181818;stroke-width:1.0;"/><path d="M509.2969,54.2344 Q506.8125,54.2344 505.4844,52.5938 Q504.1719,50.9219 504.1719,47.8125 Q504.1719,44.6875 505.4844,43.0313 Q506.8125,41.375 509.2969,41.375 Q510.0156,41.375 510.6719,41.5313 Q511.3125,41.6875 511.875,41.9844 L511.875,44.7031 Q511.5156,44.3594 511.2188,44.1719 Q510.9219,43.9688 510.6563,43.8438 Q510.3438,43.7031 510.0313,43.6406 Q509.7344,43.5781 509.4219,43.5781 Q508.0938,43.5781 507.4063,44.6406 Q506.7188,45.7344 506.7188,47.8125 Q506.7188,49.9063 507.4063,50.9688 Q508.0938,52.0469 509.4219,52.0469 Q510.0625,52.0469 510.6563,51.7656 Q510.9531,51.6406 511.2344,51.4531 Q511.5313,51.25 511.875,50.9219 L511.875,53.6406 Q511.2969,53.9375 510.6563,54.0938 Q510.0156,54.2344 509.2969,54.2344 Z " fill="#000000"/><text fill="#000000" font-family="sans-serif" font-size="14" lengthAdjust="spacing" textLength="54" x="523.5" y="52.932">Element</text><line style="stroke:#181818;stroke-width:0.5;" x1="495.5" x2="579.5" y1="63.5" y2="63.5"/><line style="stroke:#181818;stroke-width:0.5;" x1="495.5" x2="579.5" y1="71.5" y2="71.5"/></g><!--class AnnotationType--><g id="elem_AnnotationType"><rect fill="#F1F1F1" height="48" id="AnnotationType" rx="2.5" ry="2.5" style="stroke:#181818;stroke-width:0.5;" width="138" x="615.5" y="31.5"/><ellipse cx="630.5" cy="47.5" fill="#ADD1B2" rx="11" ry="11" style="stroke:#181818;stroke-width:1.0;"/><path d="M630.2969,54.2344 Q627.8125,54.2344 626.4844,52.5938 Q625.1719,50.9219 625.1719,47.8125 Q625.1719,44.6875 626.4844,43.0313 Q627.8125,41.375 630.2969,41.375 Q631.0156,41.375 631.6719,41.5313 Q632.3125,41.6875 632.875,41.9844 L632.875,44.7031 Q632.5156,44.3594 632.2188,44.1719 Q631.9219,43.9688 631.6563,43.8438 Q631.3438,43.7031 631.0313,43.6406 Q630.7344,43.5781 630.4219,43.5781 Q629.0938,43.5781 628.4063,44.6406 Q627.7188,45.7344 627.7188,47.8125 Q627.7188,49.9063 628.4063,50.9688 Q629.0938,52.0469 630.4219,52.0469 Q631.0625,52.0469 631.6563,51.7656 Q631.9531,51.6406 632.2344,51.4531 Q632.5313,51.25 632.875,50.9219 L632.875,53.6406 Q632.2969,53.9375 631.6563,54.0938 Q631.0156,54.2344 630.2969,54.2344 Z " fill="#000000"/><text fill="#000000" font-family="sans-serif" font-size="14" lengthAdjust="spacing" textLength="106" x="644.5" y="52.932">AnnotationType</text><line style="stroke:#181818;stroke-width:0.5;" x1="616.5" x2="752.5" y1="63.5" y2="63.5"/><line style="stroke:#181818;stroke-width:0.5;" x1="616.5" x2="752.5" y1="71.5" y2="71.5"/></g><!--class MediaType--><g id="elem_MediaType"><rect fill="#F1F1F1" height="48" id="MediaType" rx="2.5" ry="2.5" style="stroke:#181818;stroke-width:0.5;" width="104" x="788.5" y="31.5"/><ellipse cx="803.5" cy="47.5" fill="#ADD1B2" rx="11" ry="11" style="stroke:#181818;stroke-width:1.0;"/><path d="M803.2969,54.2344 Q800.8125,54.2344 799.4844,52.5938 Q798.1719,50.9219 798.1719,47.8125 Q798.1719,44.6875 799.4844,43.0313 Q800.8125,41.375 803.2969,41.375 Q804.0156,41.375 804.6719,41.5313 Q805.3125,41.6875 805.875,41.9844 L805.875,44.7031 Q805.5156,44.3594 805.2188,44.1719 Q804.9219,43.9688 804.6563,43.8438 Q804.3438,43.7031 804.0313,43.6406 Q803.7344,43.5781 803.4219,43.5781 Q802.0938,43.5781 801.4063,44.6406 Q800.7188,45.7344 800.7188,47.8125 Q800.7188,49.9063 801.4063,50.9688 Q802.0938,52.0469 803.4219,52.0469 Q804.0625,52.0469 804.6563,51.7656 Q804.9531,51.6406 805.2344,51.4531 Q805.5313,51.25 805.875,50.9219 L805.875,53.6406 Q805.2969,53.9375 804.6563,54.0938 Q804.0156,54.2344 803.2969,54.2344 Z " fill="#000000"/><text fill="#000000" font-family="sans-serif" font-size="14" lengthAdjust="spacing" textLength="72" x="817.5" y="52.932">MediaType</text><line style="stroke:#181818;stroke-width:0.5;" x1="789.5" x2="891.5" y1="63.5" y2="63.5"/><line style="stroke:#181818;stroke-width:0.5;" x1="789.5" x2="891.5" y1="71.5" y2="71.5"/></g><!--reverse link Element to Annotation--><g id="link_Element_Annotation"><path codeLine="19" d="M537.5,101 C537.5,119.7 537.5,142.39 537.5,165.17 " fill="none" id="Element-backto-Annotation" style="stroke:#181818;stroke-width:1.0;"/><polygon fill="none" points="530.5,101.25,537.5,81.25,544.5,101.25,530.5,101.25" style="stroke:#181818;stroke-width:1.0;"/></g><!--reverse link Element to Annotation--><g id="link_Element_Annotation"><path codeLine="22" d="M568.24,84.23 C588.2,104.4 612.48,133.58 623.5,165 C654.48,253.28 718.06,375.5 624.5,375.5 " fill="none" id="Element-backto-Annotation-1" style="stroke:#181818;stroke-width:1.0;"/><polygon fill="#181818" points="564.87,80.87,568.4241,90.0552,568.4127,84.3984,574.0695,84.387,564.87,80.87" style="stroke:#181818;stroke-width:1.0;"/></g><!--reverse link AnnotationType to Annotation--><g id="link_AnnotationType_Annotation"><path codeLine="20" d="M690.12,86.08 C701.54,154.62 718.98,318.5 624.5,318.5 " fill="none" id="AnnotationType-backto-Annotation" style="stroke:#181818;stroke-width:1.0;"/><polygon fill="#181818" points="689.29,81.24,686.8643,90.7855,690.1328,86.1685,694.7499,89.4369,689.29,81.24" style="stroke:#181818;stroke-width:1.0;"/></g><!--reverse link MediaType to Annotation--><g id="link_MediaType_Annotation"><path codeLine="21" d="M833.02,86.22 C812.86,158.48 750.23,337.5 624.5,337.5 " fill="none" id="MediaType-backto-Annotation" style="stroke:#181818;stroke-width:1.0;"/><polygon fill="#181818" points="834.33,81.43,828.0857,89.0464,833.0036,86.2508,835.7991,91.1687,834.33,81.43" style="stroke:#181818;stroke-width:1.0;"/></g><!--SRC=[dP2zRiCm38HtFGMXFUvk6062jaE7eaFo0hJC52eiof1ee4RQTozbvySfqANQf3jzv9thCMVOCKT1yP7XPAeA0WbsA0XLPK3F2sT15e-jxxrCKCDZP9T8Q9RtO-iAv-seodDFWLXcWJ6GFjtm1JwaE50IJ_c2nwj-c8O5wIABKgvtdIypLt6VkQkp9C_lYpIs7-J4V1kb44WS81xNCvjsknz3m3Gr3-tMx1XqrxA1nWtO4NY6HFsINo949eW9Gam4jAJ9LQ4yKNR93yLt8QsQyrc3_0jjY3ieonjxRiz2yxNPWBtXhLbTIYrgkNVKzNsF-kELEez_c5SDs_NStxvplVO7]--></g></svg>