<?xml version="1.0" encoding="us-ascii" standalone="no"?><svg xmlns="http://www.w3.org/2000/svg" xmlns:xlink="http://www.w3.org/1999/xlink" contentStyleType="text/css" height="504px" preserveAspectRatio="none" style="width:871px;height:504px;background:#FFFFFF;" version="1.1" viewBox="0 0 871 504" width="871px" zoomAndPan="magnify"><defs/><g><!--class Annotation--><g id="elem_Annotation"><rect codeLine="1" fill="#F1F1F1" height="219.6113" id="Annotation" rx="2.5" ry="2.5" style="stroke:#181818;stroke-width:0.5;" width="172" x="497.5" y="278"/><ellipse cx="542.25" cy="294" fill="#ADD1B2" rx="11" ry="11" style="stroke:#181818;stroke-width:1.0;"/><path d="M542.0469,300.7344 Q539.5625,300.7344 538.2344,299.0938 Q536.9219,297.4219 536.9219,294.3125 Q536.9219,291.1875 538.2344,289.5313 Q539.5625,287.875 542.0469,287.875 Q542.7656,287.875 543.4219,288.0313 Q544.0625,288.1875 544.625,288.4844 L544.625,291.2031 Q544.2656,290.8594 543.9688,290.6719 Q543.6719,290.4688 543.4063,290.3438 Q543.0938,290.2031 542.7813,290.1406 Q542.4844,290.0781 542.1719,290.0781 Q540.8438,290.0781 540.1563,291.1406 Q539.4688,292.2344 539.4688,294.3125 Q539.4688,296.4063 540.1563,297.4688 Q540.8438,298.5469 542.1719,298.5469 Q542.8125,298.5469 543.4063,298.2656 Q543.7031,298.1406 543.9844,297.9531 Q544.2813,297.75 544.625,297.4219 L544.625,300.1406 Q544.0469,300.4375 543.4063,300.5938 Q542.7656,300.7344 542.0469,300.7344 Z " fill="#000000"/><text fill="#000000" font-family="sans-serif" font-size="14" lengthAdjust="spacing" textLength="74" x="562.75" y="299.432">Annotation</text><line style="stroke:#181818;stroke-width:0.5;" x1="498.5" x2="668.5" y1="310" y2="310"/><text fill="#000000" font-family="sans-serif" font-size="14" lengthAdjust="spacing" textLength="160" x="503.5" y="352.0339">Instantiability : Concrete</text><text fill="#000000" font-family="sans-serif" font-size="14" lengthAdjust="spacing" textLength="137" x="503.5" y="371.1018">SubclassOf : Element</text><text fill="#000000" font-family="sans-serif" font-size="14" lengthAdjust="spacing" textLength="122" x="503.5" y="390.1697">name : Annotation</text><line style="stroke:#181818;stroke-width:1.0;stroke-dasharray:1.0,2.0;" x1="498.5" x2="551" y1="327.534" y2="327.534"/><text fill="#000000" font-family="sans-serif" font-size="14" lengthAdjust="spacing" textLength="65" x="551" y="332.4659">metadata</text><line style="stroke:#181818;stroke-width:1.0;stroke-dasharray:1.0,2.0;" x1="616" x2="668.5" y1="327.534" y2="327.534"/><text fill="#000000" font-family="sans-serif" font-size="14" lengthAdjust="spacing" textLength="105" x="503.5" y="432.3055">annotationType</text><text fill="#000000" font-family="sans-serif" font-size="14" lengthAdjust="spacing" textLength="84" x="503.5" y="451.3734">contentType</text><text fill="#000000" font-family="sans-serif" font-size="14" lengthAdjust="spacing" textLength="143" x="503.5" y="470.4414">statement : xsd:string</text><text fill="#000000" font-family="sans-serif" font-size="14" lengthAdjust="spacing" textLength="48" x="503.5" y="489.5093">subject</text><line style="stroke:#181818;stroke-width:1.0;stroke-dasharray:1.0,2.0;" x1="498.5" x2="550" y1="407.8056" y2="407.8056"/><text fill="#000000" font-family="sans-serif" font-size="14" lengthAdjust="spacing" textLength="67" x="550" y="412.7376">properties</text><line style="stroke:#181818;stroke-width:1.0;stroke-dasharray:1.0,2.0;" x1="617" x2="668.5" y1="407.8056" y2="407.8056"/></g><g id="elem_GMN3"><path d="M6,115 L6,213.5301 A0,0 0 0 0 6,213.5301 L305.96,213.5301 L489.69,327.44 L313.96,213.5301 L459,213.5301 A0,0 0 0 0 459,213.5301 L459,125 L449,115 L6,115 A0,0 0 0 0 6,115 " fill="#FEFFDD" style="stroke:#181818;stroke-width:0.5;"/><path d="M449,115 L449,125 L459,125 L449,115 " fill="#FEFFDD" style="stroke:#181818;stroke-width:0.5;"/><text fill="#000000" font-family="sans-serif" font-size="13" font-weight="bold" lengthAdjust="spacing" textLength="62" x="12" y="133.897">Summary</text><text fill="#000000" font-family="sans-serif" font-size="13" lengthAdjust="spacing" textLength="332" x="12" y="151.603">An assertion made in relation to one or more elements.</text><text fill="#000000" font-family="sans-serif" font-size="13" font-weight="bold" lengthAdjust="spacing" textLength="81" x="12" y="169.309">Description</text><text fill="#000000" font-family="sans-serif" font-size="13" lengthAdjust="spacing" textLength="432" x="12" y="187.0151">An Annotation is an assertion made in relation to one or more elements.</text><text fill="#000000" font-family="sans-serif" font-size="13" lengthAdjust="spacing" textLength="3" x="12" y="204.7211">&#160;</text></g><!--class Element--><g id="elem_Element"><rect fill="#F1F1F1" height="48" id="Element" rx="2.5" ry="2.5" style="stroke:#181818;stroke-width:0.5;" width="86" x="466.5" y="7"/><ellipse cx="481.5" cy="23" fill="#ADD1B2" rx="11" ry="11" style="stroke:#181818;stroke-width:1.0;"/><path d="M481.2969,29.7344 Q478.8125,29.7344 477.4844,28.0938 Q476.1719,26.4219 476.1719,23.3125 Q476.1719,20.1875 477.4844,18.5313 Q478.8125,16.875 481.2969,16.875 Q482.0156,16.875 482.6719,17.0313 Q483.3125,17.1875 483.875,17.4844 L483.875,20.2031 Q483.5156,19.8594 483.2188,19.6719 Q482.9219,19.4688 482.6563,19.3438 Q482.3438,19.2031 482.0313,19.1406 Q481.7344,19.0781 481.4219,19.0781 Q480.0938,19.0781 479.4063,20.1406 Q478.7188,21.2344 478.7188,23.3125 Q478.7188,25.4063 479.4063,26.4688 Q480.0938,27.5469 481.4219,27.5469 Q482.0625,27.5469 482.6563,27.2656 Q482.9531,27.1406 483.2344,26.9531 Q483.5313,26.75 483.875,26.4219 L483.875,29.1406 Q483.2969,29.4375 482.6563,29.5938 Q482.0156,29.7344 481.2969,29.7344 Z " fill="#000000"/><text fill="#000000" font-family="sans-serif" font-size="14" lengthAdjust="spacing" textLength="54" x="495.5" y="28.432">Element</text><line style="stroke:#181818;stroke-width:0.5;" x1="467.5" x2="551.5" y1="39" y2="39"/><line style="stroke:#181818;stroke-width:0.5;" x1="467.5" x2="551.5" y1="47" y2="47"/></g><!--class AnnotationType--><g id="elem_AnnotationType"><rect fill="#F1F1F1" height="48" id="AnnotationType" rx="2.5" ry="2.5" style="stroke:#181818;stroke-width:0.5;" width="138" x="587.5" y="7"/><ellipse cx="602.5" cy="23" fill="#ADD1B2" rx="11" ry="11" style="stroke:#181818;stroke-width:1.0;"/><path d="M602.2969,29.7344 Q599.8125,29.7344 598.4844,28.0938 Q597.1719,26.4219 597.1719,23.3125 Q597.1719,20.1875 598.4844,18.5313 Q599.8125,16.875 602.2969,16.875 Q603.0156,16.875 603.6719,17.0313 Q604.3125,17.1875 604.875,17.4844 L604.875,20.2031 Q604.5156,19.8594 604.2188,19.6719 Q603.9219,19.4688 603.6563,19.3438 Q603.3438,19.2031 603.0313,19.1406 Q602.7344,19.0781 602.4219,19.0781 Q601.0938,19.0781 600.4063,20.1406 Q599.7188,21.2344 599.7188,23.3125 Q599.7188,25.4063 600.4063,26.4688 Q601.0938,27.5469 602.4219,27.5469 Q603.0625,27.5469 603.6563,27.2656 Q603.9531,27.1406 604.2344,26.9531 Q604.5313,26.75 604.875,26.4219 L604.875,29.1406 Q604.2969,29.4375 603.6563,29.5938 Q603.0156,29.7344 602.2969,29.7344 Z " fill="#000000"/><text fill="#000000" font-family="sans-serif" font-size="14" lengthAdjust="spacing" textLength="106" x="616.5" y="28.432">AnnotationType</text><line style="stroke:#181818;stroke-width:0.5;" x1="588.5" x2="724.5" y1="39" y2="39"/><line style="stroke:#181818;stroke-width:0.5;" x1="588.5" x2="724.5" y1="47" y2="47"/></g><!--class MediaType--><g id="elem_MediaType"><rect fill="#F1F1F1" height="48" id="MediaType" rx="2.5" ry="2.5" style="stroke:#181818;stroke-width:0.5;" width="104" x="760.5" y="7"/><ellipse cx="775.5" cy="23" fill="#ADD1B2" rx="11" ry="11" style="stroke:#181818;stroke-width:1.0;"/><path d="M775.2969,29.7344 Q772.8125,29.7344 771.4844,28.0938 Q770.1719,26.4219 770.1719,23.3125 Q770.1719,20.1875 771.4844,18.5313 Q772.8125,16.875 775.2969,16.875 Q776.0156,16.875 776.6719,17.0313 Q777.3125,17.1875 777.875,17.4844 L777.875,20.2031 Q777.5156,19.8594 777.2188,19.6719 Q776.9219,19.4688 776.6563,19.3438 Q776.3438,19.2031 776.0313,19.1406 Q775.7344,19.0781 775.4219,19.0781 Q774.0938,19.0781 773.4063,20.1406 Q772.7188,21.2344 772.7188,23.3125 Q772.7188,25.4063 773.4063,26.4688 Q774.0938,27.5469 775.4219,27.5469 Q776.0625,27.5469 776.6563,27.2656 Q776.9531,27.1406 777.2344,26.9531 Q777.5313,26.75 777.875,26.4219 L777.875,29.1406 Q777.2969,29.4375 776.6563,29.5938 Q776.0156,29.7344 775.2969,29.7344 Z " fill="#000000"/><text fill="#000000" font-family="sans-serif" font-size="14" lengthAdjust="spacing" textLength="72" x="789.5" y="28.432">MediaType</text><line style="stroke:#181818;stroke-width:0.5;" x1="761.5" x2="863.5" y1="39" y2="39"/><line style="stroke:#181818;stroke-width:0.5;" x1="761.5" x2="863.5" y1="47" y2="47"/></g><!--reverse link Element to Annotation--><g id="link_Element_Annotation"><path codeLine="19" d="M518.7,76.05 C528.99,125.35 546.06,207.13 560.1,274.38 " fill="none" id="Element-backto-Annotation" style="stroke:#181818;stroke-width:4.0;"/><polygon fill="none" points="511.9,77.75,514.66,56.74,525.6,74.89,511.9,77.75" style="stroke:#181818;stroke-width:4.0;"/></g><!--reverse link Element to Annotation--><g id="link_Element_Annotation"><path codeLine="22" d="M532.31,60.48 C610.24,159.76 851.33,484.5 670.5,484.5 " fill="none" id="Element-backto-Annotation-1" style="stroke:#181818;stroke-width:1.0;"/><polygon fill="#181818" points="529.22,56.56,531.655,66.1031,532.3173,60.4851,537.9352,61.1474,529.22,56.56" style="stroke:#181818;stroke-width:1.0;"/></g><!--reverse link AnnotationType to Annotation--><g id="link_AnnotationType_Annotation"><path codeLine="20" d="M669.62,61 C709.41,152.26 817.23,427.5 670.5,427.5 " fill="none" id="AnnotationType-backto-Annotation" style="stroke:#181818;stroke-width:1.0;"/><polygon fill="#181818" points="667.71,56.65,667.6415,66.4986,669.7088,61.2331,674.9744,63.3005,667.71,56.65" style="stroke:#181818;stroke-width:1.0;"/></g><!--reverse link MediaType to Annotation--><g id="link_MediaType_Annotation"><path codeLine="21" d="M815.42,61.7 C823.13,156.63 833.35,446.5 670.5,446.5 " fill="none" id="MediaType-backto-Annotation" style="stroke:#181818;stroke-width:1.0;"/><polygon fill="#181818" points="815.03,56.98,811.789,66.2803,815.444,61.9628,819.7615,65.6179,815.03,56.98" style="stroke:#181818;stroke-width:1.0;"/></g><!--SRC=[dP2zJiGm48HxFyKgVK935OMJJa11WIYE3b5id3qmnEl8taX4mBkpljnFJeW6T_QClvqTssDAi6OEWk82mwUfAl0asA4WL9K1FNUS15aSjgvtCa4Dru5j9A6Tl1bRcpaFMrLkU_B4iXCOFUdJ2P_XGmm3HN6K3dWywe_JC2DjO57AyQxpPSTLt4VgwYJHySiiZUqRMJ7VHYa44WO8s-NCfbrjHkynJir5kp9h1isQ4-Yw7Zi2nn2fd_UN0849GWGV8W7DswGgKsuesUY6x3kG5isvf8ly2ss8EyZXJR5lhu3cgtoILsVVcLAwkdmkeJZDAipYaZjIVrcUMUhwl5NzSa-Tmx_SYyABPOnVndtTnGy0]--></g></svg>