<?xml version="1.0" encoding="us-ascii" standalone="no"?><svg xmlns="http://www.w3.org/2000/svg" xmlns:xlink="http://www.w3.org/1999/xlink" contentStyleType="text/css" height="376px" preserveAspectRatio="none" style="width:760px;height:376px;background:#FFFFFF;" version="1.1" viewBox="0 0 760 376" width="760px" zoomAndPan="magnify"><defs/><g><!--class AnonymousPayload--><g id="elem_AnonymousPayload"><rect codeLine="1" fill="#F1F1F1" height="200.5433" id="AnonymousPayload" rx="2.5" ry="2.5" style="stroke:#181818;stroke-width:0.5;" width="190" x="251" y="169"/><ellipse cx="278.6" cy="185" fill="#ADD1B2" rx="11" ry="11" style="stroke:#181818;stroke-width:1.0;"/><path d="M278.3969,191.7344 Q275.9125,191.7344 274.5844,190.0938 Q273.2719,188.4219 273.2719,185.3125 Q273.2719,182.1875 274.5844,180.5313 Q275.9125,178.875 278.3969,178.875 Q279.1156,178.875 279.7719,179.0313 Q280.4125,179.1875 280.975,179.4844 L280.975,182.2031 Q280.6156,181.8594 280.3188,181.6719 Q280.0219,181.4688 279.7563,181.3438 Q279.4438,181.2031 279.1313,181.1406 Q278.8344,181.0781 278.5219,181.0781 Q277.1938,181.0781 276.5063,182.1406 Q275.8188,183.2344 275.8188,185.3125 Q275.8188,187.4063 276.5063,188.4688 Q277.1938,189.5469 278.5219,189.5469 Q279.1625,189.5469 279.7563,189.2656 Q280.0531,189.1406 280.3344,188.9531 Q280.6313,188.75 280.975,188.4219 L280.975,191.1406 Q280.3969,191.4375 279.7563,191.5938 Q279.1156,191.7344 278.3969,191.7344 Z " fill="#000000"/><text fill="#000000" font-family="sans-serif" font-size="14" lengthAdjust="spacing" textLength="130" x="295.4" y="190.432">AnonymousPayload</text><line style="stroke:#181818;stroke-width:0.5;" x1="252" x2="440" y1="201" y2="201"/><text fill="#000000" font-family="sans-serif" font-size="14" lengthAdjust="spacing" textLength="160" x="257" y="243.0339">Instantiability : Concrete</text><text fill="#000000" font-family="sans-serif" font-size="14" lengthAdjust="spacing" textLength="135" x="257" y="262.1018">SubclassOf : Payload</text><text fill="#000000" font-family="sans-serif" font-size="14" lengthAdjust="spacing" textLength="178" x="257" y="281.1697">name : AnonymousPayload</text><line style="stroke:#181818;stroke-width:1.0;stroke-dasharray:1.0,2.0;" x1="252" x2="313.5" y1="218.534" y2="218.534"/><text fill="#000000" font-family="sans-serif" font-size="14" lengthAdjust="spacing" textLength="65" x="313.5" y="223.4659">metadata</text><line style="stroke:#181818;stroke-width:1.0;stroke-dasharray:1.0,2.0;" x1="378.5" x2="440" y1="218.534" y2="218.534"/><text fill="#000000" font-family="sans-serif" font-size="14" lengthAdjust="spacing" textLength="81" x="257" y="323.3055">creationInfo</text><text fill="#000000" font-family="sans-serif" font-size="14" lengthAdjust="spacing" textLength="51" x="257" y="342.3734">imports</text><text fill="#000000" font-family="sans-serif" font-size="14" lengthAdjust="spacing" textLength="82" x="257" y="361.4414">namespaces</text><line style="stroke:#181818;stroke-width:1.0;stroke-dasharray:1.0,2.0;" x1="252" x2="312.5" y1="298.8056" y2="298.8056"/><text fill="#000000" font-family="sans-serif" font-size="14" lengthAdjust="spacing" textLength="67" x="312.5" y="303.7376">properties</text><line style="stroke:#181818;stroke-width:1.0;stroke-dasharray:1.0,2.0;" x1="379.5" x2="440" y1="298.8056" y2="298.8056"/></g><g id="elem_GMN3"><path d="M6,6 L6,104.5301 A0,0 0 0 0 6,104.5301 L108,104.5301 A0,0 0 0 0 108,104.5301 L108,98.07 L243.08,192.68 L108,90.07 L108,16 L98,6 L6,6 A0,0 0 0 0 6,6 " fill="#FEFFDD" style="stroke:#181818;stroke-width:0.5;"/><path d="M98,6 L98,16 L108,16 L98,6 " fill="#FEFFDD" style="stroke:#181818;stroke-width:0.5;"/><text fill="#000000" font-family="sans-serif" font-size="13" font-weight="bold" lengthAdjust="spacing" textLength="62" x="12" y="24.897">Summary</text><text fill="#000000" font-family="sans-serif" font-size="13" lengthAdjust="spacing" textLength="38" x="12" y="42.603">TODO</text><text fill="#000000" font-family="sans-serif" font-size="13" font-weight="bold" lengthAdjust="spacing" textLength="81" x="12" y="60.309">Description</text><text fill="#000000" font-family="sans-serif" font-size="13" lengthAdjust="spacing" textLength="38" x="12" y="78.0151">TODO</text><text fill="#000000" font-family="sans-serif" font-size="13" lengthAdjust="spacing" textLength="3" x="12" y="95.7211">&#160;</text></g><!--class Payload--><g id="elem_Payload"><rect fill="#F1F1F1" height="48" id="Payload" rx="2.5" ry="2.5" style="stroke:#181818;stroke-width:0.5;" width="84" x="143" y="31.5"/><ellipse cx="158" cy="47.5" fill="#ADD1B2" rx="11" ry="11" style="stroke:#181818;stroke-width:1.0;"/><path d="M157.7969,54.2344 Q155.3125,54.2344 153.9844,52.5938 Q152.6719,50.9219 152.6719,47.8125 Q152.6719,44.6875 153.9844,43.0313 Q155.3125,41.375 157.7969,41.375 Q158.5156,41.375 159.1719,41.5313 Q159.8125,41.6875 160.375,41.9844 L160.375,44.7031 Q160.0156,44.3594 159.7188,44.1719 Q159.4219,43.9688 159.1563,43.8438 Q158.8438,43.7031 158.5313,43.6406 Q158.2344,43.5781 157.9219,43.5781 Q156.5938,43.5781 155.9063,44.6406 Q155.2188,45.7344 155.2188,47.8125 Q155.2188,49.9063 155.9063,50.9688 Q156.5938,52.0469 157.9219,52.0469 Q158.5625,52.0469 159.1563,51.7656 Q159.4531,51.6406 159.7344,51.4531 Q160.0313,51.25 160.375,50.9219 L160.375,53.6406 Q159.7969,53.9375 159.1563,54.0938 Q158.5156,54.2344 157.7969,54.2344 Z " fill="#000000"/><text fill="#000000" font-family="sans-serif" font-size="14" lengthAdjust="spacing" textLength="52" x="172" y="52.932">Payload</text><line style="stroke:#181818;stroke-width:0.5;" x1="144" x2="226" y1="63.5" y2="63.5"/><line style="stroke:#181818;stroke-width:0.5;" x1="144" x2="226" y1="71.5" y2="71.5"/></g><!--class CreationInformation--><g id="elem_CreationInformation"><rect fill="#F1F1F1" height="48" id="CreationInformation" rx="2.5" ry="2.5" style="stroke:#181818;stroke-width:0.5;" width="167" x="262.5" y="31.5"/><ellipse cx="277.5" cy="47.5" fill="#ADD1B2" rx="11" ry="11" style="stroke:#181818;stroke-width:1.0;"/><path d="M277.2969,54.2344 Q274.8125,54.2344 273.4844,52.5938 Q272.1719,50.9219 272.1719,47.8125 Q272.1719,44.6875 273.4844,43.0313 Q274.8125,41.375 277.2969,41.375 Q278.0156,41.375 278.6719,41.5313 Q279.3125,41.6875 279.875,41.9844 L279.875,44.7031 Q279.5156,44.3594 279.2188,44.1719 Q278.9219,43.9688 278.6563,43.8438 Q278.3438,43.7031 278.0313,43.6406 Q277.7344,43.5781 277.4219,43.5781 Q276.0938,43.5781 275.4063,44.6406 Q274.7188,45.7344 274.7188,47.8125 Q274.7188,49.9063 275.4063,50.9688 Q276.0938,52.0469 277.4219,52.0469 Q278.0625,52.0469 278.6563,51.7656 Q278.9531,51.6406 279.2344,51.4531 Q279.5313,51.25 279.875,50.9219 L279.875,53.6406 Q279.2969,53.9375 278.6563,54.0938 Q278.0156,54.2344 277.2969,54.2344 Z " fill="#000000"/><text fill="#000000" font-family="sans-serif" font-size="14" lengthAdjust="spacing" textLength="135" x="291.5" y="52.932">CreationInformation</text><line style="stroke:#181818;stroke-width:0.5;" x1="263.5" x2="428.5" y1="63.5" y2="63.5"/><line style="stroke:#181818;stroke-width:0.5;" x1="263.5" x2="428.5" y1="71.5" y2="71.5"/></g><!--class ExternalMap--><g id="elem_ExternalMap"><rect fill="#F1F1F1" height="48" id="ExternalMap" rx="2.5" ry="2.5" style="stroke:#181818;stroke-width:0.5;" width="114" x="465" y="31.5"/><ellipse cx="480" cy="47.5" fill="#ADD1B2" rx="11" ry="11" style="stroke:#181818;stroke-width:1.0;"/><path d="M479.7969,54.2344 Q477.3125,54.2344 475.9844,52.5938 Q474.6719,50.9219 474.6719,47.8125 Q474.6719,44.6875 475.9844,43.0313 Q477.3125,41.375 479.7969,41.375 Q480.5156,41.375 481.1719,41.5313 Q481.8125,41.6875 482.375,41.9844 L482.375,44.7031 Q482.0156,44.3594 481.7188,44.1719 Q481.4219,43.9688 481.1563,43.8438 Q480.8438,43.7031 480.5313,43.6406 Q480.2344,43.5781 479.9219,43.5781 Q478.5938,43.5781 477.9063,44.6406 Q477.2188,45.7344 477.2188,47.8125 Q477.2188,49.9063 477.9063,50.9688 Q478.5938,52.0469 479.9219,52.0469 Q480.5625,52.0469 481.1563,51.7656 Q481.4531,51.6406 481.7344,51.4531 Q482.0313,51.25 482.375,50.9219 L482.375,53.6406 Q481.7969,53.9375 481.1563,54.0938 Q480.5156,54.2344 479.7969,54.2344 Z " fill="#000000"/><text fill="#000000" font-family="sans-serif" font-size="14" lengthAdjust="spacing" textLength="82" x="494" y="52.932">ExternalMap</text><line style="stroke:#181818;stroke-width:0.5;" x1="466" x2="578" y1="63.5" y2="63.5"/><line style="stroke:#181818;stroke-width:0.5;" x1="466" x2="578" y1="71.5" y2="71.5"/></g><!--class NamespaceMap--><g id="elem_NamespaceMap"><rect fill="#F1F1F1" height="48" id="NamespaceMap" rx="2.5" ry="2.5" style="stroke:#181818;stroke-width:0.5;" width="139" x="614.5" y="31.5"/><ellipse cx="629.5" cy="47.5" fill="#ADD1B2" rx="11" ry="11" style="stroke:#181818;stroke-width:1.0;"/><path d="M629.2969,54.2344 Q626.8125,54.2344 625.4844,52.5938 Q624.1719,50.9219 624.1719,47.8125 Q624.1719,44.6875 625.4844,43.0313 Q626.8125,41.375 629.2969,41.375 Q630.0156,41.375 630.6719,41.5313 Q631.3125,41.6875 631.875,41.9844 L631.875,44.7031 Q631.5156,44.3594 631.2188,44.1719 Q630.9219,43.9688 630.6563,43.8438 Q630.3438,43.7031 630.0313,43.6406 Q629.7344,43.5781 629.4219,43.5781 Q628.0938,43.5781 627.4063,44.6406 Q626.7188,45.7344 626.7188,47.8125 Q626.7188,49.9063 627.4063,50.9688 Q628.0938,52.0469 629.4219,52.0469 Q630.0625,52.0469 630.6563,51.7656 Q630.9531,51.6406 631.2344,51.4531 Q631.5313,51.25 631.875,50.9219 L631.875,53.6406 Q631.2969,53.9375 630.6563,54.0938 Q630.0156,54.2344 629.2969,54.2344 Z " fill="#000000"/><text fill="#000000" font-family="sans-serif" font-size="14" lengthAdjust="spacing" textLength="107" x="643.5" y="52.932">NamespaceMap</text><line style="stroke:#181818;stroke-width:0.5;" x1="615.5" x2="752.5" y1="63.5" y2="63.5"/><line style="stroke:#181818;stroke-width:0.5;" x1="615.5" x2="752.5" y1="71.5" y2="71.5"/></g><!--reverse link Payload to AnonymousPayload--><g id="link_Payload_AnonymousPayload"><path codeLine="18" d="M215.83,97 C230.7,116.53 249.27,140.92 267.68,165.12 " fill="none" id="Payload-backto-AnonymousPayload" style="stroke:#181818;stroke-width:1.0;"/><polygon fill="none" points="210.31,101.3,203.76,81.15,221.45,92.82,210.31,101.3" style="stroke:#181818;stroke-width:1.0;"/></g><!--reverse link CreationInformation to AnonymousPayload--><g id="link_CreationInformation_AnonymousPayload"><path codeLine="19" d="M380.05,83.74 C402.02,103.62 428.72,132.66 441,165 C465.14,228.57 510,318 442,318 " fill="none" id="CreationInformation-backto-AnonymousPayload" style="stroke:#181818;stroke-width:1.0;"/><polygon fill="#181818" points="376.57,80.65,380.6371,89.6199,380.3063,83.9727,385.9534,83.6419,376.57,80.65" style="stroke:#181818;stroke-width:1.0;"/></g><!--reverse link ExternalMap to AnonymousPayload--><g id="link_ExternalMap_AnonymousPayload"><path codeLine="20" d="M526.18,86.16 C534.73,158.3 545.47,337 442,337 " fill="none" id="ExternalMap-backto-AnonymousPayload" style="stroke:#181818;stroke-width:1.0;"/><polygon fill="#181818" points="525.6,81.44,522.7372,90.8636,526.2149,86.402,530.6764,89.8798,525.6,81.44" style="stroke:#181818;stroke-width:1.0;"/></g><!--reverse link NamespaceMap to AnonymousPayload--><g id="link_NamespaceMap_AnonymousPayload"><path codeLine="21" d="M675.9,85.56 C652.98,160.77 580.17,356 442,356 " fill="none" id="NamespaceMap-backto-AnonymousPayload" style="stroke:#181818;stroke-width:1.0;"/><polygon fill="#181818" points="677.28,80.95,670.8523,88.4123,675.8367,85.7372,678.5118,90.7215,677.28,80.95" style="stroke:#181818;stroke-width:1.0;"/></g><!--SRC=[VP3DQiCm48JlUef5zxXtOm8bwI67neNq1TRs6WJMhf3MK9FqtIiRfmdfZqvYPlORhTe1Ku9d5fwyZEaDfq6mWxCf2l2asA4Y58M1V0wS55aTDcvmEa49E-4saj9YdyQcdMbrdvqLj1YCdhBqM39NX2Y1eZfArvBCGtN21-vb4PmF4ZLzarB0bfBvD2nAe190-f_igjcUHkynJjLJipNlzRwUjJsbDhem5znqGzp1J3Ds7RTGNJORi8zOQ-pkxdtHBzUS_YrSblUxvD6N3wN8EBnY-7DatJQdZzTT_ulVFiH-0G00]--></g></svg>