<?xml version="1.0" encoding="us-ascii" standalone="no"?><svg xmlns="http://www.w3.org/2000/svg" xmlns:xlink="http://www.w3.org/1999/xlink" contentStyleType="text/css" height="485px" preserveAspectRatio="none" style="width:641px;height:485px;background:#FFFFFF;" version="1.1" viewBox="0 0 641 485" width="641px" zoomAndPan="magnify"><defs/><g><!--class AnonymousPayload--><g id="elem_AnonymousPayload"><rect codeLine="1" fill="#F1F1F1" height="200.5433" id="AnonymousPayload" rx="2.5" ry="2.5" style="stroke:#181818;stroke-width:0.5;" width="190" x="185" y="278"/><ellipse cx="212.6" cy="294" fill="#ADD1B2" rx="11" ry="11" style="stroke:#181818;stroke-width:1.0;"/><path d="M212.3969,300.7344 Q209.9125,300.7344 208.5844,299.0938 Q207.2719,297.4219 207.2719,294.3125 Q207.2719,291.1875 208.5844,289.5313 Q209.9125,287.875 212.3969,287.875 Q213.1156,287.875 213.7719,288.0313 Q214.4125,288.1875 214.975,288.4844 L214.975,291.2031 Q214.6156,290.8594 214.3188,290.6719 Q214.0219,290.4688 213.7563,290.3438 Q213.4438,290.2031 213.1313,290.1406 Q212.8344,290.0781 212.5219,290.0781 Q211.1938,290.0781 210.5063,291.1406 Q209.8188,292.2344 209.8188,294.3125 Q209.8188,296.4063 210.5063,297.4688 Q211.1938,298.5469 212.5219,298.5469 Q213.1625,298.5469 213.7563,298.2656 Q214.0531,298.1406 214.3344,297.9531 Q214.6313,297.75 214.975,297.4219 L214.975,300.1406 Q214.3969,300.4375 213.7563,300.5938 Q213.1156,300.7344 212.3969,300.7344 Z " fill="#000000"/><text fill="#000000" font-family="sans-serif" font-size="14" lengthAdjust="spacing" textLength="130" x="229.4" y="299.432">AnonymousPayload</text><line style="stroke:#181818;stroke-width:0.5;" x1="186" x2="374" y1="310" y2="310"/><text fill="#000000" font-family="sans-serif" font-size="14" lengthAdjust="spacing" textLength="160" x="191" y="352.0339">Instantiability : Concrete</text><text fill="#000000" font-family="sans-serif" font-size="14" lengthAdjust="spacing" textLength="135" x="191" y="371.1018">SubclassOf : Payload</text><text fill="#000000" font-family="sans-serif" font-size="14" lengthAdjust="spacing" textLength="178" x="191" y="390.1697">name : AnonymousPayload</text><line style="stroke:#181818;stroke-width:1.0;stroke-dasharray:1.0,2.0;" x1="186" x2="247.5" y1="327.534" y2="327.534"/><text fill="#000000" font-family="sans-serif" font-size="14" lengthAdjust="spacing" textLength="65" x="247.5" y="332.4659">metadata</text><line style="stroke:#181818;stroke-width:1.0;stroke-dasharray:1.0,2.0;" x1="312.5" x2="374" y1="327.534" y2="327.534"/><text fill="#000000" font-family="sans-serif" font-size="14" lengthAdjust="spacing" textLength="81" x="191" y="432.3055">creationInfo</text><text fill="#000000" font-family="sans-serif" font-size="14" lengthAdjust="spacing" textLength="51" x="191" y="451.3734">imports</text><text fill="#000000" font-family="sans-serif" font-size="14" lengthAdjust="spacing" textLength="82" x="191" y="470.4414">namespaces</text><line style="stroke:#181818;stroke-width:1.0;stroke-dasharray:1.0,2.0;" x1="186" x2="246.5" y1="407.8056" y2="407.8056"/><text fill="#000000" font-family="sans-serif" font-size="14" lengthAdjust="spacing" textLength="67" x="246.5" y="412.7376">properties</text><line style="stroke:#181818;stroke-width:1.0;stroke-dasharray:1.0,2.0;" x1="313.5" x2="374" y1="407.8056" y2="407.8056"/></g><g id="elem_GMN3"><path d="M6,115 L6,213.5301 A0,0 0 0 0 6,213.5301 L108,213.5301 A0,0 0 0 0 108,213.5301 L108,213.5301 L177.41,279.7 L108,205.5301 L108,125 L98,115 L6,115 A0,0 0 0 0 6,115 " fill="#FEFFDD" style="stroke:#181818;stroke-width:0.5;"/><path d="M98,115 L98,125 L108,125 L98,115 " fill="#FEFFDD" style="stroke:#181818;stroke-width:0.5;"/><text fill="#000000" font-family="sans-serif" font-size="13" font-weight="bold" lengthAdjust="spacing" textLength="62" x="12" y="133.897">Summary</text><text fill="#000000" font-family="sans-serif" font-size="13" lengthAdjust="spacing" textLength="38" x="12" y="151.603">TODO</text><text fill="#000000" font-family="sans-serif" font-size="13" font-weight="bold" lengthAdjust="spacing" textLength="81" x="12" y="169.309">Description</text><text fill="#000000" font-family="sans-serif" font-size="13" lengthAdjust="spacing" textLength="38" x="12" y="187.0151">TODO</text><text fill="#000000" font-family="sans-serif" font-size="13" lengthAdjust="spacing" textLength="3" x="12" y="204.7211">&#160;</text></g><!--class Payload--><g id="elem_Payload"><rect fill="#F1F1F1" height="48" id="Payload" rx="2.5" ry="2.5" style="stroke:#181818;stroke-width:0.5;" width="84" x="143" y="140.5"/><ellipse cx="158" cy="156.5" fill="#ADD1B2" rx="11" ry="11" style="stroke:#181818;stroke-width:1.0;"/><path d="M157.7969,163.2344 Q155.3125,163.2344 153.9844,161.5938 Q152.6719,159.9219 152.6719,156.8125 Q152.6719,153.6875 153.9844,152.0313 Q155.3125,150.375 157.7969,150.375 Q158.5156,150.375 159.1719,150.5313 Q159.8125,150.6875 160.375,150.9844 L160.375,153.7031 Q160.0156,153.3594 159.7188,153.1719 Q159.4219,152.9688 159.1563,152.8438 Q158.8438,152.7031 158.5313,152.6406 Q158.2344,152.5781 157.9219,152.5781 Q156.5938,152.5781 155.9063,153.6406 Q155.2188,154.7344 155.2188,156.8125 Q155.2188,158.9063 155.9063,159.9688 Q156.5938,161.0469 157.9219,161.0469 Q158.5625,161.0469 159.1563,160.7656 Q159.4531,160.6406 159.7344,160.4531 Q160.0313,160.25 160.375,159.9219 L160.375,162.6406 Q159.7969,162.9375 159.1563,163.0938 Q158.5156,163.2344 157.7969,163.2344 Z " fill="#000000"/><text fill="#000000" font-family="sans-serif" font-size="14" lengthAdjust="spacing" textLength="52" x="172" y="161.932">Payload</text><line style="stroke:#181818;stroke-width:0.5;" x1="144" x2="226" y1="172.5" y2="172.5"/><line style="stroke:#181818;stroke-width:0.5;" x1="144" x2="226" y1="180.5" y2="180.5"/></g><!--class CreationInformation--><g id="elem_CreationInformation"><rect fill="#F1F1F1" height="48" id="CreationInformation" rx="2.5" ry="2.5" style="stroke:#181818;stroke-width:0.5;" width="167" x="143.5" y="7"/><ellipse cx="158.5" cy="23" fill="#ADD1B2" rx="11" ry="11" style="stroke:#181818;stroke-width:1.0;"/><path d="M158.2969,29.7344 Q155.8125,29.7344 154.4844,28.0938 Q153.1719,26.4219 153.1719,23.3125 Q153.1719,20.1875 154.4844,18.5313 Q155.8125,16.875 158.2969,16.875 Q159.0156,16.875 159.6719,17.0313 Q160.3125,17.1875 160.875,17.4844 L160.875,20.2031 Q160.5156,19.8594 160.2188,19.6719 Q159.9219,19.4688 159.6563,19.3438 Q159.3438,19.2031 159.0313,19.1406 Q158.7344,19.0781 158.4219,19.0781 Q157.0938,19.0781 156.4063,20.1406 Q155.7188,21.2344 155.7188,23.3125 Q155.7188,25.4063 156.4063,26.4688 Q157.0938,27.5469 158.4219,27.5469 Q159.0625,27.5469 159.6563,27.2656 Q159.9531,27.1406 160.2344,26.9531 Q160.5313,26.75 160.875,26.4219 L160.875,29.1406 Q160.2969,29.4375 159.6563,29.5938 Q159.0156,29.7344 158.2969,29.7344 Z " fill="#000000"/><text fill="#000000" font-family="sans-serif" font-size="14" lengthAdjust="spacing" textLength="135" x="172.5" y="28.432">CreationInformation</text><line style="stroke:#181818;stroke-width:0.5;" x1="144.5" x2="309.5" y1="39" y2="39"/><line style="stroke:#181818;stroke-width:0.5;" x1="144.5" x2="309.5" y1="47" y2="47"/></g><!--class ExternalMap--><g id="elem_ExternalMap"><rect fill="#F1F1F1" height="48" id="ExternalMap" rx="2.5" ry="2.5" style="stroke:#181818;stroke-width:0.5;" width="114" x="346" y="7"/><ellipse cx="361" cy="23" fill="#ADD1B2" rx="11" ry="11" style="stroke:#181818;stroke-width:1.0;"/><path d="M360.7969,29.7344 Q358.3125,29.7344 356.9844,28.0938 Q355.6719,26.4219 355.6719,23.3125 Q355.6719,20.1875 356.9844,18.5313 Q358.3125,16.875 360.7969,16.875 Q361.5156,16.875 362.1719,17.0313 Q362.8125,17.1875 363.375,17.4844 L363.375,20.2031 Q363.0156,19.8594 362.7188,19.6719 Q362.4219,19.4688 362.1563,19.3438 Q361.8438,19.2031 361.5313,19.1406 Q361.2344,19.0781 360.9219,19.0781 Q359.5938,19.0781 358.9063,20.1406 Q358.2188,21.2344 358.2188,23.3125 Q358.2188,25.4063 358.9063,26.4688 Q359.5938,27.5469 360.9219,27.5469 Q361.5625,27.5469 362.1563,27.2656 Q362.4531,27.1406 362.7344,26.9531 Q363.0313,26.75 363.375,26.4219 L363.375,29.1406 Q362.7969,29.4375 362.1563,29.5938 Q361.5156,29.7344 360.7969,29.7344 Z " fill="#000000"/><text fill="#000000" font-family="sans-serif" font-size="14" lengthAdjust="spacing" textLength="82" x="375" y="28.432">ExternalMap</text><line style="stroke:#181818;stroke-width:0.5;" x1="347" x2="459" y1="39" y2="39"/><line style="stroke:#181818;stroke-width:0.5;" x1="347" x2="459" y1="47" y2="47"/></g><!--class NamespaceMap--><g id="elem_NamespaceMap"><rect fill="#F1F1F1" height="48" id="NamespaceMap" rx="2.5" ry="2.5" style="stroke:#181818;stroke-width:0.5;" width="139" x="495.5" y="7"/><ellipse cx="510.5" cy="23" fill="#ADD1B2" rx="11" ry="11" style="stroke:#181818;stroke-width:1.0;"/><path d="M510.2969,29.7344 Q507.8125,29.7344 506.4844,28.0938 Q505.1719,26.4219 505.1719,23.3125 Q505.1719,20.1875 506.4844,18.5313 Q507.8125,16.875 510.2969,16.875 Q511.0156,16.875 511.6719,17.0313 Q512.3125,17.1875 512.875,17.4844 L512.875,20.2031 Q512.5156,19.8594 512.2188,19.6719 Q511.9219,19.4688 511.6563,19.3438 Q511.3438,19.2031 511.0313,19.1406 Q510.7344,19.0781 510.4219,19.0781 Q509.0938,19.0781 508.4063,20.1406 Q507.7188,21.2344 507.7188,23.3125 Q507.7188,25.4063 508.4063,26.4688 Q509.0938,27.5469 510.4219,27.5469 Q511.0625,27.5469 511.6563,27.2656 Q511.9531,27.1406 512.2344,26.9531 Q512.5313,26.75 512.875,26.4219 L512.875,29.1406 Q512.2969,29.4375 511.6563,29.5938 Q511.0156,29.7344 510.2969,29.7344 Z " fill="#000000"/><text fill="#000000" font-family="sans-serif" font-size="14" lengthAdjust="spacing" textLength="107" x="524.5" y="28.432">NamespaceMap</text><line style="stroke:#181818;stroke-width:0.5;" x1="496.5" x2="633.5" y1="39" y2="39"/><line style="stroke:#181818;stroke-width:0.5;" x1="496.5" x2="633.5" y1="47" y2="47"/></g><!--reverse link Payload to AnonymousPayload--><g id="link_Payload_AnonymousPayload"><path codeLine="18" d="M204.29,208.44 C212.87,227.54 223.37,250.92 233.79,274.12 " fill="none" id="Payload-backto-AnonymousPayload" style="stroke:#181818;stroke-width:4.0;"/><polygon fill="none" points="197.96,211.44,196.15,190.32,210.73,205.7,197.96,211.44" style="stroke:#181818;stroke-width:4.0;"/></g><!--reverse link CreationInformation to AnonymousPayload--><g id="link_CreationInformation_AnonymousPayload"><path codeLine="19" d="M250.18,60.15 C322.95,150.46 532.99,427 376,427 " fill="none" id="CreationInformation-backto-AnonymousPayload" style="stroke:#181818;stroke-width:1.0;"/><polygon fill="#181818" points="247.15,56.41,249.6827,65.9276,250.2874,60.3032,255.9118,60.9078,247.15,56.41" style="stroke:#181818;stroke-width:1.0;"/></g><!--reverse link ExternalMap to AnonymousPayload--><g id="link_ExternalMap_AnonymousPayload"><path codeLine="20" d="M413.37,61.38 C445.21,155.9 530.35,446 376,446 " fill="none" id="ExternalMap-backto-AnonymousPayload" style="stroke:#181818;stroke-width:1.0;"/><polygon fill="#181818" points="411.84,56.88,410.9267,66.6864,413.4383,61.6177,418.507,64.1292,411.84,56.88" style="stroke:#181818;stroke-width:1.0;"/></g><!--reverse link NamespaceMap to AnonymousPayload--><g id="link_NamespaceMap_AnonymousPayload"><path codeLine="21" d="M565.58,61.68 C565.8,159.42 552.4,465 376,465 " fill="none" id="NamespaceMap-backto-AnonymousPayload" style="stroke:#181818;stroke-width:1.0;"/><polygon fill="#181818" points="565.55,56.79,561.6015,65.8127,565.5786,61.7899,569.6014,65.767,565.55,56.79" style="stroke:#181818;stroke-width:1.0;"/></g><!--SRC=[VL0xJyCm4DxzAqxU4nQcA5H2BKC725BP4CF5kGghyTcoBn8HyDznefHMvU79-fx-R7fC2MxPy-Zya1vnx3rsyAxA4Xm9TYW8PQaWdoqdGHQBhUsjZ531shE993JJkw4rKrgppymID1ECZZ9qMJ9LXEW3HR6KZYKv3yLwtlBUpu1rmKT9tqafeA6aFXLx8H0VmEz_PjVjQZSuXt6ihzgLUcespOHjA9bemrHmmXLn1rEQqejTG_rHFCkhDGUcb6wkNmhGbnrQwVNPOwERhzbQ5B-eg-fyMVRUlGb5nluUmz-UPNoMFnod_wi_VP3-0W00]--></g></svg>