<?xml version="1.0" encoding="us-ascii" standalone="no"?><svg xmlns="http://www.w3.org/2000/svg" xmlns:xlink="http://www.w3.org/1999/xlink" contentStyleType="text/css" height="326px" preserveAspectRatio="none" style="width:624px;height:326px;background:#FFFFFF;" version="1.1" viewBox="0 0 624 326" width="624px" zoomAndPan="magnify"><defs/><g><!--class AnonymousPayload--><g id="elem_AnonymousPayload"><rect codeLine="1" fill="#F1F1F1" height="200.5433" id="AnonymousPayload" rx="2.5" ry="2.5" style="stroke:#181818;stroke-width:0.5;" width="190" x="203" y="119"/><ellipse cx="230.6" cy="135" fill="#ADD1B2" rx="11" ry="11" style="stroke:#181818;stroke-width:1.0;"/><path d="M230.3969,141.7344 Q227.9125,141.7344 226.5844,140.0938 Q225.2719,138.4219 225.2719,135.3125 Q225.2719,132.1875 226.5844,130.5313 Q227.9125,128.875 230.3969,128.875 Q231.1156,128.875 231.7719,129.0313 Q232.4125,129.1875 232.975,129.4844 L232.975,132.2031 Q232.6156,131.8594 232.3188,131.6719 Q232.0219,131.4688 231.7563,131.3438 Q231.4438,131.2031 231.1313,131.1406 Q230.8344,131.0781 230.5219,131.0781 Q229.1938,131.0781 228.5063,132.1406 Q227.8188,133.2344 227.8188,135.3125 Q227.8188,137.4063 228.5063,138.4688 Q229.1938,139.5469 230.5219,139.5469 Q231.1625,139.5469 231.7563,139.2656 Q232.0531,139.1406 232.3344,138.9531 Q232.6313,138.75 232.975,138.4219 L232.975,141.1406 Q232.3969,141.4375 231.7563,141.5938 Q231.1156,141.7344 230.3969,141.7344 Z " fill="#000000"/><text fill="#000000" font-family="sans-serif" font-size="14" lengthAdjust="spacing" textLength="130" x="247.4" y="140.432">AnonymousPayload</text><line style="stroke:#181818;stroke-width:0.5;" x1="204" x2="392" y1="151" y2="151"/><text fill="#000000" font-family="sans-serif" font-size="14" lengthAdjust="spacing" textLength="160" x="209" y="193.0339">Instantiability : Concrete</text><text fill="#000000" font-family="sans-serif" font-size="14" lengthAdjust="spacing" textLength="135" x="209" y="212.1018">SubclassOf : Payload</text><text fill="#000000" font-family="sans-serif" font-size="14" lengthAdjust="spacing" textLength="178" x="209" y="231.1697">name : AnonymousPayload</text><line style="stroke:#181818;stroke-width:1.0;stroke-dasharray:1.0,2.0;" x1="204" x2="265.5" y1="168.534" y2="168.534"/><text fill="#000000" font-family="sans-serif" font-size="14" lengthAdjust="spacing" textLength="65" x="265.5" y="173.4659">metadata</text><line style="stroke:#181818;stroke-width:1.0;stroke-dasharray:1.0,2.0;" x1="330.5" x2="392" y1="168.534" y2="168.534"/><text fill="#000000" font-family="sans-serif" font-size="14" lengthAdjust="spacing" textLength="81" x="209" y="273.3055">creationInfo</text><text fill="#000000" font-family="sans-serif" font-size="14" lengthAdjust="spacing" textLength="51" x="209" y="292.3734">imports</text><text fill="#000000" font-family="sans-serif" font-size="14" lengthAdjust="spacing" textLength="82" x="209" y="311.4414">namespaces</text><line style="stroke:#181818;stroke-width:1.0;stroke-dasharray:1.0,2.0;" x1="204" x2="264.5" y1="248.8056" y2="248.8056"/><text fill="#000000" font-family="sans-serif" font-size="14" lengthAdjust="spacing" textLength="67" x="264.5" y="253.7376">properties</text><line style="stroke:#181818;stroke-width:1.0;stroke-dasharray:1.0,2.0;" x1="331.5" x2="392" y1="248.8056" y2="248.8056"/></g><g id="elem_GMN3"><path d="M436,169.5 L436,215 L400.99,219 L436,223 L436,268.0301 A0,0 0 0 0 436,268.0301 L538,268.0301 A0,0 0 0 0 538,268.0301 L538,179.5 L528,169.5 L436,169.5 A0,0 0 0 0 436,169.5 " fill="#FEFFDD" style="stroke:#181818;stroke-width:0.5;"/><path d="M528,169.5 L528,179.5 L538,179.5 L528,169.5 " fill="#FEFFDD" style="stroke:#181818;stroke-width:0.5;"/><text fill="#000000" font-family="sans-serif" font-size="13" font-weight="bold" lengthAdjust="spacing" textLength="62" x="442" y="188.397">Summary</text><text fill="#000000" font-family="sans-serif" font-size="13" lengthAdjust="spacing" textLength="38" x="442" y="206.103">TODO</text><text fill="#000000" font-family="sans-serif" font-size="13" font-weight="bold" lengthAdjust="spacing" textLength="81" x="442" y="223.809">Description</text><text fill="#000000" font-family="sans-serif" font-size="13" lengthAdjust="spacing" textLength="38" x="442" y="241.5151">TODO</text><text fill="#000000" font-family="sans-serif" font-size="13" lengthAdjust="spacing" textLength="3" x="442" y="259.2211">&#160;</text></g><!--class Payload--><g id="elem_Payload"><rect fill="#F1F1F1" height="48" id="Payload" rx="2.5" ry="2.5" style="stroke:#181818;stroke-width:0.5;" width="84" x="7" y="7"/><ellipse cx="22" cy="23" fill="#ADD1B2" rx="11" ry="11" style="stroke:#181818;stroke-width:1.0;"/><path d="M21.7969,29.7344 Q19.3125,29.7344 17.9844,28.0938 Q16.6719,26.4219 16.6719,23.3125 Q16.6719,20.1875 17.9844,18.5313 Q19.3125,16.875 21.7969,16.875 Q22.5156,16.875 23.1719,17.0313 Q23.8125,17.1875 24.375,17.4844 L24.375,20.2031 Q24.0156,19.8594 23.7188,19.6719 Q23.4219,19.4688 23.1563,19.3438 Q22.8438,19.2031 22.5313,19.1406 Q22.2344,19.0781 21.9219,19.0781 Q20.5938,19.0781 19.9063,20.1406 Q19.2188,21.2344 19.2188,23.3125 Q19.2188,25.4063 19.9063,26.4688 Q20.5938,27.5469 21.9219,27.5469 Q22.5625,27.5469 23.1563,27.2656 Q23.4531,27.1406 23.7344,26.9531 Q24.0313,26.75 24.375,26.4219 L24.375,29.1406 Q23.7969,29.4375 23.1563,29.5938 Q22.5156,29.7344 21.7969,29.7344 Z " fill="#000000"/><text fill="#000000" font-family="sans-serif" font-size="14" lengthAdjust="spacing" textLength="52" x="36" y="28.432">Payload</text><line style="stroke:#181818;stroke-width:0.5;" x1="8" x2="90" y1="39" y2="39"/><line style="stroke:#181818;stroke-width:0.5;" x1="8" x2="90" y1="47" y2="47"/></g><!--class CreationInformation--><g id="elem_CreationInformation"><rect fill="#F1F1F1" height="48" id="CreationInformation" rx="2.5" ry="2.5" style="stroke:#181818;stroke-width:0.5;" width="167" x="126.5" y="7"/><ellipse cx="141.5" cy="23" fill="#ADD1B2" rx="11" ry="11" style="stroke:#181818;stroke-width:1.0;"/><path d="M141.2969,29.7344 Q138.8125,29.7344 137.4844,28.0938 Q136.1719,26.4219 136.1719,23.3125 Q136.1719,20.1875 137.4844,18.5313 Q138.8125,16.875 141.2969,16.875 Q142.0156,16.875 142.6719,17.0313 Q143.3125,17.1875 143.875,17.4844 L143.875,20.2031 Q143.5156,19.8594 143.2188,19.6719 Q142.9219,19.4688 142.6563,19.3438 Q142.3438,19.2031 142.0313,19.1406 Q141.7344,19.0781 141.4219,19.0781 Q140.0938,19.0781 139.4063,20.1406 Q138.7188,21.2344 138.7188,23.3125 Q138.7188,25.4063 139.4063,26.4688 Q140.0938,27.5469 141.4219,27.5469 Q142.0625,27.5469 142.6563,27.2656 Q142.9531,27.1406 143.2344,26.9531 Q143.5313,26.75 143.875,26.4219 L143.875,29.1406 Q143.2969,29.4375 142.6563,29.5938 Q142.0156,29.7344 141.2969,29.7344 Z " fill="#000000"/><text fill="#000000" font-family="sans-serif" font-size="14" lengthAdjust="spacing" textLength="135" x="155.5" y="28.432">CreationInformation</text><line style="stroke:#181818;stroke-width:0.5;" x1="127.5" x2="292.5" y1="39" y2="39"/><line style="stroke:#181818;stroke-width:0.5;" x1="127.5" x2="292.5" y1="47" y2="47"/></g><!--class ExternalMap--><g id="elem_ExternalMap"><rect fill="#F1F1F1" height="48" id="ExternalMap" rx="2.5" ry="2.5" style="stroke:#181818;stroke-width:0.5;" width="114" x="329" y="7"/><ellipse cx="344" cy="23" fill="#ADD1B2" rx="11" ry="11" style="stroke:#181818;stroke-width:1.0;"/><path d="M343.7969,29.7344 Q341.3125,29.7344 339.9844,28.0938 Q338.6719,26.4219 338.6719,23.3125 Q338.6719,20.1875 339.9844,18.5313 Q341.3125,16.875 343.7969,16.875 Q344.5156,16.875 345.1719,17.0313 Q345.8125,17.1875 346.375,17.4844 L346.375,20.2031 Q346.0156,19.8594 345.7188,19.6719 Q345.4219,19.4688 345.1563,19.3438 Q344.8438,19.2031 344.5313,19.1406 Q344.2344,19.0781 343.9219,19.0781 Q342.5938,19.0781 341.9063,20.1406 Q341.2188,21.2344 341.2188,23.3125 Q341.2188,25.4063 341.9063,26.4688 Q342.5938,27.5469 343.9219,27.5469 Q344.5625,27.5469 345.1563,27.2656 Q345.4531,27.1406 345.7344,26.9531 Q346.0313,26.75 346.375,26.4219 L346.375,29.1406 Q345.7969,29.4375 345.1563,29.5938 Q344.5156,29.7344 343.7969,29.7344 Z " fill="#000000"/><text fill="#000000" font-family="sans-serif" font-size="14" lengthAdjust="spacing" textLength="82" x="358" y="28.432">ExternalMap</text><line style="stroke:#181818;stroke-width:0.5;" x1="330" x2="442" y1="39" y2="39"/><line style="stroke:#181818;stroke-width:0.5;" x1="330" x2="442" y1="47" y2="47"/></g><!--class NamespaceMap--><g id="elem_NamespaceMap"><rect fill="#F1F1F1" height="48" id="NamespaceMap" rx="2.5" ry="2.5" style="stroke:#181818;stroke-width:0.5;" width="139" x="478.5" y="7"/><ellipse cx="493.5" cy="23" fill="#ADD1B2" rx="11" ry="11" style="stroke:#181818;stroke-width:1.0;"/><path d="M493.2969,29.7344 Q490.8125,29.7344 489.4844,28.0938 Q488.1719,26.4219 488.1719,23.3125 Q488.1719,20.1875 489.4844,18.5313 Q490.8125,16.875 493.2969,16.875 Q494.0156,16.875 494.6719,17.0313 Q495.3125,17.1875 495.875,17.4844 L495.875,20.2031 Q495.5156,19.8594 495.2188,19.6719 Q494.9219,19.4688 494.6563,19.3438 Q494.3438,19.2031 494.0313,19.1406 Q493.7344,19.0781 493.4219,19.0781 Q492.0938,19.0781 491.4063,20.1406 Q490.7188,21.2344 490.7188,23.3125 Q490.7188,25.4063 491.4063,26.4688 Q492.0938,27.5469 493.4219,27.5469 Q494.0625,27.5469 494.6563,27.2656 Q494.9531,27.1406 495.2344,26.9531 Q495.5313,26.75 495.875,26.4219 L495.875,29.1406 Q495.2969,29.4375 494.6563,29.5938 Q494.0156,29.7344 493.2969,29.7344 Z " fill="#000000"/><text fill="#000000" font-family="sans-serif" font-size="14" lengthAdjust="spacing" textLength="107" x="507.5" y="28.432">NamespaceMap</text><line style="stroke:#181818;stroke-width:0.5;" x1="479.5" x2="616.5" y1="39" y2="39"/><line style="stroke:#181818;stroke-width:0.5;" x1="479.5" x2="616.5" y1="47" y2="47"/></g><!--link Payload to AnonymousPayload--><g id="link_Payload_AnonymousPayload"><path codeLine="18" d="M80.28,55.37 C105.26,74.03 141.95,101.43 178.12,128.45 " fill="none" id="Payload-to-AnonymousPayload" style="stroke:#181818;stroke-width:1.0;"/><polygon fill="none" points="182.16,122.73,194,140.31,173.79,133.95,182.16,122.73" style="stroke:#181818;stroke-width:1.0;"/></g><!--reverse link CreationInformation to AnonymousPayload--><g id="link_CreationInformation_AnonymousPayload"><path codeLine="19" d="M197.08,61.35 C170.79,124.59 120.19,268 202,268 " fill="none" id="CreationInformation-backto-AnonymousPayload" style="stroke:#181818;stroke-width:1.0;"/><polygon fill="#181818" points="198.95,56.89,191.7887,63.6514,197.0219,61.5033,199.17,66.7364,198.95,56.89" style="stroke:#181818;stroke-width:1.0;"/></g><!--reverse link ExternalMap to AnonymousPayload--><g id="link_ExternalMap_AnonymousPayload"><path codeLine="20" d="M392.89,61.27 C407.9,128.26 438.73,287 394,287 " fill="none" id="ExternalMap-backto-AnonymousPayload" style="stroke:#181818;stroke-width:1.0;"/><polygon fill="#181818" points="391.83,56.56,389.9045,66.2188,392.9282,61.4379,397.7091,64.4616,391.83,56.56" style="stroke:#181818;stroke-width:1.0;"/></g><!--reverse link NamespaceMap to AnonymousPayload--><g id="link_NamespaceMap_AnonymousPayload"><path codeLine="21" d="M484.77,58.33 C460.34,71.71 434.57,90.42 419,115 C396.09,151.16 436.81,306 394,306 " fill="none" id="NamespaceMap-backto-AnonymousPayload" style="stroke:#181818;stroke-width:1.0;"/><polygon fill="#181818" points="488.95,56.1,479.1278,56.8241,484.5426,58.4611,482.9056,63.8759,488.95,56.1" style="stroke:#181818;stroke-width:1.0;"/></g><!--SRC=[VP31QiCm44Jl-ef5TxjtOmmbwI67neNq1zRskXLOAo6jeQRjlrSoJXCIMft4pCuRhVe9OuH7ThnODySNN2Q70togiWHBWWCAGbagIEV0KP35O6Sc8mjKi7FS1n9QxTFSzPdMZidPGAl1Q2b9joMvmWVdAOYXU2v9F1JZ-C2ZMmLZlGiIVqdHOqzHVIjsGX3Csxk06-_fTTUSPcinBFL3rwZNTjzcRK-n3yRdYekkY0V8FAMtk8QY-6f0tsArqhkh5mQxNZNKHN4_N5NNswJequTGO9oUqVyPsVPDqyVpjl-DNxv4_m00]--></g></svg>