<?xml version="1.0" encoding="us-ascii" standalone="no"?><svg xmlns="http://www.w3.org/2000/svg" xmlns:xlink="http://www.w3.org/1999/xlink" contentStyleType="text/css" height="288px" preserveAspectRatio="none" style="width:680px;height:288px;background:#FFFFFF;" version="1.1" viewBox="0 0 680 288" width="680px" zoomAndPan="magnify"><defs/><g><!--class Artifact--><g id="elem_Artifact"><rect codeLine="1" fill="#F1F1F1" height="162.4075" id="Artifact" rx="2.5" ry="2.5" style="stroke:#181818;stroke-width:0.5;" width="168" x="26" y="119"/><ellipse cx="81.25" cy="135" fill="#ADD1B2" rx="11" ry="11" style="stroke:#181818;stroke-width:1.0;"/><path d="M81.0469,141.7344 Q78.5625,141.7344 77.2344,140.0938 Q75.9219,138.4219 75.9219,135.3125 Q75.9219,132.1875 77.2344,130.5313 Q78.5625,128.875 81.0469,128.875 Q81.7656,128.875 82.4219,129.0313 Q83.0625,129.1875 83.625,129.4844 L83.625,132.2031 Q83.2656,131.8594 82.9688,131.6719 Q82.6719,131.4688 82.4063,131.3438 Q82.0938,131.2031 81.7813,131.1406 Q81.4844,131.0781 81.1719,131.0781 Q79.8438,131.0781 79.1563,132.1406 Q78.4688,133.2344 78.4688,135.3125 Q78.4688,137.4063 79.1563,138.4688 Q79.8438,139.5469 81.1719,139.5469 Q81.8125,139.5469 82.4063,139.2656 Q82.7031,139.1406 82.9844,138.9531 Q83.2813,138.75 83.625,138.4219 L83.625,141.1406 Q83.0469,141.4375 82.4063,141.5938 Q81.7656,141.7344 81.0469,141.7344 Z " fill="#000000"/><text fill="#000000" font-family="sans-serif" font-size="14" lengthAdjust="spacing" textLength="49" x="101.75" y="140.432">Artifact</text><line style="stroke:#181818;stroke-width:0.5;" x1="27" x2="193" y1="151" y2="151"/><text fill="#000000" font-family="sans-serif" font-size="14" lengthAdjust="spacing" textLength="156" x="32" y="193.0339">Instantiability : Abstract</text><text fill="#000000" font-family="sans-serif" font-size="14" lengthAdjust="spacing" textLength="137" x="32" y="212.1018">SubclassOf : Element</text><text fill="#000000" font-family="sans-serif" font-size="14" lengthAdjust="spacing" textLength="97" x="32" y="231.1697">name : Artifact</text><line style="stroke:#181818;stroke-width:1.0;stroke-dasharray:1.0,2.0;" x1="27" x2="77.5" y1="168.534" y2="168.534"/><text fill="#000000" font-family="sans-serif" font-size="14" lengthAdjust="spacing" textLength="65" x="77.5" y="173.4659">metadata</text><line style="stroke:#181818;stroke-width:1.0;stroke-dasharray:1.0,2.0;" x1="142.5" x2="193" y1="168.534" y2="168.534"/><text fill="#000000" font-family="sans-serif" font-size="14" lengthAdjust="spacing" textLength="83" x="32" y="273.3055">originatedBy</text><line style="stroke:#181818;stroke-width:1.0;stroke-dasharray:1.0,2.0;" x1="27" x2="76.5" y1="248.8056" y2="248.8056"/><text fill="#000000" font-family="sans-serif" font-size="14" lengthAdjust="spacing" textLength="67" x="76.5" y="253.7376">properties</text><line style="stroke:#181818;stroke-width:1.0;stroke-dasharray:1.0,2.0;" x1="143.5" x2="193" y1="248.8056" y2="248.8056"/></g><g id="elem_GMN3"><path d="M237,133 L237,196 L201.98,200 L237,204 L237,266.9421 A0,0 0 0 0 237,266.9421 L673,266.9421 A0,0 0 0 0 673,266.9421 L673,143 L663,133 L237,133 A0,0 0 0 0 237,133 " fill="#FEFFDD" style="stroke:#181818;stroke-width:0.5;"/><path d="M663,133 L663,143 L673,143 L663,133 " fill="#FEFFDD" style="stroke:#181818;stroke-width:0.5;"/><text fill="#000000" font-family="sans-serif" font-size="13" font-weight="bold" lengthAdjust="spacing" textLength="62" x="243" y="151.897">Summary</text><text fill="#000000" font-family="sans-serif" font-size="13" lengthAdjust="spacing" textLength="287" x="243" y="169.603">A distinct article or unit within the digital domain.</text><text fill="#000000" font-family="sans-serif" font-size="13" font-weight="bold" lengthAdjust="spacing" textLength="81" x="243" y="187.309">Description</text><text fill="#000000" font-family="sans-serif" font-size="13" lengthAdjust="spacing" textLength="362" x="243" y="205.0151">An artifact is a distinct article or unit within the digital domain,</text><text fill="#000000" font-family="sans-serif" font-size="13" lengthAdjust="spacing" textLength="415" x="243" y="222.7211">such as an electronic file, a software package, a device or an element</text><text fill="#000000" font-family="sans-serif" font-size="13" lengthAdjust="spacing" textLength="45" x="243" y="240.4271">of data.</text><text fill="#000000" font-family="sans-serif" font-size="13" lengthAdjust="spacing" textLength="3" x="243" y="258.1331">&#160;</text></g><!--class Element--><g id="elem_Element"><rect fill="#F1F1F1" height="48" id="Element" rx="2.5" ry="2.5" style="stroke:#181818;stroke-width:0.5;" width="86" x="7" y="7"/><ellipse cx="22" cy="23" fill="#ADD1B2" rx="11" ry="11" style="stroke:#181818;stroke-width:1.0;"/><path d="M21.7969,29.7344 Q19.3125,29.7344 17.9844,28.0938 Q16.6719,26.4219 16.6719,23.3125 Q16.6719,20.1875 17.9844,18.5313 Q19.3125,16.875 21.7969,16.875 Q22.5156,16.875 23.1719,17.0313 Q23.8125,17.1875 24.375,17.4844 L24.375,20.2031 Q24.0156,19.8594 23.7188,19.6719 Q23.4219,19.4688 23.1563,19.3438 Q22.8438,19.2031 22.5313,19.1406 Q22.2344,19.0781 21.9219,19.0781 Q20.5938,19.0781 19.9063,20.1406 Q19.2188,21.2344 19.2188,23.3125 Q19.2188,25.4063 19.9063,26.4688 Q20.5938,27.5469 21.9219,27.5469 Q22.5625,27.5469 23.1563,27.2656 Q23.4531,27.1406 23.7344,26.9531 Q24.0313,26.75 24.375,26.4219 L24.375,29.1406 Q23.7969,29.4375 23.1563,29.5938 Q22.5156,29.7344 21.7969,29.7344 Z " fill="#000000"/><text fill="#000000" font-family="sans-serif" font-size="14" lengthAdjust="spacing" textLength="54" x="36" y="28.432">Element</text><line style="stroke:#181818;stroke-width:0.5;" x1="8" x2="92" y1="39" y2="39"/><line style="stroke:#181818;stroke-width:0.5;" x1="8" x2="92" y1="47" y2="47"/></g><!--class Identity--><g id="elem_Identity"><rect fill="#F1F1F1" height="48" id="Identity" rx="2.5" ry="2.5" style="stroke:#181818;stroke-width:0.5;" width="83" x="128.5" y="7"/><ellipse cx="143.5" cy="23" fill="#ADD1B2" rx="11" ry="11" style="stroke:#181818;stroke-width:1.0;"/><path d="M143.2969,29.7344 Q140.8125,29.7344 139.4844,28.0938 Q138.1719,26.4219 138.1719,23.3125 Q138.1719,20.1875 139.4844,18.5313 Q140.8125,16.875 143.2969,16.875 Q144.0156,16.875 144.6719,17.0313 Q145.3125,17.1875 145.875,17.4844 L145.875,20.2031 Q145.5156,19.8594 145.2188,19.6719 Q144.9219,19.4688 144.6563,19.3438 Q144.3438,19.2031 144.0313,19.1406 Q143.7344,19.0781 143.4219,19.0781 Q142.0938,19.0781 141.4063,20.1406 Q140.7188,21.2344 140.7188,23.3125 Q140.7188,25.4063 141.4063,26.4688 Q142.0938,27.5469 143.4219,27.5469 Q144.0625,27.5469 144.6563,27.2656 Q144.9531,27.1406 145.2344,26.9531 Q145.5313,26.75 145.875,26.4219 L145.875,29.1406 Q145.2969,29.4375 144.6563,29.5938 Q144.0156,29.7344 143.2969,29.7344 Z " fill="#000000"/><text fill="#000000" font-family="sans-serif" font-size="14" lengthAdjust="spacing" textLength="51" x="157.5" y="28.432">Identity</text><line style="stroke:#181818;stroke-width:0.5;" x1="129.5" x2="210.5" y1="39" y2="39"/><line style="stroke:#181818;stroke-width:0.5;" x1="129.5" x2="210.5" y1="47" y2="47"/></g><!--link Element to Artifact--><g id="link_Element_Artifact"><path codeLine="18" d="M58.34,55.22 C62.31,66.25 67.35,80.29 72.72,95.24 " fill="none" id="Element-to-Artifact" style="stroke:#181818;stroke-width:1.0;"/><polygon fill="none" points="79.23,92.65,79.4,113.84,66.05,97.38,79.23,92.65" style="stroke:#181818;stroke-width:1.0;"/></g><!--reverse link Identity to Artifact--><g id="link_Identity_Artifact"><path codeLine="19" d="M180.6,61.26 C185.73,76.96 191.36,96.78 194,115 C198.88,148.65 229,268 195,268 " fill="none" id="Identity-backto-Artifact" style="stroke:#181818;stroke-width:1.0;"/><polygon fill="#181818" points="179.06,56.67,178.1202,66.4739,180.6454,61.412,185.7074,63.9372,179.06,56.67" style="stroke:#181818;stroke-width:1.0;"/></g><!--SRC=[dP6nRiCm34HtVGMXENRt80YGeXqwTSWNq18T4vKfGw8R16t_lRIJ89shJRox1_4K4jOAXwBSOr3uScqB8ob6L8IsTM3dJQgYA6F7YVK2MpXqLOlvL_auTs6XlFUcl2OQIQw2u4YB-GPVq5F94zcTwXsU2vzOK2a-NzoFawm4DXeKSl-8xhhzSHv7B9VTKxTt1uXSbSLUZ6O9YOm3ix32cNLW0Ht8F2TMJ13pY2pj0dcX6WfFobck85a1w-vS0V_1tRWwXm7GqWAKA6Z9mW5wJhGnOiszdh4GJ1W-yBJE8droMDdNp5gPxRkqtZf74c4fmlbRdHwQvdiF_jw7T_ujsjn-myEkQHxATlktKFyB]--></g></svg>