<?xml version="1.0" encoding="us-ascii" standalone="no"?><svg xmlns="http://www.w3.org/2000/svg" xmlns:xlink="http://www.w3.org/1999/xlink" contentStyleType="text/css" height="373px" preserveAspectRatio="none" style="width:711px;height:373px;background:#FFFFFF;" version="1.1" viewBox="0 0 711 373" width="711px" zoomAndPan="magnify"><defs/><g><!--class Artifact--><g id="elem_Artifact"><rect codeLine="1" fill="#F1F1F1" height="162.4075" id="Artifact" rx="2.5" ry="2.5" style="stroke:#181818;stroke-width:0.5;" width="168" x="436" y="204"/><ellipse cx="492.75" cy="220" fill="#A9DCDF" rx="11" ry="11" style="stroke:#181818;stroke-width:1.0;"/><path d="M491.375,213.3594 L494.3594,213.3594 L497.7188,225.75 L495.2656,225.75 L494.5,222.6875 L491.2188,222.6875 L490.4688,225.75 L488.0313,225.75 L491.375,213.3594 Z M494.0313,220.6719 L492.8594,215.5938 L491.7031,220.6719 L494.0313,220.6719 Z " fill="#000000"/><text fill="#000000" font-family="sans-serif" font-size="14" font-style="italic" lengthAdjust="spacing" textLength="46" x="513.25" y="225.432">Artifact</text><line style="stroke:#181818;stroke-width:0.5;" x1="437" x2="603" y1="236" y2="236"/><text fill="#000000" font-family="sans-serif" font-size="14" lengthAdjust="spacing" textLength="156" x="442" y="278.0339">Instantiability : Abstract</text><text fill="#000000" font-family="sans-serif" font-size="14" lengthAdjust="spacing" textLength="137" x="442" y="297.1018">SubclassOf : Element</text><text fill="#000000" font-family="sans-serif" font-size="14" lengthAdjust="spacing" textLength="97" x="442" y="316.1697">name : Artifact</text><line style="stroke:#181818;stroke-width:1.0;stroke-dasharray:1.0,2.0;" x1="437" x2="487.5" y1="253.534" y2="253.534"/><text fill="#000000" font-family="sans-serif" font-size="14" lengthAdjust="spacing" textLength="65" x="487.5" y="258.4659">metadata</text><line style="stroke:#181818;stroke-width:1.0;stroke-dasharray:1.0,2.0;" x1="552.5" x2="603" y1="253.534" y2="253.534"/><text fill="#000000" font-family="sans-serif" font-size="14" lengthAdjust="spacing" textLength="83" x="442" y="358.3055">originatedBy</text><line style="stroke:#181818;stroke-width:1.0;stroke-dasharray:1.0,2.0;" x1="437" x2="486.5" y1="333.8056" y2="333.8056"/><text fill="#000000" font-family="sans-serif" font-size="14" lengthAdjust="spacing" textLength="67" x="486.5" y="338.7376">properties</text><line style="stroke:#181818;stroke-width:1.0;stroke-dasharray:1.0,2.0;" x1="553.5" x2="603" y1="333.8056" y2="333.8056"/></g><g id="elem_GMN3"><path d="M6,6 L6,139.9421 A0,0 0 0 0 6,139.9421 L313.66,139.9421 L428.22,218.89 L321.66,139.9421 L442,139.9421 A0,0 0 0 0 442,139.9421 L442,16 L432,6 L6,6 A0,0 0 0 0 6,6 " fill="#FEFFDD" style="stroke:#181818;stroke-width:0.5;"/><path d="M432,6 L432,16 L442,16 L432,6 " fill="#FEFFDD" style="stroke:#181818;stroke-width:0.5;"/><text fill="#000000" font-family="sans-serif" font-size="13" font-weight="bold" lengthAdjust="spacing" textLength="62" x="12" y="24.897">Summary</text><text fill="#000000" font-family="sans-serif" font-size="13" lengthAdjust="spacing" textLength="287" x="12" y="42.603">A distinct article or unit within the digital domain.</text><text fill="#000000" font-family="sans-serif" font-size="13" font-weight="bold" lengthAdjust="spacing" textLength="81" x="12" y="60.309">Description</text><text fill="#000000" font-family="sans-serif" font-size="13" lengthAdjust="spacing" textLength="362" x="12" y="78.0151">An artifact is a distinct article or unit within the digital domain,</text><text fill="#000000" font-family="sans-serif" font-size="13" lengthAdjust="spacing" textLength="415" x="12" y="95.7211">such as an electronic file, a software package, a device or an element</text><text fill="#000000" font-family="sans-serif" font-size="13" lengthAdjust="spacing" textLength="45" x="12" y="113.4271">of data.</text><text fill="#000000" font-family="sans-serif" font-size="13" lengthAdjust="spacing" textLength="3" x="12" y="131.1331">&#160;</text></g><!--class Element--><g id="elem_Element"><rect fill="#F1F1F1" height="48" id="Element" rx="2.5" ry="2.5" style="stroke:#181818;stroke-width:0.5;" width="86" x="477" y="49"/><ellipse cx="492" cy="65" fill="#ADD1B2" rx="11" ry="11" style="stroke:#181818;stroke-width:1.0;"/><path d="M491.7969,71.7344 Q489.3125,71.7344 487.9844,70.0938 Q486.6719,68.4219 486.6719,65.3125 Q486.6719,62.1875 487.9844,60.5313 Q489.3125,58.875 491.7969,58.875 Q492.5156,58.875 493.1719,59.0313 Q493.8125,59.1875 494.375,59.4844 L494.375,62.2031 Q494.0156,61.8594 493.7188,61.6719 Q493.4219,61.4688 493.1563,61.3438 Q492.8438,61.2031 492.5313,61.1406 Q492.2344,61.0781 491.9219,61.0781 Q490.5938,61.0781 489.9063,62.1406 Q489.2188,63.2344 489.2188,65.3125 Q489.2188,67.4063 489.9063,68.4688 Q490.5938,69.5469 491.9219,69.5469 Q492.5625,69.5469 493.1563,69.2656 Q493.4531,69.1406 493.7344,68.9531 Q494.0313,68.75 494.375,68.4219 L494.375,71.1406 Q493.7969,71.4375 493.1563,71.5938 Q492.5156,71.7344 491.7969,71.7344 Z " fill="#000000"/><text fill="#000000" font-family="sans-serif" font-size="14" lengthAdjust="spacing" textLength="54" x="506" y="70.432">Element</text><line style="stroke:#181818;stroke-width:0.5;" x1="478" x2="562" y1="81" y2="81"/><line style="stroke:#181818;stroke-width:0.5;" x1="478" x2="562" y1="89" y2="89"/></g><!--class Identity--><g id="elem_Identity"><rect fill="#F1F1F1" height="48" id="Identity" rx="2.5" ry="2.5" style="stroke:#181818;stroke-width:0.5;" width="83" x="598.5" y="49"/><ellipse cx="613.5" cy="65" fill="#ADD1B2" rx="11" ry="11" style="stroke:#181818;stroke-width:1.0;"/><path d="M613.2969,71.7344 Q610.8125,71.7344 609.4844,70.0938 Q608.1719,68.4219 608.1719,65.3125 Q608.1719,62.1875 609.4844,60.5313 Q610.8125,58.875 613.2969,58.875 Q614.0156,58.875 614.6719,59.0313 Q615.3125,59.1875 615.875,59.4844 L615.875,62.2031 Q615.5156,61.8594 615.2188,61.6719 Q614.9219,61.4688 614.6563,61.3438 Q614.3438,61.2031 614.0313,61.1406 Q613.7344,61.0781 613.4219,61.0781 Q612.0938,61.0781 611.4063,62.1406 Q610.7188,63.2344 610.7188,65.3125 Q610.7188,67.4063 611.4063,68.4688 Q612.0938,69.5469 613.4219,69.5469 Q614.0625,69.5469 614.6563,69.2656 Q614.9531,69.1406 615.2344,68.9531 Q615.5313,68.75 615.875,68.4219 L615.875,71.1406 Q615.2969,71.4375 614.6563,71.5938 Q614.0156,71.7344 613.2969,71.7344 Z " fill="#000000"/><text fill="#000000" font-family="sans-serif" font-size="14" lengthAdjust="spacing" textLength="51" x="627.5" y="70.432">Identity</text><line style="stroke:#181818;stroke-width:0.5;" x1="599.5" x2="680.5" y1="81" y2="81"/><line style="stroke:#181818;stroke-width:0.5;" x1="599.5" x2="680.5" y1="89" y2="89"/></g><!--reverse link Element to Artifact--><g id="link_Element_Artifact"><path codeLine="18" d="M520,118.63 C520,142.38 520,172.36 520,200.26 " fill="none" id="Element-backto-Artifact" style="stroke:#181818;stroke-width:1.0;"/><polygon fill="none" points="513,118.79,520,98.79,527,118.79,513,118.79" style="stroke:#181818;stroke-width:1.0;"/></g><!--reverse link Identity to Artifact--><g id="link_Identity_Artifact"><path codeLine="19" d="M648.49,103.51 C667.56,175.25 704.75,353 605,353 " fill="none" id="Identity-backto-Artifact" style="stroke:#181818;stroke-width:1.0;"/><polygon fill="#181818" points="647.21,98.77,645.6873,108.5004,648.5099,103.5981,653.4122,106.4206,647.21,98.77" style="stroke:#181818;stroke-width:1.0;"/></g><!--SRC=[dP4nRiCm34LtdOBmdBYxOGH8qGwPCkG4j4GdH6NAaEW6HjkxbtOID7CrIVpy3-GNTaKpUeLzLkwNovUhQnX8CQ0YrBK3EmSfYgAC7KVM6HhOtushV9ew7x6KOs_AUwI1v2O83hGqt-4BUinf97jJUS1JvZCBAeNNsVquIKgWQOJK_ndRRdUQXW7ptBvqExU7m4LPR5wq5X_9A309ArnPBooW5xAUCoj626b0bdg1l57ncKVb93UGh81rSow0_-1kN9dy1T3S0XJ9Qqx27dgEj35YIRrUCHECw3_mlDO2VR9VsJVF6fZjksHUEqSIO8d1LVSmAsY_jrke7dbKhZe4gzjVcFIiDCrpdDKl]--></g></svg>