<?xml version="1.0" encoding="us-ascii" standalone="no"?><svg xmlns="http://www.w3.org/2000/svg" xmlns:xlink="http://www.w3.org/1999/xlink" contentStyleType="text/css" height="482px" preserveAspectRatio="none" style="width:780px;height:482px;background:#FFFFFF;" version="1.1" viewBox="0 0 780 482" width="780px" zoomAndPan="magnify"><defs/><g><!--class Artifact--><g id="elem_Artifact"><rect codeLine="1" fill="#F1F1F1" height="162.4075" id="Artifact" rx="2.5" ry="2.5" style="stroke:#181818;stroke-width:0.5;" width="184" x="428" y="313"/><ellipse cx="492.75" cy="329" fill="#A9DCDF" rx="11" ry="11" style="stroke:#181818;stroke-width:1.0;"/><path d="M491.375,322.3594 L494.3594,322.3594 L497.7188,334.75 L495.2656,334.75 L494.5,331.6875 L491.2188,331.6875 L490.4688,334.75 L488.0313,334.75 L491.375,322.3594 Z M494.0313,329.6719 L492.8594,324.5938 L491.7031,329.6719 L494.0313,329.6719 Z " fill="#000000"/><text fill="#000000" font-family="sans-serif" font-size="14" font-style="italic" lengthAdjust="spacing" textLength="46" x="513.25" y="334.432">Artifact</text><line style="stroke:#181818;stroke-width:0.5;" x1="429" x2="611" y1="345" y2="345"/><text fill="#000000" font-family="sans-serif" font-size="14" lengthAdjust="spacing" textLength="156" x="434" y="387.0339">Instantiability : Abstract</text><text fill="#000000" font-family="sans-serif" font-size="14" lengthAdjust="spacing" textLength="137" x="434" y="406.1018">SubclassOf : Element</text><text fill="#000000" font-family="sans-serif" font-size="14" lengthAdjust="spacing" textLength="97" x="434" y="425.1697">name : Artifact</text><line style="stroke:#181818;stroke-width:1.0;stroke-dasharray:1.0,2.0;" x1="429" x2="487.5" y1="362.534" y2="362.534"/><text fill="#000000" font-family="sans-serif" font-size="14" lengthAdjust="spacing" textLength="65" x="487.5" y="367.4659">metadata</text><line style="stroke:#181818;stroke-width:1.0;stroke-dasharray:1.0,2.0;" x1="552.5" x2="611" y1="362.534" y2="362.534"/><text fill="#000000" font-family="sans-serif" font-size="14" lengthAdjust="spacing" textLength="172" x="434" y="467.3055">originatedBy : Identity [0..]</text><line style="stroke:#181818;stroke-width:1.0;stroke-dasharray:1.0,2.0;" x1="429" x2="486.5" y1="442.8056" y2="442.8056"/><text fill="#000000" font-family="sans-serif" font-size="14" lengthAdjust="spacing" textLength="67" x="486.5" y="447.7376">properties</text><line style="stroke:#181818;stroke-width:1.0;stroke-dasharray:1.0,2.0;" x1="553.5" x2="611" y1="442.8056" y2="442.8056"/></g><g id="elem_GMN3"><path d="M6,115 L6,248.9421 A0,0 0 0 0 6,248.9421 L313.66,248.9421 L420.05,322.09 L321.66,248.9421 L442,248.9421 A0,0 0 0 0 442,248.9421 L442,125 L432,115 L6,115 A0,0 0 0 0 6,115 " fill="#FEFFDD" style="stroke:#181818;stroke-width:0.5;"/><path d="M432,115 L432,125 L442,125 L432,115 " fill="#FEFFDD" style="stroke:#181818;stroke-width:0.5;"/><text fill="#000000" font-family="sans-serif" font-size="13" font-weight="bold" lengthAdjust="spacing" textLength="62" x="12" y="133.897">Summary</text><text fill="#000000" font-family="sans-serif" font-size="13" lengthAdjust="spacing" textLength="287" x="12" y="151.603">A distinct article or unit within the digital domain.</text><text fill="#000000" font-family="sans-serif" font-size="13" font-weight="bold" lengthAdjust="spacing" textLength="81" x="12" y="169.309">Description</text><text fill="#000000" font-family="sans-serif" font-size="13" lengthAdjust="spacing" textLength="362" x="12" y="187.0151">An artifact is a distinct article or unit within the digital domain,</text><text fill="#000000" font-family="sans-serif" font-size="13" lengthAdjust="spacing" textLength="415" x="12" y="204.7211">such as an electronic file, a software package, a device or an element</text><text fill="#000000" font-family="sans-serif" font-size="13" lengthAdjust="spacing" textLength="45" x="12" y="222.4271">of data.</text><text fill="#000000" font-family="sans-serif" font-size="13" lengthAdjust="spacing" textLength="3" x="12" y="240.1331">&#160;</text></g><!--class Element--><g id="elem_Element"><rect fill="#F1F1F1" height="48" id="Element" rx="2.5" ry="2.5" style="stroke:#181818;stroke-width:0.5;" width="86" x="477" y="158"/><ellipse cx="492" cy="174" fill="#ADD1B2" rx="11" ry="11" style="stroke:#181818;stroke-width:1.0;"/><path d="M491.7969,180.7344 Q489.3125,180.7344 487.9844,179.0938 Q486.6719,177.4219 486.6719,174.3125 Q486.6719,171.1875 487.9844,169.5313 Q489.3125,167.875 491.7969,167.875 Q492.5156,167.875 493.1719,168.0313 Q493.8125,168.1875 494.375,168.4844 L494.375,171.2031 Q494.0156,170.8594 493.7188,170.6719 Q493.4219,170.4688 493.1563,170.3438 Q492.8438,170.2031 492.5313,170.1406 Q492.2344,170.0781 491.9219,170.0781 Q490.5938,170.0781 489.9063,171.1406 Q489.2188,172.2344 489.2188,174.3125 Q489.2188,176.4063 489.9063,177.4688 Q490.5938,178.5469 491.9219,178.5469 Q492.5625,178.5469 493.1563,178.2656 Q493.4531,178.1406 493.7344,177.9531 Q494.0313,177.75 494.375,177.4219 L494.375,180.1406 Q493.7969,180.4375 493.1563,180.5938 Q492.5156,180.7344 491.7969,180.7344 Z " fill="#000000"/><text fill="#000000" font-family="sans-serif" font-size="14" lengthAdjust="spacing" textLength="54" x="506" y="179.432">Element</text><line style="stroke:#181818;stroke-width:0.5;" x1="478" x2="562" y1="190" y2="190"/><line style="stroke:#181818;stroke-width:0.5;" x1="478" x2="562" y1="198" y2="198"/></g><!--class Identity--><g id="elem_Identity"><rect fill="#F1F1F1" height="48" id="Identity" rx="2.5" ry="2.5" style="stroke:#181818;stroke-width:0.5;" width="83" x="574.5" y="7"/><ellipse cx="589.5" cy="23" fill="#ADD1B2" rx="11" ry="11" style="stroke:#181818;stroke-width:1.0;"/><path d="M589.2969,29.7344 Q586.8125,29.7344 585.4844,28.0938 Q584.1719,26.4219 584.1719,23.3125 Q584.1719,20.1875 585.4844,18.5313 Q586.8125,16.875 589.2969,16.875 Q590.0156,16.875 590.6719,17.0313 Q591.3125,17.1875 591.875,17.4844 L591.875,20.2031 Q591.5156,19.8594 591.2188,19.6719 Q590.9219,19.4688 590.6563,19.3438 Q590.3438,19.2031 590.0313,19.1406 Q589.7344,19.0781 589.4219,19.0781 Q588.0938,19.0781 587.4063,20.1406 Q586.7188,21.2344 586.7188,23.3125 Q586.7188,25.4063 587.4063,26.4688 Q588.0938,27.5469 589.4219,27.5469 Q590.0625,27.5469 590.6563,27.2656 Q590.9531,27.1406 591.2344,26.9531 Q591.5313,26.75 591.875,26.4219 L591.875,29.1406 Q591.2969,29.4375 590.6563,29.5938 Q590.0156,29.7344 589.2969,29.7344 Z " fill="#000000"/><text fill="#000000" font-family="sans-serif" font-size="14" lengthAdjust="spacing" textLength="51" x="603.5" y="28.432">Identity</text><line style="stroke:#181818;stroke-width:0.5;" x1="575.5" x2="656.5" y1="39" y2="39"/><line style="stroke:#181818;stroke-width:0.5;" x1="575.5" x2="656.5" y1="47" y2="47"/></g><!--reverse link Element to Artifact--><g id="link_Element_Artifact"><path codeLine="18" d="M520,227.63 C520,251.38 520,281.36 520,309.26 " fill="none" id="Element-backto-Artifact" style="stroke:#181818;stroke-width:4.0;"/><polygon fill="none" points="513,227.79,520,207.79,527,227.79,513,227.79" style="stroke:#181818;stroke-width:4.0;"/></g><!--reverse link Identity to Artifact--><g id="link_Identity_Artifact"><path codeLine="19" d="M628.01,61.23 C666.29,158.02 773.69,462 613,462 " fill="none" id="Identity-backto-Artifact" style="stroke:#181818;stroke-width:1.0;"/><polygon fill="#181818" points="626.26,56.83,625.8625,66.6708,628.1046,61.4773,633.2982,63.7194,626.26,56.83" style="stroke:#181818;stroke-width:1.0;"/></g><!--SRC=[dP4nRy8m48Lt_ufJPk9sw8Ge4XKTc3em8eQBSu4JpZcoBqMexN-l7K1bhYVRxxtFzZCsIICwXLLKxihaorWBFIcsg0ZM6iXZ8qbHbB5Xptg1EQnkmKdUZetpcD97bvLtJpt9LH3igPXly88UOXWehodTuI7oWGMLshT2thGvNGxPFLkxDpz6WX9e621qVwH5izoEVO_nidXgbcO5BITboG_0R76UCXP6OOKpwv45z4ZPSs153steaSKMo9gIYpme1xc2P09CLN02_0TtPjBeZe0vBK2UdCOWxA1ZJxDCJA7JCqQ20Tq93zDUIv_i9lOrCpMOtri-mHf3qaAfmLItTYjOVDUxV05t4ahfzMLVGtKlfpBLlSJig-i7QJv_RBlw1G00]--></g></svg>