<?xml version="1.0" encoding="us-ascii" standalone="no"?><svg xmlns="http://www.w3.org/2000/svg" xmlns:xlink="http://www.w3.org/1999/xlink" contentStyleType="text/css" height="309px" preserveAspectRatio="none" style="width:654px;height:309px;background:#FFFFFF;" version="1.1" viewBox="0 0 654 309" width="654px" zoomAndPan="magnify"><defs/><g><!--class Bom--><g id="elem_Bom"><rect codeLine="1" fill="#F1F1F1" height="148.8735" id="Bom" rx="2.5" ry="2.5" style="stroke:#181818;stroke-width:0.5;" width="172" x="7" y="134"/><ellipse cx="72.75" cy="150" fill="#ADD1B2" rx="11" ry="11" style="stroke:#181818;stroke-width:1.0;"/><path d="M72.5469,156.7344 Q70.0625,156.7344 68.7344,155.0938 Q67.4219,153.4219 67.4219,150.3125 Q67.4219,147.1875 68.7344,145.5313 Q70.0625,143.875 72.5469,143.875 Q73.2656,143.875 73.9219,144.0313 Q74.5625,144.1875 75.125,144.4844 L75.125,147.2031 Q74.7656,146.8594 74.4688,146.6719 Q74.1719,146.4688 73.9063,146.3438 Q73.5938,146.2031 73.2813,146.1406 Q72.9844,146.0781 72.6719,146.0781 Q71.3438,146.0781 70.6563,147.1406 Q69.9688,148.2344 69.9688,150.3125 Q69.9688,152.4063 70.6563,153.4688 Q71.3438,154.5469 72.6719,154.5469 Q73.3125,154.5469 73.9063,154.2656 Q74.2031,154.1406 74.4844,153.9531 Q74.7813,153.75 75.125,153.4219 L75.125,156.1406 Q74.5469,156.4375 73.9063,156.5938 Q73.2656,156.7344 72.5469,156.7344 Z " fill="#000000"/><text fill="#000000" font-family="sans-serif" font-size="14" lengthAdjust="spacing" textLength="32" x="93.25" y="155.432">Bom</text><line style="stroke:#181818;stroke-width:0.5;" x1="8" x2="178" y1="166" y2="166"/><text fill="#000000" font-family="sans-serif" font-size="14" lengthAdjust="spacing" textLength="160" x="13" y="208.0339">Instantiability : Concrete</text><text fill="#000000" font-family="sans-serif" font-size="14" lengthAdjust="spacing" textLength="128" x="13" y="227.1018">SubclassOf : Bundle</text><text fill="#000000" font-family="sans-serif" font-size="14" lengthAdjust="spacing" textLength="80" x="13" y="246.1697">name : Bom</text><line style="stroke:#181818;stroke-width:1.0;stroke-dasharray:1.0,2.0;" x1="8" x2="60.5" y1="183.534" y2="183.534"/><text fill="#000000" font-family="sans-serif" font-size="14" lengthAdjust="spacing" textLength="65" x="60.5" y="188.4659">metadata</text><line style="stroke:#181818;stroke-width:1.0;stroke-dasharray:1.0,2.0;" x1="125.5" x2="178" y1="183.534" y2="183.534"/><line style="stroke:#181818;stroke-width:1.0;stroke-dasharray:1.0,2.0;" x1="8" x2="59.5" y1="263.8056" y2="263.8056"/><text fill="#000000" font-family="sans-serif" font-size="14" lengthAdjust="spacing" textLength="67" x="59.5" y="268.7376">properties</text><line style="stroke:#181818;stroke-width:1.0;stroke-dasharray:1.0,2.0;" x1="126.5" x2="178" y1="263.8056" y2="263.8056"/></g><g id="elem_GMN3"><path d="M214.5,115 L214.5,204.5 L179.48,208.5 L214.5,212.5 L214.5,302.0602 A0,0 0 0 0 214.5,302.0602 L647.5,302.0602 A0,0 0 0 0 647.5,302.0602 L647.5,125 L637.5,115 L214.5,115 A0,0 0 0 0 214.5,115 " fill="#FEFFDD" style="stroke:#181818;stroke-width:0.5;"/><path d="M637.5,115 L637.5,125 L647.5,125 L637.5,115 " fill="#FEFFDD" style="stroke:#181818;stroke-width:0.5;"/><text fill="#000000" font-family="sans-serif" font-size="13" font-weight="bold" lengthAdjust="spacing" textLength="62" x="220.5" y="133.897">Summary</text><text fill="#000000" font-family="sans-serif" font-size="13" lengthAdjust="spacing" textLength="412" x="220.5" y="151.603">A container for a grouping of SPDX-3.0 content characterizing details</text><text fill="#000000" font-family="sans-serif" font-size="13" lengthAdjust="spacing" textLength="350" x="220.5" y="169.309">(provenence, composition, licensing, etc.) about a product.</text><text fill="#000000" font-family="sans-serif" font-size="13" font-weight="bold" lengthAdjust="spacing" textLength="81" x="220.5" y="187.0151">Description</text><text fill="#000000" font-family="sans-serif" font-size="13" lengthAdjust="spacing" textLength="391" x="220.5" y="204.7211">A Bill Of Materials (BOM) is a container for a grouping of SPDX-3.0</text><text fill="#000000" font-family="sans-serif" font-size="13" lengthAdjust="spacing" textLength="391" x="220.5" y="222.4271">content characterizing details about a product. This could include</text><text fill="#000000" font-family="sans-serif" font-size="13" lengthAdjust="spacing" textLength="400" x="220.5" y="240.1331">details of the content and composition of the product, provenence</text><text fill="#000000" font-family="sans-serif" font-size="13" lengthAdjust="spacing" textLength="403" x="220.5" y="257.8391">details of the product and/or its composition, licensing information,</text><text fill="#000000" font-family="sans-serif" font-size="13" lengthAdjust="spacing" textLength="221" x="220.5" y="275.5451">known quality or security issues, etc.</text><text fill="#000000" font-family="sans-serif" font-size="13" lengthAdjust="spacing" textLength="3" x="220.5" y="293.2512">&#160;</text></g><!--class Bundle--><g id="elem_Bundle"><rect fill="#F1F1F1" height="48" id="Bundle" rx="2.5" ry="2.5" style="stroke:#181818;stroke-width:0.5;" width="77" x="54.5" y="7"/><ellipse cx="69.5" cy="23" fill="#ADD1B2" rx="11" ry="11" style="stroke:#181818;stroke-width:1.0;"/><path d="M69.2969,29.7344 Q66.8125,29.7344 65.4844,28.0938 Q64.1719,26.4219 64.1719,23.3125 Q64.1719,20.1875 65.4844,18.5313 Q66.8125,16.875 69.2969,16.875 Q70.0156,16.875 70.6719,17.0313 Q71.3125,17.1875 71.875,17.4844 L71.875,20.2031 Q71.5156,19.8594 71.2188,19.6719 Q70.9219,19.4688 70.6563,19.3438 Q70.3438,19.2031 70.0313,19.1406 Q69.7344,19.0781 69.4219,19.0781 Q68.0938,19.0781 67.4063,20.1406 Q66.7188,21.2344 66.7188,23.3125 Q66.7188,25.4063 67.4063,26.4688 Q68.0938,27.5469 69.4219,27.5469 Q70.0625,27.5469 70.6563,27.2656 Q70.9531,27.1406 71.2344,26.9531 Q71.5313,26.75 71.875,26.4219 L71.875,29.1406 Q71.2969,29.4375 70.6563,29.5938 Q70.0156,29.7344 69.2969,29.7344 Z " fill="#000000"/><text fill="#000000" font-family="sans-serif" font-size="14" lengthAdjust="spacing" textLength="45" x="83.5" y="28.432">Bundle</text><line style="stroke:#181818;stroke-width:0.5;" x1="55.5" x2="130.5" y1="39" y2="39"/><line style="stroke:#181818;stroke-width:0.5;" x1="55.5" x2="130.5" y1="47" y2="47"/></g><!--link Bundle to Bom--><g id="link_Bundle_Bom"><path codeLine="20" d="M93,55.31 C93,70.34 93,91 93,112.25 " fill="none" id="Bundle-to-Bom" style="stroke:#181818;stroke-width:1.0;"/><polygon fill="none" points="100,112,93,132,86,112,100,112" style="stroke:#181818;stroke-width:1.0;"/></g><!--SRC=[ZL9DJoCn3BtdLrWzWTGEI7j3g1Ab5mvLL-eUk7eoRcjjnXaIPrSiyDznfkL38D3c5DdlFJz_-80vmoBsyE2Q1dfIx50HciQ1lHl9YgACBGVMUxY0woW-aTAOtfJMLu7rrZAB8bqun0Lxgf7OLz4XnO6ICkKg- -GaAa7YtLuXRaVGPJlVbBx7T7zvrixT5VWeYYoKO1iJ8EnIB0FBhX8sFvUtin_D-GWYKV1xJEYL4l-haCvwu93TYTNzGqBYQMhOVeYPbQDC8R0doOQT0gblJW7RMDJA6AChNfjgQ4dP9nugusXgmI60jRh2MWj3XfF5UdKAd8twFuxTzuu_sO1VUzFsiOGEM7me7RaNhCdgdbvdWDAzx_4bVLIQmjiiFYeS8LNXp9opvY-6PHQijHx7iFijyQ_0NS7nBeoOoPTK_vnpeNmOhNDankh2tUHm7nEOpHxdCB6rJvu1]--></g></svg>