<?xml version="1.0" encoding="us-ascii" standalone="no"?><svg xmlns="http://www.w3.org/2000/svg" xmlns:xlink="http://www.w3.org/1999/xlink" contentStyleType="text/css" height="408px" preserveAspectRatio="none" style="width:558px;height:408px;background:#FFFFFF;" version="1.1" viewBox="0 0 558 408" width="558px" zoomAndPan="magnify"><defs/><g><!--class Bom--><g id="elem_Bom"><rect codeLine="1" fill="#F1F1F1" height="148.8735" id="Bom" rx="2.5" ry="2.5" style="stroke:#181818;stroke-width:0.5;" width="172" x="281.5" y="253"/><ellipse cx="347.25" cy="269" fill="#ADD1B2" rx="11" ry="11" style="stroke:#181818;stroke-width:1.0;"/><path d="M347.0469,275.7344 Q344.5625,275.7344 343.2344,274.0938 Q341.9219,272.4219 341.9219,269.3125 Q341.9219,266.1875 343.2344,264.5313 Q344.5625,262.875 347.0469,262.875 Q347.7656,262.875 348.4219,263.0313 Q349.0625,263.1875 349.625,263.4844 L349.625,266.2031 Q349.2656,265.8594 348.9688,265.6719 Q348.6719,265.4688 348.4063,265.3438 Q348.0938,265.2031 347.7813,265.1406 Q347.4844,265.0781 347.1719,265.0781 Q345.8438,265.0781 345.1563,266.1406 Q344.4688,267.2344 344.4688,269.3125 Q344.4688,271.4063 345.1563,272.4688 Q345.8438,273.5469 347.1719,273.5469 Q347.8125,273.5469 348.4063,273.2656 Q348.7031,273.1406 348.9844,272.9531 Q349.2813,272.75 349.625,272.4219 L349.625,275.1406 Q349.0469,275.4375 348.4063,275.5938 Q347.7656,275.7344 347.0469,275.7344 Z " fill="#000000"/><text fill="#000000" font-family="sans-serif" font-size="14" lengthAdjust="spacing" textLength="32" x="367.75" y="274.432">Bom</text><line style="stroke:#181818;stroke-width:0.5;" x1="282.5" x2="452.5" y1="285" y2="285"/><text fill="#000000" font-family="sans-serif" font-size="14" lengthAdjust="spacing" textLength="160" x="287.5" y="327.0339">Instantiability : Concrete</text><text fill="#000000" font-family="sans-serif" font-size="14" lengthAdjust="spacing" textLength="128" x="287.5" y="346.1018">SubclassOf : Bundle</text><text fill="#000000" font-family="sans-serif" font-size="14" lengthAdjust="spacing" textLength="80" x="287.5" y="365.1697">name : Bom</text><line style="stroke:#181818;stroke-width:1.0;stroke-dasharray:1.0,2.0;" x1="282.5" x2="335" y1="302.534" y2="302.534"/><text fill="#000000" font-family="sans-serif" font-size="14" lengthAdjust="spacing" textLength="65" x="335" y="307.4659">metadata</text><line style="stroke:#181818;stroke-width:1.0;stroke-dasharray:1.0,2.0;" x1="400" x2="452.5" y1="302.534" y2="302.534"/><line style="stroke:#181818;stroke-width:1.0;stroke-dasharray:1.0,2.0;" x1="282.5" x2="334" y1="382.8056" y2="382.8056"/><text fill="#000000" font-family="sans-serif" font-size="14" lengthAdjust="spacing" textLength="67" x="334" y="387.7376">properties</text><line style="stroke:#181818;stroke-width:1.0;stroke-dasharray:1.0,2.0;" x1="401" x2="452.5" y1="382.8056" y2="382.8056"/></g><g id="elem_GMN3"><path d="M6,6 L6,193.0602 A0,0 0 0 0 6,193.0602 L278.1,193.0602 L320.08,252.59 L286.1,193.0602 L439,193.0602 A0,0 0 0 0 439,193.0602 L439,16 L429,6 L6,6 A0,0 0 0 0 6,6 " fill="#FEFFDD" style="stroke:#181818;stroke-width:0.5;"/><path d="M429,6 L429,16 L439,16 L429,6 " fill="#FEFFDD" style="stroke:#181818;stroke-width:0.5;"/><text fill="#000000" font-family="sans-serif" font-size="13" font-weight="bold" lengthAdjust="spacing" textLength="62" x="12" y="24.897">Summary</text><text fill="#000000" font-family="sans-serif" font-size="13" lengthAdjust="spacing" textLength="412" x="12" y="42.603">A container for a grouping of SPDX-3.0 content characterizing details</text><text fill="#000000" font-family="sans-serif" font-size="13" lengthAdjust="spacing" textLength="350" x="12" y="60.309">(provenence, composition, licensing, etc.) about a product.</text><text fill="#000000" font-family="sans-serif" font-size="13" font-weight="bold" lengthAdjust="spacing" textLength="81" x="12" y="78.0151">Description</text><text fill="#000000" font-family="sans-serif" font-size="13" lengthAdjust="spacing" textLength="391" x="12" y="95.7211">A Bill Of Materials (BOM) is a container for a grouping of SPDX-3.0</text><text fill="#000000" font-family="sans-serif" font-size="13" lengthAdjust="spacing" textLength="391" x="12" y="113.4271">content characterizing details about a product. This could include</text><text fill="#000000" font-family="sans-serif" font-size="13" lengthAdjust="spacing" textLength="400" x="12" y="131.1331">details of the content and composition of the product, provenence</text><text fill="#000000" font-family="sans-serif" font-size="13" lengthAdjust="spacing" textLength="403" x="12" y="148.8391">details of the product and/or its composition, licensing information,</text><text fill="#000000" font-family="sans-serif" font-size="13" lengthAdjust="spacing" textLength="221" x="12" y="166.5451">known quality or security issues, etc.</text><text fill="#000000" font-family="sans-serif" font-size="13" lengthAdjust="spacing" textLength="3" x="12" y="184.2512">&#160;</text></g><!--class Bundle--><g id="elem_Bundle"><rect fill="#F1F1F1" height="48" id="Bundle" rx="2.5" ry="2.5" style="stroke:#181818;stroke-width:0.5;" width="77" x="474" y="75.5"/><ellipse cx="489" cy="91.5" fill="#ADD1B2" rx="11" ry="11" style="stroke:#181818;stroke-width:1.0;"/><path d="M488.7969,98.2344 Q486.3125,98.2344 484.9844,96.5938 Q483.6719,94.9219 483.6719,91.8125 Q483.6719,88.6875 484.9844,87.0313 Q486.3125,85.375 488.7969,85.375 Q489.5156,85.375 490.1719,85.5313 Q490.8125,85.6875 491.375,85.9844 L491.375,88.7031 Q491.0156,88.3594 490.7188,88.1719 Q490.4219,87.9688 490.1563,87.8438 Q489.8438,87.7031 489.5313,87.6406 Q489.2344,87.5781 488.9219,87.5781 Q487.5938,87.5781 486.9063,88.6406 Q486.2188,89.7344 486.2188,91.8125 Q486.2188,93.9063 486.9063,94.9688 Q487.5938,96.0469 488.9219,96.0469 Q489.5625,96.0469 490.1563,95.7656 Q490.4531,95.6406 490.7344,95.4531 Q491.0313,95.25 491.375,94.9219 L491.375,97.6406 Q490.7969,97.9375 490.1563,98.0938 Q489.5156,98.2344 488.7969,98.2344 Z " fill="#000000"/><text fill="#000000" font-family="sans-serif" font-size="14" lengthAdjust="spacing" textLength="45" x="503" y="96.932">Bundle</text><line style="stroke:#181818;stroke-width:0.5;" x1="475" x2="550" y1="107.5" y2="107.5"/><line style="stroke:#181818;stroke-width:0.5;" x1="475" x2="550" y1="115.5" y2="115.5"/></g><!--reverse link Bundle to Bom--><g id="link_Bundle_Bom"><path codeLine="20" d="M487.78,142.21 C478.16,158.19 466.97,176.53 456.5,193 C444.1,212.51 430.38,233.41 417.51,252.73 " fill="none" id="Bundle-backto-Bom" style="stroke:#181818;stroke-width:1.0;"/><polygon fill="none" points="481.7,138.74,497.96,125.16,493.71,145.92,481.7,138.74" style="stroke:#181818;stroke-width:1.0;"/></g><!--SRC=[ZLBBJWCn3BpdAwoUG6eN96weGg9muO10AWUktgnBBRBEaZWWNl-EioqFWK3a5Dapu_731ymP5h67PzSqq9DYXuhGD0xidKbM56LiER0-mY6SHF69bCRqihI-2boiBBCeqeLDNB2d6ebz5HrI72WfKwwohqwY4cWS8Av6oBmzMfQ-n_GutskFt37uA8eib60L4o3Sf5W6bfjAM5wUNiyEclqHHABWrvZGAoL-gf3EEk2GtOvLlISXyJGrR3_4pCfHfX3OasJ3Je7KDxk0RIngPOpH5QzDDNHAsISUAcDhQi4XW3LwZhKMXWmxYulpNU1irFyuTdyx_c43hjQcxMC97R3uK3foxrYJrJLzp02b-zhZUtghD8NFMNnNs4AgmfuvPys_3CiiM6izZc5tA_51uAxWU1L6pEHBgd_EkL3UZDOvCcDrtMwokOu9p5zcCvZOsYTl]--></g></svg>