<?xml version="1.0" encoding="us-ascii" standalone="no"?><svg xmlns="http://www.w3.org/2000/svg" xmlns:xlink="http://www.w3.org/1999/xlink" contentStyleType="text/css" height="334px" preserveAspectRatio="none" style="width:301px;height:334px;background:#FFFFFF;" version="1.1" viewBox="0 0 301 334" width="301px" zoomAndPan="magnify"><defs/><g><!--class Bundle--><g id="elem_Bundle"><rect codeLine="1" fill="#F1F1F1" height="162.4075" id="Bundle" rx="2.5" ry="2.5" style="stroke:#181818;stroke-width:0.5;" width="214" x="31" y="165"/><ellipse cx="111.25" cy="181" fill="#ADD1B2" rx="11" ry="11" style="stroke:#181818;stroke-width:1.0;"/><path d="M111.0469,187.7344 Q108.5625,187.7344 107.2344,186.0938 Q105.9219,184.4219 105.9219,181.3125 Q105.9219,178.1875 107.2344,176.5313 Q108.5625,174.875 111.0469,174.875 Q111.7656,174.875 112.4219,175.0313 Q113.0625,175.1875 113.625,175.4844 L113.625,178.2031 Q113.2656,177.8594 112.9688,177.6719 Q112.6719,177.4688 112.4063,177.3438 Q112.0938,177.2031 111.7813,177.1406 Q111.4844,177.0781 111.1719,177.0781 Q109.8438,177.0781 109.1563,178.1406 Q108.4688,179.2344 108.4688,181.3125 Q108.4688,183.4063 109.1563,184.4688 Q109.8438,185.5469 111.1719,185.5469 Q111.8125,185.5469 112.4063,185.2656 Q112.7031,185.1406 112.9844,184.9531 Q113.2813,184.75 113.625,184.4219 L113.625,187.1406 Q113.0469,187.4375 112.4063,187.5938 Q111.7656,187.7344 111.0469,187.7344 Z " fill="#000000"/><text fill="#000000" font-family="sans-serif" font-size="14" lengthAdjust="spacing" textLength="45" x="131.75" y="186.432">Bundle</text><line style="stroke:#181818;stroke-width:0.5;" x1="32" x2="244" y1="197" y2="197"/><text fill="#000000" font-family="sans-serif" font-size="14" lengthAdjust="spacing" textLength="160" x="37" y="239.0339">Instantiability : Concrete</text><text fill="#000000" font-family="sans-serif" font-size="14" lengthAdjust="spacing" textLength="202" x="37" y="258.1018">SubclassOf : ElementCollection</text><text fill="#000000" font-family="sans-serif" font-size="14" lengthAdjust="spacing" textLength="93" x="37" y="277.1697">name : Bundle</text><line style="stroke:#181818;stroke-width:1.0;stroke-dasharray:1.0,2.0;" x1="32" x2="105.5" y1="214.534" y2="214.534"/><text fill="#000000" font-family="sans-serif" font-size="14" lengthAdjust="spacing" textLength="65" x="105.5" y="219.4659">metadata</text><line style="stroke:#181818;stroke-width:1.0;stroke-dasharray:1.0,2.0;" x1="170.5" x2="244" y1="214.534" y2="214.534"/><text fill="#000000" font-family="sans-serif" font-size="14" lengthAdjust="spacing" textLength="124" x="37" y="319.3055">context : xsd:string</text><line style="stroke:#181818;stroke-width:1.0;stroke-dasharray:1.0,2.0;" x1="32" x2="104.5" y1="294.8056" y2="294.8056"/><text fill="#000000" font-family="sans-serif" font-size="14" lengthAdjust="spacing" textLength="67" x="104.5" y="299.7376">properties</text><line style="stroke:#181818;stroke-width:1.0;stroke-dasharray:1.0,2.0;" x1="171.5" x2="244" y1="294.8056" y2="294.8056"/></g><g id="elem_GMN3"><path d="M6,6 L6,104.5301 A0,0 0 0 0 6,104.5301 L73.86,104.5301 L103.54,164.81 L81.86,104.5301 L108,104.5301 A0,0 0 0 0 108,104.5301 L108,16 L98,6 L6,6 A0,0 0 0 0 6,6 " fill="#FEFFDD" style="stroke:#181818;stroke-width:0.5;"/><path d="M98,6 L98,16 L108,16 L98,6 " fill="#FEFFDD" style="stroke:#181818;stroke-width:0.5;"/><text fill="#000000" font-family="sans-serif" font-size="13" font-weight="bold" lengthAdjust="spacing" textLength="62" x="12" y="24.897">Summary</text><text fill="#000000" font-family="sans-serif" font-size="13" lengthAdjust="spacing" textLength="38" x="12" y="42.603">TODO</text><text fill="#000000" font-family="sans-serif" font-size="13" font-weight="bold" lengthAdjust="spacing" textLength="81" x="12" y="60.309">Description</text><text fill="#000000" font-family="sans-serif" font-size="13" lengthAdjust="spacing" textLength="38" x="12" y="78.0151">TODO</text><text fill="#000000" font-family="sans-serif" font-size="13" lengthAdjust="spacing" textLength="3" x="12" y="95.7211">&#160;</text></g><!--class ElementCollection--><g id="elem_ElementCollection"><rect fill="#F1F1F1" height="48" id="ElementCollection" rx="2.5" ry="2.5" style="stroke:#181818;stroke-width:0.5;" width="151" x="143.5" y="31.5"/><ellipse cx="158.5" cy="47.5" fill="#ADD1B2" rx="11" ry="11" style="stroke:#181818;stroke-width:1.0;"/><path d="M158.2969,54.2344 Q155.8125,54.2344 154.4844,52.5938 Q153.1719,50.9219 153.1719,47.8125 Q153.1719,44.6875 154.4844,43.0313 Q155.8125,41.375 158.2969,41.375 Q159.0156,41.375 159.6719,41.5313 Q160.3125,41.6875 160.875,41.9844 L160.875,44.7031 Q160.5156,44.3594 160.2188,44.1719 Q159.9219,43.9688 159.6563,43.8438 Q159.3438,43.7031 159.0313,43.6406 Q158.7344,43.5781 158.4219,43.5781 Q157.0938,43.5781 156.4063,44.6406 Q155.7188,45.7344 155.7188,47.8125 Q155.7188,49.9063 156.4063,50.9688 Q157.0938,52.0469 158.4219,52.0469 Q159.0625,52.0469 159.6563,51.7656 Q159.9531,51.6406 160.2344,51.4531 Q160.5313,51.25 160.875,50.9219 L160.875,53.6406 Q160.2969,53.9375 159.6563,54.0938 Q159.0156,54.2344 158.2969,54.2344 Z " fill="#000000"/><text fill="#000000" font-family="sans-serif" font-size="14" lengthAdjust="spacing" textLength="119" x="172.5" y="52.932">ElementCollection</text><line style="stroke:#181818;stroke-width:0.5;" x1="144.5" x2="293.5" y1="63.5" y2="63.5"/><line style="stroke:#181818;stroke-width:0.5;" x1="144.5" x2="293.5" y1="71.5" y2="71.5"/></g><!--reverse link ElementCollection to Bundle--><g id="link_ElementCollection_Bundle"><path codeLine="16" d="M200.54,99.45 C192.23,118.79 182.14,142.28 172.51,164.69 " fill="none" id="ElementCollection-backto-Bundle" style="stroke:#181818;stroke-width:1.0;"/><polygon fill="none" points="193.98,96.99,208.31,81.38,206.84,102.52,193.98,96.99" style="stroke:#181818;stroke-width:1.0;"/></g><!--SRC=[POwn3eCm34JtV8N53jqHOYXqwCH0Vo09fegKE2Wn4gZjlvU0K8Twl3lVEsrbZ72TQR08Br4Ku93b85b2KGZOxawH9R6HobZ3AvJGUD816NUxdvLE7TsuEJUB3eaRRorgDfxs24c7ctb04c8AViB01kC9qPuO5zvIInpAoC7GKtm4UKPWFu4Vp_TArVtid0nhTL6rU7HjbxGMemvcIioVBf06I1qY-rkMGVNESyYEskmB]--></g></svg>