<?xml version="1.0" encoding="us-ascii" standalone="no"?><svg xmlns="http://www.w3.org/2000/svg" xmlns:xlink="http://www.w3.org/1999/xlink" contentStyleType="text/css" height="504px" preserveAspectRatio="none" style="width:491px;height:504px;background:#FFFFFF;" version="1.1" viewBox="0 0 491 504" width="491px" zoomAndPan="magnify"><defs/><g><!--class CreationInformation--><g id="elem_CreationInformation"><rect codeLine="1" fill="#F1F1F1" height="219.6113" id="CreationInformation" rx="2.5" ry="2.5" style="stroke:#181818;stroke-width:0.5;" width="195" x="114.5" y="278"/><ellipse cx="142.1" cy="294" fill="#ADD1B2" rx="11" ry="11" style="stroke:#181818;stroke-width:1.0;"/><path d="M141.8969,300.7344 Q139.4125,300.7344 138.0844,299.0938 Q136.7719,297.4219 136.7719,294.3125 Q136.7719,291.1875 138.0844,289.5313 Q139.4125,287.875 141.8969,287.875 Q142.6156,287.875 143.2719,288.0313 Q143.9125,288.1875 144.475,288.4844 L144.475,291.2031 Q144.1156,290.8594 143.8188,290.6719 Q143.5219,290.4688 143.2563,290.3438 Q142.9438,290.2031 142.6313,290.1406 Q142.3344,290.0781 142.0219,290.0781 Q140.6938,290.0781 140.0063,291.1406 Q139.3188,292.2344 139.3188,294.3125 Q139.3188,296.4063 140.0063,297.4688 Q140.6938,298.5469 142.0219,298.5469 Q142.6625,298.5469 143.2563,298.2656 Q143.5531,298.1406 143.8344,297.9531 Q144.1313,297.75 144.475,297.4219 L144.475,300.1406 Q143.8969,300.4375 143.2563,300.5938 Q142.6156,300.7344 141.8969,300.7344 Z " fill="#000000"/><text fill="#000000" font-family="sans-serif" font-size="14" lengthAdjust="spacing" textLength="135" x="158.9" y="299.432">CreationInformation</text><line style="stroke:#181818;stroke-width:0.5;" x1="115.5" x2="308.5" y1="310" y2="310"/><text fill="#000000" font-family="sans-serif" font-size="14" lengthAdjust="spacing" textLength="160" x="120.5" y="352.0339">Instantiability : Concrete</text><text fill="#000000" font-family="sans-serif" font-size="14" lengthAdjust="spacing" textLength="183" x="120.5" y="371.1018">name : CreationInformation</text><line style="stroke:#181818;stroke-width:1.0;stroke-dasharray:1.0,2.0;" x1="115.5" x2="179.5" y1="327.534" y2="327.534"/><text fill="#000000" font-family="sans-serif" font-size="14" lengthAdjust="spacing" textLength="65" x="179.5" y="332.4659">metadata</text><line style="stroke:#181818;stroke-width:1.0;stroke-dasharray:1.0,2.0;" x1="244.5" x2="308.5" y1="327.534" y2="327.534"/><text fill="#000000" font-family="sans-serif" font-size="14" lengthAdjust="spacing" textLength="149" x="120.5" y="413.2376">created : xsd:dateTime</text><text fill="#000000" font-family="sans-serif" font-size="14" lengthAdjust="spacing" textLength="67" x="120.5" y="432.3055">createdBy</text><text fill="#000000" font-family="sans-serif" font-size="14" lengthAdjust="spacing" textLength="152" x="120.5" y="451.3734">dataLicense : xsd:string</text><text fill="#000000" font-family="sans-serif" font-size="14" lengthAdjust="spacing" textLength="41" x="120.5" y="470.4414">profile</text><text fill="#000000" font-family="sans-serif" font-size="14" lengthAdjust="spacing" textLength="78" x="120.5" y="489.5093">specVersion</text><line style="stroke:#181818;stroke-width:1.0;stroke-dasharray:1.0,2.0;" x1="115.5" x2="178.5" y1="388.7377" y2="388.7377"/><text fill="#000000" font-family="sans-serif" font-size="14" lengthAdjust="spacing" textLength="67" x="178.5" y="393.6697">properties</text><line style="stroke:#181818;stroke-width:1.0;stroke-dasharray:1.0,2.0;" x1="245.5" x2="308.5" y1="388.7377" y2="388.7377"/></g><g id="elem_GMN3"><path d="M6,115 L6,213.5301 A0,0 0 0 0 6,213.5301 L87.21,213.5301 L133.13,274.05 L95.21,213.5301 L108,213.5301 A0,0 0 0 0 108,213.5301 L108,125 L98,115 L6,115 A0,0 0 0 0 6,115 " fill="#FEFFDD" style="stroke:#181818;stroke-width:0.5;"/><path d="M98,115 L98,125 L108,125 L98,115 " fill="#FEFFDD" style="stroke:#181818;stroke-width:0.5;"/><text fill="#000000" font-family="sans-serif" font-size="13" font-weight="bold" lengthAdjust="spacing" textLength="62" x="12" y="133.897">Summary</text><text fill="#000000" font-family="sans-serif" font-size="13" lengthAdjust="spacing" textLength="38" x="12" y="151.603">TODO</text><text fill="#000000" font-family="sans-serif" font-size="13" font-weight="bold" lengthAdjust="spacing" textLength="81" x="12" y="169.309">Description</text><text fill="#000000" font-family="sans-serif" font-size="13" lengthAdjust="spacing" textLength="38" x="12" y="187.0151">TODO</text><text fill="#000000" font-family="sans-serif" font-size="13" lengthAdjust="spacing" textLength="3" x="12" y="204.7211">&#160;</text></g><!--class Entity--><g id="elem_Entity"><rect fill="#F1F1F1" height="48" id="Entity" rx="2.5" ry="2.5" style="stroke:#181818;stroke-width:0.5;" width="70" x="93" y="7"/><ellipse cx="108" cy="23" fill="#ADD1B2" rx="11" ry="11" style="stroke:#181818;stroke-width:1.0;"/><path d="M107.7969,29.7344 Q105.3125,29.7344 103.9844,28.0938 Q102.6719,26.4219 102.6719,23.3125 Q102.6719,20.1875 103.9844,18.5313 Q105.3125,16.875 107.7969,16.875 Q108.5156,16.875 109.1719,17.0313 Q109.8125,17.1875 110.375,17.4844 L110.375,20.2031 Q110.0156,19.8594 109.7188,19.6719 Q109.4219,19.4688 109.1563,19.3438 Q108.8438,19.2031 108.5313,19.1406 Q108.2344,19.0781 107.9219,19.0781 Q106.5938,19.0781 105.9063,20.1406 Q105.2188,21.2344 105.2188,23.3125 Q105.2188,25.4063 105.9063,26.4688 Q106.5938,27.5469 107.9219,27.5469 Q108.5625,27.5469 109.1563,27.2656 Q109.4531,27.1406 109.7344,26.9531 Q110.0313,26.75 110.375,26.4219 L110.375,29.1406 Q109.7969,29.4375 109.1563,29.5938 Q108.5156,29.7344 107.7969,29.7344 Z " fill="#000000"/><text fill="#000000" font-family="sans-serif" font-size="14" lengthAdjust="spacing" textLength="38" x="122" y="28.432">Entity</text><line style="stroke:#181818;stroke-width:0.5;" x1="94" x2="162" y1="39" y2="39"/><line style="stroke:#181818;stroke-width:0.5;" x1="94" x2="162" y1="47" y2="47"/></g><!--class ProfileIdentifier--><g id="elem_ProfileIdentifier"><rect fill="#F1F1F1" height="48" id="ProfileIdentifier" rx="2.5" ry="2.5" style="stroke:#181818;stroke-width:0.5;" width="133" x="198.5" y="7"/><ellipse cx="213.5" cy="23" fill="#ADD1B2" rx="11" ry="11" style="stroke:#181818;stroke-width:1.0;"/><path d="M213.2969,29.7344 Q210.8125,29.7344 209.4844,28.0938 Q208.1719,26.4219 208.1719,23.3125 Q208.1719,20.1875 209.4844,18.5313 Q210.8125,16.875 213.2969,16.875 Q214.0156,16.875 214.6719,17.0313 Q215.3125,17.1875 215.875,17.4844 L215.875,20.2031 Q215.5156,19.8594 215.2188,19.6719 Q214.9219,19.4688 214.6563,19.3438 Q214.3438,19.2031 214.0313,19.1406 Q213.7344,19.0781 213.4219,19.0781 Q212.0938,19.0781 211.4063,20.1406 Q210.7188,21.2344 210.7188,23.3125 Q210.7188,25.4063 211.4063,26.4688 Q212.0938,27.5469 213.4219,27.5469 Q214.0625,27.5469 214.6563,27.2656 Q214.9531,27.1406 215.2344,26.9531 Q215.5313,26.75 215.875,26.4219 L215.875,29.1406 Q215.2969,29.4375 214.6563,29.5938 Q214.0156,29.7344 213.2969,29.7344 Z " fill="#000000"/><text fill="#000000" font-family="sans-serif" font-size="14" lengthAdjust="spacing" textLength="101" x="227.5" y="28.432">ProfileIdentifier</text><line style="stroke:#181818;stroke-width:0.5;" x1="199.5" x2="330.5" y1="39" y2="39"/><line style="stroke:#181818;stroke-width:0.5;" x1="199.5" x2="330.5" y1="47" y2="47"/></g><!--class SemVer--><g id="elem_SemVer"><rect fill="#F1F1F1" height="48" id="SemVer" rx="2.5" ry="2.5" style="stroke:#181818;stroke-width:0.5;" width="82" x="367" y="7"/><ellipse cx="382" cy="23" fill="#ADD1B2" rx="11" ry="11" style="stroke:#181818;stroke-width:1.0;"/><path d="M381.7969,29.7344 Q379.3125,29.7344 377.9844,28.0938 Q376.6719,26.4219 376.6719,23.3125 Q376.6719,20.1875 377.9844,18.5313 Q379.3125,16.875 381.7969,16.875 Q382.5156,16.875 383.1719,17.0313 Q383.8125,17.1875 384.375,17.4844 L384.375,20.2031 Q384.0156,19.8594 383.7188,19.6719 Q383.4219,19.4688 383.1563,19.3438 Q382.8438,19.2031 382.5313,19.1406 Q382.2344,19.0781 381.9219,19.0781 Q380.5938,19.0781 379.9063,20.1406 Q379.2188,21.2344 379.2188,23.3125 Q379.2188,25.4063 379.9063,26.4688 Q380.5938,27.5469 381.9219,27.5469 Q382.5625,27.5469 383.1563,27.2656 Q383.4531,27.1406 383.7344,26.9531 Q384.0313,26.75 384.375,26.4219 L384.375,29.1406 Q383.7969,29.4375 383.1563,29.5938 Q382.5156,29.7344 381.7969,29.7344 Z " fill="#000000"/><text fill="#000000" font-family="sans-serif" font-size="14" lengthAdjust="spacing" textLength="50" x="396" y="28.432">SemVer</text><line style="stroke:#181818;stroke-width:0.5;" x1="368" x2="448" y1="39" y2="39"/><line style="stroke:#181818;stroke-width:0.5;" x1="368" x2="448" y1="47" y2="47"/></g><!--reverse link Entity to CreationInformation--><g id="link_Entity_CreationInformation"><path codeLine="19" d="M128.86,61.75 C129.6,97.85 129.87,160.52 125,214 C122.55,240.92 117.32,247.07 115,274 C109.15,341.97 45.78,427.5 114,427.5 " fill="none" id="Entity-backto-CreationInformation" style="stroke:#181818;stroke-width:1.0;"/><polygon fill="#181818" points="128.75,56.84,124.9567,65.9291,128.8643,61.8387,132.9546,65.7462,128.75,56.84" style="stroke:#181818;stroke-width:1.0;"/></g><!--reverse link ProfileIdentifier to CreationInformation--><g id="link_ProfileIdentifier_CreationInformation"><path codeLine="20" d="M280.2,60.84 C329.74,157.73 474.25,465.5 311,465.5 " fill="none" id="ProfileIdentifier-backto-CreationInformation" style="stroke:#181818;stroke-width:1.0;"/><polygon fill="#181818" points="278.04,56.65,278.6004,66.4829,280.3274,61.0961,285.7142,62.8231,278.04,56.65" style="stroke:#181818;stroke-width:1.0;"/></g><!--reverse link SemVer to CreationInformation--><g id="link_SemVer_CreationInformation"><path codeLine="21" d="M414.34,61.68 C434.28,162.34 484.55,484.5 311,484.5 " fill="none" id="SemVer-backto-CreationInformation" style="stroke:#181818;stroke-width:1.0;"/><polygon fill="#181818" points="413.38,56.86,411.2281,66.4709,414.3633,61.7624,419.0719,64.8976,413.38,56.86" style="stroke:#181818;stroke-width:1.0;"/></g><!--SRC=[XL0zQyCm4DtrAmxjTdTZCZJfO2Waa91Tbixbm3e9wGerfV-zafEsWOPMa_I-xftiR7A6RK8Z57ZWAII_Nk5TjIru5EEC66XR1UKCdCMma1bf9bcWWsrWcr1mfTbuhDZlk1eMKuYOX31_nTagH5SiRzbrPH2UoECjzRYihzhXcInongiuIo9-MScIEz5yiUM8zemfrv4VYeCWI8WGfhkb-d5pVFNUfAL_63VgjD_jAxR3R1F5Ald15RA36gZqK_a1MJJqJTE0lXFSTT_rjTA7Ix_1OV5DXEbFvtMRuZkYF_yZlbbNVm80]--></g></svg>