<?xml version="1.0" encoding="us-ascii" standalone="no"?><svg xmlns="http://www.w3.org/2000/svg" xmlns:xlink="http://www.w3.org/1999/xlink" contentStyleType="text/css" height="345px" preserveAspectRatio="none" style="width:437px;height:345px;background:#FFFFFF;" version="1.1" viewBox="0 0 437 345" width="437px" zoomAndPan="magnify"><defs/><g><!--class CreationInformation--><g id="elem_CreationInformation"><rect codeLine="1" fill="#F1F1F1" height="219.6113" id="CreationInformation" rx="2.5" ry="2.5" style="stroke:#181818;stroke-width:0.5;" width="195" x="89.52" y="119"/><ellipse cx="117.12" cy="135" fill="#ADD1B2" rx="11" ry="11" style="stroke:#181818;stroke-width:1.0;"/><path d="M116.9169,141.7344 Q114.4325,141.7344 113.1044,140.0938 Q111.7919,138.4219 111.7919,135.3125 Q111.7919,132.1875 113.1044,130.5313 Q114.4325,128.875 116.9169,128.875 Q117.6356,128.875 118.2919,129.0313 Q118.9325,129.1875 119.495,129.4844 L119.495,132.2031 Q119.1356,131.8594 118.8387,131.6719 Q118.5419,131.4688 118.2762,131.3438 Q117.9637,131.2031 117.6512,131.1406 Q117.3544,131.0781 117.0419,131.0781 Q115.7137,131.0781 115.0262,132.1406 Q114.3387,133.2344 114.3387,135.3125 Q114.3387,137.4063 115.0262,138.4688 Q115.7137,139.5469 117.0419,139.5469 Q117.6825,139.5469 118.2762,139.2656 Q118.5731,139.1406 118.8544,138.9531 Q119.1512,138.75 119.495,138.4219 L119.495,141.1406 Q118.9169,141.4375 118.2762,141.5938 Q117.6356,141.7344 116.9169,141.7344 Z " fill="#000000"/><text fill="#000000" font-family="sans-serif" font-size="14" lengthAdjust="spacing" textLength="135" x="133.92" y="140.432">CreationInformation</text><line style="stroke:#181818;stroke-width:0.5;" x1="90.52" x2="283.52" y1="151" y2="151"/><text fill="#000000" font-family="sans-serif" font-size="14" lengthAdjust="spacing" textLength="160" x="95.52" y="193.0339">Instantiability : Concrete</text><text fill="#000000" font-family="sans-serif" font-size="14" lengthAdjust="spacing" textLength="183" x="95.52" y="212.1018">name : CreationInformation</text><line style="stroke:#181818;stroke-width:1.0;stroke-dasharray:1.0,2.0;" x1="90.52" x2="154.52" y1="168.534" y2="168.534"/><text fill="#000000" font-family="sans-serif" font-size="14" lengthAdjust="spacing" textLength="65" x="154.52" y="173.4659">metadata</text><line style="stroke:#181818;stroke-width:1.0;stroke-dasharray:1.0,2.0;" x1="219.52" x2="283.52" y1="168.534" y2="168.534"/><text fill="#000000" font-family="sans-serif" font-size="14" lengthAdjust="spacing" textLength="149" x="95.52" y="254.2376">created : xsd:dateTime</text><text fill="#000000" font-family="sans-serif" font-size="14" lengthAdjust="spacing" textLength="67" x="95.52" y="273.3055">createdBy</text><text fill="#000000" font-family="sans-serif" font-size="14" lengthAdjust="spacing" textLength="152" x="95.52" y="292.3734">dataLicense : xsd:string</text><text fill="#000000" font-family="sans-serif" font-size="14" lengthAdjust="spacing" textLength="41" x="95.52" y="311.4414">profile</text><text fill="#000000" font-family="sans-serif" font-size="14" lengthAdjust="spacing" textLength="78" x="95.52" y="330.5093">specVersion</text><line style="stroke:#181818;stroke-width:1.0;stroke-dasharray:1.0,2.0;" x1="90.52" x2="153.52" y1="229.7377" y2="229.7377"/><text fill="#000000" font-family="sans-serif" font-size="14" lengthAdjust="spacing" textLength="67" x="153.52" y="234.6697">properties</text><line style="stroke:#181818;stroke-width:1.0;stroke-dasharray:1.0,2.0;" x1="220.52" x2="283.52" y1="229.7377" y2="229.7377"/></g><g id="elem_GMN3"><path d="M328.02,179 L328.02,224.5 L292.4,228.5 L328.02,232.5 L328.02,277.5301 A0,0 0 0 0 328.02,277.5301 L430.02,277.5301 A0,0 0 0 0 430.02,277.5301 L430.02,189 L420.02,179 L328.02,179 A0,0 0 0 0 328.02,179 " fill="#FEFFDD" style="stroke:#181818;stroke-width:0.5;"/><path d="M420.02,179 L420.02,189 L430.02,189 L420.02,179 " fill="#FEFFDD" style="stroke:#181818;stroke-width:0.5;"/><text fill="#000000" font-family="sans-serif" font-size="13" font-weight="bold" lengthAdjust="spacing" textLength="62" x="334.02" y="197.897">Summary</text><text fill="#000000" font-family="sans-serif" font-size="13" lengthAdjust="spacing" textLength="38" x="334.02" y="215.603">TODO</text><text fill="#000000" font-family="sans-serif" font-size="13" font-weight="bold" lengthAdjust="spacing" textLength="81" x="334.02" y="233.309">Description</text><text fill="#000000" font-family="sans-serif" font-size="13" lengthAdjust="spacing" textLength="38" x="334.02" y="251.0151">TODO</text><text fill="#000000" font-family="sans-serif" font-size="13" lengthAdjust="spacing" textLength="3" x="334.02" y="268.7211">&#160;</text></g><!--class Entity--><g id="elem_Entity"><rect fill="#F1F1F1" height="48" id="Entity" rx="2.5" ry="2.5" style="stroke:#181818;stroke-width:0.5;" width="70" x="16.02" y="7"/><ellipse cx="31.02" cy="23" fill="#ADD1B2" rx="11" ry="11" style="stroke:#181818;stroke-width:1.0;"/><path d="M30.8169,29.7344 Q28.3325,29.7344 27.0044,28.0938 Q25.6919,26.4219 25.6919,23.3125 Q25.6919,20.1875 27.0044,18.5313 Q28.3325,16.875 30.8169,16.875 Q31.5356,16.875 32.1919,17.0313 Q32.8325,17.1875 33.395,17.4844 L33.395,20.2031 Q33.0356,19.8594 32.7387,19.6719 Q32.4419,19.4688 32.1762,19.3438 Q31.8638,19.2031 31.5513,19.1406 Q31.2544,19.0781 30.9419,19.0781 Q29.6138,19.0781 28.9263,20.1406 Q28.2388,21.2344 28.2388,23.3125 Q28.2388,25.4063 28.9263,26.4688 Q29.6138,27.5469 30.9419,27.5469 Q31.5825,27.5469 32.1762,27.2656 Q32.4731,27.1406 32.7544,26.9531 Q33.0512,26.75 33.395,26.4219 L33.395,29.1406 Q32.8169,29.4375 32.1762,29.5938 Q31.5356,29.7344 30.8169,29.7344 Z " fill="#000000"/><text fill="#000000" font-family="sans-serif" font-size="14" lengthAdjust="spacing" textLength="38" x="45.02" y="28.432">Entity</text><line style="stroke:#181818;stroke-width:0.5;" x1="17.02" x2="85.02" y1="39" y2="39"/><line style="stroke:#181818;stroke-width:0.5;" x1="17.02" x2="85.02" y1="47" y2="47"/></g><!--class ProfileIdentifier--><g id="elem_ProfileIdentifier"><rect fill="#F1F1F1" height="48" id="ProfileIdentifier" rx="2.5" ry="2.5" style="stroke:#181818;stroke-width:0.5;" width="133" x="121.52" y="7"/><ellipse cx="136.52" cy="23" fill="#ADD1B2" rx="11" ry="11" style="stroke:#181818;stroke-width:1.0;"/><path d="M136.3169,29.7344 Q133.8325,29.7344 132.5044,28.0938 Q131.1919,26.4219 131.1919,23.3125 Q131.1919,20.1875 132.5044,18.5313 Q133.8325,16.875 136.3169,16.875 Q137.0356,16.875 137.6919,17.0313 Q138.3325,17.1875 138.895,17.4844 L138.895,20.2031 Q138.5356,19.8594 138.2387,19.6719 Q137.9419,19.4688 137.6762,19.3438 Q137.3637,19.2031 137.0512,19.1406 Q136.7544,19.0781 136.4419,19.0781 Q135.1137,19.0781 134.4262,20.1406 Q133.7387,21.2344 133.7387,23.3125 Q133.7387,25.4063 134.4262,26.4688 Q135.1137,27.5469 136.4419,27.5469 Q137.0825,27.5469 137.6762,27.2656 Q137.9731,27.1406 138.2544,26.9531 Q138.5512,26.75 138.895,26.4219 L138.895,29.1406 Q138.3169,29.4375 137.6762,29.5938 Q137.0356,29.7344 136.3169,29.7344 Z " fill="#000000"/><text fill="#000000" font-family="sans-serif" font-size="14" lengthAdjust="spacing" textLength="101" x="150.52" y="28.432">ProfileIdentifier</text><line style="stroke:#181818;stroke-width:0.5;" x1="122.52" x2="253.52" y1="39" y2="39"/><line style="stroke:#181818;stroke-width:0.5;" x1="122.52" x2="253.52" y1="47" y2="47"/></g><!--class SemVer--><g id="elem_SemVer"><rect fill="#F1F1F1" height="48" id="SemVer" rx="2.5" ry="2.5" style="stroke:#181818;stroke-width:0.5;" width="82" x="290.02" y="7"/><ellipse cx="305.02" cy="23" fill="#ADD1B2" rx="11" ry="11" style="stroke:#181818;stroke-width:1.0;"/><path d="M304.8169,29.7344 Q302.3325,29.7344 301.0044,28.0938 Q299.6919,26.4219 299.6919,23.3125 Q299.6919,20.1875 301.0044,18.5313 Q302.3325,16.875 304.8169,16.875 Q305.5356,16.875 306.1919,17.0313 Q306.8325,17.1875 307.395,17.4844 L307.395,20.2031 Q307.0356,19.8594 306.7388,19.6719 Q306.4419,19.4688 306.1763,19.3438 Q305.8638,19.2031 305.5513,19.1406 Q305.2544,19.0781 304.9419,19.0781 Q303.6138,19.0781 302.9263,20.1406 Q302.2388,21.2344 302.2388,23.3125 Q302.2388,25.4063 302.9263,26.4688 Q303.6138,27.5469 304.9419,27.5469 Q305.5825,27.5469 306.1763,27.2656 Q306.4731,27.1406 306.7544,26.9531 Q307.0513,26.75 307.395,26.4219 L307.395,29.1406 Q306.8169,29.4375 306.1763,29.5938 Q305.5356,29.7344 304.8169,29.7344 Z " fill="#000000"/><text fill="#000000" font-family="sans-serif" font-size="14" lengthAdjust="spacing" textLength="50" x="319.02" y="28.432">SemVer</text><line style="stroke:#181818;stroke-width:0.5;" x1="291.02" x2="371.02" y1="39" y2="39"/><line style="stroke:#181818;stroke-width:0.5;" x1="291.02" x2="371.02" y1="47" y2="47"/></g><!--reverse link Entity to CreationInformation--><g id="link_Entity_CreationInformation"><path codeLine="19" d="M43.66,61.34 C29.36,124.67 6,268.5 89.02,268.5 " fill="none" id="Entity-backto-CreationInformation" style="stroke:#181818;stroke-width:1.0;"/><polygon fill="#181818" points="44.76,56.58,38.832,64.445,43.6315,61.451,46.6255,66.2506,44.76,56.58" style="stroke:#181818;stroke-width:1.0;"/></g><!--reverse link ProfileIdentifier to CreationInformation--><g id="link_ProfileIdentifier_CreationInformation"><path codeLine="20" d="M234.24,58.84 C253.72,72.85 274.32,91.92 285.02,115 C302.92,153.61 328.58,306.5 286.02,306.5 " fill="none" id="ProfileIdentifier-backto-CreationInformation" style="stroke:#181818;stroke-width:1.0;"/><polygon fill="#181818" points="230.56,56.25,235.6373,64.6893,234.6555,59.1183,240.2265,58.1365,230.56,56.25" style="stroke:#181818;stroke-width:1.0;"/></g><!--reverse link SemVer to CreationInformation--><g id="link_SemVer_CreationInformation"><path codeLine="21" d="M323.01,61.51 C318.96,77.29 314.23,97.1 311.02,115 C306.87,138.18 309.57,325.5 286.02,325.5 " fill="none" id="SemVer-backto-CreationInformation" style="stroke:#181818;stroke-width:1.0;"/><polygon fill="#181818" points="324.2,56.92,318.067,64.6262,322.9437,61.7596,325.8103,66.6363,324.2,56.92" style="stroke:#181818;stroke-width:1.0;"/></g><!--SRC=[VL1DQyCm3BtxLmZVczr3w67j3e512oszEuxI2M8xI1eiZFttsMct5LRga_s-z6G_EX7OC3gb5Diu90xB5JvDLK50TRrJ1rLb89ysYhgev3eQIMUeOPEYPrHSwEW25kn_N0cRE4t8IYW_SRu8iS-M3-dhF0YF5F2MUfwNL-dmIXwZu5KioXJF2vbp1nelDfdGdv2bZFmoCIa2q_bD8GrtQpNT-l0UWkEvUUhMvhZRxWgsHV5CKv7yuGPZ3oNIs9Vy1pfRQ5Ohi7Tow_gtlpLsVodOzfXj0o4_CbwtoRO3XjDZxSsszXi0]--></g></svg>