<?xml version="1.0" encoding="us-ascii" standalone="no"?><svg xmlns="http://www.w3.org/2000/svg" xmlns:xlink="http://www.w3.org/1999/xlink" contentStyleType="text/css" height="395px" preserveAspectRatio="none" style="width:506px;height:395px;background:#FFFFFF;" version="1.1" viewBox="0 0 506 395" width="506px" zoomAndPan="magnify"><defs/><g><!--class CreationInformation--><g id="elem_CreationInformation"><rect codeLine="1" fill="#F1F1F1" height="219.6113" id="CreationInformation" rx="2.5" ry="2.5" style="stroke:#181818;stroke-width:0.5;" width="195" x="147.5" y="169"/><ellipse cx="175.1" cy="185" fill="#ADD1B2" rx="11" ry="11" style="stroke:#181818;stroke-width:1.0;"/><path d="M174.8969,191.7344 Q172.4125,191.7344 171.0844,190.0938 Q169.7719,188.4219 169.7719,185.3125 Q169.7719,182.1875 171.0844,180.5313 Q172.4125,178.875 174.8969,178.875 Q175.6156,178.875 176.2719,179.0313 Q176.9125,179.1875 177.475,179.4844 L177.475,182.2031 Q177.1156,181.8594 176.8188,181.6719 Q176.5219,181.4688 176.2563,181.3438 Q175.9438,181.2031 175.6313,181.1406 Q175.3344,181.0781 175.0219,181.0781 Q173.6938,181.0781 173.0063,182.1406 Q172.3188,183.2344 172.3188,185.3125 Q172.3188,187.4063 173.0063,188.4688 Q173.6938,189.5469 175.0219,189.5469 Q175.6625,189.5469 176.2563,189.2656 Q176.5531,189.1406 176.8344,188.9531 Q177.1313,188.75 177.475,188.4219 L177.475,191.1406 Q176.8969,191.4375 176.2563,191.5938 Q175.6156,191.7344 174.8969,191.7344 Z " fill="#000000"/><text fill="#000000" font-family="sans-serif" font-size="14" lengthAdjust="spacing" textLength="135" x="191.9" y="190.432">CreationInformation</text><line style="stroke:#181818;stroke-width:0.5;" x1="148.5" x2="341.5" y1="201" y2="201"/><text fill="#000000" font-family="sans-serif" font-size="14" lengthAdjust="spacing" textLength="160" x="153.5" y="243.0339">Instantiability : Concrete</text><text fill="#000000" font-family="sans-serif" font-size="14" lengthAdjust="spacing" textLength="183" x="153.5" y="262.1018">name : CreationInformation</text><line style="stroke:#181818;stroke-width:1.0;stroke-dasharray:1.0,2.0;" x1="148.5" x2="212.5" y1="218.534" y2="218.534"/><text fill="#000000" font-family="sans-serif" font-size="14" lengthAdjust="spacing" textLength="65" x="212.5" y="223.4659">metadata</text><line style="stroke:#181818;stroke-width:1.0;stroke-dasharray:1.0,2.0;" x1="277.5" x2="341.5" y1="218.534" y2="218.534"/><text fill="#000000" font-family="sans-serif" font-size="14" lengthAdjust="spacing" textLength="149" x="153.5" y="304.2376">created : xsd:dateTime</text><text fill="#000000" font-family="sans-serif" font-size="14" lengthAdjust="spacing" textLength="67" x="153.5" y="323.3055">createdBy</text><text fill="#000000" font-family="sans-serif" font-size="14" lengthAdjust="spacing" textLength="152" x="153.5" y="342.3734">dataLicense : xsd:string</text><text fill="#000000" font-family="sans-serif" font-size="14" lengthAdjust="spacing" textLength="41" x="153.5" y="361.4414">profile</text><text fill="#000000" font-family="sans-serif" font-size="14" lengthAdjust="spacing" textLength="78" x="153.5" y="380.5093">specVersion</text><line style="stroke:#181818;stroke-width:1.0;stroke-dasharray:1.0,2.0;" x1="148.5" x2="211.5" y1="279.7377" y2="279.7377"/><text fill="#000000" font-family="sans-serif" font-size="14" lengthAdjust="spacing" textLength="67" x="211.5" y="284.6697">properties</text><line style="stroke:#181818;stroke-width:1.0;stroke-dasharray:1.0,2.0;" x1="278.5" x2="341.5" y1="279.7377" y2="279.7377"/></g><g id="elem_GMN3"><path d="M6,6 L6,104.5301 A0,0 0 0 0 6,104.5301 L94.49,104.5301 L149.34,165.05 L102.49,104.5301 L108,104.5301 A0,0 0 0 0 108,104.5301 L108,16 L98,6 L6,6 A0,0 0 0 0 6,6 " fill="#FEFFDD" style="stroke:#181818;stroke-width:0.5;"/><path d="M98,6 L98,16 L108,16 L98,6 " fill="#FEFFDD" style="stroke:#181818;stroke-width:0.5;"/><text fill="#000000" font-family="sans-serif" font-size="13" font-weight="bold" lengthAdjust="spacing" textLength="62" x="12" y="24.897">Summary</text><text fill="#000000" font-family="sans-serif" font-size="13" lengthAdjust="spacing" textLength="38" x="12" y="42.603">TODO</text><text fill="#000000" font-family="sans-serif" font-size="13" font-weight="bold" lengthAdjust="spacing" textLength="81" x="12" y="60.309">Description</text><text fill="#000000" font-family="sans-serif" font-size="13" lengthAdjust="spacing" textLength="38" x="12" y="78.0151">TODO</text><text fill="#000000" font-family="sans-serif" font-size="13" lengthAdjust="spacing" textLength="3" x="12" y="95.7211">&#160;</text></g><!--class Entity--><g id="elem_Entity"><rect fill="#F1F1F1" height="48" id="Entity" rx="2.5" ry="2.5" style="stroke:#181818;stroke-width:0.5;" width="70" x="143" y="31.5"/><ellipse cx="158" cy="47.5" fill="#ADD1B2" rx="11" ry="11" style="stroke:#181818;stroke-width:1.0;"/><path d="M157.7969,54.2344 Q155.3125,54.2344 153.9844,52.5938 Q152.6719,50.9219 152.6719,47.8125 Q152.6719,44.6875 153.9844,43.0313 Q155.3125,41.375 157.7969,41.375 Q158.5156,41.375 159.1719,41.5313 Q159.8125,41.6875 160.375,41.9844 L160.375,44.7031 Q160.0156,44.3594 159.7188,44.1719 Q159.4219,43.9688 159.1563,43.8438 Q158.8438,43.7031 158.5313,43.6406 Q158.2344,43.5781 157.9219,43.5781 Q156.5938,43.5781 155.9063,44.6406 Q155.2188,45.7344 155.2188,47.8125 Q155.2188,49.9063 155.9063,50.9688 Q156.5938,52.0469 157.9219,52.0469 Q158.5625,52.0469 159.1563,51.7656 Q159.4531,51.6406 159.7344,51.4531 Q160.0313,51.25 160.375,50.9219 L160.375,53.6406 Q159.7969,53.9375 159.1563,54.0938 Q158.5156,54.2344 157.7969,54.2344 Z " fill="#000000"/><text fill="#000000" font-family="sans-serif" font-size="14" lengthAdjust="spacing" textLength="38" x="172" y="52.932">Entity</text><line style="stroke:#181818;stroke-width:0.5;" x1="144" x2="212" y1="63.5" y2="63.5"/><line style="stroke:#181818;stroke-width:0.5;" x1="144" x2="212" y1="71.5" y2="71.5"/></g><!--class ProfileIdentifier--><g id="elem_ProfileIdentifier"><rect fill="#F1F1F1" height="48" id="ProfileIdentifier" rx="2.5" ry="2.5" style="stroke:#181818;stroke-width:0.5;" width="133" x="248.5" y="31.5"/><ellipse cx="263.5" cy="47.5" fill="#ADD1B2" rx="11" ry="11" style="stroke:#181818;stroke-width:1.0;"/><path d="M263.2969,54.2344 Q260.8125,54.2344 259.4844,52.5938 Q258.1719,50.9219 258.1719,47.8125 Q258.1719,44.6875 259.4844,43.0313 Q260.8125,41.375 263.2969,41.375 Q264.0156,41.375 264.6719,41.5313 Q265.3125,41.6875 265.875,41.9844 L265.875,44.7031 Q265.5156,44.3594 265.2188,44.1719 Q264.9219,43.9688 264.6563,43.8438 Q264.3438,43.7031 264.0313,43.6406 Q263.7344,43.5781 263.4219,43.5781 Q262.0938,43.5781 261.4063,44.6406 Q260.7188,45.7344 260.7188,47.8125 Q260.7188,49.9063 261.4063,50.9688 Q262.0938,52.0469 263.4219,52.0469 Q264.0625,52.0469 264.6563,51.7656 Q264.9531,51.6406 265.2344,51.4531 Q265.5313,51.25 265.875,50.9219 L265.875,53.6406 Q265.2969,53.9375 264.6563,54.0938 Q264.0156,54.2344 263.2969,54.2344 Z " fill="#000000"/><text fill="#000000" font-family="sans-serif" font-size="14" lengthAdjust="spacing" textLength="101" x="277.5" y="52.932">ProfileIdentifier</text><line style="stroke:#181818;stroke-width:0.5;" x1="249.5" x2="380.5" y1="63.5" y2="63.5"/><line style="stroke:#181818;stroke-width:0.5;" x1="249.5" x2="380.5" y1="71.5" y2="71.5"/></g><!--class SemVer--><g id="elem_SemVer"><rect fill="#F1F1F1" height="48" id="SemVer" rx="2.5" ry="2.5" style="stroke:#181818;stroke-width:0.5;" width="82" x="417" y="31.5"/><ellipse cx="432" cy="47.5" fill="#ADD1B2" rx="11" ry="11" style="stroke:#181818;stroke-width:1.0;"/><path d="M431.7969,54.2344 Q429.3125,54.2344 427.9844,52.5938 Q426.6719,50.9219 426.6719,47.8125 Q426.6719,44.6875 427.9844,43.0313 Q429.3125,41.375 431.7969,41.375 Q432.5156,41.375 433.1719,41.5313 Q433.8125,41.6875 434.375,41.9844 L434.375,44.7031 Q434.0156,44.3594 433.7188,44.1719 Q433.4219,43.9688 433.1563,43.8438 Q432.8438,43.7031 432.5313,43.6406 Q432.2344,43.5781 431.9219,43.5781 Q430.5938,43.5781 429.9063,44.6406 Q429.2188,45.7344 429.2188,47.8125 Q429.2188,49.9063 429.9063,50.9688 Q430.5938,52.0469 431.9219,52.0469 Q432.5625,52.0469 433.1563,51.7656 Q433.4531,51.6406 433.7344,51.4531 Q434.0313,51.25 434.375,50.9219 L434.375,53.6406 Q433.7969,53.9375 433.1563,54.0938 Q432.5156,54.2344 431.7969,54.2344 Z " fill="#000000"/><text fill="#000000" font-family="sans-serif" font-size="14" lengthAdjust="spacing" textLength="50" x="446" y="52.932">SemVer</text><line style="stroke:#181818;stroke-width:0.5;" x1="418" x2="498" y1="63.5" y2="63.5"/><line style="stroke:#181818;stroke-width:0.5;" x1="418" x2="498" y1="71.5" y2="71.5"/></g><!--reverse link Entity to CreationInformation--><g id="link_Entity_CreationInformation"><path codeLine="19" d="M162.75,85.25 C128.2,153.29 53.89,318.5 147,318.5 " fill="none" id="Entity-backto-CreationInformation" style="stroke:#181818;stroke-width:1.0;"/><polygon fill="#181818" points="164.88,81.1,157.2139,87.2831,162.5984,85.5491,164.3324,90.9336,164.88,81.1" style="stroke:#181818;stroke-width:1.0;"/></g><!--reverse link ProfileIdentifier to CreationInformation--><g id="link_ProfileIdentifier_CreationInformation"><path codeLine="20" d="M329.63,85.15 C366.42,160.15 452.37,356.5 344,356.5 " fill="none" id="ProfileIdentifier-backto-CreationInformation" style="stroke:#181818;stroke-width:1.0;"/><polygon fill="#181818" points="327.53,80.9,327.9269,90.7409,329.7432,85.3835,335.1005,87.1997,327.53,80.9" style="stroke:#181818;stroke-width:1.0;"/></g><!--reverse link SemVer to CreationInformation--><g id="link_SemVer_CreationInformation"><path codeLine="21" d="M460.4,86.32 C465.13,165.59 466.13,375.5 344,375.5 " fill="none" id="SemVer-backto-CreationInformation" style="stroke:#181818;stroke-width:1.0;"/><polygon fill="#181818" points="460.1,81.47,456.6741,90.7038,460.4146,86.4601,464.6583,90.2005,460.1,81.47" style="stroke:#181818;stroke-width:1.0;"/></g><!--SRC=[VL0zQyCm4DtrAmxjSNTZCZJfO2Waa91Tbixbm3e9wGer8V-zafEsWOPeajxNlPETJCwmIMY40lSyXkINAvnLqu17CSw8WQPHK4xFMGmBcO4caXbQs0Is2GKNcet7YlsFgs4nXOX92FDFdAr2TCNobLrR1k6HFDvJh_FogXtUoI9dl8cp9EAFXIov8qrNMuveJvXo7NbH70H1GeGmFYpL3Ul3f_ScpTtBi5R7tNPNiIrccoXMoH-ka1tKGANVoW_8hA5RhK0_o6tRt_PQwVsrNk-ms4R2zCnuswNO3kXFpxLtk-fl]--></g></svg>