<?xml version="1.0" encoding="us-ascii" standalone="no"?><svg xmlns="http://www.w3.org/2000/svg" xmlns:xlink="http://www.w3.org/1999/xlink" contentStyleType="text/css" height="345px" preserveAspectRatio="none" style="width:503px;height:345px;background:#FFFFFF;" version="1.1" viewBox="0 0 503 345" width="503px" zoomAndPan="magnify"><defs/><g><!--class ElementCollection--><g id="elem_ElementCollection"><rect codeLine="1" fill="#F1F1F1" height="219.6113" id="ElementCollection" rx="2.5" ry="2.5" style="stroke:#181818;stroke-width:0.5;" width="179" x="40.61" y="119"/><ellipse cx="68.21" cy="135" fill="#ADD1B2" rx="11" ry="11" style="stroke:#181818;stroke-width:1.0;"/><path d="M68.0069,141.7344 Q65.5225,141.7344 64.1944,140.0938 Q62.8819,138.4219 62.8819,135.3125 Q62.8819,132.1875 64.1944,130.5313 Q65.5225,128.875 68.0069,128.875 Q68.7256,128.875 69.3819,129.0313 Q70.0225,129.1875 70.585,129.4844 L70.585,132.2031 Q70.2256,131.8594 69.9288,131.6719 Q69.6319,131.4688 69.3663,131.3438 Q69.0538,131.2031 68.7413,131.1406 Q68.4444,131.0781 68.1319,131.0781 Q66.8038,131.0781 66.1163,132.1406 Q65.4288,133.2344 65.4288,135.3125 Q65.4288,137.4063 66.1163,138.4688 Q66.8038,139.5469 68.1319,139.5469 Q68.7725,139.5469 69.3663,139.2656 Q69.6631,139.1406 69.9444,138.9531 Q70.2413,138.75 70.585,138.4219 L70.585,141.1406 Q70.0069,141.4375 69.3663,141.5938 Q68.7256,141.7344 68.0069,141.7344 Z " fill="#000000"/><text fill="#000000" font-family="sans-serif" font-size="14" lengthAdjust="spacing" textLength="119" x="85.01" y="140.432">ElementCollection</text><line style="stroke:#181818;stroke-width:0.5;" x1="41.61" x2="218.61" y1="151" y2="151"/><text fill="#000000" font-family="sans-serif" font-size="14" lengthAdjust="spacing" textLength="156" x="46.61" y="193.0339">Instantiability : Abstract</text><text fill="#000000" font-family="sans-serif" font-size="14" lengthAdjust="spacing" textLength="137" x="46.61" y="212.1018">SubclassOf : Element</text><text fill="#000000" font-family="sans-serif" font-size="14" lengthAdjust="spacing" textLength="167" x="46.61" y="231.1697">name : ElementCollection</text><line style="stroke:#181818;stroke-width:1.0;stroke-dasharray:1.0,2.0;" x1="41.61" x2="97.61" y1="168.534" y2="168.534"/><text fill="#000000" font-family="sans-serif" font-size="14" lengthAdjust="spacing" textLength="65" x="97.61" y="173.4659">metadata</text><line style="stroke:#181818;stroke-width:1.0;stroke-dasharray:1.0,2.0;" x1="162.61" x2="218.61" y1="168.534" y2="168.534"/><text fill="#000000" font-family="sans-serif" font-size="14" lengthAdjust="spacing" textLength="54" x="46.61" y="273.3055">element</text><text fill="#000000" font-family="sans-serif" font-size="14" lengthAdjust="spacing" textLength="51" x="46.61" y="292.3734">imports</text><text fill="#000000" font-family="sans-serif" font-size="14" lengthAdjust="spacing" textLength="82" x="46.61" y="311.4414">namespaces</text><text fill="#000000" font-family="sans-serif" font-size="14" lengthAdjust="spacing" textLength="83" x="46.61" y="330.5093">rootElement</text><line style="stroke:#181818;stroke-width:1.0;stroke-dasharray:1.0,2.0;" x1="41.61" x2="96.61" y1="248.8056" y2="248.8056"/><text fill="#000000" font-family="sans-serif" font-size="14" lengthAdjust="spacing" textLength="67" x="96.61" y="253.7376">properties</text><line style="stroke:#181818;stroke-width:1.0;stroke-dasharray:1.0,2.0;" x1="163.61" x2="218.61" y1="248.8056" y2="248.8056"/></g><g id="elem_GMN3"><path d="M263.11,179 L263.11,224.5 L227.5,228.5 L263.11,232.5 L263.11,277.5301 A0,0 0 0 0 263.11,277.5301 L365.11,277.5301 A0,0 0 0 0 365.11,277.5301 L365.11,189 L355.11,179 L263.11,179 A0,0 0 0 0 263.11,179 " fill="#FEFFDD" style="stroke:#181818;stroke-width:0.5;"/><path d="M355.11,179 L355.11,189 L365.11,189 L355.11,179 " fill="#FEFFDD" style="stroke:#181818;stroke-width:0.5;"/><text fill="#000000" font-family="sans-serif" font-size="13" font-weight="bold" lengthAdjust="spacing" textLength="62" x="269.11" y="197.897">Summary</text><text fill="#000000" font-family="sans-serif" font-size="13" lengthAdjust="spacing" textLength="38" x="269.11" y="215.603">TODO</text><text fill="#000000" font-family="sans-serif" font-size="13" font-weight="bold" lengthAdjust="spacing" textLength="81" x="269.11" y="233.309">Description</text><text fill="#000000" font-family="sans-serif" font-size="13" lengthAdjust="spacing" textLength="38" x="269.11" y="251.0151">TODO</text><text fill="#000000" font-family="sans-serif" font-size="13" lengthAdjust="spacing" textLength="3" x="269.11" y="268.7211">&#160;</text></g><!--class Element--><g id="elem_Element"><rect fill="#F1F1F1" height="48" id="Element" rx="2.5" ry="2.5" style="stroke:#181818;stroke-width:0.5;" width="86" x="87.11" y="7"/><ellipse cx="102.11" cy="23" fill="#ADD1B2" rx="11" ry="11" style="stroke:#181818;stroke-width:1.0;"/><path d="M101.9069,29.7344 Q99.4225,29.7344 98.0944,28.0938 Q96.7819,26.4219 96.7819,23.3125 Q96.7819,20.1875 98.0944,18.5313 Q99.4225,16.875 101.9069,16.875 Q102.6256,16.875 103.2819,17.0313 Q103.9225,17.1875 104.485,17.4844 L104.485,20.2031 Q104.1256,19.8594 103.8287,19.6719 Q103.5319,19.4688 103.2662,19.3438 Q102.9537,19.2031 102.6412,19.1406 Q102.3444,19.0781 102.0319,19.0781 Q100.7037,19.0781 100.0162,20.1406 Q99.3287,21.2344 99.3287,23.3125 Q99.3287,25.4063 100.0162,26.4688 Q100.7037,27.5469 102.0319,27.5469 Q102.6725,27.5469 103.2662,27.2656 Q103.5631,27.1406 103.8444,26.9531 Q104.1412,26.75 104.485,26.4219 L104.485,29.1406 Q103.9069,29.4375 103.2662,29.5938 Q102.6256,29.7344 101.9069,29.7344 Z " fill="#000000"/><text fill="#000000" font-family="sans-serif" font-size="14" lengthAdjust="spacing" textLength="54" x="116.11" y="28.432">Element</text><line style="stroke:#181818;stroke-width:0.5;" x1="88.11" x2="172.11" y1="39" y2="39"/><line style="stroke:#181818;stroke-width:0.5;" x1="88.11" x2="172.11" y1="47" y2="47"/></g><!--class ExternalMap--><g id="elem_ExternalMap"><rect fill="#F1F1F1" height="48" id="ExternalMap" rx="2.5" ry="2.5" style="stroke:#181818;stroke-width:0.5;" width="114" x="208.11" y="7"/><ellipse cx="223.11" cy="23" fill="#ADD1B2" rx="11" ry="11" style="stroke:#181818;stroke-width:1.0;"/><path d="M222.9069,29.7344 Q220.4225,29.7344 219.0944,28.0938 Q217.7819,26.4219 217.7819,23.3125 Q217.7819,20.1875 219.0944,18.5313 Q220.4225,16.875 222.9069,16.875 Q223.6256,16.875 224.2819,17.0313 Q224.9225,17.1875 225.485,17.4844 L225.485,20.2031 Q225.1256,19.8594 224.8288,19.6719 Q224.5319,19.4688 224.2663,19.3438 Q223.9538,19.2031 223.6413,19.1406 Q223.3444,19.0781 223.0319,19.0781 Q221.7038,19.0781 221.0163,20.1406 Q220.3288,21.2344 220.3288,23.3125 Q220.3288,25.4063 221.0163,26.4688 Q221.7038,27.5469 223.0319,27.5469 Q223.6725,27.5469 224.2663,27.2656 Q224.5631,27.1406 224.8444,26.9531 Q225.1413,26.75 225.485,26.4219 L225.485,29.1406 Q224.9069,29.4375 224.2663,29.5938 Q223.6256,29.7344 222.9069,29.7344 Z " fill="#000000"/><text fill="#000000" font-family="sans-serif" font-size="14" lengthAdjust="spacing" textLength="82" x="237.11" y="28.432">ExternalMap</text><line style="stroke:#181818;stroke-width:0.5;" x1="209.11" x2="321.11" y1="39" y2="39"/><line style="stroke:#181818;stroke-width:0.5;" x1="209.11" x2="321.11" y1="47" y2="47"/></g><!--class NamespaceMap--><g id="elem_NamespaceMap"><rect fill="#F1F1F1" height="48" id="NamespaceMap" rx="2.5" ry="2.5" style="stroke:#181818;stroke-width:0.5;" width="139" x="357.61" y="7"/><ellipse cx="372.61" cy="23" fill="#ADD1B2" rx="11" ry="11" style="stroke:#181818;stroke-width:1.0;"/><path d="M372.4069,29.7344 Q369.9225,29.7344 368.5944,28.0938 Q367.2819,26.4219 367.2819,23.3125 Q367.2819,20.1875 368.5944,18.5313 Q369.9225,16.875 372.4069,16.875 Q373.1256,16.875 373.7819,17.0313 Q374.4225,17.1875 374.985,17.4844 L374.985,20.2031 Q374.6256,19.8594 374.3287,19.6719 Q374.0319,19.4688 373.7662,19.3438 Q373.4537,19.2031 373.1412,19.1406 Q372.8444,19.0781 372.5319,19.0781 Q371.2037,19.0781 370.5162,20.1406 Q369.8287,21.2344 369.8287,23.3125 Q369.8287,25.4063 370.5162,26.4688 Q371.2037,27.5469 372.5319,27.5469 Q373.1725,27.5469 373.7662,27.2656 Q374.0631,27.1406 374.3444,26.9531 Q374.6412,26.75 374.985,26.4219 L374.985,29.1406 Q374.4069,29.4375 373.7662,29.5938 Q373.1256,29.7344 372.4069,29.7344 Z " fill="#000000"/><text fill="#000000" font-family="sans-serif" font-size="14" lengthAdjust="spacing" textLength="107" x="386.61" y="28.432">NamespaceMap</text><line style="stroke:#181818;stroke-width:0.5;" x1="358.61" x2="495.61" y1="39" y2="39"/><line style="stroke:#181818;stroke-width:0.5;" x1="358.61" x2="495.61" y1="47" y2="47"/></g><!--link Element to ElementCollection--><g id="link_Element_ElementCollection"><path codeLine="19" d="M130.11,55.19 C130.11,65.78 130.11,79.24 130.11,93.96 " fill="none" id="Element-to-ElementCollection" style="stroke:#181818;stroke-width:1.0;"/><polygon fill="none" points="137.11,93.91,130.11,113.91,123.11,93.91,137.11,93.91" style="stroke:#181818;stroke-width:1.0;"/></g><!--reverse link Element to ElementCollection--><g id="link_Element_ElementCollection"><path codeLine="20" d="M88.24,59.15 C70.18,73.38 50.96,92.54 41.11,115 C27.4,146.24 6,268.5 40.11,268.5 " fill="none" id="Element-backto-ElementCollection" style="stroke:#181818;stroke-width:1.0;"/><polygon fill="#181818" points="92.1,56.19,82.5271,58.5052,88.1363,59.2379,87.4037,64.8471,92.1,56.19" style="stroke:#181818;stroke-width:1.0;"/></g><!--reverse link Element to ElementCollection--><g id="link_Element_ElementCollection"><path codeLine="23" d="M88.22,59.14 C70.16,73.37 50.94,92.53 41.11,115 C31.73,136.43 16.72,325.5 40.11,325.5 " fill="none" id="Element-backto-ElementCollection-1" style="stroke:#181818;stroke-width:1.0;"/><polygon fill="#181818" points="92.08,56.18,82.5031,58.4786,88.111,59.221,87.3687,64.8289,92.08,56.18" style="stroke:#181818;stroke-width:1.0;"/></g><!--reverse link ExternalMap to ElementCollection--><g id="link_ExternalMap_ElementCollection"><path codeLine="21" d="M257.81,61.23 C254,77.08 249.46,97.04 246.11,115 C239,153.08 259.84,287.5 221.11,287.5 " fill="none" id="ExternalMap-backto-ElementCollection" style="stroke:#181818;stroke-width:1.0;"/><polygon fill="#181818" points="258.92,56.62,252.9266,64.4353,257.751,61.4814,260.7049,66.3058,258.92,56.62" style="stroke:#181818;stroke-width:1.0;"/></g><!--reverse link NamespaceMap to ElementCollection--><g id="link_NamespaceMap_ElementCollection"><path codeLine="22" d="M353.25,57.53 C309.49,74.18 259.95,96.23 246.11,115 C220.64,149.54 264.02,306.5 221.11,306.5 " fill="none" id="NamespaceMap-backto-ElementCollection" style="stroke:#181818;stroke-width:1.0;"/><polygon fill="#181818" points="357.69,55.86,347.8565,55.311,353.0148,57.6328,350.693,62.7912,357.69,55.86" style="stroke:#181818;stroke-width:1.0;"/></g><!--SRC=[ZP3DQiCm48JlUef5TxjtOmobwQ67neVa1LRA9XNe3sa32KdVlLPgruQafRffvzECPhN5dE7LaYFFBy5Qqco2XukeQt34k4D6g6i1mtdpcT6pGMMiuJCqyAmo9zHyapT7fOjTln-KqV8cU7GqZ-QKaX5JY9JOK9vIQF7Ik1WIvn-N757JzpM5m5F8f_212P8vV324_OEaLdMRetEOpksJwiIsN_LbjgAiaua5cUU2_0wAeP2ZaOIgkdOWxtpb0cchwW7HD6EVWfwOaaVxZl5tVAmyuEkfy9_yl9R_V6QnDVa5]--></g></svg>