<?xml version="1.0" encoding="us-ascii" standalone="no"?><svg xmlns="http://www.w3.org/2000/svg" xmlns:xlink="http://www.w3.org/1999/xlink" contentStyleType="text/css" height="395px" preserveAspectRatio="none" style="width:559px;height:395px;background:#FFFFFF;" version="1.1" viewBox="0 0 559 395" width="559px" zoomAndPan="magnify"><defs/><g><!--class ElementCollection--><g id="elem_ElementCollection"><rect codeLine="1" fill="#F1F1F1" height="219.6113" id="ElementCollection" rx="2.5" ry="2.5" style="stroke:#181818;stroke-width:0.5;" width="179" x="95.5" y="169"/><ellipse cx="126.25" cy="185" fill="#A9DCDF" rx="11" ry="11" style="stroke:#181818;stroke-width:1.0;"/><path d="M124.875,178.3594 L127.8594,178.3594 L131.2188,190.75 L128.7656,190.75 L128,187.6875 L124.7188,187.6875 L123.9688,190.75 L121.5313,190.75 L124.875,178.3594 Z M127.5313,185.6719 L126.3594,180.5938 L125.2031,185.6719 L127.5313,185.6719 Z " fill="#000000"/><text fill="#000000" font-family="sans-serif" font-size="14" font-style="italic" lengthAdjust="spacing" textLength="112" x="143.75" y="190.432">ElementCollection</text><line style="stroke:#181818;stroke-width:0.5;" x1="96.5" x2="273.5" y1="201" y2="201"/><text fill="#000000" font-family="sans-serif" font-size="14" lengthAdjust="spacing" textLength="156" x="101.5" y="243.0339">Instantiability : Abstract</text><text fill="#000000" font-family="sans-serif" font-size="14" lengthAdjust="spacing" textLength="137" x="101.5" y="262.1018">SubclassOf : Element</text><text fill="#000000" font-family="sans-serif" font-size="14" lengthAdjust="spacing" textLength="167" x="101.5" y="281.1697">name : ElementCollection</text><line style="stroke:#181818;stroke-width:1.0;stroke-dasharray:1.0,2.0;" x1="96.5" x2="152.5" y1="218.534" y2="218.534"/><text fill="#000000" font-family="sans-serif" font-size="14" lengthAdjust="spacing" textLength="65" x="152.5" y="223.4659">metadata</text><line style="stroke:#181818;stroke-width:1.0;stroke-dasharray:1.0,2.0;" x1="217.5" x2="273.5" y1="218.534" y2="218.534"/><text fill="#000000" font-family="sans-serif" font-size="14" lengthAdjust="spacing" textLength="54" x="101.5" y="323.3055">element</text><text fill="#000000" font-family="sans-serif" font-size="14" lengthAdjust="spacing" textLength="51" x="101.5" y="342.3734">imports</text><text fill="#000000" font-family="sans-serif" font-size="14" lengthAdjust="spacing" textLength="82" x="101.5" y="361.4414">namespaces</text><text fill="#000000" font-family="sans-serif" font-size="14" lengthAdjust="spacing" textLength="83" x="101.5" y="380.5093">rootElement</text><line style="stroke:#181818;stroke-width:1.0;stroke-dasharray:1.0,2.0;" x1="96.5" x2="151.5" y1="298.8056" y2="298.8056"/><text fill="#000000" font-family="sans-serif" font-size="14" lengthAdjust="spacing" textLength="67" x="151.5" y="303.7376">properties</text><line style="stroke:#181818;stroke-width:1.0;stroke-dasharray:1.0,2.0;" x1="218.5" x2="273.5" y1="298.8056" y2="298.8056"/></g><g id="elem_GMN3"><path d="M6,6 L6,104.5301 A0,0 0 0 0 6,104.5301 L81.25,104.5301 L119.87,165.05 L89.25,104.5301 L108,104.5301 A0,0 0 0 0 108,104.5301 L108,16 L98,6 L6,6 A0,0 0 0 0 6,6 " fill="#FEFFDD" style="stroke:#181818;stroke-width:0.5;"/><path d="M98,6 L98,16 L108,16 L98,6 " fill="#FEFFDD" style="stroke:#181818;stroke-width:0.5;"/><text fill="#000000" font-family="sans-serif" font-size="13" font-weight="bold" lengthAdjust="spacing" textLength="62" x="12" y="24.897">Summary</text><text fill="#000000" font-family="sans-serif" font-size="13" lengthAdjust="spacing" textLength="38" x="12" y="42.603">TODO</text><text fill="#000000" font-family="sans-serif" font-size="13" font-weight="bold" lengthAdjust="spacing" textLength="81" x="12" y="60.309">Description</text><text fill="#000000" font-family="sans-serif" font-size="13" lengthAdjust="spacing" textLength="38" x="12" y="78.0151">TODO</text><text fill="#000000" font-family="sans-serif" font-size="13" lengthAdjust="spacing" textLength="3" x="12" y="95.7211">&#160;</text></g><!--class Element--><g id="elem_Element"><rect fill="#F1F1F1" height="48" id="Element" rx="2.5" ry="2.5" style="stroke:#181818;stroke-width:0.5;" width="86" x="143" y="31.5"/><ellipse cx="158" cy="47.5" fill="#ADD1B2" rx="11" ry="11" style="stroke:#181818;stroke-width:1.0;"/><path d="M157.7969,54.2344 Q155.3125,54.2344 153.9844,52.5938 Q152.6719,50.9219 152.6719,47.8125 Q152.6719,44.6875 153.9844,43.0313 Q155.3125,41.375 157.7969,41.375 Q158.5156,41.375 159.1719,41.5313 Q159.8125,41.6875 160.375,41.9844 L160.375,44.7031 Q160.0156,44.3594 159.7188,44.1719 Q159.4219,43.9688 159.1563,43.8438 Q158.8438,43.7031 158.5313,43.6406 Q158.2344,43.5781 157.9219,43.5781 Q156.5938,43.5781 155.9063,44.6406 Q155.2188,45.7344 155.2188,47.8125 Q155.2188,49.9063 155.9063,50.9688 Q156.5938,52.0469 157.9219,52.0469 Q158.5625,52.0469 159.1563,51.7656 Q159.4531,51.6406 159.7344,51.4531 Q160.0313,51.25 160.375,50.9219 L160.375,53.6406 Q159.7969,53.9375 159.1563,54.0938 Q158.5156,54.2344 157.7969,54.2344 Z " fill="#000000"/><text fill="#000000" font-family="sans-serif" font-size="14" lengthAdjust="spacing" textLength="54" x="172" y="52.932">Element</text><line style="stroke:#181818;stroke-width:0.5;" x1="144" x2="228" y1="63.5" y2="63.5"/><line style="stroke:#181818;stroke-width:0.5;" x1="144" x2="228" y1="71.5" y2="71.5"/></g><!--class ExternalMap--><g id="elem_ExternalMap"><rect fill="#F1F1F1" height="48" id="ExternalMap" rx="2.5" ry="2.5" style="stroke:#181818;stroke-width:0.5;" width="114" x="264" y="31.5"/><ellipse cx="279" cy="47.5" fill="#ADD1B2" rx="11" ry="11" style="stroke:#181818;stroke-width:1.0;"/><path d="M278.7969,54.2344 Q276.3125,54.2344 274.9844,52.5938 Q273.6719,50.9219 273.6719,47.8125 Q273.6719,44.6875 274.9844,43.0313 Q276.3125,41.375 278.7969,41.375 Q279.5156,41.375 280.1719,41.5313 Q280.8125,41.6875 281.375,41.9844 L281.375,44.7031 Q281.0156,44.3594 280.7188,44.1719 Q280.4219,43.9688 280.1563,43.8438 Q279.8438,43.7031 279.5313,43.6406 Q279.2344,43.5781 278.9219,43.5781 Q277.5938,43.5781 276.9063,44.6406 Q276.2188,45.7344 276.2188,47.8125 Q276.2188,49.9063 276.9063,50.9688 Q277.5938,52.0469 278.9219,52.0469 Q279.5625,52.0469 280.1563,51.7656 Q280.4531,51.6406 280.7344,51.4531 Q281.0313,51.25 281.375,50.9219 L281.375,53.6406 Q280.7969,53.9375 280.1563,54.0938 Q279.5156,54.2344 278.7969,54.2344 Z " fill="#000000"/><text fill="#000000" font-family="sans-serif" font-size="14" lengthAdjust="spacing" textLength="82" x="293" y="52.932">ExternalMap</text><line style="stroke:#181818;stroke-width:0.5;" x1="265" x2="377" y1="63.5" y2="63.5"/><line style="stroke:#181818;stroke-width:0.5;" x1="265" x2="377" y1="71.5" y2="71.5"/></g><!--class NamespaceMap--><g id="elem_NamespaceMap"><rect fill="#F1F1F1" height="48" id="NamespaceMap" rx="2.5" ry="2.5" style="stroke:#181818;stroke-width:0.5;" width="139" x="413.5" y="31.5"/><ellipse cx="428.5" cy="47.5" fill="#ADD1B2" rx="11" ry="11" style="stroke:#181818;stroke-width:1.0;"/><path d="M428.2969,54.2344 Q425.8125,54.2344 424.4844,52.5938 Q423.1719,50.9219 423.1719,47.8125 Q423.1719,44.6875 424.4844,43.0313 Q425.8125,41.375 428.2969,41.375 Q429.0156,41.375 429.6719,41.5313 Q430.3125,41.6875 430.875,41.9844 L430.875,44.7031 Q430.5156,44.3594 430.2188,44.1719 Q429.9219,43.9688 429.6563,43.8438 Q429.3438,43.7031 429.0313,43.6406 Q428.7344,43.5781 428.4219,43.5781 Q427.0938,43.5781 426.4063,44.6406 Q425.7188,45.7344 425.7188,47.8125 Q425.7188,49.9063 426.4063,50.9688 Q427.0938,52.0469 428.4219,52.0469 Q429.0625,52.0469 429.6563,51.7656 Q429.9531,51.6406 430.2344,51.4531 Q430.5313,51.25 430.875,50.9219 L430.875,53.6406 Q430.2969,53.9375 429.6563,54.0938 Q429.0156,54.2344 428.2969,54.2344 Z " fill="#000000"/><text fill="#000000" font-family="sans-serif" font-size="14" lengthAdjust="spacing" textLength="107" x="442.5" y="52.932">NamespaceMap</text><line style="stroke:#181818;stroke-width:0.5;" x1="414.5" x2="551.5" y1="63.5" y2="63.5"/><line style="stroke:#181818;stroke-width:0.5;" x1="414.5" x2="551.5" y1="71.5" y2="71.5"/></g><!--reverse link Element to ElementCollection--><g id="link_Element_ElementCollection"><path codeLine="19" d="M185.8,101 C185.71,119.7 185.61,142.39 185.51,165.17 " fill="none" id="Element-backto-ElementCollection" style="stroke:#181818;stroke-width:1.0;"/><polygon fill="none" points="178.8,101.21,185.89,81.25,192.8,101.28,178.8,101.21" style="stroke:#181818;stroke-width:1.0;"/></g><!--reverse link Element to ElementCollection--><g id="link_Element_ElementCollection"><path codeLine="20" d="M217.78,84.02 C238.41,104.1 263.53,133.26 275,165 C298.19,229.16 344.22,318.5 276,318.5 " fill="none" id="Element-backto-ElementCollection-1" style="stroke:#181818;stroke-width:1.0;"/><polygon fill="#181818" points="214.28,80.67,218.0189,89.7816,217.8932,84.1261,223.5487,84.0004,214.28,80.67" style="stroke:#181818;stroke-width:1.0;"/></g><!--reverse link Element to ElementCollection--><g id="link_Element_ElementCollection"><path codeLine="23" d="M217.8,84.02 C238.44,104.09 263.56,133.25 275,165 C306.72,253.02 369.56,375.5 276,375.5 " fill="none" id="Element-backto-ElementCollection-2" style="stroke:#181818;stroke-width:1.0;"/><polygon fill="#181818" points="214.29,80.67,218.0289,89.7816,217.9032,84.1261,223.5587,84.0004,214.29,80.67" style="stroke:#181818;stroke-width:1.0;"/></g><!--reverse link ExternalMap to ElementCollection--><g id="link_ExternalMap_ElementCollection"><path codeLine="21" d="M328.58,86.22 C345.42,158.48 376.95,337.5 276,337.5 " fill="none" id="ExternalMap-backto-ElementCollection" style="stroke:#181818;stroke-width:1.0;"/><polygon fill="#181818" points="327.45,81.45,325.6446,91.132,328.6087,86.3139,333.4268,89.278,327.45,81.45" style="stroke:#181818;stroke-width:1.0;"/></g><!--reverse link NamespaceMap to ElementCollection--><g id="link_NamespaceMap_ElementCollection"><path codeLine="22" d="M477.48,85.6 C461.32,160.94 406.79,356.5 276,356.5 " fill="none" id="NamespaceMap-backto-ElementCollection" style="stroke:#181818;stroke-width:1.0;"/><polygon fill="#181818" points="478.44,81.02,472.6717,89.0029,477.4099,85.9127,480.5001,90.651,478.44,81.02" style="stroke:#181818;stroke-width:1.0;"/></g><!--SRC=[ZP11JmCX48Nl_8e9zwxtpQQ9iHuys3tKFp3GQK82385fOgF-TvVAkfjOZToOz_4URz0KoMW57Zq5YlB0tfCLnn7ULDT18C4Z2aBNAPZEKoo2KHmQvvrSe8Vxvd2L3sTZFPOodYQbMLw5Y86MqP9ICrBcH5aSbJc5LYzTI9obVBkKX9Q-hfbPvf0F5La8X1FmwKREOBQ7SmYOByETsQgNSJVMsOwApIvLP9ahYaUeTaet8mt3-sO3-eUlNYCtYRvlRIhwAfGZ-cTCl-Ejy8Jlvxf_yijI_lEPrSxq9m00]--></g></svg>