<?xml version="1.0" encoding="us-ascii" standalone="no"?><svg xmlns="http://www.w3.org/2000/svg" xmlns:xlink="http://www.w3.org/1999/xlink" contentStyleType="text/css" height="504px" preserveAspectRatio="none" style="width:612px;height:504px;background:#FFFFFF;" version="1.1" viewBox="0 0 612 504" width="612px" zoomAndPan="magnify"><defs/><g><!--class ElementCollection--><g id="elem_ElementCollection"><rect codeLine="1" fill="#F1F1F1" height="219.6113" id="ElementCollection" rx="2.5" ry="2.5" style="stroke:#181818;stroke-width:0.5;" width="231" x="150.5" y="278"/><ellipse cx="205.75" cy="294" fill="#A9DCDF" rx="11" ry="11" style="stroke:#181818;stroke-width:1.0;"/><path d="M204.375,287.3594 L207.3594,287.3594 L210.7188,299.75 L208.2656,299.75 L207.5,296.6875 L204.2188,296.6875 L203.4688,299.75 L201.0313,299.75 L204.375,287.3594 Z M207.0313,294.6719 L205.8594,289.5938 L204.7031,294.6719 L207.0313,294.6719 Z " fill="#000000"/><text fill="#000000" font-family="sans-serif" font-size="14" font-style="italic" lengthAdjust="spacing" textLength="112" x="226.25" y="299.432">ElementCollection</text><line style="stroke:#181818;stroke-width:0.5;" x1="151.5" x2="380.5" y1="310" y2="310"/><text fill="#000000" font-family="sans-serif" font-size="14" lengthAdjust="spacing" textLength="156" x="156.5" y="352.0339">Instantiability : Abstract</text><text fill="#000000" font-family="sans-serif" font-size="14" lengthAdjust="spacing" textLength="137" x="156.5" y="371.1018">SubclassOf : Element</text><text fill="#000000" font-family="sans-serif" font-size="14" lengthAdjust="spacing" textLength="167" x="156.5" y="390.1697">name : ElementCollection</text><line style="stroke:#181818;stroke-width:1.0;stroke-dasharray:1.0,2.0;" x1="151.5" x2="233.5" y1="327.534" y2="327.534"/><text fill="#000000" font-family="sans-serif" font-size="14" lengthAdjust="spacing" textLength="65" x="233.5" y="332.4659">metadata</text><line style="stroke:#181818;stroke-width:1.0;stroke-dasharray:1.0,2.0;" x1="298.5" x2="380.5" y1="327.534" y2="327.534"/><text fill="#000000" font-family="sans-serif" font-size="14" lengthAdjust="spacing" textLength="146" x="156.5" y="432.3055">element : Element [1..]</text><text fill="#000000" font-family="sans-serif" font-size="14" lengthAdjust="spacing" textLength="163" x="156.5" y="451.3734">imports : ExternalMap [..]</text><text fill="#000000" font-family="sans-serif" font-size="14" lengthAdjust="spacing" textLength="219" x="156.5" y="470.4414">namespaces : NamespaceMap [..]</text><text fill="#000000" font-family="sans-serif" font-size="14" lengthAdjust="spacing" textLength="175" x="156.5" y="489.5093">rootElement : Element [1..]</text><line style="stroke:#181818;stroke-width:1.0;stroke-dasharray:1.0,2.0;" x1="151.5" x2="232.5" y1="407.8056" y2="407.8056"/><text fill="#000000" font-family="sans-serif" font-size="14" lengthAdjust="spacing" textLength="67" x="232.5" y="412.7376">properties</text><line style="stroke:#181818;stroke-width:1.0;stroke-dasharray:1.0,2.0;" x1="299.5" x2="380.5" y1="407.8056" y2="407.8056"/></g><g id="elem_GMN3"><path d="M6,115 L6,213.5301 A0,0 0 0 0 6,213.5301 L99.12,213.5301 L159.65,274.05 L107.12,213.5301 L108,213.5301 A0,0 0 0 0 108,213.5301 L108,125 L98,115 L6,115 A0,0 0 0 0 6,115 " fill="#FEFFDD" style="stroke:#181818;stroke-width:0.5;"/><path d="M98,115 L98,125 L108,125 L98,115 " fill="#FEFFDD" style="stroke:#181818;stroke-width:0.5;"/><text fill="#000000" font-family="sans-serif" font-size="13" font-weight="bold" lengthAdjust="spacing" textLength="62" x="12" y="133.897">Summary</text><text fill="#000000" font-family="sans-serif" font-size="13" lengthAdjust="spacing" textLength="38" x="12" y="151.603">TODO</text><text fill="#000000" font-family="sans-serif" font-size="13" font-weight="bold" lengthAdjust="spacing" textLength="81" x="12" y="169.309">Description</text><text fill="#000000" font-family="sans-serif" font-size="13" lengthAdjust="spacing" textLength="38" x="12" y="187.0151">TODO</text><text fill="#000000" font-family="sans-serif" font-size="13" lengthAdjust="spacing" textLength="3" x="12" y="204.7211">&#160;</text></g><!--class Element--><g id="elem_Element"><rect fill="#F1F1F1" height="48" id="Element" rx="2.5" ry="2.5" style="stroke:#181818;stroke-width:0.5;" width="86" x="189" y="7"/><ellipse cx="204" cy="23" fill="#ADD1B2" rx="11" ry="11" style="stroke:#181818;stroke-width:1.0;"/><path d="M203.7969,29.7344 Q201.3125,29.7344 199.9844,28.0938 Q198.6719,26.4219 198.6719,23.3125 Q198.6719,20.1875 199.9844,18.5313 Q201.3125,16.875 203.7969,16.875 Q204.5156,16.875 205.1719,17.0313 Q205.8125,17.1875 206.375,17.4844 L206.375,20.2031 Q206.0156,19.8594 205.7188,19.6719 Q205.4219,19.4688 205.1563,19.3438 Q204.8438,19.2031 204.5313,19.1406 Q204.2344,19.0781 203.9219,19.0781 Q202.5938,19.0781 201.9063,20.1406 Q201.2188,21.2344 201.2188,23.3125 Q201.2188,25.4063 201.9063,26.4688 Q202.5938,27.5469 203.9219,27.5469 Q204.5625,27.5469 205.1563,27.2656 Q205.4531,27.1406 205.7344,26.9531 Q206.0313,26.75 206.375,26.4219 L206.375,29.1406 Q205.7969,29.4375 205.1563,29.5938 Q204.5156,29.7344 203.7969,29.7344 Z " fill="#000000"/><text fill="#000000" font-family="sans-serif" font-size="14" lengthAdjust="spacing" textLength="54" x="218" y="28.432">Element</text><line style="stroke:#181818;stroke-width:0.5;" x1="190" x2="274" y1="39" y2="39"/><line style="stroke:#181818;stroke-width:0.5;" x1="190" x2="274" y1="47" y2="47"/></g><!--class ExternalMap--><g id="elem_ExternalMap"><rect fill="#F1F1F1" height="48" id="ExternalMap" rx="2.5" ry="2.5" style="stroke:#181818;stroke-width:0.5;" width="114" x="317" y="7"/><ellipse cx="332" cy="23" fill="#ADD1B2" rx="11" ry="11" style="stroke:#181818;stroke-width:1.0;"/><path d="M331.7969,29.7344 Q329.3125,29.7344 327.9844,28.0938 Q326.6719,26.4219 326.6719,23.3125 Q326.6719,20.1875 327.9844,18.5313 Q329.3125,16.875 331.7969,16.875 Q332.5156,16.875 333.1719,17.0313 Q333.8125,17.1875 334.375,17.4844 L334.375,20.2031 Q334.0156,19.8594 333.7188,19.6719 Q333.4219,19.4688 333.1563,19.3438 Q332.8438,19.2031 332.5313,19.1406 Q332.2344,19.0781 331.9219,19.0781 Q330.5938,19.0781 329.9063,20.1406 Q329.2188,21.2344 329.2188,23.3125 Q329.2188,25.4063 329.9063,26.4688 Q330.5938,27.5469 331.9219,27.5469 Q332.5625,27.5469 333.1563,27.2656 Q333.4531,27.1406 333.7344,26.9531 Q334.0313,26.75 334.375,26.4219 L334.375,29.1406 Q333.7969,29.4375 333.1563,29.5938 Q332.5156,29.7344 331.7969,29.7344 Z " fill="#000000"/><text fill="#000000" font-family="sans-serif" font-size="14" lengthAdjust="spacing" textLength="82" x="346" y="28.432">ExternalMap</text><line style="stroke:#181818;stroke-width:0.5;" x1="318" x2="430" y1="39" y2="39"/><line style="stroke:#181818;stroke-width:0.5;" x1="318" x2="430" y1="47" y2="47"/></g><!--class NamespaceMap--><g id="elem_NamespaceMap"><rect fill="#F1F1F1" height="48" id="NamespaceMap" rx="2.5" ry="2.5" style="stroke:#181818;stroke-width:0.5;" width="139" x="466.5" y="7"/><ellipse cx="481.5" cy="23" fill="#ADD1B2" rx="11" ry="11" style="stroke:#181818;stroke-width:1.0;"/><path d="M481.2969,29.7344 Q478.8125,29.7344 477.4844,28.0938 Q476.1719,26.4219 476.1719,23.3125 Q476.1719,20.1875 477.4844,18.5313 Q478.8125,16.875 481.2969,16.875 Q482.0156,16.875 482.6719,17.0313 Q483.3125,17.1875 483.875,17.4844 L483.875,20.2031 Q483.5156,19.8594 483.2188,19.6719 Q482.9219,19.4688 482.6563,19.3438 Q482.3438,19.2031 482.0313,19.1406 Q481.7344,19.0781 481.4219,19.0781 Q480.0938,19.0781 479.4063,20.1406 Q478.7188,21.2344 478.7188,23.3125 Q478.7188,25.4063 479.4063,26.4688 Q480.0938,27.5469 481.4219,27.5469 Q482.0625,27.5469 482.6563,27.2656 Q482.9531,27.1406 483.2344,26.9531 Q483.5313,26.75 483.875,26.4219 L483.875,29.1406 Q483.2969,29.4375 482.6563,29.5938 Q482.0156,29.7344 481.2969,29.7344 Z " fill="#000000"/><text fill="#000000" font-family="sans-serif" font-size="14" lengthAdjust="spacing" textLength="107" x="495.5" y="28.432">NamespaceMap</text><line style="stroke:#181818;stroke-width:0.5;" x1="467.5" x2="604.5" y1="39" y2="39"/><line style="stroke:#181818;stroke-width:0.5;" x1="467.5" x2="604.5" y1="47" y2="47"/></g><!--reverse link Element to ElementCollection--><g id="link_Element_ElementCollection"><path codeLine="19" d="M215.7,75.37 C211.71,87.96 208.01,101.87 206,115 C199.35,158.49 198.67,170.61 206,214 C209.35,233.85 214.74,254.47 220.93,274.25 " fill="none" id="Element-backto-ElementCollection" style="stroke:#181818;stroke-width:4.0;"/><polygon fill="none" points="209.03,73.22,222.17,56.59,222.27,77.78,209.03,73.22" style="stroke:#181818;stroke-width:4.0;"/></g><!--reverse link Element to ElementCollection--><g id="link_Element_ElementCollection"><path codeLine="20" d="M234.11,61.66 C235.52,99.08 233.82,164.53 210,214 C193.78,247.7 165.28,239.43 151,274 C124.95,337.06 81.78,427.5 150,427.5 " fill="none" id="Element-backto-ElementCollection-1" style="stroke:#181818;stroke-width:1.0;"/><polygon fill="#181818" points="233.9,56.96,230.289,66.123,234.1141,61.9554,238.2817,65.7805,233.9,56.96" style="stroke:#181818;stroke-width:1.0;"/></g><!--reverse link Element to ElementCollection--><g id="link_Element_ElementCollection"><path codeLine="23" d="M250.21,60.45 C289.42,121.83 378.6,262.15 382,274 C407.84,363.92 476.56,484.5 383,484.5 " fill="none" id="Element-backto-ElementCollection-2" style="stroke:#181818;stroke-width:1.0;"/><polygon fill="#181818" points="247.61,56.39,249.0736,66.1295,250.2972,60.6065,255.8201,61.8301,247.61,56.39" style="stroke:#181818;stroke-width:1.0;"/></g><!--reverse link ExternalMap to ElementCollection--><g id="link_ExternalMap_ElementCollection"><path codeLine="21" d="M386.92,61.42 C426.95,156.05 537.25,446.5 383,446.5 " fill="none" id="ExternalMap-backto-ElementCollection" style="stroke:#181818;stroke-width:1.0;"/><polygon fill="#181818" points="384.98,56.87,384.8228,66.7176,386.9375,61.4709,392.1842,63.5856,384.98,56.87" style="stroke:#181818;stroke-width:1.0;"/></g><!--reverse link NamespaceMap to ElementCollection--><g id="link_NamespaceMap_ElementCollection"><path codeLine="22" d="M538.68,61.72 C545.88,159.57 554.64,465.5 383,465.5 " fill="none" id="NamespaceMap-backto-ElementCollection" style="stroke:#181818;stroke-width:1.0;"/><polygon fill="#181818" points="538.31,56.82,535.0161,66.1017,538.6957,61.8051,542.9923,65.4847,538.31,56.82" style="stroke:#181818;stroke-width:1.0;"/></g><!--SRC=[ZP0nJyCm48Lt_ufJzXWXCKMX4g8T6213sQ8E5_SgB1pRigyI5V3VYKCY1r4glFdUT- -T7dQH0og6ZQ6UBDyxOqYnTXRUXPJG4-CU6K5A0SDxi97HiiPE6yqdgE1kSXZbxR5J1cDi3eCoMOw2nPxoAAUa31-Sfy2Qufn2trXUWFPQojsewTwxm35fRqp1edb43-qifw3eKL4YdkRF3oGunvi_4Zw5TKp0peCxd3ctxbRROzzZEDLNtKeyD-icpTOKLT0-8NakoEuXsObYCYgW_YXRVj7grLACjpUx4efV8SMIByjpI5LD5IKsrt21dseR-6Kf5nPoaV-wPr5gyGK0]--></g></svg>