<?xml version="1.0" encoding="us-ascii" standalone="no"?><svg xmlns="http://www.w3.org/2000/svg" xmlns:xlink="http://www.w3.org/1999/xlink" contentStyleType="text/css" height="598px" preserveAspectRatio="none" style="width:1460px;height:598px;background:#FFFFFF;" version="1.1" viewBox="0 0 1460 598" width="1460px" zoomAndPan="magnify"><defs/><g><!--class Element--><g id="elem_Element"><rect codeLine="1" fill="#F1F1F1" height="334.0188" id="Element" rx="2.5" ry="2.5" style="stroke:#181818;stroke-width:0.5;" width="168" x="780.5" y="257"/><ellipse cx="835.25" cy="273" fill="#A9DCDF" rx="11" ry="11" style="stroke:#181818;stroke-width:1.0;"/><path d="M833.875,266.3594 L836.8594,266.3594 L840.2188,278.75 L837.7656,278.75 L837,275.6875 L833.7188,275.6875 L832.9688,278.75 L830.5313,278.75 L833.875,266.3594 Z M836.5313,273.6719 L835.3594,268.5938 L834.2031,273.6719 L836.5313,273.6719 Z " fill="#000000"/><text fill="#000000" font-family="sans-serif" font-size="14" font-style="italic" lengthAdjust="spacing" textLength="50" x="855.75" y="278.432">Element</text><line style="stroke:#181818;stroke-width:0.5;" x1="781.5" x2="947.5" y1="289" y2="289"/><text fill="#000000" font-family="sans-serif" font-size="14" lengthAdjust="spacing" textLength="156" x="786.5" y="331.0339">Instantiability : Abstract</text><text fill="#000000" font-family="sans-serif" font-size="14" lengthAdjust="spacing" textLength="135" x="786.5" y="350.1018">SubclassOf : Payload</text><text fill="#000000" font-family="sans-serif" font-size="14" lengthAdjust="spacing" textLength="102" x="786.5" y="369.1697">name : Element</text><line style="stroke:#181818;stroke-width:1.0;stroke-dasharray:1.0,2.0;" x1="781.5" x2="832" y1="306.534" y2="306.534"/><text fill="#000000" font-family="sans-serif" font-size="14" lengthAdjust="spacing" textLength="65" x="832" y="311.4659">metadata</text><line style="stroke:#181818;stroke-width:1.0;stroke-dasharray:1.0,2.0;" x1="897" x2="947.5" y1="306.534" y2="306.534"/><text fill="#000000" font-family="sans-serif" font-size="14" lengthAdjust="spacing" textLength="137" x="786.5" y="411.3055">comment : xsd:string</text><text fill="#000000" font-family="sans-serif" font-size="14" lengthAdjust="spacing" textLength="81" x="786.5" y="430.3734">creationInfo</text><text fill="#000000" font-family="sans-serif" font-size="14" lengthAdjust="spacing" textLength="145" x="786.5" y="449.4414">description : xsd:string</text><text fill="#000000" font-family="sans-serif" font-size="14" lengthAdjust="spacing" textLength="71" x="786.5" y="468.5093">extensions</text><text fill="#000000" font-family="sans-serif" font-size="14" lengthAdjust="spacing" textLength="119" x="786.5" y="487.5772">externalIdentifiers</text><text fill="#000000" font-family="sans-serif" font-size="14" lengthAdjust="spacing" textLength="126" x="786.5" y="506.6451">externalReferences</text><text fill="#000000" font-family="sans-serif" font-size="14" lengthAdjust="spacing" textLength="110" x="786.5" y="525.713">name : xsd:string</text><text fill="#000000" font-family="sans-serif" font-size="14" lengthAdjust="spacing" textLength="100" x="786.5" y="544.7809">spdxId : anyURI</text><text fill="#000000" font-family="sans-serif" font-size="14" lengthAdjust="spacing" textLength="134" x="786.5" y="563.8489">summary : xsd:string</text><text fill="#000000" font-family="sans-serif" font-size="14" lengthAdjust="spacing" textLength="82" x="786.5" y="582.9168">verifiedUsing</text><line style="stroke:#181818;stroke-width:1.0;stroke-dasharray:1.0,2.0;" x1="781.5" x2="831" y1="386.8056" y2="386.8056"/><text fill="#000000" font-family="sans-serif" font-size="14" lengthAdjust="spacing" textLength="67" x="831" y="391.7376">properties</text><line style="stroke:#181818;stroke-width:1.0;stroke-dasharray:1.0,2.0;" x1="898" x2="947.5" y1="386.8056" y2="386.8056"/></g><g id="elem_GMN3"><path d="M6,6 L6,193.0602 A0,0 0 0 0 6,193.0602 L410.88,193.0602 L772.77,375.76 L418.88,193.0602 L459,193.0602 A0,0 0 0 0 459,193.0602 L459,16 L449,6 L6,6 A0,0 0 0 0 6,6 " fill="#FEFFDD" style="stroke:#181818;stroke-width:0.5;"/><path d="M449,6 L449,16 L459,16 L449,6 " fill="#FEFFDD" style="stroke:#181818;stroke-width:0.5;"/><text fill="#000000" font-family="sans-serif" font-size="13" font-weight="bold" lengthAdjust="spacing" textLength="62" x="12" y="24.897">Summary</text><text fill="#000000" font-family="sans-serif" font-size="13" lengthAdjust="spacing" textLength="432" x="12" y="42.603">Base domain class from which all other SPDX-3.0 domain classes derive.</text><text fill="#000000" font-family="sans-serif" font-size="13" font-weight="bold" lengthAdjust="spacing" textLength="81" x="12" y="60.309">Description</text><text fill="#000000" font-family="sans-serif" font-size="13" lengthAdjust="spacing" textLength="428" x="12" y="78.0151">An Element is a representation of a fundamental concept either directly</text><text fill="#000000" font-family="sans-serif" font-size="13" lengthAdjust="spacing" textLength="407" x="12" y="95.7211">inherent to the Bill of Materials (BOM) domain or indirectly related to</text><text fill="#000000" font-family="sans-serif" font-size="13" lengthAdjust="spacing" textLength="409" x="12" y="113.4271">the BOM domain and necessary for contextually characterizing BOM</text><text fill="#000000" font-family="sans-serif" font-size="13" lengthAdjust="spacing" textLength="417" x="12" y="131.1331">concepts and relationships. Within SPDX-3.0 structure this is the base</text><text fill="#000000" font-family="sans-serif" font-size="13" lengthAdjust="spacing" textLength="424" x="12" y="148.8391">class acting as a consistent, unifying, and interoperable foundation for</text><text fill="#000000" font-family="sans-serif" font-size="13" lengthAdjust="spacing" textLength="272" x="12" y="166.5451">all explicit and inter-relatable content objects.</text><text fill="#000000" font-family="sans-serif" font-size="13" lengthAdjust="spacing" textLength="3" x="12" y="184.2512">&#160;</text></g><!--class Payload--><g id="elem_Payload"><rect fill="#F1F1F1" height="48" id="Payload" rx="2.5" ry="2.5" style="stroke:#181818;stroke-width:0.5;" width="84" x="494.5" y="75.5"/><ellipse cx="509.5" cy="91.5" fill="#ADD1B2" rx="11" ry="11" style="stroke:#181818;stroke-width:1.0;"/><path d="M509.2969,98.2344 Q506.8125,98.2344 505.4844,96.5938 Q504.1719,94.9219 504.1719,91.8125 Q504.1719,88.6875 505.4844,87.0313 Q506.8125,85.375 509.2969,85.375 Q510.0156,85.375 510.6719,85.5313 Q511.3125,85.6875 511.875,85.9844 L511.875,88.7031 Q511.5156,88.3594 511.2188,88.1719 Q510.9219,87.9688 510.6563,87.8438 Q510.3438,87.7031 510.0313,87.6406 Q509.7344,87.5781 509.4219,87.5781 Q508.0938,87.5781 507.4063,88.6406 Q506.7188,89.7344 506.7188,91.8125 Q506.7188,93.9063 507.4063,94.9688 Q508.0938,96.0469 509.4219,96.0469 Q510.0625,96.0469 510.6563,95.7656 Q510.9531,95.6406 511.2344,95.4531 Q511.5313,95.25 511.875,94.9219 L511.875,97.6406 Q511.2969,97.9375 510.6563,98.0938 Q510.0156,98.2344 509.2969,98.2344 Z " fill="#000000"/><text fill="#000000" font-family="sans-serif" font-size="14" lengthAdjust="spacing" textLength="52" x="523.5" y="96.932">Payload</text><line style="stroke:#181818;stroke-width:0.5;" x1="495.5" x2="577.5" y1="107.5" y2="107.5"/><line style="stroke:#181818;stroke-width:0.5;" x1="495.5" x2="577.5" y1="115.5" y2="115.5"/></g><!--class CreationInformation--><g id="elem_CreationInformation"><rect fill="#F1F1F1" height="48" id="CreationInformation" rx="2.5" ry="2.5" style="stroke:#181818;stroke-width:0.5;" width="167" x="614" y="75.5"/><ellipse cx="629" cy="91.5" fill="#ADD1B2" rx="11" ry="11" style="stroke:#181818;stroke-width:1.0;"/><path d="M628.7969,98.2344 Q626.3125,98.2344 624.9844,96.5938 Q623.6719,94.9219 623.6719,91.8125 Q623.6719,88.6875 624.9844,87.0313 Q626.3125,85.375 628.7969,85.375 Q629.5156,85.375 630.1719,85.5313 Q630.8125,85.6875 631.375,85.9844 L631.375,88.7031 Q631.0156,88.3594 630.7188,88.1719 Q630.4219,87.9688 630.1563,87.8438 Q629.8438,87.7031 629.5313,87.6406 Q629.2344,87.5781 628.9219,87.5781 Q627.5938,87.5781 626.9063,88.6406 Q626.2188,89.7344 626.2188,91.8125 Q626.2188,93.9063 626.9063,94.9688 Q627.5938,96.0469 628.9219,96.0469 Q629.5625,96.0469 630.1563,95.7656 Q630.4531,95.6406 630.7344,95.4531 Q631.0313,95.25 631.375,94.9219 L631.375,97.6406 Q630.7969,97.9375 630.1563,98.0938 Q629.5156,98.2344 628.7969,98.2344 Z " fill="#000000"/><text fill="#000000" font-family="sans-serif" font-size="14" lengthAdjust="spacing" textLength="135" x="643" y="96.932">CreationInformation</text><line style="stroke:#181818;stroke-width:0.5;" x1="615" x2="780" y1="107.5" y2="107.5"/><line style="stroke:#181818;stroke-width:0.5;" x1="615" x2="780" y1="115.5" y2="115.5"/></g><!--class Extension--><g id="elem_Extension"><rect fill="#F1F1F1" height="48" id="Extension" rx="2.5" ry="2.5" style="stroke:#181818;stroke-width:0.5;" width="96" x="816.5" y="75.5"/><ellipse cx="831.5" cy="91.5" fill="#ADD1B2" rx="11" ry="11" style="stroke:#181818;stroke-width:1.0;"/><path d="M831.2969,98.2344 Q828.8125,98.2344 827.4844,96.5938 Q826.1719,94.9219 826.1719,91.8125 Q826.1719,88.6875 827.4844,87.0313 Q828.8125,85.375 831.2969,85.375 Q832.0156,85.375 832.6719,85.5313 Q833.3125,85.6875 833.875,85.9844 L833.875,88.7031 Q833.5156,88.3594 833.2188,88.1719 Q832.9219,87.9688 832.6563,87.8438 Q832.3438,87.7031 832.0313,87.6406 Q831.7344,87.5781 831.4219,87.5781 Q830.0938,87.5781 829.4063,88.6406 Q828.7188,89.7344 828.7188,91.8125 Q828.7188,93.9063 829.4063,94.9688 Q830.0938,96.0469 831.4219,96.0469 Q832.0625,96.0469 832.6563,95.7656 Q832.9531,95.6406 833.2344,95.4531 Q833.5313,95.25 833.875,94.9219 L833.875,97.6406 Q833.2969,97.9375 832.6563,98.0938 Q832.0156,98.2344 831.2969,98.2344 Z " fill="#000000"/><text fill="#000000" font-family="sans-serif" font-size="14" lengthAdjust="spacing" textLength="64" x="845.5" y="96.932">Extension</text><line style="stroke:#181818;stroke-width:0.5;" x1="817.5" x2="911.5" y1="107.5" y2="107.5"/><line style="stroke:#181818;stroke-width:0.5;" x1="817.5" x2="911.5" y1="115.5" y2="115.5"/></g><!--class ExternalIdentifier--><g id="elem_ExternalIdentifier"><rect fill="#F1F1F1" height="48" id="ExternalIdentifier" rx="2.5" ry="2.5" style="stroke:#181818;stroke-width:0.5;" width="144" x="947.5" y="75.5"/><ellipse cx="962.5" cy="91.5" fill="#ADD1B2" rx="11" ry="11" style="stroke:#181818;stroke-width:1.0;"/><path d="M962.2969,98.2344 Q959.8125,98.2344 958.4844,96.5938 Q957.1719,94.9219 957.1719,91.8125 Q957.1719,88.6875 958.4844,87.0313 Q959.8125,85.375 962.2969,85.375 Q963.0156,85.375 963.6719,85.5313 Q964.3125,85.6875 964.875,85.9844 L964.875,88.7031 Q964.5156,88.3594 964.2188,88.1719 Q963.9219,87.9688 963.6563,87.8438 Q963.3438,87.7031 963.0313,87.6406 Q962.7344,87.5781 962.4219,87.5781 Q961.0938,87.5781 960.4063,88.6406 Q959.7188,89.7344 959.7188,91.8125 Q959.7188,93.9063 960.4063,94.9688 Q961.0938,96.0469 962.4219,96.0469 Q963.0625,96.0469 963.6563,95.7656 Q963.9531,95.6406 964.2344,95.4531 Q964.5313,95.25 964.875,94.9219 L964.875,97.6406 Q964.2969,97.9375 963.6563,98.0938 Q963.0156,98.2344 962.2969,98.2344 Z " fill="#000000"/><text fill="#000000" font-family="sans-serif" font-size="14" lengthAdjust="spacing" textLength="112" x="976.5" y="96.932">ExternalIdentifier</text><line style="stroke:#181818;stroke-width:0.5;" x1="948.5" x2="1090.5" y1="107.5" y2="107.5"/><line style="stroke:#181818;stroke-width:0.5;" x1="948.5" x2="1090.5" y1="115.5" y2="115.5"/></g><!--class ExternalReference--><g id="elem_ExternalReference"><rect fill="#F1F1F1" height="48" id="ExternalReference" rx="2.5" ry="2.5" style="stroke:#181818;stroke-width:0.5;" width="151" x="1127" y="75.5"/><ellipse cx="1142" cy="91.5" fill="#ADD1B2" rx="11" ry="11" style="stroke:#181818;stroke-width:1.0;"/><path d="M1141.7969,98.2344 Q1139.3125,98.2344 1137.9844,96.5938 Q1136.6719,94.9219 1136.6719,91.8125 Q1136.6719,88.6875 1137.9844,87.0313 Q1139.3125,85.375 1141.7969,85.375 Q1142.5156,85.375 1143.1719,85.5313 Q1143.8125,85.6875 1144.375,85.9844 L1144.375,88.7031 Q1144.0156,88.3594 1143.7188,88.1719 Q1143.4219,87.9688 1143.1563,87.8438 Q1142.8438,87.7031 1142.5313,87.6406 Q1142.2344,87.5781 1141.9219,87.5781 Q1140.5938,87.5781 1139.9063,88.6406 Q1139.2188,89.7344 1139.2188,91.8125 Q1139.2188,93.9063 1139.9063,94.9688 Q1140.5938,96.0469 1141.9219,96.0469 Q1142.5625,96.0469 1143.1563,95.7656 Q1143.4531,95.6406 1143.7344,95.4531 Q1144.0313,95.25 1144.375,94.9219 L1144.375,97.6406 Q1143.7969,97.9375 1143.1563,98.0938 Q1142.5156,98.2344 1141.7969,98.2344 Z " fill="#000000"/><text fill="#000000" font-family="sans-serif" font-size="14" lengthAdjust="spacing" textLength="119" x="1156" y="96.932">ExternalReference</text><line style="stroke:#181818;stroke-width:0.5;" x1="1128" x2="1277" y1="107.5" y2="107.5"/><line style="stroke:#181818;stroke-width:0.5;" x1="1128" x2="1277" y1="115.5" y2="115.5"/></g><!--class IntegrityMethod--><g id="elem_IntegrityMethod"><rect fill="#F1F1F1" height="48" id="IntegrityMethod" rx="2.5" ry="2.5" style="stroke:#181818;stroke-width:0.5;" width="140" x="1313.5" y="75.5"/><ellipse cx="1328.5" cy="91.5" fill="#ADD1B2" rx="11" ry="11" style="stroke:#181818;stroke-width:1.0;"/><path d="M1328.2969,98.2344 Q1325.8125,98.2344 1324.4844,96.5938 Q1323.1719,94.9219 1323.1719,91.8125 Q1323.1719,88.6875 1324.4844,87.0313 Q1325.8125,85.375 1328.2969,85.375 Q1329.0156,85.375 1329.6719,85.5313 Q1330.3125,85.6875 1330.875,85.9844 L1330.875,88.7031 Q1330.5156,88.3594 1330.2188,88.1719 Q1329.9219,87.9688 1329.6563,87.8438 Q1329.3438,87.7031 1329.0313,87.6406 Q1328.7344,87.5781 1328.4219,87.5781 Q1327.0938,87.5781 1326.4063,88.6406 Q1325.7188,89.7344 1325.7188,91.8125 Q1325.7188,93.9063 1326.4063,94.9688 Q1327.0938,96.0469 1328.4219,96.0469 Q1329.0625,96.0469 1329.6563,95.7656 Q1329.9531,95.6406 1330.2344,95.4531 Q1330.5313,95.25 1330.875,94.9219 L1330.875,97.6406 Q1330.2969,97.9375 1329.6563,98.0938 Q1329.0156,98.2344 1328.2969,98.2344 Z " fill="#000000"/><text fill="#000000" font-family="sans-serif" font-size="14" lengthAdjust="spacing" textLength="108" x="1342.5" y="96.932">IntegrityMethod</text><line style="stroke:#181818;stroke-width:0.5;" x1="1314.5" x2="1452.5" y1="107.5" y2="107.5"/><line style="stroke:#181818;stroke-width:0.5;" x1="1314.5" x2="1452.5" y1="115.5" y2="115.5"/></g><!--reverse link Payload to Element--><g id="link_Payload_Element"><path codeLine="30" d="M560.04,142.26 C570.26,158.82 582.98,177.56 596.5,193 C649.25,253.27 718.03,311.84 772.7,354.73 " fill="none" id="Payload-backto-Element" style="stroke:#181818;stroke-width:1.0;"/><polygon fill="none" points="554.06,145.91,549.89,125.13,566.11,138.77,554.06,145.91" style="stroke:#181818;stroke-width:1.0;"/></g><!--reverse link CreationInformation to Element--><g id="link_CreationInformation_Element"><path codeLine="31" d="M692.4,129.84 C680.1,209.78 658.13,425.5 779.5,425.5 " fill="none" id="CreationInformation-backto-Element" style="stroke:#181818;stroke-width:1.0;"/><polygon fill="#181818" points="693.11,125.37,687.77,133.6455,692.339,130.3102,695.6743,134.8792,693.11,125.37" style="stroke:#181818;stroke-width:1.0;"/></g><!--reverse link Extension to Element--><g id="link_Extension_Element"><path codeLine="32" d="M883.45,129.17 C938.59,214.91 1086.62,463.5 949.5,463.5 " fill="none" id="Extension-backto-Element" style="stroke:#181818;stroke-width:1.0;"/><polygon fill="#181818" points="880.78,125.03,882.3055,134.76,883.4939,129.2294,889.0245,130.4178,880.78,125.03" style="stroke:#181818;stroke-width:1.0;"/></g><!--reverse link ExternalIdentifier to Element--><g id="link_ExternalIdentifier_Element"><path codeLine="33" d="M1026.56,129.96 C1046.47,219.53 1092.71,482.5 949.5,482.5 " fill="none" id="ExternalIdentifier-backto-Element" style="stroke:#181818;stroke-width:1.0;"/><polygon fill="#181818" points="1025.51,125.3,1023.5845,134.9588,1026.6082,130.1779,1031.3891,133.2016,1025.51,125.3" style="stroke:#181818;stroke-width:1.0;"/></g><!--reverse link ExternalReference to Element--><g id="link_ExternalReference_Element"><path codeLine="34" d="M1198.4,130.14 C1183.76,222.91 1125.15,501.5 949.5,501.5 " fill="none" id="ExternalReference-backto-Element" style="stroke:#181818;stroke-width:1.0;"/><polygon fill="#181818" points="1199.15,125.29,1193.81,133.5655,1198.379,130.2302,1201.7143,134.7992,1199.15,125.29" style="stroke:#181818;stroke-width:1.0;"/></g><!--reverse link IntegrityMethod to Element--><g id="link_IntegrityMethod_Element"><path codeLine="35" d="M1373.49,129.74 C1335.91,233.44 1192.92,577.5 949.5,577.5 " fill="none" id="IntegrityMethod-backto-Element" style="stroke:#181818;stroke-width:1.0;"/><polygon fill="#181818" points="1375.09,125.25,1368.2864,132.3712,1373.402,129.9564,1375.8167,135.072,1375.09,125.25" style="stroke:#181818;stroke-width:1.0;"/></g><!--SRC=[TLHDRzim3BthLn0-RK3Z3TWj20eqQmy-12aQ5DkLjkYQWomPajp5-_ZlevJlj3DoiCdt7gb7CLY7wB69y62e9nlXjofBw2cYneXGbWhagMo8Q2DZpORZ17Eus_DoUZFMZS4Grgra7d4o3dLEMEn9Gdljf3nuDv2FJE6WtRW-5vx3DkYvgB9zsIKyOMHdAzkw7D0K6iz3Yhr5qpQI3P8AnqzlqLHQjBbbyfVn9sh9asqed3TwfHa6lQsqnD5Epq_LBZRsFVhfBVYLVAgZdqEA_5NMHOBe1d3jqO15VRlPyHUVwbkrn42WNOzi8Hi8hNSz_EouwG2D0HSxyh1vlFy- -r9-le2AWLeglbAPLEzFrcJbEtiSA0T0y3Hu2lAP7Kqj8RIZrPWWQ6G8OiKGWJXNrEofYMPIRBjaKvI3W6HWoQch5bOeDZAQ01-MwzN7GsVE0zi3MOeQWMdXginThmuuj1eiYVaXMTaAJHg8CfjHJZr1qs6wMrBXbtYPY6hVOCZKB9n6tV4GIlWcJOleqIOPojZ4qOlzdPnUVgbyBMQhdSkYdNGnEIF2WOFSdNW3e-LsainDhiBIKRwjM1kI9fDTsJtfLwNfq7Omt70yeMUviupF1nBZNFr3t0YbKfGEBPT25ViLAM3nPpQ3OZ-fGXLVpwwyx_EhWCumy_dvLWZZuN3jht6dVTYZBhVXFVZLlfpnZjloFzffdOHLoSbVlFnFh2XsJbzpBXQb-0S0]--></g></svg>