<?xml version="1.0" encoding="us-ascii" standalone="no"?><svg xmlns="http://www.w3.org/2000/svg" xmlns:xlink="http://www.w3.org/1999/xlink" contentStyleType="text/css" height="707px" preserveAspectRatio="none" style="width:1298px;height:707px;background:#FFFFFF;" version="1.1" viewBox="0 0 1298 707" width="1298px" zoomAndPan="magnify"><defs/><g><!--class Element--><g id="elem_Element"><rect codeLine="1" fill="#F1F1F1" height="334.0188" id="Element" rx="2.5" ry="2.5" style="stroke:#181818;stroke-width:0.5;" width="287" x="558" y="366"/><ellipse cx="672.25" cy="382" fill="#A9DCDF" rx="11" ry="11" style="stroke:#181818;stroke-width:1.0;"/><path d="M670.875,375.3594 L673.8594,375.3594 L677.2188,387.75 L674.7656,387.75 L674,384.6875 L670.7188,384.6875 L669.9688,387.75 L667.5313,387.75 L670.875,375.3594 Z M673.5313,382.6719 L672.3594,377.5938 L671.2031,382.6719 L673.5313,382.6719 Z " fill="#000000"/><text fill="#000000" font-family="sans-serif" font-size="14" font-style="italic" lengthAdjust="spacing" textLength="50" x="692.75" y="387.432">Element</text><line style="stroke:#181818;stroke-width:0.5;" x1="559" x2="844" y1="398" y2="398"/><text fill="#000000" font-family="sans-serif" font-size="14" lengthAdjust="spacing" textLength="156" x="564" y="440.0339">Instantiability : Abstract</text><text fill="#000000" font-family="sans-serif" font-size="14" lengthAdjust="spacing" textLength="135" x="564" y="459.1018">SubclassOf : Payload</text><text fill="#000000" font-family="sans-serif" font-size="14" lengthAdjust="spacing" textLength="102" x="564" y="478.1697">name : Element</text><line style="stroke:#181818;stroke-width:1.0;stroke-dasharray:1.0,2.0;" x1="559" x2="669" y1="415.534" y2="415.534"/><text fill="#000000" font-family="sans-serif" font-size="14" lengthAdjust="spacing" textLength="65" x="669" y="420.4659">metadata</text><line style="stroke:#181818;stroke-width:1.0;stroke-dasharray:1.0,2.0;" x1="734" x2="844" y1="415.534" y2="415.534"/><text fill="#000000" font-family="sans-serif" font-size="14" lengthAdjust="spacing" textLength="164" x="564" y="520.3055">comment : xsd:string [..1]</text><text fill="#000000" font-family="sans-serif" font-size="14" lengthAdjust="spacing" textLength="262" x="564" y="539.3734">creationInfo : CreationInformation [1..1]</text><text fill="#000000" font-family="sans-serif" font-size="14" lengthAdjust="spacing" textLength="172" x="564" y="558.4414">description : xsd:string [..1]</text><text fill="#000000" font-family="sans-serif" font-size="14" lengthAdjust="spacing" textLength="165" x="564" y="577.5093">extensions : Extension [..]</text><text fill="#000000" font-family="sans-serif" font-size="14" lengthAdjust="spacing" textLength="261" x="564" y="596.5772">externalIdentifiers : ExternalIdentifier [..]</text><text fill="#000000" font-family="sans-serif" font-size="14" lengthAdjust="spacing" textLength="275" x="564" y="615.6451">externalReferences : ExternalReference [..]</text><text fill="#000000" font-family="sans-serif" font-size="14" lengthAdjust="spacing" textLength="137" x="564" y="634.713">name : xsd:string [..1]</text><text fill="#000000" font-family="sans-serif" font-size="14" lengthAdjust="spacing" textLength="135" x="564" y="653.7809">spdxId : anyURI [1..1]</text><text fill="#000000" font-family="sans-serif" font-size="14" lengthAdjust="spacing" textLength="161" x="564" y="672.8489">summary : xsd:string [..1]</text><text fill="#000000" font-family="sans-serif" font-size="14" lengthAdjust="spacing" textLength="220" x="564" y="691.9168">verifiedUsing : IntegrityMethod [..]</text><line style="stroke:#181818;stroke-width:1.0;stroke-dasharray:1.0,2.0;" x1="559" x2="668" y1="495.8056" y2="495.8056"/><text fill="#000000" font-family="sans-serif" font-size="14" lengthAdjust="spacing" textLength="67" x="668" y="500.7376">properties</text><line style="stroke:#181818;stroke-width:1.0;stroke-dasharray:1.0,2.0;" x1="735" x2="844" y1="495.8056" y2="495.8056"/></g><g id="elem_GMN3"><path d="M6,115 L6,302.0602 A0,0 0 0 0 6,302.0602 L363.84,302.0602 L550.33,427.71 L371.84,302.0602 L459,302.0602 A0,0 0 0 0 459,302.0602 L459,125 L449,115 L6,115 A0,0 0 0 0 6,115 " fill="#FEFFDD" style="stroke:#181818;stroke-width:0.5;"/><path d="M449,115 L449,125 L459,125 L449,115 " fill="#FEFFDD" style="stroke:#181818;stroke-width:0.5;"/><text fill="#000000" font-family="sans-serif" font-size="13" font-weight="bold" lengthAdjust="spacing" textLength="62" x="12" y="133.897">Summary</text><text fill="#000000" font-family="sans-serif" font-size="13" lengthAdjust="spacing" textLength="432" x="12" y="151.603">Base domain class from which all other SPDX-3.0 domain classes derive.</text><text fill="#000000" font-family="sans-serif" font-size="13" font-weight="bold" lengthAdjust="spacing" textLength="81" x="12" y="169.309">Description</text><text fill="#000000" font-family="sans-serif" font-size="13" lengthAdjust="spacing" textLength="428" x="12" y="187.0151">An Element is a representation of a fundamental concept either directly</text><text fill="#000000" font-family="sans-serif" font-size="13" lengthAdjust="spacing" textLength="407" x="12" y="204.7211">inherent to the Bill of Materials (BOM) domain or indirectly related to</text><text fill="#000000" font-family="sans-serif" font-size="13" lengthAdjust="spacing" textLength="409" x="12" y="222.4271">the BOM domain and necessary for contextually characterizing BOM</text><text fill="#000000" font-family="sans-serif" font-size="13" lengthAdjust="spacing" textLength="417" x="12" y="240.1331">concepts and relationships. Within SPDX-3.0 structure this is the base</text><text fill="#000000" font-family="sans-serif" font-size="13" lengthAdjust="spacing" textLength="424" x="12" y="257.8391">class acting as a consistent, unifying, and interoperable foundation for</text><text fill="#000000" font-family="sans-serif" font-size="13" lengthAdjust="spacing" textLength="272" x="12" y="275.5451">all explicit and inter-relatable content objects.</text><text fill="#000000" font-family="sans-serif" font-size="13" lengthAdjust="spacing" textLength="3" x="12" y="293.2512">&#160;</text></g><!--class Payload--><g id="elem_Payload"><rect fill="#F1F1F1" height="48" id="Payload" rx="2.5" ry="2.5" style="stroke:#181818;stroke-width:0.5;" width="84" x="494.5" y="184.5"/><ellipse cx="509.5" cy="200.5" fill="#ADD1B2" rx="11" ry="11" style="stroke:#181818;stroke-width:1.0;"/><path d="M509.2969,207.2344 Q506.8125,207.2344 505.4844,205.5938 Q504.1719,203.9219 504.1719,200.8125 Q504.1719,197.6875 505.4844,196.0313 Q506.8125,194.375 509.2969,194.375 Q510.0156,194.375 510.6719,194.5313 Q511.3125,194.6875 511.875,194.9844 L511.875,197.7031 Q511.5156,197.3594 511.2188,197.1719 Q510.9219,196.9688 510.6563,196.8438 Q510.3438,196.7031 510.0313,196.6406 Q509.7344,196.5781 509.4219,196.5781 Q508.0938,196.5781 507.4063,197.6406 Q506.7188,198.7344 506.7188,200.8125 Q506.7188,202.9063 507.4063,203.9688 Q508.0938,205.0469 509.4219,205.0469 Q510.0625,205.0469 510.6563,204.7656 Q510.9531,204.6406 511.2344,204.4531 Q511.5313,204.25 511.875,203.9219 L511.875,206.6406 Q511.2969,206.9375 510.6563,207.0938 Q510.0156,207.2344 509.2969,207.2344 Z " fill="#000000"/><text fill="#000000" font-family="sans-serif" font-size="14" lengthAdjust="spacing" textLength="52" x="523.5" y="205.932">Payload</text><line style="stroke:#181818;stroke-width:0.5;" x1="495.5" x2="577.5" y1="216.5" y2="216.5"/><line style="stroke:#181818;stroke-width:0.5;" x1="495.5" x2="577.5" y1="224.5" y2="224.5"/></g><!--class CreationInformation--><g id="elem_CreationInformation"><rect fill="#F1F1F1" height="48" id="CreationInformation" rx="2.5" ry="2.5" style="stroke:#181818;stroke-width:0.5;" width="167" x="452" y="7"/><ellipse cx="467" cy="23" fill="#ADD1B2" rx="11" ry="11" style="stroke:#181818;stroke-width:1.0;"/><path d="M466.7969,29.7344 Q464.3125,29.7344 462.9844,28.0938 Q461.6719,26.4219 461.6719,23.3125 Q461.6719,20.1875 462.9844,18.5313 Q464.3125,16.875 466.7969,16.875 Q467.5156,16.875 468.1719,17.0313 Q468.8125,17.1875 469.375,17.4844 L469.375,20.2031 Q469.0156,19.8594 468.7188,19.6719 Q468.4219,19.4688 468.1563,19.3438 Q467.8438,19.2031 467.5313,19.1406 Q467.2344,19.0781 466.9219,19.0781 Q465.5938,19.0781 464.9063,20.1406 Q464.2188,21.2344 464.2188,23.3125 Q464.2188,25.4063 464.9063,26.4688 Q465.5938,27.5469 466.9219,27.5469 Q467.5625,27.5469 468.1563,27.2656 Q468.4531,27.1406 468.7344,26.9531 Q469.0313,26.75 469.375,26.4219 L469.375,29.1406 Q468.7969,29.4375 468.1563,29.5938 Q467.5156,29.7344 466.7969,29.7344 Z " fill="#000000"/><text fill="#000000" font-family="sans-serif" font-size="14" lengthAdjust="spacing" textLength="135" x="481" y="28.432">CreationInformation</text><line style="stroke:#181818;stroke-width:0.5;" x1="453" x2="618" y1="39" y2="39"/><line style="stroke:#181818;stroke-width:0.5;" x1="453" x2="618" y1="47" y2="47"/></g><!--class Extension--><g id="elem_Extension"><rect fill="#F1F1F1" height="48" id="Extension" rx="2.5" ry="2.5" style="stroke:#181818;stroke-width:0.5;" width="96" x="654.5" y="7"/><ellipse cx="669.5" cy="23" fill="#ADD1B2" rx="11" ry="11" style="stroke:#181818;stroke-width:1.0;"/><path d="M669.2969,29.7344 Q666.8125,29.7344 665.4844,28.0938 Q664.1719,26.4219 664.1719,23.3125 Q664.1719,20.1875 665.4844,18.5313 Q666.8125,16.875 669.2969,16.875 Q670.0156,16.875 670.6719,17.0313 Q671.3125,17.1875 671.875,17.4844 L671.875,20.2031 Q671.5156,19.8594 671.2188,19.6719 Q670.9219,19.4688 670.6563,19.3438 Q670.3438,19.2031 670.0313,19.1406 Q669.7344,19.0781 669.4219,19.0781 Q668.0938,19.0781 667.4063,20.1406 Q666.7188,21.2344 666.7188,23.3125 Q666.7188,25.4063 667.4063,26.4688 Q668.0938,27.5469 669.4219,27.5469 Q670.0625,27.5469 670.6563,27.2656 Q670.9531,27.1406 671.2344,26.9531 Q671.5313,26.75 671.875,26.4219 L671.875,29.1406 Q671.2969,29.4375 670.6563,29.5938 Q670.0156,29.7344 669.2969,29.7344 Z " fill="#000000"/><text fill="#000000" font-family="sans-serif" font-size="14" lengthAdjust="spacing" textLength="64" x="683.5" y="28.432">Extension</text><line style="stroke:#181818;stroke-width:0.5;" x1="655.5" x2="749.5" y1="39" y2="39"/><line style="stroke:#181818;stroke-width:0.5;" x1="655.5" x2="749.5" y1="47" y2="47"/></g><!--class ExternalIdentifier--><g id="elem_ExternalIdentifier"><rect fill="#F1F1F1" height="48" id="ExternalIdentifier" rx="2.5" ry="2.5" style="stroke:#181818;stroke-width:0.5;" width="144" x="785.5" y="7"/><ellipse cx="800.5" cy="23" fill="#ADD1B2" rx="11" ry="11" style="stroke:#181818;stroke-width:1.0;"/><path d="M800.2969,29.7344 Q797.8125,29.7344 796.4844,28.0938 Q795.1719,26.4219 795.1719,23.3125 Q795.1719,20.1875 796.4844,18.5313 Q797.8125,16.875 800.2969,16.875 Q801.0156,16.875 801.6719,17.0313 Q802.3125,17.1875 802.875,17.4844 L802.875,20.2031 Q802.5156,19.8594 802.2188,19.6719 Q801.9219,19.4688 801.6563,19.3438 Q801.3438,19.2031 801.0313,19.1406 Q800.7344,19.0781 800.4219,19.0781 Q799.0938,19.0781 798.4063,20.1406 Q797.7188,21.2344 797.7188,23.3125 Q797.7188,25.4063 798.4063,26.4688 Q799.0938,27.5469 800.4219,27.5469 Q801.0625,27.5469 801.6563,27.2656 Q801.9531,27.1406 802.2344,26.9531 Q802.5313,26.75 802.875,26.4219 L802.875,29.1406 Q802.2969,29.4375 801.6563,29.5938 Q801.0156,29.7344 800.2969,29.7344 Z " fill="#000000"/><text fill="#000000" font-family="sans-serif" font-size="14" lengthAdjust="spacing" textLength="112" x="814.5" y="28.432">ExternalIdentifier</text><line style="stroke:#181818;stroke-width:0.5;" x1="786.5" x2="928.5" y1="39" y2="39"/><line style="stroke:#181818;stroke-width:0.5;" x1="786.5" x2="928.5" y1="47" y2="47"/></g><!--class ExternalReference--><g id="elem_ExternalReference"><rect fill="#F1F1F1" height="48" id="ExternalReference" rx="2.5" ry="2.5" style="stroke:#181818;stroke-width:0.5;" width="151" x="965" y="7"/><ellipse cx="980" cy="23" fill="#ADD1B2" rx="11" ry="11" style="stroke:#181818;stroke-width:1.0;"/><path d="M979.7969,29.7344 Q977.3125,29.7344 975.9844,28.0938 Q974.6719,26.4219 974.6719,23.3125 Q974.6719,20.1875 975.9844,18.5313 Q977.3125,16.875 979.7969,16.875 Q980.5156,16.875 981.1719,17.0313 Q981.8125,17.1875 982.375,17.4844 L982.375,20.2031 Q982.0156,19.8594 981.7188,19.6719 Q981.4219,19.4688 981.1563,19.3438 Q980.8438,19.2031 980.5313,19.1406 Q980.2344,19.0781 979.9219,19.0781 Q978.5938,19.0781 977.9063,20.1406 Q977.2188,21.2344 977.2188,23.3125 Q977.2188,25.4063 977.9063,26.4688 Q978.5938,27.5469 979.9219,27.5469 Q980.5625,27.5469 981.1563,27.2656 Q981.4531,27.1406 981.7344,26.9531 Q982.0313,26.75 982.375,26.4219 L982.375,29.1406 Q981.7969,29.4375 981.1563,29.5938 Q980.5156,29.7344 979.7969,29.7344 Z " fill="#000000"/><text fill="#000000" font-family="sans-serif" font-size="14" lengthAdjust="spacing" textLength="119" x="994" y="28.432">ExternalReference</text><line style="stroke:#181818;stroke-width:0.5;" x1="966" x2="1115" y1="39" y2="39"/><line style="stroke:#181818;stroke-width:0.5;" x1="966" x2="1115" y1="47" y2="47"/></g><!--class IntegrityMethod--><g id="elem_IntegrityMethod"><rect fill="#F1F1F1" height="48" id="IntegrityMethod" rx="2.5" ry="2.5" style="stroke:#181818;stroke-width:0.5;" width="140" x="1151.5" y="7"/><ellipse cx="1166.5" cy="23" fill="#ADD1B2" rx="11" ry="11" style="stroke:#181818;stroke-width:1.0;"/><path d="M1166.2969,29.7344 Q1163.8125,29.7344 1162.4844,28.0938 Q1161.1719,26.4219 1161.1719,23.3125 Q1161.1719,20.1875 1162.4844,18.5313 Q1163.8125,16.875 1166.2969,16.875 Q1167.0156,16.875 1167.6719,17.0313 Q1168.3125,17.1875 1168.875,17.4844 L1168.875,20.2031 Q1168.5156,19.8594 1168.2188,19.6719 Q1167.9219,19.4688 1167.6563,19.3438 Q1167.3438,19.2031 1167.0313,19.1406 Q1166.7344,19.0781 1166.4219,19.0781 Q1165.0938,19.0781 1164.4063,20.1406 Q1163.7188,21.2344 1163.7188,23.3125 Q1163.7188,25.4063 1164.4063,26.4688 Q1165.0938,27.5469 1166.4219,27.5469 Q1167.0625,27.5469 1167.6563,27.2656 Q1167.9531,27.1406 1168.2344,26.9531 Q1168.5313,26.75 1168.875,26.4219 L1168.875,29.1406 Q1168.2969,29.4375 1167.6563,29.5938 Q1167.0156,29.7344 1166.2969,29.7344 Z " fill="#000000"/><text fill="#000000" font-family="sans-serif" font-size="14" lengthAdjust="spacing" textLength="108" x="1180.5" y="28.432">IntegrityMethod</text><line style="stroke:#181818;stroke-width:0.5;" x1="1152.5" x2="1290.5" y1="39" y2="39"/><line style="stroke:#181818;stroke-width:0.5;" x1="1152.5" x2="1290.5" y1="47" y2="47"/></g><!--reverse link Payload to Element--><g id="link_Payload_Element"><path codeLine="30" d="M558.17,251.79 C573,280.72 593.72,321.16 614.8,362.31 " fill="none" id="Payload-backto-Element" style="stroke:#181818;stroke-width:4.0;"/><polygon fill="none" points="552.08,255.26,549.19,234.26,564.54,248.87,552.08,255.26" style="stroke:#181818;stroke-width:4.0;"/></g><!--reverse link CreationInformation to Element--><g id="link_CreationInformation_Element"><path codeLine="31" d="M563.36,60.31 C576.11,75.26 589.84,94.7 596.5,115 C622.4,193.97 619.65,222.18 596.5,302 C587.71,332.32 567.38,331.71 558.5,362 C536.93,435.57 480.83,534.5 557.5,534.5 " fill="none" id="CreationInformation-backto-Element" style="stroke:#181818;stroke-width:1.0;"/><polygon fill="#181818" points="560.08,56.56,562.9937,65.968,563.3715,60.3238,569.0157,60.7016,560.08,56.56" style="stroke:#181818;stroke-width:1.0;"/></g><!--reverse link Extension to Element--><g id="link_Extension_Element"><path codeLine="32" d="M719.78,60.8 C752.13,116.55 820.77,244.14 845.5,362 C864.71,453.56 940.06,572.5 846.5,572.5 " fill="none" id="Extension-backto-Element" style="stroke:#181818;stroke-width:1.0;"/><polygon fill="#181818" points="717.35,56.62,718.4116,66.4115,719.8614,60.9435,725.3293,62.3933,717.35,56.62" style="stroke:#181818;stroke-width:1.0;"/></g><!--reverse link ExternalIdentifier to Element--><g id="link_ExternalIdentifier_Element"><path codeLine="33" d="M869.25,61.21 C914,176.21 1060.78,591.5 846.5,591.5 " fill="none" id="ExternalIdentifier-backto-Element" style="stroke:#181818;stroke-width:1.0;"/><polygon fill="#181818" points="867.5,56.74,867.0398,66.5781,869.315,61.3989,874.4941,63.6741,867.5,56.74" style="stroke:#181818;stroke-width:1.0;"/></g><!--reverse link ExternalReference to Element--><g id="link_ExternalReference_Element"><path codeLine="34" d="M1043.77,61.76 C1055.13,180.05 1080.42,610.5 846.5,610.5 " fill="none" id="ExternalReference-backto-Element" style="stroke:#181818;stroke-width:1.0;"/><polygon fill="#181818" points="1043.29,56.9,1040.2107,66.2551,1043.7903,61.8749,1048.1706,65.4545,1043.29,56.9" style="stroke:#181818;stroke-width:1.0;"/></g><!--reverse link IntegrityMethod to Element--><g id="link_IntegrityMethod_Element"><path codeLine="35" d="M1219.01,61.43 C1206.48,188.83 1138.84,686.5 846.5,686.5 " fill="none" id="IntegrityMethod-backto-Element" style="stroke:#181818;stroke-width:1.0;"/><polygon fill="#181818" points="1219.45,56.8,1214.6205,65.3835,1218.9793,61.7778,1222.585,66.1366,1219.45,56.8" style="stroke:#181818;stroke-width:1.0;"/></g><!--SRC=[TLDDRzim3BthLn0vRK3ZhTXEGLgWMNV88KZHeDY0eWVQecjjicH8SXVlux-FKXmxQPeYXrfyZtny937tmM4HuAkccao0FoBBeAQ04WD2bWdWlwNn0KrGc2kjGWSpkEbvARnfyqAZz-kI8tVOQOio1GpMn4zzxfYvSROX5nJvVUx2rgdm3BPUpZYhCi_mc6MNJxkm8mpAcgKfBME-77owElqBZvS3Mf8ld6hIyvc4j0raF0DyLBR_Y80nxWpgfMHLgbJazi3ZrrF6FPNao1HqI1WUHtploflgV2EtIybHDDt3_VAmDz_MDRhk7FE5NDGb7tnyd_7C0ZqxdjQAGcNbhlm_OMmW2BO1MmvpcUVNcrto-OVyMYpG4qXRepAGvWgbipNygbHH0MeDDbJS_-RkzllqK_Rn2CgzInRoGbdCUZkE8sM-CSEUAGy8ZXf7dZztWsH926Lh94O8QjuDDgu9G2fLbCfH4NGdbAcYgO4R0Ox0GaLL9QoGJLUeFRnRh5Vlzygi0sNsP2wg6IQPAn9tlThZq4WmnFFpqMTUi2WWy7XRxhg3eiAuybpXTxIOYQ8Nw1Cr9OwBLQd6P_2DHNFImIQUM5k4rh7z5NVFlrW-PxF5pcNE7VDYT8OJU-LvESC5j4QL7KSkKXN5Yj8HOQw9HKQxadkiLyJfqBRHgb1XH4-JieHF3R5nDl_1RlXC28fDyrA8IN-v4vZ_dJwonkAdOIkkFZzDOTAFRI8cRrmWCwRJ4JIR7HujKuOhEm6EnzZ3Zc_iJVohupmW3hTsbZUUADDUNSW9wUYY9ly1]--></g></svg>