<?xml version="1.0" encoding="us-ascii" standalone="no"?><svg xmlns="http://www.w3.org/2000/svg" xmlns:xlink="http://www.w3.org/1999/xlink" contentStyleType="text/css" height="460px" preserveAspectRatio="none" style="width:1041px;height:460px;background:#FFFFFF;" version="1.1" viewBox="0 0 1041 460" width="1041px" zoomAndPan="magnify"><defs/><g><!--class Element--><g id="elem_Element"><rect codeLine="1" fill="#F1F1F1" height="334.0188" id="Element" rx="2.5" ry="2.5" style="stroke:#181818;stroke-width:0.5;" width="168" x="370" y="119"/><ellipse cx="422.75" cy="135" fill="#ADD1B2" rx="11" ry="11" style="stroke:#181818;stroke-width:1.0;"/><path d="M422.5469,141.7344 Q420.0625,141.7344 418.7344,140.0938 Q417.4219,138.4219 417.4219,135.3125 Q417.4219,132.1875 418.7344,130.5313 Q420.0625,128.875 422.5469,128.875 Q423.2656,128.875 423.9219,129.0313 Q424.5625,129.1875 425.125,129.4844 L425.125,132.2031 Q424.7656,131.8594 424.4688,131.6719 Q424.1719,131.4688 423.9063,131.3438 Q423.5938,131.2031 423.2813,131.1406 Q422.9844,131.0781 422.6719,131.0781 Q421.3438,131.0781 420.6563,132.1406 Q419.9688,133.2344 419.9688,135.3125 Q419.9688,137.4063 420.6563,138.4688 Q421.3438,139.5469 422.6719,139.5469 Q423.3125,139.5469 423.9063,139.2656 Q424.2031,139.1406 424.4844,138.9531 Q424.7813,138.75 425.125,138.4219 L425.125,141.1406 Q424.5469,141.4375 423.9063,141.5938 Q423.2656,141.7344 422.5469,141.7344 Z " fill="#000000"/><text fill="#000000" font-family="sans-serif" font-size="14" lengthAdjust="spacing" textLength="54" x="443.25" y="140.432">Element</text><line style="stroke:#181818;stroke-width:0.5;" x1="371" x2="537" y1="151" y2="151"/><text fill="#000000" font-family="sans-serif" font-size="14" lengthAdjust="spacing" textLength="156" x="376" y="193.0339">Instantiability : Abstract</text><text fill="#000000" font-family="sans-serif" font-size="14" lengthAdjust="spacing" textLength="135" x="376" y="212.1018">SubclassOf : Payload</text><text fill="#000000" font-family="sans-serif" font-size="14" lengthAdjust="spacing" textLength="102" x="376" y="231.1697">name : Element</text><line style="stroke:#181818;stroke-width:1.0;stroke-dasharray:1.0,2.0;" x1="371" x2="421.5" y1="168.534" y2="168.534"/><text fill="#000000" font-family="sans-serif" font-size="14" lengthAdjust="spacing" textLength="65" x="421.5" y="173.4659">metadata</text><line style="stroke:#181818;stroke-width:1.0;stroke-dasharray:1.0,2.0;" x1="486.5" x2="537" y1="168.534" y2="168.534"/><text fill="#000000" font-family="sans-serif" font-size="14" lengthAdjust="spacing" textLength="137" x="376" y="273.3055">comment : xsd:string</text><text fill="#000000" font-family="sans-serif" font-size="14" lengthAdjust="spacing" textLength="81" x="376" y="292.3734">creationInfo</text><text fill="#000000" font-family="sans-serif" font-size="14" lengthAdjust="spacing" textLength="145" x="376" y="311.4414">description : xsd:string</text><text fill="#000000" font-family="sans-serif" font-size="14" lengthAdjust="spacing" textLength="71" x="376" y="330.5093">extensions</text><text fill="#000000" font-family="sans-serif" font-size="14" lengthAdjust="spacing" textLength="119" x="376" y="349.5772">externalIdentifiers</text><text fill="#000000" font-family="sans-serif" font-size="14" lengthAdjust="spacing" textLength="126" x="376" y="368.6451">externalReferences</text><text fill="#000000" font-family="sans-serif" font-size="14" lengthAdjust="spacing" textLength="110" x="376" y="387.713">name : xsd:string</text><text fill="#000000" font-family="sans-serif" font-size="14" lengthAdjust="spacing" textLength="100" x="376" y="406.7809">spdxId : anyURI</text><text fill="#000000" font-family="sans-serif" font-size="14" lengthAdjust="spacing" textLength="134" x="376" y="425.8489">summary : xsd:string</text><text fill="#000000" font-family="sans-serif" font-size="14" lengthAdjust="spacing" textLength="82" x="376" y="444.9168">verifiedUsing</text><line style="stroke:#181818;stroke-width:1.0;stroke-dasharray:1.0,2.0;" x1="371" x2="420.5" y1="248.8056" y2="248.8056"/><text fill="#000000" font-family="sans-serif" font-size="14" lengthAdjust="spacing" textLength="67" x="420.5" y="253.7376">properties</text><line style="stroke:#181818;stroke-width:1.0;stroke-dasharray:1.0,2.0;" x1="487.5" x2="537" y1="248.8056" y2="248.8056"/></g><g id="elem_GMN3"><path d="M581.5,192 L581.5,281.5 L545.96,285.5 L581.5,289.5 L581.5,379.0602 A0,0 0 0 0 581.5,379.0602 L1034.5,379.0602 A0,0 0 0 0 1034.5,379.0602 L1034.5,202 L1024.5,192 L581.5,192 A0,0 0 0 0 581.5,192 " fill="#FEFFDD" style="stroke:#181818;stroke-width:0.5;"/><path d="M1024.5,192 L1024.5,202 L1034.5,202 L1024.5,192 " fill="#FEFFDD" style="stroke:#181818;stroke-width:0.5;"/><text fill="#000000" font-family="sans-serif" font-size="13" font-weight="bold" lengthAdjust="spacing" textLength="62" x="587.5" y="210.897">Summary</text><text fill="#000000" font-family="sans-serif" font-size="13" lengthAdjust="spacing" textLength="432" x="587.5" y="228.603">Base domain class from which all other SPDX-3.0 domain classes derive.</text><text fill="#000000" font-family="sans-serif" font-size="13" font-weight="bold" lengthAdjust="spacing" textLength="81" x="587.5" y="246.309">Description</text><text fill="#000000" font-family="sans-serif" font-size="13" lengthAdjust="spacing" textLength="428" x="587.5" y="264.0151">An Element is a representation of a fundamental concept either directly</text><text fill="#000000" font-family="sans-serif" font-size="13" lengthAdjust="spacing" textLength="407" x="587.5" y="281.7211">inherent to the Bill of Materials (BOM) domain or indirectly related to</text><text fill="#000000" font-family="sans-serif" font-size="13" lengthAdjust="spacing" textLength="409" x="587.5" y="299.4271">the BOM domain and necessary for contextually characterizing BOM</text><text fill="#000000" font-family="sans-serif" font-size="13" lengthAdjust="spacing" textLength="417" x="587.5" y="317.1331">concepts and relationships. Within SPDX-3.0 structure this is the base</text><text fill="#000000" font-family="sans-serif" font-size="13" lengthAdjust="spacing" textLength="424" x="587.5" y="334.8391">class acting as a consistent, unifying, and interoperable foundation for</text><text fill="#000000" font-family="sans-serif" font-size="13" lengthAdjust="spacing" textLength="272" x="587.5" y="352.5451">all explicit and inter-relatable content objects.</text><text fill="#000000" font-family="sans-serif" font-size="13" lengthAdjust="spacing" textLength="3" x="587.5" y="370.2512">&#160;</text></g><!--class Payload--><g id="elem_Payload"><rect fill="#F1F1F1" height="48" id="Payload" rx="2.5" ry="2.5" style="stroke:#181818;stroke-width:0.5;" width="84" x="7" y="7"/><ellipse cx="22" cy="23" fill="#ADD1B2" rx="11" ry="11" style="stroke:#181818;stroke-width:1.0;"/><path d="M21.7969,29.7344 Q19.3125,29.7344 17.9844,28.0938 Q16.6719,26.4219 16.6719,23.3125 Q16.6719,20.1875 17.9844,18.5313 Q19.3125,16.875 21.7969,16.875 Q22.5156,16.875 23.1719,17.0313 Q23.8125,17.1875 24.375,17.4844 L24.375,20.2031 Q24.0156,19.8594 23.7188,19.6719 Q23.4219,19.4688 23.1563,19.3438 Q22.8438,19.2031 22.5313,19.1406 Q22.2344,19.0781 21.9219,19.0781 Q20.5938,19.0781 19.9063,20.1406 Q19.2188,21.2344 19.2188,23.3125 Q19.2188,25.4063 19.9063,26.4688 Q20.5938,27.5469 21.9219,27.5469 Q22.5625,27.5469 23.1563,27.2656 Q23.4531,27.1406 23.7344,26.9531 Q24.0313,26.75 24.375,26.4219 L24.375,29.1406 Q23.7969,29.4375 23.1563,29.5938 Q22.5156,29.7344 21.7969,29.7344 Z " fill="#000000"/><text fill="#000000" font-family="sans-serif" font-size="14" lengthAdjust="spacing" textLength="52" x="36" y="28.432">Payload</text><line style="stroke:#181818;stroke-width:0.5;" x1="8" x2="90" y1="39" y2="39"/><line style="stroke:#181818;stroke-width:0.5;" x1="8" x2="90" y1="47" y2="47"/></g><!--class CreationInformation--><g id="elem_CreationInformation"><rect fill="#F1F1F1" height="48" id="CreationInformation" rx="2.5" ry="2.5" style="stroke:#181818;stroke-width:0.5;" width="167" x="126.5" y="7"/><ellipse cx="141.5" cy="23" fill="#ADD1B2" rx="11" ry="11" style="stroke:#181818;stroke-width:1.0;"/><path d="M141.2969,29.7344 Q138.8125,29.7344 137.4844,28.0938 Q136.1719,26.4219 136.1719,23.3125 Q136.1719,20.1875 137.4844,18.5313 Q138.8125,16.875 141.2969,16.875 Q142.0156,16.875 142.6719,17.0313 Q143.3125,17.1875 143.875,17.4844 L143.875,20.2031 Q143.5156,19.8594 143.2188,19.6719 Q142.9219,19.4688 142.6563,19.3438 Q142.3438,19.2031 142.0313,19.1406 Q141.7344,19.0781 141.4219,19.0781 Q140.0938,19.0781 139.4063,20.1406 Q138.7188,21.2344 138.7188,23.3125 Q138.7188,25.4063 139.4063,26.4688 Q140.0938,27.5469 141.4219,27.5469 Q142.0625,27.5469 142.6563,27.2656 Q142.9531,27.1406 143.2344,26.9531 Q143.5313,26.75 143.875,26.4219 L143.875,29.1406 Q143.2969,29.4375 142.6563,29.5938 Q142.0156,29.7344 141.2969,29.7344 Z " fill="#000000"/><text fill="#000000" font-family="sans-serif" font-size="14" lengthAdjust="spacing" textLength="135" x="155.5" y="28.432">CreationInformation</text><line style="stroke:#181818;stroke-width:0.5;" x1="127.5" x2="292.5" y1="39" y2="39"/><line style="stroke:#181818;stroke-width:0.5;" x1="127.5" x2="292.5" y1="47" y2="47"/></g><!--class Extension--><g id="elem_Extension"><rect fill="#F1F1F1" height="48" id="Extension" rx="2.5" ry="2.5" style="stroke:#181818;stroke-width:0.5;" width="96" x="329" y="7"/><ellipse cx="344" cy="23" fill="#ADD1B2" rx="11" ry="11" style="stroke:#181818;stroke-width:1.0;"/><path d="M343.7969,29.7344 Q341.3125,29.7344 339.9844,28.0938 Q338.6719,26.4219 338.6719,23.3125 Q338.6719,20.1875 339.9844,18.5313 Q341.3125,16.875 343.7969,16.875 Q344.5156,16.875 345.1719,17.0313 Q345.8125,17.1875 346.375,17.4844 L346.375,20.2031 Q346.0156,19.8594 345.7188,19.6719 Q345.4219,19.4688 345.1563,19.3438 Q344.8438,19.2031 344.5313,19.1406 Q344.2344,19.0781 343.9219,19.0781 Q342.5938,19.0781 341.9063,20.1406 Q341.2188,21.2344 341.2188,23.3125 Q341.2188,25.4063 341.9063,26.4688 Q342.5938,27.5469 343.9219,27.5469 Q344.5625,27.5469 345.1563,27.2656 Q345.4531,27.1406 345.7344,26.9531 Q346.0313,26.75 346.375,26.4219 L346.375,29.1406 Q345.7969,29.4375 345.1563,29.5938 Q344.5156,29.7344 343.7969,29.7344 Z " fill="#000000"/><text fill="#000000" font-family="sans-serif" font-size="14" lengthAdjust="spacing" textLength="64" x="358" y="28.432">Extension</text><line style="stroke:#181818;stroke-width:0.5;" x1="330" x2="424" y1="39" y2="39"/><line style="stroke:#181818;stroke-width:0.5;" x1="330" x2="424" y1="47" y2="47"/></g><!--class ExternalIdentifier--><g id="elem_ExternalIdentifier"><rect fill="#F1F1F1" height="48" id="ExternalIdentifier" rx="2.5" ry="2.5" style="stroke:#181818;stroke-width:0.5;" width="144" x="460" y="7"/><ellipse cx="475" cy="23" fill="#ADD1B2" rx="11" ry="11" style="stroke:#181818;stroke-width:1.0;"/><path d="M474.7969,29.7344 Q472.3125,29.7344 470.9844,28.0938 Q469.6719,26.4219 469.6719,23.3125 Q469.6719,20.1875 470.9844,18.5313 Q472.3125,16.875 474.7969,16.875 Q475.5156,16.875 476.1719,17.0313 Q476.8125,17.1875 477.375,17.4844 L477.375,20.2031 Q477.0156,19.8594 476.7188,19.6719 Q476.4219,19.4688 476.1563,19.3438 Q475.8438,19.2031 475.5313,19.1406 Q475.2344,19.0781 474.9219,19.0781 Q473.5938,19.0781 472.9063,20.1406 Q472.2188,21.2344 472.2188,23.3125 Q472.2188,25.4063 472.9063,26.4688 Q473.5938,27.5469 474.9219,27.5469 Q475.5625,27.5469 476.1563,27.2656 Q476.4531,27.1406 476.7344,26.9531 Q477.0313,26.75 477.375,26.4219 L477.375,29.1406 Q476.7969,29.4375 476.1563,29.5938 Q475.5156,29.7344 474.7969,29.7344 Z " fill="#000000"/><text fill="#000000" font-family="sans-serif" font-size="14" lengthAdjust="spacing" textLength="112" x="489" y="28.432">ExternalIdentifier</text><line style="stroke:#181818;stroke-width:0.5;" x1="461" x2="603" y1="39" y2="39"/><line style="stroke:#181818;stroke-width:0.5;" x1="461" x2="603" y1="47" y2="47"/></g><!--class ExternalReference--><g id="elem_ExternalReference"><rect fill="#F1F1F1" height="48" id="ExternalReference" rx="2.5" ry="2.5" style="stroke:#181818;stroke-width:0.5;" width="151" x="639.5" y="7"/><ellipse cx="654.5" cy="23" fill="#ADD1B2" rx="11" ry="11" style="stroke:#181818;stroke-width:1.0;"/><path d="M654.2969,29.7344 Q651.8125,29.7344 650.4844,28.0938 Q649.1719,26.4219 649.1719,23.3125 Q649.1719,20.1875 650.4844,18.5313 Q651.8125,16.875 654.2969,16.875 Q655.0156,16.875 655.6719,17.0313 Q656.3125,17.1875 656.875,17.4844 L656.875,20.2031 Q656.5156,19.8594 656.2188,19.6719 Q655.9219,19.4688 655.6563,19.3438 Q655.3438,19.2031 655.0313,19.1406 Q654.7344,19.0781 654.4219,19.0781 Q653.0938,19.0781 652.4063,20.1406 Q651.7188,21.2344 651.7188,23.3125 Q651.7188,25.4063 652.4063,26.4688 Q653.0938,27.5469 654.4219,27.5469 Q655.0625,27.5469 655.6563,27.2656 Q655.9531,27.1406 656.2344,26.9531 Q656.5313,26.75 656.875,26.4219 L656.875,29.1406 Q656.2969,29.4375 655.6563,29.5938 Q655.0156,29.7344 654.2969,29.7344 Z " fill="#000000"/><text fill="#000000" font-family="sans-serif" font-size="14" lengthAdjust="spacing" textLength="119" x="668.5" y="28.432">ExternalReference</text><line style="stroke:#181818;stroke-width:0.5;" x1="640.5" x2="789.5" y1="39" y2="39"/><line style="stroke:#181818;stroke-width:0.5;" x1="640.5" x2="789.5" y1="47" y2="47"/></g><!--class IntegrityMethod--><g id="elem_IntegrityMethod"><rect fill="#F1F1F1" height="48" id="IntegrityMethod" rx="2.5" ry="2.5" style="stroke:#181818;stroke-width:0.5;" width="140" x="826" y="7"/><ellipse cx="841" cy="23" fill="#ADD1B2" rx="11" ry="11" style="stroke:#181818;stroke-width:1.0;"/><path d="M840.7969,29.7344 Q838.3125,29.7344 836.9844,28.0938 Q835.6719,26.4219 835.6719,23.3125 Q835.6719,20.1875 836.9844,18.5313 Q838.3125,16.875 840.7969,16.875 Q841.5156,16.875 842.1719,17.0313 Q842.8125,17.1875 843.375,17.4844 L843.375,20.2031 Q843.0156,19.8594 842.7188,19.6719 Q842.4219,19.4688 842.1563,19.3438 Q841.8438,19.2031 841.5313,19.1406 Q841.2344,19.0781 840.9219,19.0781 Q839.5938,19.0781 838.9063,20.1406 Q838.2188,21.2344 838.2188,23.3125 Q838.2188,25.4063 838.9063,26.4688 Q839.5938,27.5469 840.9219,27.5469 Q841.5625,27.5469 842.1563,27.2656 Q842.4531,27.1406 842.7344,26.9531 Q843.0313,26.75 843.375,26.4219 L843.375,29.1406 Q842.7969,29.4375 842.1563,29.5938 Q841.5156,29.7344 840.7969,29.7344 Z " fill="#000000"/><text fill="#000000" font-family="sans-serif" font-size="14" lengthAdjust="spacing" textLength="108" x="855" y="28.432">IntegrityMethod</text><line style="stroke:#181818;stroke-width:0.5;" x1="827" x2="965" y1="39" y2="39"/><line style="stroke:#181818;stroke-width:0.5;" x1="827" x2="965" y1="47" y2="47"/></g><!--link Payload to Element--><g id="link_Payload_Element"><path codeLine="30" d="M86.38,55.3 C144.36,91.45 258.23,162.45 343.96,215.89 " fill="none" id="Payload-to-Element" style="stroke:#181818;stroke-width:1.0;"/><polygon fill="none" points="347.51,209.86,360.78,226.38,340.11,221.74,347.51,209.86" style="stroke:#181818;stroke-width:1.0;"/></g><!--reverse link CreationInformation to Element--><g id="link_CreationInformation_Element"><path codeLine="31" d="M214.15,61.32 C225.49,128.45 263.47,287.5 369,287.5 " fill="none" id="CreationInformation-backto-Element" style="stroke:#181818;stroke-width:1.0;"/><polygon fill="#181818" points="213.38,56.62,210.8961,66.1505,214.1927,61.5535,218.7897,64.8501,213.38,56.62" style="stroke:#181818;stroke-width:1.0;"/></g><!--reverse link Extension to Element--><g id="link_Extension_Element"><path codeLine="32" d="M364.28,61 C333.3,135.08 263.89,325.5 369,325.5 " fill="none" id="Extension-backto-Element" style="stroke:#181818;stroke-width:1.0;"/><polygon fill="#181818" points="366.21,56.42,359.0309,63.1625,364.2697,61.0282,366.404,66.2669,366.21,56.42" style="stroke:#181818;stroke-width:1.0;"/></g><!--reverse link ExternalIdentifier to Element--><g id="link_ExternalIdentifier_Element"><path codeLine="33" d="M535.73,61.76 C545.14,139.83 567.11,344.5 539,344.5 " fill="none" id="ExternalIdentifier-backto-Element" style="stroke:#181818;stroke-width:1.0;"/><polygon fill="#181818" points="535.15,56.99,532.2872,66.4136,535.7649,61.952,540.2264,65.4298,535.15,56.99" style="stroke:#181818;stroke-width:1.0;"/></g><!--reverse link ExternalReference to Element--><g id="link_ExternalReference_Element"><path codeLine="34" d="M635.63,58.08 C608.59,70.95 580.94,89.37 564,115 C533.39,161.3 594.5,363.5 539,363.5 " fill="none" id="ExternalReference-backto-Element" style="stroke:#181818;stroke-width:1.0;"/><polygon fill="#181818" points="640.02,56.05,630.1722,56.1956,635.4815,58.148,633.529,63.4572,640.02,56.05" style="stroke:#181818;stroke-width:1.0;"/></g><!--reverse link IntegrityMethod to Element--><g id="link_IntegrityMethod_Element"><path codeLine="35" d="M819.67,52.02 C815.73,53.03 811.82,54.03 808,55 C699.75,82.45 636.22,29.82 564,115 C540.61,142.58 575.16,439.5 539,439.5 " fill="none" id="IntegrityMethod-backto-Element" style="stroke:#181818;stroke-width:1.0;"/><polygon fill="#181818" points="824.43,50.8,814.7182,49.1628,819.5869,52.0429,816.7068,56.9117,824.43,50.8" style="stroke:#181818;stroke-width:1.0;"/></g><!--SRC=[TLHDRzim3BthLn0-RK3Z3TWj208qQmyv12aQ5DkLjkYOWomPajp5-_ZlevJlj3DoiCd7nwT7CRN14E3HK4SsmczLbj1HH8qHeImLoBEq8QADZ1KRZYDCuRuAqMCTStepL7KYMJUIUSBHEDGvOR4Z2Hsu4tFlNKy-CeKZT-swt7WAkw2dmifskqzumiZEBctZSa1Jg3ttAVOMJRj8DaWgd3wzHRFKmiqDax-EFrD3dcnDuLBe3MVezMwf9OvsV7bUxcD3rw4Vtu9VoQS- -YMao5zbNIJml6qZkEPamQoQR_OCiq_LN2qm46ZN8Ll85aBZNGS_MwvRG6F0nPOyR9uUla- -b9-le6AXbfwlL2RMXxCvcVdUdaRA0H0yzPw2V6PFaoI4Ph0Q4mIDZ47Cw2CGvuwQFTNHZ8fjcuoA41r81XQSL3MmGZ6IqGJui5YlFXwLEGziZyNIr0XCIwtAjUlL4OTMWoMnFoGp6oaJ0L6cCyYfHwXRJBTBElmIDrEXEWWCkJGJfs6tt8SIlebe8JtP96CPwZXu4iboUlcbzfMOhVOk2tVYnUIC40SESdlY7GoMcr4oTxaBYw9yNx4o92AJNTazqQlIT6ZN6wuvdj6Jh2pZyu74E5Vz43T2gHIbGykrKCLXIGgOJFxCeJXCgb35rujBxxlyMi1iCZbXfjFBlP2An-F5lyMTD-A0kjw7z-0t6tDHTzgN_vMT5qggbdBohPT_YXN5rkdRcgjLAVu1]--></g></svg>