<?xml version="1.0" encoding="us-ascii" standalone="no"?><svg xmlns="http://www.w3.org/2000/svg" xmlns:xlink="http://www.w3.org/1999/xlink" contentStyleType="text/css" height="345px" preserveAspectRatio="none" style="width:755px;height:345px;background:#FFFFFF;" version="1.1" viewBox="0 0 755 345" width="755px" zoomAndPan="magnify"><defs/><g><!--class ExternalReference--><g id="elem_ExternalReference"><rect codeLine="1" fill="#F1F1F1" height="219.6113" id="ExternalReference" rx="2.5" ry="2.5" style="stroke:#181818;stroke-width:0.5;" width="179" x="96.28" y="119"/><ellipse cx="123.88" cy="135" fill="#ADD1B2" rx="11" ry="11" style="stroke:#181818;stroke-width:1.0;"/><path d="M123.6769,141.7344 Q121.1925,141.7344 119.8644,140.0938 Q118.5519,138.4219 118.5519,135.3125 Q118.5519,132.1875 119.8644,130.5313 Q121.1925,128.875 123.6769,128.875 Q124.3956,128.875 125.0519,129.0313 Q125.6925,129.1875 126.255,129.4844 L126.255,132.2031 Q125.8956,131.8594 125.5988,131.6719 Q125.3019,131.4688 125.0363,131.3438 Q124.7238,131.2031 124.4113,131.1406 Q124.1144,131.0781 123.8019,131.0781 Q122.4738,131.0781 121.7863,132.1406 Q121.0988,133.2344 121.0988,135.3125 Q121.0988,137.4063 121.7863,138.4688 Q122.4738,139.5469 123.8019,139.5469 Q124.4425,139.5469 125.0363,139.2656 Q125.3331,139.1406 125.6144,138.9531 Q125.9113,138.75 126.255,138.4219 L126.255,141.1406 Q125.6769,141.4375 125.0363,141.5938 Q124.3956,141.7344 123.6769,141.7344 Z " fill="#000000"/><text fill="#000000" font-family="sans-serif" font-size="14" lengthAdjust="spacing" textLength="119" x="140.68" y="140.432">ExternalReference</text><line style="stroke:#181818;stroke-width:0.5;" x1="97.28" x2="274.28" y1="151" y2="151"/><text fill="#000000" font-family="sans-serif" font-size="14" lengthAdjust="spacing" textLength="160" x="102.28" y="193.0339">Instantiability : Concrete</text><text fill="#000000" font-family="sans-serif" font-size="14" lengthAdjust="spacing" textLength="116" x="102.28" y="212.1018">SubclassOf : none</text><text fill="#000000" font-family="sans-serif" font-size="14" lengthAdjust="spacing" textLength="167" x="102.28" y="231.1697">name : ExternalReference</text><line style="stroke:#181818;stroke-width:1.0;stroke-dasharray:1.0,2.0;" x1="97.28" x2="153.28" y1="168.534" y2="168.534"/><text fill="#000000" font-family="sans-serif" font-size="14" lengthAdjust="spacing" textLength="65" x="153.28" y="173.4659">metadata</text><line style="stroke:#181818;stroke-width:1.0;stroke-dasharray:1.0,2.0;" x1="218.28" x2="274.28" y1="168.534" y2="168.534"/><text fill="#000000" font-family="sans-serif" font-size="14" lengthAdjust="spacing" textLength="137" x="102.28" y="273.3055">comment : xsd:string</text><text fill="#000000" font-family="sans-serif" font-size="14" lengthAdjust="spacing" textLength="84" x="102.28" y="292.3734">contentType</text><text fill="#000000" font-family="sans-serif" font-size="14" lengthAdjust="spacing" textLength="151" x="102.28" y="311.4414">externalReferenceType</text><text fill="#000000" font-family="sans-serif" font-size="14" lengthAdjust="spacing" textLength="104" x="102.28" y="330.5093">locator : anyURI</text><line style="stroke:#181818;stroke-width:1.0;stroke-dasharray:1.0,2.0;" x1="97.28" x2="152.28" y1="248.8056" y2="248.8056"/><text fill="#000000" font-family="sans-serif" font-size="14" lengthAdjust="spacing" textLength="67" x="152.28" y="253.7376">properties</text><line style="stroke:#181818;stroke-width:1.0;stroke-dasharray:1.0,2.0;" x1="219.28" x2="274.28" y1="248.8056" y2="248.8056"/></g><g id="elem_GMN3"><path d="M318.78,161.5 L318.78,224.5 L282.97,228.5 L318.78,232.5 L318.78,295.4421 A0,0 0 0 0 318.78,295.4421 L748.78,295.4421 A0,0 0 0 0 748.78,295.4421 L748.78,171.5 L738.78,161.5 L318.78,161.5 A0,0 0 0 0 318.78,161.5 " fill="#FEFFDD" style="stroke:#181818;stroke-width:0.5;"/><path d="M738.78,161.5 L738.78,171.5 L748.78,171.5 L738.78,161.5 " fill="#FEFFDD" style="stroke:#181818;stroke-width:0.5;"/><text fill="#000000" font-family="sans-serif" font-size="13" font-weight="bold" lengthAdjust="spacing" textLength="62" x="324.78" y="180.397">Summary</text><text fill="#000000" font-family="sans-serif" font-size="13" lengthAdjust="spacing" textLength="409" x="324.78" y="198.103">A reference to a resource outside of the scope of SPDX-3.0 content.</text><text fill="#000000" font-family="sans-serif" font-size="13" font-weight="bold" lengthAdjust="spacing" textLength="81" x="324.78" y="215.809">Description</text><text fill="#000000" font-family="sans-serif" font-size="13" lengthAdjust="spacing" textLength="406" x="324.78" y="233.5151">An External Reference is a grouping of characteristics unique to the</text><text fill="#000000" font-family="sans-serif" font-size="13" lengthAdjust="spacing" textLength="400" x="324.78" y="251.2211">identity, location and context of a resource outside of the scope of</text><text fill="#000000" font-family="sans-serif" font-size="13" lengthAdjust="spacing" textLength="107" x="324.78" y="268.9271">SPDX-3.0 content.</text><text fill="#000000" font-family="sans-serif" font-size="13" lengthAdjust="spacing" textLength="3" x="324.78" y="286.6331">&#160;</text></g><!--class MediaType--><g id="elem_MediaType"><rect fill="#F1F1F1" height="48" id="MediaType" rx="2.5" ry="2.5" style="stroke:#181818;stroke-width:0.5;" width="104" x="45.78" y="7"/><ellipse cx="60.78" cy="23" fill="#ADD1B2" rx="11" ry="11" style="stroke:#181818;stroke-width:1.0;"/><path d="M60.5769,29.7344 Q58.0925,29.7344 56.7644,28.0938 Q55.4519,26.4219 55.4519,23.3125 Q55.4519,20.1875 56.7644,18.5313 Q58.0925,16.875 60.5769,16.875 Q61.2956,16.875 61.9519,17.0313 Q62.5925,17.1875 63.155,17.4844 L63.155,20.2031 Q62.7956,19.8594 62.4988,19.6719 Q62.2019,19.4688 61.9363,19.3438 Q61.6238,19.2031 61.3113,19.1406 Q61.0144,19.0781 60.7019,19.0781 Q59.3738,19.0781 58.6863,20.1406 Q57.9988,21.2344 57.9988,23.3125 Q57.9988,25.4063 58.6863,26.4688 Q59.3738,27.5469 60.7019,27.5469 Q61.3425,27.5469 61.9363,27.2656 Q62.2331,27.1406 62.5144,26.9531 Q62.8113,26.75 63.155,26.4219 L63.155,29.1406 Q62.5769,29.4375 61.9363,29.5938 Q61.2956,29.7344 60.5769,29.7344 Z " fill="#000000"/><text fill="#000000" font-family="sans-serif" font-size="14" lengthAdjust="spacing" textLength="72" x="74.78" y="28.432">MediaType</text><line style="stroke:#181818;stroke-width:0.5;" x1="46.78" x2="148.78" y1="39" y2="39"/><line style="stroke:#181818;stroke-width:0.5;" x1="46.78" x2="148.78" y1="47" y2="47"/></g><!--class ExternalReferenceType--><g id="elem_ExternalReferenceType"><rect fill="#F1F1F1" height="48" id="ExternalReferenceType" rx="2.5" ry="2.5" style="stroke:#181818;stroke-width:0.5;" width="183" x="185.28" y="7"/><ellipse cx="200.28" cy="23" fill="#ADD1B2" rx="11" ry="11" style="stroke:#181818;stroke-width:1.0;"/><path d="M200.0769,29.7344 Q197.5925,29.7344 196.2644,28.0938 Q194.9519,26.4219 194.9519,23.3125 Q194.9519,20.1875 196.2644,18.5313 Q197.5925,16.875 200.0769,16.875 Q200.7956,16.875 201.4519,17.0313 Q202.0925,17.1875 202.655,17.4844 L202.655,20.2031 Q202.2956,19.8594 201.9988,19.6719 Q201.7019,19.4688 201.4363,19.3438 Q201.1238,19.2031 200.8113,19.1406 Q200.5144,19.0781 200.2019,19.0781 Q198.8738,19.0781 198.1863,20.1406 Q197.4988,21.2344 197.4988,23.3125 Q197.4988,25.4063 198.1863,26.4688 Q198.8738,27.5469 200.2019,27.5469 Q200.8425,27.5469 201.4363,27.2656 Q201.7331,27.1406 202.0144,26.9531 Q202.3113,26.75 202.655,26.4219 L202.655,29.1406 Q202.0769,29.4375 201.4363,29.5938 Q200.7956,29.7344 200.0769,29.7344 Z " fill="#000000"/><text fill="#000000" font-family="sans-serif" font-size="14" lengthAdjust="spacing" textLength="151" x="214.28" y="28.432">ExternalReferenceType</text><line style="stroke:#181818;stroke-width:0.5;" x1="186.28" x2="367.28" y1="39" y2="39"/><line style="stroke:#181818;stroke-width:0.5;" x1="186.28" x2="367.28" y1="47" y2="47"/></g><!--reverse link MediaType to ExternalReference--><g id="link_MediaType_ExternalReference"><path codeLine="21" d="M85.74,60.92 C59.43,127.8 6,287.5 95.78,287.5 " fill="none" id="MediaType-backto-ExternalReference" style="stroke:#181818;stroke-width:1.0;"/><polygon fill="#181818" points="87.49,56.53,80.4518,63.4194,85.6454,61.1773,87.8875,66.3708,87.49,56.53" style="stroke:#181818;stroke-width:1.0;"/></g><!--reverse link ExternalReferenceType to ExternalReference--><g id="link_ExternalReferenceType_ExternalReference"><path codeLine="22" d="M279.8,61.54 C286.67,132.45 301.06,306.5 276.78,306.5 " fill="none" id="ExternalReferenceType-backto-ExternalReference" style="stroke:#181818;stroke-width:1.0;"/><polygon fill="#181818" points="279.35,56.91,276.2415,66.2554,279.8348,61.8864,284.2038,65.4797,279.35,56.91" style="stroke:#181818;stroke-width:1.0;"/></g><!--SRC=[XP51JyCm38Nl-HLMpwmWSQkcIGWux8106qXStTJR8hLEIHnf5UA_uwni83f1RivBllTisnPZXFkzK61iLxIXG6m9tarPGaU23Gf2MHhGi-GeoEAmTgsJ0IguzMm32HtaTQfjnZrkL67FuorZHrfFBB917tnFGHp5euNrNKSi-c4VcofASBpz4bXKU1xw4Kk_UIUbzHR51qKW3o-hfVamx8KWkErEm6_EH9dNYtNgEWp3_B9Uc1i8fq681zGo-XIqyacYQoXJP4SGhURFnVhfxdLsNLuTOvOPUKVH1jUBypnY-MGDtvDsKGssmQTUMyqikyE0Lj-vACv6IEpUqY68MXfrrmt8S37sgMnjinbzzuVs_ezhfd4DAIIFoHGFr3ZCqonWFfj1CHbNLVrOHc6c3_x-V7PpnIS0]--></g></svg>