<?xml version="1.0" encoding="us-ascii" standalone="no"?><svg xmlns="http://www.w3.org/2000/svg" xmlns:xlink="http://www.w3.org/1999/xlink" contentStyleType="text/css" height="466px" preserveAspectRatio="none" style="width:350px;height:466px;background:#FFFFFF;" version="1.1" viewBox="0 0 350 466" width="350px" zoomAndPan="magnify"><defs/><g><!--class ExternalIdentifier--><g id="elem_ExternalIdentifier"><rect codeLine="1" fill="#F1F1F1" height="181.4754" id="ExternalIdentifier" rx="2.5" ry="2.5" style="stroke:#181818;stroke-width:0.5;" width="172" x="23" y="278"/><ellipse cx="50.6" cy="294" fill="#ADD1B2" rx="11" ry="11" style="stroke:#181818;stroke-width:1.0;"/><path d="M50.3969,300.7344 Q47.9125,300.7344 46.5844,299.0938 Q45.2719,297.4219 45.2719,294.3125 Q45.2719,291.1875 46.5844,289.5313 Q47.9125,287.875 50.3969,287.875 Q51.1156,287.875 51.7719,288.0313 Q52.4125,288.1875 52.975,288.4844 L52.975,291.2031 Q52.6156,290.8594 52.3188,290.6719 Q52.0219,290.4688 51.7563,290.3438 Q51.4438,290.2031 51.1313,290.1406 Q50.8344,290.0781 50.5219,290.0781 Q49.1938,290.0781 48.5063,291.1406 Q47.8188,292.2344 47.8188,294.3125 Q47.8188,296.4063 48.5063,297.4688 Q49.1938,298.5469 50.5219,298.5469 Q51.1625,298.5469 51.7563,298.2656 Q52.0531,298.1406 52.3344,297.9531 Q52.6313,297.75 52.975,297.4219 L52.975,300.1406 Q52.3969,300.4375 51.7563,300.5938 Q51.1156,300.7344 50.3969,300.7344 Z " fill="#000000"/><text fill="#000000" font-family="sans-serif" font-size="14" lengthAdjust="spacing" textLength="112" x="67.4" y="299.432">ExternalIdentifier</text><line style="stroke:#181818;stroke-width:0.5;" x1="24" x2="194" y1="310" y2="310"/><text fill="#000000" font-family="sans-serif" font-size="14" lengthAdjust="spacing" textLength="160" x="29" y="352.0339">Instantiability : Concrete</text><text fill="#000000" font-family="sans-serif" font-size="14" lengthAdjust="spacing" textLength="160" x="29" y="371.1018">name : ExternalIdentifier</text><line style="stroke:#181818;stroke-width:1.0;stroke-dasharray:1.0,2.0;" x1="24" x2="76.5" y1="327.534" y2="327.534"/><text fill="#000000" font-family="sans-serif" font-size="14" lengthAdjust="spacing" textLength="65" x="76.5" y="332.4659">metadata</text><line style="stroke:#181818;stroke-width:1.0;stroke-dasharray:1.0,2.0;" x1="141.5" x2="194" y1="327.534" y2="327.534"/><text fill="#000000" font-family="sans-serif" font-size="14" lengthAdjust="spacing" textLength="137" x="29" y="413.2376">comment : xsd:string</text><text fill="#000000" font-family="sans-serif" font-size="14" lengthAdjust="spacing" textLength="144" x="29" y="432.3055">externalIdentifierType</text><text fill="#000000" font-family="sans-serif" font-size="14" lengthAdjust="spacing" textLength="130" x="29" y="451.3734">identifier : xsd:string</text><line style="stroke:#181818;stroke-width:1.0;stroke-dasharray:1.0,2.0;" x1="24" x2="75.5" y1="388.7377" y2="388.7377"/><text fill="#000000" font-family="sans-serif" font-size="14" lengthAdjust="spacing" textLength="67" x="75.5" y="393.6697">properties</text><line style="stroke:#181818;stroke-width:1.0;stroke-dasharray:1.0,2.0;" x1="142.5" x2="194" y1="388.7377" y2="388.7377"/></g><g id="elem_GMN3"><path d="M6,115 L6,213.5301 A0,0 0 0 0 6,213.5301 L65.59,213.5301 L85.03,274.39 L73.59,213.5301 L108,213.5301 A0,0 0 0 0 108,213.5301 L108,125 L98,115 L6,115 A0,0 0 0 0 6,115 " fill="#FEFFDD" style="stroke:#181818;stroke-width:0.5;"/><path d="M98,115 L98,125 L108,125 L98,115 " fill="#FEFFDD" style="stroke:#181818;stroke-width:0.5;"/><text fill="#000000" font-family="sans-serif" font-size="13" font-weight="bold" lengthAdjust="spacing" textLength="62" x="12" y="133.897">Summary</text><text fill="#000000" font-family="sans-serif" font-size="13" lengthAdjust="spacing" textLength="38" x="12" y="151.603">TODO</text><text fill="#000000" font-family="sans-serif" font-size="13" font-weight="bold" lengthAdjust="spacing" textLength="81" x="12" y="169.309">Description</text><text fill="#000000" font-family="sans-serif" font-size="13" lengthAdjust="spacing" textLength="38" x="12" y="187.0151">TODO</text><text fill="#000000" font-family="sans-serif" font-size="13" lengthAdjust="spacing" textLength="3" x="12" y="204.7211">&#160;</text></g><!--class ExternalIdentifierType--><g id="elem_ExternalIdentifierType"><rect fill="#F1F1F1" height="48" id="ExternalIdentifierType" rx="2.5" ry="2.5" style="stroke:#181818;stroke-width:0.5;" width="176" x="73" y="7"/><ellipse cx="88" cy="23" fill="#ADD1B2" rx="11" ry="11" style="stroke:#181818;stroke-width:1.0;"/><path d="M87.7969,29.7344 Q85.3125,29.7344 83.9844,28.0938 Q82.6719,26.4219 82.6719,23.3125 Q82.6719,20.1875 83.9844,18.5313 Q85.3125,16.875 87.7969,16.875 Q88.5156,16.875 89.1719,17.0313 Q89.8125,17.1875 90.375,17.4844 L90.375,20.2031 Q90.0156,19.8594 89.7188,19.6719 Q89.4219,19.4688 89.1563,19.3438 Q88.8438,19.2031 88.5313,19.1406 Q88.2344,19.0781 87.9219,19.0781 Q86.5938,19.0781 85.9063,20.1406 Q85.2188,21.2344 85.2188,23.3125 Q85.2188,25.4063 85.9063,26.4688 Q86.5938,27.5469 87.9219,27.5469 Q88.5625,27.5469 89.1563,27.2656 Q89.4531,27.1406 89.7344,26.9531 Q90.0313,26.75 90.375,26.4219 L90.375,29.1406 Q89.7969,29.4375 89.1563,29.5938 Q88.5156,29.7344 87.7969,29.7344 Z " fill="#000000"/><text fill="#000000" font-family="sans-serif" font-size="14" lengthAdjust="spacing" textLength="144" x="102" y="28.432">ExternalIdentifierType</text><line style="stroke:#181818;stroke-width:0.5;" x1="74" x2="248" y1="39" y2="39"/><line style="stroke:#181818;stroke-width:0.5;" x1="74" x2="248" y1="47" y2="47"/></g><!--reverse link ExternalIdentifierType to ExternalIdentifier--><g id="link_ExternalIdentifierType_ExternalIdentifier"><path codeLine="17" d="M175.7,61 C220.45,152.26 343.21,427.5 196,427.5 " fill="none" id="ExternalIdentifierType-backto-ExternalIdentifier" style="stroke:#181818;stroke-width:1.0;"/><polygon fill="#181818" points="173.54,56.62,173.9369,66.4609,175.7532,61.1035,181.1105,62.9197,173.54,56.62" style="stroke:#181818;stroke-width:1.0;"/></g><!--SRC=[ROw_3e903CRtUug67Tm9SH469WTzWGB5DE5wbxkQI8plxe4nna37xy-lNpzXZD0yb8BWr0uaoYDJWASf2h2aEA0Y58M1TAr4nPJ0ZYVM6KeuEUa3AQsseAMaRMaBomVdAIXJ_D9wPsrAfCOZ3cNKm79R3Te0hhF_lE3Vmh_QouXJ0dKUtBYteEgEbxkr6ERgq1tDzLoV5wscs0Vsoav-kY4POE6PhDcTaa6Lvpdik6MvFpvx0m00]--></g></svg>