<?xml version="1.0" encoding="us-ascii" standalone="no"?><svg xmlns="http://www.w3.org/2000/svg" xmlns:xlink="http://www.w3.org/1999/xlink" contentStyleType="text/css" height="326px" preserveAspectRatio="none" style="width:691px;height:326px;background:#FFFFFF;" version="1.1" viewBox="0 0 691 326" width="691px" zoomAndPan="magnify"><defs/><g><!--class ExternalMap--><g id="elem_ExternalMap"><rect codeLine="1" fill="#F1F1F1" height="200.5433" id="ExternalMap" rx="2.5" ry="2.5" style="stroke:#181818;stroke-width:0.5;" width="172" x="7" y="119"/><ellipse cx="48.1" cy="135" fill="#ADD1B2" rx="11" ry="11" style="stroke:#181818;stroke-width:1.0;"/><path d="M47.8969,141.7344 Q45.4125,141.7344 44.0844,140.0938 Q42.7719,138.4219 42.7719,135.3125 Q42.7719,132.1875 44.0844,130.5313 Q45.4125,128.875 47.8969,128.875 Q48.6156,128.875 49.2719,129.0313 Q49.9125,129.1875 50.475,129.4844 L50.475,132.2031 Q50.1156,131.8594 49.8188,131.6719 Q49.5219,131.4688 49.2563,131.3438 Q48.9438,131.2031 48.6313,131.1406 Q48.3344,131.0781 48.0219,131.0781 Q46.6938,131.0781 46.0063,132.1406 Q45.3188,133.2344 45.3188,135.3125 Q45.3188,137.4063 46.0063,138.4688 Q46.6938,139.5469 48.0219,139.5469 Q48.6625,139.5469 49.2563,139.2656 Q49.5531,139.1406 49.8344,138.9531 Q50.1313,138.75 50.475,138.4219 L50.475,141.1406 Q49.8969,141.4375 49.2563,141.5938 Q48.6156,141.7344 47.8969,141.7344 Z " fill="#000000"/><text fill="#000000" font-family="sans-serif" font-size="14" lengthAdjust="spacing" textLength="82" x="67.9" y="140.432">ExternalMap</text><line style="stroke:#181818;stroke-width:0.5;" x1="8" x2="178" y1="151" y2="151"/><text fill="#000000" font-family="sans-serif" font-size="14" lengthAdjust="spacing" textLength="160" x="13" y="193.0339">Instantiability : Concrete</text><text fill="#000000" font-family="sans-serif" font-size="14" lengthAdjust="spacing" textLength="116" x="13" y="212.1018">SubclassOf : none</text><text fill="#000000" font-family="sans-serif" font-size="14" lengthAdjust="spacing" textLength="130" x="13" y="231.1697">name : ExternalMap</text><line style="stroke:#181818;stroke-width:1.0;stroke-dasharray:1.0,2.0;" x1="8" x2="60.5" y1="168.534" y2="168.534"/><text fill="#000000" font-family="sans-serif" font-size="14" lengthAdjust="spacing" textLength="65" x="60.5" y="173.4659">metadata</text><line style="stroke:#181818;stroke-width:1.0;stroke-dasharray:1.0,2.0;" x1="125.5" x2="178" y1="168.534" y2="168.534"/><text fill="#000000" font-family="sans-serif" font-size="14" lengthAdjust="spacing" textLength="123" x="13" y="273.3055">externalId : anyURI</text><text fill="#000000" font-family="sans-serif" font-size="14" lengthAdjust="spacing" textLength="137" x="13" y="292.3734">locationHint : anyURI</text><text fill="#000000" font-family="sans-serif" font-size="14" lengthAdjust="spacing" textLength="82" x="13" y="311.4414">verifiedUsing</text><line style="stroke:#181818;stroke-width:1.0;stroke-dasharray:1.0,2.0;" x1="8" x2="59.5" y1="248.8056" y2="248.8056"/><text fill="#000000" font-family="sans-serif" font-size="14" lengthAdjust="spacing" textLength="67" x="59.5" y="253.7376">properties</text><line style="stroke:#181818;stroke-width:1.0;stroke-dasharray:1.0,2.0;" x1="126.5" x2="178" y1="248.8056" y2="248.8056"/></g><g id="elem_GMN3"><path d="M222,134.5 L222,215 L186.87,219 L222,223 L222,303.8541 A0,0 0 0 0 222,303.8541 L684,303.8541 A0,0 0 0 0 684,303.8541 L684,144.5 L674,134.5 L222,134.5 A0,0 0 0 0 222,134.5 " fill="#FEFFDD" style="stroke:#181818;stroke-width:0.5;"/><path d="M674,134.5 L674,144.5 L684,144.5 L674,134.5 " fill="#FEFFDD" style="stroke:#181818;stroke-width:0.5;"/><text fill="#000000" font-family="sans-serif" font-size="13" font-weight="bold" lengthAdjust="spacing" textLength="62" x="228" y="153.397">Summary</text><text fill="#000000" font-family="sans-serif" font-size="13" lengthAdjust="spacing" textLength="441" x="228" y="171.103">A map of Element identifiers that are used within a Document but defined</text><text fill="#000000" font-family="sans-serif" font-size="13" lengthAdjust="spacing" textLength="159" x="228" y="188.809">external to that Document.</text><text fill="#000000" font-family="sans-serif" font-size="13" font-weight="bold" lengthAdjust="spacing" textLength="81" x="228" y="206.5151">Description</text><text fill="#000000" font-family="sans-serif" font-size="13" lengthAdjust="spacing" textLength="414" x="228" y="224.2211">An External Map is a map of Element identifiers that are used within a</text><text fill="#000000" font-family="sans-serif" font-size="13" lengthAdjust="spacing" textLength="408" x="228" y="241.9271">Document but defined external to that Document. The external map</text><text fill="#000000" font-family="sans-serif" font-size="13" lengthAdjust="spacing" textLength="392" x="228" y="259.6331">provides details about the externally-defined Element such as its</text><text fill="#000000" font-family="sans-serif" font-size="13" lengthAdjust="spacing" textLength="378" x="228" y="277.3391">provenance, where to retrieve it, and how to verify its integrity.</text><text fill="#000000" font-family="sans-serif" font-size="13" lengthAdjust="spacing" textLength="3" x="228" y="295.0451">&#160;</text></g><!--class IntegrityMethod--><g id="elem_IntegrityMethod"><rect fill="#F1F1F1" height="48" id="IntegrityMethod" rx="2.5" ry="2.5" style="stroke:#181818;stroke-width:0.5;" width="140" x="23" y="7"/><ellipse cx="38" cy="23" fill="#ADD1B2" rx="11" ry="11" style="stroke:#181818;stroke-width:1.0;"/><path d="M37.7969,29.7344 Q35.3125,29.7344 33.9844,28.0938 Q32.6719,26.4219 32.6719,23.3125 Q32.6719,20.1875 33.9844,18.5313 Q35.3125,16.875 37.7969,16.875 Q38.5156,16.875 39.1719,17.0313 Q39.8125,17.1875 40.375,17.4844 L40.375,20.2031 Q40.0156,19.8594 39.7188,19.6719 Q39.4219,19.4688 39.1563,19.3438 Q38.8438,19.2031 38.5313,19.1406 Q38.2344,19.0781 37.9219,19.0781 Q36.5938,19.0781 35.9063,20.1406 Q35.2188,21.2344 35.2188,23.3125 Q35.2188,25.4063 35.9063,26.4688 Q36.5938,27.5469 37.9219,27.5469 Q38.5625,27.5469 39.1563,27.2656 Q39.4531,27.1406 39.7344,26.9531 Q40.0313,26.75 40.375,26.4219 L40.375,29.1406 Q39.7969,29.4375 39.1563,29.5938 Q38.5156,29.7344 37.7969,29.7344 Z " fill="#000000"/><text fill="#000000" font-family="sans-serif" font-size="14" lengthAdjust="spacing" textLength="108" x="52" y="28.432">IntegrityMethod</text><line style="stroke:#181818;stroke-width:0.5;" x1="24" x2="162" y1="39" y2="39"/><line style="stroke:#181818;stroke-width:0.5;" x1="24" x2="162" y1="47" y2="47"/></g><!--reverse link IntegrityMethod to ExternalMap--><g id="link_IntegrityMethod_ExternalMap"><path codeLine="22" d="M133.08,59.09 C150.67,73.42 169.45,92.68 179,115 C195.69,154.02 222.45,306 180,306 " fill="none" id="IntegrityMethod-backto-ExternalMap" style="stroke:#181818;stroke-width:1.0;"/><polygon fill="#181818" points="129.35,56.13,133.922,64.8534,133.2696,59.2342,138.8888,58.5819,129.35,56.13" style="stroke:#181818;stroke-width:1.0;"/></g><!--SRC=[bLB1QiCm3BtxAqJFRNOlfJ3MmNeeWtNz02LM6q4Y5rjf5yR-VNAwR2riX_bWiFJqthEVgmPJWiStfIZORF08xwuee2L5ZufG50vihIKfYZAMtB3sC8U785KafQ6zxSeg4ptlhID1BbN1bknyHPwfZp4SAIfJ6idf2x3sXaRfTo_heTw42fM3FB7eRUT4aVTCVfTO3kx3IL22o8TQ8Unl11VbSjkrBSP-SLSktJsqTiMCQQWbesLlU-QA2RH61Om4NI8FPzQQ1H1MeUe6RDafUDgpa7UZPz1mcHjHHPPSKQeY7xFvYwnycuBynfoCzzzEt6zEu6ydy5hJJzladBtzoNII3IjoOoxAO5HwXMlwsSWyEajTLGCcO4q30mbAHLCursGMJTR-GMGwaI6c5fE7EfnpVOYfptDW4T8XsjSfd2D3vCJSP3rMDwHry1DOp6OmkSflFh-9Ul89]--></g></svg>