<?xml version="1.0" encoding="us-ascii" standalone="no"?><svg xmlns="http://www.w3.org/2000/svg" xmlns:xlink="http://www.w3.org/1999/xlink" contentStyleType="text/css" height="555px" preserveAspectRatio="none" style="width:693px;height:555px;background:#FFFFFF;" version="1.1" viewBox="0 0 693 555" width="693px" zoomAndPan="magnify"><defs/><g><!--class ExternalMap--><g id="elem_ExternalMap"><rect codeLine="1" fill="#F1F1F1" height="200.5433" id="ExternalMap" rx="2.5" ry="2.5" style="stroke:#181818;stroke-width:0.5;" width="232" x="263" y="348"/><ellipse cx="333.75" cy="364" fill="#ADD1B2" rx="11" ry="11" style="stroke:#181818;stroke-width:1.0;"/><path d="M333.5469,370.7344 Q331.0625,370.7344 329.7344,369.0938 Q328.4219,367.4219 328.4219,364.3125 Q328.4219,361.1875 329.7344,359.5313 Q331.0625,357.875 333.5469,357.875 Q334.2656,357.875 334.9219,358.0313 Q335.5625,358.1875 336.125,358.4844 L336.125,361.2031 Q335.7656,360.8594 335.4688,360.6719 Q335.1719,360.4688 334.9063,360.3438 Q334.5938,360.2031 334.2813,360.1406 Q333.9844,360.0781 333.6719,360.0781 Q332.3438,360.0781 331.6563,361.1406 Q330.9688,362.2344 330.9688,364.3125 Q330.9688,366.4063 331.6563,367.4688 Q332.3438,368.5469 333.6719,368.5469 Q334.3125,368.5469 334.9063,368.2656 Q335.2031,368.1406 335.4844,367.9531 Q335.7813,367.75 336.125,367.4219 L336.125,370.1406 Q335.5469,370.4375 334.9063,370.5938 Q334.2656,370.7344 333.5469,370.7344 Z " fill="#000000"/><text fill="#000000" font-family="sans-serif" font-size="14" lengthAdjust="spacing" textLength="82" x="354.25" y="369.432">ExternalMap</text><line style="stroke:#181818;stroke-width:0.5;" x1="264" x2="494" y1="380" y2="380"/><text fill="#000000" font-family="sans-serif" font-size="14" lengthAdjust="spacing" textLength="160" x="269" y="422.0339">Instantiability : Concrete</text><text fill="#000000" font-family="sans-serif" font-size="14" lengthAdjust="spacing" textLength="116" x="269" y="441.1018">SubclassOf : none</text><text fill="#000000" font-family="sans-serif" font-size="14" lengthAdjust="spacing" textLength="130" x="269" y="460.1697">name : ExternalMap</text><line style="stroke:#181818;stroke-width:1.0;stroke-dasharray:1.0,2.0;" x1="264" x2="346.5" y1="397.534" y2="397.534"/><text fill="#000000" font-family="sans-serif" font-size="14" lengthAdjust="spacing" textLength="65" x="346.5" y="402.4659">metadata</text><line style="stroke:#181818;stroke-width:1.0;stroke-dasharray:1.0,2.0;" x1="411.5" x2="494" y1="397.534" y2="397.534"/><text fill="#000000" font-family="sans-serif" font-size="14" lengthAdjust="spacing" textLength="158" x="269" y="502.3055">externalId : anyURI [1..1]</text><text fill="#000000" font-family="sans-serif" font-size="14" lengthAdjust="spacing" textLength="164" x="269" y="521.3734">locationHint : anyURI [..1]</text><text fill="#000000" font-family="sans-serif" font-size="14" lengthAdjust="spacing" textLength="220" x="269" y="540.4414">verifiedUsing : IntegrityMethod [..]</text><line style="stroke:#181818;stroke-width:1.0;stroke-dasharray:1.0,2.0;" x1="264" x2="345.5" y1="477.8056" y2="477.8056"/><text fill="#000000" font-family="sans-serif" font-size="14" lengthAdjust="spacing" textLength="67" x="345.5" y="482.7376">properties</text><line style="stroke:#181818;stroke-width:1.0;stroke-dasharray:1.0,2.0;" x1="412.5" x2="494" y1="477.8056" y2="477.8056"/></g><g id="elem_GMN3"><path d="M6,115 L6,284.3541 A0,0 0 0 0 6,284.3541 L281.27,284.3541 L319.79,344.22 L289.27,284.3541 L468,284.3541 A0,0 0 0 0 468,284.3541 L468,125 L458,115 L6,115 A0,0 0 0 0 6,115 " fill="#FEFFDD" style="stroke:#181818;stroke-width:0.5;"/><path d="M458,115 L458,125 L468,125 L458,115 " fill="#FEFFDD" style="stroke:#181818;stroke-width:0.5;"/><text fill="#000000" font-family="sans-serif" font-size="13" font-weight="bold" lengthAdjust="spacing" textLength="62" x="12" y="133.897">Summary</text><text fill="#000000" font-family="sans-serif" font-size="13" lengthAdjust="spacing" textLength="441" x="12" y="151.603">A map of Element identifiers that are used within a Document but defined</text><text fill="#000000" font-family="sans-serif" font-size="13" lengthAdjust="spacing" textLength="159" x="12" y="169.309">external to that Document.</text><text fill="#000000" font-family="sans-serif" font-size="13" font-weight="bold" lengthAdjust="spacing" textLength="81" x="12" y="187.0151">Description</text><text fill="#000000" font-family="sans-serif" font-size="13" lengthAdjust="spacing" textLength="414" x="12" y="204.7211">An External Map is a map of Element identifiers that are used within a</text><text fill="#000000" font-family="sans-serif" font-size="13" lengthAdjust="spacing" textLength="408" x="12" y="222.4271">Document but defined external to that Document. The external map</text><text fill="#000000" font-family="sans-serif" font-size="13" lengthAdjust="spacing" textLength="392" x="12" y="240.1331">provides details about the externally-defined Element such as its</text><text fill="#000000" font-family="sans-serif" font-size="13" lengthAdjust="spacing" textLength="378" x="12" y="257.8391">provenance, where to retrieve it, and how to verify its integrity.</text><text fill="#000000" font-family="sans-serif" font-size="13" lengthAdjust="spacing" textLength="3" x="12" y="275.5451">&#160;</text></g><!--class IntegrityMethod--><g id="elem_IntegrityMethod"><rect fill="#F1F1F1" height="48" id="IntegrityMethod" rx="2.5" ry="2.5" style="stroke:#181818;stroke-width:0.5;" width="140" x="451" y="7"/><ellipse cx="466" cy="23" fill="#ADD1B2" rx="11" ry="11" style="stroke:#181818;stroke-width:1.0;"/><path d="M465.7969,29.7344 Q463.3125,29.7344 461.9844,28.0938 Q460.6719,26.4219 460.6719,23.3125 Q460.6719,20.1875 461.9844,18.5313 Q463.3125,16.875 465.7969,16.875 Q466.5156,16.875 467.1719,17.0313 Q467.8125,17.1875 468.375,17.4844 L468.375,20.2031 Q468.0156,19.8594 467.7188,19.6719 Q467.4219,19.4688 467.1563,19.3438 Q466.8438,19.2031 466.5313,19.1406 Q466.2344,19.0781 465.9219,19.0781 Q464.5938,19.0781 463.9063,20.1406 Q463.2188,21.2344 463.2188,23.3125 Q463.2188,25.4063 463.9063,26.4688 Q464.5938,27.5469 465.9219,27.5469 Q466.5625,27.5469 467.1563,27.2656 Q467.4531,27.1406 467.7344,26.9531 Q468.0313,26.75 468.375,26.4219 L468.375,29.1406 Q467.7969,29.4375 467.1563,29.5938 Q466.5156,29.7344 465.7969,29.7344 Z " fill="#000000"/><text fill="#000000" font-family="sans-serif" font-size="14" lengthAdjust="spacing" textLength="108" x="480" y="28.432">IntegrityMethod</text><line style="stroke:#181818;stroke-width:0.5;" x1="452" x2="590" y1="39" y2="39"/><line style="stroke:#181818;stroke-width:0.5;" x1="452" x2="590" y1="47" y2="47"/></g><!--reverse link IntegrityMethod to ExternalMap--><g id="link_IntegrityMethod_ExternalMap"><path codeLine="22" d="M531.9,61.37 C570.29,168.91 686.96,535 496,535 " fill="none" id="IntegrityMethod-backto-ExternalMap" style="stroke:#181818;stroke-width:1.0;"/><polygon fill="#181818" points="530.21,56.68,529.4833,66.502,531.898,61.3864,537.0136,63.8012,530.21,56.68" style="stroke:#181818;stroke-width:1.0;"/></g><!--SRC=[bP91IyD048Nl-ok6djk8rr84KS4UHB1w4W-JxDGC9BDXTz8QnF_kR6gqYXxC8P2TRzzxcxTLWod1rOjI56nki8DNLnJGag97HIWA1_Qi9IcACfRSi0wmX8iWLIIbSRpfooeBtMvj8a4Egu8jsVUHU9RkOkWeAbEQnEa3M7kZKOQ7kpKydXR5wTCuRaA5oa6kMVG8-9plAFAMoJyabcS3rgBq72tb3MaTV2QVt9kJe0GQEWZRRv5MvTccRrkCm-gaF7FdqEA1QQWbSsHlxsmG4sYD2XW9-aGUzgmr2o1SXgeVsR9NyBHb8U-cKvddOTz45Tdoab8LkSldEjZAPoZ8BN0otNydSRybWR-Jm7rDNsEpSzREpdoIRLRanbAKmQJqY6k6nQGy9KjzLGCcO4sZ0WbAHNFOrnJpJmUxAP5fHqRChK4FTTZdzR6x8Uy3dcehd2CZSbzkzgFC6QmMYmNCZWfSBhzTWDax]--></g></svg>