<?xml version="1.0" encoding="us-ascii" standalone="no"?><svg xmlns="http://www.w3.org/2000/svg" xmlns:xlink="http://www.w3.org/1999/xlink" contentStyleType="text/css" height="466px" preserveAspectRatio="none" style="width:395px;height:466px;background:#FFFFFF;" version="1.1" viewBox="0 0 395 466" width="395px" zoomAndPan="magnify"><defs/><g><!--class ExternalIdentifier--><g id="elem_ExternalIdentifier"><rect codeLine="1" fill="#F1F1F1" height="181.4754" id="ExternalIdentifier" rx="2.5" ry="2.5" style="stroke:#181818;stroke-width:0.5;" width="346" x="7" y="278"/><ellipse cx="119.75" cy="294" fill="#ADD1B2" rx="11" ry="11" style="stroke:#181818;stroke-width:1.0;"/><path d="M119.5469,300.7344 Q117.0625,300.7344 115.7344,299.0938 Q114.4219,297.4219 114.4219,294.3125 Q114.4219,291.1875 115.7344,289.5313 Q117.0625,287.875 119.5469,287.875 Q120.2656,287.875 120.9219,288.0313 Q121.5625,288.1875 122.125,288.4844 L122.125,291.2031 Q121.7656,290.8594 121.4688,290.6719 Q121.1719,290.4688 120.9063,290.3438 Q120.5938,290.2031 120.2813,290.1406 Q119.9844,290.0781 119.6719,290.0781 Q118.3438,290.0781 117.6563,291.1406 Q116.9688,292.2344 116.9688,294.3125 Q116.9688,296.4063 117.6563,297.4688 Q118.3438,298.5469 119.6719,298.5469 Q120.3125,298.5469 120.9063,298.2656 Q121.2031,298.1406 121.4844,297.9531 Q121.7813,297.75 122.125,297.4219 L122.125,300.1406 Q121.5469,300.4375 120.9063,300.5938 Q120.2656,300.7344 119.5469,300.7344 Z " fill="#000000"/><text fill="#000000" font-family="sans-serif" font-size="14" lengthAdjust="spacing" textLength="112" x="140.25" y="299.432">ExternalIdentifier</text><line style="stroke:#181818;stroke-width:0.5;" x1="8" x2="352" y1="310" y2="310"/><text fill="#000000" font-family="sans-serif" font-size="14" lengthAdjust="spacing" textLength="160" x="13" y="352.0339">Instantiability : Concrete</text><text fill="#000000" font-family="sans-serif" font-size="14" lengthAdjust="spacing" textLength="160" x="13" y="371.1018">name : ExternalIdentifier</text><line style="stroke:#181818;stroke-width:1.0;stroke-dasharray:1.0,2.0;" x1="8" x2="147.5" y1="327.534" y2="327.534"/><text fill="#000000" font-family="sans-serif" font-size="14" lengthAdjust="spacing" textLength="65" x="147.5" y="332.4659">metadata</text><line style="stroke:#181818;stroke-width:1.0;stroke-dasharray:1.0,2.0;" x1="212.5" x2="352" y1="327.534" y2="327.534"/><text fill="#000000" font-family="sans-serif" font-size="14" lengthAdjust="spacing" textLength="172" x="13" y="413.2376">comment : xsd:string [0..1]</text><text fill="#000000" font-family="sans-serif" font-size="14" lengthAdjust="spacing" textLength="334" x="13" y="432.3055">externalIdentifierType : ExternalIdentifierType [1..1]</text><text fill="#000000" font-family="sans-serif" font-size="14" lengthAdjust="spacing" textLength="165" x="13" y="451.3734">identifier : xsd:string [1..1]</text><line style="stroke:#181818;stroke-width:1.0;stroke-dasharray:1.0,2.0;" x1="8" x2="146.5" y1="388.7377" y2="388.7377"/><text fill="#000000" font-family="sans-serif" font-size="14" lengthAdjust="spacing" textLength="67" x="146.5" y="393.6697">properties</text><line style="stroke:#181818;stroke-width:1.0;stroke-dasharray:1.0,2.0;" x1="213.5" x2="352" y1="388.7377" y2="388.7377"/></g><g id="elem_GMN3"><path d="M77,115 L77,213.5301 A0,0 0 0 0 77,213.5301 L136.59,213.5301 L156.03,274.39 L144.59,213.5301 L179,213.5301 A0,0 0 0 0 179,213.5301 L179,125 L169,115 L77,115 A0,0 0 0 0 77,115 " fill="#FEFFDD" style="stroke:#181818;stroke-width:0.5;"/><path d="M169,115 L169,125 L179,125 L169,115 " fill="#FEFFDD" style="stroke:#181818;stroke-width:0.5;"/><text fill="#000000" font-family="sans-serif" font-size="13" font-weight="bold" lengthAdjust="spacing" textLength="62" x="83" y="133.897">Summary</text><text fill="#000000" font-family="sans-serif" font-size="13" lengthAdjust="spacing" textLength="38" x="83" y="151.603">TODO</text><text fill="#000000" font-family="sans-serif" font-size="13" font-weight="bold" lengthAdjust="spacing" textLength="81" x="83" y="169.309">Description</text><text fill="#000000" font-family="sans-serif" font-size="13" lengthAdjust="spacing" textLength="38" x="83" y="187.0151">TODO</text><text fill="#000000" font-family="sans-serif" font-size="13" lengthAdjust="spacing" textLength="3" x="83" y="204.7211">&#160;</text></g><!--class ExternalIdentifierType--><g id="elem_ExternalIdentifierType"><rect fill="#F1F1F1" height="48" id="ExternalIdentifierType" rx="2.5" ry="2.5" style="stroke:#181818;stroke-width:0.5;" width="176" x="144" y="7"/><ellipse cx="159" cy="23" fill="#ADD1B2" rx="11" ry="11" style="stroke:#181818;stroke-width:1.0;"/><path d="M158.7969,29.7344 Q156.3125,29.7344 154.9844,28.0938 Q153.6719,26.4219 153.6719,23.3125 Q153.6719,20.1875 154.9844,18.5313 Q156.3125,16.875 158.7969,16.875 Q159.5156,16.875 160.1719,17.0313 Q160.8125,17.1875 161.375,17.4844 L161.375,20.2031 Q161.0156,19.8594 160.7188,19.6719 Q160.4219,19.4688 160.1563,19.3438 Q159.8438,19.2031 159.5313,19.1406 Q159.2344,19.0781 158.9219,19.0781 Q157.5938,19.0781 156.9063,20.1406 Q156.2188,21.2344 156.2188,23.3125 Q156.2188,25.4063 156.9063,26.4688 Q157.5938,27.5469 158.9219,27.5469 Q159.5625,27.5469 160.1563,27.2656 Q160.4531,27.1406 160.7344,26.9531 Q161.0313,26.75 161.375,26.4219 L161.375,29.1406 Q160.7969,29.4375 160.1563,29.5938 Q159.5156,29.7344 158.7969,29.7344 Z " fill="#000000"/><text fill="#000000" font-family="sans-serif" font-size="14" lengthAdjust="spacing" textLength="144" x="173" y="28.432">ExternalIdentifierType</text><line style="stroke:#181818;stroke-width:0.5;" x1="145" x2="319" y1="39" y2="39"/><line style="stroke:#181818;stroke-width:0.5;" x1="145" x2="319" y1="47" y2="47"/></g><!--reverse link ExternalIdentifierType to ExternalIdentifier--><g id="link_ExternalIdentifierType_ExternalIdentifier"><path codeLine="17" d="M251.85,60.67 C280.77,104.34 333.17,191.2 353,274 C360.95,307.17 388.11,427.5 354,427.5 " fill="none" id="ExternalIdentifierType-backto-ExternalIdentifier" style="stroke:#181818;stroke-width:1.0;"/><polygon fill="#181818" points="249.12,56.57,250.7841,66.2773,251.8935,60.7303,257.4405,61.8397,249.12,56.57" style="stroke:#181818;stroke-width:1.0;"/></g><!--SRC=[ROynZy8m38Nt_0ghUyEnLXKBtC3401jYS5k3B3LEbFWagXF__TAUxX0Y7jzx_lpSZvWIVDwLek2u7qYKhqmHlesru4XnG4Mmra2UlIJ5dC2EHzO96jXwwICfBRQWewozqsPMY3vGLARqH-kzSpcHD-vfQ996bXkSFwnTNnQVtZYdAPGFBCPv_R_ApqTUwR-HXn6l1Ee3-6kfRzjjZb_EOPpQLRSnfyFkC6ixIdtaeEpbgHkI0MQUgSh5AcZhkeQ2spJb7wiV]--></g></svg>