<?xml version="1.0" encoding="us-ascii" standalone="no"?><svg xmlns="http://www.w3.org/2000/svg" xmlns:xlink="http://www.w3.org/1999/xlink" contentStyleType="text/css" height="539px" preserveAspectRatio="none" style="width:849px;height:539px;background:#FFFFFF;" version="1.1" viewBox="0 0 849 539" width="849px" zoomAndPan="magnify"><defs/><g><!--class ExternalReference--><g id="elem_ExternalReference"><rect codeLine="1" fill="#F1F1F1" height="219.6113" id="ExternalReference" rx="2.5" ry="2.5" style="stroke:#181818;stroke-width:0.5;" width="352" x="313" y="313"/><ellipse cx="425.25" cy="329" fill="#ADD1B2" rx="11" ry="11" style="stroke:#181818;stroke-width:1.0;"/><path d="M425.0469,335.7344 Q422.5625,335.7344 421.2344,334.0938 Q419.9219,332.4219 419.9219,329.3125 Q419.9219,326.1875 421.2344,324.5313 Q422.5625,322.875 425.0469,322.875 Q425.7656,322.875 426.4219,323.0313 Q427.0625,323.1875 427.625,323.4844 L427.625,326.2031 Q427.2656,325.8594 426.9688,325.6719 Q426.6719,325.4688 426.4063,325.3438 Q426.0938,325.2031 425.7813,325.1406 Q425.4844,325.0781 425.1719,325.0781 Q423.8438,325.0781 423.1563,326.1406 Q422.4688,327.2344 422.4688,329.3125 Q422.4688,331.4063 423.1563,332.4688 Q423.8438,333.5469 425.1719,333.5469 Q425.8125,333.5469 426.4063,333.2656 Q426.7031,333.1406 426.9844,332.9531 Q427.2813,332.75 427.625,332.4219 L427.625,335.1406 Q427.0469,335.4375 426.4063,335.5938 Q425.7656,335.7344 425.0469,335.7344 Z " fill="#000000"/><text fill="#000000" font-family="sans-serif" font-size="14" lengthAdjust="spacing" textLength="119" x="445.75" y="334.432">ExternalReference</text><line style="stroke:#181818;stroke-width:0.5;" x1="314" x2="664" y1="345" y2="345"/><text fill="#000000" font-family="sans-serif" font-size="14" lengthAdjust="spacing" textLength="160" x="319" y="387.0339">Instantiability : Concrete</text><text fill="#000000" font-family="sans-serif" font-size="14" lengthAdjust="spacing" textLength="116" x="319" y="406.1018">SubclassOf : none</text><text fill="#000000" font-family="sans-serif" font-size="14" lengthAdjust="spacing" textLength="167" x="319" y="425.1697">name : ExternalReference</text><line style="stroke:#181818;stroke-width:1.0;stroke-dasharray:1.0,2.0;" x1="314" x2="456.5" y1="362.534" y2="362.534"/><text fill="#000000" font-family="sans-serif" font-size="14" lengthAdjust="spacing" textLength="65" x="456.5" y="367.4659">metadata</text><line style="stroke:#181818;stroke-width:1.0;stroke-dasharray:1.0,2.0;" x1="521.5" x2="664" y1="362.534" y2="362.534"/><text fill="#000000" font-family="sans-serif" font-size="14" lengthAdjust="spacing" textLength="164" x="319" y="467.3055">comment : xsd:string [..1]</text><text fill="#000000" font-family="sans-serif" font-size="14" lengthAdjust="spacing" textLength="194" x="319" y="486.3734">contentType : MediaType [..1]</text><text fill="#000000" font-family="sans-serif" font-size="14" lengthAdjust="spacing" textLength="340" x="319" y="505.4414">externalReferenceType : ExternalReferenceType [..1]</text><text fill="#000000" font-family="sans-serif" font-size="14" lengthAdjust="spacing" textLength="123" x="319" y="524.5093">locator : anyURI [..]</text><line style="stroke:#181818;stroke-width:1.0;stroke-dasharray:1.0,2.0;" x1="314" x2="455.5" y1="442.8056" y2="442.8056"/><text fill="#000000" font-family="sans-serif" font-size="14" lengthAdjust="spacing" textLength="67" x="455.5" y="447.7376">properties</text><line style="stroke:#181818;stroke-width:1.0;stroke-dasharray:1.0,2.0;" x1="522.5" x2="664" y1="442.8056" y2="442.8056"/></g><g id="elem_GMN3"><path d="M6,115 L6,248.9421 A0,0 0 0 0 6,248.9421 L291.65,248.9421 L362.64,309.05 L299.65,248.9421 L436,248.9421 A0,0 0 0 0 436,248.9421 L436,125 L426,115 L6,115 A0,0 0 0 0 6,115 " fill="#FEFFDD" style="stroke:#181818;stroke-width:0.5;"/><path d="M426,115 L426,125 L436,125 L426,115 " fill="#FEFFDD" style="stroke:#181818;stroke-width:0.5;"/><text fill="#000000" font-family="sans-serif" font-size="13" font-weight="bold" lengthAdjust="spacing" textLength="62" x="12" y="133.897">Summary</text><text fill="#000000" font-family="sans-serif" font-size="13" lengthAdjust="spacing" textLength="409" x="12" y="151.603">A reference to a resource outside of the scope of SPDX-3.0 content.</text><text fill="#000000" font-family="sans-serif" font-size="13" font-weight="bold" lengthAdjust="spacing" textLength="81" x="12" y="169.309">Description</text><text fill="#000000" font-family="sans-serif" font-size="13" lengthAdjust="spacing" textLength="406" x="12" y="187.0151">An External Reference is a grouping of characteristics unique to the</text><text fill="#000000" font-family="sans-serif" font-size="13" lengthAdjust="spacing" textLength="400" x="12" y="204.7211">identity, location and context of a resource outside of the scope of</text><text fill="#000000" font-family="sans-serif" font-size="13" lengthAdjust="spacing" textLength="107" x="12" y="222.4271">SPDX-3.0 content.</text><text fill="#000000" font-family="sans-serif" font-size="13" lengthAdjust="spacing" textLength="3" x="12" y="240.1331">&#160;</text></g><!--class MediaType--><g id="elem_MediaType"><rect fill="#F1F1F1" height="48" id="MediaType" rx="2.5" ry="2.5" style="stroke:#181818;stroke-width:0.5;" width="104" x="437" y="7"/><ellipse cx="452" cy="23" fill="#ADD1B2" rx="11" ry="11" style="stroke:#181818;stroke-width:1.0;"/><path d="M451.7969,29.7344 Q449.3125,29.7344 447.9844,28.0938 Q446.6719,26.4219 446.6719,23.3125 Q446.6719,20.1875 447.9844,18.5313 Q449.3125,16.875 451.7969,16.875 Q452.5156,16.875 453.1719,17.0313 Q453.8125,17.1875 454.375,17.4844 L454.375,20.2031 Q454.0156,19.8594 453.7188,19.6719 Q453.4219,19.4688 453.1563,19.3438 Q452.8438,19.2031 452.5313,19.1406 Q452.2344,19.0781 451.9219,19.0781 Q450.5938,19.0781 449.9063,20.1406 Q449.2188,21.2344 449.2188,23.3125 Q449.2188,25.4063 449.9063,26.4688 Q450.5938,27.5469 451.9219,27.5469 Q452.5625,27.5469 453.1563,27.2656 Q453.4531,27.1406 453.7344,26.9531 Q454.0313,26.75 454.375,26.4219 L454.375,29.1406 Q453.7969,29.4375 453.1563,29.5938 Q452.5156,29.7344 451.7969,29.7344 Z " fill="#000000"/><text fill="#000000" font-family="sans-serif" font-size="14" lengthAdjust="spacing" textLength="72" x="466" y="28.432">MediaType</text><line style="stroke:#181818;stroke-width:0.5;" x1="438" x2="540" y1="39" y2="39"/><line style="stroke:#181818;stroke-width:0.5;" x1="438" x2="540" y1="47" y2="47"/></g><!--class ExternalReferenceType--><g id="elem_ExternalReferenceType"><rect fill="#F1F1F1" height="48" id="ExternalReferenceType" rx="2.5" ry="2.5" style="stroke:#181818;stroke-width:0.5;" width="183" x="576.5" y="7"/><ellipse cx="591.5" cy="23" fill="#ADD1B2" rx="11" ry="11" style="stroke:#181818;stroke-width:1.0;"/><path d="M591.2969,29.7344 Q588.8125,29.7344 587.4844,28.0938 Q586.1719,26.4219 586.1719,23.3125 Q586.1719,20.1875 587.4844,18.5313 Q588.8125,16.875 591.2969,16.875 Q592.0156,16.875 592.6719,17.0313 Q593.3125,17.1875 593.875,17.4844 L593.875,20.2031 Q593.5156,19.8594 593.2188,19.6719 Q592.9219,19.4688 592.6563,19.3438 Q592.3438,19.2031 592.0313,19.1406 Q591.7344,19.0781 591.4219,19.0781 Q590.0938,19.0781 589.4063,20.1406 Q588.7188,21.2344 588.7188,23.3125 Q588.7188,25.4063 589.4063,26.4688 Q590.0938,27.5469 591.4219,27.5469 Q592.0625,27.5469 592.6563,27.2656 Q592.9531,27.1406 593.2344,26.9531 Q593.5313,26.75 593.875,26.4219 L593.875,29.1406 Q593.2969,29.4375 592.6563,29.5938 Q592.0156,29.7344 591.2969,29.7344 Z " fill="#000000"/><text fill="#000000" font-family="sans-serif" font-size="14" lengthAdjust="spacing" textLength="151" x="605.5" y="28.432">ExternalReferenceType</text><line style="stroke:#181818;stroke-width:0.5;" x1="577.5" x2="758.5" y1="39" y2="39"/><line style="stroke:#181818;stroke-width:0.5;" x1="577.5" x2="758.5" y1="47" y2="47"/></g><!--reverse link MediaType to ExternalReference--><g id="link_MediaType_ExternalReference"><path codeLine="21" d="M509.86,60.29 C552.96,119.41 649.13,255.01 665,309 C686.62,382.56 742.67,481.5 666,481.5 " fill="none" id="MediaType-backto-ExternalReference" style="stroke:#181818;stroke-width:1.0;"/><polygon fill="#181818" points="507,56.38,509.1011,66.0021,509.9587,60.4107,515.5501,61.2682,507,56.38" style="stroke:#181818;stroke-width:1.0;"/></g><!--reverse link ExternalReferenceType to ExternalReference--><g id="link_ExternalReferenceType_ExternalReference"><path codeLine="22" d="M680.07,61.06 C721.02,163.33 842.64,500.5 666,500.5 " fill="none" id="ExternalReferenceType-backto-ExternalReference" style="stroke:#181818;stroke-width:1.0;"/><polygon fill="#181818" points="678.28,56.64,677.9452,66.4832,680.1542,61.2754,685.3619,63.4844,678.28,56.64" style="stroke:#181818;stroke-width:1.0;"/></g><!--SRC=[XL5DIyD04BtlhnXoDglYBPI2s1vw4ALL4AI7pMRQBYIpSNS23U9_TxRfXzYYEMNspRmtRvwjJOmmtJ86ClKSLnYGBCAdqXeQP5CPDg2r0lbc5DaGErEwsd4F1JnuiW4PT_2YAssYUre9Gfw6Lp8DIdqcaGJQu5iCx30U9Anl6YIMWMsiYiZ1qHhUjRvTxc5YWL_wDd4-OkNCxl_KWRzrzhtJY- -dkTfRmpv8fw7-TJvBq59zAVACmBu5lxhWOLIE5rtJcD2FhiknkeTml21xC596tmMfVCVHLPXOU8CGhHXFnU9vyfRVwPk3Cvqe9nXjS2qxJmCj7QNX596B8h0ElclJZOJBRammLlfSP6SZTEG-kjqY8gb4NQBZ_cgmAjpYj1fqjvpc_rzNdQ-hK4ZIaLHsZ2E3KPxda9tTgoX-19Yfx68eVqnV33Vx1W00]--></g></svg>