<?xml version="1.0" encoding="us-ascii" standalone="no"?><svg xmlns="http://www.w3.org/2000/svg" xmlns:xlink="http://www.w3.org/1999/xlink" contentStyleType="text/css" height="446px" preserveAspectRatio="none" style="width:650px;height:446px;background:#FFFFFF;" version="1.1" viewBox="0 0 650 446" width="650px" zoomAndPan="magnify"><defs/><g><!--class ExternalMap--><g id="elem_ExternalMap"><rect codeLine="1" fill="#F1F1F1" height="200.5433" id="ExternalMap" rx="2.5" ry="2.5" style="stroke:#181818;stroke-width:0.5;" width="172" x="319" y="239"/><ellipse cx="360.1" cy="255" fill="#ADD1B2" rx="11" ry="11" style="stroke:#181818;stroke-width:1.0;"/><path d="M359.8969,261.7344 Q357.4125,261.7344 356.0844,260.0938 Q354.7719,258.4219 354.7719,255.3125 Q354.7719,252.1875 356.0844,250.5313 Q357.4125,248.875 359.8969,248.875 Q360.6156,248.875 361.2719,249.0313 Q361.9125,249.1875 362.475,249.4844 L362.475,252.2031 Q362.1156,251.8594 361.8188,251.6719 Q361.5219,251.4688 361.2563,251.3438 Q360.9438,251.2031 360.6313,251.1406 Q360.3344,251.0781 360.0219,251.0781 Q358.6938,251.0781 358.0063,252.1406 Q357.3188,253.2344 357.3188,255.3125 Q357.3188,257.4063 358.0063,258.4688 Q358.6938,259.5469 360.0219,259.5469 Q360.6625,259.5469 361.2563,259.2656 Q361.5531,259.1406 361.8344,258.9531 Q362.1313,258.75 362.475,258.4219 L362.475,261.1406 Q361.8969,261.4375 361.2563,261.5938 Q360.6156,261.7344 359.8969,261.7344 Z " fill="#000000"/><text fill="#000000" font-family="sans-serif" font-size="14" lengthAdjust="spacing" textLength="82" x="379.9" y="260.432">ExternalMap</text><line style="stroke:#181818;stroke-width:0.5;" x1="320" x2="490" y1="271" y2="271"/><text fill="#000000" font-family="sans-serif" font-size="14" lengthAdjust="spacing" textLength="160" x="325" y="313.0339">Instantiability : Concrete</text><text fill="#000000" font-family="sans-serif" font-size="14" lengthAdjust="spacing" textLength="116" x="325" y="332.1018">SubclassOf : none</text><text fill="#000000" font-family="sans-serif" font-size="14" lengthAdjust="spacing" textLength="130" x="325" y="351.1697">name : ExternalMap</text><line style="stroke:#181818;stroke-width:1.0;stroke-dasharray:1.0,2.0;" x1="320" x2="372.5" y1="288.534" y2="288.534"/><text fill="#000000" font-family="sans-serif" font-size="14" lengthAdjust="spacing" textLength="65" x="372.5" y="293.4659">metadata</text><line style="stroke:#181818;stroke-width:1.0;stroke-dasharray:1.0,2.0;" x1="437.5" x2="490" y1="288.534" y2="288.534"/><text fill="#000000" font-family="sans-serif" font-size="14" lengthAdjust="spacing" textLength="123" x="325" y="393.3055">externalId : anyURI</text><text fill="#000000" font-family="sans-serif" font-size="14" lengthAdjust="spacing" textLength="137" x="325" y="412.3734">locationHint : anyURI</text><text fill="#000000" font-family="sans-serif" font-size="14" lengthAdjust="spacing" textLength="82" x="325" y="431.4414">verifiedUsing</text><line style="stroke:#181818;stroke-width:1.0;stroke-dasharray:1.0,2.0;" x1="320" x2="371.5" y1="368.8056" y2="368.8056"/><text fill="#000000" font-family="sans-serif" font-size="14" lengthAdjust="spacing" textLength="67" x="371.5" y="373.7376">properties</text><line style="stroke:#181818;stroke-width:1.0;stroke-dasharray:1.0,2.0;" x1="438.5" x2="490" y1="368.8056" y2="368.8056"/></g><g id="elem_GMN3"><path d="M6,6 L6,175.3541 A0,0 0 0 0 6,175.3541 L290.11,175.3541 L334.95,235.22 L298.11,175.3541 L468,175.3541 A0,0 0 0 0 468,175.3541 L468,16 L458,6 L6,6 A0,0 0 0 0 6,6 " fill="#FEFFDD" style="stroke:#181818;stroke-width:0.5;"/><path d="M458,6 L458,16 L468,16 L458,6 " fill="#FEFFDD" style="stroke:#181818;stroke-width:0.5;"/><text fill="#000000" font-family="sans-serif" font-size="13" font-weight="bold" lengthAdjust="spacing" textLength="62" x="12" y="24.897">Summary</text><text fill="#000000" font-family="sans-serif" font-size="13" lengthAdjust="spacing" textLength="441" x="12" y="42.603">A map of Element identifiers that are used within a Document but defined</text><text fill="#000000" font-family="sans-serif" font-size="13" lengthAdjust="spacing" textLength="159" x="12" y="60.309">external to that Document.</text><text fill="#000000" font-family="sans-serif" font-size="13" font-weight="bold" lengthAdjust="spacing" textLength="81" x="12" y="78.0151">Description</text><text fill="#000000" font-family="sans-serif" font-size="13" lengthAdjust="spacing" textLength="414" x="12" y="95.7211">An External Map is a map of Element identifiers that are used within a</text><text fill="#000000" font-family="sans-serif" font-size="13" lengthAdjust="spacing" textLength="408" x="12" y="113.4271">Document but defined external to that Document. The external map</text><text fill="#000000" font-family="sans-serif" font-size="13" lengthAdjust="spacing" textLength="392" x="12" y="131.1331">provides details about the externally-defined Element such as its</text><text fill="#000000" font-family="sans-serif" font-size="13" lengthAdjust="spacing" textLength="378" x="12" y="148.8391">provenance, where to retrieve it, and how to verify its integrity.</text><text fill="#000000" font-family="sans-serif" font-size="13" lengthAdjust="spacing" textLength="3" x="12" y="166.5451">&#160;</text></g><!--class IntegrityMethod--><g id="elem_IntegrityMethod"><rect fill="#F1F1F1" height="48" id="IntegrityMethod" rx="2.5" ry="2.5" style="stroke:#181818;stroke-width:0.5;" width="140" x="503" y="66.5"/><ellipse cx="518" cy="82.5" fill="#ADD1B2" rx="11" ry="11" style="stroke:#181818;stroke-width:1.0;"/><path d="M517.7969,89.2344 Q515.3125,89.2344 513.9844,87.5938 Q512.6719,85.9219 512.6719,82.8125 Q512.6719,79.6875 513.9844,78.0313 Q515.3125,76.375 517.7969,76.375 Q518.5156,76.375 519.1719,76.5313 Q519.8125,76.6875 520.375,76.9844 L520.375,79.7031 Q520.0156,79.3594 519.7188,79.1719 Q519.4219,78.9688 519.1563,78.8438 Q518.8438,78.7031 518.5313,78.6406 Q518.2344,78.5781 517.9219,78.5781 Q516.5938,78.5781 515.9063,79.6406 Q515.2188,80.7344 515.2188,82.8125 Q515.2188,84.9063 515.9063,85.9688 Q516.5938,87.0469 517.9219,87.0469 Q518.5625,87.0469 519.1563,86.7656 Q519.4531,86.6406 519.7344,86.4531 Q520.0313,86.25 520.375,85.9219 L520.375,88.6406 Q519.7969,88.9375 519.1563,89.0938 Q518.5156,89.2344 517.7969,89.2344 Z " fill="#000000"/><text fill="#000000" font-family="sans-serif" font-size="14" lengthAdjust="spacing" textLength="108" x="532" y="87.932">IntegrityMethod</text><line style="stroke:#181818;stroke-width:0.5;" x1="504" x2="642" y1="98.5" y2="98.5"/><line style="stroke:#181818;stroke-width:0.5;" x1="504" x2="642" y1="106.5" y2="106.5"/></g><!--reverse link IntegrityMethod to ExternalMap--><g id="link_IntegrityMethod_ExternalMap"><path codeLine="22" d="M578.38,120.84 C591.77,202.41 617.06,426 492,426 " fill="none" id="IntegrityMethod-backto-ExternalMap" style="stroke:#181818;stroke-width:1.0;"/><polygon fill="#181818" points="577.61,116.25,575.153,125.7874,578.4366,121.1812,583.0429,124.4649,577.61,116.25" style="stroke:#181818;stroke-width:1.0;"/></g><!--SRC=[bLB1JiCm3BtdAwoTjtAV9YG4IFGm8J7u0BVngANMgH9teqByEqv7OPFWG0wHOZ-_z-INkiMKuFvDAGgsM-pXtHK5TAJeKH6Ame6TKfAYA6F5BUi8QxWDKaTIcjgxeQepqUFUEXBaL1NioDvdv9cwZw6dg4nf9gSlGEaDZJA-F9LJlGqrAWTvOD7Bpe4YxvdyIs9vTHzEWX9ew27iB-GsrVLkw3gCu-QgkdOtqE49qr97HihUximK4sY32XW9XaGUZgmD2o3SXNgOiDMWu6dFGjxDZatpD3UZYYnvHwcEt6Vh9rdvDWLvmvoCzzzEt6zEu6ydyDpGJzlad6t-O3h9XXMvDHTLC2ezmxNZQcQUdQMXRW0JiAQ9WGIbfYKS6ufvwM2_838To11B2yb34uwvFeKqvZcm0EarsiSfd2D3vBpSefohMz8c-0LiLYjOdEMtNby4lVW4]--></g></svg>