<?xml version="1.0" encoding="us-ascii" standalone="no"?><svg xmlns="http://www.w3.org/2000/svg" xmlns:xlink="http://www.w3.org/1999/xlink" contentStyleType="text/css" height="307px" preserveAspectRatio="none" style="width:333px;height:307px;background:#FFFFFF;" version="1.1" viewBox="0 0 333 307" width="333px" zoomAndPan="magnify"><defs/><g><!--class ExternalIdentifier--><g id="elem_ExternalIdentifier"><rect codeLine="1" fill="#F1F1F1" height="181.4754" id="ExternalIdentifier" rx="2.5" ry="2.5" style="stroke:#181818;stroke-width:0.5;" width="172" x="9" y="119"/><ellipse cx="36.6" cy="135" fill="#ADD1B2" rx="11" ry="11" style="stroke:#181818;stroke-width:1.0;"/><path d="M36.3969,141.7344 Q33.9125,141.7344 32.5844,140.0938 Q31.2719,138.4219 31.2719,135.3125 Q31.2719,132.1875 32.5844,130.5313 Q33.9125,128.875 36.3969,128.875 Q37.1156,128.875 37.7719,129.0313 Q38.4125,129.1875 38.975,129.4844 L38.975,132.2031 Q38.6156,131.8594 38.3188,131.6719 Q38.0219,131.4688 37.7563,131.3438 Q37.4438,131.2031 37.1313,131.1406 Q36.8344,131.0781 36.5219,131.0781 Q35.1938,131.0781 34.5063,132.1406 Q33.8188,133.2344 33.8188,135.3125 Q33.8188,137.4063 34.5063,138.4688 Q35.1938,139.5469 36.5219,139.5469 Q37.1625,139.5469 37.7563,139.2656 Q38.0531,139.1406 38.3344,138.9531 Q38.6313,138.75 38.975,138.4219 L38.975,141.1406 Q38.3969,141.4375 37.7563,141.5938 Q37.1156,141.7344 36.3969,141.7344 Z " fill="#000000"/><text fill="#000000" font-family="sans-serif" font-size="14" lengthAdjust="spacing" textLength="112" x="53.4" y="140.432">ExternalIdentifier</text><line style="stroke:#181818;stroke-width:0.5;" x1="10" x2="180" y1="151" y2="151"/><text fill="#000000" font-family="sans-serif" font-size="14" lengthAdjust="spacing" textLength="160" x="15" y="193.0339">Instantiability : Concrete</text><text fill="#000000" font-family="sans-serif" font-size="14" lengthAdjust="spacing" textLength="160" x="15" y="212.1018">name : ExternalIdentifier</text><line style="stroke:#181818;stroke-width:1.0;stroke-dasharray:1.0,2.0;" x1="10" x2="62.5" y1="168.534" y2="168.534"/><text fill="#000000" font-family="sans-serif" font-size="14" lengthAdjust="spacing" textLength="65" x="62.5" y="173.4659">metadata</text><line style="stroke:#181818;stroke-width:1.0;stroke-dasharray:1.0,2.0;" x1="127.5" x2="180" y1="168.534" y2="168.534"/><text fill="#000000" font-family="sans-serif" font-size="14" lengthAdjust="spacing" textLength="137" x="15" y="254.2376">comment : xsd:string</text><text fill="#000000" font-family="sans-serif" font-size="14" lengthAdjust="spacing" textLength="144" x="15" y="273.3055">externalIdentifierType</text><text fill="#000000" font-family="sans-serif" font-size="14" lengthAdjust="spacing" textLength="130" x="15" y="292.3734">identifier : xsd:string</text><line style="stroke:#181818;stroke-width:1.0;stroke-dasharray:1.0,2.0;" x1="10" x2="61.5" y1="229.7377" y2="229.7377"/><text fill="#000000" font-family="sans-serif" font-size="14" lengthAdjust="spacing" textLength="67" x="61.5" y="234.6697">properties</text><line style="stroke:#181818;stroke-width:1.0;stroke-dasharray:1.0,2.0;" x1="128.5" x2="180" y1="229.7377" y2="229.7377"/></g><g id="elem_GMN3"><path d="M224,160 L224,205.5 L188.87,209.5 L224,213.5 L224,258.5301 A0,0 0 0 0 224,258.5301 L326,258.5301 A0,0 0 0 0 326,258.5301 L326,170 L316,160 L224,160 A0,0 0 0 0 224,160 " fill="#FEFFDD" style="stroke:#181818;stroke-width:0.5;"/><path d="M316,160 L316,170 L326,170 L316,160 " fill="#FEFFDD" style="stroke:#181818;stroke-width:0.5;"/><text fill="#000000" font-family="sans-serif" font-size="13" font-weight="bold" lengthAdjust="spacing" textLength="62" x="230" y="178.897">Summary</text><text fill="#000000" font-family="sans-serif" font-size="13" lengthAdjust="spacing" textLength="38" x="230" y="196.603">TODO</text><text fill="#000000" font-family="sans-serif" font-size="13" font-weight="bold" lengthAdjust="spacing" textLength="81" x="230" y="214.309">Description</text><text fill="#000000" font-family="sans-serif" font-size="13" lengthAdjust="spacing" textLength="38" x="230" y="232.0151">TODO</text><text fill="#000000" font-family="sans-serif" font-size="13" lengthAdjust="spacing" textLength="3" x="230" y="249.7211">&#160;</text></g><!--class ExternalIdentifierType--><g id="elem_ExternalIdentifierType"><rect fill="#F1F1F1" height="48" id="ExternalIdentifierType" rx="2.5" ry="2.5" style="stroke:#181818;stroke-width:0.5;" width="176" x="7" y="7"/><ellipse cx="22" cy="23" fill="#ADD1B2" rx="11" ry="11" style="stroke:#181818;stroke-width:1.0;"/><path d="M21.7969,29.7344 Q19.3125,29.7344 17.9844,28.0938 Q16.6719,26.4219 16.6719,23.3125 Q16.6719,20.1875 17.9844,18.5313 Q19.3125,16.875 21.7969,16.875 Q22.5156,16.875 23.1719,17.0313 Q23.8125,17.1875 24.375,17.4844 L24.375,20.2031 Q24.0156,19.8594 23.7188,19.6719 Q23.4219,19.4688 23.1563,19.3438 Q22.8438,19.2031 22.5313,19.1406 Q22.2344,19.0781 21.9219,19.0781 Q20.5938,19.0781 19.9063,20.1406 Q19.2188,21.2344 19.2188,23.3125 Q19.2188,25.4063 19.9063,26.4688 Q20.5938,27.5469 21.9219,27.5469 Q22.5625,27.5469 23.1563,27.2656 Q23.4531,27.1406 23.7344,26.9531 Q24.0313,26.75 24.375,26.4219 L24.375,29.1406 Q23.7969,29.4375 23.1563,29.5938 Q22.5156,29.7344 21.7969,29.7344 Z " fill="#000000"/><text fill="#000000" font-family="sans-serif" font-size="14" lengthAdjust="spacing" textLength="144" x="36" y="28.432">ExternalIdentifierType</text><line style="stroke:#181818;stroke-width:0.5;" x1="8" x2="182" y1="39" y2="39"/><line style="stroke:#181818;stroke-width:0.5;" x1="8" x2="182" y1="47" y2="47"/></g><!--reverse link ExternalIdentifierType to ExternalIdentifier--><g id="link_ExternalIdentifierType_ExternalIdentifier"><path codeLine="17" d="M135.07,59.1 C152.65,73.43 171.44,92.68 181,115 C194.44,146.35 216.11,268.5 182,268.5 " fill="none" id="ExternalIdentifierType-backto-ExternalIdentifier" style="stroke:#181818;stroke-width:1.0;"/><polygon fill="#181818" points="131.34,56.13,135.8924,64.8636,135.2527,59.243,140.8733,58.6033,131.34,56.13" style="stroke:#181818;stroke-width:1.0;"/></g><!--SRC=[ROw_3e903CRtUug6NTm9SL479mTzWG95ct0zqgk9nFZk7XX337Jy_lpwrHt62CUdaGfsfuR4k6LIUBay1q-63Hf2dZj8Tv9ec19OSSSsG07x8BMIqMGBUahQaZQoUWqzgJ757wqEtgT4QZnZKqHJbjjaq09m7Vhl2vuN_jNUJe8HAD_k1g5Tsr1Mkyl3UzIXt5OxTpqVpgDse5WhzyP1PjsHD30INNPS7PD1kTd0YbaKw-kp3m00]--></g></svg>