<?xml version="1.0" encoding="us-ascii" standalone="no"?><svg xmlns="http://www.w3.org/2000/svg" xmlns:xlink="http://www.w3.org/1999/xlink" contentStyleType="text/css" height="357px" preserveAspectRatio="none" style="width:330px;height:357px;background:#FFFFFF;" version="1.1" viewBox="0 0 330 357" width="330px" zoomAndPan="magnify"><defs/><g><!--class ExternalIdentifier--><g id="elem_ExternalIdentifier"><rect codeLine="1" fill="#F1F1F1" height="181.4754" id="ExternalIdentifier" rx="2.5" ry="2.5" style="stroke:#181818;stroke-width:0.5;" width="172" x="58" y="169"/><ellipse cx="85.6" cy="185" fill="#ADD1B2" rx="11" ry="11" style="stroke:#181818;stroke-width:1.0;"/><path d="M85.3969,191.7344 Q82.9125,191.7344 81.5844,190.0938 Q80.2719,188.4219 80.2719,185.3125 Q80.2719,182.1875 81.5844,180.5313 Q82.9125,178.875 85.3969,178.875 Q86.1156,178.875 86.7719,179.0313 Q87.4125,179.1875 87.975,179.4844 L87.975,182.2031 Q87.6156,181.8594 87.3188,181.6719 Q87.0219,181.4688 86.7563,181.3438 Q86.4438,181.2031 86.1313,181.1406 Q85.8344,181.0781 85.5219,181.0781 Q84.1938,181.0781 83.5063,182.1406 Q82.8188,183.2344 82.8188,185.3125 Q82.8188,187.4063 83.5063,188.4688 Q84.1938,189.5469 85.5219,189.5469 Q86.1625,189.5469 86.7563,189.2656 Q87.0531,189.1406 87.3344,188.9531 Q87.6313,188.75 87.975,188.4219 L87.975,191.1406 Q87.3969,191.4375 86.7563,191.5938 Q86.1156,191.7344 85.3969,191.7344 Z " fill="#000000"/><text fill="#000000" font-family="sans-serif" font-size="14" lengthAdjust="spacing" textLength="112" x="102.4" y="190.432">ExternalIdentifier</text><line style="stroke:#181818;stroke-width:0.5;" x1="59" x2="229" y1="201" y2="201"/><text fill="#000000" font-family="sans-serif" font-size="14" lengthAdjust="spacing" textLength="160" x="64" y="243.0339">Instantiability : Concrete</text><text fill="#000000" font-family="sans-serif" font-size="14" lengthAdjust="spacing" textLength="160" x="64" y="262.1018">name : ExternalIdentifier</text><line style="stroke:#181818;stroke-width:1.0;stroke-dasharray:1.0,2.0;" x1="59" x2="111.5" y1="218.534" y2="218.534"/><text fill="#000000" font-family="sans-serif" font-size="14" lengthAdjust="spacing" textLength="65" x="111.5" y="223.4659">metadata</text><line style="stroke:#181818;stroke-width:1.0;stroke-dasharray:1.0,2.0;" x1="176.5" x2="229" y1="218.534" y2="218.534"/><text fill="#000000" font-family="sans-serif" font-size="14" lengthAdjust="spacing" textLength="137" x="64" y="304.2376">comment : xsd:string</text><text fill="#000000" font-family="sans-serif" font-size="14" lengthAdjust="spacing" textLength="144" x="64" y="323.3055">externalIdentifierType</text><text fill="#000000" font-family="sans-serif" font-size="14" lengthAdjust="spacing" textLength="130" x="64" y="342.3734">identifier : xsd:string</text><line style="stroke:#181818;stroke-width:1.0;stroke-dasharray:1.0,2.0;" x1="59" x2="110.5" y1="279.7377" y2="279.7377"/><text fill="#000000" font-family="sans-serif" font-size="14" lengthAdjust="spacing" textLength="67" x="110.5" y="284.6697">properties</text><line style="stroke:#181818;stroke-width:1.0;stroke-dasharray:1.0,2.0;" x1="177.5" x2="229" y1="279.7377" y2="279.7377"/></g><g id="elem_GMN3"><path d="M6,6 L6,104.5301 A0,0 0 0 0 6,104.5301 L74.06,104.5301 L103.9,165.39 L82.06,104.5301 L108,104.5301 A0,0 0 0 0 108,104.5301 L108,16 L98,6 L6,6 A0,0 0 0 0 6,6 " fill="#FEFFDD" style="stroke:#181818;stroke-width:0.5;"/><path d="M98,6 L98,16 L108,16 L98,6 " fill="#FEFFDD" style="stroke:#181818;stroke-width:0.5;"/><text fill="#000000" font-family="sans-serif" font-size="13" font-weight="bold" lengthAdjust="spacing" textLength="62" x="12" y="24.897">Summary</text><text fill="#000000" font-family="sans-serif" font-size="13" lengthAdjust="spacing" textLength="38" x="12" y="42.603">TODO</text><text fill="#000000" font-family="sans-serif" font-size="13" font-weight="bold" lengthAdjust="spacing" textLength="81" x="12" y="60.309">Description</text><text fill="#000000" font-family="sans-serif" font-size="13" lengthAdjust="spacing" textLength="38" x="12" y="78.0151">TODO</text><text fill="#000000" font-family="sans-serif" font-size="13" lengthAdjust="spacing" textLength="3" x="12" y="95.7211">&#160;</text></g><!--class ExternalIdentifierType--><g id="elem_ExternalIdentifierType"><rect fill="#F1F1F1" height="48" id="ExternalIdentifierType" rx="2.5" ry="2.5" style="stroke:#181818;stroke-width:0.5;" width="176" x="143" y="31.5"/><ellipse cx="158" cy="47.5" fill="#ADD1B2" rx="11" ry="11" style="stroke:#181818;stroke-width:1.0;"/><path d="M157.7969,54.2344 Q155.3125,54.2344 153.9844,52.5938 Q152.6719,50.9219 152.6719,47.8125 Q152.6719,44.6875 153.9844,43.0313 Q155.3125,41.375 157.7969,41.375 Q158.5156,41.375 159.1719,41.5313 Q159.8125,41.6875 160.375,41.9844 L160.375,44.7031 Q160.0156,44.3594 159.7188,44.1719 Q159.4219,43.9688 159.1563,43.8438 Q158.8438,43.7031 158.5313,43.6406 Q158.2344,43.5781 157.9219,43.5781 Q156.5938,43.5781 155.9063,44.6406 Q155.2188,45.7344 155.2188,47.8125 Q155.2188,49.9063 155.9063,50.9688 Q156.5938,52.0469 157.9219,52.0469 Q158.5625,52.0469 159.1563,51.7656 Q159.4531,51.6406 159.7344,51.4531 Q160.0313,51.25 160.375,50.9219 L160.375,53.6406 Q159.7969,53.9375 159.1563,54.0938 Q158.5156,54.2344 157.7969,54.2344 Z " fill="#000000"/><text fill="#000000" font-family="sans-serif" font-size="14" lengthAdjust="spacing" textLength="144" x="172" y="52.932">ExternalIdentifierType</text><line style="stroke:#181818;stroke-width:0.5;" x1="144" x2="318" y1="63.5" y2="63.5"/><line style="stroke:#181818;stroke-width:0.5;" x1="144" x2="318" y1="71.5" y2="71.5"/></g><!--reverse link ExternalIdentifierType to ExternalIdentifier--><g id="link_ExternalIdentifierType_ExternalIdentifier"><path codeLine="17" d="M242.92,85.66 C269.3,153.95 323.28,318.5 231,318.5 " fill="none" id="ExternalIdentifierType-backto-ExternalIdentifier" style="stroke:#181818;stroke-width:1.0;"/><polygon fill="#181818" points="241.16,81.16,240.6998,90.9981,242.975,85.8189,248.1541,88.0941,241.16,81.16" style="stroke:#181818;stroke-width:1.0;"/></g><!--SRC=[ROw_3e903CRtUug6NTm9OH469WTvWGBLDE5wbxkQI8plxg4nn437xy-ltp1XZD0yb8BWr8uaobUc04-Jvs19SKH5o7C3wLg9YYc1FK-iCnHmSZ84KlhOWfQIjgKjB1-Sfw1CyKSRdBKfaHgFE1PH0yljOz06qCt- -uBNXN-rbn6d1EeykElUWhAlBdThCSpbiQzCTwxFYrPJ709xPIUhRaX6M7WcQtQdP50U3h1Z5iN-zkmD]--></g></svg>