<?xml version="1.0" encoding="us-ascii" standalone="no"?><svg xmlns="http://www.w3.org/2000/svg" xmlns:xlink="http://www.w3.org/1999/xlink" contentStyleType="text/css" height="430px" preserveAspectRatio="none" style="width:800px;height:430px;background:#FFFFFF;" version="1.1" viewBox="0 0 800 430" width="800px" zoomAndPan="magnify"><defs/><g><!--class ExternalReference--><g id="elem_ExternalReference"><rect codeLine="1" fill="#F1F1F1" height="219.6113" id="ExternalReference" rx="2.5" ry="2.5" style="stroke:#181818;stroke-width:0.5;" width="179" x="432.5" y="204"/><ellipse cx="460.1" cy="220" fill="#ADD1B2" rx="11" ry="11" style="stroke:#181818;stroke-width:1.0;"/><path d="M459.8969,226.7344 Q457.4125,226.7344 456.0844,225.0938 Q454.7719,223.4219 454.7719,220.3125 Q454.7719,217.1875 456.0844,215.5313 Q457.4125,213.875 459.8969,213.875 Q460.6156,213.875 461.2719,214.0313 Q461.9125,214.1875 462.475,214.4844 L462.475,217.2031 Q462.1156,216.8594 461.8188,216.6719 Q461.5219,216.4688 461.2563,216.3438 Q460.9438,216.2031 460.6313,216.1406 Q460.3344,216.0781 460.0219,216.0781 Q458.6938,216.0781 458.0063,217.1406 Q457.3188,218.2344 457.3188,220.3125 Q457.3188,222.4063 458.0063,223.4688 Q458.6938,224.5469 460.0219,224.5469 Q460.6625,224.5469 461.2563,224.2656 Q461.5531,224.1406 461.8344,223.9531 Q462.1313,223.75 462.475,223.4219 L462.475,226.1406 Q461.8969,226.4375 461.2563,226.5938 Q460.6156,226.7344 459.8969,226.7344 Z " fill="#000000"/><text fill="#000000" font-family="sans-serif" font-size="14" lengthAdjust="spacing" textLength="119" x="476.9" y="225.432">ExternalReference</text><line style="stroke:#181818;stroke-width:0.5;" x1="433.5" x2="610.5" y1="236" y2="236"/><text fill="#000000" font-family="sans-serif" font-size="14" lengthAdjust="spacing" textLength="160" x="438.5" y="278.0339">Instantiability : Concrete</text><text fill="#000000" font-family="sans-serif" font-size="14" lengthAdjust="spacing" textLength="116" x="438.5" y="297.1018">SubclassOf : none</text><text fill="#000000" font-family="sans-serif" font-size="14" lengthAdjust="spacing" textLength="167" x="438.5" y="316.1697">name : ExternalReference</text><line style="stroke:#181818;stroke-width:1.0;stroke-dasharray:1.0,2.0;" x1="433.5" x2="489.5" y1="253.534" y2="253.534"/><text fill="#000000" font-family="sans-serif" font-size="14" lengthAdjust="spacing" textLength="65" x="489.5" y="258.4659">metadata</text><line style="stroke:#181818;stroke-width:1.0;stroke-dasharray:1.0,2.0;" x1="554.5" x2="610.5" y1="253.534" y2="253.534"/><text fill="#000000" font-family="sans-serif" font-size="14" lengthAdjust="spacing" textLength="137" x="438.5" y="358.3055">comment : xsd:string</text><text fill="#000000" font-family="sans-serif" font-size="14" lengthAdjust="spacing" textLength="84" x="438.5" y="377.3734">contentType</text><text fill="#000000" font-family="sans-serif" font-size="14" lengthAdjust="spacing" textLength="151" x="438.5" y="396.4414">externalReferenceType</text><text fill="#000000" font-family="sans-serif" font-size="14" lengthAdjust="spacing" textLength="104" x="438.5" y="415.5093">locator : anyURI</text><line style="stroke:#181818;stroke-width:1.0;stroke-dasharray:1.0,2.0;" x1="433.5" x2="488.5" y1="333.8056" y2="333.8056"/><text fill="#000000" font-family="sans-serif" font-size="14" lengthAdjust="spacing" textLength="67" x="488.5" y="338.7376">properties</text><line style="stroke:#181818;stroke-width:1.0;stroke-dasharray:1.0,2.0;" x1="555.5" x2="610.5" y1="333.8056" y2="333.8056"/></g><g id="elem_GMN3"><path d="M6,6 L6,139.9421 A0,0 0 0 0 6,139.9421 L300.85,139.9421 L424.5,235.25 L308.85,139.9421 L436,139.9421 A0,0 0 0 0 436,139.9421 L436,16 L426,6 L6,6 A0,0 0 0 0 6,6 " fill="#FEFFDD" style="stroke:#181818;stroke-width:0.5;"/><path d="M426,6 L426,16 L436,16 L426,6 " fill="#FEFFDD" style="stroke:#181818;stroke-width:0.5;"/><text fill="#000000" font-family="sans-serif" font-size="13" font-weight="bold" lengthAdjust="spacing" textLength="62" x="12" y="24.897">Summary</text><text fill="#000000" font-family="sans-serif" font-size="13" lengthAdjust="spacing" textLength="409" x="12" y="42.603">A reference to a resource outside of the scope of SPDX-3.0 content.</text><text fill="#000000" font-family="sans-serif" font-size="13" font-weight="bold" lengthAdjust="spacing" textLength="81" x="12" y="60.309">Description</text><text fill="#000000" font-family="sans-serif" font-size="13" lengthAdjust="spacing" textLength="406" x="12" y="78.0151">An External Reference is a grouping of characteristics unique to the</text><text fill="#000000" font-family="sans-serif" font-size="13" lengthAdjust="spacing" textLength="400" x="12" y="95.7211">identity, location and context of a resource outside of the scope of</text><text fill="#000000" font-family="sans-serif" font-size="13" lengthAdjust="spacing" textLength="107" x="12" y="113.4271">SPDX-3.0 content.</text><text fill="#000000" font-family="sans-serif" font-size="13" lengthAdjust="spacing" textLength="3" x="12" y="131.1331">&#160;</text></g><!--class MediaType--><g id="elem_MediaType"><rect fill="#F1F1F1" height="48" id="MediaType" rx="2.5" ry="2.5" style="stroke:#181818;stroke-width:0.5;" width="104" x="471" y="49"/><ellipse cx="486" cy="65" fill="#ADD1B2" rx="11" ry="11" style="stroke:#181818;stroke-width:1.0;"/><path d="M485.7969,71.7344 Q483.3125,71.7344 481.9844,70.0938 Q480.6719,68.4219 480.6719,65.3125 Q480.6719,62.1875 481.9844,60.5313 Q483.3125,58.875 485.7969,58.875 Q486.5156,58.875 487.1719,59.0313 Q487.8125,59.1875 488.375,59.4844 L488.375,62.2031 Q488.0156,61.8594 487.7188,61.6719 Q487.4219,61.4688 487.1563,61.3438 Q486.8438,61.2031 486.5313,61.1406 Q486.2344,61.0781 485.9219,61.0781 Q484.5938,61.0781 483.9063,62.1406 Q483.2188,63.2344 483.2188,65.3125 Q483.2188,67.4063 483.9063,68.4688 Q484.5938,69.5469 485.9219,69.5469 Q486.5625,69.5469 487.1563,69.2656 Q487.4531,69.1406 487.7344,68.9531 Q488.0313,68.75 488.375,68.4219 L488.375,71.1406 Q487.7969,71.4375 487.1563,71.5938 Q486.5156,71.7344 485.7969,71.7344 Z " fill="#000000"/><text fill="#000000" font-family="sans-serif" font-size="14" lengthAdjust="spacing" textLength="72" x="500" y="70.432">MediaType</text><line style="stroke:#181818;stroke-width:0.5;" x1="472" x2="574" y1="81" y2="81"/><line style="stroke:#181818;stroke-width:0.5;" x1="472" x2="574" y1="89" y2="89"/></g><!--class ExternalReferenceType--><g id="elem_ExternalReferenceType"><rect fill="#F1F1F1" height="48" id="ExternalReferenceType" rx="2.5" ry="2.5" style="stroke:#181818;stroke-width:0.5;" width="183" x="610.5" y="49"/><ellipse cx="625.5" cy="65" fill="#ADD1B2" rx="11" ry="11" style="stroke:#181818;stroke-width:1.0;"/><path d="M625.2969,71.7344 Q622.8125,71.7344 621.4844,70.0938 Q620.1719,68.4219 620.1719,65.3125 Q620.1719,62.1875 621.4844,60.5313 Q622.8125,58.875 625.2969,58.875 Q626.0156,58.875 626.6719,59.0313 Q627.3125,59.1875 627.875,59.4844 L627.875,62.2031 Q627.5156,61.8594 627.2188,61.6719 Q626.9219,61.4688 626.6563,61.3438 Q626.3438,61.2031 626.0313,61.1406 Q625.7344,61.0781 625.4219,61.0781 Q624.0938,61.0781 623.4063,62.1406 Q622.7188,63.2344 622.7188,65.3125 Q622.7188,67.4063 623.4063,68.4688 Q624.0938,69.5469 625.4219,69.5469 Q626.0625,69.5469 626.6563,69.2656 Q626.9531,69.1406 627.2344,68.9531 Q627.5313,68.75 627.875,68.4219 L627.875,71.1406 Q627.2969,71.4375 626.6563,71.5938 Q626.0156,71.7344 625.2969,71.7344 Z " fill="#000000"/><text fill="#000000" font-family="sans-serif" font-size="14" lengthAdjust="spacing" textLength="151" x="639.5" y="70.432">ExternalReferenceType</text><line style="stroke:#181818;stroke-width:0.5;" x1="611.5" x2="792.5" y1="81" y2="81"/><line style="stroke:#181818;stroke-width:0.5;" x1="611.5" x2="792.5" y1="89" y2="89"/></g><!--reverse link MediaType to ExternalReference--><g id="link_MediaType_ExternalReference"><path codeLine="21" d="M550.23,101.69 C571.64,125.52 599.81,161.99 612,200 C635.42,273 689.67,372.5 613,372.5 " fill="none" id="MediaType-backto-ExternalReference" style="stroke:#181818;stroke-width:1.0;"/><polygon fill="#181818" points="547.07,98.22,550.1751,107.5666,550.4376,101.9158,556.0884,102.1784,547.07,98.22" style="stroke:#181818;stroke-width:1.0;"/></g><!--reverse link ExternalReferenceType to ExternalReference--><g id="link_ExternalReferenceType_ExternalReference"><path codeLine="22" d="M706.39,103.68 C716.46,182.58 731.88,391.5 613,391.5 " fill="none" id="ExternalReferenceType-backto-ExternalReference" style="stroke:#181818;stroke-width:1.0;"/><polygon fill="#181818" points="705.76,98.85,702.9472,108.2887,706.4012,103.8087,710.8812,107.2627,705.76,98.85" style="stroke:#181818;stroke-width:1.0;"/></g><!--SRC=[XP51JyCm38Nl-HLMpwmWSQkcIGWux8106qXStTJR8hLEIHnf5UA_uwni83f1RexZxps_s1PZXFkzK61iLxIXG6m9tarPGaU23Gf2MHhGi-GeoEAmTgsJ0IguzMm32HtQwrJRZ7lSQ8SzZxUC7MazaSW2VV0z1N4KZnBMTnsnwC0-DbMKu7ZxrM3HnlFGZrZwpJjrMczHV504yl2oMfeFmru8nFVWDsUCpEl5EdKTXc5-MI_C3OHJ3E81jOm-1QryakWQoXJP4KIhxdEnVhfxdLsNLqUJPKRUKRJ1zU8yZrW-ISDtpYwgm3RurEkYcMLt6D3gEnV5sGY9tLiw6559e-gQlmmNuvRArYMRKNSlUVv_ksPgrv12SaYcUA36OSwoWFbi1iKahghwyHM5cJxuU_ZilnMV]--></g></svg>