<?xml version="1.0" encoding="us-ascii" standalone="no"?><svg xmlns="http://www.w3.org/2000/svg" xmlns:xlink="http://www.w3.org/1999/xlink" contentStyleType="text/css" height="408px" preserveAspectRatio="none" style="width:794px;height:408px;background:#FFFFFF;" version="1.1" viewBox="0 0 794 408" width="794px" zoomAndPan="magnify"><defs/><g><!--class Hash--><g id="elem_Hash"><rect codeLine="1" fill="#F1F1F1" height="162.4075" id="Hash" rx="2.5" ry="2.5" style="stroke:#181818;stroke-width:0.5;" width="203" x="451.5" y="239"/><ellipse cx="532.25" cy="255" fill="#ADD1B2" rx="11" ry="11" style="stroke:#181818;stroke-width:1.0;"/><path d="M532.0469,261.7344 Q529.5625,261.7344 528.2344,260.0938 Q526.9219,258.4219 526.9219,255.3125 Q526.9219,252.1875 528.2344,250.5313 Q529.5625,248.875 532.0469,248.875 Q532.7656,248.875 533.4219,249.0313 Q534.0625,249.1875 534.625,249.4844 L534.625,252.2031 Q534.2656,251.8594 533.9688,251.6719 Q533.6719,251.4688 533.4063,251.3438 Q533.0938,251.2031 532.7813,251.1406 Q532.4844,251.0781 532.1719,251.0781 Q530.8438,251.0781 530.1563,252.1406 Q529.4688,253.2344 529.4688,255.3125 Q529.4688,257.4063 530.1563,258.4688 Q530.8438,259.5469 532.1719,259.5469 Q532.8125,259.5469 533.4063,259.2656 Q533.7031,259.1406 533.9844,258.9531 Q534.2813,258.75 534.625,258.4219 L534.625,261.1406 Q534.0469,261.4375 533.4063,261.5938 Q532.7656,261.7344 532.0469,261.7344 Z " fill="#000000"/><text fill="#000000" font-family="sans-serif" font-size="14" lengthAdjust="spacing" textLength="33" x="552.75" y="260.432">Hash</text><line style="stroke:#181818;stroke-width:0.5;" x1="452.5" x2="653.5" y1="271" y2="271"/><text fill="#000000" font-family="sans-serif" font-size="14" lengthAdjust="spacing" textLength="191" x="457.5" y="313.0339">SubclassOf : IntegrityMethod</text><text fill="#000000" font-family="sans-serif" font-size="14" lengthAdjust="spacing" textLength="81" x="457.5" y="332.1018">name : Hash</text><line style="stroke:#181818;stroke-width:1.0;stroke-dasharray:1.0,2.0;" x1="452.5" x2="520.5" y1="288.534" y2="288.534"/><text fill="#000000" font-family="sans-serif" font-size="14" lengthAdjust="spacing" textLength="65" x="520.5" y="293.4659">metadata</text><line style="stroke:#181818;stroke-width:1.0;stroke-dasharray:1.0,2.0;" x1="585.5" x2="653.5" y1="288.534" y2="288.534"/><text fill="#000000" font-family="sans-serif" font-size="14" lengthAdjust="spacing" textLength="63" x="457.5" y="374.2376">algorithm</text><text fill="#000000" font-family="sans-serif" font-size="14" lengthAdjust="spacing" textLength="139" x="457.5" y="393.3055">hashValue : xsd:string</text><line style="stroke:#181818;stroke-width:1.0;stroke-dasharray:1.0,2.0;" x1="452.5" x2="519.5" y1="349.7377" y2="349.7377"/><text fill="#000000" font-family="sans-serif" font-size="14" lengthAdjust="spacing" textLength="67" x="519.5" y="354.6697">properties</text><line style="stroke:#181818;stroke-width:1.0;stroke-dasharray:1.0,2.0;" x1="586.5" x2="653.5" y1="349.7377" y2="349.7377"/></g><g id="elem_GMN3"><path d="M6,6 L6,175.3541 A0,0 0 0 0 6,175.3541 L343,175.3541 L443.51,242.59 L351,175.3541 L448,175.3541 A0,0 0 0 0 448,175.3541 L448,16 L438,6 L6,6 A0,0 0 0 0 6,6 " fill="#FEFFDD" style="stroke:#181818;stroke-width:0.5;"/><path d="M438,6 L438,16 L448,16 L438,6 " fill="#FEFFDD" style="stroke:#181818;stroke-width:0.5;"/><text fill="#000000" font-family="sans-serif" font-size="13" font-weight="bold" lengthAdjust="spacing" textLength="62" x="12" y="24.897">Summary</text><text fill="#000000" font-family="sans-serif" font-size="13" lengthAdjust="spacing" textLength="390" x="12" y="42.603">A mathematically calculated representation of a grouping of data.</text><text fill="#000000" font-family="sans-serif" font-size="13" font-weight="bold" lengthAdjust="spacing" textLength="81" x="12" y="60.309">Description</text><text fill="#000000" font-family="sans-serif" font-size="13" lengthAdjust="spacing" textLength="421" x="12" y="78.0151">A hash is a grouping of characteristics unique to the result of applying</text><text fill="#000000" font-family="sans-serif" font-size="13" lengthAdjust="spacing" textLength="381" x="12" y="95.7211">a mathematical algorithm that maps data of arbitrary size to a bit</text><text fill="#000000" font-family="sans-serif" font-size="13" lengthAdjust="spacing" textLength="403" x="12" y="113.4271">string (the hash) and is a one-way function, that is, a function which</text><text fill="#000000" font-family="sans-serif" font-size="13" lengthAdjust="spacing" textLength="407" x="12" y="131.1331">is practically infeasible to invert. This is commonly used for integrity</text><text fill="#000000" font-family="sans-serif" font-size="13" lengthAdjust="spacing" textLength="102" x="12" y="148.8391">checking of data.</text><text fill="#000000" font-family="sans-serif" font-size="13" lengthAdjust="spacing" textLength="3" x="12" y="166.5451">&#160;</text></g><!--class IntegrityMethod--><g id="elem_IntegrityMethod"><rect fill="#F1F1F1" height="48" id="IntegrityMethod" rx="2.5" ry="2.5" style="stroke:#181818;stroke-width:0.5;" width="140" x="483" y="66.5"/><ellipse cx="498" cy="82.5" fill="#ADD1B2" rx="11" ry="11" style="stroke:#181818;stroke-width:1.0;"/><path d="M497.7969,89.2344 Q495.3125,89.2344 493.9844,87.5938 Q492.6719,85.9219 492.6719,82.8125 Q492.6719,79.6875 493.9844,78.0313 Q495.3125,76.375 497.7969,76.375 Q498.5156,76.375 499.1719,76.5313 Q499.8125,76.6875 500.375,76.9844 L500.375,79.7031 Q500.0156,79.3594 499.7188,79.1719 Q499.4219,78.9688 499.1563,78.8438 Q498.8438,78.7031 498.5313,78.6406 Q498.2344,78.5781 497.9219,78.5781 Q496.5938,78.5781 495.9063,79.6406 Q495.2188,80.7344 495.2188,82.8125 Q495.2188,84.9063 495.9063,85.9688 Q496.5938,87.0469 497.9219,87.0469 Q498.5625,87.0469 499.1563,86.7656 Q499.4531,86.6406 499.7344,86.4531 Q500.0313,86.25 500.375,85.9219 L500.375,88.6406 Q499.7969,88.9375 499.1563,89.0938 Q498.5156,89.2344 497.7969,89.2344 Z " fill="#000000"/><text fill="#000000" font-family="sans-serif" font-size="14" lengthAdjust="spacing" textLength="108" x="512" y="87.932">IntegrityMethod</text><line style="stroke:#181818;stroke-width:0.5;" x1="484" x2="622" y1="98.5" y2="98.5"/><line style="stroke:#181818;stroke-width:0.5;" x1="484" x2="622" y1="106.5" y2="106.5"/></g><!--class HashAlgorithm--><g id="elem_HashAlgorithm"><rect fill="#F1F1F1" height="48" id="HashAlgorithm" rx="2.5" ry="2.5" style="stroke:#181818;stroke-width:0.5;" width="129" x="658.5" y="66.5"/><ellipse cx="673.5" cy="82.5" fill="#ADD1B2" rx="11" ry="11" style="stroke:#181818;stroke-width:1.0;"/><path d="M673.2969,89.2344 Q670.8125,89.2344 669.4844,87.5938 Q668.1719,85.9219 668.1719,82.8125 Q668.1719,79.6875 669.4844,78.0313 Q670.8125,76.375 673.2969,76.375 Q674.0156,76.375 674.6719,76.5313 Q675.3125,76.6875 675.875,76.9844 L675.875,79.7031 Q675.5156,79.3594 675.2188,79.1719 Q674.9219,78.9688 674.6563,78.8438 Q674.3438,78.7031 674.0313,78.6406 Q673.7344,78.5781 673.4219,78.5781 Q672.0938,78.5781 671.4063,79.6406 Q670.7188,80.7344 670.7188,82.8125 Q670.7188,84.9063 671.4063,85.9688 Q672.0938,87.0469 673.4219,87.0469 Q674.0625,87.0469 674.6563,86.7656 Q674.9531,86.6406 675.2344,86.4531 Q675.5313,86.25 675.875,85.9219 L675.875,88.6406 Q675.2969,88.9375 674.6563,89.0938 Q674.0156,89.2344 673.2969,89.2344 Z " fill="#000000"/><text fill="#000000" font-family="sans-serif" font-size="14" lengthAdjust="spacing" textLength="97" x="687.5" y="87.932">HashAlgorithm</text><line style="stroke:#181818;stroke-width:0.5;" x1="659.5" x2="786.5" y1="98.5" y2="98.5"/><line style="stroke:#181818;stroke-width:0.5;" x1="659.5" x2="786.5" y1="106.5" y2="106.5"/></g><!--reverse link IntegrityMethod to Hash--><g id="link_IntegrityMethod_Hash"><path codeLine="20" d="M553,136.24 C553,164.41 553,201.67 553,235.19 " fill="none" id="IntegrityMethod-backto-Hash" style="stroke:#181818;stroke-width:1.0;"/><polygon fill="none" points="546,136.5,553,116.5,560,136.5,546,136.5" style="stroke:#181818;stroke-width:1.0;"/></g><!--reverse link HashAlgorithm to Hash--><g id="link_HashAlgorithm_Hash"><path codeLine="21" d="M728.29,120.85 C739.56,192.21 757.27,369 656,369 " fill="none" id="HashAlgorithm-backto-Hash" style="stroke:#181818;stroke-width:1.0;"/><polygon fill="#181818" points="727.53,116.18,725.0193,125.7035,728.3289,121.1158,732.9166,124.4253,727.53,116.18" style="stroke:#181818;stroke-width:1.0;"/></g><!--SRC=[NLBBJkmm3DtdAwokG6BAVZH2Gc9nMI0M8FPkwawYcoOXJe3o-FThTsOkWgfAbPo7J-pQWCpm1zd1X-bxcAdYY1MXxmt8yz06gvJx2RPm6oljYw_B7LMNnfKGSIQ1r47rkQHCfNhYamE6VHADczUT4zuJXgQQDnwtN8kFU_DbOge4DML8qy5iDrmzj7d6ikmkXojp3JDMHx9uYo4i8Ajj0IkDK2WNOefLm1JL0M5VKijYhJkzKA-6DyIs-Aoiewdc0S-_1DPXGLkfU9Po32twvwRnG298EMwXhcLo3elcnn_flkyiVAo2PLv3h9eo-5haMi3-VVL4a1Dpw0ISQGLDTGuOnqEq56dpYWjCBLhDVd6mzNmXuEaGNfstpeWWQ_PZbtoS2DaFOQtauuiCfuT79pHvRPhd58NMMDeufIACuuYDTMJ__cYW8GcaSpBThp-XWztdPWET3gupw-Vwr0B1Jj1s-xyntJy0]--></g></svg>