<?xml version="1.0" encoding="us-ascii" standalone="no"?><svg xmlns="http://www.w3.org/2000/svg" xmlns:xlink="http://www.w3.org/1999/xlink" contentStyleType="text/css" height="291px" preserveAspectRatio="none" style="width:755px;height:291px;background:#FFFFFF;" version="1.1" viewBox="0 0 755 291" width="755px" zoomAndPan="magnify"><defs/><g><!--class Hash--><g id="elem_Hash"><rect codeLine="1" fill="#F1F1F1" height="162.4075" id="Hash" rx="2.5" ry="2.5" style="stroke:#181818;stroke-width:0.5;" width="203" x="59.5" y="119"/><ellipse cx="140.25" cy="135" fill="#ADD1B2" rx="11" ry="11" style="stroke:#181818;stroke-width:1.0;"/><path d="M140.0469,141.7344 Q137.5625,141.7344 136.2344,140.0938 Q134.9219,138.4219 134.9219,135.3125 Q134.9219,132.1875 136.2344,130.5313 Q137.5625,128.875 140.0469,128.875 Q140.7656,128.875 141.4219,129.0313 Q142.0625,129.1875 142.625,129.4844 L142.625,132.2031 Q142.2656,131.8594 141.9688,131.6719 Q141.6719,131.4688 141.4063,131.3438 Q141.0938,131.2031 140.7813,131.1406 Q140.4844,131.0781 140.1719,131.0781 Q138.8438,131.0781 138.1563,132.1406 Q137.4688,133.2344 137.4688,135.3125 Q137.4688,137.4063 138.1563,138.4688 Q138.8438,139.5469 140.1719,139.5469 Q140.8125,139.5469 141.4063,139.2656 Q141.7031,139.1406 141.9844,138.9531 Q142.2813,138.75 142.625,138.4219 L142.625,141.1406 Q142.0469,141.4375 141.4063,141.5938 Q140.7656,141.7344 140.0469,141.7344 Z " fill="#000000"/><text fill="#000000" font-family="sans-serif" font-size="14" lengthAdjust="spacing" textLength="33" x="160.75" y="140.432">Hash</text><line style="stroke:#181818;stroke-width:0.5;" x1="60.5" x2="261.5" y1="151" y2="151"/><text fill="#000000" font-family="sans-serif" font-size="14" lengthAdjust="spacing" textLength="191" x="65.5" y="193.0339">SubclassOf : IntegrityMethod</text><text fill="#000000" font-family="sans-serif" font-size="14" lengthAdjust="spacing" textLength="81" x="65.5" y="212.1018">name : Hash</text><line style="stroke:#181818;stroke-width:1.0;stroke-dasharray:1.0,2.0;" x1="60.5" x2="128.5" y1="168.534" y2="168.534"/><text fill="#000000" font-family="sans-serif" font-size="14" lengthAdjust="spacing" textLength="65" x="128.5" y="173.4659">metadata</text><line style="stroke:#181818;stroke-width:1.0;stroke-dasharray:1.0,2.0;" x1="193.5" x2="261.5" y1="168.534" y2="168.534"/><text fill="#000000" font-family="sans-serif" font-size="14" lengthAdjust="spacing" textLength="63" x="65.5" y="254.2376">algorithm</text><text fill="#000000" font-family="sans-serif" font-size="14" lengthAdjust="spacing" textLength="139" x="65.5" y="273.3055">hashValue : xsd:string</text><line style="stroke:#181818;stroke-width:1.0;stroke-dasharray:1.0,2.0;" x1="60.5" x2="127.5" y1="229.7377" y2="229.7377"/><text fill="#000000" font-family="sans-serif" font-size="14" lengthAdjust="spacing" textLength="67" x="127.5" y="234.6697">properties</text><line style="stroke:#181818;stroke-width:1.0;stroke-dasharray:1.0,2.0;" x1="194.5" x2="261.5" y1="229.7377" y2="229.7377"/></g><g id="elem_GMN3"><path d="M306,115.5 L306,196 L270.37,200 L306,204 L306,284.8541 A0,0 0 0 0 306,284.8541 L748,284.8541 A0,0 0 0 0 748,284.8541 L748,125.5 L738,115.5 L306,115.5 A0,0 0 0 0 306,115.5 " fill="#FEFFDD" style="stroke:#181818;stroke-width:0.5;"/><path d="M738,115.5 L738,125.5 L748,125.5 L738,115.5 " fill="#FEFFDD" style="stroke:#181818;stroke-width:0.5;"/><text fill="#000000" font-family="sans-serif" font-size="13" font-weight="bold" lengthAdjust="spacing" textLength="62" x="312" y="134.397">Summary</text><text fill="#000000" font-family="sans-serif" font-size="13" lengthAdjust="spacing" textLength="390" x="312" y="152.103">A mathematically calculated representation of a grouping of data.</text><text fill="#000000" font-family="sans-serif" font-size="13" font-weight="bold" lengthAdjust="spacing" textLength="81" x="312" y="169.809">Description</text><text fill="#000000" font-family="sans-serif" font-size="13" lengthAdjust="spacing" textLength="421" x="312" y="187.5151">A hash is a grouping of characteristics unique to the result of applying</text><text fill="#000000" font-family="sans-serif" font-size="13" lengthAdjust="spacing" textLength="381" x="312" y="205.2211">a mathematical algorithm that maps data of arbitrary size to a bit</text><text fill="#000000" font-family="sans-serif" font-size="13" lengthAdjust="spacing" textLength="403" x="312" y="222.9271">string (the hash) and is a one-way function, that is, a function which</text><text fill="#000000" font-family="sans-serif" font-size="13" lengthAdjust="spacing" textLength="407" x="312" y="240.6331">is practically infeasible to invert. This is commonly used for integrity</text><text fill="#000000" font-family="sans-serif" font-size="13" lengthAdjust="spacing" textLength="102" x="312" y="258.3391">checking of data.</text><text fill="#000000" font-family="sans-serif" font-size="13" lengthAdjust="spacing" textLength="3" x="312" y="276.0451">&#160;</text></g><!--class IntegrityMethod--><g id="elem_IntegrityMethod"><rect fill="#F1F1F1" height="48" id="IntegrityMethod" rx="2.5" ry="2.5" style="stroke:#181818;stroke-width:0.5;" width="140" x="7" y="7"/><ellipse cx="22" cy="23" fill="#ADD1B2" rx="11" ry="11" style="stroke:#181818;stroke-width:1.0;"/><path d="M21.7969,29.7344 Q19.3125,29.7344 17.9844,28.0938 Q16.6719,26.4219 16.6719,23.3125 Q16.6719,20.1875 17.9844,18.5313 Q19.3125,16.875 21.7969,16.875 Q22.5156,16.875 23.1719,17.0313 Q23.8125,17.1875 24.375,17.4844 L24.375,20.2031 Q24.0156,19.8594 23.7188,19.6719 Q23.4219,19.4688 23.1563,19.3438 Q22.8438,19.2031 22.5313,19.1406 Q22.2344,19.0781 21.9219,19.0781 Q20.5938,19.0781 19.9063,20.1406 Q19.2188,21.2344 19.2188,23.3125 Q19.2188,25.4063 19.9063,26.4688 Q20.5938,27.5469 21.9219,27.5469 Q22.5625,27.5469 23.1563,27.2656 Q23.4531,27.1406 23.7344,26.9531 Q24.0313,26.75 24.375,26.4219 L24.375,29.1406 Q23.7969,29.4375 23.1563,29.5938 Q22.5156,29.7344 21.7969,29.7344 Z " fill="#000000"/><text fill="#000000" font-family="sans-serif" font-size="14" lengthAdjust="spacing" textLength="108" x="36" y="28.432">IntegrityMethod</text><line style="stroke:#181818;stroke-width:0.5;" x1="8" x2="146" y1="39" y2="39"/><line style="stroke:#181818;stroke-width:0.5;" x1="8" x2="146" y1="47" y2="47"/></g><!--class HashAlgorithm--><g id="elem_HashAlgorithm"><rect fill="#F1F1F1" height="48" id="HashAlgorithm" rx="2.5" ry="2.5" style="stroke:#181818;stroke-width:0.5;" width="129" x="182.5" y="7"/><ellipse cx="197.5" cy="23" fill="#ADD1B2" rx="11" ry="11" style="stroke:#181818;stroke-width:1.0;"/><path d="M197.2969,29.7344 Q194.8125,29.7344 193.4844,28.0938 Q192.1719,26.4219 192.1719,23.3125 Q192.1719,20.1875 193.4844,18.5313 Q194.8125,16.875 197.2969,16.875 Q198.0156,16.875 198.6719,17.0313 Q199.3125,17.1875 199.875,17.4844 L199.875,20.2031 Q199.5156,19.8594 199.2188,19.6719 Q198.9219,19.4688 198.6563,19.3438 Q198.3438,19.2031 198.0313,19.1406 Q197.7344,19.0781 197.4219,19.0781 Q196.0938,19.0781 195.4063,20.1406 Q194.7188,21.2344 194.7188,23.3125 Q194.7188,25.4063 195.4063,26.4688 Q196.0938,27.5469 197.4219,27.5469 Q198.0625,27.5469 198.6563,27.2656 Q198.9531,27.1406 199.2344,26.9531 Q199.5313,26.75 199.875,26.4219 L199.875,29.1406 Q199.2969,29.4375 198.6563,29.5938 Q198.0156,29.7344 197.2969,29.7344 Z " fill="#000000"/><text fill="#000000" font-family="sans-serif" font-size="14" lengthAdjust="spacing" textLength="97" x="211.5" y="28.432">HashAlgorithm</text><line style="stroke:#181818;stroke-width:0.5;" x1="183.5" x2="310.5" y1="39" y2="39"/><line style="stroke:#181818;stroke-width:0.5;" x1="183.5" x2="310.5" y1="47" y2="47"/></g><!--link IntegrityMethod to Hash--><g id="link_IntegrityMethod_Hash"><path codeLine="20" d="M88.68,55.22 C94.35,66.5 101.61,80.92 109.32,96.25 " fill="none" id="IntegrityMethod-to-Hash" style="stroke:#181818;stroke-width:1.0;"/><polygon fill="none" points="115.47,92.9,118.2,113.91,102.96,99.19,115.47,92.9" style="stroke:#181818;stroke-width:1.0;"/></g><!--reverse link HashAlgorithm to Hash--><g id="link_HashAlgorithm_Hash"><path codeLine="21" d="M255.27,61.42 C271.14,120.72 301.19,249 264,249 " fill="none" id="HashAlgorithm-backto-Hash" style="stroke:#181818;stroke-width:1.0;"/><polygon fill="#181818" points="253.99,56.68,252.4941,66.4146,255.3032,61.5045,260.2133,64.3135,253.99,56.68" style="stroke:#181818;stroke-width:1.0;"/></g><!--SRC=[NLBBRjmm3BphAmYVMY1sxel50W5wQ0v53YbwfsNQ4YfBgYWrTH__NjBURP48WWo9CyCXQHkG6JuYE_XbXW5MgZXXHHW60xAUssWLyZJ32HvZfQNukdsYwjAq0oAk925LK7ukALEfdlYcW659md7hVdE2-uAXAUS7JoUknSV5_34nLOBY5rSXpOVSURmyjtN5iftlnujvW1Mh8pcynH0saDEsW9KcA9GBCSKgmHHL0M4fgMKHrvkMDAZW1s9RV5RKLLGTWUSt1EkmeArKF4iwXXRzDp5T4uW5ISSjx4Onvx1f1VZAtV-g1OzLOfbt4pkdZBuMAGlO_zmr4UJ57Bs0Tvf1NRq7ZDDXBKNgNt23kKMhtkyEMSzt4hmzmelprXaXPFL-xPAFCo7xCUoPVFmkundWinEOR9lMDKM1DPOspga8uZfaOntPhwyQQ4WCwQHCz-PVwA3lVr-Wqy5rPlyyt5hGmRdlZz3fzAyntLy0]--></g></svg>