<?xml version="1.0" encoding="us-ascii" standalone="no"?><svg xmlns="http://www.w3.org/2000/svg" xmlns:xlink="http://www.w3.org/1999/xlink" contentStyleType="text/css" height="517px" preserveAspectRatio="none" style="width:830px;height:517px;background:#FFFFFF;" version="1.1" viewBox="0 0 830 517" width="830px" zoomAndPan="magnify"><defs/><g><!--class Hash--><g id="elem_Hash"><rect codeLine="1" fill="#F1F1F1" height="162.4075" id="Hash" rx="2.5" ry="2.5" style="stroke:#181818;stroke-width:0.5;" width="203" x="451.5" y="348"/><ellipse cx="532.25" cy="364" fill="#ADD1B2" rx="11" ry="11" style="stroke:#181818;stroke-width:1.0;"/><path d="M532.0469,370.7344 Q529.5625,370.7344 528.2344,369.0938 Q526.9219,367.4219 526.9219,364.3125 Q526.9219,361.1875 528.2344,359.5313 Q529.5625,357.875 532.0469,357.875 Q532.7656,357.875 533.4219,358.0313 Q534.0625,358.1875 534.625,358.4844 L534.625,361.2031 Q534.2656,360.8594 533.9688,360.6719 Q533.6719,360.4688 533.4063,360.3438 Q533.0938,360.2031 532.7813,360.1406 Q532.4844,360.0781 532.1719,360.0781 Q530.8438,360.0781 530.1563,361.1406 Q529.4688,362.2344 529.4688,364.3125 Q529.4688,366.4063 530.1563,367.4688 Q530.8438,368.5469 532.1719,368.5469 Q532.8125,368.5469 533.4063,368.2656 Q533.7031,368.1406 533.9844,367.9531 Q534.2813,367.75 534.625,367.4219 L534.625,370.1406 Q534.0469,370.4375 533.4063,370.5938 Q532.7656,370.7344 532.0469,370.7344 Z " fill="#000000"/><text fill="#000000" font-family="sans-serif" font-size="14" lengthAdjust="spacing" textLength="33" x="552.75" y="369.432">Hash</text><line style="stroke:#181818;stroke-width:0.5;" x1="452.5" x2="653.5" y1="380" y2="380"/><text fill="#000000" font-family="sans-serif" font-size="14" lengthAdjust="spacing" textLength="191" x="457.5" y="422.0339">SubclassOf : IntegrityMethod</text><text fill="#000000" font-family="sans-serif" font-size="14" lengthAdjust="spacing" textLength="81" x="457.5" y="441.1018">name : Hash</text><line style="stroke:#181818;stroke-width:1.0;stroke-dasharray:1.0,2.0;" x1="452.5" x2="520.5" y1="397.534" y2="397.534"/><text fill="#000000" font-family="sans-serif" font-size="14" lengthAdjust="spacing" textLength="65" x="520.5" y="402.4659">metadata</text><line style="stroke:#181818;stroke-width:1.0;stroke-dasharray:1.0,2.0;" x1="585.5" x2="653.5" y1="397.534" y2="397.534"/><text fill="#000000" font-family="sans-serif" font-size="14" lengthAdjust="spacing" textLength="63" x="457.5" y="483.2376">algorithm</text><text fill="#000000" font-family="sans-serif" font-size="14" lengthAdjust="spacing" textLength="139" x="457.5" y="502.3055">hashValue : xsd:string</text><line style="stroke:#181818;stroke-width:1.0;stroke-dasharray:1.0,2.0;" x1="452.5" x2="519.5" y1="458.7377" y2="458.7377"/><text fill="#000000" font-family="sans-serif" font-size="14" lengthAdjust="spacing" textLength="67" x="519.5" y="463.6697">properties</text><line style="stroke:#181818;stroke-width:1.0;stroke-dasharray:1.0,2.0;" x1="586.5" x2="653.5" y1="458.7377" y2="458.7377"/></g><g id="elem_GMN3"><path d="M6,115 L6,284.3541 A0,0 0 0 0 6,284.3541 L343,284.3541 L443.51,351.59 L351,284.3541 L448,284.3541 A0,0 0 0 0 448,284.3541 L448,125 L438,115 L6,115 A0,0 0 0 0 6,115 " fill="#FEFFDD" style="stroke:#181818;stroke-width:0.5;"/><path d="M438,115 L438,125 L448,125 L438,115 " fill="#FEFFDD" style="stroke:#181818;stroke-width:0.5;"/><text fill="#000000" font-family="sans-serif" font-size="13" font-weight="bold" lengthAdjust="spacing" textLength="62" x="12" y="133.897">Summary</text><text fill="#000000" font-family="sans-serif" font-size="13" lengthAdjust="spacing" textLength="390" x="12" y="151.603">A mathematically calculated representation of a grouping of data.</text><text fill="#000000" font-family="sans-serif" font-size="13" font-weight="bold" lengthAdjust="spacing" textLength="81" x="12" y="169.309">Description</text><text fill="#000000" font-family="sans-serif" font-size="13" lengthAdjust="spacing" textLength="421" x="12" y="187.0151">A hash is a grouping of characteristics unique to the result of applying</text><text fill="#000000" font-family="sans-serif" font-size="13" lengthAdjust="spacing" textLength="381" x="12" y="204.7211">a mathematical algorithm that maps data of arbitrary size to a bit</text><text fill="#000000" font-family="sans-serif" font-size="13" lengthAdjust="spacing" textLength="403" x="12" y="222.4271">string (the hash) and is a one-way function, that is, a function which</text><text fill="#000000" font-family="sans-serif" font-size="13" lengthAdjust="spacing" textLength="407" x="12" y="240.1331">is practically infeasible to invert. This is commonly used for integrity</text><text fill="#000000" font-family="sans-serif" font-size="13" lengthAdjust="spacing" textLength="102" x="12" y="257.8391">checking of data.</text><text fill="#000000" font-family="sans-serif" font-size="13" lengthAdjust="spacing" textLength="3" x="12" y="275.5451">&#160;</text></g><!--class IntegrityMethod--><g id="elem_IntegrityMethod"><rect fill="#F1F1F1" height="48" id="IntegrityMethod" rx="2.5" ry="2.5" style="stroke:#181818;stroke-width:0.5;" width="140" x="483" y="175.5"/><ellipse cx="498" cy="191.5" fill="#ADD1B2" rx="11" ry="11" style="stroke:#181818;stroke-width:1.0;"/><path d="M497.7969,198.2344 Q495.3125,198.2344 493.9844,196.5938 Q492.6719,194.9219 492.6719,191.8125 Q492.6719,188.6875 493.9844,187.0313 Q495.3125,185.375 497.7969,185.375 Q498.5156,185.375 499.1719,185.5313 Q499.8125,185.6875 500.375,185.9844 L500.375,188.7031 Q500.0156,188.3594 499.7188,188.1719 Q499.4219,187.9688 499.1563,187.8438 Q498.8438,187.7031 498.5313,187.6406 Q498.2344,187.5781 497.9219,187.5781 Q496.5938,187.5781 495.9063,188.6406 Q495.2188,189.7344 495.2188,191.8125 Q495.2188,193.9063 495.9063,194.9688 Q496.5938,196.0469 497.9219,196.0469 Q498.5625,196.0469 499.1563,195.7656 Q499.4531,195.6406 499.7344,195.4531 Q500.0313,195.25 500.375,194.9219 L500.375,197.6406 Q499.7969,197.9375 499.1563,198.0938 Q498.5156,198.2344 497.7969,198.2344 Z " fill="#000000"/><text fill="#000000" font-family="sans-serif" font-size="14" lengthAdjust="spacing" textLength="108" x="512" y="196.932">IntegrityMethod</text><line style="stroke:#181818;stroke-width:0.5;" x1="484" x2="622" y1="207.5" y2="207.5"/><line style="stroke:#181818;stroke-width:0.5;" x1="484" x2="622" y1="215.5" y2="215.5"/></g><!--class HashAlgorithm--><g id="elem_HashAlgorithm"><rect fill="#F1F1F1" height="48" id="HashAlgorithm" rx="2.5" ry="2.5" style="stroke:#181818;stroke-width:0.5;" width="129" x="611.5" y="7"/><ellipse cx="626.5" cy="23" fill="#ADD1B2" rx="11" ry="11" style="stroke:#181818;stroke-width:1.0;"/><path d="M626.2969,29.7344 Q623.8125,29.7344 622.4844,28.0938 Q621.1719,26.4219 621.1719,23.3125 Q621.1719,20.1875 622.4844,18.5313 Q623.8125,16.875 626.2969,16.875 Q627.0156,16.875 627.6719,17.0313 Q628.3125,17.1875 628.875,17.4844 L628.875,20.2031 Q628.5156,19.8594 628.2188,19.6719 Q627.9219,19.4688 627.6563,19.3438 Q627.3438,19.2031 627.0313,19.1406 Q626.7344,19.0781 626.4219,19.0781 Q625.0938,19.0781 624.4063,20.1406 Q623.7188,21.2344 623.7188,23.3125 Q623.7188,25.4063 624.4063,26.4688 Q625.0938,27.5469 626.4219,27.5469 Q627.0625,27.5469 627.6563,27.2656 Q627.9531,27.1406 628.2344,26.9531 Q628.5313,26.75 628.875,26.4219 L628.875,29.1406 Q628.2969,29.4375 627.6563,29.5938 Q627.0156,29.7344 626.2969,29.7344 Z " fill="#000000"/><text fill="#000000" font-family="sans-serif" font-size="14" lengthAdjust="spacing" textLength="97" x="640.5" y="28.432">HashAlgorithm</text><line style="stroke:#181818;stroke-width:0.5;" x1="612.5" x2="739.5" y1="39" y2="39"/><line style="stroke:#181818;stroke-width:0.5;" x1="612.5" x2="739.5" y1="47" y2="47"/></g><!--reverse link IntegrityMethod to Hash--><g id="link_IntegrityMethod_Hash"><path codeLine="20" d="M553,245.24 C553,273.41 553,310.67 553,344.19 " fill="none" id="IntegrityMethod-backto-Hash" style="stroke:#181818;stroke-width:4.0;"/><polygon fill="none" points="546,245.5,553,225.5,560,245.5,546,245.5" style="stroke:#181818;stroke-width:4.0;"/></g><!--reverse link HashAlgorithm to Hash--><g id="link_HashAlgorithm_Hash"><path codeLine="21" d="M686.96,61.29 C722.58,160.55 823.4,478 656,478 " fill="none" id="HashAlgorithm-backto-Hash" style="stroke:#181818;stroke-width:1.0;"/><polygon fill="#181818" points="685.33,56.77,684.6297,66.5939,687.0307,61.4719,692.1527,63.8728,685.33,56.77" style="stroke:#181818;stroke-width:1.0;"/></g><!--SRC=[NLAnRjmm3Dtr5OId5eZTfTFX4Y10XdGeEgJe4dIWPVeaH9PKKMhgDFdtaBwx5ebXo93utkFJesr0PhX5Tl3N30CiL772YZ0C1kIvQwDLoBSPTl0bLZeKNzUlL5sQDa34XQIa2ihF9MKgrHEV5J0Sad3SiksSu7vWQChvmzEEQ_7nO5vCJ9MWfWnfFehjnwkxjYnOrlsdySfSmuBLaIpUOWWho6fRm4eJ5Cg5c6ALOeggW70egMMHrfrUQ5316s9RV5RKILJzWETt1EkmeArKF4ixXXRzhwRsG2n8EswXRcro3glwnpVk_jzPy5YbbdapiN7Aw6kHQm7xfqqJGKxCCGdue1tKrKV0E1sjfKZz8wumjsZL-yLHrlE55C-7yEYyTKO8MRsVKl9n9cG_XgsJZxzbE0DyTmAJrwPbIL5WZIN6EHL1d4Pih2Fxy2P0Gs98vsIwTtz21_ld_hwAWOT8p9UVV_RGwHGxitskpta8iEzFjTtkNqpTAm00]--></g></svg>