<?xml version="1.0" encoding="us-ascii" standalone="no"?><svg xmlns="http://www.w3.org/2000/svg" xmlns:xlink="http://www.w3.org/1999/xlink" contentStyleType="text/css" height="337px" preserveAspectRatio="none" style="width:539px;height:337px;background:#FFFFFF;" version="1.1" viewBox="0 0 539 337" width="539px" zoomAndPan="magnify"><defs/><g><!--class Identity--><g id="elem_Identity"><rect codeLine="1" fill="#F1F1F1" height="148.8735" id="Identity" rx="2.5" ry="2.5" style="stroke:#181818;stroke-width:0.5;" width="172" x="270.5" y="182"/><ellipse cx="326.75" cy="198" fill="#ADD1B2" rx="11" ry="11" style="stroke:#181818;stroke-width:1.0;"/><path d="M326.5469,204.7344 Q324.0625,204.7344 322.7344,203.0938 Q321.4219,201.4219 321.4219,198.3125 Q321.4219,195.1875 322.7344,193.5313 Q324.0625,191.875 326.5469,191.875 Q327.2656,191.875 327.9219,192.0313 Q328.5625,192.1875 329.125,192.4844 L329.125,195.2031 Q328.7656,194.8594 328.4688,194.6719 Q328.1719,194.4688 327.9063,194.3438 Q327.5938,194.2031 327.2813,194.1406 Q326.9844,194.0781 326.6719,194.0781 Q325.3438,194.0781 324.6563,195.1406 Q323.9688,196.2344 323.9688,198.3125 Q323.9688,200.4063 324.6563,201.4688 Q325.3438,202.5469 326.6719,202.5469 Q327.3125,202.5469 327.9063,202.2656 Q328.2031,202.1406 328.4844,201.9531 Q328.7813,201.75 329.125,201.4219 L329.125,204.1406 Q328.5469,204.4375 327.9063,204.5938 Q327.2656,204.7344 326.5469,204.7344 Z " fill="#000000"/><text fill="#000000" font-family="sans-serif" font-size="14" lengthAdjust="spacing" textLength="51" x="347.25" y="203.432">Identity</text><line style="stroke:#181818;stroke-width:0.5;" x1="271.5" x2="441.5" y1="214" y2="214"/><text fill="#000000" font-family="sans-serif" font-size="14" lengthAdjust="spacing" textLength="160" x="276.5" y="256.0339">Instantiability : Concrete</text><text fill="#000000" font-family="sans-serif" font-size="14" lengthAdjust="spacing" textLength="121" x="276.5" y="275.1018">SubclassOf : Entity</text><text fill="#000000" font-family="sans-serif" font-size="14" lengthAdjust="spacing" textLength="99" x="276.5" y="294.1697">name : Identity</text><line style="stroke:#181818;stroke-width:1.0;stroke-dasharray:1.0,2.0;" x1="271.5" x2="324" y1="231.534" y2="231.534"/><text fill="#000000" font-family="sans-serif" font-size="14" lengthAdjust="spacing" textLength="65" x="324" y="236.4659">metadata</text><line style="stroke:#181818;stroke-width:1.0;stroke-dasharray:1.0,2.0;" x1="389" x2="441.5" y1="231.534" y2="231.534"/><line style="stroke:#181818;stroke-width:1.0;stroke-dasharray:1.0,2.0;" x1="271.5" x2="323" y1="311.8056" y2="311.8056"/><text fill="#000000" font-family="sans-serif" font-size="14" lengthAdjust="spacing" textLength="67" x="323" y="316.7376">properties</text><line style="stroke:#181818;stroke-width:1.0;stroke-dasharray:1.0,2.0;" x1="390" x2="441.5" y1="311.8056" y2="311.8056"/></g><g id="elem_GMN3"><path d="M6,6 L6,122.2361 A0,0 0 0 0 6,122.2361 L254.69,122.2361 L302.2,181.62 L262.69,122.2361 L427,122.2361 A0,0 0 0 0 427,122.2361 L427,16 L417,6 L6,6 A0,0 0 0 0 6,6 " fill="#FEFFDD" style="stroke:#181818;stroke-width:0.5;"/><path d="M417,6 L417,16 L427,16 L417,6 " fill="#FEFFDD" style="stroke:#181818;stroke-width:0.5;"/><text fill="#000000" font-family="sans-serif" font-size="13" font-weight="bold" lengthAdjust="spacing" textLength="62" x="12" y="24.897">Summary</text><text fill="#000000" font-family="sans-serif" font-size="13" lengthAdjust="spacing" textLength="175" x="12" y="42.603">An individual or organization.</text><text fill="#000000" font-family="sans-serif" font-size="13" font-weight="bold" lengthAdjust="spacing" textLength="81" x="12" y="60.309">Description</text><text fill="#000000" font-family="sans-serif" font-size="13" lengthAdjust="spacing" textLength="400" x="12" y="78.0151">An Identity is a grouping of identifying characteristics unique to an</text><text fill="#000000" font-family="sans-serif" font-size="13" lengthAdjust="spacing" textLength="156" x="12" y="95.7211">individual or organization.</text><text fill="#000000" font-family="sans-serif" font-size="13" lengthAdjust="spacing" textLength="3" x="12" y="113.4271">&#160;</text></g><!--class Entity--><g id="elem_Entity"><rect fill="#F1F1F1" height="48" id="Entity" rx="2.5" ry="2.5" style="stroke:#181818;stroke-width:0.5;" width="70" x="462.5" y="40"/><ellipse cx="477.5" cy="56" fill="#ADD1B2" rx="11" ry="11" style="stroke:#181818;stroke-width:1.0;"/><path d="M477.2969,62.7344 Q474.8125,62.7344 473.4844,61.0938 Q472.1719,59.4219 472.1719,56.3125 Q472.1719,53.1875 473.4844,51.5313 Q474.8125,49.875 477.2969,49.875 Q478.0156,49.875 478.6719,50.0313 Q479.3125,50.1875 479.875,50.4844 L479.875,53.2031 Q479.5156,52.8594 479.2188,52.6719 Q478.9219,52.4688 478.6563,52.3438 Q478.3438,52.2031 478.0313,52.1406 Q477.7344,52.0781 477.4219,52.0781 Q476.0938,52.0781 475.4063,53.1406 Q474.7188,54.2344 474.7188,56.3125 Q474.7188,58.4063 475.4063,59.4688 Q476.0938,60.5469 477.4219,60.5469 Q478.0625,60.5469 478.6563,60.2656 Q478.9531,60.1406 479.2344,59.9531 Q479.5313,59.75 479.875,59.4219 L479.875,62.1406 Q479.2969,62.4375 478.6563,62.5938 Q478.0156,62.7344 477.2969,62.7344 Z " fill="#000000"/><text fill="#000000" font-family="sans-serif" font-size="14" lengthAdjust="spacing" textLength="38" x="491.5" y="61.432">Entity</text><line style="stroke:#181818;stroke-width:0.5;" x1="463.5" x2="531.5" y1="72" y2="72"/><line style="stroke:#181818;stroke-width:0.5;" x1="463.5" x2="531.5" y1="80" y2="80"/></g><!--reverse link Entity to Identity--><g id="link_Entity_Identity"><path codeLine="16" d="M467.6,105.4 C451.18,127.58 430.3,155.79 411.09,181.75 " fill="none" id="Entity-backto-Identity" style="stroke:#181818;stroke-width:1.0;"/><polygon fill="none" points="461.79,101.49,479.31,89.58,473.04,109.82,461.79,101.49" style="stroke:#181818;stroke-width:1.0;"/></g><!--SRC=[VOzDJiGm38NtEONL_OGzgaP2m69MBEO4Rk8MIwrJ4cUaydDtugB2ZiWR-xrypmupbWANIAAi6tmuxs4XnOYAuBs3zYvI59kE0yzckeV7926JqYvVwn2CyZ8svNddx7F1XThaO1jvpMcbh4p5s5zEaX9eMY6DVxv-E5_hic3U-hlXx1u4M2BVE5QS8ULM4mg_et8IR-udAY7pQltnu_SWBe0mvLHNbibYU5V6pThmYXc3KkQY70fKuRTg2m6A-o_KaKImvLttSt07_UVf1DsHstq3]--></g></svg>