<?xml version="1.0" encoding="us-ascii" standalone="no"?><svg xmlns="http://www.w3.org/2000/svg" xmlns:xlink="http://www.w3.org/1999/xlink" contentStyleType="text/css" height="301px" preserveAspectRatio="none" style="width:171px;height:301px;background:#FFFFFF;" version="1.1" viewBox="0 0 171 301" width="171px" zoomAndPan="magnify"><defs/><g><!--class MediaType--><g id="elem_MediaType"><rect codeLine="1" fill="#F1F1F1" height="129.8056" id="MediaType" rx="2.5" ry="2.5" style="stroke:#181818;stroke-width:0.5;" width="157" x="7" y="165"/><ellipse cx="45.85" cy="181" fill="#ADD1B2" rx="11" ry="11" style="stroke:#181818;stroke-width:1.0;"/><path d="M45.6469,187.7344 Q43.1625,187.7344 41.8344,186.0938 Q40.5219,184.4219 40.5219,181.3125 Q40.5219,178.1875 41.8344,176.5313 Q43.1625,174.875 45.6469,174.875 Q46.3656,174.875 47.0219,175.0313 Q47.6625,175.1875 48.225,175.4844 L48.225,178.2031 Q47.8656,177.8594 47.5688,177.6719 Q47.2719,177.4688 47.0063,177.3438 Q46.6938,177.2031 46.3813,177.1406 Q46.0844,177.0781 45.7719,177.0781 Q44.4438,177.0781 43.7563,178.1406 Q43.0688,179.2344 43.0688,181.3125 Q43.0688,183.4063 43.7563,184.4688 Q44.4438,185.5469 45.7719,185.5469 Q46.4125,185.5469 47.0063,185.2656 Q47.3031,185.1406 47.5844,184.9531 Q47.8813,184.75 48.225,184.4219 L48.225,187.1406 Q47.6469,187.4375 47.0063,187.5938 Q46.3656,187.7344 45.6469,187.7344 Z " fill="#000000"/><text fill="#000000" font-family="sans-serif" font-size="14" lengthAdjust="spacing" textLength="72" x="65.15" y="186.432">MediaType</text><line style="stroke:#181818;stroke-width:0.5;" x1="8" x2="163" y1="197" y2="197"/><text fill="#000000" font-family="sans-serif" font-size="14" lengthAdjust="spacing" textLength="145" x="13" y="239.0339">SubclassOf : xsd:string</text><text fill="#000000" font-family="sans-serif" font-size="14" lengthAdjust="spacing" textLength="120" x="13" y="258.1018">name : MediaType</text><line style="stroke:#181818;stroke-width:1.0;stroke-dasharray:1.0,2.0;" x1="8" x2="53" y1="214.534" y2="214.534"/><text fill="#000000" font-family="sans-serif" font-size="14" lengthAdjust="spacing" textLength="65" x="53" y="219.4659">metadata</text><line style="stroke:#181818;stroke-width:1.0;stroke-dasharray:1.0,2.0;" x1="118" x2="163" y1="214.534" y2="214.534"/><line style="stroke:#181818;stroke-width:1.0;stroke-dasharray:1.0,2.0;" x1="8" x2="52" y1="275.7377" y2="275.7377"/><text fill="#000000" font-family="sans-serif" font-size="14" lengthAdjust="spacing" textLength="67" x="52" y="280.6697">properties</text><line style="stroke:#181818;stroke-width:1.0;stroke-dasharray:1.0,2.0;" x1="119" x2="163" y1="275.7377" y2="275.7377"/></g><g id="elem_GMN3"><path d="M34.5,6 L34.5,104.5301 A0,0 0 0 0 34.5,104.5301 L81.5,104.5301 L85.5,164.75 L89.5,104.5301 L136.5,104.5301 A0,0 0 0 0 136.5,104.5301 L136.5,16 L126.5,6 L34.5,6 A0,0 0 0 0 34.5,6 " fill="#FEFFDD" style="stroke:#181818;stroke-width:0.5;"/><path d="M126.5,6 L126.5,16 L136.5,16 L126.5,6 " fill="#FEFFDD" style="stroke:#181818;stroke-width:0.5;"/><text fill="#000000" font-family="sans-serif" font-size="13" font-weight="bold" lengthAdjust="spacing" textLength="62" x="40.5" y="24.897">Summary</text><text fill="#000000" font-family="sans-serif" font-size="13" lengthAdjust="spacing" textLength="38" x="40.5" y="42.603">TODO</text><text fill="#000000" font-family="sans-serif" font-size="13" font-weight="bold" lengthAdjust="spacing" textLength="81" x="40.5" y="60.309">Description</text><text fill="#000000" font-family="sans-serif" font-size="13" lengthAdjust="spacing" textLength="38" x="40.5" y="78.0151">TODO</text><text fill="#000000" font-family="sans-serif" font-size="13" lengthAdjust="spacing" textLength="3" x="40.5" y="95.7211">&#160;</text></g><!--SRC=[JOmn3i8m40Hxl-9UOFeeIfKMkKW-SBOlo1BsMRwBH8JuEp45iENixeGxYi2LOiBrg0HFOoraKeoe2DOQEBFiFlITss20XyH1jALo-tG5CvtqQ-Z_shXIqqJI3IzJM0cKA_3sDnpzjEmvOpl6Yv_CwcRNsKmIMggQkFoueHAXQzu0]--></g></svg>