<?xml version="1.0" encoding="us-ascii" standalone="no"?><svg xmlns="http://www.w3.org/2000/svg" xmlns:xlink="http://www.w3.org/1999/xlink" contentStyleType="text/css" height="355px" preserveAspectRatio="none" style="width:589px;height:355px;background:#FFFFFF;" version="1.1" viewBox="0 0 589 355" width="589px" zoomAndPan="magnify"><defs/><g><!--class Organization--><g id="elem_Organization"><rect codeLine="1" fill="#F1F1F1" height="148.8735" id="Organization" rx="2.5" ry="2.5" style="stroke:#181818;stroke-width:0.5;" width="172" x="302" y="200"/><ellipse cx="342.2" cy="216" fill="#ADD1B2" rx="11" ry="11" style="stroke:#181818;stroke-width:1.0;"/><path d="M341.9969,222.7344 Q339.5125,222.7344 338.1844,221.0938 Q336.8719,219.4219 336.8719,216.3125 Q336.8719,213.1875 338.1844,211.5313 Q339.5125,209.875 341.9969,209.875 Q342.7156,209.875 343.3719,210.0313 Q344.0125,210.1875 344.575,210.4844 L344.575,213.2031 Q344.2156,212.8594 343.9188,212.6719 Q343.6219,212.4688 343.3563,212.3438 Q343.0438,212.2031 342.7313,212.1406 Q342.4344,212.0781 342.1219,212.0781 Q340.7938,212.0781 340.1063,213.1406 Q339.4188,214.2344 339.4188,216.3125 Q339.4188,218.4063 340.1063,219.4688 Q340.7938,220.5469 342.1219,220.5469 Q342.7625,220.5469 343.3563,220.2656 Q343.6531,220.1406 343.9344,219.9531 Q344.2313,219.75 344.575,219.4219 L344.575,222.1406 Q343.9969,222.4375 343.3563,222.5938 Q342.7156,222.7344 341.9969,222.7344 Z " fill="#000000"/><text fill="#000000" font-family="sans-serif" font-size="14" lengthAdjust="spacing" textLength="84" x="361.8" y="221.432">Organization</text><line style="stroke:#181818;stroke-width:0.5;" x1="303" x2="473" y1="232" y2="232"/><text fill="#000000" font-family="sans-serif" font-size="14" lengthAdjust="spacing" textLength="160" x="308" y="274.0339">Instantiability : Concrete</text><text fill="#000000" font-family="sans-serif" font-size="14" lengthAdjust="spacing" textLength="134" x="308" y="293.1018">SubclassOf : Identity</text><text fill="#000000" font-family="sans-serif" font-size="14" lengthAdjust="spacing" textLength="132" x="308" y="312.1697">name : Organization</text><line style="stroke:#181818;stroke-width:1.0;stroke-dasharray:1.0,2.0;" x1="303" x2="355.5" y1="249.534" y2="249.534"/><text fill="#000000" font-family="sans-serif" font-size="14" lengthAdjust="spacing" textLength="65" x="355.5" y="254.4659">metadata</text><line style="stroke:#181818;stroke-width:1.0;stroke-dasharray:1.0,2.0;" x1="420.5" x2="473" y1="249.534" y2="249.534"/><line style="stroke:#181818;stroke-width:1.0;stroke-dasharray:1.0,2.0;" x1="303" x2="354.5" y1="329.8056" y2="329.8056"/><text fill="#000000" font-family="sans-serif" font-size="14" lengthAdjust="spacing" textLength="67" x="354.5" y="334.7376">properties</text><line style="stroke:#181818;stroke-width:1.0;stroke-dasharray:1.0,2.0;" x1="421.5" x2="473" y1="329.8056" y2="329.8056"/></g><g id="elem_GMN3"><path d="M6,6 L6,139.9421 A0,0 0 0 0 6,139.9421 L281.95,139.9421 L331.48,199.8 L289.95,139.9421 L464,139.9421 A0,0 0 0 0 464,139.9421 L464,16 L454,6 L6,6 A0,0 0 0 0 6,6 " fill="#FEFFDD" style="stroke:#181818;stroke-width:0.5;"/><path d="M454,6 L454,16 L464,16 L454,6 " fill="#FEFFDD" style="stroke:#181818;stroke-width:0.5;"/><text fill="#000000" font-family="sans-serif" font-size="13" font-weight="bold" lengthAdjust="spacing" textLength="62" x="12" y="24.897">Summary</text><text fill="#000000" font-family="sans-serif" font-size="13" lengthAdjust="spacing" textLength="429" x="12" y="42.603">A group of people who work together in an organized way for a shared</text><text fill="#000000" font-family="sans-serif" font-size="13" lengthAdjust="spacing" textLength="55" x="12" y="60.309">purpose.</text><text fill="#000000" font-family="sans-serif" font-size="13" font-weight="bold" lengthAdjust="spacing" textLength="81" x="12" y="78.0151">Description</text><text fill="#000000" font-family="sans-serif" font-size="13" lengthAdjust="spacing" textLength="437" x="12" y="95.7211">An Organization is a group of people who work together in an organized</text><text fill="#000000" font-family="sans-serif" font-size="13" lengthAdjust="spacing" textLength="159" x="12" y="113.4271">way for a shared purpose.</text><text fill="#000000" font-family="sans-serif" font-size="13" lengthAdjust="spacing" textLength="3" x="12" y="131.1331">&#160;</text></g><!--class Identity--><g id="elem_Identity"><rect fill="#F1F1F1" height="48" id="Identity" rx="2.5" ry="2.5" style="stroke:#181818;stroke-width:0.5;" width="83" x="499.5" y="49"/><ellipse cx="514.5" cy="65" fill="#ADD1B2" rx="11" ry="11" style="stroke:#181818;stroke-width:1.0;"/><path d="M514.2969,71.7344 Q511.8125,71.7344 510.4844,70.0938 Q509.1719,68.4219 509.1719,65.3125 Q509.1719,62.1875 510.4844,60.5313 Q511.8125,58.875 514.2969,58.875 Q515.0156,58.875 515.6719,59.0313 Q516.3125,59.1875 516.875,59.4844 L516.875,62.2031 Q516.5156,61.8594 516.2188,61.6719 Q515.9219,61.4688 515.6563,61.3438 Q515.3438,61.2031 515.0313,61.1406 Q514.7344,61.0781 514.4219,61.0781 Q513.0938,61.0781 512.4063,62.1406 Q511.7188,63.2344 511.7188,65.3125 Q511.7188,67.4063 512.4063,68.4688 Q513.0938,69.5469 514.4219,69.5469 Q515.0625,69.5469 515.6563,69.2656 Q515.9531,69.1406 516.2344,68.9531 Q516.5313,68.75 516.875,68.4219 L516.875,71.1406 Q516.2969,71.4375 515.6563,71.5938 Q515.0156,71.7344 514.2969,71.7344 Z " fill="#000000"/><text fill="#000000" font-family="sans-serif" font-size="14" lengthAdjust="spacing" textLength="51" x="528.5" y="70.432">Identity</text><line style="stroke:#181818;stroke-width:0.5;" x1="500.5" x2="581.5" y1="81" y2="81"/><line style="stroke:#181818;stroke-width:0.5;" x1="500.5" x2="581.5" y1="89" y2="89"/></g><!--reverse link Identity to Organization--><g id="link_Identity_Organization"><path codeLine="17" d="M510.31,114.02 C491.48,138.57 466.78,170.78 444.51,199.81 " fill="none" id="Identity-backto-Organization" style="stroke:#181818;stroke-width:4.0;"/><polygon fill="none" points="504.5,110.09,522.23,98.48,515.61,118.61,504.5,110.09" style="stroke:#181818;stroke-width:4.0;"/></g><!--SRC=[bP0_JyD03CNt-nHMzeQ52OLA29PE7JeY1YTnabCJ- -Hp58K_tvsxLA2M3Oz-p-zdknanHZXgZ-pVqRmmVBYoX8aCMpI4idIGwi3HaCrZxKTlApp0it2ZPBJ9fxbkSjAnIygXfUIqTLCO9qgzQqBE3og1r3p5JFXoB4PW4a2wMszLxq_pDA6krLszTq_GgyoRBP24aM0P11RHSvhkoGPIy0p889SKQc715JfHG8W3AhKkp1eaKfd3NoWswaDcNG1y-mqVqzo_cUul4twPZhY5VAuhVXvLGFMvUxN1DsUc61_lttPGN6zHV0C0]--></g></svg>