<?xml version="1.0" encoding="us-ascii" standalone="no"?><svg xmlns="http://www.w3.org/2000/svg" xmlns:xlink="http://www.w3.org/1999/xlink" contentStyleType="text/css" height="270px" preserveAspectRatio="none" style="width:679px;height:270px;background:#FFFFFF;" version="1.1" viewBox="0 0 679 270" width="679px" zoomAndPan="magnify"><defs/><g><!--class Organization--><g id="elem_Organization"><rect codeLine="1" fill="#F1F1F1" height="148.8735" id="Organization" rx="2.5" ry="2.5" style="stroke:#181818;stroke-width:0.5;" width="172" x="7" y="115"/><ellipse cx="47.2" cy="131" fill="#ADD1B2" rx="11" ry="11" style="stroke:#181818;stroke-width:1.0;"/><path d="M46.9969,137.7344 Q44.5125,137.7344 43.1844,136.0938 Q41.8719,134.4219 41.8719,131.3125 Q41.8719,128.1875 43.1844,126.5313 Q44.5125,124.875 46.9969,124.875 Q47.7156,124.875 48.3719,125.0313 Q49.0125,125.1875 49.575,125.4844 L49.575,128.2031 Q49.2156,127.8594 48.9188,127.6719 Q48.6219,127.4688 48.3563,127.3438 Q48.0438,127.2031 47.7313,127.1406 Q47.4344,127.0781 47.1219,127.0781 Q45.7938,127.0781 45.1063,128.1406 Q44.4188,129.2344 44.4188,131.3125 Q44.4188,133.4063 45.1063,134.4688 Q45.7938,135.5469 47.1219,135.5469 Q47.7625,135.5469 48.3563,135.2656 Q48.6531,135.1406 48.9344,134.9531 Q49.2313,134.75 49.575,134.4219 L49.575,137.1406 Q48.9969,137.4375 48.3563,137.5938 Q47.7156,137.7344 46.9969,137.7344 Z " fill="#000000"/><text fill="#000000" font-family="sans-serif" font-size="14" lengthAdjust="spacing" textLength="84" x="66.8" y="136.432">Organization</text><line style="stroke:#181818;stroke-width:0.5;" x1="8" x2="178" y1="147" y2="147"/><text fill="#000000" font-family="sans-serif" font-size="14" lengthAdjust="spacing" textLength="160" x="13" y="189.0339">Instantiability : Concrete</text><text fill="#000000" font-family="sans-serif" font-size="14" lengthAdjust="spacing" textLength="134" x="13" y="208.1018">SubclassOf : Identity</text><text fill="#000000" font-family="sans-serif" font-size="14" lengthAdjust="spacing" textLength="132" x="13" y="227.1697">name : Organization</text><line style="stroke:#181818;stroke-width:1.0;stroke-dasharray:1.0,2.0;" x1="8" x2="60.5" y1="164.534" y2="164.534"/><text fill="#000000" font-family="sans-serif" font-size="14" lengthAdjust="spacing" textLength="65" x="60.5" y="169.4659">metadata</text><line style="stroke:#181818;stroke-width:1.0;stroke-dasharray:1.0,2.0;" x1="125.5" x2="178" y1="164.534" y2="164.534"/><line style="stroke:#181818;stroke-width:1.0;stroke-dasharray:1.0,2.0;" x1="8" x2="59.5" y1="244.8056" y2="244.8056"/><text fill="#000000" font-family="sans-serif" font-size="14" lengthAdjust="spacing" textLength="67" x="59.5" y="249.7376">properties</text><line style="stroke:#181818;stroke-width:1.0;stroke-dasharray:1.0,2.0;" x1="126.5" x2="178" y1="244.8056" y2="244.8056"/></g><g id="elem_GMN3"><path d="M214,122.5 L214,185.5 L179.47,189.5 L214,193.5 L214,256.4421 A0,0 0 0 0 214,256.4421 L672,256.4421 A0,0 0 0 0 672,256.4421 L672,132.5 L662,122.5 L214,122.5 A0,0 0 0 0 214,122.5 " fill="#FEFFDD" style="stroke:#181818;stroke-width:0.5;"/><path d="M662,122.5 L662,132.5 L672,132.5 L662,122.5 " fill="#FEFFDD" style="stroke:#181818;stroke-width:0.5;"/><text fill="#000000" font-family="sans-serif" font-size="13" font-weight="bold" lengthAdjust="spacing" textLength="62" x="220" y="141.397">Summary</text><text fill="#000000" font-family="sans-serif" font-size="13" lengthAdjust="spacing" textLength="429" x="220" y="159.103">A group of people who work together in an organized way for a shared</text><text fill="#000000" font-family="sans-serif" font-size="13" lengthAdjust="spacing" textLength="55" x="220" y="176.809">purpose.</text><text fill="#000000" font-family="sans-serif" font-size="13" font-weight="bold" lengthAdjust="spacing" textLength="81" x="220" y="194.5151">Description</text><text fill="#000000" font-family="sans-serif" font-size="13" lengthAdjust="spacing" textLength="437" x="220" y="212.2211">An Organization is a group of people who work together in an organized</text><text fill="#000000" font-family="sans-serif" font-size="13" lengthAdjust="spacing" textLength="159" x="220" y="229.9271">way for a shared purpose.</text><text fill="#000000" font-family="sans-serif" font-size="13" lengthAdjust="spacing" textLength="3" x="220" y="247.6331">&#160;</text></g><!--class Identity--><g id="elem_Identity"><rect fill="#F1F1F1" height="48" id="Identity" rx="2.5" ry="2.5" style="stroke:#181818;stroke-width:0.5;" width="83" x="51.5" y="7"/><ellipse cx="66.5" cy="23" fill="#ADD1B2" rx="11" ry="11" style="stroke:#181818;stroke-width:1.0;"/><path d="M66.2969,29.7344 Q63.8125,29.7344 62.4844,28.0938 Q61.1719,26.4219 61.1719,23.3125 Q61.1719,20.1875 62.4844,18.5313 Q63.8125,16.875 66.2969,16.875 Q67.0156,16.875 67.6719,17.0313 Q68.3125,17.1875 68.875,17.4844 L68.875,20.2031 Q68.5156,19.8594 68.2188,19.6719 Q67.9219,19.4688 67.6563,19.3438 Q67.3438,19.2031 67.0313,19.1406 Q66.7344,19.0781 66.4219,19.0781 Q65.0938,19.0781 64.4063,20.1406 Q63.7188,21.2344 63.7188,23.3125 Q63.7188,25.4063 64.4063,26.4688 Q65.0938,27.5469 66.4219,27.5469 Q67.0625,27.5469 67.6563,27.2656 Q67.9531,27.1406 68.2344,26.9531 Q68.5313,26.75 68.875,26.4219 L68.875,29.1406 Q68.2969,29.4375 67.6563,29.5938 Q67.0156,29.7344 66.2969,29.7344 Z " fill="#000000"/><text fill="#000000" font-family="sans-serif" font-size="14" lengthAdjust="spacing" textLength="51" x="80.5" y="28.432">Identity</text><line style="stroke:#181818;stroke-width:0.5;" x1="52.5" x2="133.5" y1="39" y2="39"/><line style="stroke:#181818;stroke-width:0.5;" x1="52.5" x2="133.5" y1="47" y2="47"/></g><!--link Identity to Organization--><g id="link_Identity_Organization"><path codeLine="17" d="M93,55.43 C93,66.09 93,79.47 93,93.61 " fill="none" id="Identity-to-Organization" style="stroke:#181818;stroke-width:1.0;"/><polygon fill="none" points="100,93.13,93,113.13,86,93.13,100,93.13" style="stroke:#181818;stroke-width:1.0;"/></g><!--SRC=[bP31ReD034Jl-nKZxg7tAaAgsajEEUGB31XO5TOhhn4YRVuzRA9MIM_rqJEU9qypKaeuQa_1dycy17oviiJ4HYqPeImTjZc4P1JCK-r7RojUyIwXKJQ-oQUvRdBIiTkKGykRqzQR4cZYRVT8oFbH9RAQvvG95nV46EhxmI3TitjVLwTvcaZN_KjTkJVqAdFCjiWIHyOo21RHJvZqR0ChV005o3s5MooqeXC58GsatBeuQvJ4PGx_uDIeZvbr1uJdFdpQxlxDT7-P-6Kw3YtomwxugQh0RlTTeNW45rS0]--></g></svg>