<?xml version="1.0" encoding="us-ascii" standalone="no"?><svg xmlns="http://www.w3.org/2000/svg" xmlns:xlink="http://www.w3.org/1999/xlink" contentStyleType="text/css" height="376px" preserveAspectRatio="none" style="width:641px;height:376px;background:#FFFFFF;" version="1.1" viewBox="0 0 641 376" width="641px" zoomAndPan="magnify"><defs/><g><!--class Payload--><g id="elem_Payload"><rect codeLine="1" fill="#F1F1F1" height="200.5433" id="Payload" rx="2.5" ry="2.5" style="stroke:#181818;stroke-width:0.5;" width="168" x="231" y="169"/><ellipse cx="285.25" cy="185" fill="#A9DCDF" rx="11" ry="11" style="stroke:#181818;stroke-width:1.0;"/><path d="M283.875,178.3594 L286.8594,178.3594 L290.2188,190.75 L287.7656,190.75 L287,187.6875 L283.7188,187.6875 L282.9688,190.75 L280.5313,190.75 L283.875,178.3594 Z M286.5313,185.6719 L285.3594,180.5938 L284.2031,185.6719 L286.5313,185.6719 Z " fill="#000000"/><text fill="#000000" font-family="sans-serif" font-size="14" font-style="italic" lengthAdjust="spacing" textLength="51" x="305.75" y="190.432">Payload</text><line style="stroke:#181818;stroke-width:0.5;" x1="232" x2="398" y1="201" y2="201"/><text fill="#000000" font-family="sans-serif" font-size="14" lengthAdjust="spacing" textLength="156" x="237" y="243.0339">Instantiability : Abstract</text><text fill="#000000" font-family="sans-serif" font-size="14" lengthAdjust="spacing" textLength="116" x="237" y="262.1018">SubclassOf : none</text><text fill="#000000" font-family="sans-serif" font-size="14" lengthAdjust="spacing" textLength="100" x="237" y="281.1697">name : Payload</text><line style="stroke:#181818;stroke-width:1.0;stroke-dasharray:1.0,2.0;" x1="232" x2="282.5" y1="218.534" y2="218.534"/><text fill="#000000" font-family="sans-serif" font-size="14" lengthAdjust="spacing" textLength="65" x="282.5" y="223.4659">metadata</text><line style="stroke:#181818;stroke-width:1.0;stroke-dasharray:1.0,2.0;" x1="347.5" x2="398" y1="218.534" y2="218.534"/><text fill="#000000" font-family="sans-serif" font-size="14" lengthAdjust="spacing" textLength="81" x="237" y="323.3055">creationInfo</text><text fill="#000000" font-family="sans-serif" font-size="14" lengthAdjust="spacing" textLength="51" x="237" y="342.3734">imports</text><text fill="#000000" font-family="sans-serif" font-size="14" lengthAdjust="spacing" textLength="82" x="237" y="361.4414">namespaces</text><line style="stroke:#181818;stroke-width:1.0;stroke-dasharray:1.0,2.0;" x1="232" x2="281.5" y1="298.8056" y2="298.8056"/><text fill="#000000" font-family="sans-serif" font-size="14" lengthAdjust="spacing" textLength="67" x="281.5" y="303.7376">properties</text><line style="stroke:#181818;stroke-width:1.0;stroke-dasharray:1.0,2.0;" x1="348.5" x2="398" y1="298.8056" y2="298.8056"/></g><g id="elem_GMN3"><path d="M6,6 L6,104.5301 A0,0 0 0 0 6,104.5301 L108,104.5301 A0,0 0 0 0 108,104.5301 L108,102.54 L223.09,192.65 L108,94.54 L108,16 L98,6 L6,6 A0,0 0 0 0 6,6 " fill="#FEFFDD" style="stroke:#181818;stroke-width:0.5;"/><path d="M98,6 L98,16 L108,16 L98,6 " fill="#FEFFDD" style="stroke:#181818;stroke-width:0.5;"/><text fill="#000000" font-family="sans-serif" font-size="13" font-weight="bold" lengthAdjust="spacing" textLength="62" x="12" y="24.897">Summary</text><text fill="#000000" font-family="sans-serif" font-size="13" lengthAdjust="spacing" textLength="38" x="12" y="42.603">TODO</text><text fill="#000000" font-family="sans-serif" font-size="13" font-weight="bold" lengthAdjust="spacing" textLength="81" x="12" y="60.309">Description</text><text fill="#000000" font-family="sans-serif" font-size="13" lengthAdjust="spacing" textLength="38" x="12" y="78.0151">TODO</text><text fill="#000000" font-family="sans-serif" font-size="13" lengthAdjust="spacing" textLength="3" x="12" y="95.7211">&#160;</text></g><!--class CreationInformation--><g id="elem_CreationInformation"><rect fill="#F1F1F1" height="48" id="CreationInformation" rx="2.5" ry="2.5" style="stroke:#181818;stroke-width:0.5;" width="167" x="143.5" y="31.5"/><ellipse cx="158.5" cy="47.5" fill="#ADD1B2" rx="11" ry="11" style="stroke:#181818;stroke-width:1.0;"/><path d="M158.2969,54.2344 Q155.8125,54.2344 154.4844,52.5938 Q153.1719,50.9219 153.1719,47.8125 Q153.1719,44.6875 154.4844,43.0313 Q155.8125,41.375 158.2969,41.375 Q159.0156,41.375 159.6719,41.5313 Q160.3125,41.6875 160.875,41.9844 L160.875,44.7031 Q160.5156,44.3594 160.2188,44.1719 Q159.9219,43.9688 159.6563,43.8438 Q159.3438,43.7031 159.0313,43.6406 Q158.7344,43.5781 158.4219,43.5781 Q157.0938,43.5781 156.4063,44.6406 Q155.7188,45.7344 155.7188,47.8125 Q155.7188,49.9063 156.4063,50.9688 Q157.0938,52.0469 158.4219,52.0469 Q159.0625,52.0469 159.6563,51.7656 Q159.9531,51.6406 160.2344,51.4531 Q160.5313,51.25 160.875,50.9219 L160.875,53.6406 Q160.2969,53.9375 159.6563,54.0938 Q159.0156,54.2344 158.2969,54.2344 Z " fill="#000000"/><text fill="#000000" font-family="sans-serif" font-size="14" lengthAdjust="spacing" textLength="135" x="172.5" y="52.932">CreationInformation</text><line style="stroke:#181818;stroke-width:0.5;" x1="144.5" x2="309.5" y1="63.5" y2="63.5"/><line style="stroke:#181818;stroke-width:0.5;" x1="144.5" x2="309.5" y1="71.5" y2="71.5"/></g><!--class ExternalMap--><g id="elem_ExternalMap"><rect fill="#F1F1F1" height="48" id="ExternalMap" rx="2.5" ry="2.5" style="stroke:#181818;stroke-width:0.5;" width="114" x="346" y="31.5"/><ellipse cx="361" cy="47.5" fill="#ADD1B2" rx="11" ry="11" style="stroke:#181818;stroke-width:1.0;"/><path d="M360.7969,54.2344 Q358.3125,54.2344 356.9844,52.5938 Q355.6719,50.9219 355.6719,47.8125 Q355.6719,44.6875 356.9844,43.0313 Q358.3125,41.375 360.7969,41.375 Q361.5156,41.375 362.1719,41.5313 Q362.8125,41.6875 363.375,41.9844 L363.375,44.7031 Q363.0156,44.3594 362.7188,44.1719 Q362.4219,43.9688 362.1563,43.8438 Q361.8438,43.7031 361.5313,43.6406 Q361.2344,43.5781 360.9219,43.5781 Q359.5938,43.5781 358.9063,44.6406 Q358.2188,45.7344 358.2188,47.8125 Q358.2188,49.9063 358.9063,50.9688 Q359.5938,52.0469 360.9219,52.0469 Q361.5625,52.0469 362.1563,51.7656 Q362.4531,51.6406 362.7344,51.4531 Q363.0313,51.25 363.375,50.9219 L363.375,53.6406 Q362.7969,53.9375 362.1563,54.0938 Q361.5156,54.2344 360.7969,54.2344 Z " fill="#000000"/><text fill="#000000" font-family="sans-serif" font-size="14" lengthAdjust="spacing" textLength="82" x="375" y="52.932">ExternalMap</text><line style="stroke:#181818;stroke-width:0.5;" x1="347" x2="459" y1="63.5" y2="63.5"/><line style="stroke:#181818;stroke-width:0.5;" x1="347" x2="459" y1="71.5" y2="71.5"/></g><!--class NamespaceMap--><g id="elem_NamespaceMap"><rect fill="#F1F1F1" height="48" id="NamespaceMap" rx="2.5" ry="2.5" style="stroke:#181818;stroke-width:0.5;" width="139" x="495.5" y="31.5"/><ellipse cx="510.5" cy="47.5" fill="#ADD1B2" rx="11" ry="11" style="stroke:#181818;stroke-width:1.0;"/><path d="M510.2969,54.2344 Q507.8125,54.2344 506.4844,52.5938 Q505.1719,50.9219 505.1719,47.8125 Q505.1719,44.6875 506.4844,43.0313 Q507.8125,41.375 510.2969,41.375 Q511.0156,41.375 511.6719,41.5313 Q512.3125,41.6875 512.875,41.9844 L512.875,44.7031 Q512.5156,44.3594 512.2188,44.1719 Q511.9219,43.9688 511.6563,43.8438 Q511.3438,43.7031 511.0313,43.6406 Q510.7344,43.5781 510.4219,43.5781 Q509.0938,43.5781 508.4063,44.6406 Q507.7188,45.7344 507.7188,47.8125 Q507.7188,49.9063 508.4063,50.9688 Q509.0938,52.0469 510.4219,52.0469 Q511.0625,52.0469 511.6563,51.7656 Q511.9531,51.6406 512.2344,51.4531 Q512.5313,51.25 512.875,50.9219 L512.875,53.6406 Q512.2969,53.9375 511.6563,54.0938 Q511.0156,54.2344 510.2969,54.2344 Z " fill="#000000"/><text fill="#000000" font-family="sans-serif" font-size="14" lengthAdjust="spacing" textLength="107" x="524.5" y="52.932">NamespaceMap</text><line style="stroke:#181818;stroke-width:0.5;" x1="496.5" x2="633.5" y1="63.5" y2="63.5"/><line style="stroke:#181818;stroke-width:0.5;" x1="496.5" x2="633.5" y1="71.5" y2="71.5"/></g><!--reverse link CreationInformation to Payload--><g id="link_CreationInformation_Payload"><path codeLine="18" d="M215.43,85.61 C189.89,153.77 137.89,318 230,318 " fill="none" id="CreationInformation-backto-Payload" style="stroke:#181818;stroke-width:1.0;"/><polygon fill="#181818" points="217.13,81.12,210.1988,88.117,215.3572,85.7952,217.679,90.9535,217.13,81.12" style="stroke:#181818;stroke-width:1.0;"/></g><!--reverse link ExternalMap to Payload--><g id="link_ExternalMap_Payload"><path codeLine="19" d="M414.68,85.73 C441.85,157.58 499.71,337 400,337 " fill="none" id="ExternalMap-backto-Payload" style="stroke:#181818;stroke-width:1.0;"/><polygon fill="#181818" points="413,81.35,412.4773,91.185,414.7853,86.0204,419.9499,88.3285,413,81.35" style="stroke:#181818;stroke-width:1.0;"/></g><!--reverse link NamespaceMap to Payload--><g id="link_NamespaceMap_Payload"><path codeLine="20" d="M562.65,85.56 C554.83,160.77 522.7,356 400,356 " fill="none" id="NamespaceMap-backto-Payload" style="stroke:#181818;stroke-width:1.0;"/><polygon fill="#181818" points="563.1,81.01,558.2194,89.5645,562.5997,85.9849,566.1793,90.3651,563.1,81.01" style="stroke:#181818;stroke-width:1.0;"/></g><!--SRC=[RO_DQiCm48JlUef5zxXtOmAXwI67neNa1LRo6WJMIcWt45Foxh6DyqEfJjBCwDjPTA85lS8FZaF23dvDLK4anGuLeQeCJEV0eiWQq8KXw0WrxDP_YtswE3-WIDjF3YUcHMMCDBrNy8pD9MKg6aWUO5y8DIG-S9yM8SISYieJ81azYRaPJagWAKFgdyZ6RK-N6B6CpOVRcdExRsTjJ-9Bo3FtfHlY3cQ8iPzlGqjShXQQpGRi2gxhzrxMsA-hKc4SlZ7_JQw5fz3nKVUVr6iLUmS0]--></g></svg>