<?xml version="1.0" encoding="us-ascii" standalone="no"?><svg xmlns="http://www.w3.org/2000/svg" xmlns:xlink="http://www.w3.org/1999/xlink" contentStyleType="text/css" height="326px" preserveAspectRatio="none" style="width:505px;height:326px;background:#FFFFFF;" version="1.1" viewBox="0 0 505 326" width="505px" zoomAndPan="magnify"><defs/><g><!--class Payload--><g id="elem_Payload"><rect codeLine="1" fill="#F1F1F1" height="200.5433" id="Payload" rx="2.5" ry="2.5" style="stroke:#181818;stroke-width:0.5;" width="168" x="182.5" y="119"/><ellipse cx="236.25" cy="135" fill="#ADD1B2" rx="11" ry="11" style="stroke:#181818;stroke-width:1.0;"/><path d="M236.0469,141.7344 Q233.5625,141.7344 232.2344,140.0938 Q230.9219,138.4219 230.9219,135.3125 Q230.9219,132.1875 232.2344,130.5313 Q233.5625,128.875 236.0469,128.875 Q236.7656,128.875 237.4219,129.0313 Q238.0625,129.1875 238.625,129.4844 L238.625,132.2031 Q238.2656,131.8594 237.9688,131.6719 Q237.6719,131.4688 237.4063,131.3438 Q237.0938,131.2031 236.7813,131.1406 Q236.4844,131.0781 236.1719,131.0781 Q234.8438,131.0781 234.1563,132.1406 Q233.4688,133.2344 233.4688,135.3125 Q233.4688,137.4063 234.1563,138.4688 Q234.8438,139.5469 236.1719,139.5469 Q236.8125,139.5469 237.4063,139.2656 Q237.7031,139.1406 237.9844,138.9531 Q238.2813,138.75 238.625,138.4219 L238.625,141.1406 Q238.0469,141.4375 237.4063,141.5938 Q236.7656,141.7344 236.0469,141.7344 Z " fill="#000000"/><text fill="#000000" font-family="sans-serif" font-size="14" lengthAdjust="spacing" textLength="52" x="256.75" y="140.432">Payload</text><line style="stroke:#181818;stroke-width:0.5;" x1="183.5" x2="349.5" y1="151" y2="151"/><text fill="#000000" font-family="sans-serif" font-size="14" lengthAdjust="spacing" textLength="156" x="188.5" y="193.0339">Instantiability : Abstract</text><text fill="#000000" font-family="sans-serif" font-size="14" lengthAdjust="spacing" textLength="116" x="188.5" y="212.1018">SubclassOf : none</text><text fill="#000000" font-family="sans-serif" font-size="14" lengthAdjust="spacing" textLength="100" x="188.5" y="231.1697">name : Payload</text><line style="stroke:#181818;stroke-width:1.0;stroke-dasharray:1.0,2.0;" x1="183.5" x2="234" y1="168.534" y2="168.534"/><text fill="#000000" font-family="sans-serif" font-size="14" lengthAdjust="spacing" textLength="65" x="234" y="173.4659">metadata</text><line style="stroke:#181818;stroke-width:1.0;stroke-dasharray:1.0,2.0;" x1="299" x2="349.5" y1="168.534" y2="168.534"/><text fill="#000000" font-family="sans-serif" font-size="14" lengthAdjust="spacing" textLength="81" x="188.5" y="273.3055">creationInfo</text><text fill="#000000" font-family="sans-serif" font-size="14" lengthAdjust="spacing" textLength="51" x="188.5" y="292.3734">imports</text><text fill="#000000" font-family="sans-serif" font-size="14" lengthAdjust="spacing" textLength="82" x="188.5" y="311.4414">namespaces</text><line style="stroke:#181818;stroke-width:1.0;stroke-dasharray:1.0,2.0;" x1="183.5" x2="233" y1="248.8056" y2="248.8056"/><text fill="#000000" font-family="sans-serif" font-size="14" lengthAdjust="spacing" textLength="67" x="233" y="253.7376">properties</text><line style="stroke:#181818;stroke-width:1.0;stroke-dasharray:1.0,2.0;" x1="300" x2="349.5" y1="248.8056" y2="248.8056"/></g><g id="elem_GMN3"><path d="M393.5,169.5 L393.5,215 L358.28,219 L393.5,223 L393.5,268.0301 A0,0 0 0 0 393.5,268.0301 L495.5,268.0301 A0,0 0 0 0 495.5,268.0301 L495.5,179.5 L485.5,169.5 L393.5,169.5 A0,0 0 0 0 393.5,169.5 " fill="#FEFFDD" style="stroke:#181818;stroke-width:0.5;"/><path d="M485.5,169.5 L485.5,179.5 L495.5,179.5 L485.5,169.5 " fill="#FEFFDD" style="stroke:#181818;stroke-width:0.5;"/><text fill="#000000" font-family="sans-serif" font-size="13" font-weight="bold" lengthAdjust="spacing" textLength="62" x="399.5" y="188.397">Summary</text><text fill="#000000" font-family="sans-serif" font-size="13" lengthAdjust="spacing" textLength="38" x="399.5" y="206.103">TODO</text><text fill="#000000" font-family="sans-serif" font-size="13" font-weight="bold" lengthAdjust="spacing" textLength="81" x="399.5" y="223.809">Description</text><text fill="#000000" font-family="sans-serif" font-size="13" lengthAdjust="spacing" textLength="38" x="399.5" y="241.5151">TODO</text><text fill="#000000" font-family="sans-serif" font-size="13" lengthAdjust="spacing" textLength="3" x="399.5" y="259.2211">&#160;</text></g><!--class CreationInformation--><g id="elem_CreationInformation"><rect fill="#F1F1F1" height="48" id="CreationInformation" rx="2.5" ry="2.5" style="stroke:#181818;stroke-width:0.5;" width="167" x="7" y="7"/><ellipse cx="22" cy="23" fill="#ADD1B2" rx="11" ry="11" style="stroke:#181818;stroke-width:1.0;"/><path d="M21.7969,29.7344 Q19.3125,29.7344 17.9844,28.0938 Q16.6719,26.4219 16.6719,23.3125 Q16.6719,20.1875 17.9844,18.5313 Q19.3125,16.875 21.7969,16.875 Q22.5156,16.875 23.1719,17.0313 Q23.8125,17.1875 24.375,17.4844 L24.375,20.2031 Q24.0156,19.8594 23.7188,19.6719 Q23.4219,19.4688 23.1563,19.3438 Q22.8438,19.2031 22.5313,19.1406 Q22.2344,19.0781 21.9219,19.0781 Q20.5938,19.0781 19.9063,20.1406 Q19.2188,21.2344 19.2188,23.3125 Q19.2188,25.4063 19.9063,26.4688 Q20.5938,27.5469 21.9219,27.5469 Q22.5625,27.5469 23.1563,27.2656 Q23.4531,27.1406 23.7344,26.9531 Q24.0313,26.75 24.375,26.4219 L24.375,29.1406 Q23.7969,29.4375 23.1563,29.5938 Q22.5156,29.7344 21.7969,29.7344 Z " fill="#000000"/><text fill="#000000" font-family="sans-serif" font-size="14" lengthAdjust="spacing" textLength="135" x="36" y="28.432">CreationInformation</text><line style="stroke:#181818;stroke-width:0.5;" x1="8" x2="173" y1="39" y2="39"/><line style="stroke:#181818;stroke-width:0.5;" x1="8" x2="173" y1="47" y2="47"/></g><!--class ExternalMap--><g id="elem_ExternalMap"><rect fill="#F1F1F1" height="48" id="ExternalMap" rx="2.5" ry="2.5" style="stroke:#181818;stroke-width:0.5;" width="114" x="209.5" y="7"/><ellipse cx="224.5" cy="23" fill="#ADD1B2" rx="11" ry="11" style="stroke:#181818;stroke-width:1.0;"/><path d="M224.2969,29.7344 Q221.8125,29.7344 220.4844,28.0938 Q219.1719,26.4219 219.1719,23.3125 Q219.1719,20.1875 220.4844,18.5313 Q221.8125,16.875 224.2969,16.875 Q225.0156,16.875 225.6719,17.0313 Q226.3125,17.1875 226.875,17.4844 L226.875,20.2031 Q226.5156,19.8594 226.2188,19.6719 Q225.9219,19.4688 225.6563,19.3438 Q225.3438,19.2031 225.0313,19.1406 Q224.7344,19.0781 224.4219,19.0781 Q223.0938,19.0781 222.4063,20.1406 Q221.7188,21.2344 221.7188,23.3125 Q221.7188,25.4063 222.4063,26.4688 Q223.0938,27.5469 224.4219,27.5469 Q225.0625,27.5469 225.6563,27.2656 Q225.9531,27.1406 226.2344,26.9531 Q226.5313,26.75 226.875,26.4219 L226.875,29.1406 Q226.2969,29.4375 225.6563,29.5938 Q225.0156,29.7344 224.2969,29.7344 Z " fill="#000000"/><text fill="#000000" font-family="sans-serif" font-size="14" lengthAdjust="spacing" textLength="82" x="238.5" y="28.432">ExternalMap</text><line style="stroke:#181818;stroke-width:0.5;" x1="210.5" x2="322.5" y1="39" y2="39"/><line style="stroke:#181818;stroke-width:0.5;" x1="210.5" x2="322.5" y1="47" y2="47"/></g><!--class NamespaceMap--><g id="elem_NamespaceMap"><rect fill="#F1F1F1" height="48" id="NamespaceMap" rx="2.5" ry="2.5" style="stroke:#181818;stroke-width:0.5;" width="139" x="359" y="7"/><ellipse cx="374" cy="23" fill="#ADD1B2" rx="11" ry="11" style="stroke:#181818;stroke-width:1.0;"/><path d="M373.7969,29.7344 Q371.3125,29.7344 369.9844,28.0938 Q368.6719,26.4219 368.6719,23.3125 Q368.6719,20.1875 369.9844,18.5313 Q371.3125,16.875 373.7969,16.875 Q374.5156,16.875 375.1719,17.0313 Q375.8125,17.1875 376.375,17.4844 L376.375,20.2031 Q376.0156,19.8594 375.7188,19.6719 Q375.4219,19.4688 375.1563,19.3438 Q374.8438,19.2031 374.5313,19.1406 Q374.2344,19.0781 373.9219,19.0781 Q372.5938,19.0781 371.9063,20.1406 Q371.2188,21.2344 371.2188,23.3125 Q371.2188,25.4063 371.9063,26.4688 Q372.5938,27.5469 373.9219,27.5469 Q374.5625,27.5469 375.1563,27.2656 Q375.4531,27.1406 375.7344,26.9531 Q376.0313,26.75 376.375,26.4219 L376.375,29.1406 Q375.7969,29.4375 375.1563,29.5938 Q374.5156,29.7344 373.7969,29.7344 Z " fill="#000000"/><text fill="#000000" font-family="sans-serif" font-size="14" lengthAdjust="spacing" textLength="107" x="388" y="28.432">NamespaceMap</text><line style="stroke:#181818;stroke-width:0.5;" x1="360" x2="497" y1="39" y2="39"/><line style="stroke:#181818;stroke-width:0.5;" x1="360" x2="497" y1="47" y2="47"/></g><!--reverse link CreationInformation to Payload--><g id="link_CreationInformation_Payload"><path codeLine="18" d="M89.03,61.74 C87.59,125.16 94.04,268 181.5,268 " fill="none" id="CreationInformation-backto-Payload" style="stroke:#181818;stroke-width:1.0;"/><polygon fill="#181818" points="89.16,57,84.9039,65.8817,89.0168,61.9979,92.9006,66.1109,89.16,57" style="stroke:#181818;stroke-width:1.0;"/></g><!--reverse link ExternalMap to Payload--><g id="link_ExternalMap_Payload"><path codeLine="19" d="M305.67,59.28 C322.84,73.66 341.19,92.89 350.5,115 C365.34,150.23 389.72,287 351.5,287 " fill="none" id="ExternalMap-backto-Payload" style="stroke:#181818;stroke-width:1.0;"/><polygon fill="#181818" points="302.03,56.32,306.4768,65.1078,305.9049,59.48,311.5327,58.908,302.03,56.32" style="stroke:#181818;stroke-width:1.0;"/></g><!--reverse link NamespaceMap to Payload--><g id="link_NamespaceMap_Payload"><path codeLine="20" d="M406.49,60.3 C395.69,75.65 383.53,95.45 376.5,115 C362.03,155.29 394.31,306 351.5,306 " fill="none" id="NamespaceMap-backto-Payload" style="stroke:#181818;stroke-width:1.0;"/><polygon fill="#181818" points="409.21,56.5,400.7306,61.5099,406.3092,60.5725,407.2466,66.1512,409.21,56.5" style="stroke:#181818;stroke-width:1.0;"/></g><!--SRC=[ROzDQiGm38NtFeNmVj9z20EbqyKisXIc5v0TfJN4if4rq51wzyOXyqEfLjBJuzEJdx0KUCDvIZZ0jsaQYAGue28qZO6bZbmKMGEwC0MTeOL7LrJGwxe-dPsla7vSDfoOLfKnqZ9lu8hDaZA91YeNi1T23OcFFAPL234dqN85b8oUYland9H0miUdGXglqCxjJ-SOKURkmUtDUt_egtQWuYNaIhxfXdY0YZ7swUwinBMrqErsO3TmszudiyO-Voa9u_I2-QzpYxoONY-1_t7Tdh6_]--></g></svg>