<?xml version="1.0" encoding="us-ascii" standalone="no"?><svg xmlns="http://www.w3.org/2000/svg" xmlns:xlink="http://www.w3.org/1999/xlink" contentStyleType="text/css" height="485px" preserveAspectRatio="none" style="width:531px;height:485px;background:#FFFFFF;" version="1.1" viewBox="0 0 531 485" width="531px" zoomAndPan="magnify"><defs/><g><!--class Payload--><g id="elem_Payload"><rect codeLine="1" fill="#F1F1F1" height="200.5433" id="Payload" rx="2.5" ry="2.5" style="stroke:#181818;stroke-width:0.5;" width="274" x="85" y="278"/><ellipse cx="192.25" cy="294" fill="#A9DCDF" rx="11" ry="11" style="stroke:#181818;stroke-width:1.0;"/><path d="M190.875,287.3594 L193.8594,287.3594 L197.2188,299.75 L194.7656,299.75 L194,296.6875 L190.7188,296.6875 L189.9688,299.75 L187.5313,299.75 L190.875,287.3594 Z M193.5313,294.6719 L192.3594,289.5938 L191.2031,294.6719 L193.5313,294.6719 Z " fill="#000000"/><text fill="#000000" font-family="sans-serif" font-size="14" font-style="italic" lengthAdjust="spacing" textLength="51" x="212.75" y="299.432">Payload</text><line style="stroke:#181818;stroke-width:0.5;" x1="86" x2="358" y1="310" y2="310"/><text fill="#000000" font-family="sans-serif" font-size="14" lengthAdjust="spacing" textLength="156" x="91" y="352.0339">Instantiability : Abstract</text><text fill="#000000" font-family="sans-serif" font-size="14" lengthAdjust="spacing" textLength="116" x="91" y="371.1018">SubclassOf : none</text><text fill="#000000" font-family="sans-serif" font-size="14" lengthAdjust="spacing" textLength="100" x="91" y="390.1697">name : Payload</text><line style="stroke:#181818;stroke-width:1.0;stroke-dasharray:1.0,2.0;" x1="86" x2="189.5" y1="327.534" y2="327.534"/><text fill="#000000" font-family="sans-serif" font-size="14" lengthAdjust="spacing" textLength="65" x="189.5" y="332.4659">metadata</text><line style="stroke:#181818;stroke-width:1.0;stroke-dasharray:1.0,2.0;" x1="254.5" x2="358" y1="327.534" y2="327.534"/><text fill="#000000" font-family="sans-serif" font-size="14" lengthAdjust="spacing" textLength="262" x="91" y="432.3055">creationInfo : CreationInformation [0..1]</text><text fill="#000000" font-family="sans-serif" font-size="14" lengthAdjust="spacing" textLength="163" x="91" y="451.3734">imports : ExternalMap [..]</text><text fill="#000000" font-family="sans-serif" font-size="14" lengthAdjust="spacing" textLength="219" x="91" y="470.4414">namespaces : NamespaceMap [..]</text><line style="stroke:#181818;stroke-width:1.0;stroke-dasharray:1.0,2.0;" x1="86" x2="188.5" y1="407.8056" y2="407.8056"/><text fill="#000000" font-family="sans-serif" font-size="14" lengthAdjust="spacing" textLength="67" x="188.5" y="412.7376">properties</text><line style="stroke:#181818;stroke-width:1.0;stroke-dasharray:1.0,2.0;" x1="255.5" x2="358" y1="407.8056" y2="407.8056"/></g><g id="elem_GMN3"><path d="M6,115 L6,213.5301 A0,0 0 0 0 6,213.5301 L91.06,213.5301 L141.77,274.17 L99.06,213.5301 L108,213.5301 A0,0 0 0 0 108,213.5301 L108,125 L98,115 L6,115 A0,0 0 0 0 6,115 " fill="#FEFFDD" style="stroke:#181818;stroke-width:0.5;"/><path d="M98,115 L98,125 L108,125 L98,115 " fill="#FEFFDD" style="stroke:#181818;stroke-width:0.5;"/><text fill="#000000" font-family="sans-serif" font-size="13" font-weight="bold" lengthAdjust="spacing" textLength="62" x="12" y="133.897">Summary</text><text fill="#000000" font-family="sans-serif" font-size="13" lengthAdjust="spacing" textLength="38" x="12" y="151.603">TODO</text><text fill="#000000" font-family="sans-serif" font-size="13" font-weight="bold" lengthAdjust="spacing" textLength="81" x="12" y="169.309">Description</text><text fill="#000000" font-family="sans-serif" font-size="13" lengthAdjust="spacing" textLength="38" x="12" y="187.0151">TODO</text><text fill="#000000" font-family="sans-serif" font-size="13" lengthAdjust="spacing" textLength="3" x="12" y="204.7211">&#160;</text></g><!--class CreationInformation--><g id="elem_CreationInformation"><rect fill="#F1F1F1" height="48" id="CreationInformation" rx="2.5" ry="2.5" style="stroke:#181818;stroke-width:0.5;" width="167" x="24.5" y="7"/><ellipse cx="39.5" cy="23" fill="#ADD1B2" rx="11" ry="11" style="stroke:#181818;stroke-width:1.0;"/><path d="M39.2969,29.7344 Q36.8125,29.7344 35.4844,28.0938 Q34.1719,26.4219 34.1719,23.3125 Q34.1719,20.1875 35.4844,18.5313 Q36.8125,16.875 39.2969,16.875 Q40.0156,16.875 40.6719,17.0313 Q41.3125,17.1875 41.875,17.4844 L41.875,20.2031 Q41.5156,19.8594 41.2188,19.6719 Q40.9219,19.4688 40.6563,19.3438 Q40.3438,19.2031 40.0313,19.1406 Q39.7344,19.0781 39.4219,19.0781 Q38.0938,19.0781 37.4063,20.1406 Q36.7188,21.2344 36.7188,23.3125 Q36.7188,25.4063 37.4063,26.4688 Q38.0938,27.5469 39.4219,27.5469 Q40.0625,27.5469 40.6563,27.2656 Q40.9531,27.1406 41.2344,26.9531 Q41.5313,26.75 41.875,26.4219 L41.875,29.1406 Q41.2969,29.4375 40.6563,29.5938 Q40.0156,29.7344 39.2969,29.7344 Z " fill="#000000"/><text fill="#000000" font-family="sans-serif" font-size="14" lengthAdjust="spacing" textLength="135" x="53.5" y="28.432">CreationInformation</text><line style="stroke:#181818;stroke-width:0.5;" x1="25.5" x2="190.5" y1="39" y2="39"/><line style="stroke:#181818;stroke-width:0.5;" x1="25.5" x2="190.5" y1="47" y2="47"/></g><!--class ExternalMap--><g id="elem_ExternalMap"><rect fill="#F1F1F1" height="48" id="ExternalMap" rx="2.5" ry="2.5" style="stroke:#181818;stroke-width:0.5;" width="114" x="227" y="7"/><ellipse cx="242" cy="23" fill="#ADD1B2" rx="11" ry="11" style="stroke:#181818;stroke-width:1.0;"/><path d="M241.7969,29.7344 Q239.3125,29.7344 237.9844,28.0938 Q236.6719,26.4219 236.6719,23.3125 Q236.6719,20.1875 237.9844,18.5313 Q239.3125,16.875 241.7969,16.875 Q242.5156,16.875 243.1719,17.0313 Q243.8125,17.1875 244.375,17.4844 L244.375,20.2031 Q244.0156,19.8594 243.7188,19.6719 Q243.4219,19.4688 243.1563,19.3438 Q242.8438,19.2031 242.5313,19.1406 Q242.2344,19.0781 241.9219,19.0781 Q240.5938,19.0781 239.9063,20.1406 Q239.2188,21.2344 239.2188,23.3125 Q239.2188,25.4063 239.9063,26.4688 Q240.5938,27.5469 241.9219,27.5469 Q242.5625,27.5469 243.1563,27.2656 Q243.4531,27.1406 243.7344,26.9531 Q244.0313,26.75 244.375,26.4219 L244.375,29.1406 Q243.7969,29.4375 243.1563,29.5938 Q242.5156,29.7344 241.7969,29.7344 Z " fill="#000000"/><text fill="#000000" font-family="sans-serif" font-size="14" lengthAdjust="spacing" textLength="82" x="256" y="28.432">ExternalMap</text><line style="stroke:#181818;stroke-width:0.5;" x1="228" x2="340" y1="39" y2="39"/><line style="stroke:#181818;stroke-width:0.5;" x1="228" x2="340" y1="47" y2="47"/></g><!--class NamespaceMap--><g id="elem_NamespaceMap"><rect fill="#F1F1F1" height="48" id="NamespaceMap" rx="2.5" ry="2.5" style="stroke:#181818;stroke-width:0.5;" width="139" x="376.5" y="7"/><ellipse cx="391.5" cy="23" fill="#ADD1B2" rx="11" ry="11" style="stroke:#181818;stroke-width:1.0;"/><path d="M391.2969,29.7344 Q388.8125,29.7344 387.4844,28.0938 Q386.1719,26.4219 386.1719,23.3125 Q386.1719,20.1875 387.4844,18.5313 Q388.8125,16.875 391.2969,16.875 Q392.0156,16.875 392.6719,17.0313 Q393.3125,17.1875 393.875,17.4844 L393.875,20.2031 Q393.5156,19.8594 393.2188,19.6719 Q392.9219,19.4688 392.6563,19.3438 Q392.3438,19.2031 392.0313,19.1406 Q391.7344,19.0781 391.4219,19.0781 Q390.0938,19.0781 389.4063,20.1406 Q388.7188,21.2344 388.7188,23.3125 Q388.7188,25.4063 389.4063,26.4688 Q390.0938,27.5469 391.4219,27.5469 Q392.0625,27.5469 392.6563,27.2656 Q392.9531,27.1406 393.2344,26.9531 Q393.5313,26.75 393.875,26.4219 L393.875,29.1406 Q393.2969,29.4375 392.6563,29.5938 Q392.0156,29.7344 391.2969,29.7344 Z " fill="#000000"/><text fill="#000000" font-family="sans-serif" font-size="14" lengthAdjust="spacing" textLength="107" x="405.5" y="28.432">NamespaceMap</text><line style="stroke:#181818;stroke-width:0.5;" x1="377.5" x2="514.5" y1="39" y2="39"/><line style="stroke:#181818;stroke-width:0.5;" x1="377.5" x2="514.5" y1="47" y2="47"/></g><!--reverse link CreationInformation to Payload--><g id="link_CreationInformation_Payload"><path codeLine="18" d="M115.55,61.47 C119.2,77.23 123.18,97.04 125,115 C129.44,158.78 137.75,171.89 125,214 C115.71,244.67 94.39,243.36 85,274 C65.08,339.02 16,427 84,427 " fill="none" id="CreationInformation-backto-Payload" style="stroke:#181818;stroke-width:1.0;"/><polygon fill="#181818" points="114.46,56.89,112.6482,66.5708,115.6155,61.7546,120.4317,64.7219,114.46,56.89" style="stroke:#181818;stroke-width:1.0;"/></g><!--reverse link ExternalMap to Payload--><g id="link_ExternalMap_Payload"><path codeLine="19" d="M301.53,60.82 C357.13,154.74 516.91,446 360,446 " fill="none" id="ExternalMap-backto-Payload" style="stroke:#181818;stroke-width:1.0;"/><polygon fill="#181818" points="299.11,56.75,300.2722,66.53,301.6657,61.0475,307.1482,62.441,299.11,56.75" style="stroke:#181818;stroke-width:1.0;"/></g><!--reverse link NamespaceMap to Payload--><g id="link_NamespaceMap_Payload"><path codeLine="20" d="M452.69,61.39 C473.31,158.81 524.99,465 360,465 " fill="none" id="NamespaceMap-backto-Payload" style="stroke:#181818;stroke-width:1.0;"/><polygon fill="#181818" points="451.7,56.76,449.688,66.4012,452.7545,61.6475,457.5081,64.714,451.7,56.76" style="stroke:#181818;stroke-width:1.0;"/></g><!--SRC=[RO_DQiCm48JlUef5TwljrPX0QNh88NKXlOKSLl8Q1DOFqWPgIj-zid4SGwgJPlRJQ1PrveI6uHF78M07Fq8fSCJO8ICe9Q2SWy-CdYrgErWUeORNvTqyFbsr6J3djYyJ7ppDhaT7HI_1KsnC8L9YI_aMR18Xs-0FlW-5VTl8vEOhd9-LUhdCj7Kn9Cu5VFzcIXw78qOuAtLPFymH3Kt4nqsioA_mWGauH0ZzMglHkzFLEKnZywHtuglTjvEtfsoIZLE3ko_8Tp252FbFKmbDLLKWb-IwtYudXTnqVa2NpGgrxVs0tJUKVm00]--></g></svg>