<?xml version="1.0" encoding="us-ascii" standalone="no"?><svg xmlns="http://www.w3.org/2000/svg" xmlns:xlink="http://www.w3.org/1999/xlink" contentStyleType="text/css" height="301px" preserveAspectRatio="none" style="width:175px;height:301px;background:#FFFFFF;" version="1.1" viewBox="0 0 175 301" width="175px" zoomAndPan="magnify"><defs/><g><!--class ProfileIdentifier--><g id="elem_ProfileIdentifier"><rect codeLine="1" fill="#F1F1F1" height="129.8056" id="ProfileIdentifier" rx="2.5" ry="2.5" style="stroke:#181818;stroke-width:0.5;" width="161" x="7" y="165"/><ellipse cx="34.6" cy="181" fill="#ADD1B2" rx="11" ry="11" style="stroke:#181818;stroke-width:1.0;"/><path d="M34.3969,187.7344 Q31.9125,187.7344 30.5844,186.0938 Q29.2719,184.4219 29.2719,181.3125 Q29.2719,178.1875 30.5844,176.5313 Q31.9125,174.875 34.3969,174.875 Q35.1156,174.875 35.7719,175.0313 Q36.4125,175.1875 36.975,175.4844 L36.975,178.2031 Q36.6156,177.8594 36.3188,177.6719 Q36.0219,177.4688 35.7563,177.3438 Q35.4438,177.2031 35.1313,177.1406 Q34.8344,177.0781 34.5219,177.0781 Q33.1938,177.0781 32.5063,178.1406 Q31.8188,179.2344 31.8188,181.3125 Q31.8188,183.4063 32.5063,184.4688 Q33.1938,185.5469 34.5219,185.5469 Q35.1625,185.5469 35.7563,185.2656 Q36.0531,185.1406 36.3344,184.9531 Q36.6313,184.75 36.975,184.4219 L36.975,187.1406 Q36.3969,187.4375 35.7563,187.5938 Q35.1156,187.7344 34.3969,187.7344 Z " fill="#000000"/><text fill="#000000" font-family="sans-serif" font-size="14" lengthAdjust="spacing" textLength="101" x="51.4" y="186.432">ProfileIdentifier</text><line style="stroke:#181818;stroke-width:0.5;" x1="8" x2="167" y1="197" y2="197"/><text fill="#000000" font-family="sans-serif" font-size="14" lengthAdjust="spacing" textLength="145" x="13" y="239.0339">SubclassOf : xsd:string</text><text fill="#000000" font-family="sans-serif" font-size="14" lengthAdjust="spacing" textLength="149" x="13" y="258.1018">name : ProfileIdentifier</text><line style="stroke:#181818;stroke-width:1.0;stroke-dasharray:1.0,2.0;" x1="8" x2="55" y1="214.534" y2="214.534"/><text fill="#000000" font-family="sans-serif" font-size="14" lengthAdjust="spacing" textLength="65" x="55" y="219.4659">metadata</text><line style="stroke:#181818;stroke-width:1.0;stroke-dasharray:1.0,2.0;" x1="120" x2="167" y1="214.534" y2="214.534"/><line style="stroke:#181818;stroke-width:1.0;stroke-dasharray:1.0,2.0;" x1="8" x2="54" y1="275.7377" y2="275.7377"/><text fill="#000000" font-family="sans-serif" font-size="14" lengthAdjust="spacing" textLength="67" x="54" y="280.6697">properties</text><line style="stroke:#181818;stroke-width:1.0;stroke-dasharray:1.0,2.0;" x1="121" x2="167" y1="275.7377" y2="275.7377"/></g><g id="elem_GMN3"><path d="M36.5,6 L36.5,104.5301 A0,0 0 0 0 36.5,104.5301 L83.5,104.5301 L87.5,164.75 L91.5,104.5301 L138.5,104.5301 A0,0 0 0 0 138.5,104.5301 L138.5,16 L128.5,6 L36.5,6 A0,0 0 0 0 36.5,6 " fill="#FEFFDD" style="stroke:#181818;stroke-width:0.5;"/><path d="M128.5,6 L128.5,16 L138.5,16 L128.5,6 " fill="#FEFFDD" style="stroke:#181818;stroke-width:0.5;"/><text fill="#000000" font-family="sans-serif" font-size="13" font-weight="bold" lengthAdjust="spacing" textLength="62" x="42.5" y="24.897">Summary</text><text fill="#000000" font-family="sans-serif" font-size="13" lengthAdjust="spacing" textLength="38" x="42.5" y="42.603">TODO</text><text fill="#000000" font-family="sans-serif" font-size="13" font-weight="bold" lengthAdjust="spacing" textLength="81" x="42.5" y="60.309">Description</text><text fill="#000000" font-family="sans-serif" font-size="13" lengthAdjust="spacing" textLength="38" x="42.5" y="78.0151">TODO</text><text fill="#000000" font-family="sans-serif" font-size="13" lengthAdjust="spacing" textLength="3" x="42.5" y="95.7211">&#160;</text></g><!--SRC=[ROmx3i8m44Hxds9FOFeeIfM6oaZX0dQyHYl57-rk913YxiGq533bcvctRbu4BbmJRNYEM9GI8SFJM0iPrKUl7gmrS6JPmzhtBi40Tuc3A5EvVRhYCnxqnzGzZMj3LaBfffSfLH6qDgZfps4CqxBdxFandi9ahcvsdSqeArDJgkNB3PO8NVS6]--></g></svg>