<?xml version="1.0" encoding="us-ascii" standalone="no"?><svg xmlns="http://www.w3.org/2000/svg" xmlns:xlink="http://www.w3.org/1999/xlink" contentStyleType="text/css" height="412px" preserveAspectRatio="none" style="width:1005px;height:412px;background:#FFFFFF;" version="1.1" viewBox="0 0 1005 412" width="1005px" zoomAndPan="magnify"><defs/><g><!--class Relationship--><g id="elem_Relationship"><rect codeLine="1" fill="#F1F1F1" height="219.6113" id="Relationship" rx="2.5" ry="2.5" style="stroke:#181818;stroke-width:0.5;" width="172" x="449.5" y="186"/><ellipse cx="491.5" cy="202" fill="#ADD1B2" rx="11" ry="11" style="stroke:#181818;stroke-width:1.0;"/><path d="M491.2969,208.7344 Q488.8125,208.7344 487.4844,207.0938 Q486.1719,205.4219 486.1719,202.3125 Q486.1719,199.1875 487.4844,197.5313 Q488.8125,195.875 491.2969,195.875 Q492.0156,195.875 492.6719,196.0313 Q493.3125,196.1875 493.875,196.4844 L493.875,199.2031 Q493.5156,198.8594 493.2188,198.6719 Q492.9219,198.4688 492.6563,198.3438 Q492.3438,198.2031 492.0313,198.1406 Q491.7344,198.0781 491.4219,198.0781 Q490.0938,198.0781 489.4063,199.1406 Q488.7188,200.2344 488.7188,202.3125 Q488.7188,204.4063 489.4063,205.4688 Q490.0938,206.5469 491.4219,206.5469 Q492.0625,206.5469 492.6563,206.2656 Q492.9531,206.1406 493.2344,205.9531 Q493.5313,205.75 493.875,205.4219 L493.875,208.1406 Q493.2969,208.4375 492.6563,208.5938 Q492.0156,208.7344 491.2969,208.7344 Z " fill="#000000"/><text fill="#000000" font-family="sans-serif" font-size="14" lengthAdjust="spacing" textLength="80" x="511.5" y="207.432">Relationship</text><line style="stroke:#181818;stroke-width:0.5;" x1="450.5" x2="620.5" y1="218" y2="218"/><text fill="#000000" font-family="sans-serif" font-size="14" lengthAdjust="spacing" textLength="160" x="455.5" y="260.0339">Instantiability : Concrete</text><text fill="#000000" font-family="sans-serif" font-size="14" lengthAdjust="spacing" textLength="137" x="455.5" y="279.1018">SubclassOf : Element</text><text fill="#000000" font-family="sans-serif" font-size="14" lengthAdjust="spacing" textLength="128" x="455.5" y="298.1697">name : Relationship</text><line style="stroke:#181818;stroke-width:1.0;stroke-dasharray:1.0,2.0;" x1="450.5" x2="503" y1="235.534" y2="235.534"/><text fill="#000000" font-family="sans-serif" font-size="14" lengthAdjust="spacing" textLength="65" x="503" y="240.4659">metadata</text><line style="stroke:#181818;stroke-width:1.0;stroke-dasharray:1.0,2.0;" x1="568" x2="620.5" y1="235.534" y2="235.534"/><text fill="#000000" font-family="sans-serif" font-size="14" lengthAdjust="spacing" textLength="92" x="455.5" y="340.3055">completeness</text><text fill="#000000" font-family="sans-serif" font-size="14" lengthAdjust="spacing" textLength="32" x="455.5" y="359.3734">from</text><text fill="#000000" font-family="sans-serif" font-size="14" lengthAdjust="spacing" textLength="108" x="455.5" y="378.4414">relationshipType</text><text fill="#000000" font-family="sans-serif" font-size="14" lengthAdjust="spacing" textLength="15" x="455.5" y="397.5093">to</text><line style="stroke:#181818;stroke-width:1.0;stroke-dasharray:1.0,2.0;" x1="450.5" x2="502" y1="315.8056" y2="315.8056"/><text fill="#000000" font-family="sans-serif" font-size="14" lengthAdjust="spacing" textLength="67" x="502" y="320.7376">properties</text><line style="stroke:#181818;stroke-width:1.0;stroke-dasharray:1.0,2.0;" x1="569" x2="620.5" y1="315.8056" y2="315.8056"/></g><g id="elem_GMN3"><path d="M6,6 L6,122.2361 A0,0 0 0 0 6,122.2361 L303.43,122.2361 L441.52,223.55 L311.43,122.2361 L457,122.2361 A0,0 0 0 0 457,122.2361 L457,16 L447,6 L6,6 A0,0 0 0 0 6,6 " fill="#FEFFDD" style="stroke:#181818;stroke-width:0.5;"/><path d="M447,6 L447,16 L457,16 L447,6 " fill="#FEFFDD" style="stroke:#181818;stroke-width:0.5;"/><text fill="#000000" font-family="sans-serif" font-size="13" font-weight="bold" lengthAdjust="spacing" textLength="62" x="12" y="24.897">Summary</text><text fill="#000000" font-family="sans-serif" font-size="13" lengthAdjust="spacing" textLength="344" x="12" y="42.603">Describes a relationship between one or more elements.</text><text fill="#000000" font-family="sans-serif" font-size="13" font-weight="bold" lengthAdjust="spacing" textLength="81" x="12" y="60.309">Description</text><text fill="#000000" font-family="sans-serif" font-size="13" lengthAdjust="spacing" textLength="412" x="12" y="78.0151">A Relationship is a grouping of characteristics unique to an assertion</text><text fill="#000000" font-family="sans-serif" font-size="13" lengthAdjust="spacing" textLength="430" x="12" y="95.7211">that one Element is related to one or more other Elements in some way.</text><text fill="#000000" font-family="sans-serif" font-size="13" lengthAdjust="spacing" textLength="3" x="12" y="113.4271">&#160;</text></g><!--class Element--><g id="elem_Element"><rect fill="#F1F1F1" height="48" id="Element" rx="2.5" ry="2.5" style="stroke:#181818;stroke-width:0.5;" width="86" x="492.5" y="40"/><ellipse cx="507.5" cy="56" fill="#ADD1B2" rx="11" ry="11" style="stroke:#181818;stroke-width:1.0;"/><path d="M507.2969,62.7344 Q504.8125,62.7344 503.4844,61.0938 Q502.1719,59.4219 502.1719,56.3125 Q502.1719,53.1875 503.4844,51.5313 Q504.8125,49.875 507.2969,49.875 Q508.0156,49.875 508.6719,50.0313 Q509.3125,50.1875 509.875,50.4844 L509.875,53.2031 Q509.5156,52.8594 509.2188,52.6719 Q508.9219,52.4688 508.6563,52.3438 Q508.3438,52.2031 508.0313,52.1406 Q507.7344,52.0781 507.4219,52.0781 Q506.0938,52.0781 505.4063,53.1406 Q504.7188,54.2344 504.7188,56.3125 Q504.7188,58.4063 505.4063,59.4688 Q506.0938,60.5469 507.4219,60.5469 Q508.0625,60.5469 508.6563,60.2656 Q508.9531,60.1406 509.2344,59.9531 Q509.5313,59.75 509.875,59.4219 L509.875,62.1406 Q509.2969,62.4375 508.6563,62.5938 Q508.0156,62.7344 507.2969,62.7344 Z " fill="#000000"/><text fill="#000000" font-family="sans-serif" font-size="14" lengthAdjust="spacing" textLength="54" x="521.5" y="61.432">Element</text><line style="stroke:#181818;stroke-width:0.5;" x1="493.5" x2="577.5" y1="72" y2="72"/><line style="stroke:#181818;stroke-width:0.5;" x1="493.5" x2="577.5" y1="80" y2="80"/></g><!--class RelationshipCompleteness--><g id="elem_RelationshipCompleteness"><rect fill="#F1F1F1" height="48" id="RelationshipCompleteness" rx="2.5" ry="2.5" style="stroke:#181818;stroke-width:0.5;" width="206" x="613.5" y="40"/><ellipse cx="628.5" cy="56" fill="#ADD1B2" rx="11" ry="11" style="stroke:#181818;stroke-width:1.0;"/><path d="M628.2969,62.7344 Q625.8125,62.7344 624.4844,61.0938 Q623.1719,59.4219 623.1719,56.3125 Q623.1719,53.1875 624.4844,51.5313 Q625.8125,49.875 628.2969,49.875 Q629.0156,49.875 629.6719,50.0313 Q630.3125,50.1875 630.875,50.4844 L630.875,53.2031 Q630.5156,52.8594 630.2188,52.6719 Q629.9219,52.4688 629.6563,52.3438 Q629.3438,52.2031 629.0313,52.1406 Q628.7344,52.0781 628.4219,52.0781 Q627.0938,52.0781 626.4063,53.1406 Q625.7188,54.2344 625.7188,56.3125 Q625.7188,58.4063 626.4063,59.4688 Q627.0938,60.5469 628.4219,60.5469 Q629.0625,60.5469 629.6563,60.2656 Q629.9531,60.1406 630.2344,59.9531 Q630.5313,59.75 630.875,59.4219 L630.875,62.1406 Q630.2969,62.4375 629.6563,62.5938 Q629.0156,62.7344 628.2969,62.7344 Z " fill="#000000"/><text fill="#000000" font-family="sans-serif" font-size="14" lengthAdjust="spacing" textLength="174" x="642.5" y="61.432">RelationshipCompleteness</text><line style="stroke:#181818;stroke-width:0.5;" x1="614.5" x2="818.5" y1="72" y2="72"/><line style="stroke:#181818;stroke-width:0.5;" x1="614.5" x2="818.5" y1="80" y2="80"/></g><!--class RelationshipType--><g id="elem_RelationshipType"><rect fill="#F1F1F1" height="48" id="RelationshipType" rx="2.5" ry="2.5" style="stroke:#181818;stroke-width:0.5;" width="144" x="854.5" y="40"/><ellipse cx="869.5" cy="56" fill="#ADD1B2" rx="11" ry="11" style="stroke:#181818;stroke-width:1.0;"/><path d="M869.2969,62.7344 Q866.8125,62.7344 865.4844,61.0938 Q864.1719,59.4219 864.1719,56.3125 Q864.1719,53.1875 865.4844,51.5313 Q866.8125,49.875 869.2969,49.875 Q870.0156,49.875 870.6719,50.0313 Q871.3125,50.1875 871.875,50.4844 L871.875,53.2031 Q871.5156,52.8594 871.2188,52.6719 Q870.9219,52.4688 870.6563,52.3438 Q870.3438,52.2031 870.0313,52.1406 Q869.7344,52.0781 869.4219,52.0781 Q868.0938,52.0781 867.4063,53.1406 Q866.7188,54.2344 866.7188,56.3125 Q866.7188,58.4063 867.4063,59.4688 Q868.0938,60.5469 869.4219,60.5469 Q870.0625,60.5469 870.6563,60.2656 Q870.9531,60.1406 871.2344,59.9531 Q871.5313,59.75 871.875,59.4219 L871.875,62.1406 Q871.2969,62.4375 870.6563,62.5938 Q870.0156,62.7344 869.2969,62.7344 Z " fill="#000000"/><text fill="#000000" font-family="sans-serif" font-size="14" lengthAdjust="spacing" textLength="112" x="883.5" y="61.432">RelationshipType</text><line style="stroke:#181818;stroke-width:0.5;" x1="855.5" x2="997.5" y1="72" y2="72"/><line style="stroke:#181818;stroke-width:0.5;" x1="855.5" x2="997.5" y1="80" y2="80"/></g><!--reverse link Element to Relationship--><g id="link_Element_Relationship"><path codeLine="20" d="M535.5,109.78 C535.5,130.63 535.5,156.46 535.5,182.13 " fill="none" id="Element-backto-Relationship" style="stroke:#181818;stroke-width:1.0;"/><polygon fill="none" points="528.5,109.78,535.5,89.78,542.5,109.78,528.5,109.78" style="stroke:#181818;stroke-width:1.0;"/></g><!--reverse link Element to Relationship--><g id="link_Element_Relationship"><path codeLine="22" d="M564.02,92.9 C584.38,114.93 610.1,147.59 621.5,182 C645.6,254.78 699.17,354.5 622.5,354.5 " fill="none" id="Element-backto-Relationship-1" style="stroke:#181818;stroke-width:1.0;"/><polygon fill="#181818" points="560.8,89.47,564.0555,98.7653,564.2268,93.111,569.8811,93.2823,560.8,89.47" style="stroke:#181818;stroke-width:1.0;"/></g><!--reverse link Element to Relationship--><g id="link_Element_Relationship"><path codeLine="24" d="M564.03,92.9 C584.4,114.92 610.12,147.59 621.5,182 C650.87,270.83 716.06,392.5 622.5,392.5 " fill="none" id="Element-backto-Relationship-2" style="stroke:#181818;stroke-width:1.0;"/><polygon fill="#181818" points="560.81,89.47,564.0461,98.772,564.2292,93.1181,569.8831,93.3013,560.81,89.47" style="stroke:#181818;stroke-width:1.0;"/></g><!--reverse link RelationshipCompleteness to Relationship--><g id="link_RelationshipCompleteness_Relationship"><path codeLine="21" d="M719.03,94.53 C723.4,164.68 723.64,335.5 622.5,335.5 " fill="none" id="RelationshipCompleteness-backto-Relationship" style="stroke:#181818;stroke-width:1.0;"/><polygon fill="#181818" points="718.7,89.57,715.3005,98.8136,719.0288,94.5592,723.2832,98.2875,718.7,89.57" style="stroke:#181818;stroke-width:1.0;"/></g><!--reverse link RelationshipType to Relationship--><g id="link_RelationshipType_Relationship"><path codeLine="23" d="M914.63,94.19 C881.19,171.12 778.41,373.5 622.5,373.5 " fill="none" id="RelationshipType-backto-Relationship" style="stroke:#181818;stroke-width:1.0;"/><polygon fill="#181818" points="916.5,89.83,909.2606,96.5077,914.5184,94.4205,916.6055,99.6783,916.5,89.83" style="stroke:#181818;stroke-width:1.0;"/></g><!--SRC=[XP71QiCm38RlVWgHUxDxAONHxR3JODqBAAxQ66B9inLAsFRkizCMd6wmd1phrwVVl-o0AS4R3QXEEFKkmATfM_2aU415Q5i3-NlXfCZgi7E3qmdMi1EsaPJcydxiR26z7dFbUI1Fh7E1qLE-gWSKV8WIAAgZT1jWnOSXuvXIcY-EKVnyY5Nl-nGk0rNCjs5HogS0SbnEs7JR_UWzncdpq6tD4oKRNPU7uO867UcPY46OG29uYGHqSP_QGhbqXj8manwNKRb2F4KPW-DJSM5xZ6YLealgR8AHtSTOF08ov7pAcuMDzgZpq6jK1JGReqFHrdP4UuetNGB7a2H7UiQfDORu02K4qrm53Mo-LYjeQfUDMVpkgg2p_5wzNjURQ6hoRsdPqHs-REXFxVqQ_q6hD3y0]--></g></svg>