<?xml version="1.0" encoding="us-ascii" standalone="no"?><svg xmlns="http://www.w3.org/2000/svg" xmlns:xlink="http://www.w3.org/1999/xlink" contentStyleType="text/css" height="521px" preserveAspectRatio="none" style="width:1012px;height:521px;background:#FFFFFF;" version="1.1" viewBox="0 0 1012 521" width="1012px" zoomAndPan="magnify"><defs/><g><!--class Relationship--><g id="elem_Relationship"><rect codeLine="1" fill="#F1F1F1" height="219.6113" id="Relationship" rx="2.5" ry="2.5" style="stroke:#181818;stroke-width:0.5;" width="172" x="530.5" y="295"/><ellipse cx="572.5" cy="311" fill="#ADD1B2" rx="11" ry="11" style="stroke:#181818;stroke-width:1.0;"/><path d="M572.2969,317.7344 Q569.8125,317.7344 568.4844,316.0938 Q567.1719,314.4219 567.1719,311.3125 Q567.1719,308.1875 568.4844,306.5313 Q569.8125,304.875 572.2969,304.875 Q573.0156,304.875 573.6719,305.0313 Q574.3125,305.1875 574.875,305.4844 L574.875,308.2031 Q574.5156,307.8594 574.2188,307.6719 Q573.9219,307.4688 573.6563,307.3438 Q573.3438,307.2031 573.0313,307.1406 Q572.7344,307.0781 572.4219,307.0781 Q571.0938,307.0781 570.4063,308.1406 Q569.7188,309.2344 569.7188,311.3125 Q569.7188,313.4063 570.4063,314.4688 Q571.0938,315.5469 572.4219,315.5469 Q573.0625,315.5469 573.6563,315.2656 Q573.9531,315.1406 574.2344,314.9531 Q574.5313,314.75 574.875,314.4219 L574.875,317.1406 Q574.2969,317.4375 573.6563,317.5938 Q573.0156,317.7344 572.2969,317.7344 Z " fill="#000000"/><text fill="#000000" font-family="sans-serif" font-size="14" lengthAdjust="spacing" textLength="80" x="592.5" y="316.432">Relationship</text><line style="stroke:#181818;stroke-width:0.5;" x1="531.5" x2="701.5" y1="327" y2="327"/><text fill="#000000" font-family="sans-serif" font-size="14" lengthAdjust="spacing" textLength="160" x="536.5" y="369.0339">Instantiability : Concrete</text><text fill="#000000" font-family="sans-serif" font-size="14" lengthAdjust="spacing" textLength="137" x="536.5" y="388.1018">SubclassOf : Element</text><text fill="#000000" font-family="sans-serif" font-size="14" lengthAdjust="spacing" textLength="128" x="536.5" y="407.1697">name : Relationship</text><line style="stroke:#181818;stroke-width:1.0;stroke-dasharray:1.0,2.0;" x1="531.5" x2="584" y1="344.534" y2="344.534"/><text fill="#000000" font-family="sans-serif" font-size="14" lengthAdjust="spacing" textLength="65" x="584" y="349.4659">metadata</text><line style="stroke:#181818;stroke-width:1.0;stroke-dasharray:1.0,2.0;" x1="649" x2="701.5" y1="344.534" y2="344.534"/><text fill="#000000" font-family="sans-serif" font-size="14" lengthAdjust="spacing" textLength="92" x="536.5" y="449.3055">completeness</text><text fill="#000000" font-family="sans-serif" font-size="14" lengthAdjust="spacing" textLength="32" x="536.5" y="468.3734">from</text><text fill="#000000" font-family="sans-serif" font-size="14" lengthAdjust="spacing" textLength="108" x="536.5" y="487.4414">relationshipType</text><text fill="#000000" font-family="sans-serif" font-size="14" lengthAdjust="spacing" textLength="15" x="536.5" y="506.5093">to</text><line style="stroke:#181818;stroke-width:1.0;stroke-dasharray:1.0,2.0;" x1="531.5" x2="583" y1="424.8056" y2="424.8056"/><text fill="#000000" font-family="sans-serif" font-size="14" lengthAdjust="spacing" textLength="67" x="583" y="429.7376">properties</text><line style="stroke:#181818;stroke-width:1.0;stroke-dasharray:1.0,2.0;" x1="650" x2="701.5" y1="424.8056" y2="424.8056"/></g><g id="elem_GMN3"><path d="M6,115 L6,231.2361 A0,0 0 0 0 6,231.2361 L323.66,231.2361 L522.56,347.5 L331.66,231.2361 L457,231.2361 A0,0 0 0 0 457,231.2361 L457,125 L447,115 L6,115 A0,0 0 0 0 6,115 " fill="#FEFFDD" style="stroke:#181818;stroke-width:0.5;"/><path d="M447,115 L447,125 L457,125 L447,115 " fill="#FEFFDD" style="stroke:#181818;stroke-width:0.5;"/><text fill="#000000" font-family="sans-serif" font-size="13" font-weight="bold" lengthAdjust="spacing" textLength="62" x="12" y="133.897">Summary</text><text fill="#000000" font-family="sans-serif" font-size="13" lengthAdjust="spacing" textLength="344" x="12" y="151.603">Describes a relationship between one or more elements.</text><text fill="#000000" font-family="sans-serif" font-size="13" font-weight="bold" lengthAdjust="spacing" textLength="81" x="12" y="169.309">Description</text><text fill="#000000" font-family="sans-serif" font-size="13" lengthAdjust="spacing" textLength="412" x="12" y="187.0151">A Relationship is a grouping of characteristics unique to an assertion</text><text fill="#000000" font-family="sans-serif" font-size="13" lengthAdjust="spacing" textLength="430" x="12" y="204.7211">that one Element is related to one or more other Elements in some way.</text><text fill="#000000" font-family="sans-serif" font-size="13" lengthAdjust="spacing" textLength="3" x="12" y="222.4271">&#160;</text></g><!--class Element--><g id="elem_Element"><rect fill="#F1F1F1" height="48" id="Element" rx="2.5" ry="2.5" style="stroke:#181818;stroke-width:0.5;" width="86" x="499.5" y="7"/><ellipse cx="514.5" cy="23" fill="#ADD1B2" rx="11" ry="11" style="stroke:#181818;stroke-width:1.0;"/><path d="M514.2969,29.7344 Q511.8125,29.7344 510.4844,28.0938 Q509.1719,26.4219 509.1719,23.3125 Q509.1719,20.1875 510.4844,18.5313 Q511.8125,16.875 514.2969,16.875 Q515.0156,16.875 515.6719,17.0313 Q516.3125,17.1875 516.875,17.4844 L516.875,20.2031 Q516.5156,19.8594 516.2188,19.6719 Q515.9219,19.4688 515.6563,19.3438 Q515.3438,19.2031 515.0313,19.1406 Q514.7344,19.0781 514.4219,19.0781 Q513.0938,19.0781 512.4063,20.1406 Q511.7188,21.2344 511.7188,23.3125 Q511.7188,25.4063 512.4063,26.4688 Q513.0938,27.5469 514.4219,27.5469 Q515.0625,27.5469 515.6563,27.2656 Q515.9531,27.1406 516.2344,26.9531 Q516.5313,26.75 516.875,26.4219 L516.875,29.1406 Q516.2969,29.4375 515.6563,29.5938 Q515.0156,29.7344 514.2969,29.7344 Z " fill="#000000"/><text fill="#000000" font-family="sans-serif" font-size="14" lengthAdjust="spacing" textLength="54" x="528.5" y="28.432">Element</text><line style="stroke:#181818;stroke-width:0.5;" x1="500.5" x2="584.5" y1="39" y2="39"/><line style="stroke:#181818;stroke-width:0.5;" x1="500.5" x2="584.5" y1="47" y2="47"/></g><!--class RelationshipCompleteness--><g id="elem_RelationshipCompleteness"><rect fill="#F1F1F1" height="48" id="RelationshipCompleteness" rx="2.5" ry="2.5" style="stroke:#181818;stroke-width:0.5;" width="206" x="620.5" y="7"/><ellipse cx="635.5" cy="23" fill="#ADD1B2" rx="11" ry="11" style="stroke:#181818;stroke-width:1.0;"/><path d="M635.2969,29.7344 Q632.8125,29.7344 631.4844,28.0938 Q630.1719,26.4219 630.1719,23.3125 Q630.1719,20.1875 631.4844,18.5313 Q632.8125,16.875 635.2969,16.875 Q636.0156,16.875 636.6719,17.0313 Q637.3125,17.1875 637.875,17.4844 L637.875,20.2031 Q637.5156,19.8594 637.2188,19.6719 Q636.9219,19.4688 636.6563,19.3438 Q636.3438,19.2031 636.0313,19.1406 Q635.7344,19.0781 635.4219,19.0781 Q634.0938,19.0781 633.4063,20.1406 Q632.7188,21.2344 632.7188,23.3125 Q632.7188,25.4063 633.4063,26.4688 Q634.0938,27.5469 635.4219,27.5469 Q636.0625,27.5469 636.6563,27.2656 Q636.9531,27.1406 637.2344,26.9531 Q637.5313,26.75 637.875,26.4219 L637.875,29.1406 Q637.2969,29.4375 636.6563,29.5938 Q636.0156,29.7344 635.2969,29.7344 Z " fill="#000000"/><text fill="#000000" font-family="sans-serif" font-size="14" lengthAdjust="spacing" textLength="174" x="649.5" y="28.432">RelationshipCompleteness</text><line style="stroke:#181818;stroke-width:0.5;" x1="621.5" x2="825.5" y1="39" y2="39"/><line style="stroke:#181818;stroke-width:0.5;" x1="621.5" x2="825.5" y1="47" y2="47"/></g><!--class RelationshipType--><g id="elem_RelationshipType"><rect fill="#F1F1F1" height="48" id="RelationshipType" rx="2.5" ry="2.5" style="stroke:#181818;stroke-width:0.5;" width="144" x="861.5" y="7"/><ellipse cx="876.5" cy="23" fill="#ADD1B2" rx="11" ry="11" style="stroke:#181818;stroke-width:1.0;"/><path d="M876.2969,29.7344 Q873.8125,29.7344 872.4844,28.0938 Q871.1719,26.4219 871.1719,23.3125 Q871.1719,20.1875 872.4844,18.5313 Q873.8125,16.875 876.2969,16.875 Q877.0156,16.875 877.6719,17.0313 Q878.3125,17.1875 878.875,17.4844 L878.875,20.2031 Q878.5156,19.8594 878.2188,19.6719 Q877.9219,19.4688 877.6563,19.3438 Q877.3438,19.2031 877.0313,19.1406 Q876.7344,19.0781 876.4219,19.0781 Q875.0938,19.0781 874.4063,20.1406 Q873.7188,21.2344 873.7188,23.3125 Q873.7188,25.4063 874.4063,26.4688 Q875.0938,27.5469 876.4219,27.5469 Q877.0625,27.5469 877.6563,27.2656 Q877.9531,27.1406 878.2344,26.9531 Q878.5313,26.75 878.875,26.4219 L878.875,29.1406 Q878.2969,29.4375 877.6563,29.5938 Q877.0156,29.7344 876.2969,29.7344 Z " fill="#000000"/><text fill="#000000" font-family="sans-serif" font-size="14" lengthAdjust="spacing" textLength="112" x="890.5" y="28.432">RelationshipType</text><line style="stroke:#181818;stroke-width:0.5;" x1="862.5" x2="1004.5" y1="39" y2="39"/><line style="stroke:#181818;stroke-width:0.5;" x1="862.5" x2="1004.5" y1="47" y2="47"/></g><!--reverse link Element to Relationship--><g id="link_Element_Relationship"><path codeLine="20" d="M541.94,76.54 C542.24,117.18 544.76,178.69 555.5,231 C559.56,250.76 565.36,271.33 571.78,291.09 " fill="none" id="Element-backto-Relationship" style="stroke:#181818;stroke-width:4.0;"/><polygon fill="none" points="534.94,76.76,541.97,56.77,548.94,76.78,534.94,76.76" style="stroke:#181818;stroke-width:4.0;"/></g><!--reverse link Element to Relationship--><g id="link_Element_Relationship"><path codeLine="22" d="M550.05,61.47 C553.7,77.23 557.68,97.04 559.5,115 C564.7,166.29 571.01,180.75 559.5,231 C552.89,259.87 537.19,262.15 530.5,291 C513.17,365.68 452.83,463.5 529.5,463.5 " fill="none" id="Element-backto-Relationship-1" style="stroke:#181818;stroke-width:1.0;"/><polygon fill="#181818" points="548.96,56.89,547.1482,66.5708,550.1155,61.7546,554.9317,64.7219,548.96,56.89" style="stroke:#181818;stroke-width:1.0;"/></g><!--reverse link Element to Relationship--><g id="link_Element_Relationship"><path codeLine="24" d="M564.7,60.21 C642.92,161.59 891.2,501.5 703.5,501.5 " fill="none" id="Element-backto-Relationship-2" style="stroke:#181818;stroke-width:1.0;"/><polygon fill="#181818" points="561.81,56.48,564.1636,66.0435,564.8738,60.4314,570.4859,61.1415,561.81,56.48" style="stroke:#181818;stroke-width:1.0;"/></g><!--reverse link RelationshipCompleteness to Relationship--><g id="link_RelationshipCompleteness_Relationship"><path codeLine="21" d="M734.31,61.28 C767.58,155.45 857.15,444.5 703.5,444.5 " fill="none" id="RelationshipCompleteness-backto-Relationship" style="stroke:#181818;stroke-width:1.0;"/><polygon fill="#181818" points="732.72,56.79,731.9574,66.6093,734.3908,61.5026,739.4975,63.936,732.72,56.79" style="stroke:#181818;stroke-width:1.0;"/></g><!--reverse link RelationshipType to Relationship--><g id="link_RelationshipType_Relationship"><path codeLine="23" d="M932.3,61.55 C926.52,161.76 893.19,482.5 703.5,482.5 " fill="none" id="RelationshipType-backto-Relationship" style="stroke:#181818;stroke-width:1.0;"/><polygon fill="#181818" points="932.56,56.78,928.078,65.5499,932.289,61.7726,936.0663,65.9836,932.56,56.78" style="stroke:#181818;stroke-width:1.0;"/></g><!--SRC=[XL71JiCm3BtdAwpUMowSfZ493GwSa1WtnC7DF1hHs25nDLN0lvDqczHDayWfiP_VUtcsFQO4BzIZEk7KkG3Vfcd0a-8M5Q5f3EJpn4cHrM7hUgSZB60jR2CfJUtDqDh2zBpBdSUUFB5E3KPFkJGNAFGXIg2eZj99m8eFVQPZIcagxABuwH9diwzZE0Ygc5_3efHl0MHthh1iLvl1UupZygPTcGTADhesY-4P6xIaUo86OGA9u2KIqC5zQWhBOJAKWOdf_ZmgLnW_eWp1yKTnOJkCQ9MYI-fiWe7Trr0y0ZBaVCgVXOrsg9FeCQf2D1cZRS7ExOXs54-u18uXIOvqZsDZ3F4MIWYcEW8gMFxKRzev-rc2lBjzhw6QMwxCsNCzIptFrlK5VB6OxwMQwrp1bfLT29I5NGTVhlK_SfNg3m00]--></g></svg>