<?xml version="1.0" encoding="us-ascii" standalone="no"?><svg xmlns="http://www.w3.org/2000/svg" xmlns:xlink="http://www.w3.org/1999/xlink" contentStyleType="text/css" height="345px" preserveAspectRatio="none" style="width:680px;height:345px;background:#FFFFFF;" version="1.1" viewBox="0 0 680 345" width="680px" zoomAndPan="magnify"><defs/><g><!--class Relationship--><g id="elem_Relationship"><rect codeLine="1" fill="#F1F1F1" height="219.6113" id="Relationship" rx="2.5" ry="2.5" style="stroke:#181818;stroke-width:0.5;" width="172" x="7" y="119"/><ellipse cx="49" cy="135" fill="#ADD1B2" rx="11" ry="11" style="stroke:#181818;stroke-width:1.0;"/><path d="M48.7969,141.7344 Q46.3125,141.7344 44.9844,140.0938 Q43.6719,138.4219 43.6719,135.3125 Q43.6719,132.1875 44.9844,130.5313 Q46.3125,128.875 48.7969,128.875 Q49.5156,128.875 50.1719,129.0313 Q50.8125,129.1875 51.375,129.4844 L51.375,132.2031 Q51.0156,131.8594 50.7188,131.6719 Q50.4219,131.4688 50.1563,131.3438 Q49.8438,131.2031 49.5313,131.1406 Q49.2344,131.0781 48.9219,131.0781 Q47.5938,131.0781 46.9063,132.1406 Q46.2188,133.2344 46.2188,135.3125 Q46.2188,137.4063 46.9063,138.4688 Q47.5938,139.5469 48.9219,139.5469 Q49.5625,139.5469 50.1563,139.2656 Q50.4531,139.1406 50.7344,138.9531 Q51.0313,138.75 51.375,138.4219 L51.375,141.1406 Q50.7969,141.4375 50.1563,141.5938 Q49.5156,141.7344 48.7969,141.7344 Z " fill="#000000"/><text fill="#000000" font-family="sans-serif" font-size="14" lengthAdjust="spacing" textLength="80" x="69" y="140.432">Relationship</text><line style="stroke:#181818;stroke-width:0.5;" x1="8" x2="178" y1="151" y2="151"/><text fill="#000000" font-family="sans-serif" font-size="14" lengthAdjust="spacing" textLength="160" x="13" y="193.0339">Instantiability : Concrete</text><text fill="#000000" font-family="sans-serif" font-size="14" lengthAdjust="spacing" textLength="137" x="13" y="212.1018">SubclassOf : Element</text><text fill="#000000" font-family="sans-serif" font-size="14" lengthAdjust="spacing" textLength="128" x="13" y="231.1697">name : Relationship</text><line style="stroke:#181818;stroke-width:1.0;stroke-dasharray:1.0,2.0;" x1="8" x2="60.5" y1="168.534" y2="168.534"/><text fill="#000000" font-family="sans-serif" font-size="14" lengthAdjust="spacing" textLength="65" x="60.5" y="173.4659">metadata</text><line style="stroke:#181818;stroke-width:1.0;stroke-dasharray:1.0,2.0;" x1="125.5" x2="178" y1="168.534" y2="168.534"/><text fill="#000000" font-family="sans-serif" font-size="14" lengthAdjust="spacing" textLength="92" x="13" y="273.3055">completeness</text><text fill="#000000" font-family="sans-serif" font-size="14" lengthAdjust="spacing" textLength="32" x="13" y="292.3734">from</text><text fill="#000000" font-family="sans-serif" font-size="14" lengthAdjust="spacing" textLength="108" x="13" y="311.4414">relationshipType</text><text fill="#000000" font-family="sans-serif" font-size="14" lengthAdjust="spacing" textLength="15" x="13" y="330.5093">to</text><line style="stroke:#181818;stroke-width:1.0;stroke-dasharray:1.0,2.0;" x1="8" x2="59.5" y1="248.8056" y2="248.8056"/><text fill="#000000" font-family="sans-serif" font-size="14" lengthAdjust="spacing" textLength="67" x="59.5" y="253.7376">properties</text><line style="stroke:#181818;stroke-width:1.0;stroke-dasharray:1.0,2.0;" x1="126.5" x2="178" y1="248.8056" y2="248.8056"/></g><g id="elem_GMN3"><path d="M222.5,170.5 L222.5,224.5 L186.95,228.5 L222.5,232.5 L222.5,286.7361 A0,0 0 0 0 222.5,286.7361 L673.5,286.7361 A0,0 0 0 0 673.5,286.7361 L673.5,180.5 L663.5,170.5 L222.5,170.5 A0,0 0 0 0 222.5,170.5 " fill="#FEFFDD" style="stroke:#181818;stroke-width:0.5;"/><path d="M663.5,170.5 L663.5,180.5 L673.5,180.5 L663.5,170.5 " fill="#FEFFDD" style="stroke:#181818;stroke-width:0.5;"/><text fill="#000000" font-family="sans-serif" font-size="13" font-weight="bold" lengthAdjust="spacing" textLength="62" x="228.5" y="189.397">Summary</text><text fill="#000000" font-family="sans-serif" font-size="13" lengthAdjust="spacing" textLength="344" x="228.5" y="207.103">Describes a relationship between one or more elements.</text><text fill="#000000" font-family="sans-serif" font-size="13" font-weight="bold" lengthAdjust="spacing" textLength="81" x="228.5" y="224.809">Description</text><text fill="#000000" font-family="sans-serif" font-size="13" lengthAdjust="spacing" textLength="412" x="228.5" y="242.5151">A Relationship is a grouping of characteristics unique to an assertion</text><text fill="#000000" font-family="sans-serif" font-size="13" lengthAdjust="spacing" textLength="430" x="228.5" y="260.2211">that one Element is related to one or more other Elements in some way.</text><text fill="#000000" font-family="sans-serif" font-size="13" lengthAdjust="spacing" textLength="3" x="228.5" y="277.9271">&#160;</text></g><!--class Element--><g id="elem_Element"><rect fill="#F1F1F1" height="48" id="Element" rx="2.5" ry="2.5" style="stroke:#181818;stroke-width:0.5;" width="86" x="50" y="7"/><ellipse cx="65" cy="23" fill="#ADD1B2" rx="11" ry="11" style="stroke:#181818;stroke-width:1.0;"/><path d="M64.7969,29.7344 Q62.3125,29.7344 60.9844,28.0938 Q59.6719,26.4219 59.6719,23.3125 Q59.6719,20.1875 60.9844,18.5313 Q62.3125,16.875 64.7969,16.875 Q65.5156,16.875 66.1719,17.0313 Q66.8125,17.1875 67.375,17.4844 L67.375,20.2031 Q67.0156,19.8594 66.7188,19.6719 Q66.4219,19.4688 66.1563,19.3438 Q65.8438,19.2031 65.5313,19.1406 Q65.2344,19.0781 64.9219,19.0781 Q63.5938,19.0781 62.9063,20.1406 Q62.2188,21.2344 62.2188,23.3125 Q62.2188,25.4063 62.9063,26.4688 Q63.5938,27.5469 64.9219,27.5469 Q65.5625,27.5469 66.1563,27.2656 Q66.4531,27.1406 66.7344,26.9531 Q67.0313,26.75 67.375,26.4219 L67.375,29.1406 Q66.7969,29.4375 66.1563,29.5938 Q65.5156,29.7344 64.7969,29.7344 Z " fill="#000000"/><text fill="#000000" font-family="sans-serif" font-size="14" lengthAdjust="spacing" textLength="54" x="79" y="28.432">Element</text><line style="stroke:#181818;stroke-width:0.5;" x1="51" x2="135" y1="39" y2="39"/><line style="stroke:#181818;stroke-width:0.5;" x1="51" x2="135" y1="47" y2="47"/></g><!--class RelationshipCompleteness--><g id="elem_RelationshipCompleteness"><rect fill="#F1F1F1" height="48" id="RelationshipCompleteness" rx="2.5" ry="2.5" style="stroke:#181818;stroke-width:0.5;" width="206" x="171" y="7"/><ellipse cx="186" cy="23" fill="#ADD1B2" rx="11" ry="11" style="stroke:#181818;stroke-width:1.0;"/><path d="M185.7969,29.7344 Q183.3125,29.7344 181.9844,28.0938 Q180.6719,26.4219 180.6719,23.3125 Q180.6719,20.1875 181.9844,18.5313 Q183.3125,16.875 185.7969,16.875 Q186.5156,16.875 187.1719,17.0313 Q187.8125,17.1875 188.375,17.4844 L188.375,20.2031 Q188.0156,19.8594 187.7188,19.6719 Q187.4219,19.4688 187.1563,19.3438 Q186.8438,19.2031 186.5313,19.1406 Q186.2344,19.0781 185.9219,19.0781 Q184.5938,19.0781 183.9063,20.1406 Q183.2188,21.2344 183.2188,23.3125 Q183.2188,25.4063 183.9063,26.4688 Q184.5938,27.5469 185.9219,27.5469 Q186.5625,27.5469 187.1563,27.2656 Q187.4531,27.1406 187.7344,26.9531 Q188.0313,26.75 188.375,26.4219 L188.375,29.1406 Q187.7969,29.4375 187.1563,29.5938 Q186.5156,29.7344 185.7969,29.7344 Z " fill="#000000"/><text fill="#000000" font-family="sans-serif" font-size="14" lengthAdjust="spacing" textLength="174" x="200" y="28.432">RelationshipCompleteness</text><line style="stroke:#181818;stroke-width:0.5;" x1="172" x2="376" y1="39" y2="39"/><line style="stroke:#181818;stroke-width:0.5;" x1="172" x2="376" y1="47" y2="47"/></g><!--class RelationshipType--><g id="elem_RelationshipType"><rect fill="#F1F1F1" height="48" id="RelationshipType" rx="2.5" ry="2.5" style="stroke:#181818;stroke-width:0.5;" width="144" x="412" y="7"/><ellipse cx="427" cy="23" fill="#ADD1B2" rx="11" ry="11" style="stroke:#181818;stroke-width:1.0;"/><path d="M426.7969,29.7344 Q424.3125,29.7344 422.9844,28.0938 Q421.6719,26.4219 421.6719,23.3125 Q421.6719,20.1875 422.9844,18.5313 Q424.3125,16.875 426.7969,16.875 Q427.5156,16.875 428.1719,17.0313 Q428.8125,17.1875 429.375,17.4844 L429.375,20.2031 Q429.0156,19.8594 428.7188,19.6719 Q428.4219,19.4688 428.1563,19.3438 Q427.8438,19.2031 427.5313,19.1406 Q427.2344,19.0781 426.9219,19.0781 Q425.5938,19.0781 424.9063,20.1406 Q424.2188,21.2344 424.2188,23.3125 Q424.2188,25.4063 424.9063,26.4688 Q425.5938,27.5469 426.9219,27.5469 Q427.5625,27.5469 428.1563,27.2656 Q428.4531,27.1406 428.7344,26.9531 Q429.0313,26.75 429.375,26.4219 L429.375,29.1406 Q428.7969,29.4375 428.1563,29.5938 Q427.5156,29.7344 426.7969,29.7344 Z " fill="#000000"/><text fill="#000000" font-family="sans-serif" font-size="14" lengthAdjust="spacing" textLength="112" x="441" y="28.432">RelationshipType</text><line style="stroke:#181818;stroke-width:0.5;" x1="413" x2="555" y1="39" y2="39"/><line style="stroke:#181818;stroke-width:0.5;" x1="413" x2="555" y1="47" y2="47"/></g><!--link Element to Relationship--><g id="link_Element_Relationship"><path codeLine="20" d="M93,55.19 C93,65.78 93,79.24 93,93.96 " fill="none" id="Element-to-Relationship" style="stroke:#181818;stroke-width:1.0;"/><polygon fill="none" points="100,93.91,93,113.91,86,93.91,100,93.91" style="stroke:#181818;stroke-width:1.0;"/></g><!--reverse link Element to Relationship--><g id="link_Element_Relationship"><path codeLine="22" d="M133.08,59.1 C150.66,73.43 169.45,92.68 179,115 C194.09,150.24 218.33,287.5 180,287.5 " fill="none" id="Element-backto-Relationship" style="stroke:#181818;stroke-width:1.0;"/><polygon fill="#181818" points="129.35,56.13,133.9024,64.8636,133.2627,59.243,138.8833,58.6033,129.35,56.13" style="stroke:#181818;stroke-width:1.0;"/></g><!--reverse link Element to Relationship--><g id="link_Element_Relationship"><path codeLine="24" d="M133.09,59.09 C150.67,73.42 169.46,92.68 179,115 C188.19,136.51 203.39,325.5 180,325.5 " fill="none" id="Element-backto-Relationship-1" style="stroke:#181818;stroke-width:1.0;"/><polygon fill="#181818" points="129.36,56.12,133.9124,64.8536,133.2727,59.233,138.8933,58.5933,129.36,56.12" style="stroke:#181818;stroke-width:1.0;"/></g><!--reverse link RelationshipCompleteness to Relationship--><g id="link_RelationshipCompleteness_Relationship"><path codeLine="21" d="M244.35,59.86 C230.21,74.85 214.36,94.45 205,115 C190.67,146.45 214.56,268.5 180,268.5 " fill="none" id="RelationshipCompleteness-backto-Relationship" style="stroke:#181818;stroke-width:1.0;"/><polygon fill="#181818" points="247.63,56.45,238.5034,60.1521,244.1593,60.0492,244.2622,65.7051,247.63,56.45" style="stroke:#181818;stroke-width:1.0;"/></g><!--reverse link RelationshipType to Relationship--><g id="link_RelationshipType_Relationship"><path codeLine="23" d="M405.44,53.12 C325.31,74.99 211.75,107.08 205,115 C177.16,147.67 222.92,306.5 180,306.5 " fill="none" id="RelationshipType-backto-Relationship" style="stroke:#181818;stroke-width:1.0;"/><polygon fill="#181818" points="410.17,51.83,400.4354,50.3341,405.3455,53.1432,402.5365,58.0533,410.17,51.83" style="stroke:#181818;stroke-width:1.0;"/></g><!--SRC=[XP71QiCm44Jl-eh5TxltO08bxQ6dGjCVM2kRM63jgjAQODh-UoKd0Ji4wfEj7RqPpze1Ku8F6b2TSEfTW6_JDE19yO2Aq3G6ylF6IP7LOUS6fnDiO2Ti8odDu_tOsK9wF-R9wq2UMES1ewTyj3Ge-10bK5H7wMPWnOSXuvXIcW-EKVpy4XTtFwTmCLGnluP52Q8xzGfoN7kqtNO_UeznQf-whNcXPAFhiXskUD2HdeaOX0aaWfT8G9VygIcKoyrGBioavtLPhX1FKSRW-5HIs1uZMgNeaZgRO6JtDLBE2yYG6of_BMoqHvrDhsKLq1oC3aMxZ2FQKxpf4ZY69BdKCqwDCSG7A3MOwYgeeAv_jb0jKrPczRbRL5r1MzThzMQpt4Mr83-GbYtTuSkE7chl5_aFMgNw0m00]--></g></svg>