<?xml version="1.0" encoding="us-ascii" standalone="no"?><svg xmlns="http://www.w3.org/2000/svg" xmlns:xlink="http://www.w3.org/1999/xlink" contentStyleType="text/css" height="301px" preserveAspectRatio="none" style="width:171px;height:301px;background:#FFFFFF;" version="1.1" viewBox="0 0 171 301" width="171px" zoomAndPan="magnify"><defs/><g><!--class SemVer--><g id="elem_SemVer"><rect codeLine="1" fill="#F1F1F1" height="129.8056" id="SemVer" rx="2.5" ry="2.5" style="stroke:#181818;stroke-width:0.5;" width="157" x="7" y="165"/><ellipse cx="56.25" cy="181" fill="#ADD1B2" rx="11" ry="11" style="stroke:#181818;stroke-width:1.0;"/><path d="M56.0469,187.7344 Q53.5625,187.7344 52.2344,186.0938 Q50.9219,184.4219 50.9219,181.3125 Q50.9219,178.1875 52.2344,176.5313 Q53.5625,174.875 56.0469,174.875 Q56.7656,174.875 57.4219,175.0313 Q58.0625,175.1875 58.625,175.4844 L58.625,178.2031 Q58.2656,177.8594 57.9688,177.6719 Q57.6719,177.4688 57.4063,177.3438 Q57.0938,177.2031 56.7813,177.1406 Q56.4844,177.0781 56.1719,177.0781 Q54.8438,177.0781 54.1563,178.1406 Q53.4688,179.2344 53.4688,181.3125 Q53.4688,183.4063 54.1563,184.4688 Q54.8438,185.5469 56.1719,185.5469 Q56.8125,185.5469 57.4063,185.2656 Q57.7031,185.1406 57.9844,184.9531 Q58.2813,184.75 58.625,184.4219 L58.625,187.1406 Q58.0469,187.4375 57.4063,187.5938 Q56.7656,187.7344 56.0469,187.7344 Z " fill="#000000"/><text fill="#000000" font-family="sans-serif" font-size="14" lengthAdjust="spacing" textLength="50" x="76.75" y="186.432">SemVer</text><line style="stroke:#181818;stroke-width:0.5;" x1="8" x2="163" y1="197" y2="197"/><text fill="#000000" font-family="sans-serif" font-size="14" lengthAdjust="spacing" textLength="145" x="13" y="239.0339">SubclassOf : xsd:string</text><text fill="#000000" font-family="sans-serif" font-size="14" lengthAdjust="spacing" textLength="98" x="13" y="258.1018">name : SemVer</text><line style="stroke:#181818;stroke-width:1.0;stroke-dasharray:1.0,2.0;" x1="8" x2="53" y1="214.534" y2="214.534"/><text fill="#000000" font-family="sans-serif" font-size="14" lengthAdjust="spacing" textLength="65" x="53" y="219.4659">metadata</text><line style="stroke:#181818;stroke-width:1.0;stroke-dasharray:1.0,2.0;" x1="118" x2="163" y1="214.534" y2="214.534"/><line style="stroke:#181818;stroke-width:1.0;stroke-dasharray:1.0,2.0;" x1="8" x2="52" y1="275.7377" y2="275.7377"/><text fill="#000000" font-family="sans-serif" font-size="14" lengthAdjust="spacing" textLength="67" x="52" y="280.6697">properties</text><line style="stroke:#181818;stroke-width:1.0;stroke-dasharray:1.0,2.0;" x1="119" x2="163" y1="275.7377" y2="275.7377"/></g><g id="elem_GMN3"><path d="M34.5,6 L34.5,104.5301 A0,0 0 0 0 34.5,104.5301 L81.5,104.5301 L85.5,164.75 L89.5,104.5301 L136.5,104.5301 A0,0 0 0 0 136.5,104.5301 L136.5,16 L126.5,6 L34.5,6 A0,0 0 0 0 34.5,6 " fill="#FEFFDD" style="stroke:#181818;stroke-width:0.5;"/><path d="M126.5,6 L126.5,16 L136.5,16 L126.5,6 " fill="#FEFFDD" style="stroke:#181818;stroke-width:0.5;"/><text fill="#000000" font-family="sans-serif" font-size="13" font-weight="bold" lengthAdjust="spacing" textLength="62" x="40.5" y="24.897">Summary</text><text fill="#000000" font-family="sans-serif" font-size="13" lengthAdjust="spacing" textLength="38" x="40.5" y="42.603">TODO</text><text fill="#000000" font-family="sans-serif" font-size="13" font-weight="bold" lengthAdjust="spacing" textLength="81" x="40.5" y="60.309">Description</text><text fill="#000000" font-family="sans-serif" font-size="13" lengthAdjust="spacing" textLength="38" x="40.5" y="78.0151">TODO</text><text fill="#000000" font-family="sans-serif" font-size="13" lengthAdjust="spacing" textLength="3" x="40.5" y="95.7211">&#160;</text></g><!--SRC=[HOmx3i8m44Hxds9FOFeeIfNUXH7zsjuWI_YZtOq4GjoT68IOyisyYJSK0K_bGWnFOoqKKaoe2DOQEEBt4CV8RJ31NT8aohbUFrt5GWVzwaFkt3gnPfAXlqnjIg2jGzj-gpaiVYy5-J6VmcBERdM3hIIHSzVSwfyRgWd6nni0]--></g></svg>