<?xml version="1.0" encoding="us-ascii" standalone="no"?><svg xmlns="http://www.w3.org/2000/svg" xmlns:xlink="http://www.w3.org/1999/xlink" contentStyleType="text/css" height="270px" preserveAspectRatio="none" style="width:671px;height:270px;background:#FFFFFF;" version="1.1" viewBox="0 0 671 270" width="671px" zoomAndPan="magnify"><defs/><g><!--class Tool--><g id="elem_Tool"><rect codeLine="1" fill="#F1F1F1" height="148.8735" id="Tool" rx="2.5" ry="2.5" style="stroke:#181818;stroke-width:0.5;" width="172" x="7" y="115"/><ellipse cx="73.75" cy="131" fill="#ADD1B2" rx="11" ry="11" style="stroke:#181818;stroke-width:1.0;"/><path d="M73.5469,137.7344 Q71.0625,137.7344 69.7344,136.0938 Q68.4219,134.4219 68.4219,131.3125 Q68.4219,128.1875 69.7344,126.5313 Q71.0625,124.875 73.5469,124.875 Q74.2656,124.875 74.9219,125.0313 Q75.5625,125.1875 76.125,125.4844 L76.125,128.2031 Q75.7656,127.8594 75.4688,127.6719 Q75.1719,127.4688 74.9063,127.3438 Q74.5938,127.2031 74.2813,127.1406 Q73.9844,127.0781 73.6719,127.0781 Q72.3438,127.0781 71.6563,128.1406 Q70.9688,129.2344 70.9688,131.3125 Q70.9688,133.4063 71.6563,134.4688 Q72.3438,135.5469 73.6719,135.5469 Q74.3125,135.5469 74.9063,135.2656 Q75.2031,135.1406 75.4844,134.9531 Q75.7813,134.75 76.125,134.4219 L76.125,137.1406 Q75.5469,137.4375 74.9063,137.5938 Q74.2656,137.7344 73.5469,137.7344 Z " fill="#000000"/><text fill="#000000" font-family="sans-serif" font-size="14" lengthAdjust="spacing" textLength="30" x="94.25" y="136.432">Tool</text><line style="stroke:#181818;stroke-width:0.5;" x1="8" x2="178" y1="147" y2="147"/><text fill="#000000" font-family="sans-serif" font-size="14" lengthAdjust="spacing" textLength="160" x="13" y="189.0339">Instantiability : Concrete</text><text fill="#000000" font-family="sans-serif" font-size="14" lengthAdjust="spacing" textLength="121" x="13" y="208.1018">SubclassOf : Entity</text><text fill="#000000" font-family="sans-serif" font-size="14" lengthAdjust="spacing" textLength="78" x="13" y="227.1697">name : Tool</text><line style="stroke:#181818;stroke-width:1.0;stroke-dasharray:1.0,2.0;" x1="8" x2="60.5" y1="164.534" y2="164.534"/><text fill="#000000" font-family="sans-serif" font-size="14" lengthAdjust="spacing" textLength="65" x="60.5" y="169.4659">metadata</text><line style="stroke:#181818;stroke-width:1.0;stroke-dasharray:1.0,2.0;" x1="125.5" x2="178" y1="164.534" y2="164.534"/><line style="stroke:#181818;stroke-width:1.0;stroke-dasharray:1.0,2.0;" x1="8" x2="59.5" y1="244.8056" y2="244.8056"/><text fill="#000000" font-family="sans-serif" font-size="14" lengthAdjust="spacing" textLength="67" x="59.5" y="249.7376">properties</text><line style="stroke:#181818;stroke-width:1.0;stroke-dasharray:1.0,2.0;" x1="126.5" x2="178" y1="244.8056" y2="244.8056"/></g><g id="elem_GMN3"><path d="M214,122.5 L214,185.5 L179.5,189.5 L214,193.5 L214,256.4421 A0,0 0 0 0 214,256.4421 L664,256.4421 A0,0 0 0 0 664,256.4421 L664,132.5 L654,122.5 L214,122.5 A0,0 0 0 0 214,122.5 " fill="#FEFFDD" style="stroke:#181818;stroke-width:0.5;"/><path d="M654,122.5 L654,132.5 L664,132.5 L654,122.5 " fill="#FEFFDD" style="stroke:#181818;stroke-width:0.5;"/><text fill="#000000" font-family="sans-serif" font-size="13" font-weight="bold" lengthAdjust="spacing" textLength="62" x="220" y="141.397">Summary</text><text fill="#000000" font-family="sans-serif" font-size="13" lengthAdjust="spacing" textLength="375" x="220" y="159.103">An element of hardware and/or software utilized to carry out a</text><text fill="#000000" font-family="sans-serif" font-size="13" lengthAdjust="spacing" textLength="112" x="220" y="176.809">particular function.</text><text fill="#000000" font-family="sans-serif" font-size="13" font-weight="bold" lengthAdjust="spacing" textLength="81" x="220" y="194.5151">Description</text><text fill="#000000" font-family="sans-serif" font-size="13" lengthAdjust="spacing" textLength="429" x="220" y="212.2211">A Tool is an element of hardware and/or software utilized to carry out a</text><text fill="#000000" font-family="sans-serif" font-size="13" lengthAdjust="spacing" textLength="112" x="220" y="229.9271">particular function.</text><text fill="#000000" font-family="sans-serif" font-size="13" lengthAdjust="spacing" textLength="3" x="220" y="247.6331">&#160;</text></g><!--class Entity--><g id="elem_Entity"><rect fill="#F1F1F1" height="48" id="Entity" rx="2.5" ry="2.5" style="stroke:#181818;stroke-width:0.5;" width="70" x="58" y="7"/><ellipse cx="73" cy="23" fill="#ADD1B2" rx="11" ry="11" style="stroke:#181818;stroke-width:1.0;"/><path d="M72.7969,29.7344 Q70.3125,29.7344 68.9844,28.0938 Q67.6719,26.4219 67.6719,23.3125 Q67.6719,20.1875 68.9844,18.5313 Q70.3125,16.875 72.7969,16.875 Q73.5156,16.875 74.1719,17.0313 Q74.8125,17.1875 75.375,17.4844 L75.375,20.2031 Q75.0156,19.8594 74.7188,19.6719 Q74.4219,19.4688 74.1563,19.3438 Q73.8438,19.2031 73.5313,19.1406 Q73.2344,19.0781 72.9219,19.0781 Q71.5938,19.0781 70.9063,20.1406 Q70.2188,21.2344 70.2188,23.3125 Q70.2188,25.4063 70.9063,26.4688 Q71.5938,27.5469 72.9219,27.5469 Q73.5625,27.5469 74.1563,27.2656 Q74.4531,27.1406 74.7344,26.9531 Q75.0313,26.75 75.375,26.4219 L75.375,29.1406 Q74.7969,29.4375 74.1563,29.5938 Q73.5156,29.7344 72.7969,29.7344 Z " fill="#000000"/><text fill="#000000" font-family="sans-serif" font-size="14" lengthAdjust="spacing" textLength="38" x="87" y="28.432">Entity</text><line style="stroke:#181818;stroke-width:0.5;" x1="59" x2="127" y1="39" y2="39"/><line style="stroke:#181818;stroke-width:0.5;" x1="59" x2="127" y1="47" y2="47"/></g><!--link Entity to Tool--><g id="link_Entity_Tool"><path codeLine="17" d="M93,55.43 C93,66.09 93,79.47 93,93.61 " fill="none" id="Entity-to-Tool" style="stroke:#181818;stroke-width:1.0;"/><polygon fill="none" points="100,93.13,93,113.13,86,93.13,100,93.13" style="stroke:#181818;stroke-width:1.0;"/></g><!--SRC=[hP0nRiCm34LtdOBm7cSl0WD5sw5JX_G2j4Gt0YJIe2WKRfExLxAlK6qaFzuZvHEM0fyY2NxTE48cmu26C8uEsdldOiWMSOufsWPFy2BibOpsyRNElXC-bZPvQpdRzZvZfjRft4vTLLPIYrGwz-5OZ43Zryr0bYDrcQThpHbrkvpdoJqpKA9Cl2TkgE4RbG0vd4MXo69xNQsjzKC1JC2ZwWPI3T2js6o-9bHOAdkBmcDNl5Bn6jTU7vhZz5WQ-V-5ZZX0lzKDnzyCS3hT9nYwTFW3]--></g></svg>