<?xml version="1.0" encoding="us-ascii" standalone="no"?><svg xmlns="http://www.w3.org/2000/svg" xmlns:xlink="http://www.w3.org/1999/xlink" contentStyleType="text/css" height="355px" preserveAspectRatio="none" style="width:568px;height:355px;background:#FFFFFF;" version="1.1" viewBox="0 0 568 355" width="568px" zoomAndPan="magnify"><defs/><g><!--class Tool--><g id="elem_Tool"><rect codeLine="1" fill="#F1F1F1" height="148.8735" id="Tool" rx="2.5" ry="2.5" style="stroke:#181818;stroke-width:0.5;" width="172" x="292" y="200"/><ellipse cx="358.75" cy="216" fill="#ADD1B2" rx="11" ry="11" style="stroke:#181818;stroke-width:1.0;"/><path d="M358.5469,222.7344 Q356.0625,222.7344 354.7344,221.0938 Q353.4219,219.4219 353.4219,216.3125 Q353.4219,213.1875 354.7344,211.5313 Q356.0625,209.875 358.5469,209.875 Q359.2656,209.875 359.9219,210.0313 Q360.5625,210.1875 361.125,210.4844 L361.125,213.2031 Q360.7656,212.8594 360.4688,212.6719 Q360.1719,212.4688 359.9063,212.3438 Q359.5938,212.2031 359.2813,212.1406 Q358.9844,212.0781 358.6719,212.0781 Q357.3438,212.0781 356.6563,213.1406 Q355.9688,214.2344 355.9688,216.3125 Q355.9688,218.4063 356.6563,219.4688 Q357.3438,220.5469 358.6719,220.5469 Q359.3125,220.5469 359.9063,220.2656 Q360.2031,220.1406 360.4844,219.9531 Q360.7813,219.75 361.125,219.4219 L361.125,222.1406 Q360.5469,222.4375 359.9063,222.5938 Q359.2656,222.7344 358.5469,222.7344 Z " fill="#000000"/><text fill="#000000" font-family="sans-serif" font-size="14" lengthAdjust="spacing" textLength="30" x="379.25" y="221.432">Tool</text><line style="stroke:#181818;stroke-width:0.5;" x1="293" x2="463" y1="232" y2="232"/><text fill="#000000" font-family="sans-serif" font-size="14" lengthAdjust="spacing" textLength="160" x="298" y="274.0339">Instantiability : Concrete</text><text fill="#000000" font-family="sans-serif" font-size="14" lengthAdjust="spacing" textLength="121" x="298" y="293.1018">SubclassOf : Entity</text><text fill="#000000" font-family="sans-serif" font-size="14" lengthAdjust="spacing" textLength="78" x="298" y="312.1697">name : Tool</text><line style="stroke:#181818;stroke-width:1.0;stroke-dasharray:1.0,2.0;" x1="293" x2="345.5" y1="249.534" y2="249.534"/><text fill="#000000" font-family="sans-serif" font-size="14" lengthAdjust="spacing" textLength="65" x="345.5" y="254.4659">metadata</text><line style="stroke:#181818;stroke-width:1.0;stroke-dasharray:1.0,2.0;" x1="410.5" x2="463" y1="249.534" y2="249.534"/><line style="stroke:#181818;stroke-width:1.0;stroke-dasharray:1.0,2.0;" x1="293" x2="344.5" y1="329.8056" y2="329.8056"/><text fill="#000000" font-family="sans-serif" font-size="14" lengthAdjust="spacing" textLength="67" x="344.5" y="334.7376">properties</text><line style="stroke:#181818;stroke-width:1.0;stroke-dasharray:1.0,2.0;" x1="411.5" x2="463" y1="329.8056" y2="329.8056"/></g><g id="elem_GMN3"><path d="M6,6 L6,139.9421 A0,0 0 0 0 6,139.9421 L275.95,139.9421 L323.69,199.8 L283.95,139.9421 L456,139.9421 A0,0 0 0 0 456,139.9421 L456,16 L446,6 L6,6 A0,0 0 0 0 6,6 " fill="#FEFFDD" style="stroke:#181818;stroke-width:0.5;"/><path d="M446,6 L446,16 L456,16 L446,6 " fill="#FEFFDD" style="stroke:#181818;stroke-width:0.5;"/><text fill="#000000" font-family="sans-serif" font-size="13" font-weight="bold" lengthAdjust="spacing" textLength="62" x="12" y="24.897">Summary</text><text fill="#000000" font-family="sans-serif" font-size="13" lengthAdjust="spacing" textLength="375" x="12" y="42.603">An element of hardware and/or software utilized to carry out a</text><text fill="#000000" font-family="sans-serif" font-size="13" lengthAdjust="spacing" textLength="112" x="12" y="60.309">particular function.</text><text fill="#000000" font-family="sans-serif" font-size="13" font-weight="bold" lengthAdjust="spacing" textLength="81" x="12" y="78.0151">Description</text><text fill="#000000" font-family="sans-serif" font-size="13" lengthAdjust="spacing" textLength="429" x="12" y="95.7211">A Tool is an element of hardware and/or software utilized to carry out a</text><text fill="#000000" font-family="sans-serif" font-size="13" lengthAdjust="spacing" textLength="112" x="12" y="113.4271">particular function.</text><text fill="#000000" font-family="sans-serif" font-size="13" lengthAdjust="spacing" textLength="3" x="12" y="131.1331">&#160;</text></g><!--class Entity--><g id="elem_Entity"><rect fill="#F1F1F1" height="48" id="Entity" rx="2.5" ry="2.5" style="stroke:#181818;stroke-width:0.5;" width="70" x="491" y="49"/><ellipse cx="506" cy="65" fill="#ADD1B2" rx="11" ry="11" style="stroke:#181818;stroke-width:1.0;"/><path d="M505.7969,71.7344 Q503.3125,71.7344 501.9844,70.0938 Q500.6719,68.4219 500.6719,65.3125 Q500.6719,62.1875 501.9844,60.5313 Q503.3125,58.875 505.7969,58.875 Q506.5156,58.875 507.1719,59.0313 Q507.8125,59.1875 508.375,59.4844 L508.375,62.2031 Q508.0156,61.8594 507.7188,61.6719 Q507.4219,61.4688 507.1563,61.3438 Q506.8438,61.2031 506.5313,61.1406 Q506.2344,61.0781 505.9219,61.0781 Q504.5938,61.0781 503.9063,62.1406 Q503.2188,63.2344 503.2188,65.3125 Q503.2188,67.4063 503.9063,68.4688 Q504.5938,69.5469 505.9219,69.5469 Q506.5625,69.5469 507.1563,69.2656 Q507.4531,69.1406 507.7344,68.9531 Q508.0313,68.75 508.375,68.4219 L508.375,71.1406 Q507.7969,71.4375 507.1563,71.5938 Q506.5156,71.7344 505.7969,71.7344 Z " fill="#000000"/><text fill="#000000" font-family="sans-serif" font-size="14" lengthAdjust="spacing" textLength="38" x="520" y="70.432">Entity</text><line style="stroke:#181818;stroke-width:0.5;" x1="492" x2="560" y1="81" y2="81"/><line style="stroke:#181818;stroke-width:0.5;" x1="492" x2="560" y1="89" y2="89"/></g><!--reverse link Entity to Tool--><g id="link_Entity_Tool"><path codeLine="17" d="M496.05,114.38 C477.86,138.89 454.1,170.92 432.67,199.81 " fill="none" id="Entity-backto-Tool" style="stroke:#181818;stroke-width:1.0;"/><polygon fill="none" points="490.29,110.38,507.83,98.49,501.54,118.72,490.29,110.38" style="stroke:#181818;stroke-width:1.0;"/></g><!--SRC=[hP1DJiGm34RtEONL_NJsg1e90GjMB8OBk8ah8YLsv3X2vUVk9EqLoCxsf_Vi-8Irmhj8Wcytpv39CA0XpBE3_bwv6h95N6EAjiC3F0bx9QDZV6-h7uIthKzUUixsey-OgNS6Tr2BIY6rI7LmVnsB4PWKaEtCBEljtd96tPVhUdEF39Ge4zj8VA26JrG2v70LXIgR7NMpljGNXOu2ZwexI3D0Lx2xV4kei3Ns5eNdeNYcwZMMKP-Qy_1OE_d_XOuumBZKJUVFJB3yN2um3Udq1m00]--></g></svg>